<svg width="100" height="100" viewBox="0 0 100 100" fill="none" xmlns="http://www.w3.org/2000/svg">
<path d="M18.7507 40.1045C15.5911 40.1045 13.0215 42.6741 13.0215 45.8337V56.2501C13.0215 58.2554 16.1465 58.2841 16.1465 56.2503V53.6462H21.3548V56.2502C21.3548 58.2785 24.4798 58.2719 24.4798 56.2503V45.8337C24.4798 42.6741 21.9102 40.1045 18.7507 40.1045ZM16.1465 50.5212V45.8337C16.1465 44.3973 17.3143 43.2295 18.7507 43.2295C20.187 43.2295 21.3548 44.3973 21.3548 45.8337V50.5212H16.1465Z" fill="black"/>
<path d="M39.0628 45.8337C39.0628 42.6741 36.4932 40.1045 33.3337 40.1045H29.167C28.3044 40.1045 27.6045 40.8044 27.6045 41.667V56.25C27.6045 58.2765 30.7295 58.2731 30.7295 56.2503V51.5628H33.3337C36.4932 51.5628 39.0628 48.9932 39.0628 45.8337ZM33.3337 48.4378H30.7295V43.2295H33.3337C34.77 43.2295 35.9378 44.3973 35.9378 45.8337C35.9378 47.27 34.77 48.4378 33.3337 48.4378Z" fill="black"/>
<path d="M43.75 40.1553C42.9688 40.1491 42.1875 40.6469 42.1875 41.6669V56.2499C42.1875 58.2575 45.3125 58.2758 45.3125 56.2503C45.3125 56.2503 45.3125 41.7616 45.3125 41.6674C45.3125 40.6716 44.5312 40.1615 43.75 40.1553Z" fill="black"/>
<path d="M91.667 10.9375H8.33366C5.17408 10.9375 2.60449 13.5071 2.60449 16.6667V83.3333C2.60449 86.4929 5.17408 89.0625 8.33366 89.0625H91.667C94.8266 89.0625 97.3962 86.4929 97.3962 83.3333V16.6667C97.3962 13.5071 94.8266 10.9375 91.667 10.9375ZM8.33366 14.0625H91.667C93.1034 14.0625 94.2712 15.2303 94.2712 16.6667V27.6042H5.72949V16.6667C5.72949 15.2303 6.89731 14.0625 8.33366 14.0625ZM91.667 85.9375H8.33366C6.89731 85.9375 5.72949 84.7697 5.72949 83.3333V30.7292H94.2712V83.3333C94.2712 84.7697 93.1034 85.9375 91.667 85.9375Z" fill="black"/>
<path d="M84.5418 56.5189C86.2834 55.5128 86.8815 53.2789 85.8765 51.5384C85.8765 51.5384 83.2024 46.9089 83.197 46.8998C82.215 45.2124 79.9069 44.5895 78.2167 45.565C76.8478 46.3551 75.0753 45.3227 75.0753 43.7503C75.0753 41.7402 73.4395 40.1045 71.4294 40.1045H66.0705C64.0605 40.1045 62.4248 41.7401 62.4247 43.7501C62.4246 45.3339 60.6535 46.3547 59.2836 45.5651C57.5643 44.5742 55.2912 45.1858 54.303 46.8997L51.6235 51.5384C50.6185 53.2788 51.2166 55.5126 52.9579 56.5187C54.3356 57.3147 54.3286 59.3562 52.9581 60.1484C51.2166 61.1545 50.6185 63.3884 51.6235 65.1289C51.6235 65.1289 54.2995 69.7616 54.303 69.7676C55.2925 71.4805 57.5719 72.0943 59.2833 71.1023C60.6576 70.3057 62.4247 71.3419 62.4247 72.917C62.4247 74.9271 64.0604 76.5628 66.0705 76.5628H71.4294C73.4395 76.5628 75.0751 74.9271 75.0753 72.9171C75.0753 71.3292 76.8403 70.3089 78.2165 71.1022C79.9348 72.0926 82.2129 71.4898 83.197 69.7676L85.8764 65.1289C86.8815 63.3884 86.2833 61.1546 84.542 60.1486C83.1632 59.3518 83.1678 57.3131 84.5418 56.5189ZM82.9793 62.8543C83.2275 62.9988 83.315 63.3172 83.1706 63.5664L80.4911 68.2051C80.3467 68.4512 80.0273 68.5397 79.7791 68.3963C76.3568 66.4192 71.9503 68.9905 71.9503 72.917C71.9503 73.2039 71.7163 73.4378 71.4294 73.4378H66.0705C65.7837 73.4378 65.5497 73.2039 65.5497 72.917C65.5492 68.9796 61.1414 66.4174 57.7209 68.3963C57.4687 68.5398 57.1533 68.4513 57.0089 68.2051L54.3294 63.5664C54.185 63.3172 54.2725 62.9988 54.5207 62.8543C57.9281 60.8707 57.9395 55.7863 54.5207 53.813C54.2725 53.6685 54.185 53.3501 54.3294 53.1009L57.0089 48.4622C57.1533 48.2151 57.4686 48.1266 57.7209 48.271C61.1465 50.2535 65.5497 47.6868 65.5497 43.7503C65.5497 43.4635 65.7837 43.2295 66.0705 43.2295H71.4294C71.7163 43.2295 71.9503 43.4635 71.9503 43.7502C71.9505 47.6943 76.3573 50.2488 79.779 48.271C80.0273 48.1265 80.3467 48.215 80.4911 48.4622L83.1706 53.1009C83.315 53.3501 83.2275 53.6684 82.9794 53.8129C79.5868 55.7882 79.5886 60.8971 82.9793 62.8543Z" fill="black"/>
<path d="M68.75 50.5205C64.443 50.5205 60.9375 54.0249 60.9375 58.333C60.9375 62.6411 64.443 66.1455 68.75 66.1455C73.057 66.1455 76.5625 62.6411 76.5625 58.333C76.5625 54.0249 73.057 50.5205 68.75 50.5205ZM68.75 63.0205C66.1662 63.0205 64.0625 60.9178 64.0625 58.333C64.0625 55.7482 66.1662 53.6455 68.75 53.6455C71.3338 53.6455 73.4375 55.7482 73.4375 58.333C73.4375 60.9178 71.3338 63.0205 68.75 63.0205Z" fill="black"/>
<path d="M66.6665 22.3955H87.4994C89.4979 22.3955 89.5382 19.2705 87.4998 19.2705C87.4998 19.2705 66.8224 19.2705 66.6674 19.2705C64.6745 19.2705 64.6361 22.3955 66.6665 22.3955Z" fill="black"/>
<path d="M12.5 22.3955C13.3629 22.3955 14.0625 21.696 14.0625 20.833C14.0625 19.9701 13.3629 19.2705 12.5 19.2705C11.6371 19.2705 10.9375 19.9701 10.9375 20.833C10.9375 21.696 11.6371 22.3955 12.5 22.3955Z" fill="black"/>
<path d="M18.75 22.3955C19.6129 22.3955 20.3125 21.696 20.3125 20.833C20.3125 19.9701 19.6129 19.2705 18.75 19.2705C17.8871 19.2705 17.1875 19.9701 17.1875 20.833C17.1875 21.696 17.8871 22.3955 18.75 22.3955Z" fill="black"/>
<path d="M25 22.3955C25.8629 22.3955 26.5625 21.696 26.5625 20.833C26.5625 19.9701 25.8629 19.2705 25 19.2705C24.1371 19.2705 23.4375 19.9701 23.4375 20.833C23.4375 21.696 24.1371 22.3955 25 22.3955Z" fill="black"/>
<path d="M21.9387 73.8954L16.7935 68.7502C16.7935 68.7502 21.9123 63.6312 21.9391 63.6045C23.3141 62.2284 21.1408 59.9837 19.7293 61.3954L13.4792 67.6454C12.8689 68.2558 12.8689 69.2446 13.4792 69.8549C13.4792 69.8549 19.6943 76.07 19.7291 76.1048C21.1119 77.4876 23.4127 75.3694 21.9387 73.8954Z" fill="black"/>
<path d="M38.6047 61.3952C37.2201 60.011 34.9671 62.1766 36.3952 63.6047L41.5405 68.75C41.5405 68.75 36.3952 73.8952 36.3948 73.8956C35.0046 75.2869 37.1949 77.5144 38.6047 76.1047L44.8547 69.8547C45.465 69.2443 45.465 68.2556 44.8547 67.6452C44.8547 67.6452 38.643 61.4336 38.6047 61.3952Z" fill="black"/>
<path d="M31.7109 61.1148C30.9745 60.8522 30.0847 61.0515 29.7686 62.0057C29.7686 62.0057 25.6402 74.3909 25.6022 74.5049C24.9682 76.4068 27.9251 77.4235 28.5662 75.4945C28.5662 75.4945 32.6807 63.1511 32.7324 62.9958C33.0301 62.102 32.4472 61.3774 31.7109 61.1148Z" fill="black"/>
</svg>
