<svg width="100" height="100" viewBox="0 0 100 100" fill="none" xmlns="http://www.w3.org/2000/svg">
<path fill-rule="evenodd" clip-rule="evenodd" d="M32.8764 35.1102C33.4311 35.6648 33.4311 36.5643 32.8764 37.1189C32.3217 37.6736 31.4223 37.6736 30.8676 37.1189L24.7309 30.9822C24.1762 30.4275 24.1762 29.5281 24.7309 28.9734L30.8676 22.8367C31.4223 22.282 32.3217 22.282 32.8764 22.8367C33.4311 23.3914 33.4311 24.2908 32.8764 24.8455L27.7439 29.9779L32.8764 35.1104V35.1102ZM45.9947 37.3301C45.44 37.8848 44.5406 37.8848 43.9859 37.3301C43.4313 36.7754 43.4313 35.876 43.9859 35.3213L49.1184 30.1889L43.9859 25.0564C43.4313 24.5018 43.4313 23.6023 43.9859 23.0477C44.5406 22.493 45.44 22.493 45.9947 23.0477L52.1314 29.1844C52.6861 29.7391 52.6861 30.6385 52.1314 31.1932L45.9947 37.3301ZM37.2498 39.9738C37.0475 40.7307 36.2699 41.1805 35.5131 40.9781C34.7563 40.776 34.3064 39.9982 34.5088 39.2414L39.6129 20.193C39.815 19.4361 40.5928 18.9863 41.3496 19.1887C42.1064 19.391 42.5563 20.1686 42.3539 20.9254L37.2498 39.9738ZM89.1199 45.5879C81.6643 42.8088 69.3498 42.8088 61.8941 45.5879C58.8564 46.7201 56.9775 48.1203 56.9775 49.5199C56.9775 50.9195 58.8564 52.3197 61.8941 53.452C69.35 56.2311 81.6639 56.2311 89.1197 53.452C92.1574 52.3197 94.0363 50.9195 94.0363 49.5199C94.0363 48.1203 92.1574 46.7201 89.1197 45.5879H89.1199ZM56.9777 77.275V84.3027C56.9777 85.7023 58.8566 87.1025 61.8943 88.2348C69.3504 91.0139 81.6639 91.0139 89.1199 88.2348C92.1576 87.1025 94.0365 85.7023 94.0365 84.3027V77.275C86.1135 82.9869 64.9008 82.9867 56.9777 77.275ZM56.9777 61.1141V54.0863C64.9006 59.798 86.1127 59.7982 94.0365 54.0863V61.1141C94.0365 62.5137 92.1576 63.9139 89.1199 65.0461C81.6641 67.8252 69.35 67.8252 61.8941 65.0461C58.8564 63.9139 56.9775 62.5137 56.9775 61.1141H56.9777ZM94.0365 65.6807V72.7084C94.0365 74.108 92.1576 75.5082 89.1199 76.6404C81.6641 79.4195 69.35 79.4195 61.8943 76.6404C58.8566 75.5082 56.9777 74.108 56.9777 72.7084V65.6807C64.9008 71.3924 86.1135 71.3924 94.0365 65.6807ZM60.1748 61.491L60.8988 61.8014C61.6189 62.1078 62.4512 61.7725 62.7576 61.0523C63.0641 60.3322 62.7287 59.5 62.0086 59.1936L61.2846 58.8832C60.5644 58.5768 59.7322 58.9121 59.4258 59.6322C59.1193 60.3523 59.4547 61.1846 60.1748 61.491ZM60.1748 73.1807L60.8988 73.491C61.6189 73.7975 62.4512 73.4621 62.7576 72.742C63.0641 72.0219 62.7287 71.1897 62.0086 70.8832L61.2846 70.5729C60.5644 70.2664 59.7322 70.6018 59.4258 71.3219C59.1193 72.042 59.4547 72.8742 60.1748 73.1807ZM60.1748 84.8703C59.4547 84.5639 59.1193 83.7316 59.4258 83.0115C59.7322 82.2914 60.5644 81.9561 61.2846 82.2625L62.0086 82.5728C62.7287 82.8793 63.0641 83.7115 62.7576 84.4316C62.4512 85.1518 61.6189 85.4871 60.8988 85.1807L60.1748 84.8703ZM54.1367 67.6139H19.942V71.207H54.1363V67.6139H54.1367ZM23.8055 64.7727L18.9209 64.7729C17.924 64.7729 17.1014 65.5955 17.1014 66.5924V72.2285C17.1014 73.232 17.9172 74.048 18.9209 74.048H54.1369V84.3027C54.1369 87.01 56.724 89.3279 60.9068 90.8871C69.0326 93.9158 81.982 93.9158 90.1078 90.8871C94.2904 89.3281 96.8777 87.01 96.8777 84.3027V49.5197C96.8777 46.8125 94.2906 44.4943 90.108 42.9354C85.7488 41.3105 79.7996 40.4963 73.7396 40.6914V11.2822C73.7396 8.83672 71.7437 6.84082 69.298 6.84082H7.56465C5.11895 6.84082 3.12305 8.83672 3.12305 11.2822V53.9535C3.12305 56.3992 5.11895 58.3949 7.56465 58.3949H31.4674C30.7916 62.0363 27.5785 64.7727 23.8055 64.7727ZM46.1217 64.7729H31.0236C32.7982 63.1271 34.0086 60.8936 34.3439 58.3949H42.8012C43.1365 60.8936 44.3471 63.1271 46.1217 64.7729ZM45.6777 58.3949H54.1369V64.7729H53.34C49.5668 64.7727 46.3533 62.0363 45.6777 58.3949ZM54.1369 50.3828V55.5539H7.56465C6.6873 55.5539 5.96406 54.8309 5.96406 53.9535V50.3828H54.1365H54.1369ZM5.96445 47.5418H54.6199C55.5516 45.6859 57.7844 44.0992 60.9066 42.9355C63.6223 41.9232 67.0643 41.1896 70.8984 40.859V11.2822C70.8984 10.4051 70.1752 9.68184 69.2978 9.68184H7.56465C6.6873 9.68184 5.96406 10.4049 5.96406 11.2822V47.5418H5.96445Z" fill="black"/>
</svg>
