<svg width="100" height="100" viewBox="0 0 100 100" fill="none" xmlns="http://www.w3.org/2000/svg">
<path d="M34.375 75C32.8298 75 31.3194 75.4582 30.0346 76.3166C28.7499 77.1751 27.7485 78.3952 27.1572 79.8228C26.5659 81.2503 26.4112 82.8212 26.7126 84.3366C27.0141 85.8521 27.7581 87.2442 28.8507 88.3368C29.9433 89.4294 31.3354 90.1734 32.8509 90.4749C34.3663 90.7763 35.9372 90.6216 37.3647 90.0303C38.7923 89.439 40.0124 88.4377 40.8709 87.1529C41.7293 85.8681 42.1875 84.3577 42.1875 82.8125C42.185 80.7413 41.3611 78.7556 39.8965 77.291C38.4319 75.8264 36.4462 75.0025 34.375 75ZM34.375 87.5C33.4479 87.5 32.5416 87.2251 31.7708 86.71C30.9999 86.1949 30.3991 85.4629 30.0443 84.6063C29.6895 83.7498 29.5967 82.8073 29.7776 81.898C29.9584 80.9887 30.4049 80.1535 31.0604 79.4979C31.716 78.8424 32.5512 78.3959 33.4605 78.2151C34.3698 78.0342 35.3123 78.127 36.1688 78.4818C37.0254 78.8366 37.7575 79.4374 38.2725 80.2083C38.7876 80.9791 39.0625 81.8854 39.0625 82.8125C39.0625 84.0557 38.5686 85.248 37.6896 86.1271C36.8105 87.0061 35.6182 87.5 34.375 87.5Z" fill="black"/>
<path d="M21.4844 71.4562L19.1406 69.3906C15.868 73.0958 14.0621 77.869 14.0625 82.8125H17.1875C17.188 78.6299 18.716 74.5915 21.4844 71.4562Z" fill="black"/>
<path d="M14.3457 86.1975C14.5403 87.3498 14.8341 88.4832 15.2238 89.585L18.1691 88.5412C17.8392 87.6103 17.5903 86.6525 17.4254 85.6787L14.3457 86.1975Z" fill="black"/>
<path d="M32.8125 81.25H35.9375V84.375H32.8125V81.25Z" fill="black"/>
<path d="M51.5625 81.25H54.6875V84.375H51.5625V81.25Z" fill="black"/>
<path d="M53.125 62.5C54.0521 62.5 54.9584 62.2251 55.7292 61.71C56.5001 61.1949 57.1009 60.4629 57.4557 59.6063C57.8105 58.7498 57.9033 57.8073 57.7224 56.898C57.5416 55.9887 57.0951 55.1535 56.4396 54.4979C55.784 53.8424 54.9488 53.3959 54.0395 53.2151C53.1302 53.0342 52.1877 53.127 51.3312 53.4818C50.4746 53.8366 49.7426 54.4374 49.2275 55.2083C48.7124 55.9791 48.4375 56.8854 48.4375 57.8125C48.4375 59.0557 48.9314 60.248 49.8104 61.1271C50.6895 62.0061 51.8818 62.5 53.125 62.5ZM53.125 56.25C53.434 56.25 53.7361 56.3416 53.9931 56.5133C54.25 56.685 54.4503 56.9291 54.5686 57.2146C54.6868 57.5001 54.7178 57.8142 54.6575 58.1173C54.5972 58.4204 54.4484 58.6988 54.2299 58.9174C54.0113 59.1359 53.7329 59.2847 53.4298 59.345C53.1267 59.4053 52.8126 59.3743 52.5271 59.2561C52.2415 59.1378 51.9975 58.9375 51.8258 58.6806C51.6541 58.4236 51.5625 58.1215 51.5625 57.8125C51.5625 57.3981 51.7271 57.0007 52.0201 56.7076C52.3132 56.4146 52.7106 56.25 53.125 56.25Z" fill="black"/>
<path d="M78.125 18.75C79.0521 18.75 79.9584 18.4751 80.7292 17.96C81.5001 17.4449 82.1009 16.7129 82.4557 15.8563C82.8105 14.9998 82.9033 14.0573 82.7224 13.148C82.5416 12.2387 82.0951 11.4035 81.4396 10.7479C80.784 10.0924 79.9488 9.64594 79.0395 9.46507C78.1302 9.2842 77.1877 9.37703 76.3312 9.73182C75.4746 10.0866 74.7426 10.6874 74.2275 11.4583C73.7124 12.2291 73.4375 13.1354 73.4375 14.0625C73.4375 15.3057 73.9314 16.498 74.8104 17.3771C75.6895 18.2561 76.8818 18.75 78.125 18.75ZM78.125 12.5C78.434 12.5 78.7361 12.5916 78.9931 12.7633C79.25 12.935 79.4503 13.179 79.5686 13.4646C79.6868 13.7501 79.7178 14.0642 79.6575 14.3673C79.5972 14.6704 79.4484 14.9488 79.2299 15.1674C79.0113 15.3859 78.7329 15.5347 78.4298 15.595C78.1267 15.6553 77.8126 15.6243 77.5271 15.5061C77.2415 15.3878 76.9975 15.1875 76.8258 14.9306C76.6541 14.6736 76.5625 14.3715 76.5625 14.0625C76.5625 13.6481 76.7271 13.2507 77.0201 12.9576C77.3132 12.6646 77.7106 12.5 78.125 12.5Z" fill="black"/>
<path d="M15.625 18.75C16.5521 18.75 17.4584 18.4751 18.2292 17.96C19.0001 17.4449 19.6009 16.7129 19.9557 15.8563C20.3105 14.9998 20.4033 14.0573 20.2224 13.148C20.0416 12.2387 19.5951 11.4035 18.9396 10.7479C18.284 10.0924 17.4488 9.64594 16.5395 9.46507C15.6302 9.2842 14.6877 9.37703 13.8312 9.73182C12.9746 10.0866 12.2426 10.6874 11.7275 11.4583C11.2124 12.2291 10.9375 13.1354 10.9375 14.0625C10.9375 15.3057 11.4314 16.498 12.3104 17.3771C13.1895 18.2561 14.3818 18.75 15.625 18.75ZM15.625 12.5C15.934 12.5 16.2361 12.5916 16.4931 12.7633C16.75 12.935 16.9503 13.179 17.0686 13.4646C17.1868 13.7501 17.2178 14.0642 17.1575 14.3673C17.0972 14.6704 16.9484 14.9488 16.7299 15.1674C16.5113 15.3859 16.2329 15.5347 15.9298 15.595C15.6267 15.6553 15.3126 15.6243 15.0271 15.5061C14.7415 15.3878 14.4975 15.1875 14.3258 14.9306C14.1541 14.6736 14.0625 14.3715 14.0625 14.0625C14.0625 13.6481 14.2271 13.2507 14.5201 12.9576C14.8132 12.6646 15.2106 12.5 15.625 12.5Z" fill="black"/>
<path d="M72.6016 67.9143L74.8109 70.1237C75.7038 69.2715 76.8907 68.796 78.125 68.796C79.3593 68.796 80.5462 69.2715 81.4391 70.1237L83.6484 67.9143C82.1834 66.4497 80.1966 65.627 78.125 65.627C76.0534 65.627 74.0666 66.4497 72.6016 67.9143Z" fill="black"/>
<path d="M68.1816 63.4939L70.391 65.7033C72.444 63.6553 75.2255 62.5052 78.1254 62.5052C81.0252 62.5052 83.8067 63.6553 85.8598 65.7033L88.0691 63.4939C85.4295 60.8613 81.8535 59.3828 78.1254 59.3828C74.3973 59.3828 70.8213 60.8613 68.1816 63.4939Z" fill="black"/>
<path d="M75.916 72.7909L78.1254 75.0003L80.3348 72.7909C79.7487 72.2051 78.954 71.876 78.1254 71.876C77.2968 71.876 76.502 72.2051 75.916 72.7909Z" fill="black"/>
<path d="M89.0625 40.6254H72.0625L81.375 24.5004C82.9583 24.0126 84.4101 23.1715 85.6208 22.0405C86.8315 20.9095 87.7694 19.5183 88.3638 17.9718C88.9582 16.4254 89.1935 14.7641 89.0519 13.1134C88.9104 11.4627 88.3957 9.86573 87.5467 8.44304C86.6977 7.02035 85.5366 5.80911 84.1511 4.90077C82.7655 3.99243 81.1917 3.41072 79.5485 3.19956C77.9052 2.98839 76.2355 3.15329 74.6653 3.6818C73.0951 4.21031 71.6655 5.08863 70.4844 6.25044H23.2656C22.2256 5.23135 20.9924 4.43042 19.6385 3.89474C18.2845 3.35906 16.8372 3.09943 15.3815 3.13112C13.9257 3.16281 12.491 3.48518 11.1617 4.07927C9.83234 4.67336 8.63516 5.52719 7.64051 6.59058C6.64586 7.65397 5.87382 8.90546 5.36975 10.2715C4.86569 11.6375 4.63978 13.0905 4.70529 14.5451C4.77081 15.9997 5.12644 17.4265 5.75127 18.7417C6.3761 20.0569 7.25753 21.2339 8.34375 22.2036C7.99513 23.095 7.815 24.0433 7.8125 25.0004V28.1254C7.3981 28.1254 7.00067 28.2901 6.70765 28.5831C6.41462 28.8761 6.25 29.2735 6.25 29.6879V34.3754H4.6875C4.2731 34.3754 3.87567 34.5401 3.58265 34.8331C3.28962 35.1261 3.125 35.5235 3.125 35.9379V45.3129C3.125 45.7273 3.28962 46.1248 3.58265 46.4178C3.87567 46.7108 4.2731 46.8754 4.6875 46.8754H6.25V53.1254C6.25308 53.5397 6.41532 53.9369 6.70312 54.2348L11.3906 58.9223L13.6094 56.7036L9.375 52.4848V46.8754H21.875V52.4848L17.6406 56.7036L19.8594 58.9223L24.5469 54.2348C24.8347 53.9369 24.9969 53.5397 25 53.1254V46.8754H26.5625C26.9769 46.8754 27.3743 46.7108 27.6674 46.4178C27.9604 46.1248 28.125 45.7273 28.125 45.3129V35.9379C28.125 35.5235 27.9604 35.1261 27.6674 34.8331C27.3743 34.5401 26.9769 34.3754 26.5625 34.3754H25V29.6879C25 29.2735 24.8354 28.8761 24.5424 28.5831C24.2493 28.2901 23.8519 28.1254 23.4375 28.1254V25.0004C23.435 24.0433 23.2549 23.095 22.9062 22.2036C23.0312 22.0942 23.1562 21.9848 23.2656 21.8754H64.875L50.1875 47.2817C48.3569 47.79 46.6905 48.767 45.3529 50.1163C44.0154 51.4656 43.0529 53.1405 42.5606 54.9755C42.0684 56.8105 42.0633 58.7422 42.5459 60.5798C43.0285 62.4173 43.9821 64.0972 45.3125 65.4536V68.7504H34.375C30.6454 68.7504 27.0685 70.232 24.4313 72.8693C21.7941 75.5065 20.3125 79.0833 20.3125 82.8129C20.3125 86.5425 21.7941 90.1194 24.4313 92.7566C27.0685 95.3939 30.6454 96.8754 34.375 96.8754H89.0625C91.1345 96.8754 93.1216 96.0523 94.5868 94.5872C96.0519 93.1221 96.875 91.1349 96.875 89.0629V48.4379C96.875 46.3659 96.0519 44.3788 94.5868 42.9137C93.1216 41.4485 91.1345 40.6254 89.0625 40.6254ZM78.125 6.25044C79.6702 6.25044 81.1806 6.70864 82.4654 7.56709C83.7502 8.42554 84.7515 9.64568 85.3428 11.0732C85.9341 12.5008 86.0888 14.0716 85.7874 15.5871C85.4859 17.1026 84.7419 18.4946 83.6493 19.5872C82.5567 20.6798 81.1646 21.4239 79.6491 21.7253C78.1337 22.0268 76.5628 21.8721 75.1353 21.2808C73.7077 20.6894 72.4876 19.6881 71.6291 18.4033C70.7707 17.1186 70.3125 15.6081 70.3125 14.0629C70.3125 11.9909 71.1356 10.0038 72.6007 8.53867C74.0659 7.07354 76.053 6.25044 78.125 6.25044ZM25 37.5004V43.7504H6.25V37.5004H25ZM21.875 31.2504V34.3754H9.375V31.2504H21.875ZM10.9375 28.1254V25.0004C10.9448 24.6627 10.992 24.3271 11.0781 24.0004C12.5034 24.6592 14.0548 25.0004 15.625 25.0004C17.1952 25.0004 18.7466 24.6592 20.1719 24.0004C20.258 24.3271 20.3052 24.6627 20.3125 25.0004V28.1254H10.9375ZM15.625 21.8754C14.0798 21.8754 12.5694 21.4172 11.2846 20.5588C9.99985 19.7003 8.9985 18.4802 8.40719 17.0527C7.81588 15.6251 7.66117 14.0543 7.96262 12.5388C8.26406 11.0233 9.00813 9.63127 10.1007 8.53867C11.1933 7.44607 12.5854 6.70201 14.1009 6.40056C15.6163 6.09911 17.1872 6.25383 18.6147 6.84513C20.0423 7.43644 21.2624 8.43779 22.1209 9.72255C22.9793 11.0073 23.4375 12.5178 23.4375 14.0629C23.4375 15.0889 23.2354 16.1048 22.8428 17.0527C22.4502 18.0005 21.8747 18.8618 21.1493 19.5872C20.4238 20.3127 19.5626 20.8881 18.6147 21.2808C17.6669 21.6734 16.651 21.8754 15.625 21.8754ZM25.4844 18.7504C26.1938 17.2897 26.5625 15.6869 26.5625 14.0629C26.5625 12.439 26.1938 10.8362 25.4844 9.37544H68.2656C67.557 10.8365 67.1884 12.4391 67.1875 14.0629C67.1882 15.0942 67.3355 16.1201 67.625 17.1098L66.6719 18.7504H25.4844ZM53.125 50.0004C54.3414 49.999 55.541 50.284 56.6268 50.8324C57.7126 51.3807 58.6541 52.1769 59.375 53.1567V62.4692C58.5797 63.5406 57.5233 64.3905 56.3064 64.9379C55.0895 65.4852 53.7527 65.7118 52.4234 65.5959C51.0941 65.4801 49.8166 65.0257 48.7128 64.2761C47.6089 63.5265 46.7154 62.5066 46.1175 61.3138C45.5196 60.1209 45.2371 58.7948 45.2971 57.4618C45.3571 56.1288 45.7574 54.8334 46.4601 53.6991C47.1627 52.5647 48.1441 51.6292 49.3109 50.9818C50.4776 50.3343 51.7907 49.9965 53.125 50.0004ZM57.8125 67.6723V68.7504H48.4375V67.6723C49.8983 68.3818 51.501 68.7504 53.125 68.7504C54.749 68.7504 56.3517 68.3818 57.8125 67.6723ZM34.375 93.7504C31.4742 93.7504 28.6922 92.5981 26.641 90.5469C24.5898 88.4958 23.4375 85.7137 23.4375 82.8129C23.4375 79.9121 24.5898 77.1301 26.641 75.079C28.6922 73.0278 31.4742 71.8754 34.375 71.8754H59.375V78.1723C58.398 76.8492 57.0285 75.8682 55.4613 75.369C53.8942 74.8698 52.2095 74.8779 50.6473 75.3922C49.0851 75.9064 47.725 76.9006 46.7608 78.2331C45.7967 79.5655 45.2776 81.1682 45.2776 82.8129C45.2776 84.4576 45.7967 86.0604 46.7608 87.3928C47.725 88.7253 49.0851 89.7195 50.6473 90.2337C52.2095 90.748 53.8942 90.7561 55.4613 90.2569C57.0285 89.7577 58.398 88.7767 59.375 87.4536V89.0629C59.3797 90.7602 59.9456 92.4082 60.9844 93.7504H34.375ZM57.8125 82.8129C57.8125 83.74 57.5376 84.6463 57.0225 85.4172C56.5074 86.188 55.7754 86.7888 54.9188 87.1436C54.0623 87.4984 53.1198 87.5912 52.2105 87.4104C51.3012 87.2295 50.466 86.7831 49.8104 86.1275C49.1549 85.4719 48.7084 84.6367 48.5276 83.7274C48.3467 82.8181 48.4395 81.8756 48.7943 81.0191C49.1491 80.1626 49.7499 79.4305 50.5208 78.9154C51.2916 78.4004 52.1979 78.1254 53.125 78.1254C54.3671 78.1292 55.5572 78.6242 56.4355 79.5025C57.3137 80.3808 57.8088 81.5709 57.8125 82.8129ZM59.375 48.4379V48.8442C57.7813 47.7463 55.9285 47.0839 54 46.9223L69.2812 20.4692C70.2311 21.7825 71.4615 22.8677 72.8831 23.6461C74.3048 24.4244 75.8819 24.8764 77.5 24.9692L68.4531 40.6254H67.1875C65.1155 40.6254 63.1284 41.4485 61.6632 42.9137C60.1981 44.3788 59.375 46.3659 59.375 48.4379ZM93.75 89.0629C93.7463 90.305 93.2512 91.4951 92.373 92.3734C91.4947 93.2517 90.3046 93.7467 89.0625 93.7504H67.1875C65.9454 93.7467 64.7553 93.2517 63.877 92.3734C62.9988 91.4951 62.5037 90.305 62.5 89.0629V84.3754H93.75V89.0629ZM93.75 81.2504H62.5V53.1254H93.75V81.2504ZM93.75 50.0004H62.5V48.4379C62.5037 47.1959 62.9988 46.0058 63.877 45.1275C64.7553 44.2492 65.9454 43.7542 67.1875 43.7504H89.0625C90.3046 43.7542 91.4947 44.2492 92.373 45.1275C93.2512 46.0058 93.7463 47.1959 93.75 48.4379V50.0004Z" fill="black"/>
<path d="M76.5625 87.5H79.6875V90.625H76.5625V87.5Z" fill="black"/>
</svg>
