<svg width="100" height="100" viewBox="0 0 100 100" fill="none" xmlns="http://www.w3.org/2000/svg">
<path d="M33.5039 41.4298H39.2539V52.1485H35.4434C34.916 49.9903 32.9648 48.3829 30.6445 48.3829C27.9199 48.3829 25.7051 50.5977 25.7051 53.3204C25.7051 56.0431 27.9219 58.2579 30.6445 58.2579C32.9648 58.2579 34.9141 56.6505 35.4434 54.4923H40.4258C41.0723 54.4923 41.5977 53.9669 41.5977 53.3204V41.4298H48.8398V48.5235C46.6797 49.0509 45.0723 51.0001 45.0723 53.3204C45.0723 56.0431 47.2891 58.2579 50.0117 58.2579C52.7344 58.2579 54.9512 56.0431 54.9512 53.3204C54.9512 51.002 53.3438 49.0509 51.1836 48.5235V41.4298H58.457V53.3204C58.457 53.9669 58.9824 54.4923 59.6289 54.4923H64.6113C65.1387 56.6505 67.0898 58.2579 69.4102 58.2579C72.1348 58.2579 74.3496 56.0431 74.3496 53.3204C74.3496 50.5977 72.1328 48.3829 69.4102 48.3829C67.0898 48.3829 65.1406 49.9903 64.6113 52.1485H60.8008V41.4298H66.5195C72.7598 41.4298 77.8359 36.3556 77.8359 30.1192C77.8359 24.381 75.2773 21.0997 70.2305 20.3517C69.6387 13.1017 66.377 7.89267 60.5273 4.85751C56.3242 2.67783 52.1934 2.35556 47.8984 3.87314C44.0781 5.22275 39.4023 8.73447 38.2617 12.586C38.1738 12.8849 38.1016 13.1661 38.041 13.42C34.6523 12.4259 31.8945 14.088 30.4707 15.9942C29.2305 17.6544 28.8477 19.5919 29.3516 21.1661C25.0527 22.7735 22.4688 25.9493 22.1934 30.0431C22.0039 32.8575 23.0078 35.5919 25.0195 37.7442C27.207 40.0841 30.3008 41.4298 33.5039 41.4298ZM30.6445 55.9142C29.2129 55.9142 28.0488 54.7501 28.0488 53.3204C28.0488 51.8907 29.2129 50.7267 30.6445 50.7267C32.0762 50.7267 33.2402 51.8907 33.2402 53.3204C33.2402 54.7501 32.0742 55.9142 30.6445 55.9142ZM52.6055 53.3204C52.6055 54.7501 51.4414 55.9142 50.0098 55.9142C48.5781 55.9142 47.4141 54.7501 47.4141 53.3204C47.4141 51.8907 48.5781 50.7267 50.0098 50.7267C51.4414 50.7267 52.6055 51.8888 52.6055 53.3204ZM69.4082 50.7247C70.8398 50.7247 72.0039 51.8888 72.0039 53.3184C72.0039 54.7481 70.8398 55.9122 69.4082 55.9122C67.9766 55.9122 66.8125 54.7481 66.8125 53.3184C66.8125 51.8888 67.9766 50.7247 69.4082 50.7247ZM24.5273 30.1954C24.7598 26.7325 27.25 24.0997 31.3594 22.9727C31.75 22.8653 32.0586 22.5645 32.1738 22.1759C32.2891 21.7872 32.1953 21.3673 31.9258 21.0645C31.0957 20.131 31.5078 18.5118 32.3438 17.3946C33.125 16.3497 34.4121 15.4727 36.0293 15.4727C36.7227 15.4727 37.4766 15.6329 38.2773 16.0118C38.6152 16.172 39.002 16.1681 39.3359 16.004C39.9277 15.713 40.0469 15.17 40.2129 14.42C40.2852 14.0919 40.377 13.6817 40.5039 13.252C41.3789 10.297 45.4277 7.23056 48.6738 6.08407C52.375 4.77743 55.7969 5.04892 59.4434 6.93954C64.7637 9.69931 67.625 14.586 67.9492 21.463C67.9766 22.0528 68.4395 22.5294 69.0293 22.5763C73.4961 22.9239 75.4883 25.2501 75.4883 30.1212C75.4883 35.0665 71.4629 39.088 66.5156 39.088H33.5039C30.9473 39.088 28.4785 38.0138 26.7285 36.1427C25.1641 34.4669 24.3828 32.3556 24.5273 30.1954ZM37.8848 22.0548C37.4277 21.5977 37.4277 20.8556 37.8848 20.3966C41.1211 17.1622 45.4238 15.3809 50 15.3809C54.5762 15.3809 58.8789 17.1622 62.1152 20.3966C62.5723 20.8536 62.5723 21.5958 62.1152 22.0548C61.8867 22.2833 61.5859 22.3985 61.2871 22.3985C60.9863 22.3985 60.6875 22.2833 60.459 22.0548C57.666 19.2618 53.9512 17.7247 50 17.7247C46.0488 17.7247 42.3359 19.2618 39.541 22.0548C39.084 22.5138 38.3418 22.5138 37.8848 22.0548ZM58.8574 23.6524C59.3145 24.1095 59.3145 24.8517 58.8574 25.3106C58.6289 25.5392 58.3281 25.6544 58.0293 25.6544C57.7285 25.6544 57.4297 25.5392 57.2012 25.3106C55.2773 23.3888 52.7207 22.3302 50 22.3302C47.2793 22.3302 44.7227 23.3888 42.7988 25.3106C42.3418 25.7677 41.5996 25.7677 41.1406 25.3106C40.6836 24.8536 40.6836 24.1114 41.1406 23.6524C43.5059 21.2872 46.6523 19.9845 49.998 19.9845C53.3438 19.9845 56.4922 21.2892 58.8574 23.6524ZM55.6016 26.9083C56.0586 27.3653 56.0586 28.1075 55.6016 28.5665C55.373 28.795 55.0723 28.9102 54.7734 28.9102C54.4727 28.9102 54.1738 28.795 53.9453 28.5665C52.8926 27.5138 51.4902 26.9337 50.002 26.9337C48.5137 26.9337 47.1113 27.5138 46.0586 28.5665C45.6016 29.0235 44.8594 29.0235 44.4004 28.5665C43.9434 28.1095 43.9434 27.3673 44.4004 26.9083C45.8965 25.4122 47.8848 24.5899 50.002 24.5899C52.1191 24.5899 54.1055 25.4142 55.6016 26.9083ZM50 29.1934C48.1719 29.1934 46.6855 30.6798 46.6855 32.5079C46.6855 34.336 48.1719 35.8224 50 35.8224C51.8281 35.8224 53.3145 34.336 53.3145 32.5079C53.3145 30.6798 51.8281 29.1934 50 29.1934ZM50 33.4786C49.4648 33.4786 49.0293 33.0431 49.0293 32.5079C49.0293 31.9727 49.4648 31.5372 50 31.5372C50.5352 31.5372 50.9707 31.9727 50.9707 32.5079C50.9707 33.0431 50.5352 33.4786 50 33.4786ZM92.7461 67.295C91.1152 64.4708 87.4902 63.4825 84.4941 65.0489L66.1367 74.6368C65.5156 72.7599 63.9922 71.2188 61.9434 70.67L34.8789 63.4181C34.5371 63.3243 34.5352 63.3263 32.418 64.0138C29.9434 64.8184 25.2852 66.3302 22.8672 67.0685V63.6114C22.8672 62.9649 22.3418 62.4395 21.6953 62.4395H7.61719C6.9707 62.4395 6.44531 62.9649 6.44531 63.6114V95.8985C6.44531 96.545 6.9707 97.0704 7.61719 97.0704H21.6973C22.3437 97.0704 22.8691 96.545 22.8691 95.8985V92.3185L33.4473 94.4122C34.2129 94.5645 34.9121 94.6329 35.6777 94.6329C35.7598 94.6329 35.8418 94.6329 35.9258 94.631L56.5566 94.2403C57.6328 94.2501 58.6934 93.9688 59.625 93.4317L90.5215 75.5919C93.4219 73.9161 94.4199 70.1954 92.7461 67.295ZM20.5254 94.7267H8.78906V64.7813H20.5254V94.7267ZM89.3516 73.5606L58.4551 91.4005C57.8809 91.7325 57.2324 91.9005 56.5644 91.8966C56.5527 91.8966 56.541 91.8966 56.5293 91.8966L35.8809 92.2872C35.1816 92.3009 34.5879 92.2481 33.9023 92.1114L22.8691 89.9278V69.5138C25.0293 68.879 30.2109 67.1954 33.1426 66.2423C33.7383 66.0489 34.2793 65.8731 34.5996 65.7696L61.3359 72.9337C63.3223 73.4649 64.5039 75.5138 63.9727 77.5001C63.7168 78.4571 63.0977 79.2599 62.2324 79.7599C61.3672 80.2599 60.3633 80.3946 59.4062 80.1368L41.1504 75.2442C40.5254 75.0782 39.8828 75.4473 39.7148 76.0724C39.5469 76.6974 39.918 77.3399 40.543 77.5079L58.7988 82.4005C60.3613 82.8185 61.9961 82.6017 63.4043 81.7892C64.8125 80.9767 65.8184 79.6681 66.2363 78.1075C66.3223 77.7833 66.3828 77.4591 66.4141 77.1349L85.5781 67.1251C87.457 66.1427 89.7148 66.7325 90.7148 68.4669C91.7441 70.2481 91.1309 72.5333 89.3516 73.5606Z" fill="black"/>
</svg>
