<svg width="100" height="100" viewBox="0 0 100 100" fill="none" xmlns="http://www.w3.org/2000/svg">
<g clip-path="url(#clip0_476_400)">
<path d="M82.4305 72.3707V61.416H13.5723V72.3707" stroke="black" stroke-width="3.09862" stroke-linejoin="round"/>
<path d="M48 72.3714V50.4619" stroke="black" stroke-width="3.09862"/>
<path d="M90.2556 89.5851L91.8205 92.715L90.2556 95.8449H87.1257L83.9957 98.9748H80.8658L77.7359 95.8449H74.606L73.041 92.715L74.606 89.5851L73.041 86.4552L74.606 83.3252H77.7359L80.8658 80.1953H83.9957L87.1257 83.3252H90.2556L91.8205 86.4552L90.2556 89.5851Z" stroke="black" stroke-width="3.09862" stroke-linejoin="round"/>
<path d="M82.4297 92.7139C84.1583 92.7139 85.5596 91.3126 85.5596 89.584C85.5596 87.8554 84.1583 86.4541 82.4297 86.4541C80.7011 86.4541 79.2998 87.8554 79.2998 89.584C79.2998 91.3126 80.7011 92.7139 82.4297 92.7139Z" fill="black"/>
<path d="M55.8259 89.5851L57.3909 92.715L55.8259 95.8449H52.696L49.5661 98.9748H46.4361L43.3062 95.8449H40.1763L38.6113 92.715L40.1763 89.5851L38.6113 86.4552L40.1763 83.3252H43.3062L46.4361 80.1953H49.5661L52.696 83.3252H55.8259L57.3909 86.4552L55.8259 89.5851Z" stroke="black" stroke-width="3.09862" stroke-linejoin="round"/>
<path d="M48.001 92.7139C49.7296 92.7139 51.1309 91.3126 51.1309 89.584C51.1309 87.8554 49.7296 86.4541 48.001 86.4541C46.2724 86.4541 44.8711 87.8554 44.8711 89.584C44.8711 91.3126 46.2724 92.7139 48.001 92.7139Z" fill="black"/>
<path d="M21.3972 89.5851L22.9621 92.715L21.3972 95.8449H18.2673L15.1373 98.9748H12.0074L8.8775 95.8449H5.74758L4.18262 92.715L5.74758 89.5851L4.18262 86.4552L5.74758 83.3252H8.8775L12.0074 80.1953H15.1373L18.2673 83.3252H21.3972L22.9621 86.4552L21.3972 89.5851Z" stroke="black" stroke-width="3.09862" stroke-linejoin="round"/>
<path d="M13.5713 92.7139C15.2999 92.7139 16.7012 91.3126 16.7012 89.584C16.7012 87.8554 15.2999 86.4541 13.5713 86.4541C11.8427 86.4541 10.4414 87.8554 10.4414 89.584C10.4414 91.3126 11.8427 92.7139 13.5713 92.7139Z" fill="black"/>
<path d="M24.5251 48.8792L21.3952 44.1919L16.7003 45.7544L13.5704 42.6294L15.1353 37.9302L10.4404 34.8176V28.5492L15.1541 25.4244L13.5704 20.7372L16.7002 17.6126L21.3952 19.1936L24.5251 14.4688L30.7849 14.4877L33.9148 19.1936L38.6097 17.6313L41.7396 20.7559L40.1559 25.4432L44.8696 28.5681V34.8364L40.1747 37.9487L41.7396 42.6484L38.6097 45.7731L33.9148 44.1919L30.7849 48.8979L24.5251 48.8792Z" stroke="black" stroke-width="3.09862" stroke-linecap="round" stroke-linejoin="round"/>
<path d="M27.6559 39.509C31.9774 39.509 35.4807 36.0057 35.4807 31.6842C35.4807 27.3627 31.9774 23.8594 27.6559 23.8594C23.3343 23.8594 19.8311 27.3627 19.8311 31.6842C19.8311 36.0057 23.3343 39.509 27.6559 39.509Z" stroke="black" stroke-width="3.09862" stroke-linecap="round" stroke-linejoin="round"/>
<path d="M51.1299 26.9866L54.2598 31.6814H58.9547L62.0846 36.3763H68.3444L71.4744 31.6814H76.1693L79.2992 26.9866L76.1693 22.2917L79.2992 17.5968L76.1693 12.9019H71.4744L68.3444 8.20703H62.0846L58.9547 12.9019H54.2598L51.1299 17.5968L54.2598 22.2917L51.1299 26.9866Z" stroke="black" stroke-width="3.09862" stroke-linejoin="round"/>
<path d="M65.2154 26.9874C67.8083 26.9874 69.9103 24.8854 69.9103 22.2925C69.9103 19.6996 67.8083 17.5977 65.2154 17.5977C62.6225 17.5977 60.5205 19.6996 60.5205 22.2925C60.5205 24.8854 62.6225 26.9874 65.2154 26.9874Z" stroke="black" stroke-width="3.09862" stroke-linecap="round" stroke-linejoin="round"/>
</g>
<defs>
<clipPath id="clip0_476_400">
<rect width="100" height="100" fill="white"/>
</clipPath>
</defs>
</svg>
