<svg width="100" height="100" viewBox="0 0 100 100" fill="none" xmlns="http://www.w3.org/2000/svg">
<path d="M61.3177 34.8393C60.818 34.8393 60.3175 34.6486 59.936 34.2671C51.2072 25.5376 37.0021 25.5376 28.2733 34.2671C27.5103 35.0301 26.2736 35.0301 25.5107 34.2671C24.7477 33.505 24.7477 32.2682 25.5107 31.5053C35.7631 21.2521 52.4455 21.2521 62.6986 31.5053C63.4616 32.2675 63.4616 33.5042 62.6986 34.2671C62.3172 34.6486 61.8174 34.8393 61.3177 34.8393Z" fill="black"/>
<path d="M68.0003 28.1569C67.4976 28.1569 66.9955 27.9646 66.6133 27.5793L66.5897 27.5557C65.8237 26.7958 65.8183 25.5591 66.5782 24.7931C67.3381 24.0279 68.5748 24.0225 69.3401 24.7824L69.3866 24.8282C70.1465 25.5942 70.1411 26.8309 69.3752 27.5908C68.9944 27.9684 68.497 28.1569 68.0003 28.1569Z" fill="black"/>
<path d="M20.209 28.157C19.7093 28.157 19.2095 27.9663 18.8281 27.5848C18.0651 26.8226 18.0651 25.5859 18.8281 24.8229C24.6188 19.0322 31.972 15.4899 40.0927 14.5774C47.9739 13.6924 56.0183 15.4724 62.7451 19.5884C63.6645 20.1515 63.9544 21.3539 63.3914 22.274C62.8283 23.1941 61.6259 23.4832 60.7058 22.9202C48.1226 15.2198 32.0376 17.1371 21.5899 27.5848C21.2092 27.9663 20.7087 28.157 20.209 28.157Z" fill="black"/>
<path d="M44.1043 76.2845C37.3706 76.2845 30.6369 73.7217 25.5107 68.5948C24.7477 67.8326 24.7477 66.5959 25.5107 65.8329C26.2736 65.07 27.5103 65.07 28.2733 65.8329C37.0021 74.5625 51.2072 74.5625 59.936 65.8329C60.699 65.07 61.9357 65.07 62.6986 65.8329C63.4616 66.5959 63.4616 67.8326 62.6986 68.5948C57.5724 73.7217 50.838 76.2845 44.1043 76.2845Z" fill="black"/>
<path d="M44.1273 85.7465C37.1441 85.7465 30.2586 83.7033 24.4313 79.8558C23.5318 79.2615 23.2838 78.0492 23.8781 77.1497C24.4725 76.2494 25.684 76.0022 26.5843 76.5958C39.1316 84.882 55.9681 83.1654 66.6188 72.5156C67.3809 71.7526 68.6177 71.7526 69.3806 72.5156C70.1435 73.2785 70.1435 74.5152 69.3806 75.2774C63.522 81.136 55.7621 84.7966 47.5285 85.5847C46.3955 85.6923 45.2595 85.7465 44.1273 85.7465Z" fill="black"/>
<path d="M20.2766 75.9182C19.7807 75.9182 19.2848 75.7305 18.9041 75.3544L18.8217 75.2728C18.0626 74.5068 18.0679 73.2701 18.8339 72.5102C19.5999 71.751 20.8359 71.7564 21.5957 72.5224L21.6484 72.575C22.4159 73.3326 22.4243 74.5693 21.6659 75.3376C21.2845 75.7237 20.7802 75.9182 20.2766 75.9182Z" fill="black"/>
<path d="M44.0764 57.2691C40.0961 57.2691 36.8574 54.0305 36.8574 50.0502C36.8574 46.0699 40.0961 42.832 44.0764 42.832C48.0566 42.832 51.2945 46.0699 51.2945 50.0502C51.2945 54.0305 48.0566 57.2691 44.0764 57.2691ZM44.0764 46.7383C42.2499 46.7383 40.7637 48.2237 40.7637 50.0502C40.7637 51.8767 42.2499 53.3629 44.0764 53.3629C45.9028 53.3629 47.3883 51.8767 47.3883 50.0502C47.3883 48.2237 45.9028 46.7383 44.0764 46.7383Z" fill="black"/>
<path d="M7.21893 69.1675C3.23792 69.1675 0 65.9296 0 61.9494V38.1525C0 34.1723 3.23792 30.9336 7.21893 30.9336C11.1992 30.9336 14.4371 34.1723 14.4371 38.1525V61.9494C14.4371 65.9296 11.1992 69.1675 7.21893 69.1675ZM7.21893 34.8398C5.39246 34.8398 3.90625 36.326 3.90625 38.1525V61.9494C3.90625 63.7758 5.39246 65.2613 7.21893 65.2613C9.04465 65.2613 10.5309 63.7758 10.5309 61.9494V38.1525C10.5309 36.326 9.04465 34.8398 7.21893 34.8398Z" fill="black"/>
<path d="M85.2129 69.1678C81.7163 69.1678 78.8713 66.3235 78.8713 62.827V43.7558H76.7656C73.2698 43.7558 70.4248 40.9108 70.4248 37.415C70.4248 33.9185 73.2698 31.0742 76.7656 31.0742H93.6594C97.1559 31.0742 100 33.9185 100 37.415C100 40.9108 97.1559 43.7558 93.6594 43.7558H91.5536V62.827C91.5536 66.3235 88.7086 69.1678 85.2129 69.1678ZM76.7656 34.9805C75.4236 34.9805 74.3311 36.0722 74.3311 37.415C74.3311 38.7578 75.4236 39.8495 76.7656 39.8495H80.8244C81.9032 39.8495 82.7776 40.7239 82.7776 41.8027V62.827C82.7776 64.1698 83.8701 65.2615 85.2129 65.2615C86.5549 65.2615 87.6474 64.1698 87.6474 62.827V41.8027C87.6474 40.7239 88.5217 39.8495 89.6005 39.8495H93.6594C95.0021 39.8495 96.0939 38.757 96.0939 37.415C96.0939 36.0722 95.0021 34.9805 93.6594 34.9805H76.7656Z" fill="black"/>
<path d="M44.077 66.7468C34.8706 66.7468 27.3809 59.257 27.3809 50.0507C27.3809 40.845 34.8706 33.3545 44.077 33.3545C53.2834 33.3545 60.7732 40.845 60.7732 50.0507C60.7732 59.257 53.2834 66.7468 44.077 66.7468ZM44.077 37.2607C37.0244 37.2607 31.2871 42.998 31.2871 50.0507C31.2871 57.1033 37.0244 62.8406 44.077 62.8406C51.1289 62.8406 56.8669 57.1033 56.8669 50.0507C56.8669 42.998 51.1289 37.2607 44.077 37.2607Z" fill="black"/>
</svg>
