<svg width="100" height="100" viewBox="0 0 100 100" fill="none" xmlns="http://www.w3.org/2000/svg">
<path d="M87.2188 29.2734C87.2109 19.7793 79.4844 12.0586 69.9902 12.0586C60.9434 12.0586 53.5039 19.0664 52.8145 27.9395C51.4199 27.541 49.9766 27.3379 48.5039 27.3379C45.2715 27.3379 42.166 28.3125 39.5234 30.1582C37.2637 31.7363 35.4785 33.8496 34.3125 36.3145C32.9141 35.8516 31.4531 35.6172 29.957 35.6172C26.3301 35.6172 22.8984 37.0098 20.2969 39.5352C17.959 41.8047 16.5176 44.7656 16.1719 47.9688C10.8359 48.5254 6.66016 53.0527 6.66016 58.5312C6.66016 64.3867 11.4238 69.1523 17.2793 69.1523H27.4375V80.5332H24.7852C24.2363 77.7266 21.7598 75.6016 18.7969 75.6016C15.4316 75.6016 12.6934 78.3398 12.6934 81.7051C12.6934 85.0703 15.4316 87.8086 18.7969 87.8086C21.7617 87.8086 24.2383 85.6836 24.7852 82.877H28.6094C29.2559 82.877 29.7812 82.3516 29.7812 81.7051V69.1523H38.9102V84.9805C36.1035 85.5293 33.9785 88.0059 33.9785 90.9688C33.9785 94.334 36.7168 97.0723 40.082 97.0723C43.4473 97.0723 46.1855 94.334 46.1855 90.9688C46.1855 88.0039 44.0605 85.5273 41.2539 84.9805V69.1523H50.8711V74.8496C50.8711 75.4961 51.3965 76.0215 52.043 76.0215H60.1973V81.498C57.3906 82.0469 55.2656 84.5234 55.2656 87.4863C55.2656 90.8516 58.0039 93.5898 61.3691 93.5898C64.7344 93.5898 67.4727 90.8516 67.4727 87.4863C67.4727 84.5215 65.3477 82.0449 62.541 81.498V74.8496C62.541 74.2031 62.0156 73.6777 61.3691 73.6777H53.2148V69.1523H60.2695C64.25 69.1523 68.0508 67.3164 70.5625 64.2148H74.1934C76.0215 64.2148 77.5098 62.7266 77.5098 60.8984V56.3926V49.8398C77.8867 47.3438 79.4922 45.4688 81.3477 43.3027C84.1758 40.0039 87.3789 36.2656 87.2188 29.2734ZM18.7969 85.4629C16.7246 85.4629 15.0371 83.7773 15.0371 81.7031C15.0371 79.6289 16.7227 77.9434 18.7969 77.9434C20.8711 77.9434 22.5566 79.6289 22.5566 81.7031C22.5566 83.7773 20.8691 85.4629 18.7969 85.4629ZM43.8418 90.9668C43.8418 93.0391 42.1562 94.7266 40.082 94.7266C38.0078 94.7266 36.3223 93.041 36.3223 90.9668C36.3223 88.8926 38.0078 87.207 40.082 87.207C42.1562 87.207 43.8418 88.8945 43.8418 90.9668ZM65.1289 87.4844C65.1289 89.5566 63.4434 91.2441 61.3691 91.2441C59.2949 91.2441 57.6094 89.5586 57.6094 87.4844C57.6094 85.4102 59.2949 83.7246 61.3691 83.7246C63.4434 83.7246 65.1289 85.4121 65.1289 87.4844ZM60.2715 66.8066H18.2637C15.7949 66.8066 13.3711 65.9473 11.4395 64.3867L11.4375 64.3887C9.93359 62.8887 9.00195 60.8164 9.00195 58.5312C9.00195 53.9746 12.709 50.2617 17.2676 50.2539C17.9004 50.2539 18.418 49.75 18.4375 49.1191C18.6309 42.8613 23.6895 37.9609 29.9551 37.9609C31.5273 37.9609 33.0508 38.2715 34.4844 38.8848C34.7773 39.0098 35.1074 39.0098 35.4004 38.8867C35.6934 38.7637 35.9238 38.5254 36.0391 38.2285C38.0117 33.1152 43.0215 29.6816 48.5039 29.6816C49.9688 29.6816 51.3984 29.918 52.7676 30.3789C52.9492 36.668 55.959 40.1836 58.6328 43.3027C60.4902 45.4688 62.0938 47.3438 62.4707 49.8398V56.3926V60.8984C62.4707 62.7266 63.959 64.2148 65.7871 64.2148H67.3027C65.3477 65.8652 62.8535 66.8066 60.2715 66.8066ZM75.168 55.2188H64.8125V50.9121H75.168V55.2188ZM75.168 60.8965C75.168 61.4336 74.7324 61.8691 74.1953 61.8691H65.7852C65.248 61.8691 64.8125 61.4336 64.8125 60.8965V57.5625H75.168V60.8965ZM79.5703 41.7754C77.7637 43.8828 76.0488 45.8848 75.375 48.5684H64.6035C63.9316 45.8848 62.2148 43.8809 60.4082 41.7754C57.7305 38.6504 54.959 35.418 55.1035 29.3145C55.1035 29.3047 55.1035 29.2969 55.1035 29.2871C55.1035 21.0801 61.7812 14.4023 69.9883 14.4023C78.1953 14.4023 84.873 21.0801 84.873 29.2871V29.3145C85.0176 35.418 82.248 38.6504 79.5703 41.7754ZM68.8184 8.69531V4.10156C68.8184 3.45508 69.3438 2.92969 69.9902 2.92969C70.6367 2.92969 71.1621 3.45508 71.1621 4.10156V8.69531C71.1621 9.3418 70.6367 9.86719 69.9902 9.86719C69.3438 9.86719 68.8184 9.3418 68.8184 8.69531ZM56.1699 8.11914C55.8457 7.55859 56.0391 6.8418 56.5996 6.51758C57.1602 6.19336 57.8769 6.38672 58.2012 6.94727L60.498 10.9258C60.8223 11.4863 60.6289 12.2031 60.0684 12.5273C59.8828 12.6328 59.6816 12.6836 59.4844 12.6836C59.0801 12.6836 58.6855 12.4727 58.4687 12.0977L56.1699 8.11914ZM46.7969 16.3203C47.1211 15.7598 47.8379 15.5684 48.3984 15.8906L52.377 18.1875C52.9375 18.5117 53.1289 19.2285 52.8066 19.7891C52.5898 20.1641 52.1953 20.375 51.791 20.375C51.5918 20.375 51.3906 20.3242 51.207 20.2188L47.2285 17.9219C46.6641 17.5977 46.4727 16.8809 46.7969 16.3203ZM92.7539 17.9199L88.7754 20.2168C88.5918 20.3223 88.3887 20.373 88.1914 20.373C87.7871 20.373 87.3926 20.1621 87.1758 19.7871C86.8516 19.2266 87.0449 18.5098 87.6055 18.1855L91.584 15.8887C92.1445 15.5645 92.8613 15.7578 93.1855 16.3184C93.5098 16.8789 93.3145 17.5977 92.7539 17.9199ZM79.4824 10.9238L81.7793 6.94531C82.1035 6.38477 82.8203 6.19336 83.3809 6.51562C83.9414 6.83984 84.1328 7.55664 83.8105 8.11719L81.5137 12.0957C81.2969 12.4707 80.9023 12.6816 80.498 12.6816C80.2988 12.6816 80.0977 12.6309 79.9141 12.5254C79.3516 12.2012 79.1582 11.4844 79.4824 10.9238ZM80.8281 23.75C81.2852 24.207 81.2852 24.9492 80.8281 25.4062L68.0781 38.1562C67.8594 38.377 67.5605 38.5 67.25 38.5C66.9395 38.5 66.6406 38.377 66.4219 38.1562L59.1523 30.8867C58.6953 30.4297 58.6953 29.6875 59.1523 29.2305C59.6094 28.7734 60.3516 28.7734 60.8105 29.2305L67.2519 35.6719L79.1738 23.75C79.6289 23.293 80.3711 23.293 80.8281 23.75ZM56.2188 51.957C56.6973 52.3926 56.7324 53.1328 56.2988 53.6133C56.0684 53.8672 55.75 53.9961 55.4316 53.9961C55.1504 53.9961 54.8691 53.8965 54.6445 53.6914C50.6523 50.0645 45.4824 48.0664 40.084 48.0664C34.6855 48.0664 29.5156 50.0645 25.5234 53.6914C25.0449 54.127 24.3027 54.0918 23.8672 53.6113C23.4316 53.1328 23.4668 52.3906 23.9473 51.9551C28.3711 47.9356 34.1016 45.7207 40.084 45.7207C46.0664 45.7207 51.7969 47.9355 56.2188 51.957ZM51.6445 56.9941C52.123 57.4297 52.1582 58.1699 51.7246 58.6504C51.4941 58.9043 51.1758 59.0332 50.8574 59.0332C50.5762 59.0332 50.2949 58.9336 50.0703 58.7285C47.334 56.2402 43.7871 54.8711 40.0859 54.8711C36.3848 54.8711 32.8379 56.2402 30.1016 58.7285C29.623 59.1641 28.8809 59.1289 28.4453 58.6484C28.0098 58.1699 28.0449 57.4277 28.5254 56.9922C31.6953 54.1113 35.8008 52.5254 40.0859 52.5254C44.3711 52.5254 48.4746 54.1133 51.6445 56.9941ZM47.0684 62.0312C47.5469 62.4668 47.582 63.207 47.1484 63.6875C46.918 63.9414 46.5996 64.0703 46.2813 64.0703C46 64.0703 45.7187 63.9688 45.4941 63.7656C44.0117 62.418 42.0898 61.6758 40.084 61.6758C38.0781 61.6758 36.1582 62.418 34.6738 63.7656C34.1953 64.2012 33.4531 64.166 33.0176 63.6855C32.582 63.207 32.6172 62.4648 33.0977 62.0293C35.0137 60.2891 37.4941 59.3301 40.084 59.3301C42.6738 59.332 45.1543 60.291 47.0684 62.0312Z" fill="black"/>
</svg>
