<svg width="100" height="100" viewBox="0 0 100 100" fill="none" xmlns="http://www.w3.org/2000/svg">
<path d="M44.7297 66.3438L45.3281 70.5344C45.3815 70.9066 45.5673 71.247 45.8515 71.4933C46.1356 71.7395 46.499 71.875 46.875 71.875H53.125C53.501 71.875 53.8644 71.7395 54.1485 71.4933C54.4327 71.247 54.6185 70.9066 54.6719 70.5344L55.2703 66.3438C56.1515 66.0605 57.008 65.7057 57.8313 65.2828L61.2172 67.8219C61.518 68.047 61.8898 68.1563 62.2646 68.1296C62.6394 68.1029 62.992 67.9421 63.2578 67.6766L67.6766 63.2578C67.9421 62.992 68.1029 62.6394 68.1296 62.2646C68.1563 61.8898 68.047 61.518 67.8219 61.2172L65.2828 57.8313C65.7057 57.008 66.0605 56.1515 66.3438 55.2703L70.5344 54.6719C70.9066 54.6185 71.247 54.4327 71.4933 54.1485C71.7395 53.8644 71.875 53.501 71.875 53.125V46.875C71.875 46.499 71.7395 46.1356 71.4933 45.8515C71.247 45.5673 70.9066 45.3815 70.5344 45.3281L66.3438 44.7297C66.0605 43.8485 65.7057 42.992 65.2828 42.1688L67.8219 38.7828C68.047 38.482 68.1563 38.1102 68.1296 37.7354C68.1029 37.3606 67.9421 37.008 67.6766 36.7422L63.2578 32.3234C62.993 32.0561 62.6401 31.8941 62.2648 31.8673C61.8895 31.8406 61.5172 31.951 61.2172 32.1781L57.8313 34.7172C57.008 34.2943 56.1515 33.9395 55.2703 33.6563L54.6719 29.4656C54.6185 29.0934 54.4327 28.753 54.1485 28.5067C53.8644 28.2605 53.501 28.1249 53.125 28.125H46.875C46.499 28.1249 46.1356 28.2605 45.8515 28.5067C45.5673 28.753 45.3815 29.0934 45.3281 29.4656L44.7297 33.6563C43.8485 33.9395 42.992 34.2943 42.1688 34.7172L38.7828 32.1781C38.483 31.9504 38.1106 31.8396 37.7351 31.8663C37.3596 31.893 37.0067 32.0555 36.7422 32.3234L32.3234 36.7422C32.0579 37.008 31.8971 37.3606 31.8704 37.7354C31.8437 38.1102 31.9529 38.482 32.1781 38.7828L34.7172 42.1688C34.2943 42.992 33.9395 43.8485 33.6563 44.7297L29.4656 45.3281C29.0934 45.3815 28.753 45.5673 28.5067 45.8515C28.2605 46.1356 28.1249 46.499 28.125 46.875V53.125C28.1249 53.501 28.2605 53.8644 28.5067 54.1485C28.753 54.4327 29.0934 54.6185 29.4656 54.6719L33.6563 55.2703C33.9395 56.1515 34.2943 57.008 34.7172 57.8313L32.1781 61.2172C31.9529 61.518 31.8437 61.8898 31.8704 62.2646C31.8971 62.6394 32.0579 62.992 32.3234 63.2578L36.7422 67.6766C37.008 67.9421 37.3606 68.1029 37.7354 68.1296C38.1102 68.1563 38.482 68.047 38.7828 67.8219L42.1688 65.2828C42.992 65.7057 43.8485 66.0605 44.7297 66.3438ZM41.1031 62.1781L37.9922 64.5094L35.4922 62.0094L37.8234 58.8984C38.0092 58.6512 38.1173 58.3545 38.1343 58.0457C38.1513 57.737 38.0763 57.4301 37.9187 57.1641C37.2358 56.0166 36.7217 54.7768 36.3922 53.4828C36.3161 53.1829 36.1527 52.9123 35.9227 52.7053C35.6926 52.4983 35.4063 52.3644 35.1 52.3203L31.25 51.7703V48.2297L35.0984 47.6813C35.4047 47.6372 35.691 47.5032 35.9211 47.2963C36.1511 47.0893 36.3146 46.8187 36.3906 46.5187C36.7201 45.2247 37.2342 43.9849 37.9172 42.8375C38.0747 42.5714 38.1497 42.2646 38.1327 41.9558C38.1158 41.6471 38.0076 41.3503 37.8219 41.1031L35.4906 37.9922L37.9906 35.4922L41.1016 37.8234C41.3488 38.0092 41.6455 38.1173 41.9543 38.1343C42.263 38.1513 42.5699 38.0763 42.8359 37.9187C43.9834 37.2358 45.2232 36.7217 46.5172 36.3922C46.8171 36.3161 47.0877 36.1527 47.2947 35.9227C47.5017 35.6926 47.6356 35.4063 47.6797 35.1L48.2297 31.25H51.7703L52.3188 35.0984C52.3628 35.4047 52.4968 35.691 52.7037 35.9211C52.9107 36.1511 53.1813 36.3146 53.4813 36.3906C54.7753 36.7201 56.0151 37.2342 57.1625 37.9172C57.4286 38.0747 57.7354 38.1497 58.0442 38.1327C58.3529 38.1158 58.6497 38.0076 58.8969 37.8219L62.0078 35.4906L64.5078 37.9906L62.1766 41.1016C61.9908 41.3488 61.8827 41.6455 61.8657 41.9543C61.8487 42.263 61.9237 42.5699 62.0812 42.8359C62.7642 43.9834 63.2783 45.2232 63.6078 46.5172C63.6839 46.8171 63.8473 47.0877 64.0773 47.2947C64.3074 47.5017 64.5937 47.6356 64.9 47.6797L68.75 48.2297V51.7703L64.9016 52.3188C64.5953 52.3628 64.309 52.4968 64.0789 52.7037C63.8489 52.9107 63.6854 53.1813 63.6094 53.4813C63.2799 54.7753 62.7658 56.0151 62.0828 57.1625C61.9253 57.4286 61.8503 57.7354 61.8673 58.0442C61.8842 58.3529 61.9924 58.6497 62.1781 58.8969L64.5094 62.0078L62.0094 64.5078L58.8984 62.1766C58.6512 61.9908 58.3545 61.8827 58.0457 61.8657C57.737 61.8487 57.4301 61.9237 57.1641 62.0812C56.0166 62.7642 54.7768 63.2783 53.4828 63.6078C53.1829 63.6839 52.9123 63.8473 52.7053 64.0773C52.4983 64.3074 52.3644 64.5937 52.3203 64.9L51.7703 68.75H48.2297L47.6813 64.9016C47.6372 64.5953 47.5032 64.309 47.2963 64.0789C47.0893 63.8489 46.8187 63.6854 46.5187 63.6094C45.2247 63.2799 43.9849 62.7658 42.8375 62.0828C42.5714 61.9253 42.2646 61.8503 41.9558 61.8673C41.6471 61.8842 41.3503 61.9924 41.1031 62.1781Z" fill="black"/>
<path d="M50 59.375C51.8542 59.375 53.6668 58.8252 55.2085 57.795C56.7502 56.7649 57.9518 55.3007 58.6614 53.5877C59.3709 51.8746 59.5566 49.9896 59.1949 48.171C58.8331 46.3525 57.9402 44.682 56.6291 43.3709C55.318 42.0598 53.6475 41.1669 51.829 40.8051C50.0104 40.4434 48.1254 40.6291 46.4123 41.3386C44.6993 42.0482 43.2351 43.2498 42.205 44.7915C41.1748 46.3332 40.625 48.1458 40.625 50C40.6275 52.4856 41.616 54.8688 43.3736 56.6264C45.1312 58.384 47.5144 59.3725 50 59.375ZM50 43.75C51.2361 43.75 52.4445 44.1166 53.4723 44.8033C54.5001 45.4901 55.3012 46.4662 55.7742 47.6082C56.2473 48.7503 56.3711 50.0069 56.1299 51.2193C55.8888 52.4317 55.2935 53.5453 54.4194 54.4194C53.5453 55.2935 52.4317 55.8888 51.2193 56.1299C50.0069 56.3711 48.7503 56.2473 47.6082 55.7743C46.4662 55.3012 45.4901 54.5001 44.8033 53.4723C44.1166 52.4445 43.75 51.2361 43.75 50C43.75 48.3424 44.4085 46.7527 45.5806 45.5806C46.7527 44.4085 48.3424 43.75 50 43.75Z" fill="black"/>
<path d="M50.0004 10.9378C50.4148 10.9378 50.8122 10.7732 51.1052 10.4802C51.3983 10.1872 51.5629 9.78973 51.5629 9.37533V8.02377L56.9348 12.5003L51.5629 16.9769V15.6253C51.5629 15.2109 51.3983 14.8135 51.1052 14.5205C50.8122 14.2274 50.4148 14.0628 50.0004 14.0628C43.069 14.0699 36.2869 16.0774 30.4685 19.8443C24.65 23.6112 20.0424 28.9775 17.1988 35.2988L20.0488 36.5769C22.5375 31.048 26.5059 26.3145 31.5158 22.8992C36.5256 19.4839 42.3819 17.5198 48.4379 17.2238V20.3128C48.4375 20.6101 48.5219 20.9014 48.6812 21.1524C48.8405 21.4035 49.0681 21.6038 49.3374 21.73C49.6066 21.8561 49.9062 21.9029 50.2011 21.8647C50.4959 21.8265 50.7738 21.705 51.002 21.5144L60.377 13.7019C60.5533 13.5553 60.6953 13.3716 60.7927 13.1639C60.8901 12.9563 60.9406 12.7297 60.9406 12.5003C60.9406 12.271 60.8901 12.0444 60.7927 11.8367C60.6953 11.6291 60.5533 11.4454 60.377 11.2988L51.002 3.48627C50.7738 3.29569 50.4959 3.17417 50.2011 3.13599C49.9062 3.0978 49.6066 3.14454 49.3374 3.2707C49.0681 3.39686 48.8405 3.59721 48.6812 3.84823C48.5219 4.09925 48.4375 4.39052 48.4379 4.68783V7.84252C40.0884 8.17339 32.0232 10.9657 25.2565 15.8683C18.4898 20.7708 13.3238 27.5648 10.4082 35.3956L13.341 36.48C16.1252 28.9972 21.127 22.5423 27.6778 17.9781C34.2286 13.4138 42.0164 10.9577 50.0004 10.9378Z" fill="black"/>
<path d="M50.0008 89.0629C49.5864 89.0629 49.189 89.2275 48.8959 89.5205C48.6029 89.8136 48.4383 90.211 48.4383 90.6254V91.977L43.0664 87.5004L48.4383 83.0238V84.3754C48.4383 84.7898 48.6029 85.1872 48.8959 85.4802C49.189 85.7733 49.5864 85.9379 50.0008 85.9379C56.9322 85.9308 63.7142 83.9233 69.5327 80.1564C75.3512 76.3895 79.9588 71.0232 82.8023 64.702L79.9523 63.4238C77.4637 68.9528 73.4953 73.6863 68.4854 77.1015C63.4756 80.5168 57.6193 82.4809 51.5633 82.777V79.6879C51.5637 79.3906 51.4793 79.0993 51.32 78.8483C51.1607 78.5973 50.933 78.3969 50.6638 78.2708C50.3946 78.1446 50.095 78.0979 49.8001 78.136C49.5053 78.1742 49.2274 78.2957 48.9992 78.4863L39.6242 86.2988C39.4478 86.4455 39.3059 86.6291 39.2085 86.8368C39.111 87.0445 39.0605 87.271 39.0605 87.5004C39.0605 87.7298 39.111 87.9563 39.2085 88.164C39.3059 88.3717 39.4478 88.5553 39.6242 88.702L48.9992 96.5145C49.281 96.7475 49.6351 96.8751 50.0008 96.8754C50.2299 96.8756 50.4562 96.8249 50.6633 96.727C50.9321 96.6011 51.1596 96.4012 51.3189 96.1508C51.4783 95.9004 51.5631 95.6097 51.5633 95.3129V92.1582C59.9128 91.8273 67.978 89.035 74.7447 84.1325C81.5114 79.2299 86.6774 72.4359 89.593 64.6051L86.6602 63.5207C83.8759 71.0036 78.8742 77.4584 72.3234 82.0227C65.7726 86.5869 57.9848 89.0431 50.0008 89.0629Z" fill="black"/>
<path d="M96.7266 49.3377C96.6007 49.0689 96.4009 48.8414 96.1504 48.682C95.9 48.5226 95.6093 48.4379 95.3125 48.4377H92.1578C91.8259 40.0889 89.0332 32.0245 84.1307 25.2585C79.2282 18.4925 72.4349 13.3269 64.6047 10.4111L63.5203 13.3439C71.0027 16.128 77.4572 21.1292 82.0214 27.6794C86.5856 34.2296 89.042 42.0167 89.0625 50.0002C89.0625 50.4146 89.2271 50.812 89.5201 51.105C89.8132 51.3981 90.2106 51.5627 90.625 51.5627H91.9766L87.5 56.9346L83.0234 51.5627H84.375C84.7894 51.5627 85.1868 51.3981 85.4799 51.105C85.7729 50.812 85.9375 50.4146 85.9375 50.0002C85.9299 43.0677 83.9226 36.2846 80.1561 30.4645C76.3897 24.6444 71.0242 20.0345 64.7031 17.1877L63.4219 20.0377C68.9515 22.5286 73.6854 26.499 77.1008 31.5106C80.5162 36.5222 82.4804 42.3802 82.7766 48.4377H79.6875C79.3902 48.4373 79.0989 48.5217 78.8479 48.681C78.5969 48.8403 78.3965 49.068 78.2704 49.3372C78.1442 49.6064 78.0975 49.906 78.1357 50.2009C78.1738 50.4957 78.2954 50.7736 78.4859 51.0018L86.2984 60.3768C86.4451 60.5531 86.6287 60.6951 86.8364 60.7925C87.0441 60.8899 87.2706 60.9404 87.5 60.9404C87.7294 60.9404 87.9559 60.8899 88.1636 60.7925C88.3713 60.6951 88.5549 60.5531 88.7016 60.3768L96.5141 51.0018C96.704 50.7733 96.8249 50.4954 96.8626 50.2007C96.9002 49.9059 96.853 49.6066 96.7266 49.3377Z" fill="black"/>
<path d="M14.0628 50.0007C14.0472 56.6288 15.8713 63.1313 19.332 68.7842C22.7927 74.4372 27.7542 79.0189 33.6644 82.0194L35.0863 79.2366C29.9265 76.617 25.5543 72.6751 22.4161 67.8132C19.2779 62.9514 17.4862 57.3439 17.2238 51.5632H20.3128C20.6101 51.5636 20.9014 51.4792 21.1524 51.3199C21.4035 51.1605 21.6038 50.9329 21.73 50.6637C21.8561 50.3945 21.9029 50.0948 21.8647 49.8C21.8265 49.5051 21.705 49.2273 21.5144 48.9991L13.7019 39.6241C13.55 39.4562 13.3646 39.322 13.1576 39.2301C12.9507 39.1383 12.7268 39.0908 12.5003 39.0908C12.2739 39.0908 12.05 39.1383 11.843 39.2301C11.6361 39.322 11.4507 39.4562 11.2988 39.6241L3.48627 48.9991C3.29569 49.2273 3.17417 49.5051 3.13599 49.8C3.0978 50.0948 3.14454 50.3945 3.2707 50.6637C3.39686 50.9329 3.59721 51.1605 3.84823 51.3199C4.09925 51.4792 4.39052 51.5636 4.68783 51.5632H7.84252C8.12697 59.6261 10.7231 67.4374 15.3217 74.0665C19.9202 80.6957 26.3274 85.8633 33.78 88.9538L34.9831 86.0694C27.8547 83.1131 21.7643 78.1073 17.4837 71.6862C13.203 65.2651 10.9249 57.7178 10.9378 50.0007C10.9378 49.5863 10.7732 49.1888 10.4802 48.8958C10.1872 48.6028 9.78973 48.4382 9.37533 48.4382H8.02377L12.5003 43.0663L16.9769 48.4382H15.6253C15.2109 48.4382 14.8135 48.6028 14.5205 48.8958C14.2274 49.1888 14.0628 49.5863 14.0628 50.0007Z" fill="black"/>
</svg>
