<svg width="100" height="100" viewBox="0 0 100 100" fill="none" xmlns="http://www.w3.org/2000/svg">
<path d="M39.0625 82.8125H32.8125C32.3981 82.8125 32.0007 82.9771 31.7076 83.2701C31.4146 83.5632 31.25 83.9606 31.25 84.375V90.625C31.25 91.0394 31.4146 91.4368 31.7076 91.7299C32.0007 92.0229 32.3981 92.1875 32.8125 92.1875H39.0625C39.4769 92.1875 39.8743 92.0229 40.1674 91.7299C40.4604 91.4368 40.625 91.0394 40.625 90.625V84.375C40.625 83.9606 40.4604 83.5632 40.1674 83.2701C39.8743 82.9771 39.4769 82.8125 39.0625 82.8125ZM37.5 89.0625H34.375V85.9375H37.5V89.0625Z" fill="black"/>
<path d="M39.0625 70.3125H32.8125C32.3981 70.3125 32.0007 70.4771 31.7076 70.7701C31.4146 71.0632 31.25 71.4606 31.25 71.875V78.125C31.25 78.5394 31.4146 78.9368 31.7076 79.2299C32.0007 79.5229 32.3981 79.6875 32.8125 79.6875H39.0625C39.4769 79.6875 39.8743 79.5229 40.1674 79.2299C40.4604 78.9368 40.625 78.5394 40.625 78.125V71.875C40.625 71.4606 40.4604 71.0632 40.1674 70.7701C39.8743 70.4771 39.4769 70.3125 39.0625 70.3125ZM37.5 76.5625H34.375V73.4375H37.5V76.5625Z" fill="black"/>
<path d="M39.0625 57.8125H32.8125C32.3981 57.8125 32.0007 57.9771 31.7076 58.2701C31.4146 58.5632 31.25 58.9606 31.25 59.375V65.625C31.25 66.0394 31.4146 66.4368 31.7076 66.7299C32.0007 67.0229 32.3981 67.1875 32.8125 67.1875H39.0625C39.4769 67.1875 39.8743 67.0229 40.1674 66.7299C40.4604 66.4368 40.625 66.0394 40.625 65.625V59.375C40.625 58.9606 40.4604 58.5632 40.1674 58.2701C39.8743 57.9771 39.4769 57.8125 39.0625 57.8125ZM37.5 64.0625H34.375V60.9375H37.5V64.0625Z" fill="black"/>
<path d="M39.0625 45.3125H32.8125C32.3981 45.3125 32.0007 45.4771 31.7076 45.7701C31.4146 46.0632 31.25 46.4606 31.25 46.875V53.125C31.25 53.5394 31.4146 53.9368 31.7076 54.2299C32.0007 54.5229 32.3981 54.6875 32.8125 54.6875H39.0625C39.4769 54.6875 39.8743 54.5229 40.1674 54.2299C40.4604 53.9368 40.625 53.5394 40.625 53.125V46.875C40.625 46.4606 40.4604 46.0632 40.1674 45.7701C39.8743 45.4771 39.4769 45.3125 39.0625 45.3125ZM37.5 51.5625H34.375V48.4375H37.5V51.5625Z" fill="black"/>
<path d="M50 15.625C48.3081 15.6203 46.6321 15.9513 45.069 16.5987C43.5059 17.2462 42.0868 18.1973 40.8938 19.3969L39.5203 20.7704C39.2648 21.0258 39.1057 21.3619 39.0701 21.7214C39.0345 22.0809 39.1246 22.4417 39.325 22.7422L42.45 27.4297C42.5772 27.6231 42.7459 27.7858 42.9437 27.9061C43.1415 28.0263 43.3635 28.1011 43.5938 28.125C43.824 28.1496 44.0568 28.1219 44.2749 28.044C44.4929 27.9661 44.6906 27.84 44.8531 27.675L45.7688 26.7594C46.8921 25.6381 48.4128 25.0058 50 25C50.786 24.9978 51.5646 25.1516 52.2906 25.4525C53.0167 25.7535 53.6758 26.1956 54.2297 26.7532L55.1438 27.6672C55.289 27.8125 55.4615 27.9277 55.6513 28.0063C55.8411 28.0849 56.0446 28.1252 56.25 28.125C56.3 28.125 56.3516 28.125 56.4063 28.125C56.6361 28.1022 56.858 28.0287 57.0561 27.9099C57.2541 27.791 57.4234 27.6297 57.5516 27.4375L60.6766 22.7501C60.877 22.4495 60.9671 22.0887 60.9315 21.7292C60.8959 21.3697 60.7368 21.0336 60.4813 20.7782L59.1078 19.4047C57.9153 18.2035 56.4962 17.2508 54.9328 16.602C53.3693 15.9532 51.6927 15.6211 50 15.625ZM55.9953 24.1266C54.3386 22.6696 52.2063 21.8688 50 21.8751C47.7961 21.8815 45.668 22.6807 44.0047 24.1266L42.6359 22.0735L43.1047 21.6047C44.934 19.7758 47.4148 18.7484 50.0016 18.7484C52.5883 18.7484 55.0691 19.7758 56.8984 21.6047L57.3672 22.0735L55.9953 24.1266Z" fill="black"/>
<path d="M34.5388 17.886C34.6496 18.107 34.8112 18.2986 35.0105 18.445C35.2097 18.5913 35.4409 18.6883 35.6849 18.728C35.929 18.7677 36.179 18.7488 36.4143 18.6731C36.6497 18.5973 36.8637 18.4668 37.0388 18.2922L37.7653 17.5657C41.0096 14.3223 45.4092 12.5003 49.9966 12.5003C54.584 12.5003 58.9836 14.3223 62.2278 17.5657L62.9544 18.2922C63.0998 18.4377 63.2725 18.553 63.4626 18.6316C63.6528 18.7102 63.8565 18.7504 64.0622 18.7501C64.146 18.7502 64.2296 18.7434 64.3122 18.7297C64.5568 18.6902 64.7885 18.5931 64.9882 18.4464C65.1879 18.2997 65.3498 18.1076 65.4606 17.886L68.5856 11.636C68.7191 11.3689 68.7732 11.0693 68.7416 10.7724C68.71 10.4756 68.5941 10.194 68.4075 9.96099C66.3168 7.33492 63.6594 5.21548 60.6341 3.76115C57.6088 2.30681 54.2939 1.55521 50.9372 1.56255H49.0622C45.7055 1.55521 42.3906 2.30681 39.3653 3.76115C36.34 5.21548 33.6826 7.33492 31.5919 9.96099C31.4053 10.194 31.2894 10.4756 31.2578 10.7724C31.2262 11.0693 31.2803 11.3689 31.4138 11.636L34.5388 17.886ZM49.0622 4.68755H50.9372C53.6591 4.6812 56.3511 5.25499 58.8339 6.37068C61.3166 7.48637 63.5331 9.11834 65.3356 11.1579L63.62 14.5782C59.8745 11.2274 55.0253 9.37488 49.9997 9.37488C44.9741 9.37488 40.1249 11.2274 36.3794 14.5782L34.6606 11.1579C36.4635 9.11794 38.6805 7.48574 41.1638 6.37003C43.6472 5.25433 46.3398 4.68076 49.0622 4.68755Z" fill="black"/>
<path d="M89.3499 45.3125C89.7185 46.355 90.4437 47.2337 91.3975 47.7932C92.3513 48.3527 93.4721 48.557 94.562 48.37C95.6518 48.183 96.6405 47.6168 97.3532 46.7714C98.0659 45.9259 98.4568 44.8558 98.4568 43.75C98.4568 42.6442 98.0659 41.5741 97.3532 40.7287C96.6405 39.8832 95.6518 39.317 94.562 39.13C93.4721 38.943 92.3513 39.1473 91.3975 39.7068C90.4437 40.2663 89.7185 41.145 89.3499 42.1875H73.4374V28.125H81.5374C81.906 29.1675 82.6312 30.0462 83.585 30.6057C84.5388 31.1652 85.6596 31.3695 86.7495 31.1825C87.8393 30.9955 88.828 30.4293 89.5407 29.5839C90.2534 28.7384 90.6443 27.6683 90.6443 26.5625C90.6443 25.4567 90.2534 24.3866 89.5407 23.5412C88.828 22.6957 87.8393 22.1295 86.7495 21.9425C85.6596 21.7555 84.5388 21.9598 83.585 22.5193C82.6312 23.0788 81.906 23.9575 81.5374 25H71.8749C71.4605 25 71.0631 25.1646 70.77 25.4577C70.477 25.7507 70.3124 26.1481 70.3124 26.5625V42.1875H59.3749V31.2656C59.375 31.0103 59.3125 30.7588 59.1929 30.5332C59.0733 30.3076 58.9003 30.1148 58.6889 29.9715C58.4775 29.8283 58.2342 29.7391 57.9804 29.7116C57.7265 29.6842 57.4698 29.7193 57.2327 29.8141L54.3124 30.9797C53.8283 29.862 52.9275 28.9771 51.8014 28.513C50.6753 28.0489 49.4126 28.0421 48.2815 28.4941C47.1505 28.9461 46.2403 29.8213 45.7442 30.9337C45.2481 32.0461 45.2053 33.3081 45.6249 34.4516L26.2608 42.1875H20.3124V26.5625C20.3124 26.1481 20.1478 25.7507 19.8547 25.4577C19.5617 25.1646 19.1643 25 18.7499 25H10.6499C10.2813 23.9575 9.55603 23.0788 8.60226 22.5193C7.64849 21.9598 6.52764 21.7555 5.4378 21.9425C4.34797 22.1295 3.35932 22.6957 2.6466 23.5412C1.93387 24.3866 1.54297 25.4567 1.54297 26.5625C1.54297 27.6683 1.93387 28.7384 2.6466 29.5839C3.35932 30.4293 4.34797 30.9955 5.4378 31.1825C6.52764 31.3695 7.64849 31.1652 8.60226 30.6057C9.55603 30.0462 10.2813 29.1675 10.6499 28.125H17.1874V42.1875H15.3374C14.9688 41.145 14.2435 40.2663 13.2898 39.7068C12.336 39.1473 11.2151 38.943 10.1253 39.13C9.03547 39.317 8.04682 39.8832 7.3341 40.7287C6.62137 41.5741 6.23047 42.6442 6.23047 43.75C6.23047 44.8558 6.62137 45.9259 7.3341 46.7714C8.04682 47.6168 9.03547 48.183 10.1253 48.37C11.2151 48.557 12.336 48.3527 13.2898 47.7932C14.2435 47.2337 14.9688 46.355 15.3374 45.3125H24.9999V79.6875H21.8749V64.0625C21.8749 63.6481 21.7103 63.2507 21.4172 62.9577C21.1242 62.6646 20.7268 62.5 20.3124 62.5H12.2124C11.8438 61.4575 11.1185 60.5788 10.1648 60.0193C9.21099 59.4598 8.09014 59.2555 7.0003 59.4425C5.91047 59.6295 4.92182 60.1958 4.2091 61.0412C3.49637 61.8866 3.10547 62.9568 3.10547 64.0625C3.10547 65.1683 3.49637 66.2384 4.2091 67.0839C4.92182 67.9293 5.91047 68.4955 7.0003 68.6825C8.09014 68.8695 9.21099 68.6652 10.1648 68.1057C11.1185 67.5462 11.8438 66.6675 12.2124 65.625H18.7499V79.6875H17.1874C16.773 79.6875 16.3756 79.8521 16.0825 80.1452C15.7895 80.4382 15.6249 80.8356 15.6249 81.25V89.0625H12.2124C11.8438 88.02 11.1185 87.1413 10.1648 86.5818C9.21099 86.0223 8.09014 85.818 7.0003 86.005C5.91047 86.192 4.92182 86.7583 4.2091 87.6037C3.49637 88.4491 3.10547 89.5193 3.10547 90.625C3.10547 91.7308 3.49637 92.8009 4.2091 93.6464C4.92182 94.4918 5.91047 95.058 7.0003 95.245C8.09014 95.432 9.21099 95.2277 10.1648 94.6682C11.1185 94.1087 11.8438 93.23 12.2124 92.1875H17.1874C17.6018 92.1875 17.9992 92.0229 18.2922 91.7299C18.5853 91.4368 18.7499 91.0394 18.7499 90.625V82.8125H24.9999V96.875C24.9999 97.2894 25.1645 97.6868 25.4575 97.9799C25.7506 98.2729 26.148 98.4375 26.5624 98.4375H73.3858C73.8002 98.4375 74.1977 98.2729 74.4907 97.9799C74.7837 97.6868 74.9483 97.2894 74.9483 96.875L74.964 82.8125H81.2499V90.625C81.2499 91.0394 81.4145 91.4368 81.7075 91.7299C82.0006 92.0229 82.398 92.1875 82.8124 92.1875H87.7874C88.156 93.23 88.8812 94.1087 89.835 94.6682C90.7888 95.2277 91.9096 95.432 92.9995 95.245C94.0893 95.058 95.078 94.4918 95.7907 93.6464C96.5034 92.8009 96.8943 91.7308 96.8943 90.625C96.8943 89.5193 96.5034 88.4491 95.7907 87.6037C95.078 86.7583 94.0893 86.192 92.9995 86.005C91.9096 85.818 90.7888 86.0223 89.835 86.5818C88.8812 87.1413 88.156 88.02 87.7874 89.0625H84.3749V81.25C84.3749 80.8356 84.2103 80.4382 83.9172 80.1452C83.6242 79.8521 83.2268 79.6875 82.8124 79.6875H81.2499V65.625H87.7874C88.156 66.6675 88.8812 67.5462 89.835 68.1057C90.7888 68.6652 91.9096 68.8695 92.9995 68.6825C94.0893 68.4955 95.078 67.9293 95.7907 67.0839C96.5034 66.2384 96.8943 65.1683 96.8943 64.0625C96.8943 62.9568 96.5034 61.8866 95.7907 61.0412C95.078 60.1958 94.0893 59.6295 92.9995 59.4425C91.9096 59.2555 90.7888 59.4598 89.835 60.0193C88.8812 60.5788 88.156 61.4575 87.7874 62.5H79.6874C79.273 62.5 78.8756 62.6646 78.5825 62.9577C78.2895 63.2507 78.1249 63.6481 78.1249 64.0625V79.6875H74.9686L74.9999 53.1422C74.9999 52.7278 74.8353 52.3304 74.5422 52.0373C74.2492 51.7443 73.8518 51.5797 73.4374 51.5797H59.3749V45.3125H89.3499ZM85.9374 25C86.2464 25 86.5485 25.0916 86.8055 25.2633C87.0624 25.435 87.2627 25.6791 87.3809 25.9646C87.4992 26.2501 87.5302 26.5642 87.4699 26.8673C87.4096 27.1704 87.2608 27.4488 87.0422 27.6674C86.8237 27.8859 86.5453 28.0347 86.2422 28.095C85.9391 28.1553 85.625 28.1243 85.3394 28.0061C85.0539 27.8878 84.8099 27.6875 84.6382 27.4306C84.4665 27.1736 84.3749 26.8715 84.3749 26.5625C84.3749 26.1481 84.5395 25.7507 84.8325 25.4577C85.1256 25.1646 85.523 25 85.9374 25ZM93.7499 42.1875C94.0589 42.1875 94.361 42.2791 94.618 42.4508C94.8749 42.6225 95.0752 42.8666 95.1934 43.1521C95.3117 43.4376 95.3427 43.7517 95.2824 44.0548C95.2221 44.3579 95.0733 44.6363 94.8547 44.8549C94.6362 45.0734 94.3578 45.2222 94.0547 45.2825C93.7516 45.3428 93.4375 45.3118 93.1519 45.1936C92.8664 45.0753 92.6224 44.875 92.4507 44.6181C92.279 44.3611 92.1874 44.059 92.1874 43.75C92.1874 43.3356 92.352 42.9382 92.645 42.6452C92.9381 42.3521 93.3355 42.1875 93.7499 42.1875ZM6.24989 28.125C5.94085 28.125 5.63876 28.0334 5.38181 27.8617C5.12486 27.69 4.92459 27.446 4.80632 27.1605C4.68806 26.8749 4.65712 26.5608 4.71741 26.2577C4.7777 25.9546 4.92651 25.6762 5.14503 25.4577C5.36355 25.2391 5.64196 25.0903 5.94506 25.03C6.24815 24.9697 6.56232 25.0007 6.84783 25.1189C7.13334 25.2372 7.37737 25.4375 7.54906 25.6944C7.72075 25.9514 7.81239 26.2535 7.81239 26.5625C7.81239 26.9769 7.64777 27.3743 7.35474 27.6674C7.06171 27.9604 6.66429 28.125 6.24989 28.125ZM7.81239 65.625C7.50335 65.625 7.20126 65.5334 6.94431 65.3617C6.68736 65.19 6.48709 64.946 6.36882 64.6605C6.25056 64.3749 6.21962 64.0608 6.27991 63.7577C6.3402 63.4546 6.48901 63.1762 6.70753 62.9577C6.92605 62.7391 7.20446 62.5903 7.50756 62.53C7.81065 62.4697 8.12482 62.5007 8.41033 62.619C8.69584 62.7372 8.93987 62.9375 9.11156 63.1944C9.28325 63.4514 9.37489 63.7535 9.37489 64.0625C9.37489 64.4769 9.21027 64.8743 8.91724 65.1674C8.62422 65.4604 8.22679 65.625 7.81239 65.625ZM7.81239 92.1875C7.50335 92.1875 7.20126 92.0959 6.94431 91.9242C6.68736 91.7525 6.48709 91.5085 6.36882 91.223C6.25056 90.9374 6.21962 90.6233 6.27991 90.3202C6.3402 90.0171 6.48901 89.7387 6.70753 89.5202C6.92605 89.3016 7.20446 89.1528 7.50756 89.0925C7.81065 89.0322 8.12482 89.0632 8.41033 89.1815C8.69584 89.2997 8.93987 89.5 9.11156 89.7569C9.28325 90.0139 9.37489 90.316 9.37489 90.625C9.37489 91.0394 9.21027 91.4368 8.91724 91.7299C8.62422 92.0229 8.22679 92.1875 7.81239 92.1875ZM92.1874 89.0625C92.4964 89.0625 92.7985 89.1542 93.0555 89.3258C93.3124 89.4975 93.5127 89.7416 93.6309 90.0271C93.7492 90.3126 93.7802 90.6268 93.7199 90.9298C93.6596 91.2329 93.5108 91.5114 93.2922 91.7299C93.0737 91.9484 92.7953 92.0972 92.4922 92.1575C92.1891 92.2178 91.875 92.1868 91.5894 92.0686C91.3039 91.9503 91.0599 91.75 90.8882 91.4931C90.7165 91.2361 90.6249 90.9341 90.6249 90.625C90.6249 90.2106 90.7895 89.8132 91.0825 89.5202C91.3756 89.2271 91.773 89.0625 92.1874 89.0625ZM92.1874 62.5C92.4964 62.5 92.7985 62.5916 93.0555 62.7633C93.3124 62.935 93.5127 63.1791 93.6309 63.4646C93.7492 63.7501 93.7802 64.0642 93.7199 64.3673C93.6596 64.6704 93.5108 64.9488 93.2922 65.1674C93.0737 65.3859 92.7953 65.5347 92.4922 65.595C92.1891 65.6553 91.875 65.6243 91.5894 65.5061C91.3039 65.3878 91.0599 65.1875 90.8882 64.9306C90.7165 64.6736 90.6249 64.3715 90.6249 64.0625C90.6249 63.6481 90.7895 63.2507 91.0825 62.9577C91.3756 62.6646 91.773 62.5 92.1874 62.5ZM49.9999 31.25C50.3089 31.25 50.611 31.3416 50.868 31.5133C51.1249 31.685 51.3252 31.9291 51.4434 32.2146C51.5617 32.5001 51.5927 32.8142 51.5324 33.1173C51.4721 33.4204 51.3233 33.6988 51.1047 33.9174C50.8862 34.1359 50.6078 34.2847 50.3047 34.345C50.0016 34.4053 49.6875 34.3743 49.4019 34.2561C49.1164 34.1378 48.8724 33.9375 48.7007 33.6806C48.529 33.4236 48.4374 33.1215 48.4374 32.8125C48.4374 32.3981 48.602 32.0007 48.895 31.7077C49.1881 31.4146 49.5855 31.25 49.9999 31.25ZM10.9374 45.3125C10.6284 45.3125 10.3263 45.2209 10.0693 45.0492C9.81236 44.8775 9.61209 44.6335 9.49382 44.348C9.37556 44.0624 9.34462 43.7483 9.40491 43.4452C9.4652 43.1421 9.61401 42.8637 9.83253 42.6452C10.0511 42.4266 10.3295 42.2778 10.6326 42.2175C10.9357 42.1572 11.2498 42.1882 11.5353 42.3064C11.8208 42.4247 12.0649 42.625 12.2366 42.8819C12.4082 43.1389 12.4999 43.441 12.4999 43.75C12.4999 44.1644 12.3353 44.5618 12.0422 44.8549C11.7492 45.1479 11.3518 45.3125 10.9374 45.3125ZM64.0624 95.3125H60.9374V85.9375H64.0624V95.3125ZM57.8124 95.3125H54.6874V85.9375H57.8124V95.3125ZM71.8249 95.3125H67.1874V84.375C67.1874 83.9606 67.0228 83.5632 66.7297 83.2702C66.4367 82.9771 66.0393 82.8125 65.6249 82.8125H53.1249C52.7105 82.8125 52.3131 82.9771 52.02 83.2702C51.727 83.5632 51.5624 83.9606 51.5624 84.375V95.3125H46.8749V54.7031H71.8749L71.8249 95.3125ZM45.3124 51.5781C44.898 51.5781 44.5006 51.7428 44.2075 52.0358C43.9145 52.3288 43.7499 52.7262 43.7499 53.1406V95.3125H28.1249V44.8094L47.8233 36.9391C48.4194 37.2633 49.0796 37.4522 49.7569 37.4922C50.4343 37.5322 51.1121 37.4223 51.7422 37.1705C52.3722 36.9187 52.939 36.531 53.4022 36.0351C53.8653 35.5392 54.2135 34.9473 54.4218 34.3016L56.2499 33.5703V51.5781H45.3124Z" fill="black"/>
<path d="M51.5625 79.6875H67.1875C67.6019 79.6875 67.9993 79.5229 68.2924 79.2299C68.5854 78.9368 68.75 78.5394 68.75 78.125V71.875C68.75 71.4606 68.5854 71.0632 68.2924 70.7701C67.9993 70.4771 67.6019 70.3125 67.1875 70.3125H51.5625C51.1481 70.3125 50.7507 70.4771 50.4576 70.7701C50.1646 71.0632 50 71.4606 50 71.875V78.125C50 78.5394 50.1646 78.9368 50.4576 79.2299C50.7507 79.5229 51.1481 79.6875 51.5625 79.6875ZM53.125 73.4375H65.625V76.5625H53.125V73.4375Z" fill="black"/>
<path d="M51.5625 67.1875H67.1875C67.6019 67.1875 67.9993 67.0229 68.2924 66.7299C68.5854 66.4368 68.75 66.0394 68.75 65.625V59.375C68.75 58.9606 68.5854 58.5632 68.2924 58.2701C67.9993 57.9771 67.6019 57.8125 67.1875 57.8125H51.5625C51.1481 57.8125 50.7507 57.9771 50.4576 58.2701C50.1646 58.5632 50 58.9606 50 59.375V65.625C50 66.0394 50.1646 66.4368 50.4576 66.7299C50.7507 67.0229 51.1481 67.1875 51.5625 67.1875ZM53.125 60.9375H65.625V64.0625H53.125V60.9375Z" fill="black"/>
</svg>
