<svg width="100" height="100" viewBox="0 0 100 100" fill="none" xmlns="http://www.w3.org/2000/svg">
<g clip-path="url(#clip0_476_359)">
<path d="M75.8333 0H9.16638C4.56636 0.00541669 0.838425 3.73335 0.833008 8.33337V61.6669C0.832591 65.468 3.40427 68.7874 7.0847 69.737L7.91804 66.5103C5.70907 65.9407 4.16552 63.9482 4.16636 61.6669V8.33337C4.16636 5.5719 6.40491 3.33335 9.16638 3.33335H75.8333C78.5948 3.33335 80.8334 5.5719 80.8334 8.33337V10H84.1667V8.33337C84.1613 3.73335 80.4333 0.00541669 75.8333 0Z" fill="black"/>
<path d="M10.8333 6.66699H7.5V10.0003H10.8333V6.66699Z" fill="black"/>
<path d="M17.5003 6.66699H14.167V10.0003H17.5003V6.66699Z" fill="black"/>
<path d="M24.1664 6.66699H20.833V10.0003H24.1664V6.66699Z" fill="black"/>
<path d="M98.6787 92.1556L82.8703 76.3472C83.7007 74.8649 84.3649 73.2953 84.8503 71.6672H87.5003V68.3338H85.567C86.1947 64.2994 85.7107 60.1703 84.1669 56.3904V40.0004H80.8336V50.6138C79.8438 49.3494 78.7269 48.19 77.5003 47.1537V33.3337H74.1669V44.8237C73.1 44.2054 71.9852 43.6731 70.8336 43.2321V26.667H67.5002V42.2204C66.4019 41.9833 65.2879 41.8268 64.1669 41.7521V30.0003H60.8335V41.7521C59.7125 41.8268 58.5985 41.9833 57.5002 42.2204V36.667H54.1668V43.2321C53.0151 43.6731 51.9006 44.2054 50.8335 44.8237V35.0004H47.5001V47.1537C46.2735 48.19 45.1566 49.3494 44.1668 50.6138V38.3337H40.8334V56.3904C39.2897 60.1703 38.8057 64.2994 39.4334 68.3338H17.5V71.6672H40.1501C43.8055 83.9968 56.7639 91.0285 69.0933 87.3731C71.5229 86.6527 73.8188 85.5406 75.8902 84.0806L91.322 99.5123C91.9728 100.163 93.0278 100.163 93.6787 99.5123L98.6787 94.5123C99.3293 93.8614 99.3293 92.8064 98.6787 92.1556ZM62.5002 85.0006C51.4593 84.9887 42.512 76.0414 42.5001 65.0005C42.5001 53.9548 51.4545 45.0004 62.5002 45.0004C73.5459 45.0004 82.5003 53.9548 82.5003 65.0005C82.5003 76.0462 73.5459 85.0006 62.5002 85.0006ZM92.5003 95.9773L78.4803 81.9572C79.3886 81.0989 80.2273 80.1699 80.9886 79.1789L95.1437 93.3339L92.5003 95.9773Z" fill="black"/>
<path d="M62.5007 48.334C53.2959 48.334 45.834 55.7959 45.834 65.0007C45.834 74.2056 53.2959 81.6675 62.5007 81.6675C71.7056 81.6675 79.1675 74.2056 79.1675 65.0007C79.1575 55.8001 71.7014 48.344 62.5007 48.334ZM62.5007 78.3341C57.7432 78.3281 53.3494 75.7874 50.9707 71.6674H74.0308C71.652 75.7874 67.2582 78.3281 62.5007 78.3341ZM49.6057 68.3341C48.2646 63.259 50.0553 57.8715 54.1674 54.609V65.0007H57.5007V52.649C58.5695 52.2165 59.6901 51.9252 60.834 51.7823V65.0007H64.1674V51.7823C65.3114 51.9252 66.432 52.2165 67.5007 52.649V65.0007H70.8341V54.609C74.9462 57.8715 76.7368 63.259 75.3958 68.3341H49.6057Z" fill="black"/>
<path d="M85.8333 13.333H19.1664C14.5664 13.3384 10.8384 17.0664 10.833 21.6664V74.9999C10.8384 79.6 14.5664 83.3279 19.1664 83.3333H40.8331V80H19.1664C16.4049 80 14.1664 77.7614 14.1664 74.9999V21.6664C14.1664 18.9049 16.4049 16.6664 19.1664 16.6664H85.8333C88.5948 16.6664 90.8334 18.9049 90.8334 21.6664V74.9999C90.8331 76.2177 90.3888 77.3933 89.5833 78.3066L92.0834 80.5116C93.4267 78.99 94.1675 77.0297 94.1667 74.9999V21.6664C94.1613 17.0664 90.4333 13.3384 85.8333 13.333Z" fill="black"/>
<path d="M20.8333 20H17.5V23.3333H20.8333V20Z" fill="black"/>
<path d="M27.5003 20H24.167V23.3333H27.5003V20Z" fill="black"/>
<path d="M34.1664 20H30.833V23.3333H34.1664V20Z" fill="black"/>
<path d="M24.1664 55H20.833V65H24.1664V55Z" fill="black"/>
<path d="M30.8333 45H27.5V65.0001H30.8333V45Z" fill="black"/>
<path d="M37.5003 50H34.167V65.0001H37.5003V50Z" fill="black"/>
</g>
<defs>
<clipPath id="clip0_476_359">
<rect width="100" height="100" fill="white"/>
</clipPath>
</defs>
</svg>
