<svg width="100" height="100" viewBox="0 0 100 100" fill="none" xmlns="http://www.w3.org/2000/svg">
<g clip-path="url(#clip0_470_329)">
<path d="M94.533 45.4215C92.4365 45.4215 90.6572 46.774 90.0607 48.633H74.4902V38.8424H81.4969C82.0934 40.7014 83.8727 42.0539 85.9691 42.0539C88.5529 42.0539 90.6549 39.9998 90.6549 37.4752C90.6549 34.9506 88.5527 32.8965 85.9691 32.8965C83.8727 32.8965 82.0934 34.249 81.4969 36.108H74.4902V26.8771C74.4902 26.1221 73.8781 25.51 73.123 25.51H63.8922V18.5035C65.7512 17.907 67.1037 16.1277 67.1037 14.0311C67.1037 11.4473 65.0496 9.34531 62.525 9.34531C60.0004 9.34531 57.9463 11.4473 57.9463 14.0311C57.9463 16.1277 59.2988 17.907 61.1578 18.5035V25.51H51.3672V9.93926C53.2262 9.34277 54.5787 7.56367 54.5787 5.46699C54.5787 2.8834 52.5248 0.78125 50 0.78125C47.4752 0.78125 45.4213 2.8834 45.4213 5.46719C45.4213 7.56367 46.7738 9.34297 48.6328 9.93945V25.51H38.8422V18.5035C40.7012 17.907 42.0537 16.1277 42.0537 14.0311C42.0537 11.4473 39.9996 9.34531 37.475 9.34531C34.9504 9.34531 32.8963 11.4473 32.8963 14.0311C32.8963 16.1277 34.2488 17.907 36.1078 18.5035V25.51H26.877C26.1219 25.51 25.5098 26.1221 25.5098 26.8771V36.108H18.5033C17.9068 34.249 16.1275 32.8965 14.0311 32.8965C11.4473 32.8965 9.34531 34.9506 9.34531 37.4752C9.34531 39.9998 11.4475 42.0539 14.0311 42.0539C16.1275 42.0539 17.9068 40.7014 18.5033 38.8424H25.51V48.6328H9.93926C9.34277 46.7738 7.56348 45.4213 5.46699 45.4213C2.8834 45.4215 0.78125 47.4754 0.78125 50C0.78125 52.5246 2.8834 54.5787 5.46699 54.5787C7.56348 54.5787 9.34277 53.2262 9.93926 51.3672H25.5098V61.1576H18.5033C17.9068 59.2986 16.1275 57.9461 14.0311 57.9461C11.4473 57.9461 9.34531 60.0002 9.34531 62.5248C9.34531 65.0494 11.4475 67.1035 14.0311 67.1035C16.1275 67.1035 17.9068 65.751 18.5033 63.892H25.51V73.1229C25.51 73.8779 26.1221 74.49 26.8771 74.49H36.108V81.4965C34.249 82.093 32.8965 83.8723 32.8965 85.9688C32.8965 88.5525 34.9506 90.6545 37.4752 90.6545C39.9998 90.6545 42.0539 88.5523 42.0539 85.9688C42.0539 83.8723 40.7014 82.093 38.8424 81.4965V74.4902H48.6328V90.0607C46.7738 90.6572 45.4213 92.4365 45.4213 94.533C45.4213 97.1166 47.4752 99.2188 50 99.2188C52.5248 99.2188 54.5787 97.1166 54.5787 94.533C54.5787 92.4365 53.2262 90.6572 51.3672 90.0607V74.4902H61.1578V81.4967C59.2988 82.0932 57.9463 83.8725 57.9463 85.9689C57.9463 88.5527 60.0004 90.6547 62.525 90.6547C65.0496 90.6547 67.1037 88.5525 67.1037 85.9689C67.1037 83.8725 65.7512 82.0932 63.8922 81.4967V74.4902H64.9871C65.3496 74.4902 65.6975 74.3461 65.9537 74.0898L74.0895 65.9541C74.3459 65.6977 74.49 65.35 74.49 64.9873V63.8924H81.4967C82.0932 65.7514 83.8725 67.1039 85.9689 67.1039C88.5527 67.1039 90.6547 65.0498 90.6547 62.5252C90.6547 60.0006 88.5525 57.9465 85.9689 57.9465C83.8725 57.9465 82.0932 59.299 81.4967 61.158H74.4902V51.3672H90.0607C90.6572 53.2262 92.4365 54.5787 94.533 54.5787C97.1166 54.5787 99.2188 52.5248 99.2188 50C99.2188 47.4752 97.1166 45.4215 94.533 45.4215ZM85.9689 35.6309C87.0449 35.6309 87.9203 36.4582 87.9203 37.4752C87.9203 38.4922 87.0449 39.3195 85.9689 39.3195C84.893 39.3195 84.0176 38.4922 84.0176 37.4752C84.0176 36.4582 84.893 35.6309 85.9689 35.6309ZM14.0311 39.3193C12.9551 39.3193 12.0797 38.492 12.0797 37.475C12.0797 36.458 12.9551 35.6307 14.0311 35.6307C15.107 35.6307 15.9824 36.458 15.9824 37.475C15.9824 38.492 15.107 39.3193 14.0311 39.3193ZM5.46699 51.8443C4.39102 51.8443 3.51562 51.017 3.51562 50C3.51562 48.983 4.39102 48.1557 5.46699 48.1557C6.54297 48.1557 7.41836 48.983 7.41836 50C7.41836 51.017 6.54297 51.8443 5.46699 51.8443ZM14.0311 64.3693C12.9551 64.3693 12.0797 63.542 12.0797 62.525C12.0797 61.508 12.9551 60.6807 14.0311 60.6807C15.107 60.6807 15.9824 61.508 15.9824 62.525C15.9824 63.542 15.107 64.3693 14.0311 64.3693ZM60.6807 14.0311C60.6807 12.9551 61.508 12.0797 62.525 12.0797C63.542 12.0797 64.3693 12.9551 64.3693 14.0311C64.3693 15.1072 63.542 15.9826 62.525 15.9826C61.508 15.9826 60.6807 15.1072 60.6807 14.0311ZM48.1557 5.46719C48.1557 4.39102 48.983 3.51562 50 3.51562C51.017 3.51562 51.8443 4.39102 51.8443 5.46719C51.8443 6.54316 51.017 7.41856 50 7.41856C48.983 7.41856 48.1557 6.54297 48.1557 5.46719ZM35.6307 14.0311C35.6307 12.9551 36.458 12.0797 37.475 12.0797C38.492 12.0797 39.3193 12.9551 39.3193 14.0311C39.3193 15.1072 38.492 15.9826 37.475 15.9826C36.458 15.9826 35.6307 15.1072 35.6307 14.0311ZM39.3193 85.9689C39.3193 87.0449 38.492 87.9203 37.475 87.9203C36.458 87.9203 35.6307 87.0449 35.6307 85.9689C35.6307 84.893 36.458 84.0176 37.475 84.0176C38.492 84.0176 39.3193 84.893 39.3193 85.9689ZM51.8443 94.533C51.8443 95.609 51.017 96.4844 50 96.4844C48.983 96.4844 48.1557 95.609 48.1557 94.533C48.1557 93.457 48.983 92.5816 50 92.5816C51.017 92.5816 51.8443 93.457 51.8443 94.533ZM64.3693 85.9689C64.3693 87.0449 63.542 87.9203 62.525 87.9203C61.508 87.9203 60.6807 87.0449 60.6807 85.9689C60.6807 84.893 61.508 84.0176 62.525 84.0176C63.542 84.0176 64.3693 84.893 64.3693 85.9689ZM71.7559 64.4209L64.4209 71.7559H28.2441V28.2443H71.7559V64.4209ZM85.9689 60.6807C87.0449 60.6807 87.9203 61.508 87.9203 62.525C87.9203 63.542 87.0449 64.3693 85.9689 64.3693C84.893 64.3693 84.0176 63.542 84.0176 62.525C84.0176 61.508 84.893 60.6807 85.9689 60.6807ZM94.533 51.8443C93.457 51.8443 92.5816 51.017 92.5816 50C92.5816 48.983 93.457 48.1557 94.533 48.1557C95.609 48.1557 96.4844 48.983 96.4844 50C96.4844 51.017 95.609 51.8443 94.533 51.8443ZM35.3516 66.0156H64.6484C65.4035 66.0156 66.0156 65.4035 66.0156 64.6484V35.3516C66.0156 34.5965 65.4035 33.9844 64.6484 33.9844H35.3516C34.5965 33.9844 33.9844 34.5965 33.9844 35.3516V64.6484C33.9844 65.4035 34.5965 66.0156 35.3516 66.0156ZM36.7188 36.7188H63.2812V63.2812H36.7188V36.7188Z" fill="black"/>
</g>
<defs>
<clipPath id="clip0_470_329">
<rect width="100" height="100" fill="white"/>
</clipPath>
</defs>
</svg>
