<svg width="100" height="100" viewBox="0 0 100 100" fill="none" xmlns="http://www.w3.org/2000/svg">
<path d="M91.5417 50.232C88.2771 50.232 85.537 52.5133 84.8271 55.565H78.7075C78.1609 50.6527 74.8409 46.426 70.1628 44.7385C68.7253 36.0492 61.2197 29.6184 52.2982 29.6184C50.5236 29.6184 48.7784 29.8732 47.0974 30.3766C46.2601 29.6396 45.3681 28.9834 44.4347 28.4041V15.1727C47.4865 14.4627 49.7677 11.7225 49.7677 8.45801C49.7677 4.65586 46.6745 1.5625 42.8722 1.5625C39.07 1.5625 35.9767 4.65586 35.9767 8.45801C35.9767 11.7227 38.2581 14.4627 41.3099 15.1727V26.8297C39.0013 25.9133 36.52 25.4291 33.97 25.4291C28.3097 25.4291 23.1939 27.8057 19.5681 31.6135L14.3107 26.3561C15.9663 23.6961 15.6419 20.1455 13.3337 17.8371C10.645 15.149 6.27083 15.1486 3.58176 17.8371C0.893286 20.5258 0.893286 24.9002 3.58196 27.5889C4.92629 28.933 6.69211 29.6051 8.45774 29.6051C9.72414 29.6051 10.99 29.2572 12.1009 28.5658L17.5874 34.0523C15.3757 37.2578 14.0784 41.1404 14.0784 45.3209C14.0784 45.3445 14.0784 45.368 14.0786 45.3918C9.71809 47.6133 6.95618 52.0582 6.95618 56.999C6.95618 64.1844 12.8021 70.0303 19.9874 70.0303H27.2325V70.5576L12.1011 85.6891C9.44114 84.0336 5.89094 84.358 3.58196 86.666C0.893481 89.3547 0.893481 93.7291 3.58196 96.4178C4.92649 97.7621 6.69211 98.4342 8.45813 98.4342C10.2238 98.4342 11.9898 97.7619 13.3339 96.4178C15.6421 94.1094 15.9665 90.5588 14.3109 87.8988L27.2325 74.9773V89.375C27.2325 91.3297 28.8228 92.9197 30.7773 92.9197H54.9675C56.9222 92.9197 58.5122 91.3295 58.5122 89.375V74.9773L71.4339 87.8988C69.7782 90.5588 70.1027 94.1094 72.4109 96.418C73.7552 97.7621 75.5208 98.4342 77.2866 98.4342C79.0525 98.4342 80.8185 97.7621 82.1628 96.4178C84.8513 93.7291 84.8513 89.3547 82.1628 86.666C79.8544 84.3578 76.3036 84.0334 73.6437 85.6891L58.5122 70.5576V70.0303H65.7573C72.3695 70.0303 77.8431 65.0789 78.6751 58.69H84.8271C85.537 61.7416 88.2773 64.023 91.5417 64.023C95.3439 64.023 98.4372 60.9297 98.4372 57.1275C98.4372 53.3254 95.3439 50.232 91.5417 50.232ZM39.1017 8.45801C39.1017 6.37891 40.7931 4.6875 42.8722 4.6875C44.9515 4.6875 46.6429 6.37891 46.6429 8.45801C46.6429 10.5371 44.9515 12.2285 42.8722 12.2285C40.7931 12.2283 39.1017 10.5369 39.1017 8.45801ZM5.79153 25.3789C4.32141 23.909 4.32141 21.517 5.79133 20.0469C6.52668 19.3117 7.49192 18.9441 8.45754 18.9441C9.42297 18.9441 10.3888 19.3117 11.1236 20.0469C12.5937 21.5168 12.5937 23.9088 11.1236 25.3789C9.65403 26.849 7.26184 26.8492 5.79153 25.3789ZM11.1238 94.2082C9.65403 95.6783 7.26184 95.6781 5.79153 94.208C4.32141 92.7381 4.32141 90.3461 5.79133 88.876C6.52668 88.1408 7.49192 87.7732 8.45754 87.7732C9.42297 87.7732 10.3888 88.1408 11.1236 88.876C12.5939 90.3459 12.5939 92.7379 11.1238 94.2082ZM79.9529 88.876C81.423 90.3459 81.423 92.7379 79.9529 94.208C78.4827 95.6781 76.0905 95.6781 74.6206 94.2084C73.1505 92.7381 73.1505 90.3461 74.6206 88.876C75.3556 88.1408 76.3212 87.7732 77.2866 87.7732C78.2521 87.7732 79.2181 88.1408 79.9529 88.876ZM55.3872 89.375C55.3872 89.6025 55.195 89.7947 54.9675 89.7947H30.7771C30.5495 89.7947 30.3573 89.6025 30.3573 89.375V47.5605C30.3573 47.333 30.5495 47.1408 30.7771 47.1408H33.7341L35.0089 50.5881C35.2357 51.2016 35.8202 51.6088 36.4743 51.6088H49.2704C49.9245 51.6088 50.5093 51.2016 50.7361 50.5881L52.0107 47.1408H54.9675C55.195 47.1408 55.3872 47.333 55.3872 47.5605V89.375ZM37.0657 47.1406H48.6786L48.1822 48.4836H37.5624L37.0657 47.1406ZM65.7573 66.9053H58.5122V47.5605C58.5122 45.6059 56.922 44.0158 54.9675 44.0158H30.7771C28.8224 44.0158 27.2323 45.6061 27.2323 47.5605V66.9053H19.9872C14.5249 66.9053 10.081 62.4613 10.081 56.999C10.081 52.9639 12.5079 49.3625 16.2638 47.8246C16.881 47.5719 17.2697 46.9553 17.2318 46.2895C17.2126 45.9584 17.2032 45.6324 17.2032 45.3209C17.2032 36.0756 24.7247 28.5541 33.97 28.5541C38.3435 28.5541 42.4831 30.2289 45.6267 33.2701C46.0544 33.684 46.6802 33.8191 47.2406 33.618C48.8593 33.0375 50.5611 32.7432 52.2984 32.7432C59.9675 32.7432 66.372 38.4842 67.1958 46.0971C67.265 46.7363 67.7187 47.268 68.3392 47.4367C72.6517 48.61 75.6636 52.542 75.6636 56.9986C75.6634 62.4613 71.2197 66.9053 65.7573 66.9053ZM91.5417 60.898C89.4626 60.898 87.7712 59.2066 87.7712 57.1275C87.7712 55.0484 89.4626 53.357 91.5417 53.357C93.6208 53.357 95.3122 55.0486 95.3122 57.1275C95.3122 59.2064 93.6208 60.898 91.5417 60.898ZM62.0884 18.7598C62.0497 17.8977 62.7169 17.1674 63.579 17.1283C68.6155 16.9043 73.2675 18.6564 76.682 22.0709C80.0962 25.4854 81.8517 30.1389 81.6245 35.1738C81.5866 36.0119 80.8952 36.666 80.0648 36.666C80.0409 36.666 80.0173 36.6654 79.9933 36.6645C79.1312 36.6256 78.4638 35.8951 78.5027 35.033C78.69 30.8855 77.2585 27.067 74.4722 24.2807C71.6863 21.4945 67.8699 20.0648 63.7198 20.2502C62.848 20.2867 62.1273 19.6217 62.0884 18.7598ZM61.7837 25.5096C61.7449 24.6477 62.4122 23.9172 63.2743 23.8781C66.5077 23.7309 69.497 24.8619 71.6939 27.0588C73.8905 29.2557 75.02 32.2459 74.8743 35.4781C74.8364 36.3162 74.1452 36.9703 73.3146 36.9703C73.2909 36.9703 73.2671 36.9697 73.2431 36.9688C72.381 36.9299 71.7136 36.1994 71.7525 35.3373C71.8583 32.9922 71.0527 30.8371 69.4841 29.2686C67.9156 27.6998 65.7632 26.8908 63.4152 27C62.5517 27.0316 61.8226 26.3715 61.7837 25.5096ZM62.3929 12.0102C62.3542 11.148 63.0214 10.4178 63.8835 10.3787C70.7202 10.0719 77.0386 12.4516 81.6698 17.0828C86.3011 21.7143 88.682 28.0311 88.3738 34.8691C88.3361 35.7072 87.6447 36.3613 86.814 36.3613C86.7904 36.3613 86.7665 36.3607 86.7425 36.3598C85.8804 36.3209 85.2132 35.5906 85.2519 34.7283C85.5202 28.7775 83.4634 23.2957 79.4601 19.2926C75.457 15.2891 69.9732 13.2303 64.0243 13.5006C63.1579 13.5352 62.4318 12.8721 62.3929 12.0102ZM35.5325 33.9178C35.5325 34.7807 34.8329 35.4803 33.97 35.4803C28.5439 35.4803 24.1294 39.8947 24.1294 45.3207C24.1294 46.1836 23.4298 46.8832 22.5669 46.8832C21.704 46.8832 21.0044 46.1836 21.0044 45.3207C21.0044 38.1715 26.8206 32.3553 33.97 32.3553C34.8329 32.3553 35.5325 33.0549 35.5325 33.9178ZM46.4638 86.7885C46.4638 87.6514 45.7642 88.351 44.9013 88.351L40.8431 88.3508C39.98 88.3508 39.2806 87.6512 39.2806 86.7883C39.2806 85.9254 39.9802 85.2258 40.8431 85.2258L44.9013 85.226C45.7644 85.226 46.4638 85.9256 46.4638 86.7885Z" fill="black"/>
</svg>
