<svg width="100" height="100" viewBox="0 0 100 100" fill="none" xmlns="http://www.w3.org/2000/svg">
<path d="M81.22 56.2803V43.7203C81.2268 43.2362 81.1024 42.7593 80.86 42.3403C80.74 42.1303 80.27 42.2303 80.27 42.4503V57.5503C80.27 57.7703 80.74 57.8703 80.86 57.6603C81.1024 57.2413 81.2268 56.7644 81.22 56.2803ZM39.83 48.6203C38.06 50.2103 35.34 47.7703 37.11 46.1703C40.6711 43.0332 45.2541 41.3024 50 41.3024C54.7459 41.3024 59.3289 43.0332 62.89 46.1703C64.66 47.7703 61.89 50.1703 60.29 48.6203C57.4548 46.1492 53.8209 44.7879 50.06 44.7879C46.2991 44.7879 42.6652 46.1492 39.83 48.6203ZM46.45 54.6803C44.68 56.3803 41.96 53.9403 43.73 52.2303C45.4785 50.7385 47.7016 49.919 50 49.919C52.2984 49.919 54.5215 50.7385 56.27 52.2303C58.04 53.9403 55.27 56.3803 53.55 54.6803C52.5505 53.8561 51.2954 53.4054 50 53.4054C48.7046 53.4054 47.4495 53.8561 46.45 54.6803ZM33.09 42.5503C31.32 44.1503 28.72 41.7003 30.49 40.1103C41.25 30.3203 58.87 30.3203 69.49 40.1103C71.26 41.7003 68.66 44.1103 66.89 42.5503C62.2174 38.4365 56.2055 36.1671 49.98 36.1671C43.7545 36.1671 37.7426 38.4365 33.07 42.5503H33.09ZM34 91.6003H66C66.4508 91.6066 66.8883 91.4471 67.2293 91.1522C67.5704 90.8572 67.7912 90.4473 67.85 90.0003L69.16 78.7203C69.1741 78.5855 69.158 78.4493 69.1127 78.3215C69.0675 78.1937 68.9943 78.0777 68.8984 77.9819C68.8026 77.886 68.6866 77.8128 68.5588 77.7676C68.431 77.7223 68.2948 77.7062 68.16 77.7203H31.79C31.5335 77.7331 31.2919 77.8441 31.115 78.0303C30.9381 78.2165 30.8397 78.4635 30.84 78.7203L32.15 90.0003C32.2088 90.4473 32.4296 90.8572 32.7707 91.1522C33.1117 91.4471 33.5492 91.6066 34 91.6003ZM66 95.0003H34C32.6455 95.0465 31.3208 94.5964 30.2748 93.7346C29.2289 92.8728 28.5337 91.6586 28.32 90.3203L27.06 78.4003C27.0563 78.2965 27.0316 78.1945 26.9874 78.1005C26.9432 78.0064 26.8805 77.9223 26.8029 77.8532C26.7254 77.784 26.6346 77.7313 26.5362 77.6982C26.4377 77.665 26.3336 77.6521 26.23 77.6603C24.4899 77.4957 22.8697 76.7019 21.673 75.428C20.4764 74.154 19.7855 72.4873 19.73 70.7403V62.7403C19.7394 62.5521 19.6868 62.366 19.5802 62.2107C19.4736 62.0553 19.319 61.9392 19.14 61.8803C17.9602 61.4821 16.9308 60.7318 16.1906 59.7305C15.4503 58.7292 15.0348 57.525 15 56.2803V43.7203C15.0287 42.4704 15.4414 41.2596 16.1821 40.2524C16.9228 39.2452 17.9555 38.4903 19.14 38.0903C19.319 38.0314 19.4736 37.9153 19.5802 37.7599C19.6868 37.6046 19.7394 37.4185 19.73 37.2303V29.2303C19.7855 27.4833 20.4764 25.8166 21.673 24.5427C22.8697 23.2687 24.4899 22.475 26.23 22.3103C26.3336 22.3185 26.4377 22.3056 26.5362 22.2724C26.6346 22.2393 26.7254 22.1866 26.8029 22.1174C26.8805 22.0483 26.9432 21.9642 26.9874 21.8701C27.0316 21.7761 27.0563 21.6741 27.06 21.5703L28.36 9.6503C28.5794 8.32452 29.2716 7.12306 30.3085 6.2682C31.3453 5.41334 32.6567 4.96293 34 5.00031H66C67.3545 4.9541 68.6792 5.4042 69.7252 6.26601C70.7711 7.12782 71.4663 8.342 71.68 9.68031L72.98 21.6003C72.9837 21.7041 73.0084 21.8061 73.0526 21.9001C73.0968 21.9942 73.1595 22.0783 73.2371 22.1474C73.3146 22.2166 73.4054 22.2693 73.5038 22.3024C73.6023 22.3356 73.7064 22.3485 73.81 22.3403C75.5501 22.505 77.1703 23.2987 78.367 24.5726C79.5636 25.8466 80.2545 27.5133 80.31 29.2603V37.2603C80.3006 37.4485 80.3532 37.6346 80.4598 37.7899C80.5664 37.9453 80.721 38.0614 80.9 38.1203C82.085 38.5047 83.1189 39.2526 83.8548 40.2578C84.5908 41.263 84.9915 42.4745 85 43.7203V56.2803C84.9912 57.7795 84.3953 59.2155 83.34 60.2803C82.6802 61.034 81.8203 61.5853 80.86 61.8703C80.681 61.9292 80.5264 62.0453 80.4198 62.2007C80.3132 62.356 80.2606 62.5421 80.27 62.7303V70.7303C80.2145 72.4773 79.5236 74.144 78.327 75.418C77.1303 76.6919 75.5101 77.4857 73.77 77.6503C73.6664 77.6421 73.5623 77.655 73.4638 77.6882C73.3654 77.7213 73.2746 77.774 73.1971 77.8432C73.1195 77.9123 73.0568 77.9964 73.0126 78.0905C72.9684 78.1845 72.9437 78.2865 72.94 78.3903L71.64 90.3103C71.4293 91.6434 70.7409 92.8544 69.7031 93.7173C68.6654 94.5803 67.3492 95.0363 66 95.0003ZM72.86 25.7403H27.18C26.2284 25.7268 25.3097 26.0886 24.6228 26.7474C23.936 27.4062 23.5362 28.3089 23.51 29.2603V61.7003C23.5058 61.8218 23.5283 61.9428 23.576 62.0547C23.6237 62.1665 23.6954 62.2666 23.7861 62.3476C23.8767 62.4287 23.984 62.4889 24.1005 62.5239C24.2169 62.559 24.3397 62.568 24.46 62.5503H75.54C75.6603 62.568 75.7831 62.559 75.8995 62.5239C76.016 62.4889 76.1233 62.4287 76.2139 62.3476C76.3046 62.2666 76.3763 62.1665 76.424 62.0547C76.4717 61.9428 76.4942 61.8218 76.49 61.7003V29.2603C76.4638 28.3089 76.064 27.4062 75.3772 26.7474C74.6903 26.0886 73.7716 25.7268 72.82 25.7403H72.86ZM66 8.40031H34C33.5492 8.39401 33.1117 8.55347 32.7707 8.84842C32.4296 9.14337 32.2088 9.55327 32.15 10.0003L30.84 21.3803C30.855 21.6323 30.9585 21.8708 31.1324 22.0538C31.3062 22.2368 31.5391 22.3524 31.79 22.3803H68.21C68.4752 22.3803 68.7296 22.2749 68.9171 22.0874C69.1046 21.8999 69.21 21.6455 69.21 21.3803L67.85 10.0003C67.7912 9.55327 67.5704 9.14337 67.2293 8.84842C66.8883 8.55347 66.4508 8.39401 66 8.40031ZM23.51 66.9103V70.7403C23.5268 71.2206 23.6382 71.6929 23.8379 72.13C24.0376 72.5671 24.3217 72.9605 24.6739 73.2875C25.026 73.6146 25.4393 73.8689 25.8899 74.0358C26.3406 74.2027 26.8198 74.279 27.3 74.2603H72.7C73.1802 74.279 73.6594 74.2027 74.1101 74.0358C74.5607 73.8689 74.974 73.6146 75.3261 73.2875C75.6783 72.9605 75.9624 72.5671 76.1621 72.13C76.3618 71.6929 76.4732 71.2206 76.49 70.7403V66.9103C76.4849 66.7916 76.4562 66.6751 76.4054 66.5677C76.3546 66.4603 76.2828 66.3642 76.1943 66.285C76.1057 66.2057 76.0022 66.1451 75.8898 66.1065C75.7775 66.0679 75.6585 66.0522 75.54 66.0603H24.46C24.3415 66.0522 24.2225 66.0679 24.1102 66.1065C23.9978 66.1451 23.8943 66.2057 23.8057 66.285C23.7172 66.3642 23.6454 66.4603 23.5946 66.5677C23.5438 66.6751 23.5151 66.7916 23.51 66.9103ZM18.78 43.7203V56.2803C18.7732 56.7644 18.8976 57.2413 19.14 57.6603C19.37 57.8703 19.73 57.7703 19.73 57.5503V42.4503C19.73 42.2303 19.37 42.1303 19.14 42.3403C18.8976 42.7593 18.7732 43.2362 18.78 43.7203Z" fill="black"/>
</svg>
