<svg width="100" height="100" viewBox="0 0 100 100" fill="none" xmlns="http://www.w3.org/2000/svg">
<path d="M85.8125 93.6875C85.8125 93.6875 85.8125 93.6562 85.8125 93.6406C85.7969 78.4531 76.0781 64.9375 61.9219 59.9531C68.2656 52.0312 75.0156 40.9531 75.0156 29.7031C75.0156 15.9219 63.7969 4.70312 50.0156 4.70312C36.2344 4.70312 25.0156 15.9219 25.0156 29.7031C25.0156 40.9688 31.7656 52.0312 38.1094 59.9531C23.9531 64.9375 14.25 78.4531 14.2188 93.6406V93.6875C14.2188 94.3281 14.6094 94.8906 15.1719 95.125C15.3594 95.2031 15.5625 95.25 15.7812 95.25H15.7969H84.2344C84.2344 95.25 84.2344 95.25 84.25 95.25C84.4688 95.25 84.6719 95.2031 84.8594 95.125C85.4219 94.8906 85.8125 94.3281 85.8125 93.6875ZM22.2969 76.4375C26.4844 77.8125 30.9531 78.875 35.5938 79.5938C34.875 83.5 34.4688 87.75 34.3906 92.125H17.4219C17.7031 86.4531 19.4219 81.0781 22.3125 76.4375H22.2969ZM38.6719 80.0156C42.3906 80.4531 46.1875 80.6875 50.0156 80.6875C53.8437 80.6875 57.6406 80.4688 61.3594 80.0156C62.0469 83.7656 62.4531 87.8594 62.5312 92.1094H37.5156C37.5938 87.8594 38 83.7656 38.6875 80.0156H38.6719ZM48.9844 71.4844C49.2812 71.7344 49.6406 71.8594 50.0156 71.8594C50.3906 71.8594 50.75 71.7344 51.0469 71.4844C51.3437 71.2344 53.5781 69.2656 56.5625 66.1094C58.2812 68.9219 59.7031 72.625 60.7188 76.9375C57.2188 77.3438 53.6406 77.5625 50.0156 77.5625C46.3906 77.5625 42.8281 77.3438 39.3125 76.9375C40.3281 72.6406 41.75 68.9219 43.4687 66.1094C46.4531 69.2656 48.6875 71.2344 48.9844 71.4844ZM64.4375 79.5781C69.0781 78.8594 73.5313 77.8125 77.7344 76.4219C80.625 81.0625 82.3594 86.4375 82.625 92.1094H65.6562C65.5781 87.7344 65.1563 83.4844 64.4531 79.5781H64.4375ZM75.875 73.75C72.0469 74.9531 68 75.8906 63.7969 76.5156C62.6094 71.375 60.875 66.9531 58.7344 63.7188C59.0781 63.3281 59.4219 62.9375 59.7812 62.5156C66.3125 64.5469 71.875 68.5312 75.875 73.7344V73.75ZM50 7.8125C62.0625 7.8125 71.875 17.625 71.875 29.6875C71.875 46.6562 54.4531 64.0313 50 68.2031C45.5469 64.0469 28.125 46.6562 28.125 29.6875C28.125 17.625 37.9375 7.8125 50 7.8125ZM40.2344 62.5313C40.5938 62.9375 40.9375 63.3438 41.2812 63.7344C39.1406 66.9688 37.4062 71.3906 36.2188 76.5312C32.0156 75.8906 27.9687 74.9688 24.1406 73.7656C28.1406 68.5625 33.7031 64.5781 40.2344 62.5469V62.5313ZM65.625 29.6875C65.625 21.0781 58.6094 14.0625 50 14.0625C41.3906 14.0625 34.375 21.0781 34.375 29.6875C34.375 38.2969 41.3906 45.3125 50 45.3125C58.6094 45.3125 65.625 38.2969 65.625 29.6875ZM37.5 29.6875C37.5 22.7969 43.1094 17.1875 50 17.1875C56.8906 17.1875 62.5 22.7969 62.5 29.6875C62.5 36.5781 56.8906 42.1875 50 42.1875C43.1094 42.1875 37.5 36.5781 37.5 29.6875ZM51.5 36.7188C52.3594 36.7188 53.0625 36.0156 53.0625 35.1562V32.3438H54.5469C57.2188 32.3438 59.3906 30.1719 59.3906 27.5C59.3906 24.8281 57.2188 22.6562 54.5469 22.6562H51.5C50.6406 22.6562 49.9375 23.3594 49.9375 24.2188V35.1562C49.9375 36.0156 50.6406 36.7188 51.5 36.7188ZM56.2656 27.5C56.2656 28.4531 55.5 29.2188 54.5469 29.2188H53.0625V25.7812H54.5469C55.5 25.7812 56.2656 26.5469 56.2656 27.5ZM46.8906 24.2188V35.1562C46.8906 36.0156 46.1875 36.7188 45.3281 36.7188C44.4688 36.7188 43.7656 36.0156 43.7656 35.1562V24.2188C43.7656 23.3594 44.4688 22.6562 45.3281 22.6562C46.1875 22.6562 46.8906 23.3594 46.8906 24.2188Z" fill="black"/>
</svg>
