<svg width="100" height="100" viewBox="0 0 100 100" fill="none" xmlns="http://www.w3.org/2000/svg">
<g clip-path="url(#clip0_470_307)">
<path d="M47.553 20.3494C47.5677 20.3498 47.5823 20.35 47.5971 20.35C48.0433 20.35 48.4663 20.1462 48.7444 19.7955L56.2073 10.38C56.7093 9.74642 56.603 8.82558 55.9694 8.32339C55.3357 7.8214 54.4149 7.92797 53.9129 8.56131L47.6709 16.4367L46.0806 14.1621C45.6179 13.4995 44.7048 13.3375 44.0424 13.801C43.3796 14.2642 43.218 15.1768 43.6813 15.8392L46.3976 19.7248C46.6624 20.1039 47.0909 20.3355 47.553 20.3494Z" fill="black"/>
<path d="M16.4682 28.4179C14.696 29.5669 13.4775 31.3373 13.037 33.4029C12.5963 35.4684 12.9866 37.582 14.1357 39.3542C15.2849 41.1262 17.0553 42.3447 19.1208 42.7852C19.675 42.9033 20.2324 42.9617 20.7857 42.9617C22.2956 42.9617 23.7752 42.527 25.0718 41.6864C26.844 40.5374 28.0625 38.7669 28.503 36.7014C28.9437 34.6358 28.5533 32.5223 27.4043 30.7501C25.0322 27.0925 20.126 26.0457 16.4682 28.4179ZM23.4791 39.2299C22.3631 39.9536 21.0322 40.1989 19.7316 39.922C18.4307 39.6446 17.3159 38.8772 16.5921 37.7614C15.8686 36.6454 15.6227 35.3143 15.9002 34.0136C16.1776 32.7128 16.945 31.5979 18.061 30.8744C18.896 30.333 19.834 30.0742 20.7623 30.0742C22.3943 30.0742 23.9954 30.8744 24.9478 32.3429C26.4415 34.6468 25.7826 37.7362 23.4791 39.2299Z" fill="black"/>
<path d="M72.1574 25.9825C68.4749 29.6653 68.4749 35.6572 72.1574 39.34C73.9989 41.1813 76.4176 42.1017 78.8362 42.1017C81.255 42.1017 83.6736 41.1811 85.5151 39.34C89.1977 35.6572 89.1977 29.6653 85.5151 25.9825C81.8322 22.3003 75.8402 22.2999 72.1574 25.9825ZM83.4447 37.2697C82.2163 38.4984 80.5795 39.1751 78.8362 39.1751C77.0929 39.1751 75.4563 38.4984 74.2279 37.2697C72.9992 36.0413 72.3226 34.4046 72.3226 32.6612C72.3226 30.9179 72.9992 29.2814 74.2279 28.0529C75.4563 26.8243 77.0931 26.1476 78.8362 26.1476C80.5797 26.1476 82.2163 26.8243 83.4447 28.0529C84.6733 29.2814 85.35 30.9181 85.35 32.6612C85.35 34.4047 84.6733 36.0413 83.4447 37.2697Z" fill="black"/>
<path d="M98.4029 44.2727L93.6387 39.5084C95.6059 35.2362 95.6896 30.2067 93.6426 25.793C93.3026 25.0595 92.4321 24.741 91.6988 25.081C90.9653 25.421 90.6464 26.2913 90.9868 27.0248C93.341 32.1009 92.2631 38.1709 88.3045 42.1295C85.7754 44.6587 82.4127 46.0515 78.8361 46.0515C75.2593 46.0515 71.8966 44.6587 69.3675 42.1295C66.8384 39.6006 65.4456 36.2379 65.4456 32.6611C65.4456 29.0845 66.8384 25.7218 69.3677 23.1927C74.2534 18.3068 81.9644 17.9172 87.3034 22.2863C87.9288 22.7982 88.8512 22.7061 89.3635 22.0803C89.8755 21.4546 89.7832 20.5324 89.1576 20.0203C86.0422 17.4709 82.1032 16.1718 78.0665 16.3609C74.0822 16.5479 70.3311 18.1794 67.4722 20.9554L63.6278 17.7613C63.9283 16.6166 64.0896 15.4161 64.0896 14.1784C64.0896 6.39324 57.7559 0.0595703 49.9705 0.0595703C44.5672 0.0595703 39.5668 3.20972 37.2311 8.08483C36.8818 8.81382 37.1896 9.68801 37.9187 10.0374C38.6473 10.3867 39.5219 10.079 39.8713 9.34977C41.7231 5.48469 45.6874 2.98722 49.9705 2.98722C56.1414 2.98722 61.1619 8.00754 61.1619 14.1784C61.1619 20.3493 56.1414 25.3699 49.9705 25.3699C44.205 25.3699 39.4187 21.0514 38.8371 15.3245C38.7553 14.5204 38.0398 13.9386 37.2327 14.0161C36.4284 14.0978 35.8427 14.8161 35.9242 15.6204C36.0556 16.9144 36.3599 18.1503 36.808 19.3092L32.0275 24.0487C32.3283 23.3141 32.6158 22.6054 32.8963 21.907C33.2156 21.1136 33.1652 20.2328 32.7585 19.4904C31.0048 16.2891 28.1929 15.0095 24.6266 15.7898C23.8005 15.9707 23.1033 16.511 22.7141 17.2732C22.3199 18.0451 21.9213 18.8334 21.5038 19.6662C20.2504 19.6051 18.9997 19.6972 17.7699 19.9416C17.2322 19.1769 16.7218 18.4569 16.2208 17.7556C15.7239 17.0596 14.9547 16.6279 14.1103 16.5709C10.4707 16.3265 7.87583 18.0064 6.61382 21.432C6.32164 22.2256 6.40185 23.1039 6.83437 23.842C7.27215 24.589 7.72144 25.3486 8.19826 26.1484C7.47376 27.1709 6.87926 28.2751 6.42332 29.4449C5.48121 29.4869 4.59881 29.5293 3.74472 29.5736C2.89083 29.6181 2.11285 30.0336 1.61047 30.7144C-0.55716 33.6518 -0.536276 36.741 1.67097 39.6482C2.18234 40.3223 2.96597 40.7277 3.82065 40.7603C4.68391 40.7935 5.5665 40.8237 6.49983 40.8526C6.86559 41.7496 7.31704 42.6141 7.84675 43.4313C8.37626 44.2481 8.98131 45.013 9.65154 45.7131C9.29827 46.5736 8.96608 47.3916 8.64248 48.1967C8.32376 48.9901 8.37431 49.8707 8.78086 50.6128C10.2002 53.204 12.3128 54.5362 14.957 54.5362C15.5798 54.5362 16.2325 54.4623 16.9125 54.3134C17.7393 54.1326 18.4366 53.592 18.8254 52.83C19.2183 52.0606 19.6169 51.2727 20.0357 50.4371C21.2903 50.4977 22.5408 50.4057 23.7696 50.1616C24.3062 50.9245 24.8164 51.6447 25.3189 52.3481C25.8161 53.0437 26.5852 53.4755 27.4292 53.5323C31.0727 53.7758 33.6637 52.0967 34.9257 48.6712C35.2181 47.8774 35.1379 46.9989 34.7054 46.2612C34.265 45.5103 33.8156 44.7505 33.3415 43.9549C34.066 42.9324 34.6603 41.8283 35.1162 40.6582C36.0386 40.6172 36.9364 40.5741 37.795 40.5298C38.3579 40.5005 38.8858 40.3071 39.3254 39.9854L47.4133 46.5867C47.1711 47.1754 47.0366 47.8192 47.0366 48.4944C47.0366 51.268 49.2932 53.5244 52.0669 53.5244C54.8405 53.5244 57.0972 51.2678 57.0972 48.4944C57.0972 48.014 57.0281 47.5499 56.9018 47.1098L65.2505 41.7092C65.843 42.5948 66.5269 43.4287 67.2973 44.1991C70.3793 47.2813 74.477 48.9786 78.8359 48.9786C81.2442 48.9786 83.5717 48.4581 85.6934 47.4744L90.4479 52.2293C91.5122 53.2936 92.9099 53.826 94.3085 53.826C95.7085 53.8258 97.1095 53.2924 98.1771 52.2246L98.4027 51.997C100.533 49.8674 100.533 46.4025 98.4029 44.2727ZM37.6043 37.6084C36.5336 37.6636 35.4006 37.7171 34.2348 37.7667C33.4933 37.7989 32.8377 38.2944 32.6035 38.9994C32.1474 40.3697 31.4647 41.6382 30.5743 42.7691C30.1142 43.3528 30.0607 44.1728 30.4417 44.81C31.0501 45.8267 31.6126 46.7752 32.1601 47.7088C31.3534 49.8559 29.9706 50.7559 27.6786 50.615C27.055 49.7415 26.4182 48.841 25.7333 47.8635C25.3078 47.2564 24.5371 46.9692 23.8163 47.1515C22.4202 47.5033 20.9835 47.6092 19.546 47.4666C18.8063 47.3934 18.0849 47.7902 17.7547 48.4538C17.2205 49.5237 16.7234 50.509 16.2356 51.4647C13.9921 51.9406 12.489 51.2569 11.374 49.2524C11.776 48.2525 12.192 47.2314 12.6457 46.1314C12.9282 45.4457 12.7548 44.6427 12.2148 44.1341C11.4917 43.4518 10.8486 42.6795 10.3036 41.839C9.7583 40.998 9.31564 40.0959 8.98755 39.1561C8.74202 38.4564 8.08057 37.9714 7.33987 37.9492C6.145 37.9144 5.04265 37.8777 3.97191 37.8367C2.59689 36.0011 2.58538 34.3499 3.93541 32.4957C4.99327 32.4409 6.09562 32.389 7.30298 32.3373C8.04543 32.3062 8.70181 31.8105 8.93642 31.1045C9.39254 29.7342 10.0753 28.4657 10.9657 27.3349C11.4259 26.7507 11.4792 25.9306 11.0982 25.2941C10.4859 24.2714 9.92342 23.3225 9.37966 22.395C10.1865 20.2482 11.5746 19.3494 13.8611 19.489C14.4829 20.3595 15.1196 21.26 15.806 22.2394C16.2317 22.848 17.0025 23.1345 17.7236 22.9524C19.1197 22.6009 20.556 22.4947 21.9937 22.6376C22.7323 22.7114 23.4532 22.315 23.7854 21.6502C24.3181 20.5832 24.815 19.5977 25.3043 18.6392C27.5475 18.1641 29.0507 18.8471 30.1658 20.8513C29.7631 21.8538 29.347 22.8751 28.895 23.9708C28.6116 24.6563 28.7843 25.4594 29.3251 25.9698C30.0479 26.6518 30.691 27.4241 31.2363 28.2649C31.7814 29.1057 32.2241 30.0078 32.5522 30.9472C32.7977 31.6483 33.4601 32.1335 34.2001 32.1548C35.359 32.1885 36.4918 32.2262 37.568 32.2672C38.9432 34.1034 38.9549 35.7536 37.6043 37.6084ZM52.0667 50.597C50.9073 50.597 49.9641 49.6539 49.9641 48.4946C49.9641 47.3352 50.9073 46.3919 52.0667 46.3919C53.226 46.3919 54.1693 47.3352 54.1693 48.4946C54.1693 49.6539 53.2262 50.597 52.0667 50.597ZM63.8495 39.1292L55.3096 44.6533C54.4332 43.9122 53.3016 43.4643 52.0667 43.4643C51.0301 43.4643 50.0659 43.7797 49.2645 44.3191L40.9861 37.5625C41.9897 35.2003 41.6251 32.7854 39.8902 30.4841C39.89 30.4839 39.89 30.4839 39.8898 30.4837C39.3677 29.7916 38.5763 29.3757 37.7179 29.3431C36.8562 29.3101 35.9582 29.2792 35.0395 29.2507C34.6737 28.3537 34.2221 27.4891 33.6926 26.6719C33.6727 26.6412 33.651 26.6122 33.6311 26.5817L38.2209 22.0312C40.7588 25.8361 45.0844 28.2975 49.9703 28.2975C55.4263 28.2975 60.1659 25.1848 62.5157 20.6439L65.56 23.1731C63.5862 25.923 62.518 29.209 62.518 32.6609C62.518 34.923 62.979 37.1132 63.8495 39.1292ZM96.3282 49.9316L96.1026 50.1592C95.1146 51.1476 93.5065 51.1472 92.5186 50.1594L88.3074 45.9483C89.0358 45.4268 89.7287 44.8455 90.3747 44.1995C91.0208 43.5535 91.6018 42.8598 92.1202 42.1306L96.3327 46.3431C96.8115 46.8217 97.0751 47.4582 97.0751 48.1352C97.0751 48.8119 96.8115 49.4484 96.3282 49.9316Z" fill="black"/>
<path d="M59.1235 74.8417C59.9321 74.8417 60.5873 74.1865 60.5873 73.3779C60.5873 72.5693 59.9321 71.9141 59.1235 71.9141H55.2919C54.4833 71.9141 53.8281 72.5693 53.8281 73.3779V82.8311C53.8281 83.6397 54.4833 84.2949 55.2919 84.2949C56.1006 84.2949 56.7558 83.6397 56.7558 82.8311V79.4789H58.819C59.6276 79.4789 60.2828 78.8237 60.2828 78.0151C60.2828 77.2065 59.6276 76.5513 58.819 76.5513H56.7558V74.8417H59.1235Z" fill="black"/>
<path d="M45.6394 84.3296C49.0722 84.3296 51.8648 81.5368 51.8648 78.1043C51.8648 74.6717 49.072 71.8789 45.6394 71.8789C42.2068 71.8789 39.4141 74.6717 39.4141 78.1043C39.4141 81.5368 42.2068 84.3296 45.6394 84.3296ZM45.6394 74.8067C47.4577 74.8067 48.9371 76.286 48.9371 78.1044C48.9371 79.9229 47.4577 81.4021 45.6394 81.4021C43.8211 81.4021 42.3417 79.9229 42.3417 78.1044C42.3417 76.286 43.8209 74.8067 45.6394 74.8067Z" fill="black"/>
<path d="M72.5908 68.6845C73.3994 68.6845 74.0546 68.0293 74.0546 67.2207V63.8684H76.1178C76.9264 63.8684 77.5816 63.2132 77.5816 62.4045C77.5816 61.5959 76.9264 60.9407 76.1178 60.9407H74.0546V59.2314H76.4223C77.2309 59.2314 77.8861 58.5761 77.8861 57.7675C77.8861 56.9589 77.2309 56.3037 76.4223 56.3037H72.5908C71.7822 56.3037 71.127 56.9589 71.127 57.7675V67.2207C71.127 68.0293 71.7824 68.6845 72.5908 68.6845Z" fill="black"/>
<path d="M38.0643 68.2225C38.3536 68.5514 38.7578 68.7192 39.1637 68.7192C39.5073 68.7192 39.8521 68.599 40.1303 68.3543C40.7371 67.8203 40.796 66.8951 40.262 66.2883L38.111 63.8443C39.5865 63.2508 40.627 61.8447 40.627 60.2074C40.627 58.0355 38.7972 56.2686 36.5482 56.2686H34.0177C34.0171 56.2686 34.0166 56.2686 34.0162 56.2686C34.0156 56.2686 34.0152 56.2686 34.0146 56.2686C33.206 56.2686 32.5508 56.9238 32.5508 57.7324V67.2552C32.5508 68.0638 33.206 68.7191 34.0146 68.7191C34.8232 68.7191 35.4784 68.0638 35.4784 67.2552V65.2841L38.0643 68.2225ZM36.548 59.1964C37.172 59.1964 37.6991 59.6593 37.6991 60.2076C37.6991 60.7557 37.172 61.2186 36.548 61.2186C36.2943 61.2186 35.8963 61.2202 35.4909 61.2219C35.489 60.8312 35.4876 60.4504 35.4876 60.2078C35.4876 59.9992 35.4868 59.6078 35.4856 59.1966H36.548V59.1964Z" fill="black"/>
<path d="M23.5783 68.7195C24.3869 68.7195 25.0421 68.0643 25.0421 67.2557V64.5753C25.4935 64.5732 25.9475 64.5714 26.2299 64.5714C28.5478 64.5714 30.4336 62.7092 30.4336 60.42C30.4336 58.131 28.5478 56.2688 26.2299 56.2688H23.5783C22.7892 56.254 22.1016 56.947 22.1144 57.7326V67.2555C22.1144 68.0643 22.7698 68.7195 23.5783 68.7195ZM26.2299 59.1966C26.9216 59.1966 27.506 59.757 27.506 60.4202C27.506 61.0834 26.9216 61.6439 26.2299 61.6439C25.9495 61.6439 25.5011 61.6457 25.0528 61.6478C25.0505 61.1806 25.0487 60.71 25.0487 60.4204C25.0487 60.1725 25.0475 59.6877 25.0464 59.1968H26.2299V59.1966Z" fill="black"/>
<path d="M48.5427 68.7191C51.9753 68.7191 54.7681 65.9263 54.7681 62.4937C54.7681 59.0611 51.9753 56.2686 48.5427 56.2686C45.1102 56.2686 42.3174 59.0613 42.3174 62.4939C42.3174 65.9265 45.1102 68.7191 48.5427 68.7191ZM48.5427 59.1962C50.361 59.1962 51.8404 60.6754 51.8404 62.4939C51.8404 64.3124 50.3612 65.7916 48.5427 65.7916C46.7243 65.7916 45.245 64.3124 45.245 62.4939C45.245 60.6754 46.7243 59.1962 48.5427 59.1962Z" fill="black"/>
<path d="M62.7195 56.2686C59.2869 56.2686 56.4941 59.0613 56.4941 62.4939C56.4941 65.9265 59.2869 68.7193 62.7195 68.7193C66.1521 68.7193 68.9448 65.9265 68.9448 62.4939C68.9448 59.0613 66.1521 56.2686 62.7195 56.2686ZM62.7195 65.7914C60.9012 65.7914 59.4218 64.3122 59.4218 62.4937C59.4218 60.6753 60.901 59.196 62.7195 59.196C64.5379 59.196 66.0172 60.6753 66.0172 62.4937C66.0172 64.3122 64.5379 65.7914 62.7195 65.7914Z" fill="black"/>
<path d="M45.1659 87.4893C44.3573 87.4971 43.7083 88.1589 43.7161 88.9671L43.7637 93.8784L39.8003 88.139C39.4365 87.6118 38.7723 87.3829 38.16 87.5734C37.5485 87.7641 37.1318 88.3303 37.1318 88.9708V98.4761C37.1318 99.2847 37.787 99.94 38.5957 99.94C39.4043 99.94 40.0595 99.2847 40.0595 98.4761V93.6666L43.8184 99.1099C44.2376 99.7157 44.9414 99.9714 45.6113 99.7627C46.2926 99.55 46.7328 98.919 46.7328 98.141L46.6438 88.939C46.6358 88.1304 45.9751 87.4893 45.1659 87.4893Z" fill="black"/>
<path d="M66.3753 90.4608C67.1839 90.4608 67.8391 89.8056 67.8391 88.997C67.8391 88.1884 67.1839 87.5332 66.3753 87.5332H62.3994C61.5908 87.5332 60.9355 88.1884 60.9355 88.997V98.433C60.9355 99.2416 61.5908 99.8968 62.3994 99.8968H66.3753C67.1839 99.8968 67.8391 99.2416 67.8391 98.433C67.8391 97.6244 67.1839 96.9692 66.3753 96.9692H63.8632V95.1788H66.0822C66.8908 95.1788 67.546 94.5236 67.546 93.715C67.546 92.9064 66.8908 92.2512 66.0822 92.2512H63.8632V90.4608H66.3753Z" fill="black"/>
<path d="M20.9626 96.0093C20.3426 95.4901 19.4196 95.5725 18.9006 96.1922C18.8266 96.2806 18.747 96.3628 18.6631 96.4375C18.2349 96.8189 17.6831 97.0123 17.0234 97.0123C15.2051 97.0123 13.7257 95.5329 13.7257 93.7146C13.7257 91.8963 15.2049 90.4169 17.0234 90.4169C17.6845 90.4169 18.3217 90.6113 18.8663 90.9792C19.5363 91.4314 20.446 91.2554 20.8986 90.5855C21.351 89.9155 21.175 89.0056 20.505 88.5532C19.4744 87.8572 18.2706 87.4893 17.0232 87.4893C13.5906 87.4893 10.7979 90.282 10.7979 93.7146C10.7979 97.1474 13.5906 99.94 17.0232 99.94C18.4031 99.94 19.6434 99.4848 20.6094 98.6243C20.7995 98.4554 20.9796 98.2694 21.1453 98.0715C21.6645 97.4515 21.5825 96.5283 20.9626 96.0093Z" fill="black"/>
<path d="M58.7486 96.0101C58.1291 95.4907 57.2057 95.5717 56.6865 96.1914C56.612 96.2802 56.532 96.3628 56.448 96.4375C56.0198 96.8189 55.4681 97.0123 54.8086 97.0123C52.9903 97.0123 51.5109 95.5329 51.5109 93.7146C51.5109 91.8963 52.9901 90.4169 54.8086 90.4169C55.4696 90.4169 56.1067 90.6113 56.6512 90.9792C57.3213 91.4314 58.231 91.2554 58.6836 90.5855C59.136 89.9155 58.96 89.0056 58.2899 88.5532C57.2594 87.8572 56.0555 87.4893 54.8084 87.4893C51.3758 87.4893 48.583 90.282 48.583 93.7146C48.583 97.1474 51.3758 99.94 54.8084 99.94C56.1881 99.94 57.4284 99.4848 58.3943 98.6243C58.5838 98.4558 58.764 98.2702 58.9297 98.0723C59.4491 97.4528 59.3681 96.5294 58.7486 96.0101Z" fill="black"/>
<path d="M87.7395 87.4893H82.4804C81.6718 87.4893 81.0166 88.1445 81.0166 88.9531C81.0166 89.7617 81.6718 90.4169 82.4804 90.4169H83.6355V98.4761C83.6355 99.2847 84.2907 99.94 85.0993 99.94C85.9079 99.94 86.5631 99.2847 86.5631 98.4761V90.4169H87.7395C88.5481 90.4169 89.2033 89.7617 89.2033 88.9531C89.2033 88.1445 88.5479 87.4893 87.7395 87.4893Z" fill="black"/>
<path d="M74.8909 87.4895H72.2394C71.4529 87.4741 70.7617 88.1679 70.7756 88.9533V98.4764C70.7756 99.285 71.4308 99.9402 72.2394 99.9402C73.048 99.9402 73.7032 99.285 73.7032 98.4764V95.7958C74.1547 95.7937 74.6085 95.7919 74.8909 95.7919C77.209 95.7919 79.0948 93.9297 79.0948 91.6407C79.0948 89.3517 77.209 87.4895 74.8909 87.4895ZM74.8909 92.8643C74.6104 92.8643 74.1621 92.866 73.7138 92.8682C73.7114 92.4009 73.7097 91.9304 73.7097 91.6409C73.7097 91.3928 73.7085 90.908 73.7073 90.4172H74.8907C75.5826 90.4172 76.167 90.9775 76.167 91.6409C76.1672 92.3039 75.5828 92.8643 74.8909 92.8643Z" fill="black"/>
<path d="M28.7195 87.4893C25.2869 87.4893 22.4941 90.282 22.4941 93.7146C22.4941 97.1474 25.2869 99.94 28.7195 99.94C32.1522 99.94 34.9448 97.1472 34.9448 93.7146C34.945 90.282 32.1522 87.4893 28.7195 87.4893ZM28.7195 97.0123C26.9012 97.0123 25.4218 95.5329 25.4218 93.7146C25.4218 91.8963 26.901 90.4169 28.7195 90.4169C30.5379 90.4169 32.0172 91.8961 32.0172 93.7146C32.0172 95.5331 30.5379 97.0123 28.7195 97.0123Z" fill="black"/>
</g>
<defs>
<clipPath id="clip0_470_307">
<rect width="100" height="100" fill="white"/>
</clipPath>
</defs>
</svg>
