<svg width="100" height="100" viewBox="0 0 100 100" fill="none" xmlns="http://www.w3.org/2000/svg">
<path d="M27.0835 73.6965L21.5514 79.2287L19.069 76.832C18.4872 76.2701 17.5595 76.2865 16.9979 76.8686C16.436 77.4504 16.4522 78.3779 17.0345 78.9396L20.5522 82.3361C20.8362 82.6103 21.203 82.7471 21.5696 82.7471C21.9448 82.7471 22.3196 82.6039 22.6055 82.3182L29.1555 75.7682C29.7276 75.1959 29.7276 74.2686 29.1555 73.6965C28.5831 73.1246 27.6557 73.1246 27.0835 73.6965Z" fill="black"/>
<path d="M87.3055 67.0057H81.7787V5.91895C81.7789 2.65527 79.1236 0 75.86 0H24.14C20.8764 0 18.2211 2.65527 18.2211 5.91895V11.824C18.2211 12.6332 18.8768 13.2889 19.6859 13.2889C20.4951 13.2889 21.1508 12.6332 21.1508 11.824V5.91895C21.1508 4.2707 22.4916 2.92969 24.14 2.92969H35.2127L37.5588 7.34844C38.2996 8.74414 39.7416 9.61113 41.3219 9.61113H57.7848C59.3648 9.61113 60.8068 8.74414 61.5477 7.34863L63.8939 2.92969H75.86C77.5082 2.92969 78.8492 4.27051 78.8492 5.91895V67.0059H66.523C64.1137 67.0059 62.1537 68.9658 62.1537 71.375V84.6391C62.1537 87.0482 64.1137 89.0082 66.523 89.0082H78.8492V94.0813C78.8492 95.7295 77.5084 97.0705 75.86 97.0705H24.14C22.4918 97.0705 21.1508 95.7297 21.1508 94.0813V89.0082H26.4254C27.2346 89.0082 27.8902 88.3525 27.8902 87.5434C27.8902 86.7342 27.2346 86.0785 26.4254 86.0785H12.6945C11.9008 86.0785 11.2549 85.4326 11.2549 84.6391V71.375C11.2549 70.5814 11.9008 69.9355 12.6945 69.9355H33.4771C34.2707 69.9355 34.9166 70.5814 34.9166 71.375V84.6391C34.9166 85.4326 34.2707 86.0785 33.4771 86.0785H32.2824C31.4732 86.0785 30.8176 86.7342 30.8176 87.5434C30.8176 88.3525 31.4732 89.0082 32.2824 89.0082H33.4771C35.8863 89.0082 37.8463 87.0482 37.8463 84.6391V71.375C37.8463 68.9658 35.8863 67.0059 33.4771 67.0059H21.151V17.6809C21.151 16.8717 20.4953 16.216 19.6861 16.216C18.877 16.216 18.2213 16.8717 18.2213 17.6809V67.0057H12.6945C10.2854 67.0057 8.3252 68.9656 8.3252 71.3748V84.6389C8.3252 87.048 10.2854 89.008 12.6945 89.008H18.2213V94.0811C18.2213 97.3447 20.8766 100 24.1402 100H75.8602C79.1238 100 81.7791 97.3447 81.7791 94.0811V89.008H87.3059C89.715 89.008 91.6752 87.048 91.6752 84.6389V71.3748C91.6748 68.9656 89.7147 67.0057 87.3055 67.0057ZM58.96 5.9748C58.7283 6.41055 58.2781 6.68145 57.7846 6.68145H41.3217C40.8281 6.68145 40.3777 6.41055 40.1461 5.9748L38.5297 2.92969H60.577L58.96 5.9748ZM88.7451 84.6391C88.7451 85.4326 88.0992 86.0785 87.3055 86.0785H66.5229C65.7291 86.0785 65.0832 85.4326 65.0832 84.6391V71.375C65.0832 70.5814 65.7291 69.9355 66.5229 69.9355H87.3055C88.0992 69.9355 88.7451 70.5814 88.7451 71.375V84.6391Z" fill="black"/>
<path d="M81.6167 73.3049C81.0447 72.7332 80.1173 72.7328 79.545 73.3049L76.9146 75.9353L74.2839 73.3049C73.7116 72.733 72.7843 72.733 72.2122 73.3049C71.6402 73.8771 71.6402 74.8045 72.2124 75.3766L74.8429 78.007L72.2124 80.6375C71.6402 81.2098 71.6402 82.1371 72.2122 82.7092C72.4984 82.9951 72.8732 83.1381 73.2482 83.1381C73.623 83.1381 73.998 82.9951 74.2841 82.7092L76.9148 80.0787L79.5452 82.7092C79.8314 82.9951 80.2064 83.1381 80.5812 83.1381C80.956 83.1381 81.331 82.9951 81.6171 82.7092C82.1892 82.1369 82.1892 81.2096 81.6171 80.6375L78.9866 78.007L81.6171 75.3766C82.1888 74.8045 82.1888 73.8771 81.6167 73.3049Z" fill="black"/>
<path d="M42.793 48.1719H57.2078C58.017 48.1719 58.6727 47.5162 58.6727 46.707C58.6727 45.8979 58.017 45.2422 57.2078 45.2422H42.793C41.9838 45.2422 41.3281 45.8979 41.3281 46.707C41.3281 47.5162 41.984 48.1719 42.793 48.1719Z" fill="black"/>
<path d="M31.0996 53.1299C31.0996 53.9391 31.7553 54.5947 32.5645 54.5947H67.4346C68.2438 54.5947 68.8994 53.9391 68.8994 53.1299C68.8994 52.3207 68.2438 51.665 67.4346 51.665H32.5645C31.7553 51.665 31.0996 52.3209 31.0996 53.1299Z" fill="black"/>
<path d="M32.5645 61.0166H67.4346C68.2438 61.0166 68.8994 60.3609 68.8994 59.5518C68.8994 58.7426 68.2438 58.0869 67.4346 58.0869H32.5645C31.7553 58.0869 31.0996 58.7426 31.0996 59.5518C31.0996 60.3609 31.7553 61.0166 32.5645 61.0166Z" fill="black"/>
<path d="M45.4074 32.3127C44.7736 32.3127 44.2578 31.7969 44.2578 31.1631C44.2578 30.3539 43.6021 29.6982 42.793 29.6982C41.9838 29.6982 41.3281 30.3539 41.3281 31.1631C41.3281 33.4125 43.158 35.2424 45.4074 35.2424H48.5355V35.9984H46.4244C45.6152 35.9984 44.9596 36.6541 44.9596 37.4633C44.9596 38.2725 45.6152 38.9281 46.4244 38.9281H53.5764C54.3855 38.9281 55.0412 38.2725 55.0412 37.4633C55.0412 36.6541 54.3855 35.9984 53.5764 35.9984H51.4652V35.2424H54.5936C56.843 35.2424 58.6729 33.4125 58.6729 31.1631C58.6729 30.3539 58.0172 29.6982 57.208 29.6982C56.3988 29.6982 55.7432 30.3539 55.7432 31.1631C55.7432 31.7969 55.2273 32.3127 54.5936 32.3127H51.4652V31.3826C54.2307 30.7205 56.2934 28.2293 56.2934 25.2639V19.2537C56.2934 15.7838 53.4703 12.9609 50.0004 12.9609C46.5305 12.9609 43.7076 15.7838 43.7076 19.2537V19.3307C43.7076 20.1398 44.3633 20.7955 45.1725 20.7955C45.9816 20.7955 46.6373 20.1398 46.6373 19.3307V19.2537C46.6373 17.3994 48.1461 15.8906 50.0004 15.8906C51.8549 15.8906 53.3637 17.3994 53.3637 19.2537V25.2639C53.3637 27.1182 51.8549 28.627 50.0004 28.627C48.1461 28.627 46.6373 27.1182 46.6373 25.2639V25.1871C46.6373 24.3779 45.9816 23.7223 45.1725 23.7223C44.3633 23.7223 43.7076 24.3779 43.7076 25.1871V25.2639C43.7076 28.2293 45.7701 30.7205 48.5355 31.3826V32.3127H45.4074Z" fill="black"/>
</svg>
