<svg width="100" height="100" viewBox="0 0 100 100" fill="none" xmlns="http://www.w3.org/2000/svg">
<path d="M58.033 8.04C57.3937 7.91038 56.7047 8.09611 56.2131 8.59233L16.5793 48.594C15.8072 49.3732 15.8069 50.6288 16.5784 51.4085L28.7846 63.7423C29.1603 64.122 29.6722 64.3355 30.2063 64.3355C30.7404 64.3355 31.2523 64.1218 31.6279 63.7422L83.3689 11.4467C83.9365 10.873 84.1037 10.0144 83.7929 9.26971C83.4821 8.52498 82.7542 8.04 81.9472 8.04H58.033ZM34.9123 67.0241C34.1396 67.8031 34.139 69.0593 34.9108 69.8393L56.2551 91.4068C56.6308 91.7864 57.1427 92 57.6767 92H82C82.8068 92 83.5346 91.5152 83.8455 90.7707C84.1564 90.0263 83.9896 89.1679 83.4224 88.594L63.5016 68.44L83.4216 48.3117C83.9892 47.7381 84.1565 46.8795 83.8458 46.1347C83.535 45.3899 82.807 44.9049 82 44.9049H57.6833C57.1493 44.9049 56.6374 45.1184 56.2618 45.498L56.26 45.4998L56.2585 45.5013L34.9123 67.0241Z" stroke="black" stroke-width="4" stroke-linejoin="round"/>
</svg>
