<svg width="100" height="100" viewBox="0 0 100 100" fill="none" xmlns="http://www.w3.org/2000/svg">
<g clip-path="url(#clip0_109_995)">
<path d="M92.3375 49.9835C92.3363 73.3356 73.3531 92.3345 49.9844 92.3345C26.615 92.3345 7.64688 73.35 7.64688 49.997C7.64688 26.6431 26.6658 7.64385 50 7.64385C56.0679 7.64385 61.9244 8.89831 67.4015 11.3854C68.3282 9.48 69.5986 7.77647 71.1494 6.34212C64.5691 3.14377 57.3352 1.48573 50.0029 1.50009L50 1.5001C23.2566 1.5001 1.5 23.2566 1.5 50.0001C1.5 76.7589 23.2562 98.5001 50 98.5001C76.7591 98.5001 98.5 76.7592 98.5 50.0001C98.5 43.4061 97.2107 37.0294 94.6326 31.0034C93.1257 32.4875 91.3487 33.6766 89.406 34.5083C91.3449 39.4345 92.3526 44.6837 92.3375 49.9835ZM92.3375 49.9835C92.3375 49.9843 92.3375 49.985 92.3375 49.9857L90.8375 49.9813H92.3375C92.3375 49.9821 92.3375 49.9828 92.3375 49.9835ZM28.7125 50.0001C28.7281 38.2442 38.2441 28.7282 50 28.7126C61.7559 28.7282 71.2719 38.2441 71.2875 50.0001C71.2719 61.756 61.7559 71.272 50 71.2876C38.2441 71.272 28.7281 61.756 28.7125 50.0001ZM91.6 18.847C91.6 23.7645 87.6193 27.7345 82.7156 27.7345C77.7942 27.7345 73.8125 23.7625 73.8125 18.847C73.8125 15.7918 74.9439 13.6105 76.5568 12.1778C78.1973 10.7204 80.4272 9.95947 82.7063 9.95947C84.9853 9.95947 87.2152 10.7204 88.8557 12.1778C90.4686 13.6105 91.6 15.7918 91.6 18.847Z" stroke="black" stroke-width="3" stroke-linejoin="round"/>
</g>
<defs>
<clipPath id="clip0_109_995">
<rect width="100" height="100" fill="white"/>
</clipPath>
</defs>
</svg>
