<svg width="100" height="113" viewBox="0 0 100 113" fill="none" xmlns="http://www.w3.org/2000/svg">
<g clip-path="url(#clip0_109_997)">
<path d="M50.001 112.123C36.6776 112.123 26.2383 87.4956 26.2383 56.0617C26.2383 24.6277 36.6776 0 50.001 0C63.3244 0 73.7615 24.6255 73.7615 56.0617C73.7615 87.4956 63.3244 112.123 50.001 112.123ZM50.001 3.50385C39.0208 3.50385 29.7421 27.5709 29.7421 56.0617C29.7421 84.5524 39.023 108.619 50.001 108.619C60.979 108.619 70.2576 84.5524 70.2576 56.0617C70.2576 27.5709 60.9812 3.50385 50.001 3.50385Z" fill="black"/>
<path d="M17.7598 91.7158C10.1389 91.7158 4.73201 89.447 2.12821 85.1526C-4.78314 73.752 10.8265 52.0412 37.6704 35.7286C53.4553 26.1346 70.1183 20.4102 82.2438 20.4102C89.8647 20.4102 95.2672 22.6789 97.871 26.9711C104.787 38.374 89.1727 60.0825 62.3332 76.3974C46.5483 85.9892 29.8853 91.7158 17.7598 91.7158ZM82.2438 23.9118C70.7293 23.9118 54.7473 29.4479 39.4902 38.72C15.1604 53.5041 -0.57414 73.9359 5.12619 83.335C7.57013 87.3666 13.3449 88.2097 17.7598 88.2097C29.2699 88.2097 45.2519 82.6736 60.5134 73.4016C84.8389 58.6197 100.576 38.1856 94.873 28.7866C92.4313 24.7593 86.6587 23.9118 82.2438 23.9118Z" fill="black"/>
<path d="M82.1454 91.0059C70.1184 91.0059 53.6591 85.6407 38.1173 76.662C10.9252 60.9429 -5.15969 39.5825 1.50201 28.0307C4.11238 23.5064 9.76673 21.1172 17.8584 21.1172C29.8854 21.1172 46.3448 26.4803 61.8822 35.4611C89.0765 51.1803 105.159 72.5406 98.4975 84.0902C95.8915 88.6124 90.2349 91.0037 82.1476 91.0037L82.1454 91.0059ZM17.8584 24.621C13.1414 24.621 6.99868 25.5167 4.53722 29.7805C-0.955069 39.3044 15.2284 59.3815 39.8692 73.6268C54.9007 82.3142 70.7075 87.5021 82.1454 87.5021C86.8625 87.5021 93.003 86.6042 95.4644 82.3405C100.957 72.8166 84.7733 52.7395 60.1324 38.4941C45.1009 29.8067 29.3007 24.621 17.8606 24.621H17.8584Z" fill="black"/>
<path d="M50.003 65.292C44.918 65.292 40.7812 61.1531 40.7812 56.0615C40.7812 50.97 44.918 46.8311 50.003 46.8311C55.0879 46.8311 59.2247 50.97 59.2247 56.0615C59.2247 61.1531 55.0857 65.292 50.003 65.292ZM50.003 50.3349C46.8473 50.3349 44.2851 52.9037 44.2851 56.0615C44.2851 59.2194 46.8473 61.7881 50.003 61.7881C53.1586 61.7881 55.7208 59.2172 55.7208 56.0615C55.7208 52.9059 53.1542 50.3349 50.003 50.3349Z" fill="black"/>
</g>
<defs>
<clipPath id="clip0_109_997">
<rect width="100" height="112.123" fill="white"/>
</clipPath>
</defs>
</svg>
