<svg width="100" height="100" viewBox="0 0 100 100" fill="none" xmlns="http://www.w3.org/2000/svg">
<g clip-path="url(#clip0_109_993)">
<path d="M29.0914 25.5074L29.0232 25.5141L28.9558 25.527C28.0936 25.6921 27.5083 26.2999 27.2242 26.9081C26.9403 27.516 26.8492 28.3562 27.2787 29.124C27.2789 29.1242 27.279 29.1245 27.2792 29.1248L38.9524 49.9996L27.2862 70.83C27.2847 70.8325 27.2833 70.8351 27.2818 70.8376C26.7913 71.7018 26.9722 72.6382 27.3331 73.2575C27.6945 73.8777 28.4234 74.4997 29.4246 74.4919H36.7088H36.7436L36.7784 74.4902C37.2007 74.4706 37.6108 74.3426 37.9692 74.1186C38.3249 73.8963 38.6179 73.5869 38.8204 73.2197C38.822 73.2168 38.8236 73.2139 38.8251 73.211L49.9977 53.3038L61.1451 73.22C61.146 73.2216 61.1468 73.2232 61.1477 73.2248C61.3579 73.6042 61.6644 73.9214 62.0363 74.1446C62.4098 74.3687 62.836 74.4899 63.2715 74.4959L63.2818 74.496H63.2921H70.5771C71.5761 74.5035 72.3044 73.8814 72.6657 73.2652C73.0273 72.6486 73.2148 71.7081 72.7174 70.8388L61.0485 49.9997L72.7222 29.124L72.7317 29.1069L72.7407 29.0897C73.1918 28.2315 73.0019 27.3223 72.6419 26.7177C72.2816 26.1127 71.5727 25.5128 70.6031 25.5003L70.5935 25.5002H70.5838L63.288 25.5002L63.2803 25.5002C62.8533 25.5024 62.4342 25.6156 62.0642 25.8286C61.6941 26.0417 61.3858 26.3473 61.1696 26.7155L61.1617 26.7289L61.1541 26.7424L49.999 46.6657L38.8169 26.7411L38.8107 26.7301L38.8044 26.7193C38.594 26.3586 38.2952 26.0575 37.9361 25.8443C37.5771 25.6311 37.1696 25.5129 36.7522 25.5008L36.7305 25.5002H36.7088H29.4731C29.3459 25.4925 29.2183 25.4949 29.0914 25.5074ZM25.7483 7.87536C26.6971 7.32696 27.7702 7.03005 28.8658 7.0127L71.135 7.01686C72.2306 7.03419 73.3038 7.3311 74.2526 7.87952C75.2014 8.42794 75.9944 9.20962 76.5563 10.1504L97.69 46.8627C98.2219 47.8243 98.5009 48.9053 98.5009 50.0044C98.5009 51.1034 98.2219 52.1844 97.69 53.146L76.5562 89.8585C75.9943 90.7992 75.2014 91.5808 74.2526 92.1292C73.3038 92.6776 72.2307 92.9745 71.1351 92.9919H28.8569C26.6926 92.9885 24.5422 91.741 23.4487 89.8655C23.4481 89.8644 23.4474 89.8633 23.4468 89.8622L2.31071 53.1458C1.77898 52.1842 1.5 51.1033 1.5 50.0044C1.5 48.9054 1.77897 47.8246 2.31069 46.863L23.4447 10.146C24.0066 9.20535 24.7995 8.42374 25.7483 7.87536Z" stroke="black" stroke-width="3"/>
</g>
<defs>
<clipPath id="clip0_109_993">
<rect width="100" height="100" fill="white"/>
</clipPath>
</defs>
</svg>
