<svg width="100" height="100" viewBox="0 0 100 100" fill="none" xmlns="http://www.w3.org/2000/svg">
<path d="M87.9991 15.2267C89.984 15.2267 91.59 13.6207 91.59 11.6358C91.59 9.65098 89.984 8.04492 87.9991 8.04492C86.0143 8.04492 84.4082 9.65098 84.4082 11.6358C84.4082 13.6207 86.0294 15.2267 87.9991 15.2267ZM87.9991 10.6055C88.5749 10.6055 89.0446 11.0752 89.0446 11.651C89.0446 12.2267 88.5749 12.6964 87.9991 12.6964C87.4082 12.6964 86.9537 12.2419 86.9537 11.651C86.9537 11.0601 87.4234 10.6055 87.9991 10.6055Z" fill="black"/>
<path d="M91.9844 2.24219H18.1663C15.3632 2.24219 13.0753 4.53007 13.0753 7.3331V15.1058H8.01474C5.21171 15.1058 2.92383 17.3937 2.92383 20.1967V84.0301C2.92383 86.8331 5.21171 89.121 8.01474 89.121H41.8481V96.4846C41.8481 97.1816 42.4238 97.7573 43.1208 97.7573H67.0299C67.7269 97.7573 68.3026 97.1816 68.3026 96.4846V89.121H81.8329C84.6359 89.121 86.9238 86.8331 86.9238 84.0301V76.2573H91.9844C94.7875 76.2573 97.0753 73.9695 97.0753 71.1664V7.3331C97.0753 4.53007 94.7875 2.24219 91.9844 2.24219ZM15.6208 7.3331C15.6208 5.92401 16.7723 4.78764 18.1663 4.78764H91.9844C93.3935 4.78764 94.5299 5.93916 94.5299 7.3331V18.4998H46.2269L40.545 12.6058C40.1056 12.1513 39.4996 11.8937 38.8784 11.8937H26.3632C25.0905 11.8937 24.045 12.9392 24.045 14.2119V18.4998H15.6208V7.3331ZM8.01474 86.5907C6.60565 86.5907 5.46928 85.4392 5.46928 84.0452V20.1967C5.46928 18.7876 6.6208 17.6513 8.01474 17.6513H13.0753V71.1816C13.0753 73.9846 15.3632 76.2725 18.1663 76.2725H45.8026C46.3026 77.2422 46.5299 78.3331 46.439 79.4543H44.4693C43.0147 79.4543 41.8481 80.6361 41.8481 82.0755V86.5907H8.01474ZM53.8178 59.9392C54.0753 59.4846 54.545 59.1967 55.0753 59.1967C55.8632 59.1967 56.4996 59.8331 56.4996 60.621C56.4996 61.1361 56.2269 61.6058 55.7875 61.8634C55.3026 62.1513 54.7269 62.121 54.1359 61.7876C54.0602 61.7422 53.9844 61.6816 53.9541 61.6058C53.4693 60.8331 53.6663 60.227 53.8178 59.9392ZM53.8026 56.8937C52.8784 57.2119 52.0905 57.8331 51.6056 58.7119C50.8784 60.0149 50.9693 61.6058 51.8178 62.9695C52.0905 63.3937 52.4541 63.7422 52.8935 63.9998C53.5905 64.3937 54.3481 64.6058 55.0905 64.6058C55.7875 64.6058 56.4693 64.424 57.0753 64.0755C58.2875 63.3634 59.045 62.0452 59.045 60.6361C59.045 58.8937 57.9087 57.424 56.3481 56.8937V50.3483L67.6056 70.6664C67.5905 70.6816 67.5753 70.7119 67.5299 70.727C63.545 71.7573 60.939 75.4846 61.1511 79.4543H49.0147C49.242 75.4695 46.6208 71.7422 42.5602 70.6058L53.8026 50.3483V56.8937ZM65.7572 95.2119H44.3935L44.4693 81.9846H65.6814C65.7269 81.9846 65.7572 82.0149 65.7572 82.0604V95.2119ZM84.3784 84.0301C84.3784 85.4392 83.2269 86.5755 81.8329 86.5755H68.3026V82.0604C68.3026 80.6058 67.1208 79.4392 65.6814 79.4392H63.7117C63.6208 78.318 63.8632 77.227 64.3481 76.2573H84.3784V84.0301ZM91.9844 73.727H66.8178C67.2269 73.4998 67.6663 73.3028 68.1511 73.1816C68.9541 72.9695 69.6056 72.4089 69.939 71.6513C70.2572 70.9089 70.2117 70.0755 69.8178 69.3634L56.7875 45.8937C56.4541 45.2725 55.8026 44.8786 55.0905 44.8786C54.3632 44.8937 53.7117 45.2573 53.3632 45.8786L40.3178 69.3634C39.9238 70.0755 39.8935 70.924 40.2117 71.6664C40.5299 72.424 41.1814 72.9695 41.9844 73.1816C42.4693 73.3028 42.8935 73.4998 43.3178 73.727H18.1663C16.7572 73.727 15.6208 72.5755 15.6208 71.1816V21.0452H24.2572C25.5299 21.0452 26.5753 19.9998 26.5753 18.727V14.4392H38.7723L44.4541 20.3331C44.8935 20.7876 45.4996 21.0452 46.1208 21.0452H94.5299V71.1664C94.5299 72.5755 93.3935 73.727 91.9844 73.727Z" fill="black"/>
<path d="M79.3331 15.2267C81.3179 15.2267 82.924 13.6207 82.924 11.6358C82.924 9.65098 81.3179 8.04492 79.3331 8.04492C77.3482 8.04492 75.7422 9.65098 75.7422 11.6358C75.7422 13.6207 77.3482 15.2267 79.3331 15.2267ZM79.3331 10.6055C79.9089 10.6055 80.3785 11.0752 80.3785 11.651C80.3785 12.2267 79.9089 12.6964 79.3331 12.6964C78.7422 12.6964 78.2876 12.2419 78.2876 11.651C78.2876 11.0601 78.7573 10.6055 79.3331 10.6055Z" fill="black"/>
<path d="M70.6515 15.2267C72.6363 15.2267 74.2424 13.6207 74.2424 11.6358C74.2424 9.65098 72.6363 8.04492 70.6515 8.04492C68.6666 8.04492 67.0605 9.65098 67.0605 11.6358C67.0605 13.6207 68.6666 15.2267 70.6515 15.2267ZM70.6515 10.6055C71.2272 10.6055 71.6969 11.0752 71.6969 11.651C71.6969 12.2267 71.2272 12.6964 70.6515 12.6964C70.0606 12.6964 69.606 12.2419 69.606 11.651C69.606 11.0601 70.0757 10.6055 70.6515 10.6055Z" fill="black"/>
<path d="M79.6056 32.1365C78.8632 32.8789 78.3935 33.8183 78.2117 34.8183H60.4086V32.8183C60.4086 31.4547 59.3026 30.3486 57.9389 30.3486H52.1965C50.8329 30.3486 49.7268 31.4547 49.7268 32.8183V34.8183H31.9389C31.7723 33.8335 31.3026 32.8941 30.545 32.1214C28.6207 30.2274 25.3329 30.2577 23.4541 32.1365C22.4995 33.0911 21.9844 34.3486 21.9844 35.682C21.9844 37.0304 22.5147 38.3032 23.4541 39.2274C24.4086 40.2123 25.6813 40.7123 26.9995 40.7123C27.8329 40.7123 28.6813 40.5153 29.4844 40.1062C30.348 39.6668 31.0601 38.9395 31.4844 38.0456C31.5904 37.8183 31.6813 37.5911 31.7571 37.3638H44.1056C37.3935 40.6365 32.3329 46.788 30.5753 54.2123H28.6056C27.2419 54.2123 26.1359 55.3183 26.1359 56.682V62.4244C26.1359 63.788 27.2419 64.8941 28.6056 64.8941H34.348C35.7116 64.8941 36.8177 63.788 36.8177 62.4244V56.682C36.8177 55.3183 35.7116 54.2123 34.348 54.2123H33.1965C35.3177 46.2123 41.7268 39.9395 49.7723 38.0001V38.5456C49.7723 39.9092 50.8783 41.0153 52.242 41.0153H57.9844C59.348 41.0153 60.4541 39.9092 60.4541 38.5456V38.0001C68.4844 39.9395 74.8935 46.2123 77.0298 54.2123H75.9844C74.6207 54.2123 73.5147 55.3183 73.5147 56.682V62.4244C73.5147 63.788 74.6207 64.8941 75.9844 64.8941H81.7268C83.0904 64.8941 84.1965 63.788 84.1965 62.4244V56.682C84.1965 55.3183 83.0904 54.2123 81.7268 54.2123H79.651C77.8783 46.788 72.8177 40.6214 66.1207 37.3638H78.4995C78.742 38.0608 79.1359 38.6971 79.6662 39.2274C80.6207 40.2123 81.8935 40.7123 83.2116 40.7123C84.045 40.7123 84.8935 40.5153 85.6965 40.1062C86.5601 39.6668 87.2723 38.9395 87.6965 38.0456C88.6814 35.9698 88.3329 33.7123 86.7723 32.1214C84.7874 30.2426 81.4995 30.2577 79.6056 32.1365ZM29.1662 36.9698C28.9844 37.3335 28.6813 37.6517 28.3177 37.8335C26.9995 38.5001 25.8632 38.0759 25.242 37.4244C24.7723 36.9698 24.5147 36.3486 24.5147 35.682C24.5147 35.0304 24.7723 34.4092 25.242 33.9244C25.7116 33.4547 26.3329 33.1971 26.9995 33.1971C27.651 33.1971 28.2874 33.4547 28.742 33.9092C29.5298 34.7274 29.6813 35.8638 29.1662 36.9698ZM34.3177 62.3486L28.651 62.4244L28.5753 56.7577H34.242L34.3177 62.3486ZM81.6814 62.3486L76.0147 62.4244L75.9389 56.7577H81.6056L81.6814 62.3486ZM52.2874 38.5608L52.2571 36.6517C52.2874 36.5153 52.2874 36.3789 52.2723 36.2274V36.2123C52.2723 36.1668 52.3026 36.1365 52.3026 36.0911C52.3026 36.0153 52.2723 35.9547 52.2571 35.8941L52.2116 32.9092H57.8783L57.9238 35.8941C57.9086 35.9698 57.8783 36.0304 57.8783 36.1062C57.8783 36.1517 57.8935 36.182 57.9086 36.2274V36.2426C57.8783 36.4395 57.8935 36.6214 57.9389 36.788L57.9692 38.5001L52.2874 38.5608ZM85.3329 36.9698C85.151 37.3335 84.848 37.6517 84.4844 37.8335C83.1662 38.5001 82.0298 38.0759 81.4086 37.4244C80.9389 36.9698 80.6813 36.3486 80.6813 35.682C80.6813 35.0304 80.9389 34.4092 81.4086 33.9244C81.8783 33.4547 82.4995 33.1971 83.1662 33.1971C83.8177 33.1971 84.4541 33.4547 84.9086 33.9092C85.6965 34.7274 85.848 35.8638 85.3329 36.9698Z" fill="black"/>
</svg>
