<svg width="100" height="100" viewBox="0 0 100 100" fill="none" xmlns="http://www.w3.org/2000/svg">
<path d="M79.6665 65.556H69.3331C68.7109 65.556 68.222 65.0671 68.222 64.4449C68.222 63.8227 68.7109 63.3338 69.3331 63.3338H79.6442C88.1109 63.3338 94.9998 56.4449 94.9998 47.9783C94.9998 39.5116 88.1109 32.6227 79.6442 32.6227C78.7998 32.6227 77.9331 32.6894 77.1109 32.8227C76.7109 32.8894 76.3109 32.7338 76.0442 32.4005C75.7998 32.0894 75.7331 31.6449 75.8887 31.2671C76.9553 28.756 77.5109 26.0894 77.5109 23.356C77.5109 12.2671 68.4887 3.24492 57.3998 3.24492C47.422 3.24492 39.0664 10.4005 37.5331 20.2449C37.4887 20.556 37.2887 20.8449 37.022 21.0227C36.7553 21.2005 36.422 21.2449 36.1109 21.1338C34.6442 20.6671 33.1109 20.4449 31.5553 20.4449C24.3998 20.4449 18.0887 25.5116 16.5553 32.4671C16.4664 32.8671 16.1776 33.156 15.7998 33.2894C9.37756 35.3116 5.06645 41.2005 5.06645 47.9338C5.06645 56.4005 11.9553 63.2894 20.422 63.2894H30.7331C31.3553 63.2894 31.8442 63.7783 31.8442 64.4005C31.8442 65.0227 31.3553 65.5116 30.7331 65.5116H20.4664C10.7776 65.5116 2.88867 57.6227 2.88867 47.9338C2.88867 40.4227 7.55534 33.8449 14.5776 31.356C15.5109 27.756 17.5998 24.4894 20.5109 22.1338C23.622 19.6005 27.5776 18.2005 31.5998 18.2005C32.9553 18.2005 34.3109 18.356 35.622 18.6671C36.622 13.9338 39.1776 9.6227 42.8664 6.44492C46.8887 2.97825 52.0664 1.04492 57.422 1.04492C69.7331 1.04492 79.7553 11.0671 79.7553 23.3783C79.7553 25.8005 79.3776 28.156 78.622 30.4227C78.9776 30.4005 79.3109 30.4005 79.6665 30.4005C89.3553 30.4005 97.2442 38.2894 97.2442 47.9783C97.2442 57.6671 89.3553 65.556 79.6665 65.556Z" fill="black"/>
<path d="M65.9334 86.9113H34.1779C31.689 86.9113 29.6445 84.8891 29.6445 82.378V50.6447C29.6445 48.1558 31.6668 46.1113 34.1779 46.1113H65.9334C68.4223 46.1113 70.4445 48.1335 70.4445 50.6447V82.4002C70.4445 84.8891 68.4223 86.9113 65.9334 86.9113ZM34.1779 48.3336C32.9112 48.3336 31.8668 49.3558 31.8668 50.6447V82.4002C31.8668 83.6669 32.889 84.7113 34.1779 84.7113H65.9334C67.2001 84.7113 68.2223 83.6891 68.2223 82.4002V50.6447C68.2223 49.378 67.2001 48.3336 65.9334 48.3336H34.1779Z" fill="black"/>
<path d="M56.5553 76.6898H43.5553C41.5331 76.6898 39.8887 75.0453 39.8887 73.0231V60.0231C39.8887 58.0009 41.5331 56.3564 43.5553 56.3564H56.5553C58.5776 56.3564 60.222 58.0009 60.222 60.0231V73.0231C60.222 75.0453 58.5776 76.6898 56.5553 76.6898ZM43.5553 58.5787C42.7553 58.5787 42.1109 59.2231 42.1109 60.0231V73.0231C42.1109 73.8231 42.7553 74.4676 43.5553 74.4676H56.5553C57.3553 74.4676 57.9998 73.8231 57.9998 73.0231V60.0231C57.9998 59.2231 57.3553 58.5787 56.5553 58.5787H43.5553Z" fill="black"/>
<path d="M30.7768 56.9781H24.199C23.5768 56.9781 23.0879 56.4892 23.0879 55.867C23.0879 55.2447 23.5768 54.7559 24.199 54.7559H30.7768C31.399 54.7559 31.8879 55.2447 31.8879 55.867C31.8879 56.4892 31.3768 56.9781 30.7768 56.9781Z" fill="black"/>
<path d="M79.8227 56.9781H69.3338C68.7115 56.9781 68.2227 56.4892 68.2227 55.867C68.2227 55.2447 68.7115 54.7559 69.3338 54.7559H79.8227C80.4449 54.7559 80.9338 55.2447 80.9338 55.867C80.9338 56.4892 80.4449 56.9781 79.8227 56.9781Z" fill="black"/>
<path d="M74.5991 56.9784C74.4214 56.9784 74.2214 56.934 74.0658 56.8451C73.5325 56.5562 73.3325 55.8673 73.6436 55.334L78.3325 46.9118C78.5325 46.5562 78.888 46.334 79.3102 46.334H85.0214C85.6436 46.334 86.1325 46.8229 86.1325 47.4451C86.1325 48.0673 85.6436 48.5562 85.0214 48.5562H79.9769L75.5991 56.4007C75.3769 56.7562 74.9991 56.9784 74.5991 56.9784Z" fill="black"/>
<path d="M46.4894 48.3329C45.8671 48.3329 45.3783 47.844 45.3783 47.2217V39.1773H29.156C28.5338 39.1773 28.0449 38.6884 28.0449 38.0662C28.0449 37.444 28.5338 36.9551 29.156 36.9551H46.4894C47.1116 36.9551 47.6005 37.444 47.6005 38.0662V47.2217C47.6005 47.844 47.1116 48.3329 46.4894 48.3329Z" fill="black"/>
<path d="M57.7791 48.3333C57.1569 48.3333 56.668 47.8444 56.668 47.2222V34.1111C56.668 33.4889 57.1569 33 57.7791 33H67.5124C68.1346 33 68.6235 33.4889 68.6235 34.1111C68.6235 34.7333 68.1346 35.2222 67.5124 35.2222H58.8902V47.2222C58.8902 47.8444 58.4013 48.3333 57.7791 48.3333Z" fill="black"/>
<path d="M51.6892 48.3336C51.067 48.3336 50.5781 47.8447 50.5781 47.2225V32.1336C50.5781 31.5113 51.067 31.0225 51.6892 31.0225C52.3115 31.0225 52.8003 31.5113 52.8003 32.1336V47.2225C52.8003 47.8447 52.3115 48.3336 51.6892 48.3336Z" fill="black"/>
<path d="M21.2671 59.9112C19.0449 59.9112 17.2227 58.0889 17.2227 55.8667C17.2227 53.6445 19.0449 51.8223 21.2671 51.8223C23.4893 51.8223 25.3115 53.6445 25.3115 55.8667C25.3115 58.0889 23.5115 59.9112 21.2671 59.9112ZM21.2671 54.0445C20.2671 54.0445 19.4449 54.8667 19.4449 55.8667C19.4449 56.8667 20.2671 57.6889 21.2671 57.6889C22.2671 57.6889 23.0893 56.8667 23.0893 55.8667C23.0893 54.8667 22.2671 54.0445 21.2671 54.0445Z" fill="black"/>
<path d="M26.2222 42.1113C24 42.1113 22.1777 40.2891 22.1777 38.0669C22.1777 35.8447 24 34.0225 26.2222 34.0225C28.4444 34.0225 30.2666 35.8447 30.2666 38.0669C30.2666 40.2891 28.4666 42.1113 26.2222 42.1113ZM26.2222 36.2447C25.2222 36.2447 24.4 37.0669 24.4 38.0669C24.4 39.0669 25.2222 39.8891 26.2222 39.8891C27.2222 39.8891 28.0444 39.0669 28.0444 38.0669C28.0444 37.0669 27.2222 36.2447 26.2222 36.2447Z" fill="black"/>
<path d="M70.4448 38.1563C68.2226 38.1563 66.4004 36.334 66.4004 34.1118C66.4004 31.8896 68.2226 30.0674 70.4448 30.0674C72.6671 30.0674 74.4893 31.8896 74.4893 34.1118C74.4893 36.334 72.6671 38.1563 70.4448 38.1563ZM70.4448 32.3118C69.4448 32.3118 68.6226 33.134 68.6226 34.134C68.6226 35.134 69.4448 35.9563 70.4448 35.9563C71.4448 35.9563 72.2671 35.134 72.2671 34.134C72.2671 33.134 71.4448 32.3118 70.4448 32.3118Z" fill="black"/>
<path d="M51.689 33.2676C49.4668 33.2676 47.6445 31.4454 47.6445 29.2232C47.6445 27.0009 49.4668 25.1787 51.689 25.1787C53.9112 25.1787 55.7334 27.0009 55.7334 29.2232C55.7334 31.4454 53.9334 33.2676 51.689 33.2676ZM51.689 27.4009C50.689 27.4009 49.8668 28.2232 49.8668 29.2232C49.8668 30.2232 50.689 31.0454 51.689 31.0454C52.689 31.0454 53.5112 30.2232 53.5112 29.2232C53.5112 28.2232 52.689 27.4009 51.689 27.4009Z" fill="black"/>
<path d="M87.9331 51.4893C85.7109 51.4893 83.8887 49.6671 83.8887 47.4448C83.8887 45.2226 85.7109 43.4004 87.9331 43.4004C90.1553 43.4004 91.9776 45.2226 91.9776 47.4448C91.9776 49.6671 90.1553 51.4893 87.9331 51.4893ZM87.9331 45.6226C86.9331 45.6226 86.1109 46.4448 86.1109 47.4448C86.1109 48.4448 86.9331 49.2671 87.9331 49.2671C88.9331 49.2671 89.7553 48.4448 89.7553 47.4448C89.7553 46.4448 88.9331 45.6226 87.9331 45.6226Z" fill="black"/>
<path d="M82.7554 59.9112C80.5332 59.9112 78.7109 58.0889 78.7109 55.8667C78.7109 53.6445 80.5332 51.8223 82.7554 51.8223C84.9776 51.8223 86.7998 53.6445 86.7998 55.8667C86.7998 58.0889 84.9776 59.9112 82.7554 59.9112ZM82.7554 54.0445C81.7554 54.0445 80.9332 54.8667 80.9332 55.8667C80.9332 56.8667 81.7554 57.6889 82.7554 57.6889C83.7554 57.6889 84.5776 56.8667 84.5776 55.8667C84.5776 54.8667 83.7554 54.0445 82.7554 54.0445Z" fill="black"/>
<path d="M42.2439 95.023C41.6217 95.023 41.1328 94.5341 41.1328 93.9119V85.823C41.1328 85.2008 41.6217 84.7119 42.2439 84.7119C42.8661 84.7119 43.355 85.2008 43.355 85.823V93.9119C43.355 94.5119 42.8439 95.023 42.2439 95.023Z" fill="black"/>
<path d="M34.4218 99.2672H6.71072C6.0885 99.2672 5.59961 98.7783 5.59961 98.1561C5.59961 97.5339 6.0885 97.045 6.71072 97.045H33.3107V85.8006C33.3107 85.1783 33.7996 84.6895 34.4218 84.6895C35.0441 84.6895 35.5329 85.1783 35.5329 85.8006V98.1561C35.5329 98.7783 35.0218 99.2672 34.4218 99.2672Z" fill="black"/>
<path d="M50.0662 99.2672C49.444 99.2672 48.9551 98.7783 48.9551 98.1561V85.8006C48.9551 85.1783 49.444 84.6895 50.0662 84.6895C50.6884 84.6895 51.1773 85.1783 51.1773 85.8006V98.1561C51.1773 98.7783 50.6662 99.2672 50.0662 99.2672Z" fill="black"/>
<path d="M57.8885 95.023C57.2662 95.023 56.7773 94.5341 56.7773 93.9119V85.823C56.7773 85.2008 57.2662 84.7119 57.8885 84.7119C58.5107 84.7119 58.9996 85.2008 58.9996 85.823V93.9119C58.9996 94.5119 58.4885 95.023 57.8885 95.023Z" fill="black"/>
<path d="M93.6445 99.2672H65.9334C65.3112 99.2672 64.8223 98.7783 64.8223 98.1561V85.8006C64.8223 85.1783 65.3112 84.6895 65.9334 84.6895C66.5556 84.6895 67.0445 85.1783 67.0445 85.8006V97.045H93.6445C94.2667 97.045 94.7556 97.5339 94.7556 98.1561C94.7556 98.7783 94.2445 99.2672 93.6445 99.2672Z" fill="black"/>
</svg>
