<svg width="100" height="100" viewBox="0 0 100 100" fill="none" xmlns="http://www.w3.org/2000/svg">
<g clip-path="url(#clip0_109_395)">
<path d="M16.6668 100C16.3983 100 16.1274 99.9496 15.8688 99.8413C15.0921 99.5209 14.584 98.7587 14.584 97.9164V85.4164C14.584 84.2644 15.5171 83.3336 16.6668 83.3336C17.8173 83.3336 18.7504 84.2644 18.7504 85.4164V92.8879L27.6943 83.9439C28.0834 83.5518 28.6152 83.3336 29.1668 83.3336H91.6668C93.9648 83.3336 95.834 81.4644 95.834 79.1664V20.8336C95.834 18.5356 93.9648 16.6664 91.6668 16.6664H81.2504C80.0984 16.6664 79.1668 15.7333 79.1668 14.5836C79.1668 13.4331 80.0984 12.5 81.2504 12.5H91.6668C96.2628 12.5 100 16.2376 100 20.8336V79.1664C100 83.7624 96.2628 87.5 91.6668 87.5H30.0297L18.14 99.3896C17.7418 99.7871 17.2085 100 16.6668 100Z" fill="black"/>
<path d="M8.33359 87.5C3.73764 87.5 0 83.7624 0 79.1664V20.8336C0 16.2376 3.73764 12.5 8.33359 12.5H18.75C19.8997 12.5 20.8336 13.4331 20.8336 14.5836C20.8336 15.7333 19.8997 16.6664 18.75 16.6664H8.33359C6.03561 16.6664 4.16641 18.5356 4.16641 20.8336V79.1664C4.16641 81.4644 6.03561 83.3336 8.33359 83.3336C9.48334 83.3336 10.4164 84.2644 10.4164 85.4164C10.4164 86.5685 9.48334 87.5 8.33359 87.5Z" fill="black"/>
<path d="M79.1668 52.0836H77.084C75.9319 52.0836 75.0004 51.1497 75.0004 50C75.0004 48.8503 75.9319 47.9164 77.084 47.9164H79.1668C81.4648 47.9164 83.334 46.048 83.334 43.75V39.5836C83.334 37.2856 81.4648 35.4164 79.1668 35.4164H77.084C75.9319 35.4164 75.0004 34.4833 75.0004 33.3336V29.1664C75.0004 15.3816 63.7859 4.16641 50.0004 4.16641C36.2148 4.16641 25.0004 15.3816 25.0004 29.1664V33.3336C25.0004 34.4833 24.0673 35.4164 22.9168 35.4164C21.7671 35.4164 20.834 34.4833 20.834 33.3336V29.1664C20.834 13.0836 33.9169 0 50.0004 0C66.0839 0 79.1668 13.0836 79.1668 29.1664V31.25C83.7628 31.25 87.5004 34.9876 87.5004 39.5836V43.75C87.5004 48.3459 83.7628 52.0836 79.1668 52.0836Z" fill="black"/>
<path d="M22.9164 52.0836H20.8336C16.2376 52.0836 12.5 48.3459 12.5 43.75V39.5836C12.5 34.9876 16.2376 31.25 20.8336 31.25H22.9164C24.0669 31.25 25 32.1831 25 33.3336V50C25 51.1497 24.0669 52.0836 22.9164 52.0836ZM20.8336 35.4164C18.5356 35.4164 16.6664 37.2856 16.6664 39.5836V43.75C16.6664 46.048 18.5356 47.9164 20.8336 47.9164V35.4164Z" fill="black"/>
<path d="M50 79.1668C46.5538 79.1668 43.75 76.363 43.75 72.9168C43.75 69.4714 46.5538 66.6668 50 66.6668C52.7168 66.6668 55.0331 68.4086 55.8937 70.834H56.25C66.5894 70.834 75 62.4233 75 52.084V41.6668C75 40.5171 75.9315 39.584 77.0836 39.584C78.2356 39.584 79.1664 40.5171 79.1664 41.6668V52.084C79.1664 64.719 68.885 75.0004 56.25 75.0004H54.1664C53.0144 75.0004 52.0836 74.0688 52.0836 72.9168C52.0836 71.7671 51.1482 70.834 50 70.834C48.8518 70.834 47.9164 71.7671 47.9164 72.9168C47.9164 74.0673 48.8518 75.0004 50 75.0004C51.1497 75.0004 52.0836 75.9319 52.0836 77.084C52.0836 78.236 51.1497 79.1668 50 79.1668Z" fill="black"/>
<path d="M68.7496 31.2504C67.5976 31.2504 66.666 30.3173 66.666 29.1668C66.666 19.9772 59.1892 12.5004 49.9996 12.5004C40.81 12.5004 33.3332 19.9772 33.3332 29.1668C33.3332 30.3173 32.3994 31.2504 31.2496 31.2504C30.0999 31.2504 29.166 30.3173 29.166 29.1668C29.166 17.6792 38.512 8.33398 49.9996 8.33398C61.4872 8.33398 70.8332 17.6792 70.8332 29.1668C70.8332 30.3173 69.9016 31.2504 68.7496 31.2504Z" fill="black"/>
<path d="M39.584 54.166H43.7504V58.3332H39.584V54.166Z" fill="black"/>
<path d="M47.916 54.166H52.0832V58.3332H47.916V54.166Z" fill="black"/>
<path d="M56.25 54.166H60.4164V58.3332H56.25V54.166Z" fill="black"/>
</g>
<defs>
<clipPath id="clip0_109_395">
<rect width="100" height="100" fill="white"/>
</clipPath>
</defs>
</svg>
