<svg width="100" height="100" viewBox="0 0 100 100" fill="none" xmlns="http://www.w3.org/2000/svg">
<g clip-path="url(#clip0_108_383)">
<path d="M35.834 26.5H35.8335C33.2869 26.4992 30.8183 27.379 28.8461 28.9902C26.8748 30.6007 25.5206 32.843 25.0129 35.3374C23.2345 44.2823 22.3372 53.38 22.334 62.4999L35.834 26.5ZM35.834 26.5H64.1652C66.7156 26.5076 69.1853 27.3951 71.1572 29.0127C73.1292 30.6304 74.4824 32.879 74.9884 35.3788M35.834 26.5L74.9884 35.3788M74.9884 35.3788C76.7648 44.3103 77.6621 53.3944 77.6673 62.5009C77.667 68.9676 77.2126 75.4264 76.3074 81.8295C75.6364 86.4453 73.3308 90.667 69.81 93.7264C66.2892 96.7858 61.7872 98.4797 57.123 98.5H42.8783C38.2141 98.4797 33.7121 96.7858 30.1913 93.7264C26.6703 90.6668 24.3647 86.4449 23.6938 81.8289C22.7886 75.4259 22.3342 68.9672 22.334 62.5005L74.9884 35.3788ZM37.6604 75.1597C36.5977 76.2224 36.0007 77.6638 36.0007 79.1667C36.0007 80.6696 36.5977 82.1109 37.6604 83.1736C38.7231 84.2363 40.1644 84.8333 41.6673 84.8333H58.334C59.8369 84.8333 61.2782 84.2363 62.3409 83.1736C63.4036 82.1109 64.0007 80.6696 64.0007 79.1667C64.0007 77.6638 63.4036 76.2224 62.3409 75.1597C61.2782 74.097 59.8369 73.5 58.334 73.5H41.6673C40.1644 73.5 38.7231 74.097 37.6604 75.1597Z" stroke="black" stroke-width="3"/>
<path d="M31.8333 12.4987V12.5V16.6667C31.8333 17.3739 31.5524 18.0522 31.0523 18.5523C30.5522 19.0524 29.8739 19.3333 29.1667 19.3333C28.4594 19.3333 27.7811 19.0524 27.281 18.5523L26.2229 19.6104L27.281 18.5523C26.781 18.0522 26.5 17.3739 26.5 16.6667V12.5008C26.5034 9.58428 27.6635 6.78816 29.7258 4.72585C31.7882 2.66353 34.5843 1.50342 37.5008 1.5H62.4992C65.4157 1.50342 68.2118 2.66353 70.2742 4.72584C72.3367 6.78836 73.4968 9.58481 73.5 12.5016V16.6667C73.5 17.3739 73.219 18.0522 72.719 18.5523C72.2189 19.0524 71.5406 19.3333 70.8333 19.3333C70.1261 19.3333 69.4478 19.0524 68.9477 18.5523C68.4476 18.0522 68.1667 17.3739 68.1667 16.6667V12.5V12.4987C68.1653 10.9965 67.568 9.55632 66.5058 8.49416C65.4437 7.432 64.0035 6.83468 62.5013 6.83333H62.5H54.1667H52.6667V8.33333V16.6667C52.6667 17.3739 52.3857 18.0522 51.8856 18.5523C51.3855 19.0524 50.7072 19.3333 50 19.3333C49.2928 19.3333 48.6145 19.0524 48.1144 18.5523C47.6143 18.0522 47.3333 17.3739 47.3333 16.6667V8.33333V6.83333H45.8333L37.5 6.83333L37.4987 6.83333C35.9965 6.83468 34.5563 7.432 33.4942 8.49416C32.432 9.55632 31.8347 10.9965 31.8333 12.4987Z" stroke="black" stroke-width="3"/>
</g>
<defs>
<clipPath id="clip0_108_383">
<rect width="100" height="100" fill="white"/>
</clipPath>
</defs>
</svg>
