<svg width="100" height="100" viewBox="0 0 100 100" fill="none" xmlns="http://www.w3.org/2000/svg">
<path d="M96.2008 48.8004H92.4009C90.6009 48.8004 89.2008 47.4004 89.2008 45.6004C89.2008 43.8004 90.6009 42.4004 92.4009 42.4004H96.2008C94.8008 39.8004 92.0009 38.0004 88.6009 38.4004C85.4009 38.8004 82.8009 41.4004 82.4009 44.6004C81.8009 49.0004 85.2009 52.8004 89.6009 52.8004C92.4009 52.8004 95.0008 51.2004 96.2008 48.8004Z" stroke="black" stroke-width="3" stroke-miterlimit="10" stroke-linecap="round" stroke-linejoin="round"/>
<path d="M83.0004 42.4004H73.4004" stroke="black" stroke-width="3" stroke-miterlimit="10" stroke-linecap="round" stroke-linejoin="round"/>
<path d="M83.0004 48.8008H73.4004" stroke="black" stroke-width="3" stroke-miterlimit="10" stroke-linecap="round" stroke-linejoin="round"/>
<path d="M26.6004 87.4008C26.2004 88.2008 25.4004 88.8008 24.4004 88.8008H23.0004C21.8004 88.8008 20.6004 87.8008 20.4004 86.6008C20.2004 85.8008 19.6004 85.0008 18.8004 84.6008C18.6004 84.6008 18.4004 84.4008 18.2004 84.4008C17.6004 84.0008 16.6004 84.2008 16.0004 84.6008C15.6004 85.0008 15.0004 85.2008 14.4004 85.2008C13.8004 85.2008 13.0004 85.0008 12.6004 84.4008L11.6004 83.4008C10.6004 82.6008 10.6004 81.0008 11.4004 80.0008C11.8004 79.8008 12.0004 79.2008 12.0004 78.6008C12.0004 78.2008 12.0004 78.0008 11.8004 77.6008C11.8004 77.4008 11.6004 77.2008 11.6004 77.0008C11.2004 76.2008 10.6004 75.6008 9.60039 75.4008C8.40039 75.2008 7.40039 74.2008 7.40039 72.8008V71.4008C7.40039 70.2008 8.40039 69.0008 9.60039 68.8008C10.4004 68.6008 11.2004 68.0008 11.6004 67.2008C11.6004 67.0008 11.8004 66.8008 11.8004 66.6008C12.0004 66.2008 12.0004 65.2008 11.4004 64.4008C10.6004 63.4008 10.8004 62.0008 11.6004 61.0008L12.6004 60.0008C13.4004 59.4008 14.8004 59.2008 16.0004 60.0008C16.8004 60.6008 17.6004 60.6008 18.4004 60.2008C18.6004 60.2008 18.8004 60.0008 19.0004 60.0008C19.8004 59.6008 20.4004 59.0008 20.6004 58.0008C20.8004 56.8008 21.8004 55.8008 23.2004 55.8008H24.6004C25.6004 55.8008 26.4004 56.4008 26.8004 57.2008" stroke="black" stroke-width="3" stroke-miterlimit="10" stroke-linecap="round" stroke-linejoin="round"/>
<path d="M26.6004 77.001C25.8004 77.601 24.8004 77.801 23.8004 77.801C20.8004 77.801 18.4004 75.401 18.4004 72.401C18.4004 69.401 20.8004 67.001 23.8004 67.001C24.8004 67.001 25.8004 67.401 26.6004 67.801" stroke="black" stroke-width="3" stroke-miterlimit="10" stroke-linecap="round" stroke-linejoin="round"/>
<path d="M73.4023 23.4004V65.8004" stroke="black" stroke-width="3" stroke-miterlimit="10" stroke-linecap="round" stroke-linejoin="round"/>
<path d="M26.6016 35.0004V7.80039C26.6016 5.40039 28.6016 3.40039 30.8016 3.40039H69.0016C71.4016 3.40039 73.2016 5.40039 73.2016 7.80039V9.20039" stroke="black" stroke-width="3" stroke-miterlimit="10" stroke-linecap="round" stroke-linejoin="round"/>
<path d="M73.4016 79.0002V92.2002C73.4016 94.6002 71.4016 96.6002 69.2016 96.6002H30.8016C28.4016 96.6002 26.6016 94.6002 26.6016 92.2002V48.2002" stroke="black" stroke-width="3" stroke-miterlimit="10" stroke-linecap="round" stroke-linejoin="round"/>
<path d="M53.2008 9H46.8008" stroke="black" stroke-width="3" stroke-miterlimit="10" stroke-linecap="round" stroke-linejoin="round"/>
<path d="M46.8008 91H53.2008" stroke="black" stroke-width="3" stroke-miterlimit="10" stroke-linecap="round" stroke-linejoin="round"/>
<path d="M92.2016 78.4004H36.6016C34.4016 78.4004 32.6016 76.6004 32.6016 74.4004V70.4004C32.6016 68.2004 34.4016 66.4004 36.6016 66.4004H92.0016C94.2016 66.4004 96.0016 68.2004 96.0016 70.4004V74.4004C96.2016 76.6004 94.4016 78.4004 92.2016 78.4004Z" stroke="black" stroke-width="3" stroke-miterlimit="10" stroke-linecap="round" stroke-linejoin="round"/>
<path d="M81.4004 78.0006V66.6006" stroke="black" stroke-width="3" stroke-miterlimit="10" stroke-linecap="round" stroke-linejoin="round"/>
<path d="M50.4008 48.0002H5.80078C4.60078 48.0002 3.80078 47.2002 3.80078 46.0002V37.2002C3.80078 36.0002 4.60078 35.2002 5.80078 35.2002H50.2008C51.4008 35.2002 52.2008 36.0002 52.2008 37.2002V46.0002C52.4008 47.0002 51.4008 48.0002 50.4008 48.0002Z" stroke="black" stroke-width="3" stroke-miterlimit="10" stroke-linecap="round" stroke-linejoin="round"/>
<path d="M39.8008 47.8004V35.4004" stroke="black" stroke-width="3" stroke-miterlimit="10" stroke-linecap="round" stroke-linejoin="round"/>
<path d="M13.6016 41.6006H34.2016" stroke="black" stroke-width="3" stroke-miterlimit="10" stroke-linecap="round" stroke-linejoin="round"/>
<path d="M9.40039 41.6006H9.80039" stroke="black" stroke-width="3" stroke-miterlimit="10" stroke-linecap="round" stroke-linejoin="round"/>
<path d="M89.6012 73.2006C88.8012 74.0006 87.6012 74.0006 86.8012 73.2006C86.0012 72.4006 86.0012 71.0006 86.8012 70.2006C87.6012 69.4006 88.8012 69.4006 89.6012 70.2006C90.4012 71.2006 90.4012 72.4006 89.6012 73.2006Z" stroke="black" stroke-width="3" stroke-miterlimit="10" stroke-linecap="round" stroke-linejoin="round"/>
<path d="M89.8008 73.4004L91.4008 75.0004" stroke="black" stroke-width="3" stroke-miterlimit="10" stroke-linecap="round" stroke-linejoin="round"/>
<path d="M89.6008 17.4002C89.6008 20.6002 87.2008 23.0002 84.2008 23.0002C82.6008 23.0002 68.8008 23.0002 67.4008 23.0002C65.0008 23.0002 62.8008 21.0002 62.8008 18.4002C62.8008 15.8002 64.8008 13.8002 67.4008 13.8002C68.0008 13.8002 68.6008 14.0002 69.0008 14.2002C69.8008 11.4002 72.4008 9.2002 75.6008 9.2002C78.2008 9.2002 80.4008 10.6002 81.6008 12.8002C82.4008 12.2002 83.4008 12.0002 84.4008 12.0002C87.2008 11.8002 89.6008 14.4002 89.6008 17.4002Z" stroke="black" stroke-width="3" stroke-miterlimit="10" stroke-linecap="round" stroke-linejoin="round"/>
<path d="M14.4008 14.6005C8.00077 9.00054 2.20077 20.4005 14.4008 25.8005C26.6008 20.2005 20.8008 8.80054 14.4008 14.6005Z" stroke="black" stroke-width="3" stroke-miterlimit="10" stroke-linecap="round" stroke-linejoin="round"/>
</svg>
