<svg width="100" height="100" viewBox="0 0 100 100" fill="none" xmlns="http://www.w3.org/2000/svg">
<path d="M58.502 98.0529H11.0549C6.75 98.0529 3.25 94.5509 3.25 90.248V10.0529C3.25 5.74805 6.75203 2.24805 11.0549 2.24805H58.5C62.8049 2.24805 66.3049 5.75008 66.3049 10.0529V26.4493C66.3049 27.3111 65.6057 28.0102 64.7439 28.0102C63.8821 28.0102 63.1829 27.3111 63.1829 26.4493V10.0529C63.1829 7.46959 61.0813 5.37 58.5 5.37H11.0549C8.47155 5.37 6.37195 7.47162 6.37195 10.0529V90.246C6.37195 92.8294 8.47358 94.9289 11.0549 94.9289H58.5C61.0833 94.9289 63.1829 92.8273 63.1829 90.246V64.1647C63.1829 63.3029 63.8821 62.6037 64.7439 62.6037C65.6057 62.6037 66.3049 63.3029 66.3049 64.1647V90.248C66.3069 94.5509 62.8049 98.0529 58.502 98.0529Z" fill="black"/>
<path d="M88.6809 78.4191C87.4146 78.4191 86.1809 78.0309 85.0914 77.2687C60.1504 59.8785 51.3821 59.8785 26.441 77.2687C24.8211 78.3988 22.8882 78.7077 20.9979 78.1427C19.1077 77.5777 17.6626 76.2565 16.9288 74.4232C13.6118 66.1204 11.0752 48.6895 31.3699 25.2362C36.0406 19.9171 40.7967 22.0594 45.3983 24.1305C48.374 25.4699 51.7439 26.9882 55.7683 27.0939C59.7906 26.9882 63.1626 25.4699 66.1362 24.1305C70.7357 22.0594 75.4939 19.9171 80.1565 25.2281C100.457 48.6895 97.9227 66.1204 94.6036 74.4232C93.8699 76.2565 92.4268 77.5777 90.5345 78.1427C89.9166 78.3277 89.2947 78.4191 88.6809 78.4191ZM55.7662 61.0878C65.4065 61.0878 74.817 66.2992 86.876 74.7078C87.7215 75.2972 88.6504 75.4456 89.6382 75.1508C90.626 74.8561 91.3211 74.2199 91.7032 73.2626C94.7581 65.6183 97.0122 49.4801 77.8008 27.2769C74.8028 23.8622 72.315 24.7687 67.4166 26.974C64.1626 28.4395 60.4735 30.1 55.8048 30.2118C55.7784 30.2118 55.754 30.2118 55.7296 30.2118C51.0589 30.098 47.3699 28.4374 44.1179 26.974C39.2195 24.7687 36.7317 23.8602 33.7256 27.285C14.5203 49.4801 16.7764 65.6183 19.8313 73.2606C20.2134 74.2179 20.9085 74.8521 21.8963 75.1488C22.8841 75.4435 23.813 75.2951 24.6585 74.7057C36.7154 66.2992 46.126 61.0878 55.7662 61.0878Z" fill="black"/>
<path d="M40.0116 50.4998H34.288C33.4262 50.4998 32.727 49.8006 32.727 48.9388V47.638H31.4262C30.5644 47.638 29.8652 46.9388 29.8652 46.077V40.3534C29.8652 39.4916 30.5644 38.7925 31.4262 38.7925H32.727V37.4916C32.727 36.6299 33.4262 35.9307 34.288 35.9307H40.0116C40.8734 35.9307 41.5725 36.6299 41.5725 37.4916V38.7925H42.8734C43.7352 38.7925 44.4343 39.4916 44.4343 40.3534V46.077C44.4343 46.9388 43.7352 47.638 42.8734 47.638H41.5725V48.9388C41.5725 49.8006 40.8734 50.4998 40.0116 50.4998ZM35.849 47.3778H38.4506V46.077C38.4506 45.2152 39.1498 44.516 40.0116 44.516H41.3124V41.9144H40.0116C39.1498 41.9144 38.4506 41.2152 38.4506 40.3534V39.0526H35.849V40.3534C35.849 41.2152 35.1498 41.9144 34.288 41.9144H32.9872V44.516H34.288C35.1498 44.516 35.849 45.2152 35.849 46.077V47.3778Z" fill="black"/>
<path d="M37.6446 69.8419C36.9515 69.8419 36.3194 69.3764 36.1344 68.6752C35.11 64.7504 32.3742 61.5797 28.6324 59.976C24.8722 58.3642 20.6811 58.5695 17.1344 60.5329C16.3803 60.9516 15.4311 60.6772 15.0124 59.9232C14.5937 59.1691 14.8681 58.2199 15.6222 57.8012C20.0206 55.3663 25.2096 55.1122 29.8641 57.1041C34.5002 59.0898 37.8864 63.0187 39.1568 67.8846C39.3742 68.7179 38.8742 69.5715 38.0409 69.789C37.9088 69.8236 37.7767 69.8419 37.6446 69.8419Z" fill="black"/>
<path d="M30.6752 74.0811C30.6366 74.0811 30.6 74.0791 30.5614 74.077C29.7016 74.014 29.0553 73.2681 29.1163 72.4083C29.3663 68.9592 26.9963 67.0994 24.8927 66.5547C22.7728 66.0059 19.7829 66.4774 18.3297 69.6136C17.9659 70.3961 17.039 70.7356 16.2565 70.3738C15.474 70.012 15.1346 69.0831 15.4963 68.3006C17.6142 63.7356 22.1346 62.6157 25.6732 63.5323C29.1976 64.4449 32.5919 67.6136 32.228 72.6339C32.1711 73.4551 31.4862 74.0811 30.6752 74.0811Z" fill="black"/>
<path d="M74.3774 50.504C73.5156 50.504 72.8164 49.8048 72.8164 48.943V37.4877C72.8164 36.6259 73.5156 35.9268 74.3774 35.9268C75.2392 35.9268 75.9384 36.6259 75.9384 37.4877V48.943C75.9384 49.8048 75.2392 50.504 74.3774 50.504Z" fill="black"/>
<path d="M80.1081 44.7762H68.6528C67.791 44.7762 67.0918 44.0771 67.0918 43.2153C67.0918 42.3535 67.791 41.6543 68.6528 41.6543H80.1081C80.9698 41.6543 81.669 42.3535 81.669 43.2153C81.669 44.0771 80.9698 44.7762 80.1081 44.7762Z" fill="black"/>
<path d="M64.4355 65.6261C63.5737 65.6261 62.8745 64.9269 62.8745 64.0651V61.7501C62.8745 59.1139 60.7302 56.9696 58.094 56.9696H53.4396C50.8034 56.9696 48.6591 59.1139 48.6591 61.7501V64.0651C48.6591 64.9269 47.9599 65.6261 47.0981 65.6261C46.2363 65.6261 45.5371 64.9269 45.5371 64.0651V61.7501C45.5371 57.3924 49.0818 53.8477 53.4396 53.8477H58.094C62.4517 53.8477 65.9965 57.3924 65.9965 61.7501V64.0651C65.9965 64.9269 65.2973 65.6261 64.4355 65.6261Z" fill="black"/>
<path d="M73.8873 69.8414C73.7572 69.8414 73.6251 69.8251 73.4909 69.7905C72.6576 69.5731 72.1576 68.7194 72.3751 67.8861C73.6454 63.0202 77.0336 59.0914 81.6678 57.1056C86.3202 55.1117 91.5113 55.3657 95.9096 57.8027C96.6637 58.2194 96.9361 59.1706 96.5194 59.9247C96.1027 60.6787 95.1515 60.9511 94.3974 60.5344C90.8487 58.569 86.6576 58.3657 82.8974 59.9775C79.1556 61.5812 76.4198 64.7519 75.3954 68.6767C75.2125 69.3759 74.5804 69.8414 73.8873 69.8414Z" fill="black"/>
<path d="M80.8591 74.0812C80.0481 74.0812 79.3631 73.4552 79.3042 72.632C78.9404 67.6096 82.3347 64.443 85.8591 63.5304C89.3997 62.6137 93.92 63.7336 96.0359 68.2987C96.3997 69.0812 96.0583 70.008 95.2757 70.3718C94.4932 70.7357 93.5664 70.3942 93.2026 69.6117C91.7473 66.4755 88.7574 66.0039 86.6396 66.5527C84.5359 67.0974 82.166 68.9572 82.416 72.4064C82.479 73.2661 81.8306 74.0141 80.9709 74.0751C80.9343 74.0812 80.8956 74.0812 80.8591 74.0812Z" fill="black"/>
<path d="M52.2594 48.2518H49.4809C48.6191 48.2518 47.9199 47.5526 47.9199 46.6909C47.9199 45.8291 48.6191 45.1299 49.4809 45.1299H52.2594C53.1211 45.1299 53.8203 45.8291 53.8203 46.6909C53.8203 47.5526 53.1211 48.2518 52.2594 48.2518Z" fill="black"/>
<path d="M61.5504 48.2518H58.7719C57.9101 48.2518 57.2109 47.5526 57.2109 46.6909C57.2109 45.8291 57.9101 45.1299 58.7719 45.1299H61.5504C62.4122 45.1299 63.1113 45.8291 63.1113 46.6909C63.1113 47.5526 62.4142 48.2518 61.5504 48.2518Z" fill="black"/>
<path d="M56.5133 39.5692H53.7348C52.873 39.5692 52.1738 38.87 52.1738 38.0082C52.1738 37.1465 52.873 36.4473 53.7348 36.4473H56.5133C57.375 36.4473 58.0742 37.1465 58.0742 38.0082C58.0742 38.87 57.3771 39.5692 56.5133 39.5692Z" fill="black"/>
<path d="M64.7459 84.9432H4.81098C3.94919 84.9432 3.25 84.2441 3.25 83.3823C3.25 82.5205 3.94919 81.8213 4.81098 81.8213H64.7459C65.6077 81.8213 66.3069 82.5205 66.3069 83.3823C66.3069 84.2441 65.6077 84.9432 64.7459 84.9432Z" fill="black"/>
<path d="M64.7459 18.4794H4.81098C3.94919 18.4794 3.25 17.7802 3.25 16.9184C3.25 16.0566 3.94919 15.3574 4.81098 15.3574H64.7459C65.6077 15.3574 66.3069 16.0566 66.3069 16.9184C66.3069 17.7802 65.6077 18.4794 64.7459 18.4794Z" fill="black"/>
<path d="M39.4262 11.9247H30.1274C29.2656 11.9247 28.5664 11.2255 28.5664 10.3637C28.5664 9.50192 29.2656 8.80273 30.1274 8.80273H39.4262C40.2879 8.80273 40.9871 9.50192 40.9871 10.3637C40.9871 11.2255 40.2879 11.9247 39.4262 11.9247Z" fill="black"/>
</svg>
