<svg width="100" height="100" viewBox="0 0 100 100" fill="none" xmlns="http://www.w3.org/2000/svg">
<g clip-path="url(#clip0_109_718)">
<path d="M64.6483 20.5098H29.4938C25.4553 20.5098 22.1699 23.7952 22.1699 27.8336V72.1674C22.1699 76.2059 25.4553 79.4913 29.4938 79.4913H64.6483C68.6868 79.4913 71.9722 76.2059 71.9722 72.1674V27.8336C71.9722 23.7952 68.6866 20.5098 64.6483 20.5098ZM29.4938 23.4393H64.6483C67.0714 23.4393 69.0426 25.4105 69.0426 27.8336V64.8435H25.0995V27.8336C25.0995 25.4105 27.0707 23.4393 29.4938 23.4393ZM64.6483 76.5617H29.4938C27.0707 76.5617 25.0995 74.5905 25.0995 72.1674V67.7731H69.0426V72.1674C69.0426 74.5903 67.0712 76.5617 64.6483 76.5617Z" fill="black"/>
<path d="M77.7642 26.5022C77.3607 22.494 75.1508 19.0149 71.9688 16.8779C69.9841 15.5449 68.6256 13.5218 68.1434 11.1801L67.0454 5.84698C66.3481 2.45906 63.3313 0 59.8723 0H34.2692C30.8102 0 27.7932 2.45906 27.096 5.84698L25.998 11.1801C25.5158 13.5216 24.1545 15.5408 22.1689 16.8724C18.6376 19.2403 16.3105 23.2713 16.3105 27.8332V72.167C16.3105 76.7289 18.6403 80.7558 22.1718 83.1235C24.1561 84.4568 25.516 86.4784 25.998 88.8199C26.2724 90.1532 27.096 94.153 27.096 94.153C27.7934 97.5411 30.8102 100 34.2692 100H59.8723C63.3313 100 66.3483 97.5409 67.0456 94.153C67.0456 94.153 67.869 90.1532 68.1436 88.8199C68.6258 86.4784 69.9855 84.4568 71.9727 83.1276C75.5012 80.7556 77.831 76.7287 77.831 72.1668V54.1989C77.831 53.39 77.1752 52.7341 76.3662 52.7341C75.5573 52.7341 74.9014 53.39 74.9014 54.1989V72.1668C74.9014 77.8206 70.3019 82.4202 64.648 82.4202H29.4935C23.8397 82.4202 19.2401 77.8206 19.2401 72.1668V27.833C19.2401 22.1792 23.8397 17.5796 29.4935 17.5796H64.648C70.3019 17.5796 74.9014 22.1792 74.9014 27.833V48.3398C74.9014 49.1488 75.5573 49.8046 76.3662 49.8046C80.4047 49.8046 83.6901 46.5192 83.6901 42.4807V33.6921C83.6901 30.1317 81.1363 27.1567 77.7642 26.5022ZM64.648 85.3499C65.2132 85.3499 65.7689 85.3101 66.3155 85.2408C65.8443 86.1759 65.491 87.1774 65.2744 88.2293L64.1764 93.5624C63.7578 95.5951 61.9478 97.0706 59.8723 97.0706H34.2692C32.1938 97.0706 30.3837 95.5951 29.9652 93.5624L28.8672 88.2293C28.6506 87.1774 28.2973 86.1759 27.826 85.2408C28.3727 85.3101 28.9283 85.3499 29.4935 85.3499H64.648ZM29.4935 14.6503C28.9283 14.6503 28.3727 14.6901 27.826 14.7594C28.2973 13.8243 28.6506 12.8228 28.8672 11.7709L29.9652 6.43777C30.3837 4.40506 32.1938 2.92954 34.2692 2.92954H59.8723C61.9478 2.92954 63.7578 4.40506 64.1764 6.43777L65.2744 11.7709C65.491 12.8226 65.8441 13.8237 66.3151 14.7585C65.7687 14.6891 65.213 14.6503 64.6482 14.6503H29.4935ZM80.7605 42.4809C80.7605 44.3906 79.536 46.0198 77.831 46.6243V29.5489C79.536 30.1534 80.7605 31.7826 80.7605 33.6923V42.4809Z" fill="black"/>
</g>
<defs>
<clipPath id="clip0_109_718">
<rect width="100" height="100" fill="white"/>
</clipPath>
</defs>
</svg>
