<svg width="100" height="100" viewBox="0 0 100 100" fill="none" xmlns="http://www.w3.org/2000/svg">
<path d="M69.5312 90.625H10.1562C6.28125 90.625 3.125 87.4719 3.125 83.5938V59.375C3.125 58.5125 3.825 57.8125 4.6875 57.8125C5.55 57.8125 6.25 58.5125 6.25 59.375V83.5938C6.25 85.7469 8.00313 87.5 10.1562 87.5H69.5312C70.3938 87.5 71.0938 88.2 71.0938 89.0625C71.0938 89.925 70.3938 90.625 69.5312 90.625Z" fill="black"/>
<path d="M64.1716 65.625H9.2653C7.08405 65.625 5.12155 64.5031 4.01218 62.6219C2.90593 60.7406 2.8778 58.4781 3.93718 56.5719L13.1403 40C15.0716 36.5313 18.7341 34.375 22.7059 34.375H64.7966C65.6591 34.375 66.3591 35.075 66.3591 35.9375C66.3591 36.8 65.6591 37.5 64.7966 37.5H22.7059C19.8716 37.5 17.2528 39.0406 15.8747 41.5188L6.67155 58.0875C6.1528 59.0156 6.16843 60.1187 6.70593 61.0344C7.24343 61.9531 8.2028 62.5 9.2653 62.5H64.1716C65.0341 62.5 65.7341 63.2 65.7341 64.0625C65.7341 64.925 65.0372 65.625 64.1716 65.625Z" fill="black"/>
<path d="M92.1875 96.875H73.4375C70.8531 96.875 68.75 94.7719 68.75 92.1875V14.0625C68.75 11.4781 70.8531 9.375 73.4375 9.375H92.1875C94.7719 9.375 96.875 11.4781 96.875 14.0625V92.1875C96.875 94.7719 94.7719 96.875 92.1875 96.875ZM73.4375 12.5C72.5781 12.5 71.875 13.2 71.875 14.0625V92.1875C71.875 93.05 72.5781 93.75 73.4375 93.75H92.1875C93.0469 93.75 93.75 93.05 93.75 92.1875V14.0625C93.75 13.2 93.0469 12.5 92.1875 12.5H73.4375Z" fill="black"/>
<path d="M82.8125 46.875C78.5031 46.875 75 43.3687 75 39.0625C75 34.7562 78.5031 31.25 82.8125 31.25C87.1219 31.25 90.625 34.7562 90.625 39.0625C90.625 43.3687 87.1219 46.875 82.8125 46.875ZM82.8125 34.375C80.2281 34.375 78.125 36.4781 78.125 39.0625C78.125 41.6469 80.2281 43.75 82.8125 43.75C85.3969 43.75 87.5 41.6469 87.5 39.0625C87.5 36.4781 85.3969 34.375 82.8125 34.375Z" fill="black"/>
<path d="M89.0625 68.75H85.9375C85.075 68.75 84.375 68.05 84.375 67.1875C84.375 66.325 85.075 65.625 85.9375 65.625H89.0625C89.925 65.625 90.625 66.325 90.625 67.1875C90.625 68.05 89.925 68.75 89.0625 68.75Z" fill="black"/>
<path d="M89.0625 75H85.9375C85.075 75 84.375 74.3 84.375 73.4375C84.375 72.575 85.075 71.875 85.9375 71.875H89.0625C89.925 71.875 90.625 72.575 90.625 73.4375C90.625 74.3 89.925 75 89.0625 75Z" fill="black"/>
<path d="M79.6875 68.75H76.5625C75.7 68.75 75 68.05 75 67.1875C75 66.325 75.7 65.625 76.5625 65.625H79.6875C80.55 65.625 81.25 66.325 81.25 67.1875C81.25 68.05 80.55 68.75 79.6875 68.75Z" fill="black"/>
<path d="M79.6875 75H76.5625C75.7 75 75 74.3 75 73.4375C75 72.575 75.7 71.875 76.5625 71.875H79.6875C80.55 71.875 81.25 72.575 81.25 73.4375C81.25 74.3 80.55 75 79.6875 75Z" fill="black"/>
<path d="M89.0625 56.25H85.9375C85.075 56.25 84.375 55.55 84.375 54.6875C84.375 53.825 85.075 53.125 85.9375 53.125H89.0625C89.925 53.125 90.625 53.825 90.625 54.6875C90.625 55.55 89.925 56.25 89.0625 56.25Z" fill="black"/>
<path d="M89.0625 62.5H85.9375C85.075 62.5 84.375 61.8 84.375 60.9375C84.375 60.075 85.075 59.375 85.9375 59.375H89.0625C89.925 59.375 90.625 60.075 90.625 60.9375C90.625 61.8 89.925 62.5 89.0625 62.5Z" fill="black"/>
<path d="M79.6875 56.25H76.5625C75.7 56.25 75 55.55 75 54.6875C75 53.825 75.7 53.125 76.5625 53.125H79.6875C80.55 53.125 81.25 53.825 81.25 54.6875C81.25 55.55 80.55 56.25 79.6875 56.25Z" fill="black"/>
<path d="M79.6875 62.5H76.5625C75.7 62.5 75 61.8 75 60.9375C75 60.075 75.7 59.375 76.5625 59.375H79.6875C80.55 59.375 81.25 60.075 81.25 60.9375C81.25 61.8 80.55 62.5 79.6875 62.5Z" fill="black"/>
</svg>
