<svg width="100" height="100" viewBox="0 0 100 100" fill="none" xmlns="http://www.w3.org/2000/svg">
<g clip-path="url(#clip0_109_638)">
<path d="M1.91082 53.93L20.0008 68.1433V91.6667C20.0035 93.876 20.8823 95.9941 22.4445 97.5563C24.0068 99.1185 26.1248 99.9974 28.3342 100H71.6675C73.8768 99.9974 75.9949 99.1185 77.5571 97.5563C79.1194 95.9941 79.9982 93.876 80.0008 91.6667V68.1433L98.0908 53.93C98.6857 53.4621 99.1666 52.8653 99.4972 52.1845C99.8279 51.5038 99.9997 50.7568 99.9997 50C99.9997 49.2432 99.8279 48.4962 99.4972 47.8155C99.1666 47.1347 98.6857 46.5379 98.0908 46.07L80.0008 31.8567V8.33333C79.9982 6.12401 79.1194 4.00593 77.5571 2.4437C75.9949 0.88147 73.8768 0.00264643 71.6675 0L28.3342 0C26.1248 0.00264643 24.0068 0.88147 22.4445 2.4437C20.8823 4.00593 20.0035 6.12401 20.0008 8.33333V31.8567L1.91082 46.07C1.31596 46.5379 0.835076 47.1347 0.504417 47.8155C0.173758 48.4962 0.00195313 49.2432 0.00195312 50C0.00195313 50.7568 0.173758 51.5038 0.504417 52.1845C0.835076 52.8653 1.31596 53.4621 1.91082 53.93ZM96.6675 50C96.6665 50.2523 96.6086 50.5012 96.4981 50.728C96.3876 50.9548 96.2273 51.1537 96.0292 51.31L72.6958 69.6433C72.3469 69.8959 71.9137 70.0036 71.487 69.9438C71.0604 69.884 70.6735 69.6612 70.4075 69.3224C70.1415 68.9835 70.0171 68.5548 70.0602 68.1262C70.1034 67.6976 70.3109 67.3023 70.6392 67.0233L90.6392 51.31C90.8374 51.154 90.9977 50.9551 91.108 50.7282C91.2182 50.5013 91.2755 50.2523 91.2755 50C91.2755 49.7477 91.2182 49.4987 91.108 49.2718C90.9977 49.0449 90.8374 48.846 90.6392 48.69L70.6392 32.975C70.3122 32.6955 70.1059 32.3004 70.0635 31.8723C70.0212 31.4442 70.146 31.0163 70.4118 30.6781C70.6777 30.3399 71.064 30.1176 71.49 30.0577C71.916 29.9978 72.3487 30.1049 72.6975 30.3567L96.0308 48.69C96.2286 48.8464 96.3886 49.0454 96.4988 49.2723C96.6091 49.4991 96.6667 49.7478 96.6675 50ZM86.9092 50L80.0008 55.4267V44.5717L86.9092 50ZM40.0008 3.33333H60.0008V5C60.0008 5.44203 59.8252 5.86595 59.5127 6.17851C59.2001 6.49107 58.7762 6.66667 58.3342 6.66667H41.6675C41.2255 6.66667 40.8015 6.49107 40.489 6.17851C40.1764 5.86595 40.0008 5.44203 40.0008 5V3.33333ZM23.3342 8.33333C23.3342 7.00725 23.8609 5.73548 24.7986 4.7978C25.7363 3.86012 27.0081 3.33333 28.3342 3.33333H36.6675V5C36.6675 6.32608 37.1943 7.59785 38.132 8.53553C39.0696 9.47322 40.3414 10 41.6675 10H58.3342C59.6602 10 60.932 9.47322 61.8697 8.53553C62.8074 7.59785 63.3342 6.32608 63.3342 5V3.33333H71.6675C72.9936 3.33333 74.2653 3.86012 75.203 4.7978C76.1407 5.73548 76.6675 7.00725 76.6675 8.33333V29.2367L74.7575 27.7367C74.2427 27.3178 73.6497 27.0056 73.0131 26.8183C72.3764 26.6309 71.7088 26.5722 71.0492 26.6456C70.3896 26.7189 69.7513 26.9228 69.1713 27.2454C68.5913 27.568 68.0814 28.0028 67.6712 28.5245C67.261 29.0462 66.9587 29.6444 66.7821 30.2841C66.6055 30.9238 66.5579 31.5923 66.6423 32.2505C66.7266 32.9088 66.9412 33.5437 67.2735 34.1182C67.6057 34.6927 68.049 35.1953 68.5775 35.5967L76.6675 41.9533V58.0467L68.5792 64.4017C68.0519 64.8034 67.6097 65.306 67.2785 65.8802C66.9472 66.4545 66.7335 67.0888 66.6496 67.7464C66.5658 68.404 66.6136 69.0717 66.7901 69.7106C66.9667 70.3496 67.2686 70.947 67.6782 71.4682C68.0878 71.9895 68.597 72.424 69.1761 72.7466C69.7552 73.0693 70.3927 73.2735 71.0514 73.3475C71.7102 73.4215 72.3771 73.3637 73.0134 73.1776C73.6496 72.9915 74.2425 72.6807 74.7575 72.2633L76.6675 70.7633V91.6667C76.6675 92.9927 76.1407 94.2645 75.203 95.2022C74.2653 96.1399 72.9936 96.6667 71.6675 96.6667H28.3342C27.0081 96.6667 25.7363 96.1399 24.7986 95.2022C23.8609 94.2645 23.3342 92.9927 23.3342 91.6667V70.7633L25.2442 72.2633C25.7589 72.6822 26.3519 72.9944 26.9886 73.1817C27.6252 73.369 28.2928 73.4278 28.9524 73.3544C29.612 73.2811 30.2504 73.0772 30.8304 72.7546C31.4103 72.432 31.9203 71.9972 32.3305 71.4755C32.7407 70.9538 33.0429 70.3556 33.2196 69.7159C33.3962 69.0762 33.4437 68.4077 33.3594 67.7495C33.275 67.0912 33.0604 66.4563 32.7282 65.8818C32.3959 65.3073 31.9527 64.8047 31.4242 64.4033L23.3342 58.0467V41.9533L31.4225 35.5983C31.9498 35.1966 32.3919 34.694 32.7232 34.1198C33.0544 33.5455 33.2682 32.9112 33.352 32.2536C33.4358 31.596 33.3881 30.9283 33.2115 30.2894C33.0349 29.6504 32.733 29.053 32.3234 28.5318C31.9138 28.0105 31.4046 27.576 30.8255 27.2534C30.2464 26.9307 29.609 26.7265 28.9502 26.6525C28.2914 26.5785 27.6245 26.6363 26.9883 26.8224C26.3521 27.0085 25.7592 27.3193 25.2442 27.7367L23.3342 29.2367V8.33333ZM13.0925 50L20.0008 44.5733V55.4283L13.0925 50ZM3.97249 48.69L27.3058 30.3567C27.6548 30.1041 28.088 29.9964 28.5146 30.0562C28.9412 30.116 29.3281 30.3387 29.5941 30.6776C29.8601 31.0165 29.9846 31.4452 29.9414 31.8738C29.8982 32.3024 29.6907 32.6977 29.3625 32.9767L9.36249 48.69C9.1642 48.846 9.00391 49.0449 8.89369 49.2718C8.78347 49.4987 8.7262 49.7477 8.7262 50C8.7262 50.2523 8.78347 50.5013 8.89369 50.7282C9.00391 50.9551 9.1642 51.154 9.36249 51.31L29.3625 67.025C29.6895 67.3045 29.8958 67.6996 29.9381 68.1277C29.9805 68.5558 29.8557 68.9837 29.5898 69.3219C29.324 69.6601 28.9376 69.8824 28.5116 69.9423C28.0856 70.0022 27.653 69.8951 27.3042 69.6433L3.97082 51.31C3.77253 51.154 3.61224 50.9551 3.50202 50.7282C3.3918 50.5013 3.33453 50.2523 3.33453 50C3.33453 49.7477 3.3918 49.4987 3.50202 49.2718C3.61224 49.0449 3.7742 48.846 3.97249 48.69Z" fill="black"/>
<path d="M41.956 78.1397C42.4035 78.2683 42.8669 78.3334 43.3326 78.333C44.4183 78.3289 45.4734 77.9731 46.34 77.319C47.2065 76.6649 47.8378 75.7477 48.1393 74.7047L61.4726 28.038C61.8369 26.7628 61.6796 25.395 61.0354 24.2358C60.3912 23.0765 59.3129 22.2206 58.0376 21.8563C57.4062 21.676 56.7454 21.6218 56.093 21.6968C55.4406 21.7718 54.8094 21.9746 54.2354 22.2936C53.0761 22.9378 52.2202 24.0161 51.856 25.2913L38.5226 71.958C38.3422 72.5893 38.2878 73.25 38.3627 73.9024C38.4376 74.5547 38.6402 75.1859 38.959 75.7599C39.2778 76.3339 39.7066 76.8395 40.2208 77.2479C40.735 77.6562 41.3246 77.9592 41.956 78.1397ZM41.731 72.8747L55.0643 26.208C55.1924 25.7874 55.4787 25.4328 55.8629 25.219C56.2471 25.0051 56.6993 24.9486 57.1243 25.0613C57.3349 25.1214 57.5316 25.2224 57.7032 25.3586C57.8747 25.4948 58.0178 25.6634 58.1241 25.8549C58.2304 26.0463 58.298 26.2569 58.3229 26.4745C58.3478 26.6921 58.3296 26.9125 58.2693 27.123L44.936 73.7897C44.8809 74.0057 44.7831 74.2086 44.6482 74.3861C44.5134 74.5637 44.3443 74.7124 44.1509 74.8235C43.9576 74.9345 43.7439 75.0056 43.5226 75.0326C43.3012 75.0596 43.0767 75.0419 42.8624 74.9805C42.648 74.9192 42.4481 74.8154 42.2746 74.6755C42.101 74.5355 41.9573 74.3621 41.852 74.1656C41.7466 73.9691 41.6818 73.7534 41.6613 73.5314C41.6408 73.3094 41.665 73.0855 41.7326 72.873L41.731 72.8747Z" fill="black"/>
<path d="M38.3327 93.3333H61.666C62.108 93.3333 62.532 93.1577 62.8445 92.8452C63.1571 92.5326 63.3327 92.1087 63.3327 91.6667C63.3327 91.2246 63.1571 90.8007 62.8445 90.4882C62.532 90.1756 62.108 90 61.666 90H38.3327C37.8907 90 37.4667 90.1756 37.1542 90.4882C36.8416 90.8007 36.666 91.2246 36.666 91.6667C36.666 92.1087 36.8416 92.5326 37.1542 92.8452C37.4667 93.1577 37.8907 93.3333 38.3327 93.3333Z" fill="black"/>
</g>
<defs>
<clipPath id="clip0_109_638">
<rect width="100" height="100" fill="white"/>
</clipPath>
</defs>
</svg>
