<svg width="100" height="100" viewBox="0 0 100 100" fill="none" xmlns="http://www.w3.org/2000/svg">
<path fill-rule="evenodd" clip-rule="evenodd" d="M29.1873 3.125H70.8115C71.8578 3.127 72.8933 3.33589 73.8586 3.73965C74.8238 4.14341 75.6997 4.73407 76.4357 5.47764C77.1718 6.22121 77.7535 7.103 78.1475 8.07227C78.5415 9.04154 78.7399 10.0792 78.7312 11.1254V88.9553C78.7259 91.0541 77.8898 93.0654 76.4057 94.5494C74.9216 96.0335 72.9103 96.8696 70.8115 96.875H29.1873C27.0885 96.8696 25.0772 96.0335 23.5931 94.5494C22.1091 93.0654 21.2729 91.0541 21.2676 88.9553V11.0449C21.2728 8.94608 22.1089 6.9347 23.593 5.45057C25.0771 3.96644 27.0885 3.13031 29.1873 3.125ZM64.2182 68.4322C65.4886 68.4293 66.7062 67.9233 67.6045 67.0249C68.5029 66.1265 69.0088 64.9089 69.0117 63.6385V51.2361H51.8158V68.4326L64.2182 68.4322ZM54.3107 65.9375H64.2182C64.827 65.9348 65.4101 65.6918 65.8405 65.2613C66.271 64.8308 66.514 64.2477 66.5166 63.6389V53.7305H54.3107V65.9375ZM34.8203 53.7305L46.2689 65.1793V53.7305H34.8203ZM46.1186 68.5572H46.1234C46.3397 68.7742 46.6155 68.922 46.9158 68.9819C47.2162 69.0419 47.5277 69.0112 47.8106 68.8937C48.0935 68.7763 48.3351 68.5775 48.5048 68.3225C48.6745 68.0675 48.7646 67.7678 48.7637 67.4615V51.2357H32.5373C32.2316 51.2369 31.9331 51.3283 31.6793 51.4986C31.4255 51.669 31.2277 51.9105 31.1108 52.193C30.9939 52.4754 30.9631 52.7861 31.0223 53.086C31.0815 53.3858 31.2281 53.6615 31.4436 53.8783L31.4412 53.8809L46.118 68.5578L46.1186 68.5572ZM36.3609 30.9869C35.0903 30.9898 33.8726 31.4959 32.9742 32.3944C32.0758 33.2929 31.5699 34.5107 31.5672 35.7812V48.1836H48.7637V30.9875L36.3609 30.9869ZM46.2689 33.4826H36.3609C35.752 33.4851 35.1688 33.7281 34.7382 34.1586C34.3076 34.5892 34.0645 35.1724 34.0619 35.7812V45.6887H46.2689V33.4826ZM64.2182 33.4826H54.3107V45.6887H66.5178V35.7812C66.5152 35.1723 66.272 34.589 65.8413 34.1584C65.4106 33.7279 64.8272 33.485 64.2182 33.4826ZM53.0629 30.9875H51.8158V48.1836H69.0121V35.7812C69.0092 34.5107 68.5032 33.2931 67.6048 32.3947C66.7064 31.4963 65.4887 30.9903 64.2182 30.9875H53.0629ZM45.902 91.0861H54.0969C54.262 91.0882 54.4259 91.0575 54.5791 90.9957C54.7323 90.9339 54.8717 90.8424 54.9892 90.7263C55.1067 90.6103 55.2 90.472 55.2637 90.3196C55.3274 90.1672 55.3601 90.0037 55.3601 89.8386C55.3601 89.6734 55.3274 89.5099 55.2637 89.3575C55.2 89.2051 55.1067 89.0669 54.9892 88.9509C54.8717 88.8348 54.7323 88.7432 54.5791 88.6815C54.4259 88.6197 54.262 88.589 54.0969 88.591H45.902C45.5738 88.5951 45.2604 88.7284 45.0298 88.9619C44.7992 89.1954 44.6699 89.5104 44.6699 89.8386C44.6699 90.1668 44.7992 90.4818 45.0298 90.7153C45.2604 90.9488 45.5738 91.082 45.902 91.0861ZM49.7992 10.8385L50.0336 10.8547C50.3632 10.8767 50.688 10.7668 50.9366 10.5492C51.1852 10.3317 51.3372 10.0243 51.3592 9.69473C51.3811 9.36512 51.2713 9.04029 51.0537 8.7917C50.8362 8.5431 50.5288 8.3911 50.1992 8.36914L49.9648 8.35293C49.6352 8.33097 49.3104 8.44084 49.0618 8.65837C48.8132 8.87591 48.6612 9.18329 48.6393 9.51289C48.6173 9.84249 48.7272 10.1673 48.9447 10.4159C49.1622 10.6645 49.4696 10.8165 49.7992 10.8385ZM23.8904 9.87793H42.6736C42.8375 9.8779 42.9997 9.91015 43.1511 9.97283C43.3024 10.0355 43.44 10.1274 43.5558 10.2432C43.6717 10.3591 43.7636 10.4966 43.8263 10.648C43.889 10.7993 43.9213 10.9616 43.9213 11.1254C43.9213 12.7004 44.9822 13.9742 46.5959 13.9742H53.4031C55.0168 13.9742 56.0775 12.7004 56.0775 11.1254C56.0775 10.9616 56.1098 10.7993 56.1725 10.648C56.2352 10.4966 56.3271 10.3591 56.443 10.2432C56.5588 10.1274 56.6964 10.0355 56.8478 9.97283C56.9991 9.91015 57.1614 9.8779 57.3252 9.87793H76.1084C75.8385 8.67311 75.1674 7.59568 74.205 6.82213C73.2427 6.04858 72.0462 5.62477 70.8115 5.62012H29.1873C27.9526 5.62477 26.7561 6.04858 25.7938 6.82213C24.8315 7.59568 24.1604 8.67311 23.8904 9.87793ZM76.2361 12.373H58.4369C57.9109 14.7443 55.9299 16.4693 53.4027 16.4693H46.5959C44.0684 16.4693 42.0875 14.7443 41.5617 12.373H23.7627V83.2422H76.2361V12.373ZM76.2361 85.7365H23.7627V88.9553C23.7678 90.3924 24.3409 91.7692 25.3572 92.7854C26.3734 93.8016 27.7502 94.3748 29.1873 94.3799H70.8115C72.2487 94.3748 73.6255 93.8016 74.6417 92.7854C75.6579 91.7692 76.231 90.3924 76.2361 88.9553V85.7365Z" fill="black"/>
</svg>
