<svg width="100" height="100" viewBox="0 0 100 100" fill="none" xmlns="http://www.w3.org/2000/svg">
<g clip-path="url(#clip0_109_636)">
<path d="M84.7812 70.5762L79.0781 58.2578C78.1621 56.2832 76.2422 55.0547 74.0684 55.0547H67.752V9.58984C67.752 4.30273 63.4492 0 58.1621 0H22.9121C17.625 0 13.3223 4.30273 13.3223 9.58984V83.0195C13.3223 88.3066 17.623 92.6094 22.9121 92.6094H58.1621C58.543 92.6094 58.9219 92.5859 59.2969 92.543C59.9785 93.582 60.7461 94.6094 61.5586 95.7012L61.6504 95.8242V97.2715C61.6504 98.7773 62.877 100.002 64.3848 100.002H81.043C82.375 100.002 83.5078 99.0488 83.7383 97.7305L86.3574 82.4551C87.082 78.2305 86.5801 74.457 84.7812 70.5762ZM22.9121 89.4863C19.3457 89.4863 16.4453 86.5859 16.4453 83.0195V9.58984C16.4453 6.02344 19.3457 3.12305 22.9121 3.12305H58.1621C61.7285 3.12305 64.6289 6.02344 64.6289 9.58984V62.5938C63.9297 62.3106 63.166 62.1523 62.3652 62.1523C59.0312 62.1523 56.3184 64.8652 56.3184 68.1973V82.9121C56.3184 85.5488 56.8047 87.627 57.6113 89.4844H22.9121V89.4863ZM83.2812 81.9258L80.7188 96.877H64.7734V95.3047C64.7734 94.9688 64.666 94.6426 64.4648 94.373L64.0625 93.834C61.2793 90.1035 59.4414 87.6387 59.4414 82.916V68.2012C59.4414 66.5898 60.752 65.2773 62.3652 65.2773C63.9766 65.2773 65.2891 66.5879 65.2891 68.2012V80.1426C65.2891 81.0059 65.9883 81.7031 66.8496 81.7031C67.7109 81.7031 68.4102 81.0039 68.4102 80.1426V68.2012C68.4102 67.2148 68.1719 66.2852 67.752 65.4629V58.1816H74.0684C75.041 58.1816 75.834 58.6894 76.2441 59.5742L81.9473 71.8945C83.4688 75.1699 83.8926 78.3574 83.2812 81.9258ZM27.3457 10.9902C27.3457 10.127 28.0449 9.42969 28.9062 9.42969H52.1641C53.0273 9.42969 53.7246 10.1289 53.7246 10.9902C53.7246 11.8516 53.0254 12.5508 52.1641 12.5508H28.9082C28.0449 12.5527 27.3457 11.8535 27.3457 10.9902ZM43.0371 81.6191C43.0371 82.4824 42.3379 83.1797 41.4766 83.1797H39.5996C38.7363 83.1797 38.0391 82.4805 38.0391 81.6191C38.0391 80.7578 38.7383 80.0586 39.5996 80.0586H41.4766C42.3379 80.0566 43.0371 80.7559 43.0371 81.6191ZM57.1094 60.4746C58.0996 60.1504 58.7656 59.2285 58.7656 58.1836V55.3105C58.7656 54.2656 58.0996 53.3438 57.1035 53.0176L55.332 52.4434C55.0176 51.3652 54.584 50.3203 54.041 49.334L54.8828 47.6777C55.3652 46.7441 55.1895 45.6172 54.4453 44.8711L52.4141 42.8398C51.6699 42.0957 50.541 41.9199 49.6172 42.3965L47.9551 43.2422C46.9609 42.6973 45.9199 42.2656 44.8418 41.9512L44.2695 40.1855C43.9473 39.1875 43.0254 38.5176 41.9746 38.5176H39.1016C38.0527 38.5176 37.1309 39.1875 36.8086 40.1855L36.2363 41.9512C35.1602 42.2637 34.1152 42.6973 33.125 43.2441L31.4688 42.4023C30.5352 41.9199 29.4082 42.0957 28.6621 42.8398L26.6309 44.8711C25.8867 45.6152 25.7109 46.7422 26.1875 47.668L27.0332 49.334C26.4883 50.3242 26.0547 51.3672 25.7422 52.4434L23.9629 53.0195C22.9727 53.3457 22.3086 54.2656 22.3086 55.3105V58.1836C22.3086 59.2285 22.9746 60.1504 23.9707 60.4766L25.7422 61.0508C26.0527 62.1191 26.4844 63.1602 27.0332 64.1621L26.1914 65.8164C25.709 66.75 25.8848 67.877 26.6309 68.6211L28.6621 70.6523C29.4062 71.3965 30.5332 71.5723 31.459 71.0957L33.123 70.25C34.1074 70.7949 35.1523 71.2285 36.2324 71.541L36.8086 73.3184C37.1348 74.3125 38.0566 74.9785 39.0996 74.9785H41.9727C43.0176 74.9785 43.9375 74.3105 44.2656 73.3105L44.8398 71.5391C45.9277 71.2227 46.9746 70.7891 47.9512 70.248L49.6055 71.0898C50.5391 71.5723 51.666 71.3945 52.4102 70.6504L54.4414 68.6191C55.1855 67.875 55.3613 66.7461 54.8848 65.8223L54.0391 64.1602C54.584 63.166 55.0156 62.127 55.3301 61.0488L57.1094 60.4746ZM54 58.1992C53.2051 58.459 52.6113 59.0937 52.416 59.8789C52.1387 60.9336 51.7129 61.9609 51.1523 62.9277C50.7344 63.6387 50.7109 64.502 51.084 65.2344L51.8691 66.7793L50.5703 68.0781L49.0156 67.2891C48.2754 66.9199 47.4414 66.9434 46.7109 67.3613C45.7637 67.918 44.7402 68.3438 43.6582 68.627C42.8594 68.8418 42.252 69.4141 41.9863 70.2129L41.4551 71.8574H39.6152L39.0781 70.2012C38.8164 69.416 38.209 68.8438 37.4004 68.627C36.3281 68.3457 35.3047 67.9199 34.3438 67.3555C33.6289 66.9434 32.793 66.9199 32.0449 67.2949L30.5 68.0801L29.2012 66.7812L29.9844 65.2402C30.3594 64.5039 30.3359 63.6406 29.9219 62.9375C29.3574 61.9629 28.9297 60.9355 28.6582 59.8984C28.457 59.0957 27.8633 58.4609 27.0645 58.1992L25.4258 57.668V55.8262L27.0781 55.291C27.8633 55.0293 28.4512 54.4004 28.6543 53.6094C28.9336 52.5508 29.3594 51.5254 29.9238 50.5586C30.3359 49.8437 30.3594 49.0078 29.9844 48.2598L29.1992 46.7148L30.498 45.416L32.0293 46.1934C32.7695 46.5781 33.6133 46.5586 34.3516 46.1348C35.3164 45.5723 36.3379 45.1465 37.3926 44.8691C38.1855 44.666 38.8145 44.0801 39.0801 43.2852L39.6133 41.6406H41.4531L41.9902 43.2969C42.252 44.084 42.8867 44.6719 43.668 44.8672C44.7227 45.1445 45.75 45.5703 46.7168 46.1309C47.4336 46.5527 48.3008 46.5742 49.0234 46.1992L50.5684 45.4141L51.8672 46.7129L51.0781 48.2676C50.709 49.0078 50.7324 49.8418 51.1484 50.5664C51.707 51.5254 52.1328 52.5488 52.4141 53.6094C52.6172 54.4004 53.2051 55.0293 54.0039 55.2969L55.6426 55.8281V57.6699L54 58.1992ZM40.5391 48.4883C35.9844 48.4883 32.2793 52.1934 32.2793 56.748C32.2793 61.2988 35.9844 65.002 40.5391 65.002C45.0898 65.002 48.7949 61.2988 48.7949 56.748C48.7949 52.1934 45.0918 48.4883 40.5391 48.4883ZM40.5391 61.8809C37.707 61.8809 35.4023 59.5781 35.4023 56.748C35.4023 53.916 37.707 51.6113 40.5391 51.6113C43.3691 51.6113 45.6719 53.916 45.6719 56.748C45.6719 59.5781 43.3691 61.8809 40.5391 61.8809ZM42.9102 17.6875C43.7422 17.9102 44.2383 18.7676 44.0137 19.5996L40.0781 34.293C39.8906 34.9902 39.2598 35.4512 38.5703 35.4512C38.4375 35.4512 38.3008 35.4336 38.166 35.3984C37.334 35.1758 36.8379 34.3184 37.0625 33.4863L40.998 18.793C41.2207 17.959 42.0762 17.4629 42.9102 17.6875ZM26.2188 26.123C26.2363 25.627 26.4883 25.168 26.8965 24.8887L33.8008 20.1602C34.5117 19.6738 35.4844 19.8555 35.9707 20.5664C36.457 21.2773 36.2754 22.25 35.5645 22.7363L30.4102 26.2656L35.6504 30.4102C36.3262 30.9453 36.4414 31.9277 35.9062 32.6035C35.5977 32.9941 35.1406 33.1973 34.6797 33.1973C34.3398 33.1973 33.998 33.0879 33.7129 32.8613L26.8086 27.4023C26.4199 27.0938 26.2012 26.6191 26.2188 26.123ZM47.2734 20.1602L54.1777 24.8887C54.5879 25.1699 54.8398 25.627 54.8555 26.123C54.873 26.6191 54.6523 27.0937 54.2637 27.4004L47.3594 32.8594C47.0723 33.0859 46.7305 33.1953 46.3926 33.1953C45.9316 33.1953 45.4746 32.9922 45.166 32.6016C44.6309 31.9258 44.7461 30.9434 45.4219 30.4082L50.6621 26.2637L45.5078 22.7344C44.7969 22.2461 44.6152 21.2754 45.1016 20.5645C45.5918 19.8555 46.5625 19.6738 47.2734 20.1602Z" fill="black"/>
</g>
<defs>
<clipPath id="clip0_109_636">
<rect width="100" height="100" fill="white"/>
</clipPath>
</defs>
</svg>
