<svg width="100" height="100" viewBox="0 0 100 100" fill="none" xmlns="http://www.w3.org/2000/svg">
<g clip-path="url(#clip0_109_670)">
<path d="M86.585 49.4939C87.2368 52.5567 89.9615 54.8583 93.2186 54.8583C96.9615 54.8583 100 51.8198 100 48.0769C100 44.334 96.9615 41.2955 93.2186 41.2955C89.9615 41.2955 87.2389 43.5972 86.585 46.6599H79.4514V27.834H87.8542C88.3826 27.834 88.8684 27.5405 89.1113 27.0708L91.5101 22.4555C92.0567 22.5972 92.6296 22.6721 93.2186 22.6721C96.9615 22.6721 100 19.6336 100 15.8907C100 12.1478 96.9615 9.10931 93.2186 9.10931C89.4757 9.10931 86.4372 12.1478 86.4372 15.8907C86.4372 18.0283 87.4291 19.9372 88.9777 21.1822L86.9939 25H79.4534V8.46964C79.4534 3.81174 75.6437 0 70.9838 0H29.0101C24.3583 0 20.5466 3.80972 20.5466 8.46964V25H13.0061L11.0223 21.1822C12.5709 19.9393 13.5628 18.0304 13.5628 15.8907C13.5628 12.1478 10.5243 9.10931 6.78138 9.10931C3.03846 9.10931 0 12.1478 0 15.8907C0 19.6336 3.03846 22.6721 6.78138 22.6721C7.37045 22.6721 7.94332 22.5972 8.48988 22.4555L10.8887 27.0708C11.1316 27.5405 11.6174 27.834 12.1457 27.834H20.5486V46.6599H13.415C12.7632 43.5972 10.0385 41.2955 6.78138 41.2955C3.03846 41.2955 0 44.334 0 48.0769C0 51.8198 3.03846 54.8583 6.78138 54.8583C10.0385 54.8583 12.7611 52.5567 13.415 49.4939H20.5486V68.3198H12.1457C11.6174 68.3198 11.1316 68.6134 10.8887 69.083L8.44332 73.7875C7.91093 73.6538 7.35425 73.581 6.78138 73.581C3.03846 73.581 0 76.6194 0 80.3623C0 84.1053 3.03846 87.1437 6.78138 87.1437C10.5243 87.1437 13.5628 84.1053 13.5628 80.3623C13.5628 78.2065 12.5547 76.2854 10.9858 75.0425L13.0081 71.1518H20.5486V91.5283C20.5486 96.1862 24.3603 99.998 29.0121 99.998H70.9858C75.6437 99.998 79.4555 96.1862 79.4555 91.5283V71.1518H86.9959L89.0182 75.0425C87.4474 76.2854 86.4413 78.2065 86.4413 80.3623C86.4413 84.1053 89.4798 87.1437 93.2227 87.1437C96.9656 87.1437 100.004 84.1053 100.004 80.3623C100.004 76.6194 96.9656 73.581 93.2227 73.581C92.6498 73.581 92.0931 73.6518 91.5607 73.7875L89.1154 69.083C88.8704 68.6134 88.3866 68.3198 87.8583 68.3198H79.4555V49.4939H86.5891H86.585ZM93.2186 44.1296C95.3968 44.1296 97.166 45.8988 97.166 48.0769C97.166 50.2551 95.3968 52.0243 93.2186 52.0243C91.0405 52.0243 89.2713 50.2551 89.2713 48.0769C89.2713 45.8988 91.0405 44.1296 93.2186 44.1296ZM93.2186 11.9433C95.3968 11.9433 97.166 13.7126 97.166 15.8907C97.166 18.0688 95.3968 19.8381 93.2186 19.8381C91.0405 19.8381 89.2713 18.0688 89.2713 15.8907C89.2713 13.7126 91.0405 11.9433 93.2186 11.9433ZM6.78138 19.8381C4.60324 19.8381 2.83401 18.0688 2.83401 15.8907C2.83401 13.7126 4.60324 11.9433 6.78138 11.9433C8.95951 11.9433 10.7287 13.7126 10.7287 15.8907C10.7287 18.0688 8.95951 19.8381 6.78138 19.8381ZM6.78138 52.0243C4.60324 52.0243 2.83401 50.2551 2.83401 48.0769C2.83401 45.8988 4.60324 44.1296 6.78138 44.1296C8.95951 44.1296 10.7287 45.8988 10.7287 48.0769C10.7287 50.2551 8.95951 52.0243 6.78138 52.0243ZM6.78138 84.3117C4.60324 84.3117 2.83401 82.5425 2.83401 80.3644C2.83401 78.1862 4.60324 76.417 6.78138 76.417C8.95951 76.417 10.7287 78.1862 10.7287 80.3644C10.7287 82.5425 8.95951 84.3117 6.78138 84.3117ZM76.6174 91.5304C76.6174 94.6296 74.081 97.166 70.9818 97.166H29.0101C25.915 97.166 23.3806 94.6296 23.3806 91.5304V8.46964C23.3806 5.37045 25.915 2.83401 29.0101 2.83401H70.9838C74.083 2.83401 76.6194 5.37045 76.6194 8.46964V91.5304H76.6174ZM93.2186 76.417C95.3968 76.417 97.166 78.1862 97.166 80.3644C97.166 82.5425 95.3968 84.3117 93.2186 84.3117C91.0405 84.3117 89.2713 82.5425 89.2713 80.3644C89.2713 78.1862 91.0405 76.417 93.2186 76.417Z" fill="black"/>
<path d="M53.8349 87.3828H46.169C45.3876 87.3828 44.752 88.0184 44.752 88.7998C44.752 89.5812 45.3876 90.2168 46.169 90.2168H53.8349C54.6163 90.2168 55.252 89.5812 55.252 88.7998C55.252 88.0184 54.6163 87.3828 53.8349 87.3828Z" fill="black"/>
<path d="M50.0005 70.0872C45.2272 70.0872 41.4863 61.2633 41.4863 50.0001C41.4863 38.737 45.2272 29.9131 50.0005 29.9131C54.7738 29.9131 58.5147 38.737 58.5147 50.0001C58.5147 61.2633 54.7738 70.0872 50.0005 70.0872ZM50.0005 31.1681C46.0653 31.1681 42.7414 39.7916 42.7414 50.0001C42.7414 60.2086 46.0673 68.8321 50.0005 68.8321C53.9337 68.8321 57.2596 60.2086 57.2596 50.0001C57.2596 39.7916 53.9357 31.1681 50.0005 31.1681Z" fill="black"/>
<path d="M50.0014 70.3907C47.5621 70.3907 45.3152 68.2571 43.6755 64.3866C42.0682 60.5972 41.1836 55.4878 41.1836 50.002C41.1836 44.5162 42.0682 39.4049 43.6755 35.6154C45.3172 31.7429 47.5642 29.6113 50.0014 29.6113C52.4387 29.6113 54.6876 31.7429 56.3273 35.6154C57.9326 39.4049 58.8172 44.5142 58.8172 50.002C58.8172 55.4899 57.9326 60.5992 56.3253 64.3866C54.6836 68.2591 52.4366 70.3907 49.9994 70.3907H50.0014ZM50.0014 30.2166C47.8212 30.2166 45.7747 32.2166 44.2342 35.8502C42.6593 39.5668 41.7909 44.5911 41.7909 49.998C41.7909 55.4049 42.6593 60.4291 44.2342 64.1457C45.7747 67.7793 47.8233 69.7793 50.0014 69.7793C52.1795 69.7793 54.2281 67.7773 55.7686 64.1457C57.3435 60.4291 58.2119 55.4049 58.2119 49.998C58.2119 44.5911 57.3435 39.5648 55.7686 35.8502C54.2281 32.2166 52.1795 30.2166 50.0014 30.2166ZM50.0014 69.1356C47.965 69.1356 46.05 67.083 44.6127 63.3542C43.2099 59.7166 42.4387 54.9737 42.4387 50.002C42.4387 45.0304 43.2099 40.2874 44.6127 36.6498C46.05 32.921 47.9629 30.8684 50.0014 30.8684C52.0399 30.8684 53.9528 32.921 55.3901 36.6498C56.7909 40.2874 57.5642 45.0283 57.5642 50.002C57.5642 54.9757 56.7929 59.7166 55.3901 63.3542C53.9528 67.083 52.0399 69.1356 50.0034 69.1356H50.0014ZM50.0014 31.4737C46.297 31.4737 43.0459 40.1316 43.0459 50.002C43.0459 59.8725 46.297 68.5304 50.0014 68.5304C53.7059 68.5304 56.9569 59.8725 56.9569 50.002C56.9569 40.1316 53.7079 31.4737 50.0014 31.4737Z" fill="black"/>
<path d="M38.4501 62.7751C35.7193 62.7751 33.7821 61.9614 32.8489 60.4229C30.3732 56.3379 35.9663 48.5585 45.5837 42.7144C51.2396 39.2772 57.2092 37.2266 61.5554 37.2266C64.2861 37.2266 66.2214 38.0403 67.1546 39.5768C69.6323 43.6618 64.0372 51.4411 54.4218 57.2853C48.7659 60.7225 42.7963 62.7731 38.4501 62.7731V62.7751ZM61.5554 38.4816C57.4299 38.4816 51.7031 40.4654 46.2376 43.7873C37.521 49.0849 31.8833 56.4047 33.9258 59.7711C34.8023 61.2164 36.8712 61.5181 38.4521 61.5181C42.5756 61.5181 48.3023 59.5343 53.7699 56.2124C62.4865 50.9148 68.1242 43.595 66.0817 40.2266C65.2072 38.7832 63.1384 38.4796 61.5574 38.4796L61.5554 38.4816Z" fill="black"/>
<path d="M38.4487 63.0787C35.6066 63.0787 33.5803 62.2143 32.5884 60.5807C31.3232 58.4937 31.9791 55.4654 34.4325 52.0524C36.8354 48.7123 40.7382 45.3034 45.4244 42.4552C51.1248 38.9917 57.1532 36.9229 61.552 36.9229C64.3941 36.9229 66.4204 37.7872 67.4103 39.4188C68.6754 41.5058 68.0216 44.5342 65.5661 47.9492C63.1633 51.2892 59.2605 54.6982 54.5762 57.5463C48.8738 61.0099 42.8455 63.0787 38.4467 63.0787H38.4487ZM61.554 37.5301C57.2625 37.5301 51.3495 39.5646 45.7402 42.9755C41.1228 45.7812 37.2827 49.1314 34.9264 52.4067C32.6228 55.6091 31.9771 58.4006 33.1066 60.267C33.9811 61.7103 35.8273 62.4714 38.4467 62.4714C42.7382 62.4714 48.6491 60.437 54.2605 57.0261C58.8779 54.2204 62.7179 50.8702 65.0742 47.5949C67.3779 44.3925 68.0236 41.601 66.892 39.7346C66.0175 38.2933 64.1714 37.5301 61.552 37.5301H61.554ZM38.4487 61.8216C36.7888 61.8216 34.6107 61.4937 33.6633 59.9289C32.6066 58.186 33.3657 55.4816 35.803 52.3176C38.1815 49.2305 41.8293 46.1091 46.0762 43.5281C51.5884 40.1779 57.3738 38.1779 61.552 38.1779C63.2119 38.1779 65.388 38.5058 66.3374 40.0706C67.3941 41.8135 66.635 44.518 64.1977 47.682C61.8192 50.769 58.1714 53.8925 53.9244 56.4714C48.4103 59.8216 42.6248 61.8216 38.4487 61.8216ZM61.554 38.7832C57.4811 38.7832 51.8151 40.7508 46.3941 44.0443C37.9649 49.1658 32.2605 56.4411 34.1835 59.6111C34.9852 60.935 36.9467 61.2123 38.4507 61.2123C42.5216 61.2123 48.1896 59.2447 53.6127 55.9512C62.0398 50.8297 67.7463 43.5544 65.8212 40.3824C65.0196 39.0605 63.058 38.7832 61.556 38.7832H61.554Z" fill="black"/>
<path d="M61.5187 62.52C57.209 62.52 51.3123 60.5989 45.7434 57.3803C36.0005 51.7487 30.2374 44.0949 32.624 39.9572C33.5592 38.3358 35.5856 37.4795 38.4843 37.4795C42.7941 37.4795 48.6908 39.4005 54.2576 42.6192C64.0026 48.2507 69.7637 55.9046 67.377 60.0422C66.4438 61.6617 64.4175 62.52 61.5187 62.52ZM38.4843 38.7346C36.7941 38.7346 34.5936 39.0544 33.7111 40.5827C31.7434 43.9957 37.541 51.188 46.371 56.2933C51.7576 59.4066 57.4196 61.2649 61.5187 61.2649C63.209 61.2649 65.4094 60.9431 66.29 59.4147C68.2576 56.0018 62.46 48.8095 53.6301 43.7042C48.2434 40.5908 42.5835 38.7325 38.4843 38.7325V38.7346Z" fill="black"/>
<path d="M61.5191 62.8236C57.1608 62.8236 51.2053 60.8863 45.592 57.6434C40.845 54.9005 36.8673 51.5786 34.3936 48.2912C31.8652 44.9329 31.1426 41.9187 32.3612 39.8053C33.3531 38.0847 35.4705 37.1758 38.4847 37.1758C42.845 37.1758 48.7984 39.113 54.4098 42.3559C59.1567 45.0989 63.1345 48.4207 65.6082 51.7082C68.1365 55.0665 68.8592 58.0806 67.6385 60.194C66.6466 61.9146 64.5292 62.8236 61.5171 62.8236H61.5191ZM38.4847 37.7831C35.7013 37.7831 33.764 38.5867 32.8875 40.109C31.7984 41.9976 32.5049 44.775 34.8774 47.9268C37.3045 51.1495 41.2175 54.4147 45.8956 57.1191C51.4199 60.3114 57.262 62.2183 61.5191 62.2183C64.3025 62.2183 66.2377 61.4146 67.1142 59.8924C68.2033 58.0037 67.4968 55.2264 65.1244 52.0746C62.6972 48.8519 58.7843 45.5867 54.1061 42.8823C48.5839 39.69 42.7438 37.7831 38.4847 37.7831ZM61.5191 61.5685C57.3693 61.5685 51.6507 59.694 46.2195 56.5564C41.9179 54.0685 38.2013 51.028 35.7559 47.9956C33.2499 44.8843 32.43 42.2001 33.4482 40.4329C34.4017 38.779 36.7134 38.4329 38.4847 38.4329C42.6345 38.4329 48.3531 40.3053 53.7822 43.445C58.0839 45.9329 61.8005 48.9734 64.2458 52.0057C66.7519 55.1171 67.5717 57.8013 66.5535 59.5685C65.598 61.2223 63.2883 61.5705 61.5191 61.5705V61.5685ZM38.4847 39.0381C36.8733 39.0381 34.7843 39.3317 33.9746 40.7345C32.1223 43.947 37.9867 51.0948 46.5231 56.03C51.8652 59.1171 57.4705 60.9612 61.5191 60.9612C63.1284 60.9612 65.2175 60.6657 66.0272 59.2628C67.8794 56.0503 62.015 48.9025 53.4786 43.9673C48.1385 40.8802 42.5312 39.0381 38.4847 39.0381Z" fill="black"/>
<path d="M50.0009 53.3078C48.179 53.3078 46.6973 51.824 46.6973 50.0001C46.6973 48.1762 48.179 46.6924 50.0009 46.6924C51.8228 46.6924 53.3046 48.1762 53.3046 50.0001C53.3046 51.824 51.8228 53.3078 50.0009 53.3078ZM50.0009 47.9474C48.8714 47.9474 47.9523 48.8685 47.9523 50.0001C47.9523 51.1317 48.8714 52.0527 50.0009 52.0527C51.1305 52.0527 52.0495 51.1317 52.0495 50.0001C52.0495 48.8685 51.1305 47.9474 50.0009 47.9474Z" fill="black"/>
<path d="M50.0018 53.6113C48.0119 53.6113 46.3945 51.9919 46.3945 50C46.3945 48.0081 48.014 46.3887 50.0018 46.3887C51.9897 46.3887 53.6091 48.0081 53.6091 50C53.6091 51.9919 51.9897 53.6113 50.0018 53.6113ZM50.0018 46.996C48.348 46.996 47.0018 48.3441 47.0018 50C47.0018 51.6559 48.348 53.0041 50.0018 53.0041C51.6557 53.0041 53.0018 51.6559 53.0018 50C53.0018 48.3441 51.6557 46.996 50.0018 46.996ZM50.0018 52.3563C48.7042 52.3563 47.6496 51.2996 47.6496 50C47.6496 48.7004 48.7042 47.6437 50.0018 47.6437C51.2994 47.6437 52.354 48.7004 52.354 50C52.354 51.2996 51.2994 52.3563 50.0018 52.3563ZM50.0018 48.253C49.0403 48.253 48.2569 49.0364 48.2569 50.002C48.2569 50.9676 49.0403 51.751 50.0018 51.751C50.9634 51.751 51.7468 50.9676 51.7468 50.002C51.7468 49.0364 50.9634 48.253 50.0018 48.253Z" fill="black"/>
</g>
<defs>
<clipPath id="clip0_109_670">
<rect width="100" height="100" fill="white"/>
</clipPath>
</defs>
</svg>
