<svg width="100" height="100" viewBox="0 0 100 100" fill="none" xmlns="http://www.w3.org/2000/svg">
<g clip-path="url(#clip0_163_611)">
<path d="M17.1875 9.375C17.1875 8.4479 16.9126 7.54162 16.3975 6.77077C15.8824 5.99991 15.1504 5.3991 14.2938 5.04432C13.4373 4.68953 12.4948 4.5967 11.5855 4.77757C10.6762 4.95844 9.841 5.40488 9.18544 6.06044C8.52988 6.716 8.08344 7.55123 7.90257 8.46052C7.7217 9.3698 7.81453 10.3123 8.16932 11.1688C8.5241 12.0254 9.12491 12.7574 9.89577 13.2725C10.6666 13.7876 11.5729 14.0625 12.5 14.0625C13.7428 14.0611 14.9343 13.5668 15.8131 12.6881C16.6918 11.8093 17.1861 10.6178 17.1875 9.375ZM10.9375 9.375C10.9375 9.06597 11.0291 8.76388 11.2008 8.50692C11.3725 8.24997 11.6165 8.0497 11.9021 7.93144C12.1876 7.81318 12.5017 7.78224 12.8048 7.84253C13.1079 7.90281 13.3863 8.05163 13.6049 8.27015C13.8234 8.48867 13.9722 8.76708 14.0325 9.07017C14.0928 9.37327 14.0618 9.68744 13.9436 9.97294C13.8253 10.2585 13.625 10.5025 13.3681 10.6742C13.1111 10.8459 12.809 10.9375 12.5 10.9375C12.0857 10.9373 11.6884 10.7726 11.3954 10.4796C11.1025 10.1866 10.9378 9.78933 10.9375 9.375Z" fill="black"/>
<path d="M48.4376 16.9608V17.1875C48.4376 17.6019 48.6022 17.9993 48.8952 18.2924C49.1882 18.5854 49.5857 18.75 50.0001 18.75C50.4145 18.75 50.8119 18.5854 51.1049 18.2924C51.3979 17.9993 51.5626 17.6019 51.5626 17.1875V16.9608C52.4101 16.6975 53.1594 16.1865 53.7138 15.4935C54.2683 14.8005 54.6025 13.9574 54.6734 13.0728C54.7443 12.1881 54.5487 11.3025 54.1118 10.5301C53.6748 9.7576 53.0165 9.1337 52.2218 8.73875L49.1762 7.21594C48.907 7.08168 48.6911 6.86042 48.5635 6.58806C48.4359 6.31569 48.404 6.0082 48.4731 5.71545C48.5421 5.42271 48.7081 5.16189 48.944 4.9753C49.1799 4.7887 49.4719 4.68729 49.7727 4.6875H50.2274C50.5813 4.68816 50.9205 4.82904 51.1708 5.07929C51.421 5.32954 51.5619 5.66875 51.5626 6.02266V6.25C51.5626 6.6644 51.7272 7.06183 52.0202 7.35485C52.3132 7.64788 52.7107 7.8125 53.1251 7.8125C53.5395 7.8125 53.9369 7.64788 54.2299 7.35485C54.5229 7.06183 54.6876 6.6644 54.6876 6.25V6.02266C54.6843 5.07646 54.3796 4.15592 53.8177 3.39466C53.2558 2.6334 52.4658 2.07104 51.5626 1.78922V1.5625C51.5626 1.1481 51.3979 0.750671 51.1049 0.457646C50.8119 0.16462 50.4145 0 50.0001 0C49.5857 0 49.1882 0.16462 48.8952 0.457646C48.6022 0.750671 48.4376 1.1481 48.4376 1.5625V1.78922C47.59 2.05249 46.8408 2.56354 46.2863 3.25651C45.7319 3.94947 45.3976 4.7926 45.3267 5.67724C45.2558 6.56188 45.4514 7.44749 45.8884 8.21995C46.3253 8.9924 46.9836 9.6163 47.7783 10.0112L50.824 11.5341C51.0931 11.6683 51.309 11.8896 51.4367 12.1619C51.5643 12.4343 51.5961 12.7418 51.5271 13.0345C51.458 13.3273 51.292 13.5881 51.0561 13.7747C50.8202 13.9613 50.5282 14.0627 50.2274 14.0625H49.7727C49.4188 14.0618 49.0796 13.921 48.8294 13.6707C48.5791 13.4205 48.4382 13.0812 48.4376 12.7273V12.5C48.4376 12.0856 48.2729 11.6882 47.9799 11.3951C47.6869 11.1021 47.2895 10.9375 46.8751 10.9375C46.4607 10.9375 46.0632 11.1021 45.7702 11.3951C45.4772 11.6882 45.3126 12.0856 45.3126 12.5V12.7273C45.3158 13.6735 45.6205 14.5941 46.1824 15.3553C46.7444 16.1166 47.5343 16.679 48.4376 16.9608Z" fill="black"/>
<path d="M51.5626 83.0392V82.8125C51.5626 82.3981 51.3979 82.0007 51.1049 81.7076C50.8119 81.4146 50.4145 81.25 50.0001 81.25C49.5857 81.25 49.1882 81.4146 48.8952 81.7076C48.6022 82.0007 48.4376 82.3981 48.4376 82.8125V83.0392C47.59 83.3025 46.8408 83.8135 46.2863 84.5065C45.7319 85.1995 45.3976 86.0426 45.3267 86.9272C45.2558 87.8119 45.4514 88.6975 45.8884 89.4699C46.3253 90.2424 46.9836 90.8663 47.7783 91.2612L50.824 92.7841C51.0931 92.9183 51.309 93.1396 51.4367 93.4119C51.5643 93.6843 51.5961 93.9918 51.5271 94.2845C51.458 94.5773 51.292 94.8381 51.0561 95.0247C50.8202 95.2113 50.5282 95.3127 50.2274 95.3125H49.7727C49.4188 95.3118 49.0796 95.171 48.8294 94.9207C48.5791 94.6705 48.4382 94.3312 48.4376 93.9773V93.75C48.4376 93.3356 48.2729 92.9382 47.9799 92.6451C47.6869 92.3521 47.2895 92.1875 46.8751 92.1875C46.4607 92.1875 46.0632 92.3521 45.7702 92.6451C45.4772 92.9382 45.3126 93.3356 45.3126 93.75V93.9773C45.3158 94.9235 45.6205 95.8441 46.1824 96.6053C46.7444 97.3666 47.5343 97.929 48.4376 98.2108V98.4375C48.4376 98.8519 48.6022 99.2493 48.8952 99.5424C49.1882 99.8354 49.5857 100 50.0001 100C50.4145 100 50.8119 99.8354 51.1049 99.5424C51.3979 99.2493 51.5626 98.8519 51.5626 98.4375V98.2108C52.4101 97.9475 53.1594 97.4365 53.7138 96.7435C54.2683 96.0505 54.6025 95.2074 54.6734 94.3228C54.7443 93.4381 54.5487 92.5525 54.1118 91.7801C53.6748 91.0076 53.0165 90.3837 52.2218 89.9888L49.1762 88.4659C48.907 88.3317 48.6911 88.1104 48.5635 87.8381C48.4359 87.5657 48.404 87.2582 48.4731 86.9655C48.5421 86.6727 48.7081 86.4119 48.944 86.2253C49.1799 86.0387 49.4719 85.9373 49.7727 85.9375H50.2274C50.5813 85.9382 50.9205 86.079 51.1708 86.3293C51.421 86.5795 51.5619 86.9188 51.5626 87.2727V87.5C51.5626 87.9144 51.7272 88.3118 52.0202 88.6049C52.3132 88.8979 52.7107 89.0625 53.1251 89.0625C53.5395 89.0625 53.9369 88.8979 54.2299 88.6049C54.5229 88.3118 54.6876 87.9144 54.6876 87.5V87.2727C54.6843 86.3265 54.3796 85.4059 53.8177 84.6447C53.2558 83.8834 52.4658 83.321 51.5626 83.0392Z" fill="black"/>
<path d="M92.1876 48.4375C92.602 48.4375 92.9994 48.2729 93.2924 47.9799C93.5854 47.6868 93.7501 47.2894 93.7501 46.875V46.6477C93.7468 45.7015 93.4421 44.7809 92.8802 44.0197C92.3183 43.2584 91.5283 42.696 90.6251 42.4142V42.1875C90.6251 41.7731 90.4604 41.3757 90.1674 41.0826C89.8744 40.7896 89.477 40.625 89.0626 40.625C88.6482 40.625 88.2507 40.7896 87.9577 41.0826C87.6647 41.3757 87.5001 41.7731 87.5001 42.1875V42.4142C86.6525 42.6775 85.9033 43.1885 85.3488 43.8815C84.7944 44.5745 84.4601 45.4176 84.3892 46.3022C84.3183 47.1869 84.5139 48.0725 84.9509 48.8449C85.3878 49.6174 86.0461 50.2413 86.8408 50.6362L89.8865 52.1591C90.1556 52.2933 90.3715 52.5146 90.4992 52.7869C90.6268 53.0593 90.6586 53.3668 90.5896 53.6595C90.5205 53.9523 90.3545 54.2131 90.1186 54.3997C89.8827 54.5863 89.5907 54.6877 89.2899 54.6875H88.8352C88.4813 54.6868 88.1421 54.546 87.8919 54.2957C87.6416 54.0455 87.5007 53.7062 87.5001 53.3523V53.125C87.5001 52.7106 87.3354 52.3132 87.0424 52.0201C86.7494 51.7271 86.352 51.5625 85.9376 51.5625C85.5232 51.5625 85.1257 51.7271 84.8327 52.0201C84.5397 52.3132 84.3751 52.7106 84.3751 53.125V53.3523C84.3783 54.2985 84.683 55.2191 85.2449 55.9803C85.8069 56.7416 86.5968 57.304 87.5001 57.5858V57.8125C87.5001 58.2269 87.6647 58.6243 87.9577 58.9174C88.2507 59.2104 88.6482 59.375 89.0626 59.375C89.477 59.375 89.8744 59.2104 90.1674 58.9174C90.4604 58.6243 90.6251 58.2269 90.6251 57.8125V57.5858C91.4726 57.3225 92.2219 56.8115 92.7763 56.1185C93.3308 55.4255 93.665 54.5824 93.7359 53.6978C93.8068 52.8131 93.6112 51.9275 93.1743 51.1551C92.7373 50.3826 92.079 49.7587 91.2843 49.3638L88.2387 47.8409C87.9695 47.7067 87.7536 47.4854 87.626 47.2131C87.4984 46.9407 87.4665 46.6332 87.5356 46.3405C87.6046 46.0477 87.7706 45.7869 88.0065 45.6003C88.2424 45.4137 88.5344 45.3123 88.8352 45.3125H89.2899C89.6438 45.3132 89.983 45.454 90.2333 45.7043C90.4835 45.9545 90.6244 46.2938 90.6251 46.6477V46.875C90.6251 47.2894 90.7897 47.6868 91.0827 47.9799C91.3757 48.2729 91.7732 48.4375 92.1876 48.4375Z" fill="black"/>
<path d="M7.81257 51.5625C7.39817 51.5625 7.00074 51.7271 6.70771 52.0201C6.41469 52.3132 6.25007 52.7106 6.25007 53.125V53.3523C6.2533 54.2985 6.558 55.2191 7.11994 55.9803C7.68188 56.7416 8.47181 57.304 9.37507 57.5858V57.8125C9.37507 58.2269 9.53969 58.6243 9.83271 58.9174C10.1257 59.2104 10.5232 59.375 10.9376 59.375C11.352 59.375 11.7494 59.2104 12.0424 58.9174C12.3354 58.6243 12.5001 58.2269 12.5001 57.8125V57.5858C13.3476 57.3225 14.0969 56.8115 14.6513 56.1185C15.2058 55.4255 15.54 54.5824 15.6109 53.6978C15.6818 52.8131 15.4862 51.9275 15.0493 51.1551C14.6123 50.3826 13.954 49.7587 13.1593 49.3638L10.1137 47.8409C9.84451 47.7067 9.62861 47.4854 9.50098 47.2131C9.37336 46.9407 9.3415 46.6332 9.41057 46.3405C9.47964 46.0477 9.64559 45.7869 9.8815 45.6003C10.1174 45.4137 10.4094 45.3123 10.7102 45.3125H11.1649C11.5188 45.3132 11.858 45.454 12.1083 45.7043C12.3585 45.9545 12.4994 46.2938 12.5001 46.6477V46.875C12.5001 47.2894 12.6647 47.6868 12.9577 47.9799C13.2507 48.2729 13.6482 48.4375 14.0626 48.4375C14.477 48.4375 14.8744 48.2729 15.1674 47.9799C15.4604 47.6868 15.6251 47.2894 15.6251 46.875V46.6477C15.6218 45.7015 15.3171 44.7809 14.7552 44.0197C14.1933 43.2584 13.4033 42.696 12.5001 42.4142V42.1875C12.5001 41.7731 12.3354 41.3757 12.0424 41.0826C11.7494 40.7896 11.352 40.625 10.9376 40.625C10.5232 40.625 10.1257 40.7896 9.83271 41.0826C9.53969 41.3757 9.37507 41.7731 9.37507 42.1875V42.4142C8.52754 42.6775 7.77827 43.1885 7.22382 43.8815C6.66937 44.5745 6.33514 45.4176 6.26422 46.3022C6.19329 47.1869 6.38891 48.0725 6.82586 48.8449C7.26282 49.6174 7.92109 50.2413 8.71585 50.6362L11.7615 52.1591C12.0306 52.2933 12.2465 52.5146 12.3742 52.7869C12.5018 53.0593 12.5336 53.3668 12.4646 53.6595C12.3955 53.9523 12.2295 54.2131 11.9936 54.3997C11.7577 54.5863 11.4657 54.6877 11.1649 54.6875H10.7102C10.3563 54.6868 10.0171 54.546 9.76686 54.2957C9.51661 54.0455 9.37573 53.7062 9.37507 53.3523V53.125C9.37507 52.7106 9.21045 52.3132 8.91742 52.0201C8.6244 51.7271 8.22697 51.5625 7.81257 51.5625Z" fill="black"/>
<path d="M52.7475 31.8203C52.6334 31.557 52.4491 31.3302 52.2147 31.1646C51.9802 30.9991 51.7048 30.9013 51.4184 30.8819C51.1325 30.8675 50.8479 30.9299 50.5941 31.0624C50.3404 31.195 50.1266 31.3929 49.975 31.6358L45.6713 38.7797L35.753 43.0722C33.9925 43.8118 32.5234 45.1086 31.5712 46.7637C30.6189 48.4188 30.2361 50.3406 30.4815 52.2343C30.727 54.1279 31.5871 55.8887 32.9298 57.2463C34.2725 58.6039 36.0237 59.4834 37.9145 59.7497L43.9402 68.4483C44.1461 68.7453 44.4485 68.9619 44.796 69.0612C45.1435 69.1605 45.5146 69.1365 45.8464 68.9932L51.5074 66.5441C51.7195 66.4523 51.9087 66.3145 52.0612 66.1407C52.2137 65.967 52.3257 65.7615 52.3892 65.5392C52.4527 65.3169 52.4661 65.0833 52.4284 64.8552C52.3906 64.6271 52.3028 64.4102 52.1711 64.2202L50.2286 61.4156C51.2226 60.788 51.9422 59.8073 52.2425 58.6707C52.5429 57.5342 52.4018 56.326 51.8477 55.2892L51.8075 55.2133L52.6263 54.8591L60.7806 56.6128C60.8884 56.6367 60.9984 56.6485 61.1088 56.648C61.3679 56.6481 61.623 56.5837 61.851 56.4607C62.0791 56.3377 62.273 56.1599 62.4152 55.9433C62.5575 55.7267 62.6436 55.4781 62.6659 55.22C62.6882 54.9618 62.646 54.7022 62.543 54.4644L52.7475 31.8203ZM34.0586 53.3491C33.7648 52.67 33.6076 51.9397 33.5961 51.1998C33.5845 50.46 33.7188 49.7251 33.9913 49.0372C34.2638 48.3493 34.6691 47.7217 35.1841 47.1905C35.6991 46.6592 36.3137 46.2345 36.9928 45.9408L45.9349 42.0702L50.4089 52.4125L41.4652 56.281C40.0904 56.8566 38.5469 56.8812 37.1545 56.3497C36.4657 56.0791 35.8374 55.6746 35.306 55.1595C34.7746 54.6445 34.3506 54.0291 34.0586 53.3491ZM45.7806 65.6155L41.5775 59.5486C41.961 59.4365 42.338 59.3031 42.7066 59.1489L44.3608 58.4333L48.5156 64.4314L45.7806 65.6155ZM49.0872 56.7533C49.1891 56.9433 49.2502 57.1525 49.2663 57.3674C49.2824 57.5824 49.2534 57.7984 49.1809 58.0014C49.0491 58.3628 48.7857 58.6611 48.4433 58.8366L47.287 57.1678L48.93 56.4572L49.0872 56.7533ZM53.5795 51.8674L48.5031 40.133L51.0845 35.8489L58.4699 52.9189L53.5795 51.8674Z" fill="black"/>
<path d="M58.5504 42.7516C58.7157 43.1315 59.0249 43.4303 59.4102 43.5826C59.7955 43.7349 60.2254 43.7282 60.6058 43.5641L66.2667 41.1136C66.6471 40.9489 66.9465 40.6398 67.0991 40.2544C67.2516 39.8689 67.2447 39.4387 67.08 39.0582C66.9153 38.6778 66.6063 38.3784 66.2208 38.2259C65.8353 38.0733 65.4051 38.0802 65.0247 38.2449L59.3637 40.6955C58.9833 40.8605 58.684 41.1697 58.5315 41.5552C58.379 41.9408 58.3858 42.3711 58.5504 42.7516Z" fill="black"/>
<path d="M59.2149 38.324L62.7075 33.452C62.9491 33.1153 63.0471 32.6964 62.9798 32.2875C62.9126 31.8786 62.6857 31.5131 62.349 31.2715C62.1822 31.1519 61.9936 31.0663 61.7938 31.0196C61.594 30.9728 61.3869 30.9659 61.1844 30.9992C60.7755 31.0665 60.4101 31.2934 60.1685 31.6301L56.6758 36.5021C56.4342 36.8388 56.3363 37.2577 56.4035 37.6666C56.4708 38.0756 56.6977 38.441 57.0344 38.6826C57.3711 38.9242 57.79 39.0222 58.1989 38.9549C58.6078 38.8877 58.9733 38.6607 59.2149 38.324Z" fill="black"/>
<path d="M60.4776 46.6416C60.4504 46.845 60.4636 47.0518 60.5164 47.2501C60.5692 47.4484 60.6605 47.6343 60.7852 47.7973C60.9099 47.9602 61.0655 48.097 61.2431 48.1998C61.4207 48.3026 61.6169 48.3694 61.8203 48.3963L67.7622 49.1867C67.831 49.1959 67.9003 49.2005 67.9697 49.2005C68.3659 49.1999 68.7471 49.0487 69.0362 48.7777C69.3252 48.5066 69.5004 48.1358 69.5264 47.7404C69.5523 47.345 69.4271 46.9545 69.176 46.648C68.925 46.3414 68.5668 46.1417 68.174 46.0893L62.2323 45.2988C61.8216 45.2442 61.406 45.355 61.0769 45.6068C60.7478 45.8586 60.5323 46.2309 60.4776 46.6416Z" fill="black"/>
<path d="M87.5 14.0625C88.4271 14.0625 89.3334 13.7876 90.1042 13.2725C90.8751 12.7574 91.4759 12.0254 91.8307 11.1688C92.1855 10.3123 92.2783 9.3698 92.0974 8.46052C91.9166 7.55123 91.4701 6.716 90.8146 6.06044C90.159 5.40488 89.3238 4.95844 88.4145 4.77757C87.5052 4.5967 86.5627 4.68953 85.7062 5.04432C84.8496 5.3991 84.1176 5.99991 83.6025 6.77077C83.0874 7.54162 82.8125 8.4479 82.8125 9.375C82.8139 10.6178 83.3082 11.8093 84.1869 12.6881C85.0657 13.5668 86.2572 14.0611 87.5 14.0625ZM87.5 7.8125C87.809 7.8125 88.1111 7.90414 88.3681 8.07583C88.625 8.24752 88.8253 8.49155 88.9436 8.77706C89.0618 9.06257 89.0928 9.37674 89.0325 9.67983C88.9722 9.98293 88.8234 10.2613 88.6049 10.4799C88.3863 10.6984 88.1079 10.8472 87.8048 10.9075C87.5017 10.9678 87.1876 10.9368 86.9021 10.8186C86.6165 10.7003 86.3725 10.5 86.2008 10.2431C86.0291 9.98613 85.9375 9.68404 85.9375 9.375C85.9377 8.96068 86.1024 8.56339 86.3954 8.27042C86.6884 7.97745 87.0857 7.81275 87.5 7.8125Z" fill="black"/>
<path d="M12.5 79.6875C11.5729 79.6875 10.6666 79.9624 9.89577 80.4775C9.12491 80.9926 8.5241 81.7246 8.16932 82.5812C7.81453 83.4377 7.7217 84.3802 7.90257 85.2895C8.08344 86.1988 8.52988 87.034 9.18544 87.6896C9.841 88.3451 10.6762 88.7916 11.5855 88.9724C12.4948 89.1533 13.4373 89.0605 14.2938 88.7057C15.1504 88.3509 15.8824 87.7501 16.3975 86.9792C16.9126 86.2084 17.1875 85.3021 17.1875 84.375C17.1861 83.1322 16.6918 81.9407 15.8131 81.0619C14.9343 80.1832 13.7428 79.6889 12.5 79.6875ZM12.5 85.9375C12.191 85.9375 11.8889 85.8459 11.6319 85.6742C11.375 85.5025 11.1747 85.2585 11.0564 84.9729C10.9382 84.6874 10.9072 84.3733 10.9675 84.0702C11.0278 83.7671 11.1766 83.4887 11.3951 83.2701C11.6137 83.0516 11.8921 82.9028 12.1952 82.8425C12.4983 82.7822 12.8124 82.8132 13.0979 82.9314C13.3835 83.0497 13.6275 83.25 13.7992 83.5069C13.9709 83.7639 14.0625 84.066 14.0625 84.375C14.0623 84.7893 13.8976 85.1866 13.6046 85.4796C13.3116 85.7726 12.9143 85.9373 12.5 85.9375Z" fill="black"/>
<path d="M87.4998 74.9998C84.7053 74.9998 81.9924 75.9418 79.7993 77.6737L70.8985 68.7729C75.5429 63.6341 78.1175 56.9561 78.1248 50.0295C78.1321 43.1029 75.5716 36.4195 70.9381 31.2709L79.8513 22.3578C82.0327 24.0706 84.7263 25.0011 87.4998 24.9998C90.3416 25.0138 93.1043 24.0639 95.3365 22.3051C97.5688 20.5463 99.1388 18.0826 99.79 15.3164C100.441 12.5501 100.135 9.64476 98.9223 7.07481C97.7091 4.50486 95.6605 2.42218 93.1108 1.16689C90.5612 -0.088399 87.6613 -0.442113 84.8847 0.163513C82.1081 0.76914 79.6189 2.29832 77.8236 4.50132C76.0283 6.70431 75.033 9.45094 75.0002 12.2926C74.9674 15.1343 75.8992 17.9032 77.6432 20.147L68.7292 29.061C63.6048 24.4367 56.948 21.8763 50.0456 21.8748H49.9998C43.0818 21.8656 36.407 24.4268 31.2709 29.0613L22.3538 20.1445C24.3169 17.6193 25.2436 14.4407 24.9451 11.2562C24.6467 8.07162 23.1455 5.12061 20.7474 3.00413C18.3493 0.887649 15.2346 -0.235114 12.0377 -0.135497C8.84073 -0.0358807 5.80198 1.27862 3.5403 3.5403C1.27862 5.80198 -0.0358807 8.84073 -0.135497 12.0377C-0.235114 15.2346 0.887649 18.3493 3.00413 20.7474C5.12061 23.1455 8.07162 24.6467 11.2562 24.9451C14.4407 25.2436 17.6193 24.3169 20.1445 22.3538L29.061 31.2704C24.4277 36.4192 21.8673 43.1027 21.8748 50.0293C21.8822 56.9558 24.4569 63.6338 29.1013 68.7726L20.2003 77.6737C17.6871 75.6983 14.5155 74.7551 11.3313 75.0363C8.14711 75.3174 5.18982 76.8017 3.06169 79.1869C0.93356 81.5721 -0.205364 84.6788 -0.12314 87.8744C-0.0409163 91.0699 1.25627 94.1139 3.50425 96.3865C5.75223 98.6591 8.78194 99.9893 11.9764 100.106C15.1708 100.223 18.2897 99.1184 20.698 97.0163C23.1062 94.9143 24.6226 91.9734 24.9384 88.7924C25.2542 85.6115 24.3457 82.4298 22.3978 79.8953L31.3145 70.9785C36.4334 75.5783 43.072 78.1235 49.954 78.1248H49.9998C56.8973 78.134 63.5538 75.588 68.6846 70.9781L77.6018 79.8953C75.8887 82.1331 74.9831 84.8847 75.0324 87.7025C75.0817 90.5204 76.083 93.2387 77.8734 95.4152C79.6637 97.5917 82.1379 99.0984 84.8933 99.6902C87.6488 100.282 90.5234 99.924 93.0496 98.6746C95.5758 97.4252 97.6049 95.3578 98.8069 92.8086C100.009 90.2595 100.313 87.3787 99.6697 84.6348C99.0265 81.8909 97.4738 79.4454 95.2642 77.696C93.0546 75.9467 90.3181 74.9964 87.4998 74.9998ZM87.4998 21.8387C85.7665 21.8543 84.0641 21.38 82.5885 20.4704C83.9948 19.383 85.7221 18.793 87.4998 18.793C89.2774 18.793 91.0048 19.383 92.411 20.4704C90.9358 21.3806 89.2332 21.8549 87.4998 21.8387ZM87.4998 3.12478C89.2697 3.12307 91.004 3.62292 92.5015 4.56641C93.999 5.5099 95.1985 6.85841 95.961 8.45569C96.7236 10.053 97.0179 11.8336 96.8099 13.5913C96.6019 15.349 95.9001 17.0118 94.7859 18.387C92.776 16.6073 90.1843 15.6248 87.4998 15.6248C84.8153 15.6248 82.2235 16.6073 80.2137 18.387C79.0994 17.0118 78.3976 15.349 78.1897 13.5913C77.9817 11.8336 78.276 10.053 79.0385 8.45569C79.8011 6.85841 81.0006 5.5099 82.4981 4.56641C83.9956 3.62292 85.7298 3.12307 87.4998 3.12478ZM3.12478 12.4998C3.12282 10.9991 3.48116 9.51983 4.16967 8.18638C4.85818 6.85293 5.85675 5.70426 7.08142 4.83691C8.3061 3.96956 9.72111 3.40889 11.2075 3.20203C12.6939 2.99517 14.2082 3.14815 15.6232 3.64813C17.0381 4.14811 18.3124 4.98047 19.3389 6.07525C20.3653 7.17002 21.114 8.49521 21.5218 9.93942C21.9297 11.3836 21.985 12.9047 21.6829 14.3747C21.3808 15.8447 20.7302 17.2206 19.7859 18.387C17.7651 16.6255 15.1804 15.6457 12.4998 15.6248C9.81912 15.6457 7.2345 16.6255 5.21369 18.387C3.86131 16.7231 3.1236 14.644 3.12478 12.4998ZM12.4998 21.8387C10.7665 21.8543 9.06407 21.38 7.58853 20.4704C8.99477 19.383 10.7221 18.793 12.4998 18.793C14.2774 18.793 16.0048 19.383 17.411 20.4704C15.9358 21.3806 14.2331 21.8549 12.4998 21.8387ZM12.4998 96.8387C10.7665 96.8543 9.06407 96.38 7.58853 95.4704C8.99477 94.383 10.7221 93.793 12.4998 93.793C14.2774 93.793 16.0048 94.383 17.411 95.4704C15.9358 96.3806 14.2331 96.8549 12.4998 96.8387ZM19.7859 93.387C17.7651 91.6255 15.1804 90.6457 12.4998 90.6248C9.81912 90.6457 7.2345 91.6255 5.21369 93.387C4.09948 92.0109 3.39775 90.3474 3.18972 88.589C2.98168 86.8307 3.27585 85.0493 4.03817 83.4512C4.80049 81.8531 5.99979 80.5036 7.49727 79.5588C8.99474 78.614 10.7292 78.1125 12.4998 78.1125C14.2704 78.1125 16.0048 78.614 17.5023 79.5588C18.9998 80.5036 20.1991 81.8531 20.9614 83.4512C21.7237 85.0493 22.0179 86.8307 21.8098 88.589C21.6018 90.3474 20.9001 92.0109 19.7859 93.387ZM49.9601 74.9998C43.3297 74.9945 36.9729 72.3556 32.2882 67.6634C27.6036 62.9713 24.9747 56.6104 24.9799 49.9799C24.9852 43.3495 27.6242 36.9928 32.3163 32.3081C37.0084 27.6234 43.3694 24.9945 49.9998 24.9998H50.0395C56.6699 25.005 63.0266 27.644 67.7113 32.3361C72.396 37.0283 75.0249 43.3892 75.0196 50.0196C75.0144 56.65 72.3754 63.0068 67.6833 67.6915C62.9911 72.3762 56.6302 75.0051 49.9998 74.9998H49.9601ZM87.4998 96.8387C85.7665 96.8543 84.0641 96.38 82.5885 95.4704C83.9948 94.383 85.7221 93.793 87.4998 93.793C89.2774 93.793 91.0048 94.383 92.411 95.4704C90.9358 96.3806 89.2332 96.8549 87.4998 96.8387ZM94.7859 93.387C92.776 91.6073 90.1843 90.6248 87.4998 90.6248C84.8153 90.6248 82.2235 91.6073 80.2137 93.387C79.0995 92.0109 78.3978 90.3474 78.1897 88.589C77.9817 86.8307 78.2758 85.0493 79.0382 83.4512C79.8005 81.8531 80.9998 80.5036 82.4973 79.5588C83.9947 78.614 85.7292 78.1125 87.4998 78.1125C89.2704 78.1125 91.0048 78.614 92.5023 79.5588C93.9998 80.5036 95.1991 81.8531 95.9614 83.4512C96.7237 85.0493 97.0179 86.8307 96.8099 88.589C96.6018 90.3474 95.9001 92.0109 94.7859 93.387Z" fill="black"/>
<path d="M87.5 79.6875C86.5729 79.6875 85.6666 79.9624 84.8958 80.4775C84.1249 80.9926 83.5241 81.7246 83.1693 82.5812C82.8145 83.4377 82.7217 84.3802 82.9026 85.2895C83.0834 86.1988 83.5299 87.034 84.1854 87.6896C84.841 88.3451 85.6762 88.7916 86.5855 88.9724C87.4948 89.1533 88.4373 89.0605 89.2938 88.7057C90.1504 88.3509 90.8824 87.7501 91.3975 86.9792C91.9126 86.2084 92.1875 85.3021 92.1875 84.375C92.1861 83.1322 91.6918 81.9407 90.8131 81.0619C89.9343 80.1832 88.7428 79.6889 87.5 79.6875ZM87.5 85.9375C87.191 85.9375 86.8889 85.8459 86.6319 85.6742C86.375 85.5025 86.1747 85.2585 86.0564 84.9729C85.9382 84.6874 85.9072 84.3733 85.9675 84.0702C86.0278 83.7671 86.1766 83.4887 86.3951 83.2701C86.6137 83.0516 86.8921 82.9028 87.1952 82.8425C87.4983 82.7822 87.8124 82.8132 88.0979 82.9314C88.3835 83.0497 88.6275 83.25 88.7992 83.5069C88.9709 83.7639 89.0625 84.066 89.0625 84.375C89.0623 84.7893 88.8976 85.1866 88.6046 85.4796C88.3116 85.7726 87.9143 85.9373 87.5 85.9375Z" fill="black"/>
</g>
<defs>
<clipPath id="clip0_163_611">
<rect width="100" height="100" fill="white"/>
</clipPath>
</defs>
</svg>
