<svg width="100" height="100" viewBox="0 0 100 100" fill="none" xmlns="http://www.w3.org/2000/svg">
<path d="M72.6663 47.7062H27.3333C24.9407 47.7062 22.9941 49.6529 22.9941 52.0457V90.4941C22.9941 92.8869 24.9407 94.8336 27.3333 94.8336H72.6663C75.0591 94.8336 77.0058 92.8869 77.0058 90.4941V52.0457C77.0058 49.6529 75.0591 47.7062 72.6663 47.7062ZM43.3349 50.8312H56.665V59.4576L51.7689 55.4437C50.7437 54.6029 49.256 54.6031 48.2314 55.4435L43.3351 59.4576V50.8312H43.3349ZM73.8808 90.4941C73.8808 91.1639 73.3361 91.7086 72.6663 91.7086H27.3333C26.6638 91.7086 26.1191 91.1639 26.1191 90.4941V52.0457C26.1191 51.376 26.6638 50.8312 27.3333 50.8312H40.2099V60.1662C40.2099 61.2562 40.8214 62.2228 41.8058 62.6887C42.1911 62.8711 42.5993 62.9607 43.0042 62.9607C43.6339 62.9605 44.2552 62.7441 44.7683 62.3234L49.9999 58.0346L55.2316 62.3234C56.0745 63.0148 57.2101 63.1547 58.1941 62.6887C59.1784 62.2228 59.79 61.2562 59.79 60.1662V50.8312H72.6665C73.3362 50.8312 73.881 51.376 73.881 52.0457V90.4941H73.8808ZM45.1073 76.4633H32.8876C32.0247 76.4633 31.3251 77.1629 31.3251 78.0258V84.9398C31.3251 85.8027 32.0247 86.5023 32.8876 86.5023H45.1073C45.9702 86.5023 46.6698 85.8027 46.6698 84.9398V78.0258C46.6698 77.1631 45.9704 76.4633 45.1073 76.4633ZM43.5448 83.3775H34.4501V79.5885H43.5448V83.3775ZM42.1585 23.4445L40.1517 32.0012C40.0081 32.6135 40.2456 33.2523 40.7544 33.6221C41.2632 33.9918 41.9443 34.0203 42.4821 33.6945L49.9999 29.1416L57.5177 33.6945C57.7671 33.8457 58.0474 33.9205 58.3271 33.9205C58.6503 33.9205 58.9728 33.8203 59.2456 33.6221C59.7544 33.2523 59.9921 32.6135 59.8484 32.0012L57.8415 23.4445L64.4946 17.7016C64.9708 17.2906 65.154 16.6342 64.9597 16.0359C64.7653 15.4379 64.2312 15.0145 63.6044 14.9617L54.8464 14.2262L51.4405 6.12402C51.1968 5.54414 50.629 5.16699 50.0001 5.16699C49.3712 5.16699 48.8034 5.54414 48.5597 6.12402L45.1538 14.2262L36.3958 14.9617C35.7691 15.0145 35.2349 15.4377 35.0405 16.0359C34.8462 16.6342 35.0294 17.2906 35.5056 17.7016L42.1585 23.4445ZM46.3581 17.2611C46.9378 17.2125 47.4423 16.8459 47.6679 16.3096L49.9999 10.7617L52.3319 16.3096C52.5573 16.8459 53.062 17.2125 53.6417 17.2611L59.639 17.7648L55.0831 21.6975C54.6429 22.0775 54.4501 22.6707 54.5829 23.2369L55.9571 29.0961L50.8095 25.9785C50.312 25.6771 49.6882 25.6771 49.1907 25.9785L44.0429 29.0961L45.4171 23.2369C45.5499 22.6707 45.3571 22.0773 44.9169 21.6975L40.361 17.7648L46.3581 17.2611ZM29.9165 38.1113C30.015 37.49 29.7312 36.8703 29.1966 36.5391L21.7269 31.9076L22.3704 23.1424C22.4165 22.515 22.0819 21.9213 21.5214 21.6357C20.9609 21.3502 20.2841 21.4283 19.8036 21.8346L13.0907 27.5074L4.95324 24.1867C4.37081 23.949 3.70265 24.0838 3.25812 24.5285C2.81339 24.9732 2.67863 25.6414 2.91632 26.2236L6.23703 34.3611L0.564369 41.0738C0.158314 41.5543 0.0801892 42.2312 0.365541 42.7916C0.651088 43.3521 1.24464 43.6865 1.87218 43.6406L10.6374 42.9971L15.2691 50.4666C15.5568 50.9309 16.0618 51.2059 16.5966 51.2059C16.6778 51.2059 16.7595 51.1996 16.8413 51.1865C17.4626 51.0881 17.9644 50.6268 18.1144 50.016L20.2109 41.4807L28.746 39.3842C29.3568 39.2344 29.8181 38.7326 29.9165 38.1113ZM18.5464 38.6717C17.9816 38.8103 17.5405 39.2516 17.4017 39.8164L15.9661 45.6609L12.7946 40.5461C12.5085 40.0844 12.005 39.807 11.4671 39.807C11.429 39.807 11.3907 39.8084 11.3525 39.8111L5.3505 40.2518L9.23507 35.6549C9.61046 35.2105 9.70812 34.5945 9.4882 34.0561L7.21437 28.484L12.7866 30.7578C13.3249 30.9775 13.9411 30.8801 14.3855 30.5047L18.9821 26.6201L18.5415 32.6223C18.4989 33.2023 18.7821 33.758 19.2765 34.0646L24.3913 37.2361L18.5464 38.6717ZM99.4355 41.0738L93.7626 34.3609L97.0833 26.2234C97.3208 25.6412 97.1862 24.973 96.7415 24.5283C96.2968 24.0834 95.6286 23.9486 95.0464 24.1865L86.9089 27.5072L80.196 21.8344C79.7157 21.4285 79.0386 21.3502 78.4782 21.6355C77.9177 21.9211 77.5831 22.5148 77.6292 23.1422L78.2728 31.9074L70.803 36.5389C70.2685 36.8703 69.9849 37.49 70.0831 38.1111C70.1814 38.7322 70.6429 39.2342 71.2536 39.3842L79.7888 41.4807L81.8853 50.016C82.0353 50.6268 82.537 51.0881 83.1583 51.1865C83.2402 51.1994 83.322 51.2059 83.403 51.2059C83.9378 51.2059 84.4429 50.9309 84.7306 50.4666L89.362 42.9971L98.1273 43.6406C98.7532 43.6875 99.3482 43.3521 99.6339 42.7916C99.9198 42.2312 99.8415 41.5543 99.4355 41.0738ZM88.6474 39.8111C88.0655 39.7693 87.5114 40.0518 87.205 40.5461L84.0335 45.6609L82.598 39.8164C82.4593 39.2516 82.0181 38.8105 81.4532 38.6717L75.6087 37.2361L80.7235 34.0646C81.2179 33.7582 81.5011 33.2023 81.4585 32.6223L81.0179 26.6201L85.6146 30.5047C86.0589 30.8801 86.6751 30.9775 87.2134 30.7578L92.7857 28.484L90.5118 34.0562C90.2921 34.5947 90.3896 35.2107 90.765 35.6551L94.6495 40.2518L88.6474 39.8111Z" fill="black"/>
</svg>
