<svg width="100" height="100" viewBox="0 0 100 100" fill="none" xmlns="http://www.w3.org/2000/svg">
<path d="M96.9727 35.5645H93.1086C90.2002 26.8926 84.5975 19.1289 77.241 13.6125C69.3318 7.68164 59.9121 4.54688 50 4.54688C40.0879 4.54688 30.6682 7.68164 22.7588 13.6125C15.4025 19.1289 9.7998 26.8926 6.89141 35.5645H3.02734C1.35801 35.5645 0 36.9225 0 38.5918V61.4082C0 63.0775 1.35801 64.4355 3.02734 64.4355H6.89219C8.97344 70.6438 12.4357 76.423 16.9539 81.2061C21.7068 86.2375 27.6285 90.1723 34.0789 92.5848C34.2478 92.648 34.4213 92.6781 34.5918 92.6781C35.1854 92.6781 35.7437 92.3148 35.9639 91.726C36.2473 90.9684 35.8627 90.1244 35.1051 89.841C33.7719 89.3424 32.4721 88.7736 31.2055 88.1465L29.9721 83.6881L34.7389 82.452C39.1063 84.5107 43.8488 85.6615 48.7346 85.8311L46.8959 87.6402C46.4775 88.0519 46.2473 88.602 46.2473 89.1889C46.2473 89.776 46.4777 90.3258 46.8963 90.7379L48.6887 92.5016C46.2477 92.4273 43.8217 92.1482 41.46 91.6648C40.6676 91.5035 39.8934 92.0133 39.7311 92.8063C39.5688 93.5988 40.0799 94.3728 40.8725 94.5352C43.85 95.1445 46.9211 95.4535 50.0002 95.4535C59.9123 95.4535 69.332 92.3186 77.2414 86.3879C84.5979 80.8717 90.2004 73.108 93.109 64.4359H96.9727C98.642 64.4359 100 63.0779 100 61.4086V38.5918C100 36.9225 98.642 35.5645 96.9727 35.5645ZM68.3012 35.5645C68.2887 35.559 68.2775 35.5516 68.2648 35.5463L63.7523 33.7029C62.7846 33.3068 61.9178 32.677 61.2459 31.8809L58.1123 28.1729C57.6736 27.6432 56.9564 27.4064 56.2814 27.5699L51.5504 28.7324C50.5449 28.9814 49.4578 28.982 48.4473 28.7318L43.7146 27.5687C43.0436 27.4061 42.327 27.6432 41.8969 28.1621L38.7537 31.8814C38.0822 32.6771 37.215 33.307 36.2467 33.7027L31.7324 35.5475C31.7207 35.5523 31.7102 35.5594 31.6984 35.5645H28.3355L28.373 35.0609C28.4064 34.6078 28.6889 34.2195 29.1109 34.0475L35.3473 31.4986C35.9639 31.2465 36.5143 30.8459 36.9353 30.3439L41.2828 25.1996C41.577 24.8518 42.0346 24.7037 42.4762 24.8111L49.0137 26.4201C49.6592 26.5797 50.3414 26.5801 50.985 26.4205L57.5229 24.8115C57.9652 24.7029 58.4232 24.8516 58.7174 25.1994L63.0617 30.3398C63.4861 30.8459 64.0363 31.2465 64.6529 31.4986L70.8902 34.0479C71.3113 34.2197 71.5939 34.6078 71.6271 35.0617L71.6645 35.5645H68.3012ZM74.6021 35.5645L74.5486 34.8453C74.4328 33.275 73.4549 31.9299 71.9975 31.3354L65.7611 28.7865C65.5832 28.7137 65.4254 28.5996 65.3021 28.4527L60.9543 23.308C59.9373 22.1051 58.3545 21.5904 56.8236 21.9662L50.2828 23.576C50.0951 23.6221 49.9045 23.6223 49.715 23.5756L43.1748 21.9658C41.6439 21.591 40.0619 22.1051 39.0449 23.3082L34.6941 28.4566C34.5742 28.5994 34.4164 28.7135 34.2385 28.7863L28.0031 31.3348C26.5447 31.9297 25.5668 33.2748 25.4512 34.8443L25.3977 35.5643H20.3996C25.9004 24.2635 37.2895 17.0762 50 17.0762C62.7105 17.0762 74.0996 24.2635 79.6002 35.5645H74.6021ZM33.6557 14.1855C33.3623 13.677 32.8875 13.3158 32.3191 13.1684L29.81 12.5178C35.0717 9.6957 40.9754 7.96738 47.2041 7.56758L50.5008 10.8115L46.9826 14.2732C42.1344 14.677 37.4568 16.0516 33.1828 18.3271L33.8676 15.8514C34.0246 15.2855 33.9492 14.6937 33.6557 14.1855ZM68.7783 11.7939L70.0281 16.3121L65.2613 17.5482C60.8939 15.4895 56.1514 14.3387 51.2656 14.1691L53.1043 12.36C53.5227 11.9482 53.7529 11.3982 53.7529 10.8113C53.7529 10.2242 53.5225 9.67441 53.1039 9.2623L51.3111 7.49824C57.5303 7.68477 63.4557 9.1918 68.7783 11.7939ZM82.8246 35.5645C82.468 34.7543 82.0832 33.96 81.6703 33.1824L84.1488 33.868C84.3418 33.9213 84.5377 33.9477 84.7322 33.9477C85.1084 33.9477 85.4795 33.849 85.8145 33.6557C86.323 33.3623 86.6842 32.8875 86.8316 32.3191L87.4728 29.8461C88.4455 31.6676 89.2951 33.5764 90.009 35.5643L82.8246 35.5645ZM85.3619 26.3154L84.1889 30.8393L79.4424 29.5264C76.9717 25.9758 73.8652 22.8854 70.2379 20.4006C69.8355 20.125 69.4281 19.8588 69.0166 19.6008L71.5076 18.9549C72.076 18.8076 72.5506 18.4463 72.8443 17.9381C73.1379 17.4295 73.2135 16.8379 73.0568 16.2721L72.3643 13.7684C77.5156 16.9395 81.9586 21.2035 85.3619 26.3154ZM26.2914 14.6318L30.8393 15.8111L29.5227 20.5713C25.5154 23.3639 22.1555 26.9004 19.6006 30.9826L18.9549 28.4924C18.8076 27.924 18.4463 27.4494 17.9381 27.1557C17.4299 26.8623 16.8381 26.7863 16.2721 26.9432L13.799 27.6273C17.0125 22.3937 21.2857 17.9811 26.2914 14.6318ZM11.8283 31.2123L16.3121 29.9719L17.55 34.7451C17.4223 35.0166 17.2967 35.2893 17.1756 35.5645H9.99102C10.5285 34.0678 11.1424 32.6158 11.8283 31.2123ZM52.2545 68.4238C50.7885 68.0611 49.209 68.0617 47.748 68.4232L43.6896 69.4205L40.9926 66.2287C40.4082 65.5367 39.7211 64.9334 38.9635 64.4354H61.0371C60.2793 64.933 59.5922 65.5361 59.0082 66.2281L56.3105 69.4205L52.2545 68.4238ZM31.6988 64.4355C31.7113 64.441 31.7225 64.4484 31.7352 64.4537L36.2477 66.2971C37.2154 66.6932 38.0822 67.323 38.7541 68.1191L41.8877 71.8271C42.3266 72.357 43.0439 72.5943 43.7186 72.4301L48.4496 71.2676C49.4551 71.0186 50.5422 71.018 51.5527 71.2682L56.2854 72.4313C56.4264 72.4654 56.5691 72.4818 56.7111 72.4818C57.2445 72.4818 57.7635 72.2478 58.1031 71.8379L61.2463 68.1186C61.9178 67.3229 62.785 66.693 63.7533 66.2973L68.2676 64.4525C68.2795 64.4477 68.2898 64.4406 68.3016 64.4355H71.6645L71.6271 64.9391C71.5938 65.3922 71.3113 65.7805 70.8893 65.9525L64.6529 68.5014C64.0363 68.7535 63.4859 69.1541 63.0648 69.6561L58.7174 74.8004C58.4234 75.1484 57.966 75.2973 57.524 75.1889L50.9865 73.5799C50.341 73.4201 49.6588 73.4201 49.0152 73.5795L42.4773 75.1885C42.0344 75.2971 41.5768 75.1482 41.2828 74.8006L36.9385 69.6602C36.5141 69.1541 35.9639 68.7535 35.3473 68.5014L29.11 65.9521C28.6889 65.7803 28.4062 65.3922 28.373 64.9383L28.3357 64.4355H31.6988ZM25.3979 64.4355L25.4514 65.1547C25.5672 66.725 26.5451 68.0701 28.0025 68.6646L34.2389 71.2135C34.4168 71.2863 34.5746 71.4004 34.6979 71.5473L39.0457 76.692C40.0627 77.8949 41.6455 78.4096 43.1764 78.0338L49.7172 76.424C49.9049 76.3777 50.0955 76.3775 50.285 76.4244L56.8252 78.0342C57.1561 78.1152 57.4891 78.1549 57.8186 78.1547C59.0131 78.1547 60.1578 77.635 60.9551 76.6918L65.3059 71.5434C65.4258 71.4006 65.5836 71.2865 65.7615 71.2137L71.9969 68.6652C73.4553 68.0703 74.4332 66.7252 74.5488 65.1557L74.6023 64.4357H79.6004C74.0996 75.7365 62.7105 82.9238 50 82.9238C37.2895 82.9238 25.9004 75.7365 20.3998 64.4355H25.3979ZM66.3443 85.8145C66.6377 86.323 67.1125 86.6842 67.6809 86.8316L70.19 87.4822C64.9283 90.3043 59.0246 92.0326 52.7959 92.4324L49.4992 89.1885L53.0174 85.7268C57.8656 85.323 62.5432 83.9484 66.8172 81.6729L66.1324 84.1486C65.9754 84.7145 66.0508 85.3063 66.3443 85.8145ZM17.1754 64.4355C17.532 65.2457 17.9168 66.04 18.3297 66.8176L15.8512 66.132C15.285 65.9752 14.6936 66.0508 14.1855 66.3443C13.677 66.6377 13.3158 67.1125 13.1684 67.6809L12.5381 70.1113C11.5557 68.2916 10.7047 66.3951 9.99609 64.4357H17.1754V64.4355ZM28.4924 81.0449C27.924 81.1922 27.4494 81.5535 27.1557 82.0617C26.8621 82.5703 26.7865 83.1619 26.9432 83.7277L27.6125 86.1469C22.4563 82.9363 18.0297 78.6469 14.6549 73.6195L15.8111 69.1605L20.5576 70.4734C23.0283 74.024 26.1348 77.1145 29.7621 79.5992C30.1645 79.8748 30.5719 80.141 30.9834 80.399L28.4924 81.0449ZM73.7086 85.3682L69.1607 84.1889L70.4773 79.4287C74.4846 76.6361 77.8445 73.0996 80.3994 69.0174L81.0451 71.5076C81.1924 72.076 81.5537 72.5506 82.0619 72.8443C82.3971 73.0377 82.7684 73.1365 83.1447 73.1365C83.3391 73.1365 83.5352 73.1102 83.7279 73.0568L86.201 72.3727C82.9875 77.6063 78.7143 82.0189 73.7086 85.3682ZM88.1717 68.7877L83.6879 70.0281L82.4502 65.2549C82.5779 64.9834 82.7035 64.7107 82.8246 64.4355H90.009C89.4715 65.9322 88.8576 67.3842 88.1717 68.7877ZM97.0703 61.4082C97.0703 61.4619 97.0264 61.5059 96.9727 61.5059H3.02734C2.97363 61.5059 2.92969 61.4619 2.92969 61.4082V38.5918C2.92969 38.5381 2.97363 38.4941 3.02734 38.4941H51.0059C51.815 38.4941 52.4707 37.8385 52.4707 37.0293C52.4707 36.2201 51.815 35.5645 51.0059 35.5645H38.9629C39.7207 35.0668 40.4078 34.4637 40.9918 33.7717L43.6895 30.5793L47.7455 31.5762C49.2115 31.9389 50.791 31.9383 52.252 31.5768L56.3103 30.5795L59.0074 33.7713C59.5918 34.4633 60.2789 35.0666 61.0365 35.5646H57.8418C57.0326 35.5646 56.377 36.2203 56.377 37.0295C56.377 37.8387 57.0326 38.4943 57.8418 38.4943H96.9727C97.0264 38.4943 97.0703 38.5383 97.0703 38.592V61.4082Z" fill="black"/>
<path d="M54.4229 43.1611C53.6137 43.1611 52.958 43.8168 52.958 44.626V55.1721C52.958 55.9813 53.6137 56.6369 54.4229 56.6369C55.232 56.6369 55.8877 55.9813 55.8877 55.1721V44.626C55.8877 43.817 55.232 43.1611 54.4229 43.1611Z" fill="black"/>
<path d="M69.3086 43.1611C68.4994 43.1611 67.8438 43.8168 67.8438 44.626V55.1721C67.8438 55.9813 68.4994 56.6369 69.3086 56.6369C70.1178 56.6369 70.7734 55.9813 70.7734 55.1721V44.626C70.7734 43.817 70.1178 43.1611 69.3086 43.1611Z" fill="black"/>
<path d="M63.9873 46.3691C64.7965 46.3691 65.4521 45.7135 65.4521 44.9043C65.4521 44.0951 64.7965 43.4395 63.9873 43.4395H59.8367C58.9781 43.4395 58.2793 44.1381 58.2793 44.9969V55.3732C58.2793 56.1824 58.935 56.8381 59.7441 56.8381C60.5533 56.8381 61.209 56.1824 61.209 55.3732V51.5045H63.6502C64.4594 51.5045 65.115 50.8488 65.115 50.0396C65.115 49.2305 64.4594 48.5748 63.6502 48.5748H61.209V46.3691H63.9873Z" fill="black"/>
<path d="M79.033 46.3604C79.8422 46.3604 80.4979 45.7047 80.4979 44.8955C80.4979 44.0863 79.8422 43.4307 79.033 43.4307H74.6299C73.8207 43.4307 73.165 44.0863 73.165 44.8955V55.3455C73.165 56.1547 73.8207 56.8104 74.6299 56.8104H79.033C79.8422 56.8104 80.4979 56.1547 80.4979 55.3455C80.4979 54.5363 79.8422 53.8807 79.033 53.8807H76.0947V51.5853H78.7084C79.5176 51.5853 80.1732 50.9297 80.1732 50.1205C80.1732 49.3113 79.5176 48.6557 78.7084 48.6557H76.0947V46.3604H79.033Z" fill="black"/>
<path d="M26.9334 46.1396C27.7426 46.1396 28.3982 45.484 28.3982 44.6748C28.3982 43.8656 27.7426 43.21 26.9334 43.21H22.5303C21.7211 43.21 21.0654 43.8656 21.0654 44.6748V55.1246C21.0654 55.9338 21.7211 56.5895 22.5303 56.5895H26.9334C27.7426 56.5895 28.3982 55.9338 28.3982 55.1246C28.3982 54.3154 27.7426 53.6598 26.9334 53.6598H23.9951V51.3645H26.6088C27.418 51.3645 28.0736 50.7088 28.0736 49.8996C28.0736 49.0904 27.418 48.4348 26.6088 48.4348H23.9951V46.1396H26.9334Z" fill="black"/>
<path d="M87.2522 43.5576H84.3535C83.9647 43.5576 83.5916 43.7123 83.3166 43.9877C83.042 44.2629 82.8879 44.6361 82.8887 45.0252L82.9094 55.2619C82.9107 55.6504 83.0666 56.0227 83.3424 56.2963C83.6168 56.5687 83.9877 56.7215 84.3742 56.7215H84.3797C84.4674 56.7211 86.5354 56.7131 87.3623 56.6986C90.5418 56.6432 92.8496 53.8848 92.8496 50.1395C92.85 46.2027 90.6004 43.5576 87.2522 43.5576ZM87.3113 53.7693C86.9682 53.7754 86.3887 53.7805 85.8344 53.784C85.8305 52.5873 85.8232 47.7336 85.8213 46.4873H87.2523C89.7279 46.4873 89.9203 49.2826 89.9203 50.1395C89.9203 51.9236 89.1137 53.7379 87.3113 53.7693Z" fill="black"/>
<path d="M18.1512 52.5617C17.5314 52.042 16.6074 52.1225 16.0875 52.7418C15.9998 52.8461 15.9053 52.9437 15.8072 53.0311C15.3033 53.4797 14.6574 53.7072 13.8873 53.7072C11.7875 53.7072 10.0791 51.9988 10.0791 49.899C10.0791 47.7992 11.7875 46.0908 13.8873 46.0908C14.6506 46.0908 15.3865 46.3154 16.0154 46.7404C16.6863 47.1932 17.5967 47.0168 18.0494 46.3467C18.5021 45.6762 18.326 44.7656 17.6557 44.3127C16.5404 43.5594 15.2373 43.1611 13.8873 43.1611C10.1721 43.1611 7.14941 46.1838 7.14941 49.899C7.14941 53.6143 10.1721 56.6369 13.8873 56.6369C15.3762 56.6369 16.7139 56.1467 17.7561 55.2186C17.9598 55.0369 18.1533 54.8373 18.3313 54.6254C18.8514 54.0059 18.7705 53.0816 18.1512 52.5617Z" fill="black"/>
<path d="M49.1023 43.1611H43.2783C42.4691 43.1611 41.8135 43.8168 41.8135 44.626C41.8135 45.4352 42.4691 46.0908 43.2783 46.0908H44.7139V55.1721C44.7139 55.9813 45.3695 56.6369 46.1787 56.6369C46.9879 56.6369 47.6436 55.9813 47.6436 55.1721V46.0908H49.1025C49.9117 46.0908 50.5674 45.4352 50.5674 44.626C50.5674 43.8168 49.9115 43.1611 49.1023 43.1611Z" fill="black"/>
<path d="M39.4217 47.3678C39.4217 45.0488 37.4654 43.1621 35.0609 43.1621H32.2584C32.2578 43.1621 32.2572 43.1621 32.2566 43.1621C32.2561 43.1621 32.2555 43.1621 32.2549 43.1621C31.4457 43.1621 30.79 43.8178 30.79 44.627V55.173C30.79 55.9822 31.4457 56.6379 32.2549 56.6379C33.0641 56.6379 33.7197 55.9822 33.7197 55.173V52.576L36.857 56.1408C37.1465 56.4699 37.551 56.6379 37.9572 56.6379C38.301 56.6379 38.6461 56.5176 38.9244 56.2727C39.5316 55.7383 39.5906 54.8125 39.0562 54.2053L36.5248 51.3289C38.2113 50.7473 39.4217 49.1914 39.4217 47.3678ZM35.0609 46.0916C35.8367 46.0916 36.492 46.676 36.492 47.3676C36.492 48.0592 35.8367 48.6436 35.0609 48.6436C34.7475 48.6436 34.2352 48.6455 33.7346 48.6477C33.7322 48.1621 33.7305 47.6686 33.7305 47.3674C33.7305 47.1098 33.7293 46.6014 33.7277 46.0914H35.0609V46.0916Z" fill="black"/>
</svg>
