<svg width="100" height="100" viewBox="0 0 100 100" fill="none" xmlns="http://www.w3.org/2000/svg">
<path fill-rule="evenodd" clip-rule="evenodd" d="M89.9374 67.5545L68.9548 84.0443C53.4582 92.9688 43.8384 91.0547 31.667 88.6197C28.2784 87.9515 24.7812 87.2493 20.943 86.7397V65.4139C27.4732 63.9755 33.2956 64.6551 38.2596 67.4639C38.4624 67.5771 38.69 67.6339 38.921 67.6339H54.9294C57.4698 67.6339 59.1608 70.2309 58.2058 72.5152C57.652 73.8515 56.3654 74.7123 54.9294 74.7123H38.921C38.1792 74.7123 37.5766 75.3125 37.5766 76.0601C37.5766 76.8075 38.1792 77.4077 38.921 77.4077H54.9294C57.0574 77.4077 58.993 76.3317 60.13 74.5877C60.7134 74.7029 61.2758 74.7575 61.8458 74.7575C64.3442 74.7575 65.6806 73.799 67.435 72.7644L86.7334 61.6315C88.3292 60.7028 90.37 61.2465 91.3066 62.8207C92.0882 64.4287 91.5546 66.2859 89.9374 67.5545ZM18.2546 88.0308C18.2546 88.8915 17.5536 89.5937 16.694 89.5937H9.89861C9.03781 89.5937 8.33801 88.8915 8.33801 88.0308V64.9269C8.33801 64.0661 9.03801 63.3639 9.89861 63.3639H16.6938C17.5534 63.3639 18.2544 64.0661 18.2544 64.9269L18.2546 88.0308ZM33.6038 50.4645C33.6038 58.3129 39.8804 64.7231 47.6768 64.9497H48.5126C56.3102 64.7231 62.5878 58.3131 62.5878 50.4645C62.5878 42.4687 56.0858 35.9679 48.0946 35.9679C40.1034 35.9679 33.6038 42.4687 33.6038 50.4645ZM12.5274 23.8497C12.5274 15.8653 19.027 9.36454 27.0182 9.36454C35.0094 9.36454 41.5114 15.8653 41.5114 23.8497C41.5114 31.8455 35.0094 38.3463 27.0182 38.3463C19.027 38.3463 12.5274 31.8455 12.5274 23.8497ZM55.267 23.8497C55.267 15.8653 61.7678 9.36454 69.759 9.36454C77.7502 9.36454 84.2498 15.8653 84.2498 23.8497C84.2498 31.8455 77.7502 38.3463 69.759 38.3463C61.7678 38.3463 55.267 31.8455 55.267 23.8497ZM93.693 61.5859C93.6794 61.5633 93.667 61.5405 93.6544 61.5179C91.9862 58.6185 88.2782 57.6333 85.3892 59.2981L66.0908 70.4423C64.5104 71.3521 63.6452 72.0731 61.8348 72.0731C61.5948 72.0731 61.349 72.0617 61.102 72.0277C61.5286 68.9791 59.6522 66.1595 56.8402 65.2437C61.8844 62.2539 65.2754 56.7383 65.2754 50.4641C65.2754 45.3563 63.033 40.7583 59.4858 37.6097C62.3522 39.7615 65.9096 41.0301 69.759 41.0301C79.2326 41.0301 86.9384 33.3289 86.9384 23.8495C86.9384 14.3815 79.2326 6.66895 69.759 6.66895C60.2864 6.66895 52.5784 14.3815 52.5784 23.8495C52.5784 28.9573 54.8208 33.5553 58.369 36.7039C52.9246 32.6185 45.5382 32.1471 39.6062 35.5261C42.4534 32.4683 44.1986 28.3571 44.1986 23.8495C44.1986 14.3815 36.4906 6.66895 27.018 6.66895C17.5454 6.66895 9.83961 14.3815 9.83961 23.8495C9.83961 33.3289 17.5454 41.0301 27.018 41.0301C30.1042 41.0301 33.0024 40.2147 35.5086 38.7877C28.5524 46.2803 29.6436 58.1023 37.8168 64.2245C32.7046 61.8801 26.7292 61.3931 20.362 62.7861C19.6236 61.5289 18.2566 60.6795 16.6938 60.6795H9.89861C7.55661 60.6795 5.64941 62.5821 5.64941 64.9265V88.0303C5.64941 90.3747 7.55661 92.2887 9.89861 92.2887H16.6938C18.5512 92.2887 20.1288 91.0883 20.7064 89.4233C24.4154 89.9215 27.83 90.6012 31.1404 91.2581C36.495 92.3227 41.527 93.3307 46.8702 93.3307C53.7482 93.3307 61.1414 91.6659 70.3828 86.3316L91.5986 69.6719C94.2332 67.5998 95.0758 64.3493 93.693 61.5859ZM63.0962 21.7207V30.2373H73.5812C75.9312 30.2373 77.8406 28.3233 77.8406 25.9789C77.8406 23.6345 75.9312 21.7205 73.5812 21.7205H72.8338C72.092 21.7205 71.4906 21.1203 71.4906 20.3727V16.5787C71.4906 15.0837 70.136 14.9705 69.7182 14.9705C69.0172 14.9705 67.8302 15.2989 67.8302 16.5787V20.3727C67.8302 21.1203 67.2288 21.7205 66.487 21.7205L63.0962 21.7207ZM61.752 32.9215H73.5814C77.4128 32.9215 80.5296 29.8069 80.5296 25.9791C80.5296 22.3437 77.7322 19.3651 74.1782 19.0593V16.5789C74.1782 14.0141 72.229 12.2753 69.7182 12.2753C67.4996 12.2753 65.1428 13.7815 65.1428 16.5789V19.0365H61.752C61.0102 19.0365 60.4088 19.6367 60.4088 20.3729V31.5851C60.4088 32.3211 61.0102 32.9215 61.752 32.9215ZM27.0182 31.6529C30.6388 29.7955 34.5938 25.1521 34.5938 21.4715C34.5938 18.0465 30.3392 16.3977 28.0296 19.0025C27.4956 19.6047 26.5426 19.6041 26.008 19.0025C23.6894 16.3935 19.4426 18.0529 19.4426 21.4715C19.4426 25.1521 23.3996 29.7955 27.0182 31.6529ZM30.8472 15.0273C29.4576 15.0273 28.1166 15.4803 27.018 16.2957C22.7976 13.1631 16.755 16.1765 16.755 21.4715C16.755 26.6135 21.8266 32.2899 26.4744 34.3711C26.8448 34.5371 27.191 34.5375 27.5604 34.3711C32.2262 32.2691 37.281 26.6163 37.281 21.4715C37.2812 17.9153 34.3944 15.0273 30.8472 15.0273ZM44.5702 48.4599C45.598 48.4599 46.4964 47.8047 46.8114 46.8291L48.0946 42.8539L49.3778 46.8291C49.6936 47.8049 50.5934 48.4613 51.6214 48.4599L55.797 48.4485L52.4142 50.8947C51.5818 51.4949 51.2386 52.5595 51.5568 53.5335L52.8546 57.4975L49.4818 55.0399C48.6516 54.4397 47.5372 54.4397 46.7094 55.0399L43.3356 57.4975L44.6324 53.5335C44.9506 52.5595 44.6076 51.4949 43.7762 50.8947L40.3922 48.4485L44.5702 48.4599ZM42.0016 52.9333L40.4556 57.6559C40.1374 58.6299 40.4806 59.6831 41.3084 60.2947C42.121 60.8843 43.254 60.8865 44.0774 60.2833L48.0944 57.3613L52.1126 60.2833C52.9406 60.8949 54.0516 60.8949 54.8806 60.2947C55.7096 59.6831 56.0516 58.6299 55.7346 57.6559L54.1876 52.9333L58.216 50.0113C60.0588 48.6767 59.1016 45.7503 56.832 45.7529L51.859 45.7643L50.3324 41.0303C49.6332 38.8649 46.5558 38.8645 45.8566 41.0303L44.33 45.7643L39.357 45.7529C37.091 45.7503 36.13 48.6765 37.973 50.0113L42.0016 52.9333Z" fill="black"/>
</svg>
