<svg width="100" height="100" viewBox="0 0 100 100" fill="none" xmlns="http://www.w3.org/2000/svg">
<path d="M23.4197 92.0598C23.8005 93.3102 24.5723 94.4055 25.6216 95.1849C26.671 95.9642 27.9426 96.3866 29.2497 96.3898C29.842 96.3902 30.4313 96.306 30.9997 96.1398L70.6197 84.2098L77.7497 83.2798C78.5425 83.1774 79.3074 82.9197 80.0005 82.5214C80.6937 82.1231 81.3015 81.592 81.7891 80.9585C82.2767 80.3251 82.6347 79.6017 82.8424 78.8297C83.0501 78.0577 83.1036 77.2524 82.9997 76.4598L79.2397 47.7598L91.0797 29.5998L93.9997 25.1898L95.3997 22.9998C96.3823 21.496 96.7273 19.6635 96.3588 17.9053C95.9903 16.1471 94.9385 14.6074 93.4347 13.6248C91.9309 12.6421 90.0984 12.2971 88.3402 12.6656C86.5821 13.0341 85.0423 14.086 84.0597 15.5898L82.6197 17.7998L79.7397 22.1998L76.5097 27.1398L74.0997 8.78976C73.9962 7.99781 73.7376 7.23402 73.3388 6.54203C72.9399 5.85004 72.4087 5.2434 71.7753 4.75679C71.142 4.27018 70.419 3.91312 69.6476 3.70601C68.8762 3.49891 68.0716 3.44581 67.2797 3.54976L25.1997 9.07976C23.6689 9.27745 22.2712 10.0518 21.2918 11.2449C20.3125 12.438 19.8253 13.9598 19.9297 15.4998L7.82971 19.1398C6.28655 19.6045 4.99103 20.6629 4.22786 22.0823C3.46469 23.5018 3.2963 25.1662 3.75971 26.7098L23.4197 92.0598ZM84.3097 20.6898L87.4697 22.7498L90.6197 24.8098L89.3797 26.7098L83.0697 22.5898L84.3097 20.6898ZM86.5697 17.2198C87.1174 16.3817 87.9755 15.7955 88.9554 15.5901C89.9353 15.3848 90.9566 15.5771 91.7947 16.1248C92.6328 16.6724 93.219 17.5306 93.4243 18.5105C93.6297 19.4904 93.4374 20.5117 92.8897 21.3498L92.2697 22.2998L85.9997 18.1698L86.5697 17.2198ZM81.4297 25.0998L84.5897 27.1598L87.7397 29.2198L68.4897 58.6998L65.3297 56.6398L62.1797 54.5798L81.4297 25.0998ZM58.4297 65.4098L59.0297 63.4898C60.0354 63.7498 60.9278 64.3331 61.5697 65.1498L60.0497 66.4698C59.8858 66.6187 59.677 66.7091 59.4562 66.7266C59.2354 66.7441 59.015 66.6878 58.8296 66.5665C58.6442 66.4452 58.5044 66.2658 58.432 66.0565C58.3596 65.8471 58.3588 65.6196 58.4297 65.4098ZM63.8297 63.1798C62.8227 61.9377 61.4518 61.0424 59.9097 60.6198L60.9097 57.3498L66.3997 60.9398L63.8297 63.1798ZM23.5397 13.2298C23.7872 12.9081 24.0956 12.6383 24.4473 12.4358C24.7991 12.2334 25.1873 12.1022 25.5897 12.0498L67.6697 6.52976C67.8062 6.51985 67.9432 6.51985 68.0797 6.52976C68.8174 6.54475 69.5253 6.82318 70.0755 7.31472C70.6258 7.80626 70.982 8.47846 71.0797 9.20976L73.9997 30.9998L66.3397 42.7098L51.2797 44.7098C50.8819 44.735 50.5104 44.9172 50.2469 45.2163C49.9834 45.5154 49.8495 45.9069 49.8747 46.3048C49.8999 46.7026 50.0821 47.0741 50.3812 47.3376C50.6804 47.6011 51.0719 47.735 51.4697 47.7098H51.6697L64.1797 45.9998L58.8497 54.1698C58.8479 54.2031 58.8479 54.2365 58.8497 54.2698C58.8115 54.3324 58.7813 54.3996 58.7597 54.4698L57.8297 57.4698L36.5097 60.3398C36.3127 60.3529 36.1203 60.4047 35.9433 60.4922C35.7663 60.5797 35.6083 60.7012 35.4783 60.8498C35.3483 60.9984 35.2489 61.1711 35.1856 61.3581C35.1224 61.5451 35.0966 61.7428 35.1097 61.9398C35.1228 62.1367 35.1746 62.3292 35.2622 62.5062C35.3497 62.6831 35.4712 62.8411 35.6198 62.9711C35.7683 63.1011 35.9411 63.2006 36.1281 63.2638C36.3151 63.3271 36.5127 63.3529 36.7097 63.3398H36.8997L56.7697 60.7398L55.5897 64.5598C55.3328 65.3894 55.3528 66.2802 55.6469 67.0974C55.941 67.9147 56.493 68.614 57.2197 69.0898C57.8699 69.5182 58.631 69.7476 59.4097 69.7498C60.3751 69.7435 61.3057 69.3883 62.0297 68.7498L69.9097 61.9298L69.9897 61.8398C70.0507 61.7833 70.1045 61.7195 70.1497 61.6498L76.6697 51.6498L79.9997 76.8498C80.0535 77.2512 80.0273 77.6594 79.9226 78.0507C79.8179 78.442 79.6368 78.8088 79.3897 79.1298C79.1506 79.4476 78.8506 79.7148 78.5072 79.9156C78.1639 80.1165 77.784 80.2471 77.3897 80.2998L35.2697 85.8298C34.8685 85.8817 34.461 85.8541 34.0705 85.7485C33.68 85.6429 33.3141 85.4614 32.9937 85.2144C32.6733 84.9674 32.4048 84.6597 32.2033 84.3089C32.0019 83.958 31.8715 83.571 31.8197 83.1698L22.9297 15.5098C22.8234 14.699 23.0427 13.8791 23.5397 13.2298ZM8.69971 21.9998L20.2997 18.5098L28.8397 83.5598C29.0328 85.0172 29.7466 86.3556 30.8494 87.3279C31.9522 88.3002 33.3695 88.8408 34.8397 88.8498C35.1075 88.8497 35.3749 88.8296 35.6397 88.7898L52.1197 86.6298L30.1197 93.2498C29.3413 93.4832 28.5021 93.3986 27.786 93.0143C27.0699 92.63 26.5355 91.9775 26.2997 91.1998L6.62971 25.8498C6.51271 25.4611 6.47345 25.0531 6.51417 24.6492C6.55489 24.2453 6.67479 23.8534 6.86702 23.4959C7.05925 23.1383 7.32005 22.8222 7.63451 22.5655C7.94897 22.3088 8.31093 22.1165 8.69971 21.9998ZM38.9397 20.3998C38.8886 20.006 38.9957 19.6081 39.2375 19.2932C39.4793 18.9782 39.8361 18.772 40.2297 18.7198L64.2297 15.5598C64.4267 15.5342 64.6268 15.5476 64.8186 15.5993C65.0104 15.651 65.1901 15.74 65.3475 15.8612C65.5049 15.9824 65.6369 16.1334 65.7359 16.3056C65.835 16.4778 65.8991 16.6678 65.9247 16.8648C65.9503 17.0617 65.9369 17.2618 65.8852 17.4536C65.8334 17.6454 65.7444 17.8251 65.6233 17.9825C65.5021 18.1399 65.3511 18.2719 65.1789 18.371C65.0067 18.47 64.8167 18.5342 64.6197 18.5598L40.6197 21.7098H40.4297C40.065 21.7081 39.7133 21.5746 39.4394 21.3338C39.1655 21.093 38.988 20.7612 38.9397 20.3998ZM31.6797 35.0598C31.6546 34.8626 31.669 34.6623 31.7219 34.4707C31.7749 34.2791 31.8654 34.0999 31.9882 33.9436C32.111 33.7873 32.2637 33.6569 32.4374 33.5601C32.611 33.4633 32.8022 33.402 32.9997 33.3798L65.9997 28.9998C66.3975 28.948 66.7996 29.0565 67.1175 29.3012C67.4354 29.5459 67.643 29.9069 67.6947 30.3048C67.7464 30.7026 67.638 31.1047 67.3933 31.4225C67.1485 31.7404 66.7875 31.948 66.3897 31.9998L33.3597 36.3598H33.1697C32.8065 36.3585 32.456 36.2263 32.1823 35.9876C31.9087 35.7488 31.7302 35.4194 31.6797 35.0598ZM42.8897 47.2998C42.9179 47.4963 42.9067 47.6964 42.857 47.8885C42.8072 48.0807 42.7198 48.2611 42.5998 48.4192C42.4798 48.5773 42.3296 48.7101 42.1579 48.8097C41.9863 48.9094 41.7965 48.974 41.5997 48.9998L35.1297 49.8498H34.9397C34.5419 49.8763 34.1498 49.7437 33.8498 49.4811C33.5497 49.2186 33.3662 48.8476 33.3397 48.4498C33.3132 48.0519 33.4458 47.6599 33.7083 47.3598C33.9709 47.0598 34.3419 46.8763 34.7397 46.8498L41.2097 45.9998C41.4054 45.9745 41.6042 45.9882 41.7946 46.0399C41.9851 46.0916 42.1634 46.1804 42.3195 46.3011C42.4755 46.4219 42.6062 46.5723 42.7041 46.7436C42.8019 46.915 42.865 47.104 42.8897 47.2998ZM36.9997 75.4998C36.9486 75.106 37.0557 74.7081 37.2975 74.3932C37.5393 74.0782 37.8961 73.872 38.2897 73.8198L49.7997 72.3098C49.9967 72.2835 50.1969 72.2963 50.389 72.3474C50.581 72.3985 50.7611 72.487 50.919 72.6077C51.0768 72.7284 51.2094 72.879 51.309 73.051C51.4086 73.2229 51.4734 73.4128 51.4997 73.6098C51.526 73.8067 51.5132 74.007 51.4621 74.199C51.411 74.391 51.3225 74.5711 51.2018 74.729C51.0811 74.8869 50.9305 75.0194 50.7585 75.119C50.5866 75.2187 50.3967 75.2835 50.1997 75.3098L38.6697 76.7898H38.4797C38.1192 76.7885 37.7711 76.6574 37.4994 76.4205C37.2276 76.1836 37.0502 75.8568 36.9997 75.4998Z" fill="black"/>
</svg>
