<svg width="100" height="100" viewBox="0 0 100 100" fill="none" xmlns="http://www.w3.org/2000/svg">
<g clip-path="url(#clip0_163_591)">
<path d="M98.0469 85.155H96.0938V35.5456C96.0938 31.4607 93.608 27.939 89.9969 26.4872L99.0311 10.8396C101.023 7.38879 99.8367 2.96027 96.3859 0.967889C92.9353 -1.02469 88.5068 0.161834 86.5143 3.61301L82.5117 10.5456H63.0859C62.0072 10.5456 61.1328 11.4202 61.1328 12.4987C61.1328 13.5773 62.0072 14.4519 63.0859 14.4519H80.2564L66.4881 38.2995H24.6094C23.5307 38.2995 22.6562 39.1741 22.6562 40.2527C22.6562 41.3312 23.5307 42.2058 24.6094 42.2058H64.2326L61.301 47.2835H24.6094C23.5307 47.2835 22.6562 48.1581 22.6562 49.2366C22.6562 50.3152 23.5307 51.1898 24.6094 51.1898H59.0457L56.7301 55.2005C56.5973 55.4304 56.5129 55.6847 56.4818 55.9484L56.4441 56.2677H24.6094C23.5307 56.2677 22.6562 57.1423 22.6562 58.2208C22.6562 59.2993 23.5307 60.1739 24.6094 60.1739H55.9838L55.3852 65.2517H24.6094C23.5307 65.2517 22.6562 66.1263 22.6562 67.2048C22.6562 68.2833 23.5307 69.1579 24.6094 69.1579H54.9248L54.9197 69.2011C54.8283 69.9761 55.207 70.731 55.8828 71.1212C56.1861 71.2962 56.5232 71.3829 56.8592 71.3829C57.2717 71.3829 57.6826 71.2525 58.0271 70.9954L68.7232 63.0161C68.9359 62.8575 69.1141 62.657 69.2469 62.4271L84.375 36.2243V85.155H15.625V14.4519H45.5078C46.5865 14.4519 47.4609 13.5773 47.4609 12.4987C47.4609 11.4202 46.5865 10.5456 45.5078 10.5456H13.6719C12.5932 10.5456 11.7188 11.4202 11.7188 12.4987V25.9775C9.81894 26.3618 8.07539 27.3021 6.69219 28.7155C4.8957 30.5513 3.90625 32.9769 3.90625 35.5456V85.155H1.95312C0.874414 85.155 0 86.0296 0 87.1081V91.5091C0 96.1904 3.8084 99.9987 8.48945 99.9987H91.5104C96.1914 99.9987 99.9998 96.1904 99.9998 91.5091V87.1081C100 86.0296 99.1256 85.155 98.0469 85.155ZM94.4328 4.3509C96.0184 5.26652 96.5635 7.3009 95.6482 8.88664L94.2377 11.33L88.4867 8.00949L89.8973 5.56633C90.8125 3.98058 92.8471 3.43508 94.4328 4.3509ZM60.0141 59.3517L64.01 61.6587L59.3307 65.1495L60.0141 59.3517ZM66.8404 58.7825L61.0895 55.4622L86.5334 11.3921L92.2844 14.7126L66.8404 58.7825ZM88.2812 30.0165C90.5813 30.821 92.1875 33.0011 92.1875 35.5456V85.155H88.2812V30.0165ZM7.8125 35.5456C7.8125 33.023 9.45137 30.8402 11.7188 30.0267V85.155H7.8125V35.5456ZM96.0938 91.5093C96.0938 94.0364 94.0377 96.0927 91.5105 96.0927H8.48945C5.9623 96.0925 3.90625 94.0364 3.90625 91.5093V89.0614H96.0938V91.5093Z" fill="black"/>
<path d="M24.6094 21.4834C23.5307 21.4834 22.6562 22.358 22.6562 23.4365V31.249C22.6562 32.3275 23.5307 33.2021 24.6094 33.2021H54.2969C55.3756 33.2021 56.25 32.3275 56.25 31.249V23.4365C56.25 22.358 55.3756 21.4834 54.2969 21.4834H24.6094ZM52.3438 29.2959H26.5625V25.3896H52.3438V29.2959Z" fill="black"/>
<path d="M43.4084 78.1426C44.4871 78.1426 45.3615 77.268 45.3615 76.1895C45.3615 75.1109 44.4871 74.2363 43.4084 74.2363H24.6094C23.5307 74.2363 22.6562 75.1109 22.6562 76.1895C22.6562 77.268 23.5307 78.1426 24.6094 78.1426H43.4084Z" fill="black"/>
<path d="M54.2969 14.4521C55.3756 14.4521 56.25 13.5777 56.25 12.499C56.25 11.4203 55.3756 10.5459 54.2969 10.5459C53.2182 10.5459 52.3438 11.4203 52.3438 12.499C52.3438 13.5777 53.2182 14.4521 54.2969 14.4521Z" fill="black"/>
</g>
<defs>
<clipPath id="clip0_163_591">
<rect width="100" height="100" fill="white"/>
</clipPath>
</defs>
</svg>
