<svg width="100" height="100" viewBox="0 0 100 100" fill="none" xmlns="http://www.w3.org/2000/svg">
<path d="M79.3357 57.6627H69.8898C69.0269 57.6627 68.3273 58.3623 68.3273 59.2252V96.7559C68.3273 97.6188 69.0269 98.3184 69.8898 98.3184H79.3357C80.1986 98.3184 80.8982 97.6188 80.8982 96.7559V59.2252C80.8982 58.3623 80.1988 57.6627 79.3357 57.6627ZM77.7732 95.1934H71.4523V60.7877H77.7732V95.1934ZM96.8751 48.7441H87.4292C86.5663 48.7441 85.8667 49.4438 85.8667 50.3066V96.7555C85.8667 97.6184 86.5663 98.318 87.4292 98.318H96.8751C97.738 98.318 98.4376 97.6184 98.4376 96.7555V50.3066C98.4376 49.4438 97.738 48.7441 96.8751 48.7441ZM95.3126 95.1932H88.9917V51.8691H95.3126V95.1932ZM44.2562 77.0715H34.8103C33.9474 77.0715 33.2478 77.7711 33.2478 78.634V96.7555C33.2478 97.6184 33.9474 98.318 34.8103 98.318H44.2562C45.1191 98.318 45.8187 97.6184 45.8187 96.7555V78.634C45.8187 77.7711 45.1193 77.0715 44.2562 77.0715ZM42.6937 95.1932H36.3728V80.1967H42.6937V95.1932ZM94.7036 36.4354L94.2388 39.6279C94.1144 40.4818 94.706 41.275 95.5599 41.399C95.6363 41.4104 95.712 41.4156 95.787 41.4156C96.5503 41.4156 97.2181 40.8557 97.3314 40.0779L98.4214 32.5914C98.489 32.1279 98.3448 31.6584 98.0288 31.3125C97.7128 30.9666 97.2573 30.7816 96.7905 30.8061L89.2363 31.2162C88.3745 31.2629 87.714 31.9994 87.7607 32.8611C87.8074 33.7229 88.5445 34.3793 89.4056 34.3367L92.5529 34.1658C84.6429 41.1334 75.9863 47.4004 66.7521 52.8387C66.6288 52.7398 66.4896 52.6586 66.3368 52.5998L64.2064 51.7797C63.8751 50.6475 63.4226 49.5561 62.855 48.5199L63.7823 46.4322C64.0448 45.8416 63.9163 45.1504 63.4593 44.6932L60.1386 41.3725C59.6816 40.9154 58.9902 40.7875 58.3995 41.0494L56.3107 41.9771C55.2747 41.4098 54.1839 40.9574 53.0521 40.626L52.7138 39.7471L56.979 35.5342H58.1945C59.514 35.5342 60.5874 34.4607 60.5874 33.1412V28.7254C60.5874 27.4061 59.5138 26.3326 58.1945 26.3326H3.95559C2.63605 26.3324 1.56262 27.4059 1.56262 28.7252V33.141C1.56262 34.4605 2.63605 35.534 3.95559 35.534H5.17082L24.0021 54.1344V67.0459C24.0021 67.5695 24.2644 68.0582 24.7005 68.3477C24.9605 68.5203 25.2616 68.6084 25.5646 68.6084C25.77 68.6084 25.9763 68.568 26.1712 68.4857L33.5056 65.3945L33.0679 66.3803C32.8056 66.9709 32.9339 67.6621 33.3911 68.1193L36.7118 71.44C37.1689 71.8973 37.8603 72.0252 38.4509 71.7631L40.5394 70.8354C41.5755 71.4027 42.6665 71.8553 43.7982 72.1863L44.6187 74.3178C44.8507 74.9209 45.4304 75.3189 46.0769 75.3189H50.773C50.7779 75.3189 50.7823 75.318 50.7872 75.3178V96.7555C50.7872 97.6184 51.4868 98.318 52.3497 98.318H61.7958C62.6587 98.318 63.3583 97.6184 63.3583 96.7555V68.2197L63.4587 68.1193C63.9157 67.6623 64.0441 66.9711 63.7818 66.3805L62.854 64.2918C63.4214 63.2557 63.8738 62.1646 64.205 61.0332L66.3364 60.2127C66.9396 59.9807 67.3376 59.401 67.3376 58.7545V56.1137C77.1507 50.4221 86.3376 43.8146 94.7036 36.4354ZM4.68762 29.4574H57.462V32.409H4.68762V29.4574ZM9.61789 35.5342H52.5318L50.5482 37.4936H46.0773C45.431 37.4936 44.8513 37.8914 44.6191 38.4947L43.7986 40.626C42.6667 40.9574 41.5759 41.4098 40.5398 41.9771L38.4511 41.0494C37.8605 40.7875 37.1693 40.9154 36.712 41.3725L33.3913 44.6932C32.9343 45.1504 32.8058 45.8416 33.0681 46.4322L33.9956 48.5207C33.428 49.5566 32.9757 50.6479 32.6445 51.7799L32.2821 51.9193H26.2064L9.61789 35.5342ZM27.1271 55.0443H29.5122V58.7545C29.5122 59.401 29.9103 59.9805 30.5134 60.2127L32.6439 61.0328C32.7595 61.4277 32.8907 61.8174 33.0355 62.2018L27.1269 64.692L27.1271 55.0443ZM60.2337 95.1936H53.9126V71.9092C54.7388 71.6168 55.5404 71.2584 56.3114 70.8361L58.3991 71.7635C58.9898 72.026 59.681 71.8977 60.1382 71.4402L60.2335 71.3449V95.1936H60.2337ZM64.213 57.6816L62.339 58.4029C61.8583 58.5879 61.4995 58.9982 61.3802 59.4992C61.0542 60.8695 60.5132 62.1742 59.7724 63.3775C59.5023 63.8162 59.4657 64.36 59.6747 64.8309L60.4907 66.668L58.6872 68.4715L56.8511 67.6559C56.3802 67.4467 55.8363 67.4828 55.3976 67.7535C54.1943 68.4945 52.889 69.0356 51.5183 69.3615C51.0171 69.4809 50.6068 69.8395 50.4218 70.3203L49.7007 72.1937H47.1501L46.4288 70.3195C46.2439 69.8387 45.8335 69.4801 45.3323 69.3609C43.9622 69.0348 42.6573 68.4939 41.454 67.7529C41.0152 67.4828 40.4714 67.4465 40.0005 67.6555L38.1636 68.4715L36.3601 66.6682L37.1755 64.8318C37.3847 64.3609 37.3482 63.8172 37.0779 63.3783C36.337 62.1756 35.796 60.8703 35.4696 59.4992C35.3503 58.998 34.9917 58.5877 34.5109 58.4027L32.6376 57.6816V55.1311L34.5112 54.41C34.9921 54.225 35.3507 53.8147 35.47 53.3135C35.7962 51.9428 36.3372 50.6379 37.078 49.435C37.3484 48.9961 37.3849 48.4523 37.1757 47.9814L36.3599 46.1445L38.1634 44.3412L40.0005 45.1572C40.4712 45.3662 41.0152 45.3299 41.4538 45.0598C42.6571 44.3187 43.962 43.7779 45.3323 43.4516C45.8335 43.3324 46.2437 42.9738 46.4286 42.493L47.1501 40.6189H49.7007L50.422 42.493C50.607 42.9736 51.0171 43.3324 51.5183 43.4516C52.8888 43.7779 54.1937 44.3189 55.3966 45.0596C55.8355 45.3301 56.3792 45.3662 56.8501 45.1572L58.6872 44.3412L60.4907 46.1445L59.6753 47.9807C59.4661 48.4516 59.5027 48.9953 59.773 49.4342C60.514 50.6373 61.055 51.9426 61.3812 53.3135C61.5003 53.8147 61.8591 54.225 62.34 54.41L64.2132 55.1311V57.6816H64.213ZM3.12512 22.6445H59.0247C59.4681 22.6445 59.8905 22.4563 60.1868 22.1266C60.4831 21.7969 60.6255 21.3566 60.5782 20.9158C60.1601 17.0096 57.7306 13.7805 54.3822 12.2018C55.3923 11.084 56.0085 9.60371 56.0085 7.98203C56.0085 4.50801 53.1821 1.68164 49.7081 1.68164C46.2341 1.68164 43.4077 4.50801 43.4077 7.98203C43.4077 9.60371 44.0239 11.084 45.0341 12.2018C43.1161 13.1061 41.5009 14.5518 40.3915 16.3568C39.2821 14.5518 37.6669 13.1061 35.7489 12.2018C36.7591 11.084 37.3753 9.60371 37.3753 7.98203C37.3753 4.50801 34.5489 1.68164 31.0749 1.68164C27.6009 1.68164 24.7745 4.50801 24.7745 7.98203C24.7745 9.60371 25.3907 11.084 26.4009 12.2018C24.4829 13.1061 22.8677 14.5518 21.7583 16.3568C20.6489 14.5518 19.0337 13.1061 17.1157 12.2018C18.1259 11.084 18.7421 9.60371 18.7421 7.98203C18.7421 4.50801 15.9157 1.68164 12.4417 1.68164C8.96769 1.68164 6.14133 4.50781 6.14133 7.98184C6.14133 9.60352 6.75754 11.0838 7.76769 12.2016C4.41926 13.7803 1.98957 17.0096 1.57141 20.9156C1.52414 21.3564 1.66652 21.7967 1.96281 22.1264C2.2591 22.4561 2.68156 22.6445 3.12512 22.6445ZM49.7081 4.80645C51.4591 4.80645 52.8835 6.23086 52.8835 7.98184C52.8835 9.73281 51.4591 11.1572 49.7081 11.1572C47.9571 11.1572 46.5327 9.73281 46.5327 7.98184C46.5327 6.23086 47.9571 4.80645 49.7081 4.80645ZM49.7079 14.2822C53.1032 14.2822 56.0206 16.4393 57.0857 19.5195H42.3302C43.3952 16.4393 46.3128 14.2822 49.7079 14.2822ZM31.0747 4.80645C32.8257 4.80645 34.2501 6.23086 34.2501 7.98184C34.2501 9.73281 32.8257 11.1572 31.0747 11.1572C29.3237 11.1572 27.8993 9.73281 27.8993 7.98184C27.8993 6.23086 29.3237 4.80645 31.0747 4.80645ZM31.0749 14.2822C34.4702 14.2822 37.3878 16.4393 38.4527 19.5195H23.6972C24.762 16.4393 27.6796 14.2822 31.0749 14.2822ZM12.4417 4.80645C14.1927 4.80645 15.6171 6.23086 15.6171 7.98184C15.6171 9.73281 14.1927 11.1572 12.4417 11.1572C10.6907 11.1572 9.26633 9.73281 9.26633 7.98184C9.26633 6.23086 10.6907 4.80645 12.4417 4.80645ZM12.4417 14.2822C15.837 14.2822 18.7544 16.4393 19.8195 19.5195H5.06379C6.12883 16.4393 9.04641 14.2822 12.4417 14.2822ZM48.4251 46.6539C43.0476 46.6539 38.6724 51.0287 38.6724 56.4064C38.6724 61.7842 43.0474 66.159 48.4251 66.159C53.8029 66.159 58.1777 61.7842 58.1777 56.4064C58.1777 51.0287 53.8027 46.6539 48.4251 46.6539ZM48.4251 63.0338C44.7706 63.0338 41.7974 60.0607 41.7974 56.4062C41.7974 52.7518 44.7706 49.7787 48.4251 49.7787C52.0796 49.7787 55.0527 52.7518 55.0527 56.4062C55.0527 60.0607 52.0796 63.0338 48.4251 63.0338ZM87.5761 19.465C87.6767 19.3486 87.7372 19.2174 87.7056 18.9559C87.6708 18.6705 87.5898 18.0023 85.4441 17.65C81.6402 17.0252 80.9708 14.8396 80.9103 13.5926C80.8138 11.6066 82.0917 9.93106 84.1245 9.32148V9.06875C84.1245 8.20586 84.8241 7.50625 85.687 7.50625C86.5499 7.50625 87.2495 8.20586 87.2495 9.06875V9.30723C88.5544 9.68574 89.7642 10.5795 90.4216 12.1447C90.7556 12.9404 90.3816 13.8562 89.5859 14.1904C88.7904 14.5246 87.8743 14.1502 87.5404 13.3549C87.0509 12.1893 85.8288 12.1256 85.1845 12.2723C84.9038 12.3359 83.9911 12.6084 84.0318 13.4412C84.0415 13.6432 84.0714 14.2578 85.9505 14.5664C88.9091 15.0521 90.5435 16.4023 90.8077 18.5795C90.9419 19.6846 90.6417 20.6979 89.9398 21.5096C89.3072 22.2408 88.3503 22.7738 87.2495 23.0332V23.2285C87.2495 24.0914 86.5499 24.791 85.687 24.791C84.8241 24.791 84.1245 24.0914 84.1245 23.2285V23.0055C82.3546 22.5309 81.012 21.2621 80.5818 19.5361C80.373 18.6988 80.8825 17.8508 81.7198 17.642C82.5575 17.4338 83.405 17.943 83.6138 18.7801C83.8618 19.7752 84.94 20.1 85.7958 20.084C86.5443 20.066 87.2763 19.8117 87.5761 19.465ZM85.6868 28.8992C92.7177 28.8992 98.4376 23.1793 98.4376 16.1486C98.4376 9.11777 92.7175 3.39785 85.6868 3.39785C78.6562 3.39785 72.9363 9.11777 72.9363 16.1486C72.9363 23.1793 78.6562 28.8992 85.6868 28.8992ZM85.6868 6.52266C90.9945 6.52266 95.3126 10.8406 95.3126 16.1484C95.3126 21.4561 90.9945 25.774 85.6868 25.774C80.3792 25.774 76.0613 21.4561 76.0613 16.1484C76.0613 10.8408 80.3794 6.52266 85.6868 6.52266Z" fill="black"/>
</svg>
