<svg width="100" height="100" viewBox="0 0 100 100" fill="none" xmlns="http://www.w3.org/2000/svg">
<path d="M92.1875 23.4379H89.0625V21.8754H90.625C91.8682 21.8754 93.0605 21.3816 93.9396 20.5025C94.8186 19.6234 95.3125 18.4312 95.3125 17.1879C95.3125 15.9447 94.8186 14.7525 93.9396 13.8734C93.0605 12.9943 91.8682 12.5004 90.625 12.5004H89.0625V4.68795C89.0648 4.44332 89.0077 4.20179 88.8961 3.98407C88.7845 3.76636 88.6218 3.57896 88.4219 3.43795C88.2283 3.29141 88.003 3.19243 87.7642 3.149C87.5253 3.10557 87.2796 3.11891 87.0469 3.18795L66.9531 9.37545H56.25C55.8356 9.37545 55.4382 9.54007 55.1451 9.83309C54.8521 10.1261 54.6875 10.5235 54.6875 10.9379V12.5004H51.5625C51.1481 12.5004 50.7507 12.6651 50.4576 12.9581C50.1646 13.2511 50 13.6485 50 14.0629V20.3129C50 20.7273 50.1646 21.1248 50.4576 21.4178C50.7507 21.7108 51.1481 21.8754 51.5625 21.8754H54.6875V23.4379H45.3125V9.37545C45.3125 8.96105 45.1479 8.56362 44.8549 8.27059C44.5618 7.97757 44.1644 7.81295 43.75 7.81295H12.5C12.0856 7.81295 11.6882 7.97757 11.3951 8.27059C11.1021 8.56362 10.9375 8.96105 10.9375 9.37545V23.4379H7.8125C6.57044 23.4417 5.38031 23.9367 4.50203 24.815C3.62376 25.6933 3.12871 26.8834 3.125 28.1254V78.1255C3.12871 79.3675 3.62376 80.5576 4.50203 81.4359C5.38031 82.3142 6.57044 82.8092 7.8125 82.813H43.75V87.5005H34.375C33.9606 87.5005 33.5632 87.6651 33.2701 87.9581C32.9771 88.2511 32.8125 88.6485 32.8125 89.063V95.313C32.8125 95.7273 32.9771 96.1248 33.2701 96.4178C33.5632 96.7108 33.9606 96.8755 34.375 96.8755H65.625C66.0394 96.8755 66.4368 96.7108 66.7299 96.4178C67.0229 96.1248 67.1875 95.7273 67.1875 95.313V89.063C67.1875 88.6485 67.0229 88.2511 66.7299 87.9581C66.4368 87.6651 66.0394 87.5005 65.625 87.5005H56.25V82.813H92.1875C93.4296 82.8092 94.6197 82.3142 95.498 81.4359C96.3762 80.5576 96.8713 79.3675 96.875 78.1255V28.1254C96.8713 26.8834 96.3762 25.6933 95.498 24.815C94.6197 23.9367 93.4296 23.4417 92.1875 23.4379ZM89.0625 15.6254H90.625C91.0394 15.6254 91.4368 15.7901 91.7299 16.0831C92.0229 16.3761 92.1875 16.7735 92.1875 17.1879C92.1875 17.6023 92.0229 17.9998 91.7299 18.2928C91.4368 18.5858 91.0394 18.7504 90.625 18.7504H89.0625V15.6254ZM68.75 12.0942L85.9375 6.79732V27.5786L68.75 22.2817V12.0942ZM57.8125 12.5004H65.625V21.8754H57.8125V12.5004ZM62.2656 25.0004L61.1406 32.8129H59.375V25.0004H62.2656ZM53.125 18.7504V15.6254H54.6875V18.7504H53.125ZM14.0625 10.9379H42.1875V32.8129H14.0625V10.9379ZM64.0625 90.6255V93.7505H35.9375V90.6255H64.0625ZM46.875 87.5005V82.813H53.125V87.5005H46.875ZM93.75 78.1255C93.75 78.5398 93.5854 78.9373 93.2924 79.2303C92.9993 79.5233 92.6019 79.688 92.1875 79.688H7.8125C7.3981 79.688 7.00067 79.5233 6.70765 79.2303C6.41462 78.9373 6.25 78.5398 6.25 78.1255V76.563H93.75V78.1255ZM93.75 73.438H6.25V28.1254C6.25 27.711 6.41462 27.3136 6.70765 27.0206C7.00067 26.7276 7.3981 26.5629 7.8125 26.5629H10.9375V34.3754C10.9375 34.7898 11.1021 35.1873 11.3951 35.4803C11.6882 35.7733 12.0856 35.9379 12.5 35.9379H43.75C44.1644 35.9379 44.5618 35.7733 44.8549 35.4803C45.1479 35.1873 45.3125 34.7898 45.3125 34.3754V26.5629H56.25V34.3754C56.25 34.7898 56.4146 35.1873 56.7076 35.4803C57.0007 35.7733 57.3981 35.9379 57.8125 35.9379H62.5C62.8765 35.9379 63.2402 35.8019 63.5245 35.555C63.8087 35.3081 63.9942 34.967 64.0469 34.5942L65.4219 25.0004H66.9531L87.0469 31.1879C87.1936 31.2327 87.3466 31.2538 87.5 31.2504C87.9125 31.2444 88.3064 31.0778 88.5982 30.7861C88.8899 30.4944 89.0564 30.1005 89.0625 29.6879V26.5629H92.1875C92.6019 26.5629 92.9993 26.7276 93.2924 27.0206C93.5854 27.3136 93.75 27.711 93.75 28.1254V73.438Z" fill="black"/>
<path d="M10.9375 70.3125H51.5625C51.9769 70.3125 52.3743 70.1479 52.6674 69.8549C52.9604 69.5618 53.125 69.1644 53.125 68.75V43.75C53.125 43.3356 52.9604 42.9382 52.6674 42.6451C52.3743 42.3521 51.9769 42.1875 51.5625 42.1875H10.9375C10.5231 42.1875 10.1257 42.3521 9.83265 42.6451C9.53962 42.9382 9.375 43.3356 9.375 43.75V68.75C9.375 69.1644 9.53962 69.5618 9.83265 69.8549C10.1257 70.1479 10.5231 70.3125 10.9375 70.3125ZM12.5 67.1875V46.5453L30.4312 57.5813C30.6775 57.7327 30.9609 57.8129 31.25 57.8129C31.5391 57.8129 31.8225 57.7327 32.0688 57.5813L50 46.5453V67.1875H12.5ZM16.4578 45.3125H46.0422L31.25 54.4156L16.4578 45.3125Z" fill="black"/>
<path d="M57.8125 60.9375H60.9375V65.625C60.9375 66.0394 61.1021 66.4368 61.3951 66.7299C61.6882 67.0229 62.0856 67.1875 62.5 67.1875H89.0625C89.4769 67.1875 89.8743 67.0229 90.1674 66.7299C90.4604 66.4368 90.625 66.0394 90.625 65.625V46.875C90.625 46.4606 90.4604 46.0632 90.1674 45.7701C89.8743 45.4771 89.4769 45.3125 89.0625 45.3125H87.5V40.625C87.5 40.2106 87.3354 39.8132 87.0424 39.5201C86.7493 39.2271 86.3519 39.0625 85.9375 39.0625H57.8125C57.3981 39.0625 57.0007 39.2271 56.7076 39.5201C56.4146 39.8132 56.25 40.2106 56.25 40.625V59.375C56.25 59.7894 56.4146 60.1868 56.7076 60.4799C57.0007 60.7729 57.3981 60.9375 57.8125 60.9375ZM87.5 64.0625H64.0625V48.4375H87.5V64.0625ZM59.375 42.1875H84.375V45.3125H62.5C62.0856 45.3125 61.6882 45.4771 61.3951 45.7701C61.1021 46.0632 60.9375 46.4606 60.9375 46.875V57.8125H59.375V42.1875Z" fill="black"/>
<path d="M67.1875 51.5625H70.3125V54.6875H67.1875V51.5625Z" fill="black"/>
<path d="M73.4375 51.5625H84.375V54.6875H73.4375V51.5625Z" fill="black"/>
<path d="M67.1875 57.8125H73.4375V60.9375H67.1875V57.8125Z" fill="black"/>
<path d="M76.5625 57.8125H84.375V60.9375H76.5625V57.8125Z" fill="black"/>
<path d="M24.1781 27.8929C24.4047 28.033 24.6633 28.1129 24.9293 28.1249C25.1954 28.1369 25.4602 28.0807 25.6984 27.9617L35.0734 23.2742C35.3334 23.1446 35.5522 22.9451 35.7051 22.698C35.858 22.451 35.939 22.1662 35.939 21.8757C35.939 21.5852 35.858 21.3005 35.7051 21.0534C35.5522 20.8064 35.3334 20.6069 35.0734 20.4773L25.6984 15.7898C25.4602 15.6707 25.1954 15.6145 24.9293 15.6266C24.6632 15.6387 24.4046 15.7185 24.1781 15.8586C23.9515 15.9988 23.7646 16.1945 23.635 16.4272C23.5054 16.6599 23.4374 16.9219 23.4375 17.1882V26.5632C23.4374 26.8296 23.5053 27.0916 23.635 27.3243C23.7646 27.5571 23.9516 27.7528 24.1781 27.8929ZM26.5625 19.7164L30.8812 21.8757L26.5625 24.0351V19.7164Z" fill="black"/>
</svg>
