<svg width="100" height="100" viewBox="0 0 100 100" fill="none" xmlns="http://www.w3.org/2000/svg">
<g clip-path="url(#clip0_163_598)">
<path d="M20 8.33333V13.3333H58.3333V10H23.3333V8.33333C23.3333 5.5721 25.5721 3.33333 28.3333 3.33333H60V0H28.3333C23.7329 0.00569663 20.0057 3.73291 20 8.33333Z" fill="black"/>
<path d="M20 36.667V91.667C20.0057 96.2674 23.7329 99.9946 28.3333 100H65V96.667H28.3333C25.5721 96.667 23.3333 94.4282 23.3333 91.667V86.667H61.6667V83.3337H23.3333V36.667H20Z" fill="black"/>
<path d="M76.6669 43.333V64.3096L65.3453 52.988C62.3936 50.0363 57.6068 50.0363 54.6552 52.988C51.7035 55.9396 51.7035 60.7264 54.6552 63.6781L67.9218 76.9447L67.182 78.2394C63.7282 84.2306 64.1815 91.7046 68.3335 97.2344V99.9997H71.6669V96.6663C71.6669 96.2879 71.5383 95.9201 71.3015 95.6247C67.6849 91.1374 67.1975 84.8882 70.0751 79.8947L71.4471 77.4932C71.8174 76.8421 71.7076 76.0234 71.1786 75.4928L57.0119 61.3262C55.4055 59.6685 55.4266 57.0285 57.0583 55.3968C58.6908 53.7643 61.3308 53.7432 62.9885 55.3496L80.4885 72.8496L82.8453 70.4928L80.0002 67.6429V43.333H76.6669Z" fill="black"/>
<path d="M48.333 90H51.6663V93.3333H48.333V90Z" fill="black"/>
<path d="M91.6665 99.9995V66.7394C91.6706 62.3156 90.0723 58.0391 87.1662 54.7025L84.6165 51.6328L82.0498 53.7609L84.6214 56.8631C87.014 59.5967 88.3332 63.1066 88.3332 66.7394V99.9995H91.6665Z" fill="black"/>
<path d="M55 41.667H58.3333V48.3337H55V41.667Z" fill="black"/>
<path d="M12.2855 13.7039C11.894 14.0205 11.667 14.4966 11.667 15.0003V31.667C11.667 32.5874 12.4132 33.3336 13.3337 33.3336C13.4126 33.3336 13.4924 33.3279 13.5705 33.3174L28.3337 31.2072V38.3336C28.3337 41.0949 30.5724 43.3336 33.3337 43.3336H41.667V78.3336C41.667 79.2541 42.4132 80.0003 43.3337 80.0003H56.667C57.5874 80.0003 58.3337 79.2541 58.3337 78.3336V70.0003H55.0003V76.667H51.667V63.3336H48.3337V76.667H45.0003V41.667C45.0003 40.7466 44.2541 40.0003 43.3337 40.0003H33.3337C32.4132 40.0003 31.667 39.2541 31.667 38.3336V30.7319L35.0003 30.255V35.0003C35.0003 35.9207 35.7466 36.667 36.667 36.667H56.667C59.4282 36.667 61.667 38.9057 61.667 41.667V48.3336H65.0003V41.667C64.9946 37.0666 61.2674 33.3393 56.667 33.3336H56.6239C57.7266 31.8997 58.3272 30.1427 58.3337 28.3336V25.0003C58.3337 20.3983 54.6024 16.667 50.0003 16.667C45.3983 16.667 41.667 20.3983 41.667 25.0003V28.3336C41.6735 30.1427 42.2741 31.8997 43.3768 33.3336H38.3337V20.0003C38.3337 19.2142 37.7852 18.5355 37.0169 18.3703L13.6836 13.3703C13.1912 13.2645 12.6769 13.3865 12.2855 13.7039ZM45.0003 28.3336V25.0003C45.0003 22.2391 47.2391 20.0003 50.0003 20.0003C52.7616 20.0003 55.0003 22.2391 55.0003 25.0003V28.3336C55.0003 31.0949 52.7616 33.3336 50.0003 33.3336C47.2391 33.3336 45.0003 31.0949 45.0003 28.3336ZM15.0003 17.0617L35.0003 21.3488V26.8883L15.0003 29.7456V17.0617Z" fill="black"/>
<path d="M1.26172 16.6178L2.06901 13.3838L8.73568 15.048L7.92839 18.2821L1.26172 16.6178Z" fill="black"/>
<path d="M1.26172 30.048L7.92839 28.3838L8.73568 31.6178L2.06901 33.2821L1.26172 30.048Z" fill="black"/>
<path d="M0 21.667H6.66667V25.0003H0V21.667Z" fill="black"/>
<path d="M91.6663 0H71.6663C67.0659 0.00569662 63.3387 3.73291 63.333 8.33333V25C63.3387 29.6004 67.0659 33.3276 71.6663 33.3333H72.966L71.6997 39.6663C71.5695 40.319 71.8397 40.9855 72.3866 41.3639C72.9334 41.7415 73.652 41.7586 74.216 41.4071L87.1449 33.3333H91.6663C96.2668 33.3276 99.994 29.6004 99.9997 25V8.33333C99.994 3.73291 96.2668 0.00569662 91.6663 0ZM96.6663 25C96.6663 27.7612 94.4276 30 91.6663 30H86.6663C86.3538 30 86.0479 30.0879 85.7834 30.2531L75.7248 36.5397L76.633 32.0003C76.7331 31.5096 76.6077 31.0002 76.2912 30.6128C75.9746 30.2246 75.5002 30 74.9997 30H71.6663C68.9051 30 66.6663 27.7612 66.6663 25V8.33333C66.6663 5.5721 68.9051 3.33333 71.6663 3.33333H91.6663C94.4276 3.33333 96.6663 5.5721 96.6663 8.33333V25Z" fill="black"/>
<path d="M91.6665 11.6667H85.8918L83.0581 7.40804C82.7309 6.97103 82.2174 6.71387 81.6714 6.71387C81.1253 6.71387 80.6118 6.97103 80.2847 7.40804L77.4412 11.6667H71.6665C70.9927 11.6667 70.3848 12.0728 70.1268 12.6953C69.8688 13.3179 70.012 14.0348 70.4881 14.5117L74.8216 18.8452L73.3828 24.5947C73.22 25.2279 73.4422 25.8976 73.9508 26.3078C74.4595 26.7179 75.161 26.7928 75.7445 26.4998L81.6665 23.5303L87.5885 26.4998C88.1704 26.7912 88.8695 26.7163 89.3773 26.3086C89.8843 25.9009 90.1081 25.2352 89.9502 24.6037L88.5114 18.8534L92.8449 14.5199C93.3275 14.0438 93.4739 13.3236 93.2152 12.6969C92.9564 12.0711 92.3444 11.6634 91.6665 11.6667ZM85.4881 17.1549C85.0739 17.5692 84.9079 18.1706 85.0495 18.7386L85.838 21.888L82.4111 20.175C81.9424 19.9406 81.3906 19.9406 80.9219 20.175L77.4998 21.888L78.2884 18.7386C78.43 18.1706 78.264 17.5692 77.8498 17.1549L75.6899 15H78.3332C78.8906 15 79.4106 14.7217 79.7199 14.2586L81.6665 11.333L83.6131 14.2529C83.9215 14.7184 84.4416 14.9992 84.9998 15H87.6431L85.4881 17.1549Z" fill="black"/>
</g>
<defs>
<clipPath id="clip0_163_598">
<rect width="100" height="100" fill="white"/>
</clipPath>
</defs>
</svg>
