<svg width="100" height="100" viewBox="0 0 100 100" fill="none" xmlns="http://www.w3.org/2000/svg">
<path d="M97.4363 42.198L90.4291 39.501C89.4592 35.7572 87.9756 32.1783 86.0098 28.8404L89.0594 21.9742C89.3217 21.3836 89.1934 20.6922 88.7363 20.2352L79.7648 11.2637C79.3076 10.8066 78.6168 10.6781 78.0258 10.9404L71.157 13.9912C67.8186 12.0256 64.241 10.5422 60.5 9.57266L57.8021 2.56367C57.5697 1.96055 56.99 1.5625 56.3436 1.5625H43.6562C43.0098 1.5625 42.4303 1.96055 42.198 2.56367L39.5 9.57285C35.759 10.5422 32.1812 12.0256 28.843 13.9914L21.9742 10.9406C21.3834 10.6783 20.6924 10.8068 20.2352 11.2639L11.2637 20.2354C10.8066 20.6924 10.6783 21.3836 10.9406 21.9744L13.9908 28.8424C12.0252 32.1805 10.5418 35.7586 9.57227 39.5006L2.56367 42.1982C1.96055 42.4303 1.5625 43.01 1.5625 43.6564V56.3439C1.5625 56.9904 1.96055 57.5699 2.56367 57.8021L9.57109 60.4992C10.541 64.243 12.0246 67.8221 13.9902 71.1598L10.9406 78.026C10.6783 78.6166 10.8066 79.308 11.2637 79.765L20.2354 88.7365C20.6926 89.1936 21.3836 89.3223 21.9744 89.0598L28.8432 86.009C32.1816 87.9748 35.7592 89.458 39.5002 90.4275L42.198 97.4365C42.4301 98.0398 43.0098 98.4377 43.6562 98.4377H56.3438C56.9902 98.4377 57.5697 98.0396 57.802 97.4365L60.4992 90.4295C64.2426 89.4598 67.8217 87.9762 71.1598 86.0103L78.0258 89.06C78.6166 89.3225 79.3076 89.1939 79.7648 88.7369L88.7363 79.7652C89.1934 79.3082 89.3217 78.617 89.0594 78.0262L86.0088 71.1576C87.9744 67.8191 89.4578 64.2416 90.4271 60.5004L97.4363 57.8025C98.0395 57.5705 98.4375 56.9908 98.4375 56.3443V43.6568C98.4375 43.0098 98.0395 42.4301 97.4363 42.198ZM95.3125 55.2709L88.5457 57.8754C88.0648 58.0603 87.7063 58.4705 87.5871 58.9719C86.6404 62.9494 85.0703 66.7365 82.9199 70.2285C82.6498 70.6674 82.6135 71.2111 82.8225 71.682L85.7678 78.3137L78.3137 85.768L71.6846 82.8236C71.2141 82.6145 70.6701 82.6508 70.2311 82.9213C66.7398 85.0715 62.9516 86.6418 58.9715 87.5889C58.4703 87.7082 58.06 88.0668 57.875 88.5477L55.2709 95.3125H44.7291L42.1244 88.5459C41.9395 88.065 41.5291 87.7065 41.0281 87.5871C37.0508 86.6406 33.2635 85.0705 29.7713 82.9203C29.3322 82.65 28.7885 82.6139 28.318 82.8227L21.6863 85.768L14.232 78.3137L17.1764 71.6846C17.3854 71.2137 17.349 70.6697 17.0787 70.2311C14.9287 66.7402 13.3584 62.952 12.4111 58.9715C12.292 58.4703 11.9332 58.06 11.4525 57.875L4.6875 55.2711V44.7291L11.4537 42.1248C11.9346 41.9398 12.2932 41.5295 12.4123 41.0283C13.3592 37.0498 14.9295 33.2623 17.0795 29.7709C17.3498 29.332 17.3861 28.7883 17.1771 28.3174L14.2322 21.6865L21.6863 14.232L28.318 17.1773C28.7885 17.3863 29.3324 17.35 29.7713 17.0797C33.2633 14.9297 37.0506 13.3596 41.0281 12.4129C41.5291 12.2936 41.9395 11.935 42.1244 11.4541L44.7293 4.6875H55.2709L57.8756 11.4541C58.0605 11.935 58.4709 12.2936 58.9719 12.4129C62.9494 13.3596 66.7367 14.9297 70.2287 17.0797C70.6678 17.35 71.2115 17.3861 71.682 17.1773L78.3137 14.232L85.768 21.6863L82.8236 28.3154C82.6146 28.7863 82.651 29.3303 82.9213 29.7689C85.0715 33.2598 86.6418 37.048 87.5889 41.0285C87.708 41.5297 88.0666 41.94 88.5475 42.125L95.3125 44.7289V55.2709ZM76.6813 34.4885C79.4146 39.1793 80.8594 44.5432 80.8594 50C80.8594 67.016 67.0158 80.8594 50 80.8594C43.9922 80.8594 38.1223 79.0953 33.1324 75.84L33.315 76.4799C33.5518 77.3098 33.0709 78.1742 32.2412 78.4111C32.098 78.452 31.9535 78.4715 31.8117 78.4715C31.1316 78.4715 30.5059 78.0238 30.31 77.3373L28.827 72.1398C28.6951 71.6779 28.7832 71.1811 29.0656 70.7926C29.348 70.4039 29.7936 70.1668 30.2736 70.1496L35.675 69.9555C36.5404 69.9209 37.2617 70.5984 37.2926 71.4609C37.3234 72.3234 36.6496 73.0475 35.7871 73.0785L34.6789 73.1184C39.1973 76.1115 44.5354 77.7344 50 77.7344C65.2928 77.7344 77.7344 65.2928 77.7344 50C77.7344 45.0953 76.4365 40.2756 73.9812 36.0617C73.5467 35.316 73.799 34.3594 74.5447 33.925C75.2904 33.4904 76.2469 33.743 76.6813 34.4885ZM22.2656 50C22.2656 54.9059 23.5635 59.7264 26.0188 63.9404C26.4533 64.6859 26.201 65.6426 25.4553 66.077C25.2078 66.2211 24.9373 66.2896 24.6701 66.2896C24.1322 66.2896 23.6088 66.0117 23.3186 65.5135C20.5854 60.8227 19.1406 55.458 19.1406 50C19.1406 32.984 32.9842 19.1406 50 19.1406C56.008 19.1406 61.8781 20.9053 66.8682 24.1617L66.685 23.5197C66.4482 22.6898 66.9291 21.8252 67.759 21.5885C68.5883 21.3514 69.4535 21.8326 69.6902 22.6623L71.173 27.8598C71.3049 28.3217 71.2168 28.8186 70.9344 29.207C70.652 29.5957 70.2064 29.8328 69.7264 29.85L64.3252 30.0441C64.3061 30.0449 64.2871 30.0451 64.2682 30.0451C63.4311 30.0451 62.7379 29.382 62.7076 28.5387C62.6768 27.6764 63.3506 26.9521 64.2131 26.9211L65.3191 26.8814C60.8008 23.8883 55.4635 22.2656 50 22.2656C34.7072 22.2656 22.2656 34.7072 22.2656 50ZM43.8393 68.0908H45.1104C45.9732 68.0908 46.6729 67.3912 46.6729 66.5283L46.673 56.3896C51.6422 57.6025 56.0252 60.1971 60.4303 62.9875C61.0203 63.3611 61.6775 63.549 62.3371 63.549C62.9254 63.549 63.5154 63.3996 64.0609 63.0992C65.2186 62.4623 65.9096 61.2934 65.9096 59.9723V53.2385C68.2627 52.6283 70.0055 50.4865 70.0055 47.9453C70.0055 45.4051 68.2641 43.2641 65.9096 42.6529V35.4861C65.9096 34.2041 65.2488 33.0523 64.1426 32.4053C63.0357 31.758 61.7084 31.7467 60.5908 32.375C59.8545 32.7891 59.1148 33.216 58.3322 33.6682C54.257 36.0213 49.6439 38.6852 44.949 39.6877H38.1662C33.6605 39.6877 29.9947 43.3533 29.9947 47.859C29.9947 52.3646 33.6605 56.0303 38.1662 56.0303H38.6451V62.8965C38.6449 65.7605 40.9752 68.0908 43.8393 68.0908ZM66.8803 47.9453C66.8803 48.725 66.4959 49.415 65.9094 49.841V46.0504C66.4963 46.4766 66.8803 47.1662 66.8803 47.9453ZM41.7699 62.8965V56.0303H43.548L43.5479 64.9453C42.5443 64.8031 41.7699 63.9385 41.7699 62.8965ZM57.3885 57.4998C54.0729 55.6352 50.54 54.0213 46.673 53.1795L46.6732 42.4861C50.4684 41.502 54.0713 39.6729 57.3885 37.808V57.4998ZM62.1223 35.0988C62.2779 35.0113 62.4102 35.0125 62.5646 35.1029C62.7188 35.193 62.7844 35.3076 62.7844 35.4861V59.9723C62.7844 60.1539 62.7135 60.2738 62.5541 60.3615C62.3947 60.4492 62.2557 60.4447 62.1023 60.3477C61.5775 60.0152 61.0479 59.6826 60.5135 59.3523V36.0172C61.0639 35.7 61.5965 35.3945 62.1223 35.0988ZM33.1195 47.859C33.1195 45.0764 35.3834 42.8127 38.166 42.8127H43.5482L43.548 52.9053H38.166C35.3834 52.9053 33.1195 50.6414 33.1195 47.859Z" fill="black"/>
</svg>
