<svg width="100" height="100" viewBox="0 0 100 100" fill="none" xmlns="http://www.w3.org/2000/svg">
<path d="M13.7518 21.8166H15.2184V23.2832C15.2184 24.0934 15.875 24.7498 16.685 24.7498C17.4949 24.7498 18.1516 24.0932 18.1516 23.2832V21.8166H19.6182C20.4281 21.8166 21.0848 21.16 21.0848 20.35C21.0848 19.5398 20.4281 18.8834 19.6182 18.8834H18.1516V17.4168C18.1516 16.6066 17.4949 15.9502 16.685 15.9502C15.875 15.9502 15.2184 16.6068 15.2184 17.4168V18.8834H13.7518C12.9418 18.8834 12.2852 19.54 12.2852 20.35C12.2852 21.16 12.9418 21.8166 13.7518 21.8166Z" fill="black"/>
<path d="M71.6641 60.318H70.1975V58.8514C70.1975 58.0412 69.5408 57.3848 68.7309 57.3848C67.9209 57.3848 67.2643 58.0414 67.2643 58.8514V60.318H65.7977C64.9875 60.318 64.3311 60.9746 64.3311 61.7846C64.3311 62.5947 64.9877 63.2512 65.7977 63.2512H67.2643V64.7178C67.2643 65.5279 67.9209 66.1844 68.7309 66.1844C69.5408 66.1844 70.1975 65.5277 70.1975 64.7178V63.2512H71.6641C72.4742 63.2512 73.1307 62.5945 73.1307 61.7846C73.1307 60.9746 72.474 60.318 71.6641 60.318Z" fill="black"/>
<path d="M86.2471 2.9332H84.7805V1.4666C84.7805 0.656445 84.1238 0 83.3139 0C82.5039 0 81.8473 0.656641 81.8473 1.4666V2.9332H80.3807C79.5705 2.9332 78.9141 3.58984 78.9141 4.3998C78.9141 5.20977 79.5707 5.86641 80.3807 5.86641H81.8473V7.33301C81.8473 8.14316 82.5039 8.79961 83.3139 8.79961C84.1238 8.79961 84.7805 8.14297 84.7805 7.33301V5.86641H86.2471C87.0572 5.86641 87.7137 5.20977 87.7137 4.3998C87.7137 3.58984 87.057 2.9332 86.2471 2.9332Z" fill="black"/>
<path d="M49.2967 58.0258C48.8898 58.0201 48.4846 58.0598 48.0893 58.1422V47.0023C50.274 47.7471 52.5582 48.124 54.9059 48.124C66.5859 48.124 76.0885 38.6217 76.0885 26.9414C76.0885 15.2611 66.5861 5.75879 54.9059 5.75879C43.2258 5.75879 33.7232 15.2613 33.7232 26.9416C33.7232 30.9602 34.852 34.8527 36.9857 38.2322V50.4492C36.1313 49.9904 35.1666 49.7633 34.1662 49.8002C31.5227 49.8941 29.3209 51.9373 28.8914 54.5252C28.0184 54.0387 27.027 53.7986 25.9961 53.8344C23.8557 53.9104 22.0047 55.2643 21.1498 57.151C20.1801 56.4879 19.0287 56.151 17.826 56.1951C14.8758 56.3002 12.4756 58.833 12.4756 61.841V67.4045C12.4756 68.2146 13.1322 68.8711 13.9422 68.8711C14.7521 68.8711 15.4088 68.2145 15.4088 67.4045V61.841C15.4088 60.3937 16.54 59.176 17.9303 59.1264C19.4174 59.0744 20.6455 60.258 20.6455 61.743C20.6455 62.5531 21.3021 63.2096 22.1121 63.2096C22.9221 63.2096 23.5787 62.5529 23.5787 61.743V59.4803C23.5787 58.033 24.7098 56.815 26.1002 56.7656C26.8197 56.7385 27.4994 57.0002 28.015 57.498C28.5312 57.9963 28.8154 58.6654 28.8154 59.3824C28.8154 60.1926 29.4721 60.849 30.282 60.849C31.092 60.849 31.7486 60.1924 31.7486 59.3824V55.4459C31.7486 53.9986 32.8797 52.7809 34.2701 52.7314C35.7645 52.6814 36.9854 53.8682 36.9854 55.3479C36.9854 56.158 37.642 56.8145 38.452 56.8145C39.2619 56.8145 39.9186 56.1578 39.9186 55.3479C39.9186 53.0387 39.9186 41.0195 39.9186 35.5541C39.9186 34.076 41.1377 32.8869 42.6338 32.9375C44.0242 32.9869 45.1553 34.2047 45.1553 35.6521V58.6828C45.1553 60.4045 46.8277 61.582 48.4453 61.077C48.7068 60.9951 48.9814 60.9576 49.2592 60.9588C50.6602 60.9764 51.8438 62.2207 51.8438 63.6762V75.5947C51.8438 78.7973 50.7859 81.9723 48.8652 84.5352C47.4129 86.5344 46.5617 87.4268 45.5768 89.2793H20.1348C20.1219 89.2482 20.1094 89.2162 20.0963 89.1855L16.616 80.959C15.1969 77.65 15.4355 74.642 15.4092 74.3324C15.4092 73.5223 14.7525 72.8658 13.9426 72.8658C13.1326 72.8658 12.476 73.5225 12.476 74.3324C12.5174 74.8049 12.1949 78.092 13.9176 82.1084L17.191 89.8463C16.0121 90.5482 15.218 91.8318 15.218 93.3008V95.9787C15.218 98.1963 17.0221 100 19.2396 100H45.9113C48.1289 100 49.933 98.1963 49.933 95.9787V93.3008C49.933 92.0398 49.3486 90.9139 48.4375 90.1758C49.1615 88.9271 49.625 88.4543 51.2135 86.2941C53.5119 83.2271 54.7779 79.4273 54.7779 75.5945V63.6762C54.7777 60.6504 52.2678 58.0629 49.2967 58.0258ZM42.7387 30.0061C40.5258 29.9283 38.6187 31.1361 37.6553 32.9049C36.9973 31.0012 36.6566 28.9904 36.6566 26.9416C36.6566 16.8787 44.8432 8.69219 54.9059 8.69219C64.9686 8.69219 73.1551 16.8787 73.1551 26.9416C73.1551 37.0043 64.9686 45.1908 54.9059 45.1908C52.5414 45.1908 50.2529 44.7477 48.0893 43.8736V36.3783C48.1945 36.5324 48.3309 36.6693 48.4969 36.7777C50.3709 38.0035 51.64 38.3514 53.3076 38.4338V39.9447C53.3076 40.7549 53.9643 41.4113 54.7742 41.4113C55.5842 41.4113 56.2408 40.7547 56.2408 39.9447V38.2812C59.3754 37.5938 61.2084 34.9775 61.6197 32.5303C62.1576 29.3303 60.484 26.5478 57.3559 25.4422C56.9893 25.3127 56.615 25.1777 56.2408 25.0375V18.3156C57.1951 18.5816 57.7609 19.0607 57.8143 19.1072C58.4102 19.6467 59.3305 19.6061 59.8766 19.0143C60.4258 18.4187 60.3883 17.4908 59.793 16.9418C59.7129 16.8682 58.3986 15.6855 56.241 15.315V13.9385C56.241 13.1283 55.5844 12.4719 54.7744 12.4719C53.9645 12.4719 53.3078 13.1285 53.3078 13.9385V15.3756C53.0621 15.4266 52.8111 15.4893 52.5549 15.5664C50.4934 16.1875 48.9531 17.9514 48.535 20.1699C47.8461 23.8256 49.9416 25.5338 53.308 27.0143V35.498C52.1035 35.4234 51.376 35.1557 50.1029 34.323C49.4248 33.8797 48.5162 34.0695 48.0727 34.7477C48.0564 34.7725 48.0428 34.7982 48.0283 34.8236C47.6363 32.192 45.4137 30.1012 42.7387 30.0061ZM56.2408 28.1586C58.2313 28.8682 59.0199 30.3033 58.7271 32.0441C58.5168 33.2957 57.6723 34.623 56.2408 35.2111V28.1586ZM53.3076 23.7594C51.9385 23.0283 51.0934 22.432 51.4172 20.7129C51.5809 19.8445 52.1643 18.7977 53.3076 18.4074V23.7594ZM46.9996 95.9787C46.9996 96.5787 46.5113 97.067 45.9113 97.067H19.2396C18.6395 97.067 18.1514 96.5787 18.1514 95.9787V93.3008C18.1514 92.6986 18.6416 92.2125 19.2396 92.2125H45.9113C46.5025 92.2125 46.9996 92.6941 46.9996 93.3008V95.9787Z" fill="black"/>
<path d="M54.9059 0C40.0504 0 27.9648 12.0857 27.9648 26.9412C27.9648 32.0555 29.4049 37.0324 32.1291 41.334C32.5623 42.0182 33.4684 42.2221 34.1527 41.7883C34.8371 41.3549 35.0404 40.4488 34.607 39.7646C32.1807 35.9332 30.898 31.499 30.898 26.9414C30.898 13.7033 41.668 2.9334 54.9059 2.9334C68.1439 2.9334 78.9139 13.7033 78.9139 26.9414C78.9139 40.1795 68.1439 50.9494 54.9059 50.9494C54.3908 50.9494 53.8689 50.9328 53.3549 50.9C52.5418 50.8457 51.8494 51.4617 51.7977 52.2699C51.7459 53.0783 52.3594 53.7756 53.1676 53.8271C53.7437 53.8641 54.3285 53.8828 54.9059 53.8828C69.7613 53.8828 81.8471 41.7971 81.8471 26.9416C81.8471 12.0861 69.7613 0 54.9059 0Z" fill="black"/>
</svg>
