<svg width="100" height="100" viewBox="0 0 100 100" fill="none" xmlns="http://www.w3.org/2000/svg">
<g clip-path="url(#clip0_163_560)">
<path d="M81.3174 21.8035L76.5627 17.0488L71.8081 21.8035L69.5986 19.594L76.5627 12.6299L83.5269 19.594L81.3174 21.8035Z" fill="black"/>
<path d="M75 15.6201H78.125V32.8076H75V15.6201Z" fill="black"/>
<path d="M84.375 53.1204H81.25V46.4012C93.0389 43.9949 101.091 33.0528 99.881 21.0815C98.6717 9.11102 88.5948 0 76.5625 0C64.5302 0 54.4533 9.11102 53.244 21.0815C52.034 33.0528 60.0861 43.9949 71.875 46.4012V53.1204H68.75V96.8704H62.5V46.8704H46.875V96.8704H40.625V59.3704H25V96.8704H18.75V74.9954H3.125V96.8704H0V99.9954H100V96.8704H84.375V53.1204ZM15.625 96.8704H6.25V78.1204H15.625V96.8704ZM37.5 96.8704H28.125V62.4954H37.5V96.8704ZM59.375 96.8704H50V49.9954H59.375V96.8704ZM56.25 23.4329C56.25 12.5916 64.7636 3.66135 75.5928 3.14407C86.4212 2.62604 95.7481 10.704 96.7827 21.4951C97.8165 32.2868 90.1939 41.9891 79.464 43.5371L78.125 43.7294V53.1204H75V43.7294L73.661 43.5371C63.6879 42.0563 56.2912 33.5152 56.25 23.4329ZM81.25 96.8704H71.875V56.2454H81.25V96.8704Z" fill="black"/>
<path d="M93.75 23.4326C93.75 13.9401 86.055 6.24512 76.5625 6.24512C67.07 6.24512 59.375 13.9401 59.375 23.4326C59.375 32.9251 67.07 40.6201 76.5625 40.6201C86.0504 40.6087 93.7386 32.9205 93.75 23.4326ZM62.5 23.4326C62.5 15.6659 68.7958 9.37012 76.5625 9.37012C84.3292 9.37012 90.625 15.6659 90.625 23.4326C90.625 31.1986 84.3292 37.4951 76.5625 37.4951C68.7996 37.486 62.5084 31.1955 62.5 23.4326Z" fill="black"/>
<path d="M22.4858 53.1201H33.4592L46.8747 39.7046V43.7451H49.9997V34.3701H40.6247V37.4951H44.6653L32.1653 49.9951H21.2636L0.500977 69.1602L2.62347 71.4543L22.4858 53.1201Z" fill="black"/>
<path d="M90.625 53.1201H100V56.2451H90.625V53.1201Z" fill="black"/>
<path d="M90.625 59.3701H100V62.4951H90.625V59.3701Z" fill="black"/>
<path d="M90.625 65.6201H100V68.7451H90.625V65.6201Z" fill="black"/>
<path d="M90.625 71.8701H100V74.9951H90.625V71.8701Z" fill="black"/>
<path d="M90.625 78.1201H100V81.2451H90.625V78.1201Z" fill="black"/>
<path d="M90.625 84.3701H100V87.4951H90.625V84.3701Z" fill="black"/>
<path d="M90.625 90.6201H100V93.7451H90.625V90.6201Z" fill="black"/>
</g>
<defs>
<clipPath id="clip0_163_560">
<rect width="100" height="100" fill="white"/>
</clipPath>
</defs>
</svg>
