<svg width="100" height="100" viewBox="0 0 100 100" fill="none" xmlns="http://www.w3.org/2000/svg">
<path d="M37.5 20.3486H34.375C33.5125 20.3486 32.8125 19.6471 32.8125 18.7861H29.6875C29.6875 21.3705 31.7906 23.4736 34.375 23.4736H37.5C40.0844 23.4736 42.1875 21.3705 42.1875 18.7861C42.1875 16.2018 40.0844 14.0986 37.5 14.0986H34.375C33.5125 14.0986 32.8125 13.3971 32.8125 12.5361C32.8125 11.6752 33.5125 10.9736 34.375 10.9736H37.5C38.3625 10.9736 39.0625 11.6752 39.0625 12.5361H42.1875C42.1875 9.95176 40.0844 7.84863 37.5 7.84863H34.375C31.7906 7.84863 29.6875 9.95176 29.6875 12.5361C29.6875 15.1205 31.7906 17.2236 34.375 17.2236H37.5C38.3625 17.2236 39.0625 17.9252 39.0625 18.7861C39.0625 19.6471 38.3625 20.3486 37.5 20.3486Z" fill="black"/>
<path d="M50 23.4736H54.6875V20.3486H50C49.1375 20.3486 48.4375 19.6471 48.4375 18.7861V17.2236H54.6875V14.0986H48.4375V12.5361C48.4375 11.6752 49.1375 10.9736 50 10.9736H54.6875V7.84863H50C47.4156 7.84863 45.3125 9.95176 45.3125 12.5361V18.7861C45.3125 21.3705 47.4156 23.4736 50 23.4736Z" fill="black"/>
<path d="M62.5 23.4736H65.625C68.2094 23.4736 70.3125 21.3705 70.3125 18.7861V12.5361C70.3125 9.95176 68.2094 7.84863 65.625 7.84863H62.5C59.9156 7.84863 57.8125 9.95176 57.8125 12.5361V18.7861C57.8125 21.3705 59.9156 23.4736 62.5 23.4736ZM60.9375 12.5361C60.9375 11.6752 61.6375 10.9736 62.5 10.9736H65.625C66.4875 10.9736 67.1875 11.6752 67.1875 12.5361V18.7861C67.1875 19.6471 66.4875 20.3486 65.625 20.3486H62.5C61.6375 20.3486 60.9375 19.6471 60.9375 18.7861V12.5361Z" fill="black"/>
<path d="M98.4375 35.9377H92.1875V31.2502C92.1875 26.9424 88.6828 23.4377 84.375 23.4377H76.5625V6.28613C76.5625 3.70176 74.4594 1.59863 71.875 1.59863H28.125C25.5406 1.59863 23.4375 3.70176 23.4375 6.28613V23.4377H15.625C11.3172 23.4377 7.8125 26.9424 7.8125 31.2502V40.7533C4.08281 42.9189 1.5625 46.9486 1.5625 51.5627C1.5625 56.1768 4.08281 60.2064 7.8125 62.3721V75.0002C7.8125 79.308 11.3172 82.8127 15.625 82.8127H34.375V89.0627H32.8125C28.5047 89.0627 25 92.5674 25 96.8752V98.4377H75V96.8752C75 92.5674 71.4953 89.0627 67.1875 89.0627H65.625V82.8127H84.375C88.6828 82.8127 92.1875 79.308 92.1875 75.0002V64.0627H98.4375V35.9377ZM26.5625 6.28613C26.5625 5.42519 27.2625 4.72363 28.125 4.72363H71.875C72.7375 4.72363 73.4375 5.42519 73.4375 6.28613V25.0361C73.4375 25.8971 72.7375 26.5986 71.875 26.5986H55.7781L46.6141 32.6736C46.0938 33.0236 45.3125 32.6018 45.3125 31.9736V26.5986H28.125C27.2625 26.5986 26.5625 25.8971 26.5625 25.0361V6.28613ZM10.9375 31.2502C10.9375 28.6658 13.0406 26.5627 15.625 26.5627H23.7141C24.3516 28.3955 26.0766 29.7236 28.125 29.7236H42.1875V31.9736C42.1875 34.1596 43.9656 35.9377 46.1516 35.9377C46.9328 35.9377 47.6891 35.7096 48.3406 35.2783L56.7203 29.7236H71.875C73.9219 29.7236 75.6484 28.3955 76.2859 26.5627H84.375C86.9594 26.5627 89.0625 28.6658 89.0625 31.2502V35.9377H76.5625V50.0002H67.1875V42.1877H57.8125V60.9377H54.6875V39.0627H45.3125V60.9377H42.1875V45.3127H32.8125V50.0002H26.4547C25.6812 43.8439 20.425 39.0627 14.0625 39.0627C12.9812 39.0627 11.9391 39.2143 10.9375 39.4736V31.2502ZM60.9375 60.9377V45.3127H64.0625V60.9377H60.9375ZM51.5625 60.9377H48.4375V42.1877H51.5625V60.9377ZM39.0625 60.9377H35.9375V48.4377H39.0625V60.9377ZM4.6875 51.5627C4.6875 46.3924 8.89219 42.1877 14.0625 42.1877C19.2328 42.1877 23.4375 46.3924 23.4375 51.5627C23.4375 56.733 19.2328 60.9377 14.0625 60.9377C8.89219 60.9377 4.6875 56.733 4.6875 51.5627ZM71.6078 95.3127H28.3922C29.0375 93.4939 30.775 92.1877 32.8125 92.1877H67.1875C69.225 92.1877 70.9625 93.4939 71.6078 95.3127ZM62.5 89.0627H37.5V82.8127H62.5V89.0627ZM84.375 79.6877H15.625C13.0406 79.6877 10.9375 77.5846 10.9375 75.0002V70.3127H89.0625V75.0002C89.0625 77.5846 86.9594 79.6877 84.375 79.6877ZM89.0625 67.1877H10.9375V63.6518C11.9391 63.9111 12.9812 64.0627 14.0625 64.0627C20.425 64.0627 25.6812 59.2814 26.4547 53.1252H32.8125V60.9377H29.6875V64.0627H70.3125V60.9377H67.1875V53.1252H76.5625V64.0627H89.0625V67.1877ZM95.3125 60.9377H79.6875V39.0627H95.3125V60.9377Z" fill="black"/>
<path d="M43.75 76.5625C44.6129 76.5625 45.3125 75.8629 45.3125 75C45.3125 74.1371 44.6129 73.4375 43.75 73.4375C42.8871 73.4375 42.1875 74.1371 42.1875 75C42.1875 75.8629 42.8871 76.5625 43.75 76.5625Z" fill="black"/>
<path d="M50 76.5625C50.8629 76.5625 51.5625 75.8629 51.5625 75C51.5625 74.1371 50.8629 73.4375 50 73.4375C49.1371 73.4375 48.4375 74.1371 48.4375 75C48.4375 75.8629 49.1371 76.5625 50 76.5625Z" fill="black"/>
<path d="M56.25 76.5625C57.1129 76.5625 57.8125 75.8629 57.8125 75C57.8125 74.1371 57.1129 73.4375 56.25 73.4375C55.3871 73.4375 54.6875 74.1371 54.6875 75C54.6875 75.8629 55.3871 76.5625 56.25 76.5625Z" fill="black"/>
<path d="M20.3125 51.5625C20.3125 48.1156 17.5094 45.3125 14.0625 45.3125C10.6156 45.3125 7.8125 48.1156 7.8125 51.5625C7.8125 55.0094 10.6156 57.8125 14.0625 57.8125C17.5094 57.8125 20.3125 55.0094 20.3125 51.5625ZM10.9375 51.5625C10.9375 49.8391 12.3391 48.4375 14.0625 48.4375C15.7859 48.4375 17.1875 49.8391 17.1875 51.5625C17.1875 53.2859 15.7859 54.6875 14.0625 54.6875C12.3391 54.6875 10.9375 53.2859 10.9375 51.5625Z" fill="black"/>
<path d="M82.8125 42.1875H92.1875V45.3125H82.8125V42.1875Z" fill="black"/>
<path d="M82.8125 48.4375H92.1875V51.5625H82.8125V48.4375Z" fill="black"/>
<path d="M82.8125 54.6875H92.1875V57.8125H82.8125V54.6875Z" fill="black"/>
</svg>
