<svg width="100" height="100" viewBox="0 0 100 100" fill="none" xmlns="http://www.w3.org/2000/svg">
<path d="M18.8133 67.6512C18.8133 66.8961 19.4254 66.284 20.1805 66.284H53.234C53.9891 66.284 54.6012 66.8961 54.6012 67.6512C54.6012 68.4063 53.9891 69.0184 53.234 69.0184H20.1805C19.4254 69.0184 18.8133 68.4063 18.8133 67.6512ZM20.1805 58.8824H44.327C45.082 58.8824 45.6941 58.2703 45.6941 57.5152C45.6941 56.7602 45.082 56.1481 44.327 56.1481H20.1805C19.4254 56.1481 18.8133 56.7602 18.8133 57.5152C18.8133 58.2703 19.4254 58.8824 20.1805 58.8824ZM76.1416 78.8525V95.0752C76.1416 96.8217 74.7209 98.2424 72.9744 98.2424H51.1838C49.4373 98.2424 48.0166 96.8217 48.0166 95.0752V85.169C44.3889 86.0117 40.5934 86.4395 36.7072 86.4395C35.0963 86.4395 33.4771 86.3641 31.8865 86.2152L15.0002 97.9967C14.7652 98.1606 14.4916 98.2426 14.218 98.2426C13.9506 98.2426 13.6834 98.1645 13.4518 98.0076C12.9832 97.6904 12.7582 97.1174 12.8861 96.5662L16.2762 81.9623C7.16211 77.4912 1.75781 70.3096 1.75781 62.5832C1.75781 57.2844 4.22656 52.2758 8.89707 48.099C13.3654 44.1031 19.4459 41.2195 26.4813 39.7602C27.2205 39.6072 27.9443 40.0818 28.0977 40.8211C28.251 41.5606 27.776 42.2842 27.0367 42.4375C20.566 43.7797 14.7711 46.5143 10.7199 50.1371C6.6457 53.7807 4.49219 58.0844 4.49219 62.5832C4.49219 69.49 9.7002 75.9834 18.4236 79.9527C19.0162 80.2223 19.3363 80.8723 19.1891 81.5063L16.3545 93.7174L30.7361 83.6834C31.0055 83.4955 31.333 83.4113 31.6598 83.4447C33.3197 83.6172 35.0178 83.7047 36.7072 83.7047C40.6072 83.7047 44.4059 83.2504 48.0166 82.3563V78.8523C48.0166 77.1059 49.4373 75.6852 51.1838 75.6852H61.9307C66.443 71.9578 68.9223 67.3207 68.9223 62.583C68.9223 57.5209 66.1174 52.6135 61.0242 48.7648C60.4219 48.3096 60.3025 47.4524 60.7576 46.8498C61.2129 46.2475 62.0701 46.1281 62.6727 46.5834C68.466 50.9611 71.6566 56.6432 71.6566 62.583C71.6566 67.2693 69.6518 71.8232 65.9475 75.6852H72.9742C74.7207 75.6852 76.1416 77.1061 76.1416 78.8525ZM73.4072 78.8525C73.4072 78.618 73.209 78.4197 72.9744 78.4197H51.1838C50.9492 78.4197 50.751 78.618 50.751 78.8525V95.0752C50.751 95.3098 50.9492 95.508 51.1838 95.508H72.9744C73.209 95.508 73.4072 95.3098 73.4072 95.0752V78.8525ZM67.3471 86.9637C67.3471 87.4522 67.0865 87.9035 66.6635 88.1477L58.8619 92.6518C58.6504 92.7738 58.4143 92.835 58.1783 92.835C57.9424 92.835 57.7062 92.774 57.4947 92.6518C57.0717 92.4076 56.8111 91.9563 56.8111 91.4678V82.4594C56.8111 81.9709 57.0717 81.5195 57.4947 81.2754C57.9178 81.0311 58.4389 81.0311 58.8619 81.2754L66.6635 85.7797C67.0865 86.024 67.3471 86.4752 67.3471 86.9637ZM63.2455 86.9637L59.5455 84.8275V89.0998L63.2455 86.9637ZM89.3193 16.0475C89.5514 16.0475 89.7863 15.9885 90.0018 15.8641L95.282 12.8156C95.9359 12.4381 96.16 11.602 95.7824 10.9481C95.4051 10.2941 94.5691 10.0701 93.9148 10.4477L88.6346 13.4961C87.9807 13.8736 87.7566 14.7098 88.1342 15.3637C88.3873 15.8022 88.8469 16.0475 89.3193 16.0475ZM80.5184 9.87911C80.7338 10.0035 80.9688 10.0625 81.2008 10.0625C81.6732 10.0625 82.1328 9.81739 82.3859 9.37872L85.6018 3.80879C85.9793 3.15489 85.7553 2.31876 85.1014 1.94122C84.4475 1.56368 83.6113 1.7877 83.2338 2.44161L80.018 8.01153C79.6404 8.66544 79.8645 9.50157 80.5184 9.87911ZM89.0762 24.7014C89.0762 25.4565 89.6883 26.0686 90.4434 26.0686H96.875C97.6301 26.0686 98.2422 25.4565 98.2422 24.7014C98.2422 23.9463 97.6301 23.3342 96.875 23.3342H90.4434C89.6883 23.3342 89.0762 23.9463 89.0762 24.7014ZM31.1533 39.7057C31.8803 36.9922 33.6121 34.7293 36.0301 33.3334L43.1812 29.2047C43.4951 29.0232 43.8686 28.974 44.2188 29.068C44.357 29.1051 44.4867 29.1639 44.6049 29.2398C51.9541 23.7397 57.749 17.3721 61.0687 11.1397L60.943 10.9219C59.3938 8.23868 60.3164 4.79532 62.9996 3.2459C65.6832 1.69688 69.1264 2.61954 70.6756 5.30254L76.2545 14.9654C79.2178 13.4324 82.9051 14.4904 84.5902 17.4096C86.2754 20.3285 85.348 24.0502 82.5391 25.8506L88.118 35.5135C88.8662 36.8094 89.0637 38.3231 88.6744 39.7762C88.285 41.2291 87.357 42.4414 86.0611 43.1897C85.1996 43.6871 84.2418 43.9412 83.2695 43.9412C82.7793 43.9412 82.2855 43.8766 81.7986 43.7461C80.3457 43.3568 79.1334 42.4287 78.3854 41.133L78.2596 40.9152C71.2643 40.6758 62.9361 42.4768 54.5719 46.0293L64.4434 59.3168C65.4285 60.643 65.2557 62.474 64.0412 63.576L61.8695 65.5467C61.2812 66.0803 60.5143 66.3734 59.7273 66.3734C59.6262 66.3734 59.5248 66.3686 59.4234 66.3588C58.5432 66.2738 57.7355 65.8199 57.2078 65.1133L46.8805 51.2941L46.5201 51.5022C44.9131 52.4299 43.1258 52.9039 41.3111 52.9039C40.3955 52.9039 39.473 52.7832 38.5631 52.5395C35.8496 51.8125 33.5867 50.0805 32.1908 47.6627C30.7947 45.2447 30.4264 42.419 31.1533 39.7057ZM62.2482 60.9473L52.6164 47.9822L49.265 49.9172L59.3982 63.4766C59.4865 63.5949 59.6035 63.6291 59.6861 63.6371C59.7602 63.6441 59.9029 63.6387 60.032 63.5215L62.2035 61.551C62.3742 61.3961 62.3932 61.1422 62.2482 60.9473ZM77.6254 17.34L81.1682 23.4762C82.6721 22.4338 83.1533 20.3895 82.2223 18.7768C81.2912 17.1643 79.2801 16.5588 77.6254 17.34ZM63.3109 9.55469L80.7531 39.7656C81.1361 40.4289 81.7586 40.9045 82.5062 41.1047C83.2537 41.3047 84.0305 41.2045 84.6939 40.8215C85.3572 40.4387 85.8328 39.816 86.0332 39.0686C86.2334 38.3211 86.1328 37.5441 85.75 36.8809L68.3076 6.66993C67.774 5.74551 66.8021 5.22813 65.8045 5.22813C65.3154 5.22813 64.8201 5.35235 64.367 5.61407C63.7037 5.99688 63.2281 6.61954 63.0279 7.367C62.8277 8.11446 62.9281 8.89141 63.3109 9.55469ZM46.1043 31.533L53.116 43.6779C61.3164 40.1451 69.5426 38.2242 76.6703 38.1627L62.6578 13.8918C59.0408 20.0338 53.2641 26.1977 46.1043 31.533ZM34.5586 46.2953C35.5893 48.0807 37.2627 49.3602 39.2705 49.8981C41.2781 50.4361 43.3672 50.1647 45.1525 49.134L51.1197 45.6889L43.3643 32.2561L37.3971 35.7012C35.6117 36.7318 34.3324 38.4053 33.7943 40.4131C33.2562 42.4209 33.5279 44.5102 34.5586 46.2953ZM9.2584 17.5629C9.2584 12.984 12.9836 9.2586 17.5627 9.2586C22.1418 9.2586 25.867 12.9838 25.867 17.5629C25.867 22.1418 22.1418 25.867 17.5627 25.867C12.9836 25.867 9.2584 22.1418 9.2584 17.5629ZM11.9928 17.5629C11.9928 20.6342 14.4914 23.1326 17.5627 23.1326C20.634 23.1326 23.1326 20.6342 23.1326 17.5629C23.1326 14.4916 20.634 11.993 17.5627 11.993C14.4914 11.993 11.9928 14.4916 11.9928 17.5629ZM1.75781 19.0066V16.1191C1.75781 14.8422 2.79648 13.8035 4.07324 13.8035C5.2041 13.8035 5.6502 12.9391 5.75977 12.674C5.86953 12.409 6.16563 11.4822 5.36582 10.6826C4.92852 10.2455 4.6875 9.66407 4.6875 9.04532C4.6875 8.42676 4.92832 7.84512 5.36582 7.40782L7.40742 5.36602C8.31016 4.46309 9.7793 4.46309 10.6822 5.36602C11.482 6.16583 12.4088 5.86973 12.6736 5.75997C12.9387 5.6502 13.8031 5.2043 13.8031 4.07344C13.8031 2.79649 14.8418 1.75782 16.1186 1.75782H19.0061C20.2828 1.75782 21.3215 2.79649 21.3215 4.07344C21.3215 5.2043 22.1859 5.6502 22.451 5.75997C22.7158 5.86973 23.643 6.16543 24.4424 5.36602C25.3453 4.46309 26.8143 4.46309 27.7172 5.36602L29.759 7.40782C30.1963 7.84512 30.4371 8.42657 30.4371 9.04512C30.4371 9.66368 30.1963 10.2453 29.7588 10.6826C28.9592 11.4822 29.2553 12.409 29.365 12.674C29.4748 12.9389 29.9207 13.8035 31.0516 13.8035C32.3283 13.8035 33.367 14.8422 33.367 16.1191V19.0066C33.367 20.2834 32.3283 21.3221 31.0516 21.3221C29.9207 21.3221 29.4746 22.1865 29.365 22.4516C29.2553 22.7164 28.9592 23.6434 29.759 24.443C30.6619 25.3459 30.6619 26.815 29.759 27.7178L27.7172 29.7596C27.2801 30.1969 26.6984 30.4379 26.0799 30.4379C25.4613 30.4379 24.8797 30.1971 24.4424 29.7596C23.6428 28.9602 22.7162 29.2559 22.451 29.3658C22.1861 29.4756 21.3215 29.9215 21.3215 31.0525C21.3215 32.3293 20.2828 33.368 19.0061 33.368H16.1189C14.8422 33.368 13.8035 32.3293 13.8035 31.0525C13.8035 29.9191 12.9396 29.4732 12.675 29.3637C12.41 29.2539 11.484 28.9582 10.6826 29.7598C10.2455 30.1971 9.66387 30.4381 9.04531 30.4381C8.42676 30.4381 7.84492 30.1973 7.40781 29.7598L5.36621 27.7182C4.92891 27.2811 4.68789 26.6994 4.68789 26.0807C4.68789 25.4621 4.92871 24.8805 5.36621 24.4432C6.16582 23.6436 5.86973 22.7168 5.75996 22.452C5.6502 22.1869 5.2043 21.3225 4.07344 21.3225C2.79648 21.3221 1.75781 20.2834 1.75781 19.0066ZM4.49219 18.6059C6.18965 18.7537 7.62051 19.7979 8.28613 21.4053C8.95195 23.0127 8.67852 24.7629 7.58262 26.0678L9.05781 27.543C10.3637 26.4459 12.1143 26.1719 13.7211 26.8373C15.3281 27.5029 16.3719 28.9346 16.5195 30.6338H18.6055C18.7533 28.9363 19.7975 27.5055 21.4049 26.8397C23.0121 26.1742 24.7623 26.4473 26.0674 27.543L27.5426 26.0678C26.4467 24.7629 26.1734 23.0127 26.8391 21.4053C27.5049 19.7981 28.9355 18.7537 30.633 18.6059V16.5199C28.9355 16.3721 27.5047 15.3279 26.8391 13.7205C26.1734 12.1131 26.4467 10.3631 27.5424 9.05801L26.0672 7.58282C24.7619 8.67852 23.0119 8.95176 21.4047 8.28614C19.7975 7.62032 18.7533 6.18965 18.6055 4.49219H16.5195C16.3717 6.18965 15.3275 7.62051 13.7203 8.28614C12.1129 8.95196 10.3627 8.67852 9.05781 7.58262L7.58262 9.05782C8.67832 10.3631 8.95176 12.1131 8.28594 13.7203C7.62051 15.3279 6.18965 16.3721 4.49219 16.5199V18.6059ZM98.1348 54.9555C97.6522 59.0039 95.7055 62.8553 94.5879 64.7906C93.4703 66.726 91.1086 70.3375 87.8439 72.7797C85.7273 74.3631 83.5959 75.1596 81.5307 75.1596C80.0885 75.1596 78.6783 74.7713 77.3277 73.9914L76.8367 73.7078C76.0277 73.2408 75.449 72.4856 75.2064 71.5807C74.9641 70.676 75.0877 69.7324 75.5547 68.9236L77.5178 65.5234C78.4832 63.851 80.6295 63.276 82.3019 64.2414L83.4535 64.9063C83.7799 65.0949 84.1662 65.0311 84.415 64.7477C85.4887 63.5234 86.4775 62.1328 87.3543 60.6143C88.2311 59.0957 88.941 57.5438 89.4643 56.0022C89.5854 55.6451 89.4475 55.2785 89.1211 55.09L87.9695 54.4254C87.1605 53.9584 86.5818 53.2029 86.3393 52.2982C86.0969 51.3936 86.2205 50.4498 86.6875 49.641L88.6506 46.2408C89.6158 44.5686 91.7621 43.9936 93.4348 44.9588L93.926 45.2424C97.2109 47.1389 98.6662 50.4975 98.1348 54.9555ZM92.5588 47.6104L92.0678 47.3268C91.7012 47.115 91.2303 47.2412 91.0187 47.6078L89.0557 51.008C88.9539 51.1844 88.9271 51.391 88.9807 51.5902C89.034 51.7895 89.1605 51.9553 89.3369 52.057L90.4885 52.7217C91.9539 53.568 92.5977 55.2781 92.0537 56.8807C91.473 58.5916 90.6887 60.3076 89.7225 61.9813C88.7564 63.6545 87.6623 65.1918 86.4709 66.5506C85.3549 67.8232 83.5521 68.1205 82.0865 67.2744L80.935 66.6098C80.8145 66.5402 80.6826 66.507 80.5523 66.507C80.2867 66.507 80.0279 66.6447 79.8857 66.8908L77.9227 70.291C77.8209 70.4674 77.7941 70.674 77.8477 70.8732C77.901 71.0725 78.0275 71.2383 78.2039 71.34L78.6949 71.6236C81.0232 72.9678 83.4801 72.6297 86.2061 70.5902C89.1869 68.3604 91.4047 64.8356 92.2201 63.4234C93.0353 62.0115 94.9791 58.3281 95.4197 54.6318C95.8227 51.2512 94.8869 48.9545 92.5588 47.6104Z" fill="black"/>
</svg>
