<svg width="80" height="80" viewBox="0 0 80 80" fill="none" xmlns="http://www.w3.org/2000/svg">
<g clip-path="url(#clip0_163_674)">
<path d="M58.7973 45.9683C62.3276 39.361 63.3664 31.7051 61.7244 24.3959C60.0823 17.0867 55.8688 10.6108 49.8516 6.14834C43.8344 1.68586 36.4141 -0.466117 28.943 0.0845755C21.4719 0.635268 14.4474 3.85197 9.14951 9.14848C3.85965 14.4482 0.648723 21.4712 0.101252 28.9391C-0.446219 36.407 1.70617 43.8232 6.16659 49.8377C10.627 55.8521 17.0989 60.0649 24.4041 61.7092C31.7092 63.3535 39.362 62.3198 45.9692 58.7964L64.5237 77.3511C66.2294 79.0305 68.5296 79.9677 70.9233 79.9584C73.3169 79.9491 75.6098 78.9942 77.3024 77.3017C78.995 75.6092 79.9501 73.3163 79.9595 70.9227C79.9689 68.5291 79.0319 66.2288 77.3526 64.523L58.7973 45.9683ZM11.8011 50.6714C9.22975 48.1233 7.18711 45.0923 5.79043 41.7526C4.39375 38.4128 3.67055 34.8301 3.66236 31.21C3.65416 27.59 4.36113 24.004 5.74267 20.658C7.12422 17.3119 9.15311 14.2717 11.7129 11.712C14.2726 9.15224 17.3128 7.12334 20.6589 5.7418C24.0049 4.36026 27.5909 3.65329 31.2109 3.66148C34.831 3.66968 38.4137 4.39288 41.7535 5.78956C45.0932 7.18624 48.1242 9.22888 50.6723 11.8002C53.2436 14.3483 55.2863 17.3793 56.683 20.7191C58.0796 24.0588 58.8028 27.6416 58.811 31.2616C58.8192 34.8816 58.1123 38.4676 56.7307 41.8137C55.3492 45.1597 53.3203 48.1999 50.7605 50.7597C48.2008 53.3194 45.1606 55.3483 41.8145 56.7299C38.4685 58.1114 34.8825 58.8184 31.2625 58.8102C27.6424 58.802 24.0597 58.0788 20.7199 56.6821C17.3802 55.2854 14.3492 53.2428 11.8011 50.6714ZM74.7004 74.6996C73.7018 75.696 72.3486 76.2556 70.9378 76.2556C69.527 76.2556 68.1738 75.696 67.1751 74.6996L49.244 56.7683C52.1582 54.7014 54.7024 52.1573 56.7694 49.2432L74.7006 67.1743C75.6934 68.1749 76.2505 69.5273 76.2505 70.9369C76.2505 72.3465 75.6934 73.699 74.7006 74.6996H74.7004ZM46.2795 17.2739C39.3576 17.7946 34.9859 16.0071 32.9192 11.8086C32.7646 11.4944 32.525 11.2297 32.2277 11.0447C31.9303 10.8596 31.5871 10.7615 31.2369 10.7615C30.8866 10.7615 30.5434 10.8596 30.246 11.0447C29.9487 11.2297 29.7091 11.4944 29.5545 11.8086C27.4881 16.0071 23.1181 17.7954 16.1951 17.2739C15.7282 17.2388 15.265 17.3795 14.8965 17.6684C14.528 17.9573 14.2809 18.3735 14.2036 18.8354C12.982 26.1635 14.1244 33.2847 17.5075 39.4279C20.5387 44.9329 25.1498 49.2404 30.4904 51.5557C30.7258 51.6578 30.9797 51.7105 31.2363 51.7105C31.4929 51.7105 31.7468 51.6578 31.9822 51.5557C37.3226 49.24 41.9334 44.9329 44.9651 39.4279C48.3483 33.2847 49.4906 26.1639 48.269 18.8354C48.1927 18.3735 47.9461 17.9569 47.5778 17.6679C47.2095 17.3789 46.7463 17.2383 46.2795 17.2739ZM31.2369 47.774C23.3745 43.9771 16.1587 34.2896 17.6711 21.1021C23.8212 21.2479 28.3686 19.5657 31.2369 16.0885C33.9914 19.4277 38.2909 21.111 44.0764 21.1108C44.316 21.1108 44.5581 21.1079 44.8028 21.1021C46.315 34.2896 39.0994 43.9758 31.2369 47.7733V47.774ZM39.2201 27.6855L31.8344 37.101C31.6763 37.3027 31.4785 37.4699 31.2533 37.5922C31.028 37.7145 30.7801 37.7893 30.5248 37.8121C30.4695 37.8169 30.4142 37.8194 30.3592 37.8194C29.8987 37.8194 29.4542 37.65 29.1106 37.3433L23.4803 32.3179C23.1181 31.9844 22.9016 31.5218 22.8775 31.0301C22.8534 30.5383 23.0238 30.0569 23.3517 29.6896C23.6796 29.3224 24.1388 29.0989 24.6301 29.0673C25.1214 29.0357 25.6054 29.1987 25.9776 29.521L30.117 33.2158L36.2697 25.3721C36.5773 24.9828 37.0266 24.7313 37.5193 24.6727C38.0119 24.6141 38.5077 24.7531 38.898 25.0594C39.2884 25.3656 39.5415 25.814 39.6018 26.3064C39.6622 26.7989 39.525 27.2952 39.2201 27.6866V27.6855Z" fill="black"/>
</g>
<defs>
<clipPath id="clip0_163_674">
<rect width="80" height="80" fill="white"/>
</clipPath>
</defs>
</svg>
