<svg id="Layer_1" data-name="Layer 1" xmlns="http://www.w3.org/2000/svg" xmlns:xlink="http://www.w3.org/1999/xlink" viewBox="0 0 64.49 11.84" preserveAspectRatio="xMinYMax meet"><defs><style>.cls-1{fill:url(#linear-gradient);}.cls-2{fill:url(#linear-gradient-2);}.cls-3{fill:url(#linear-gradient-3);}.cls-4{fill:url(#linear-gradient-4);}.cls-5{fill:url(#linear-gradient-5);}</style><linearGradient id="linear-gradient" x1="9.27" y1="562.17" x2="2.44" y2="552.42" gradientTransform="matrix(1, 0, 0, -1, 0, 564.3)" gradientUnits="userSpaceOnUse"><stop offset="0" stop-color="#fff"/><stop offset="0" stop-color="#ffa700"/><stop offset="1" stop-color="#ff7100"/></linearGradient><linearGradient id="linear-gradient-2" x1="22.29" y1="562.17" x2="15.46" y2="552.42" xlink:href="#linear-gradient"/><linearGradient id="linear-gradient-3" x1="35.31" y1="562.17" x2="28.48" y2="552.42" xlink:href="#linear-gradient"/><linearGradient id="linear-gradient-4" x1="48.31" y1="562.17" x2="41.48" y2="552.42" xlink:href="#linear-gradient"/><linearGradient id="linear-gradient-5" x1="61.31" y1="562.17" x2="54.48" y2="552.42" xlink:href="#linear-gradient"/></defs><path class="cls-1" d="M5.74,5.68H4.37l.38-1.16H0l3.84,2.8L2.38,11.84,6.22,9.05,5.5,8.53Zm6.71-1.16H7.7l.37,1.16H6.7l.24,2.84-.72.53,3.85,2.79L8.61,7.32ZM6.22,0,4.75,4.52h3Z"/><path class="cls-2" d="M18.76,5.68H17.39l.38-1.16H13l3.84,2.8L15.4,11.84l3.84-2.79-.72-.52Zm6.71-1.16H20.72l.37,1.16H19.72L20,8.52l-.72.53,3.85,2.79L21.63,7.32ZM19.24,0,17.77,4.52h2.95Z"/><path class="cls-3" d="M31.78,5.68H30.41l.38-1.16H26l3.84,2.8-1.46,4.52,3.84-2.79-.72-.52Zm6.71-1.16H33.74l.37,1.16H32.74L33,8.52l-.73.53,3.85,2.79L34.65,7.32ZM32.26,0,30.79,4.52h3Z"/><path class="cls-4" d="M44.78,5.68H43.41l.38-1.16H39l3.84,2.8-1.46,4.52,3.84-2.79-.72-.52Zm6.71-1.16H46.74l.37,1.16H45.74L46,8.52l-.72.53,3.85,2.79L47.65,7.32ZM45.26,0,43.79,4.52h3Z"/><path class="cls-5" d="M57.78,5.68H56.41l.38-1.16H52l3.84,2.8-1.46,4.52,3.84-2.79-.72-.52Zm6.71-1.16H59.74l.37,1.16H58.74L59,8.52l-.72.53,3.85,2.79L60.65,7.32ZM58.26,0,56.79,4.52h3Z"/></svg>