<?xml version="1.0" encoding="UTF-8"?> <svg xmlns="http://www.w3.org/2000/svg" xmlns:xlink="http://www.w3.org/1999/xlink" id="Layer_1" data-name="Layer 1" viewBox="0 0 422.9 168.98"><defs><style>.cls-1,.cls-3{fill:#003466;}.cls-2{fill:url(#linear-gradient);}.cls-3{font-size:14px;font-family:Monda-Regular, Monda;}</style><linearGradient id="linear-gradient" x1="518.64" y1="392.87" x2="470.88" y2="324.65" gradientTransform="matrix(1, 0, 0, -1, 0, 595.89)" gradientUnits="userSpaceOnUse"><stop offset="0" stop-color="#fff"></stop><stop offset="0" stop-color="#ffa700"></stop><stop offset="1" stop-color="#ff7100"></stop></linearGradient></defs><path class="cls-1" d="M423.05,308.94a16.7,16.7,0,0,0-5.72-2.2l-17.26-3.52c-2.29-.44-3.52-1.23-4.23-2.2s-1.06-2.2-1.06-4.75c0-3.43.44-4.84,1.58-6.08,1.41-1.41,3.43-2,7.66-2h4.14a18.54,18.54,0,0,1,7,1.06,10.83,10.83,0,0,1,4.23,3.79l7.48-5.37a14.61,14.61,0,0,0-3.52-4.4c-3.35-2.82-7.84-3.61-15.14-3.61h-4.84c-7,0-11.8,1.94-14.7,5.11-2.55,2.73-3.7,6.34-3.7,10.56v1.5c0,4.67.7,8.36,3.08,11.09,1.58,1.94,4.05,3.35,8,4.05l16.9,3.17a6.6,6.6,0,0,1,4,2.11c1.32,1.58,1.41,4.4,1.41,6.34-.09,2.82-.53,5.19-2.2,6.87s-4,2.38-7.92,2.38H403c-3.7,0-6.07-.53-8-1.58a14.18,14.18,0,0,1-3.6-3l-7.51,5.46a19.84,19.84,0,0,0,5.22,4.92c3.26,2.11,7.57,2.73,14.35,2.73H408c6.52,0,11.8-1.15,15.06-3.87,3.43-2.82,5.11-7.66,5.11-13.47V321.9C428.15,315.46,426.48,311.32,423.05,308.94Z" transform="translate(-213.92 -188.1)"></path><path class="cls-1" d="M553.4,308.94a16.7,16.7,0,0,0-5.72-2.2l-17.26-3.52c-2.29-.44-3.52-1.23-4.23-2.2s-1.06-2.2-1.06-4.75c0-3.43.44-4.84,1.58-6.08,1.41-1.41,3.43-2,7.66-2h4.14a18.54,18.54,0,0,1,7,1.06A10.83,10.83,0,0,1,549.7,293l7.48-5.37a14.61,14.61,0,0,0-3.52-4.4c-3.35-2.82-7.84-3.61-15.14-3.61h-4.84c-7,0-11.8,1.94-14.7,5.11-2.55,2.73-3.7,6.34-3.7,10.56v1.5c0,4.67.7,8.36,3.08,11.09,1.58,1.94,4,3.35,8,4.05l16.9,3.17a6.6,6.6,0,0,1,4,2.11c1.32,1.58,1.41,4.4,1.41,6.34-.09,2.82-.53,5.19-2.2,6.87s-4.05,2.38-7.92,2.38h-5.2c-3.7,0-6.07-.53-8-1.58a14.18,14.18,0,0,1-3.6-3l-7.51,5.46a19.84,19.84,0,0,0,5.22,4.92c3.26,2.11,7.57,2.73,14.35,2.73h4.58c6.52,0,11.8-1.15,15.06-3.87,3.43-2.82,5.11-7.66,5.11-13.47V321.9C558.51,315.46,556.84,311.32,553.4,308.94Z" transform="translate(-213.92 -188.1)"></path><path class="cls-1" d="M276.3,342.86l4.95-3.59V318.9h10.48l11.44,21.61h11l-12.05-22.75a13.75,13.75,0,0,0,5.11-2.47c3.43-2.73,5.37-7.48,5.37-16.11,0-5.72-1-11.45-5.2-15.23-2.73-2.55-6.78-3.79-12.85-3.79H271.3v59.07Zm4.95-54.69H293c3.43,0,5.72.62,7.22,1.85,1.76,1.5,2.29,4.05,2.29,7.84V301c0,4-.44,6.16-2,7.75-1.41,1.5-3.7,2-7.31,2H281.24V288.17Z" transform="translate(-213.92 -188.1)"></path><path class="cls-1" d="M375,280.15H362.16v38.74c0,5.28-.53,8.54-2.55,10.83-1.76,1.85-4.84,2.91-9.68,2.91h-2.2c-4.75,0-7.92-1.06-9.68-3-2-2.2-2.47-5.55-2.47-10.74V280.16h-9.95V321.1c0,5.55.88,11.36,5,15.32,3.17,3,8.28,4.93,16.29,4.93h3.79c7.84,0,12.94-1.85,16.11-4.75,4.31-4,5.28-9.77,5.28-15.5v-32Z" transform="translate(-213.92 -188.1)"></path><polygon class="cls-1" points="29.34 101.02 48.47 101.02 45.55 92.03 2.92 92.03 0 101.02 19.12 101.02 19.12 151.02 24.23 154.73 29.34 151.02 29.34 101.02"></polygon><polygon class="cls-1" points="248.48 101.02 267.6 101.02 264.68 92.03 222.05 92.03 219.13 101.02 238.25 101.02 238.25 151.02 243.37 154.73 248.48 151.02 248.48 101.02"></polygon><polygon class="cls-1" points="379.38 101.02 398.51 101.02 395.59 92.03 352.95 92.03 350.03 101.02 369.16 101.02 369.16 151.02 374.27 154.73 379.38 151.02 379.38 101.02"></polygon><polygon class="cls-1" points="275.44 92.03 278.28 92.03 283.13 92.03 288.51 92.03 288.51 151.02 283.4 154.73 278.28 151.02 278.28 100.79 275.44 92.03"></polygon><path class="cls-2" d="M493.93,227.83h-9.55l2.64-8.14-33.23,0,26.86,19.57-10.23,31.62,26.91-19.5-5.07-3.67Zm46.94-8.09-33.23,0,2.59,8.14h-9.55l1.7,19.91-5.05,3.69,26.91,19.5L514,239.32ZM497.33,188.1,487,219.69h20.62Z" transform="translate(-213.92 -188.1)"></path><text class="cls-3" transform="translate(396.37 154.62)">®</text></svg> 