<svg width="100" height="100" viewBox="0 0 100 100" fill="none" xmlns="http://www.w3.org/2000/svg">
<g clip-path="url(#clip0_112_1660)">
<path d="M8.50781 84.8328H24.7555C26.1018 84.8328 27.1969 83.7377 27.1969 82.3914V77.0482C27.1969 76.2391 26.541 75.5834 25.732 75.5834C24.923 75.5834 24.2672 76.2391 24.2672 77.0482V81.9031H8.99609V51.4648H12.3775C12.9961 53.2682 14.6959 54.4982 16.6316 54.4982C18.5674 54.4982 20.2672 53.268 20.8857 51.4648H24.2672V70.2121C24.2672 71.0213 24.923 71.677 25.732 71.677C26.541 71.677 27.1969 71.0213 27.1969 70.2121V50.9766C27.1969 49.6303 26.1018 48.5352 24.7555 48.5352H20.5201C19.4033 48.5352 18.4295 49.2973 18.152 50.3889C17.9754 51.0834 17.3504 51.5686 16.6316 51.5686C15.9129 51.5686 15.2879 51.0834 15.1111 50.3887C14.8338 49.2973 13.86 48.5352 12.743 48.5352H8.50781C7.16152 48.5352 6.06641 49.6303 6.06641 50.9766V82.3914C6.06641 83.7375 7.16172 84.8328 8.50781 84.8328Z" fill="black"/>
<path d="M100 63.318V30.6152C100 27.115 97.1525 24.2676 93.6523 24.2676H67.8721L68.2482 24.0795C69.1227 23.6426 69.6656 22.7641 69.6656 21.7867V17.5443C69.6656 16.5674 69.1229 15.6889 68.2486 15.2516L65.9207 14.0877C65.7141 13.498 65.4727 12.9158 65.2016 12.3529L66.0248 9.88301C66.3338 8.95586 66.0965 7.95059 65.4055 7.25957L62.4061 4.26035C61.7152 3.56914 60.7102 3.33164 59.7824 3.64062L57.3125 4.46387C56.7494 4.19258 56.1672 3.95137 55.5777 3.74453L54.4141 1.41738C53.9771 0.542969 53.0986 0 52.1211 0H47.8789C46.9014 0 46.0229 0.542969 45.5861 1.41699L44.4223 3.74473C43.8328 3.95137 43.2506 4.19277 42.6875 4.46426L40.2176 3.64082C39.2902 3.33164 38.2852 3.56934 37.5941 4.26016L34.5947 7.25957C33.9033 7.95039 33.666 8.95566 33.9752 9.8832L34.7984 12.3529C34.5271 12.9162 34.2857 13.4982 34.0793 14.0877L31.7514 15.2518C30.8773 15.6889 30.3346 16.5674 30.3346 17.5445V21.7869C30.3346 22.7645 30.8777 23.643 31.7516 24.0795L34.0795 25.2437C34.2859 25.833 34.5271 26.4148 34.7986 26.9785L33.9754 29.4482C33.8781 29.7402 33.835 30.0396 33.8432 30.3348H12.4145C8.91445 30.3348 6.0668 33.1822 6.0668 36.6824V42.4748C2.69668 42.6219 0 45.4098 0 48.816V84.5522C0 86.017 0.498828 87.3676 1.33555 88.4428C0.532227 88.9656 0 89.8717 0 90.8996V93.6523C0 97.1525 2.84766 100 6.34766 100H93.6523C97.1525 100 100 97.1525 100 93.6523V90.8996C100 89.2842 98.6857 87.9699 97.0703 87.9699H93.9332V69.6592C97.3035 69.5119 100 66.724 100 63.318ZM97.0703 30.6152V63.318C97.0703 65.2025 95.5369 66.7359 93.6523 66.7359H48.8158C46.9312 66.7359 45.3979 65.2025 45.3979 63.318V30.6152C45.3979 28.7307 46.9312 27.1973 48.8158 27.1973H93.6523C95.5369 27.1973 97.0703 28.7307 97.0703 30.6152ZM48.8158 24.2676C48.1771 24.2676 47.5604 24.3625 46.9787 24.5387L43.2146 20.7748C42.6029 20.1631 42.6029 19.1678 43.2146 18.5564C43.5109 18.26 43.9049 18.0969 44.3238 18.0969C44.743 18.0969 45.1367 18.26 45.433 18.5563L47.5779 20.7012C47.8525 20.976 48.2252 21.1303 48.6137 21.1303C49.0021 21.1303 49.3748 20.976 49.6494 20.7014L53.9393 16.4113C54.2355 16.1148 54.6295 15.9518 55.0484 15.9518C55.4674 15.9518 55.8613 16.1148 56.1576 16.4113C56.4541 16.7076 56.6172 17.1014 56.6172 17.5205C56.6172 17.9396 56.4541 18.3334 56.1576 18.6297L50.5197 24.2676H48.8158ZM36.8262 30.1598L37.6254 27.7621C37.8402 27.118 37.7938 26.4295 37.4949 25.8238C37.2285 25.2834 36.9951 24.7209 36.8018 24.1516C36.5846 23.5123 36.1305 22.993 35.524 22.6904L33.2641 21.5604V17.7705L35.523 16.641C36.1303 16.3379 36.5844 15.8188 36.8014 15.1797C36.9949 14.6104 37.2281 14.0477 37.4943 13.5078C37.7936 12.9016 37.84 12.2131 37.6252 11.5691L36.8258 9.17129L39.5055 6.4916L41.9031 7.29082C42.5469 7.50586 43.2357 7.45937 43.8418 7.16035C44.3816 6.89395 44.9443 6.66055 45.5133 6.46719C46.1523 6.25039 46.6715 5.79648 46.9748 5.18965L48.1053 2.92969H51.8947L53.0248 5.18965C53.3283 5.79648 53.8473 6.25039 54.4859 6.46719C55.0553 6.66055 55.6178 6.89395 56.1576 7.16016C56.7633 7.45937 57.4518 7.50566 58.0963 7.29102L60.4939 6.4916L63.1738 9.17129L62.3746 11.5689C62.1598 12.2127 62.2061 12.901 62.5051 13.5074C62.7715 14.0477 63.0049 14.6102 63.1982 15.1795C63.4152 15.8186 63.8693 16.3377 64.4758 16.6406L66.7357 17.7705V21.5602L64.4762 22.69C63.8693 22.9934 63.4152 23.5123 63.1982 24.1512C63.1852 24.1898 63.1717 24.2285 63.1582 24.2674H54.6631L58.2293 20.7012C59.0789 19.8514 59.5467 18.7219 59.5467 17.5203C59.5467 16.3188 59.0787 15.1891 58.2293 14.3395C57.3795 13.4898 56.25 13.0221 55.0484 13.0221C53.8469 13.0221 52.7172 13.49 51.8676 14.3395L48.6135 17.5938L47.5043 16.4844C45.7506 14.7307 42.8965 14.7307 41.1428 16.4844C39.3891 18.2383 39.3889 21.0922 41.1428 22.8461L44.3777 26.0809C43.2625 27.1727 42.5471 28.6715 42.4744 30.3342H37.0008L36.8262 30.1598ZM12.4145 33.2641H42.4682V36.4012H33.0553C32.2463 36.4012 31.5904 37.0568 31.5904 37.866C31.5904 38.6752 32.2463 39.3309 33.0553 39.3309H42.4682V63.3176C42.4682 66.8178 45.3158 69.6652 48.8158 69.6652H84.9365V81.9027H33.2641V48.816C33.2641 45.3158 30.4164 42.4684 26.9164 42.4684H15.0635V39.3313H26.2195C27.0285 39.3313 27.6844 38.6756 27.6844 37.8664C27.6844 37.0572 27.0285 36.4016 26.2195 36.4016H13.5986C12.7896 36.4016 12.1338 37.0572 12.1338 37.8664V42.4684H8.99648V36.6822C8.99648 34.7975 10.5299 33.2641 12.4145 33.2641ZM2.92969 48.816C2.92969 46.9314 4.46309 45.398 6.34766 45.398H26.9164C28.801 45.398 30.3344 46.9314 30.3344 48.816V84.5522C30.3344 86.4367 28.801 87.9701 26.9164 87.9701H6.34766C4.46309 87.9701 2.92969 86.4367 2.92969 84.5522V48.816ZM97.0703 93.6523C97.0703 95.5369 95.5369 97.0703 93.6523 97.0703H6.34766C4.46309 97.0703 2.92969 95.5369 2.92969 93.6523V90.8996H37.2596L38.4338 92.074C39.6326 93.2729 41.2268 93.9332 42.9223 93.9332H57.0779C58.7734 93.9332 60.3676 93.2729 61.5664 92.074L62.7406 90.8996H97.0703V93.6523ZM62.1338 87.9699C61.7453 87.9699 61.3729 88.1242 61.0979 88.3988L59.4945 90.0022C58.849 90.6479 57.9908 91.0033 57.0777 91.0033H42.9221C42.0092 91.0033 41.1508 90.6479 40.5051 90.0022L38.9018 88.3988C38.6271 88.1242 38.2545 87.9699 37.866 87.9699H32.2631C32.849 87.0564 33.2072 85.984 33.2576 84.8328H86.4012C87.2104 84.8328 87.866 84.1771 87.866 83.368V69.6656H91.0031V87.9701H62.1338V87.9699Z" fill="black"/>
<path d="M50 30.334C49.191 30.334 48.5352 30.9896 48.5352 31.7988V62.1332C48.5352 62.9424 49.191 63.598 50 63.598H73.9764C74.7855 63.598 75.4412 62.9424 75.4412 62.1332C75.4412 61.324 74.7855 60.6684 73.9764 60.6684H51.4648V33.2637H84.9365V60.6684H80.8123C80.0031 60.6684 79.3475 61.324 79.3475 62.1332C79.3475 62.9424 80.0031 63.598 80.8123 63.598H86.4014C87.2105 63.598 87.8662 62.9424 87.8662 62.1332V31.7988C87.8662 30.9896 87.2105 30.334 86.4014 30.334H50Z" fill="black"/>
<path d="M92.4688 51.4652C93.2779 51.4652 93.9336 50.8096 93.9336 50.0004V43.9336C93.9336 43.1244 93.2779 42.4688 92.4688 42.4688C91.6596 42.4688 91.0039 43.1244 91.0039 43.9336V50.0004C91.0039 50.8096 91.6596 51.4652 92.4688 51.4652Z" fill="black"/>
<path d="M71.5201 43.0275L66.7492 47.7986L64.8816 45.931C64.3093 45.3592 63.382 45.3592 62.8099 45.931C62.2378 46.5033 62.2378 47.4306 62.8099 48.0027L65.7132 50.906C65.9994 51.192 66.3744 51.3349 66.7492 51.3349C67.124 51.3349 67.499 51.192 67.7851 50.906L73.5917 45.0994C74.1638 44.5271 74.1638 43.5998 73.5917 43.0277C73.0195 42.4556 72.0921 42.4556 71.5201 43.0275Z" fill="black"/>
<path d="M18.6306 63.6262L15.6218 66.6352L14.6353 65.6487C14.0634 65.0764 13.1359 65.0766 12.5638 65.6485C11.9917 66.2205 11.9917 67.1481 12.5638 67.7199L14.5861 69.7422C14.8607 70.017 15.2333 70.1713 15.6218 70.1713C16.0103 70.1713 16.383 70.017 16.6576 69.7424L20.7021 65.6977C21.2742 65.1254 21.2742 64.1981 20.7021 63.626C20.1302 63.0543 19.2027 63.0543 18.6306 63.6262Z" fill="black"/>
</g>
<defs>
<clipPath id="clip0_112_1660">
<rect width="100" height="100" fill="white"/>
</clipPath>
</defs>
</svg>
