<svg width="100" height="100" viewBox="0 0 100 100" fill="none" xmlns="http://www.w3.org/2000/svg">
<path d="M40.4854 79.5606C41.3305 79.5606 42.0157 78.8755 42.0157 78.0303C42.0157 77.1851 41.3305 76.5 40.4854 76.5C39.6402 76.5 38.9551 77.1851 38.9551 78.0303C38.9551 78.8755 39.6402 79.5606 40.4854 79.5606Z" fill="black"/>
<path d="M93.8788 43.5299H79.0455V41.0299C80.5152 40.6511 81.9395 40.1057 83.2879 39.3481L86.4698 41.2723C86.8485 41.4996 87.2728 41.6208 87.697 41.6208C88.3031 41.6208 88.9091 41.3784 89.3637 40.9239L91.5152 38.7723C92.2879 37.9996 92.4243 36.8178 91.8637 35.8784L89.9395 32.6966C90.6213 31.4693 91.1667 30.1814 91.5455 28.833L95.1516 27.939C96.2122 27.6814 96.9395 26.7269 96.9395 25.6511V22.6057C96.9395 21.5148 96.197 20.5754 95.1516 20.3178L91.5455 19.4239C91.1667 18.0754 90.6364 16.7875 89.9395 15.5602L91.8637 12.3784C92.4243 11.439 92.2879 10.2572 91.5152 9.48446L89.3637 7.3178C88.591 6.54507 87.4091 6.40871 86.4698 6.96931L83.2879 8.89356C82.0607 8.21174 80.7728 7.66628 79.4243 7.28749L78.5304 3.68143C78.2728 2.62083 77.3334 1.89355 76.2425 1.89355H73.1819C72.091 1.89355 71.1516 2.63598 70.894 3.68143L70.0001 7.28749C68.6516 7.66628 67.3637 8.19659 66.1364 8.89356L62.9546 6.96931C62.0304 6.40871 60.8334 6.54507 60.0607 7.3178L57.9092 9.46931C57.1364 10.242 56.9849 11.4239 57.5607 12.3633L59.4849 15.5451C58.7879 16.7723 58.2576 18.0602 57.8788 19.4087L54.2728 20.3026C53.2122 20.5602 52.4849 21.4996 52.4849 22.5905V25.636C52.4849 25.7117 52.5152 25.7723 52.5152 25.8329H6.12127C3.81824 25.8329 1.93945 27.7117 1.93945 30.0148V81.5148C1.93945 83.8178 3.81824 85.6966 6.12127 85.6966H28.2122V89.742H23.1061C20.8031 89.742 18.9243 91.6208 18.9243 93.9239V96.9693C18.9243 97.5905 19.4395 98.1057 20.0607 98.1057H93.8788C96.1819 98.1057 98.0607 96.2269 98.0607 93.9239V47.7117C98.0607 45.4087 96.1819 43.5299 93.8788 43.5299ZM74.8637 25.8481H67.2425C67.1061 25.2723 67.0152 24.6966 67.0152 24.1208C67.0152 19.8784 70.4698 16.4239 74.7122 16.4239C78.9546 16.4239 82.4091 19.8784 82.4091 24.1208C82.4091 26.7117 81.1213 29.0451 79.0455 30.4542V30.0299C79.0455 27.7269 77.1667 25.8481 74.8637 25.8481ZM54.8182 22.5148L59.0758 21.4693C59.4849 21.3633 59.8182 21.0451 59.9092 20.6208C60.2879 19.0451 60.9092 17.5299 61.7728 16.1511C62.0001 15.7875 62.0001 15.3329 61.7728 14.9693L59.5152 11.1057L61.7879 8.93901L65.5455 11.2117C65.9091 11.439 66.3637 11.439 66.7273 11.2117C68.1213 10.3481 69.6213 9.72689 71.197 9.3481C71.6061 9.25719 71.9395 8.92386 72.0455 8.51477L73.1819 4.18143L76.3182 4.24204L77.3637 8.49962C77.4698 8.90871 77.7879 9.24204 78.2122 9.33295C79.7879 9.71174 81.3031 10.3329 82.6819 11.1966C83.0455 11.4239 83.5001 11.4239 83.8637 11.1966L87.7273 8.93901L89.894 11.2117L87.6213 14.9693C87.394 15.3329 87.4092 15.7875 87.6213 16.1511C88.4849 17.5451 89.1061 19.0451 89.4849 20.6208C89.5758 21.0299 89.9091 21.3633 90.3182 21.4693L94.6516 22.6057L94.591 25.742L90.3334 26.7875C89.9243 26.8936 89.591 27.2117 89.5001 27.636C89.1213 29.2117 88.5001 30.7269 87.6364 32.1057C87.4091 32.4693 87.4091 32.9239 87.6364 33.2875L89.894 37.1511L87.6213 39.3178L83.8637 37.0451C83.5001 36.8178 83.0455 36.833 82.6819 37.0451C81.5304 37.7572 80.3182 38.2875 79.0304 38.6663V33.0451C82.4698 31.3784 84.6667 27.9693 84.6667 24.1057C84.6667 18.6057 80.197 14.136 74.697 14.136C69.197 14.136 64.7273 18.6057 64.7273 24.1057C64.7273 24.6814 64.7879 25.2572 64.894 25.8329H55.1516C55.0304 25.742 54.894 25.6663 54.7425 25.636L54.8182 22.5148ZM6.12127 83.4239C5.07582 83.4239 4.21218 82.5602 4.21218 81.5148V72.636H45.1819V83.4239H6.12127ZM45.1819 85.6966V89.742H30.4849V85.6966H45.1819ZM21.197 95.833V93.9239C21.197 92.8784 22.0607 92.0148 23.1061 92.0148H45.197V93.9239C45.197 94.6208 45.3788 95.2572 45.6819 95.833H21.197ZM45.1819 47.7117V70.3481H4.21218V30.0299C4.21218 28.9693 5.07582 28.1208 6.12127 28.1208H74.8637C75.9091 28.1208 76.7728 28.9845 76.7728 30.0299V43.5299H49.3637C47.0607 43.5299 45.1819 45.4087 45.1819 47.7117ZM95.7879 93.9239C95.7879 94.9693 94.9243 95.833 93.8788 95.833H49.3637C48.3182 95.833 47.4546 94.9693 47.4546 93.9239V55.8633H95.7879V93.9239ZM95.7879 53.5905H47.4546V47.7269C47.4546 46.6663 48.3182 45.8178 49.3637 45.8178H93.8788C94.9395 45.8178 95.7879 46.6814 95.7879 47.7269V53.5905Z" fill="black"/>
<path d="M16.6516 39.9848C16.2122 39.5454 15.4849 39.5454 15.0455 39.9848L9.894 45.1363C9.4546 45.5757 9.4546 46.303 9.894 46.7424L15.0455 51.8939C15.2728 52.1212 15.5607 52.2272 15.8485 52.2272C16.1364 52.2272 16.4243 52.1212 16.6516 51.8939C17.091 51.4545 17.091 50.7272 16.6516 50.2878L12.3031 45.9394L16.6516 41.5909C17.1061 41.1515 17.1061 40.4242 16.6516 39.9848Z" fill="black"/>
<path d="M32.2422 39.9848C31.8029 39.5454 31.0756 39.5454 30.6362 39.9848C30.1968 40.4242 30.1968 41.1515 30.6362 41.5909L34.9847 45.9394L30.6362 50.2878C30.1968 50.7272 30.1968 51.4545 30.6362 51.8939C30.8635 52.1212 31.1513 52.2272 31.4392 52.2272C31.7271 52.2272 32.015 52.1212 32.2422 51.8939L37.3938 46.7424C37.6059 46.5303 37.7271 46.2424 37.7271 45.9394C37.7271 45.6363 37.6059 45.3485 37.3938 45.1363L32.2422 39.9848Z" fill="black"/>
<path d="M28.698 35.1058C28.1222 34.8482 27.4555 35.0906 27.1828 35.6513L18.0313 55.2725C17.7586 55.8482 18.0161 56.5149 18.5767 56.7876C18.7283 56.8634 18.8949 56.8937 19.0616 56.8937C19.4858 56.8937 19.8949 56.6513 20.0919 56.2422L29.2434 36.6209C29.5161 36.0452 29.2586 35.3634 28.698 35.1058Z" fill="black"/>
<path d="M52.4098 85.5296H67.0159C67.6371 85.5296 68.1522 85.0144 68.1522 84.3932C68.1522 83.772 67.6371 83.2568 67.0159 83.2568H52.4098C51.7886 83.2568 51.2734 83.772 51.2734 84.3932C51.2734 85.0144 51.7886 85.5296 52.4098 85.5296Z" fill="black"/>
<path d="M52.4098 92.0149H59.3947C60.0159 92.0149 60.531 91.4998 60.531 90.8786C60.531 90.2573 60.0159 89.7422 59.3947 89.7422H52.4098C51.7886 89.7422 51.2734 90.2573 51.2734 90.8786C51.2734 91.4998 51.7886 92.0149 52.4098 92.0149Z" fill="black"/>
<path d="M90.8342 83.2568H76.2282C75.6069 83.2568 75.0918 83.772 75.0918 84.3932C75.0918 85.0144 75.6069 85.5296 76.2282 85.5296H90.8342C91.4554 85.5296 91.9706 85.0144 91.9706 84.3932C91.9706 83.772 91.4554 83.2568 90.8342 83.2568Z" fill="black"/>
<path d="M83.213 89.7422H76.2282C75.6069 89.7422 75.0918 90.2573 75.0918 90.8786C75.0918 91.4998 75.6069 92.0149 76.2282 92.0149H83.213C83.8342 92.0149 84.3494 91.4998 84.3494 90.8786C84.3494 90.2573 83.8342 89.7422 83.213 89.7422Z" fill="black"/>
<path d="M51.3176 78.1205C51.3328 78.1963 51.3328 78.2872 51.3631 78.3478V78.363C51.4237 78.4842 51.4995 78.5902 51.5752 78.6811C51.6055 78.7114 51.6207 78.7266 51.651 78.7417C51.7267 78.8024 51.8025 78.863 51.8934 78.9084C51.9237 78.9236 51.9692 78.9387 51.9995 78.9539C52.1207 78.9993 52.257 79.0296 52.3934 79.0296H90.8176C90.954 79.0296 91.0904 78.9993 91.2116 78.9539C91.2419 78.9387 91.2873 78.9236 91.3176 78.9084C91.4085 78.863 91.4843 78.8024 91.5601 78.7417C91.5904 78.7114 91.6207 78.6963 91.6358 78.6811C91.7267 78.5902 91.8025 78.4842 91.8479 78.363C91.8479 78.363 91.8479 78.363 91.8479 78.3478C91.8782 78.2872 91.8782 78.2114 91.8934 78.1508C91.9086 78.0751 91.9389 77.9993 91.9389 77.9084C91.9389 77.9084 91.9389 77.9084 91.9389 77.8933V60.8175C91.9389 60.8175 91.9389 60.8175 91.9389 60.8023C91.9389 60.7266 91.9086 60.6508 91.8934 60.5599C91.8782 60.4993 91.8782 60.4236 91.8479 60.363C91.8479 60.363 91.8479 60.363 91.8479 60.3478C91.8328 60.3024 91.7873 60.272 91.757 60.2266C91.7116 60.1508 91.6661 60.0599 91.5904 59.9993C91.5449 59.9539 91.4843 59.9236 91.4237 59.8933C91.3631 59.8478 91.2873 59.8023 91.2116 59.772C91.1358 59.7417 91.0449 59.7417 90.9692 59.7266C90.9085 59.7114 90.8631 59.6963 90.7873 59.6963H52.4085C52.3479 59.6963 52.3025 59.7266 52.2419 59.7266C52.151 59.7417 52.0601 59.7417 51.9843 59.772C51.9085 59.8023 51.8631 59.8478 51.8025 59.8933C51.7419 59.9387 51.6813 59.969 51.6207 60.0145C51.5449 60.0751 51.4995 60.166 51.454 60.2569C51.4237 60.3023 51.3934 60.3326 51.3782 60.3781V60.3933C51.3479 60.469 51.3479 60.5448 51.3328 60.6205C51.3176 60.6963 51.2873 60.7569 51.2873 60.8327V60.8478V77.9387V77.9539C51.2722 77.9842 51.3025 78.0599 51.3176 78.1205ZM57.757 76.772L71.6207 70.6054L85.4843 76.772H57.757ZM89.6964 76.1508L74.4237 69.3478L89.6964 62.5448V76.1508ZM85.4843 61.9539L71.6207 68.1205L57.757 61.9539H85.4843ZM53.5449 62.5599L68.8176 69.363L53.5449 76.166V62.5599Z" fill="black"/>
<path d="M52.8174 48.166C51.9689 48.166 51.2871 48.8478 51.2871 49.6812C51.2871 50.5297 51.9689 51.2115 52.8174 51.2115C53.6659 51.2115 54.3477 50.5297 54.3477 49.6812C54.3477 48.8478 53.6659 48.166 52.8174 48.166Z" fill="black"/>
<path d="M58.3037 48.166C57.4553 48.166 56.7734 48.8478 56.7734 49.6812C56.7734 50.5297 57.4553 51.2115 58.3037 51.2115C59.1522 51.2115 59.834 50.5297 59.834 49.6812C59.834 48.8478 59.1522 48.166 58.3037 48.166Z" fill="black"/>
<path d="M63.7881 48.166C62.9396 48.166 62.2578 48.8478 62.2578 49.6812C62.2578 50.5297 62.9396 51.2115 63.7881 51.2115C64.6366 51.2115 65.3184 50.5297 65.3184 49.6812C65.3184 48.8478 64.6366 48.166 63.7881 48.166Z" fill="black"/>
</svg>
