<svg width="100" height="100" viewBox="0 0 100 100" fill="none" xmlns="http://www.w3.org/2000/svg">
<g clip-path="url(#clip0_112_1683)">
<path d="M95 0H5C3.67392 0 2.40215 0.526784 1.46447 1.46447C0.526784 2.40215 0 3.67392 0 5L0 78.3333C0 79.6594 0.526784 80.9312 1.46447 81.8689C2.40215 82.8065 3.67392 83.3333 5 83.3333H38.1667C37.185 88.7133 31.6317 89.97 31.3333 90.0333C29.6285 90.1162 28.0207 90.8508 26.8421 92.0853C25.6634 93.3198 25.004 94.9599 25 96.6667C25 97.5507 25.3512 98.3986 25.9763 99.0237C26.6014 99.6488 27.4493 100 28.3333 100H71.6667C72.5507 100 73.3986 99.6488 74.0237 99.0237C74.6488 98.3986 75 97.5507 75 96.6667C74.9936 94.9606 74.3334 93.3219 73.1552 92.0879C71.977 90.8539 70.3706 90.1186 68.6667 90.0333C68.405 89.98 62.81 88.7783 61.8333 83.3333H95C96.3261 83.3333 97.5978 82.8065 98.5355 81.8689C99.4732 80.9312 100 79.6594 100 78.3333V5C100 3.67392 99.4732 2.40215 98.5355 1.46447C97.5978 0.526784 96.3261 0 95 0ZM5 3.33333H95C95.442 3.33333 95.866 3.50893 96.1785 3.82149C96.4911 4.13405 96.6667 4.55797 96.6667 5V70H3.33333V5C3.33333 4.55797 3.50893 4.13405 3.82149 3.82149C4.13405 3.50893 4.55797 3.33333 5 3.33333ZM71.6667 96.6667H28.3333C28.3333 95.7826 28.6845 94.9348 29.3096 94.3096C29.9348 93.6845 30.7826 93.3333 31.6667 93.3333H68.3333C69.2167 93.3355 70.0633 93.6874 70.6879 94.3121C71.3126 94.9367 71.6645 95.7833 71.6667 96.6667ZM61.8033 90H38.1933C40.055 88.2369 41.2423 85.8788 41.55 83.3333H58.45C58.7577 85.8788 59.945 88.2369 61.8067 90H61.8033ZM95 80H5C4.55797 80 4.13405 79.8244 3.82149 79.5118C3.50893 79.1993 3.33333 78.7754 3.33333 78.3333V73.3333H96.6667V78.3333C96.6667 78.7754 96.4911 79.1993 96.1785 79.5118C95.866 79.8244 95.442 80 95 80Z" fill="black"/>
<path d="M9.99935 66.667H89.9994C90.8834 66.667 91.7313 66.3158 92.3564 65.6907C92.9815 65.0656 93.3327 64.2177 93.3327 63.3337V10.0003C93.3327 9.11627 92.9815 8.26842 92.3564 7.6433C91.7313 7.01818 90.8834 6.66699 89.9994 6.66699H9.99935C9.11529 6.66699 8.26745 7.01818 7.64233 7.6433C7.0172 8.26842 6.66602 9.11627 6.66602 10.0003V63.3337C6.66602 64.2177 7.0172 65.0656 7.64233 65.6907C8.26745 66.3158 9.11529 66.667 9.99935 66.667ZM30.3893 51.6187L28.341 46.747C28.8527 46.127 29.4094 45.532 29.951 44.977C30.5351 44.3869 31.1636 43.8426 31.831 43.3487L36.6177 45.3903C36.8605 45.4941 37.1244 45.5387 37.3878 45.5204C37.6512 45.5022 37.9065 45.4216 38.1327 45.2853C40.0965 44.099 42.2284 43.2163 44.456 42.667C44.7131 42.6035 44.9514 42.4797 45.1511 42.3058C45.3508 42.1319 45.5061 41.9129 45.6044 41.667L47.5927 36.777C49.2128 36.5948 50.8493 36.6156 52.4644 36.8387L54.3944 41.667C54.4926 41.9129 54.6479 42.1319 54.8476 42.3058C55.0473 42.4797 55.2856 42.6035 55.5427 42.667C57.7706 43.2178 59.9025 44.1023 61.866 45.2903C62.0922 45.4266 62.3475 45.5072 62.6109 45.5254C62.8743 45.5437 63.1382 45.4991 63.381 45.3953L68.2527 43.347C68.8727 43.8603 69.4677 44.4153 70.0227 44.957C70.6132 45.5407 71.1576 46.1692 71.651 46.837L69.6093 51.6237C69.5056 51.8665 69.461 52.1304 69.4793 52.3938C69.4975 52.6572 69.5781 52.9125 69.7143 53.1387C70.9002 55.101 71.7829 57.2311 72.3327 59.457C72.3962 59.7141 72.52 59.9523 72.6939 60.152C72.8678 60.3517 73.0868 60.5071 73.3327 60.6053L78.2227 62.5937C78.246 62.8287 78.2577 63.0837 78.2744 63.3337H69.9144C69.5048 58.3328 67.229 53.669 63.5391 50.2689C59.8492 46.8688 55.0153 44.9813 49.9977 44.9813C44.9801 44.9813 40.1461 46.8688 36.4562 50.2689C32.7663 53.669 30.4905 58.3328 30.081 63.3337H21.7477C21.7727 63.0637 21.7927 62.7937 21.8377 62.532L26.666 60.6053C26.9119 60.5071 27.1309 60.3517 27.3048 60.152C27.4787 59.9523 27.6025 59.7141 27.666 59.457C28.2168 57.2291 29.1013 55.0972 30.2894 53.1337C30.4248 52.9071 30.5045 52.6516 30.5219 52.3882C30.5393 52.1248 30.4938 51.8611 30.3893 51.6187ZM66.581 63.3337H33.4144C33.827 59.2222 35.7523 55.4107 38.8166 52.6386C41.8808 49.8665 45.8656 48.3316 49.9977 48.3316C54.1298 48.3316 58.1145 49.8665 61.1788 52.6386C64.2431 55.4107 66.1683 59.2222 66.581 63.3337ZM9.99935 10.0003H89.9994V63.3337H81.6194C81.5993 62.972 81.5777 62.6153 81.546 62.282C81.4823 61.6578 81.249 61.0629 80.8716 60.5618C80.4941 60.0606 79.9867 59.6722 79.4044 59.4387L75.3527 57.8203C74.7952 55.8455 74.0064 53.9434 73.0027 52.1537L74.716 48.1387C74.9722 47.5649 75.062 46.9308 74.9754 46.3084C74.8888 45.6861 74.6291 45.1006 74.226 44.6187C73.7143 43.997 73.1344 43.362 72.3794 42.5903C71.6327 41.8603 70.9977 41.2803 70.396 40.7853C69.9131 40.3779 69.3252 40.1149 68.6996 40.0265C68.0741 39.938 67.4362 40.0277 66.8594 40.2853L62.841 42.0003C61.0512 40.9966 59.1492 40.2078 57.1744 39.6503L55.5544 35.5937C55.322 35.0149 54.9364 34.5104 54.439 34.1343C53.9416 33.7581 53.3511 33.5246 52.731 33.4587C50.9162 33.2987 49.0908 33.2987 47.276 33.4587C46.6518 33.5224 46.057 33.7556 45.5558 34.1331C45.0546 34.5106 44.6662 35.018 44.4327 35.6003L42.8144 39.652C40.8395 40.2095 38.9375 40.9983 37.1477 42.002L33.1427 40.2837C32.5689 40.0275 31.9348 39.9377 31.3125 40.0243C30.6902 40.1109 30.1047 40.3706 29.6227 40.7737C29.001 41.2853 28.366 41.8653 27.5943 42.6203C26.8643 43.367 26.2843 44.002 25.7894 44.6037C25.3823 45.0867 25.1195 45.6747 25.0311 46.3001C24.9426 46.9256 25.0322 47.5634 25.2893 48.1403L26.9994 52.167C25.9956 53.9568 25.2069 55.8588 24.6493 57.8337L20.5927 59.4537C20.014 59.686 19.5094 60.0716 19.1333 60.569C18.7571 61.0664 18.5236 61.6569 18.4577 62.277C18.4243 62.6203 18.4027 62.982 18.3827 63.3503H9.99935V10.0003Z" fill="black"/>
<path d="M35 29.9997C36.3261 29.9997 37.5979 29.4729 38.5355 28.5352C39.4732 27.5975 40 26.3258 40 24.9997C40 24.5576 39.8244 24.1337 39.5118 23.8212C39.1993 23.5086 38.7754 23.333 38.3333 23.333C37.8913 23.333 37.4674 23.5086 37.1548 23.8212C36.8423 24.1337 36.6667 24.5576 36.6667 24.9997C36.6667 25.4417 36.4911 25.8656 36.1785 26.1782C35.866 26.4907 35.442 26.6663 35 26.6663C34.558 26.6663 34.134 26.4907 33.8215 26.1782C33.5089 25.8656 33.3333 25.4417 33.3333 24.9997V18.333C33.3333 17.891 33.5089 17.4671 33.8215 17.1545C34.134 16.8419 34.558 16.6663 35 16.6663C35.442 16.6663 35.866 16.8419 36.1785 17.1545C36.4911 17.4671 36.6667 17.891 36.6667 18.333C36.6667 18.775 36.8423 19.199 37.1548 19.5115C37.4674 19.8241 37.8913 19.9997 38.3333 19.9997C38.7754 19.9997 39.1993 19.8241 39.5118 19.5115C39.8244 19.199 40 18.775 40 18.333C40 17.0069 39.4732 15.7352 38.5355 14.7975C37.5979 13.8598 36.3261 13.333 35 13.333C33.6739 13.333 32.4021 13.8598 31.4645 14.7975C30.5268 15.7352 30 17.0069 30 18.333V24.9997C30 26.3258 30.5268 27.5975 31.4645 28.5352C32.4021 29.4729 33.6739 29.9997 35 29.9997Z" fill="black"/>
<path d="M45.0007 29.9997C45.4427 29.9997 45.8666 29.8241 46.1792 29.5115C46.4917 29.199 46.6673 28.775 46.6673 28.333V18.333L48.0006 20.1113C48.2419 20.4093 48.5467 20.6496 48.8927 20.8147C49.2387 20.9797 49.6173 21.0654 50.0007 21.0654C50.384 21.0654 50.7626 20.9797 51.1086 20.8147C51.4546 20.6496 51.7594 20.4093 52.0007 20.1113L53.334 18.333V28.333C53.334 28.775 53.5096 29.199 53.8221 29.5115C54.1347 29.8241 54.5586 29.9997 55.0007 29.9997C55.4427 29.9997 55.8666 29.8241 56.1792 29.5115C56.4917 29.199 56.6673 28.775 56.6673 28.333V15.833C56.6673 15.3083 56.5022 14.7969 56.1954 14.3712C55.8886 13.9456 55.4557 13.6272 54.9579 13.4613C54.4601 13.2954 53.9227 13.2903 53.4219 13.4467C52.9211 13.6032 52.4821 13.9132 52.1673 14.333L50.0007 17.2247L47.834 14.333C47.5192 13.9132 47.0802 13.6032 46.5794 13.4467C46.0786 13.2903 45.5412 13.2954 45.0434 13.4613C44.5456 13.6272 44.1127 13.9456 43.8059 14.3712C43.4991 14.7969 43.334 15.3083 43.334 15.833V28.333C43.334 28.775 43.5096 29.199 43.8221 29.5115C44.1347 29.8241 44.5586 29.9997 45.0007 29.9997Z" fill="black"/>
<path d="M65.0001 23.333C65.2926 23.3333 65.5799 23.4105 65.8331 23.557C66.0862 23.7035 66.2964 23.914 66.4425 24.1674C66.5886 24.4208 66.6653 24.7082 66.6652 25.0007C66.665 25.2932 66.5878 25.5805 66.4415 25.8337C66.2951 26.0869 66.0847 26.2972 65.8313 26.4434C65.578 26.5895 65.2906 26.6664 64.9981 26.6663C64.7056 26.6663 64.4183 26.5892 64.165 26.4429C63.9117 26.2967 63.7014 26.0863 63.5551 25.833C63.3271 25.4645 62.9646 25.1993 62.5444 25.0936C62.1242 24.9878 61.6793 25.05 61.3041 25.2667C60.9288 25.4835 60.6528 25.8378 60.5345 26.2547C60.4161 26.6715 60.4648 27.1181 60.6701 27.4997C61.109 28.2598 61.7402 28.891 62.5003 29.3298C63.2604 29.7687 64.1226 29.9997 65.0003 29.9997C65.878 29.9997 66.7402 29.7686 67.5003 29.3298C68.2604 28.8909 68.8916 28.2597 69.3304 27.4996C69.7692 26.7395 70.0003 25.8773 70.0003 24.9996C70.0002 24.1219 69.7692 23.2597 69.3303 22.4996C68.8915 21.7395 68.2603 21.1083 67.5002 20.6695C66.74 20.2307 65.8778 19.9997 65.0001 19.9997C64.7076 19.9994 64.4204 19.9221 64.1672 19.7757C63.914 19.6292 63.7038 19.4187 63.5578 19.1653C63.4117 18.9119 63.3349 18.6245 63.3351 18.332C63.3353 18.0395 63.4124 17.7522 63.5588 17.499C63.7052 17.2457 63.9156 17.0355 64.1689 16.8893C64.4223 16.7432 64.7097 16.6663 65.0022 16.6663C65.2946 16.6664 65.582 16.7435 65.8353 16.8897C66.0885 17.036 66.2989 17.2464 66.4451 17.4997C66.6731 17.8682 67.0356 18.1334 67.4559 18.2391C67.8761 18.3448 68.321 18.2827 68.6962 18.066C69.0714 17.8492 69.3474 17.4948 69.4658 17.078C69.5841 16.6611 69.5355 16.2146 69.3301 15.833C68.8913 15.0729 68.2601 14.4417 67.5 14.0029C66.7399 13.564 65.8777 13.333 65 13.333C64.1223 13.333 63.2601 13.5641 62.5 14.0029C61.7399 14.4418 61.1087 15.073 60.6698 15.8331C60.231 16.5932 60 17.4554 60 18.3331C60 19.2108 60.2311 20.073 60.6699 20.8331C61.1088 21.5932 61.74 22.2244 62.5001 22.6632C63.2602 23.102 64.1224 23.333 65.0001 23.333Z" fill="black"/>
<path d="M23.3333 30.0003C23.7754 30.0003 24.1993 29.8247 24.5118 29.5122C24.8244 29.1996 25 28.7757 25 28.3337C25 27.8916 24.8244 27.4677 24.5118 27.1551C24.1993 26.8426 23.7754 26.667 23.3333 26.667H16.6667C16.2246 26.667 15.8007 26.8426 15.4882 27.1551C15.1756 27.4677 15 27.8916 15 28.3337C15 28.7757 15.1756 29.1996 15.4882 29.5122C15.8007 29.8247 16.2246 30.0003 16.6667 30.0003H23.3333Z" fill="black"/>
<path d="M76.6667 30.0003H83.3333C83.7754 30.0003 84.1993 29.8247 84.5118 29.5122C84.8244 29.1996 85 28.7757 85 28.3337C85 27.8916 84.8244 27.4677 84.5118 27.1551C84.1993 26.8426 83.7754 26.667 83.3333 26.667H76.6667C76.2246 26.667 75.8007 26.8426 75.4882 27.1551C75.1756 27.4677 75 27.8916 75 28.3337C75 28.7757 75.1756 29.1996 75.4882 29.5122C75.8007 29.8247 76.2246 30.0003 76.6667 30.0003Z" fill="black"/>
</g>
<defs>
<clipPath id="clip0_112_1683">
<rect width="100" height="100" fill="white"/>
</clipPath>
</defs>
</svg>
