<svg width="100" height="100" viewBox="0 0 100 100" fill="none" xmlns="http://www.w3.org/2000/svg">
<path fill-rule="evenodd" clip-rule="evenodd" d="M24.1635 33.033V16.1628C24.1635 15.4108 24.7739 14.8004 25.5251 14.8004H41.6553L38.3789 11.5246C37.8473 10.9922 37.8473 10.1294 38.3789 9.59716C38.9115 9.06496 39.7747 9.06496 40.3051 9.59716L45.9077 15.1982C45.9111 15.2018 45.9135 15.2054 45.9169 15.209H45.9181C45.9181 15.2108 45.9181 15.2108 45.9205 15.2108C45.9205 15.2124 45.9205 15.2124 45.9227 15.2124V15.2142C45.9239 15.2142 45.9239 15.216 45.9261 15.216C46.4367 15.7494 46.4363 16.578 45.9203 17.1146H45.9179C45.9179 17.1164 45.9167 17.1164 45.9167 17.1182C45.9145 17.1182 45.9145 17.12 45.9133 17.12V17.1218C45.9109 17.1218 45.9109 17.1218 45.9109 17.1236C45.9097 17.1236 45.9097 17.1254 45.9075 17.1254L40.3049 22.7282C39.7745 23.2606 38.9113 23.2606 38.3787 22.7282C37.8471 22.196 37.8471 21.3328 38.3787 20.8004L41.6551 17.525H26.8887V33.0328C26.8887 33.7848 26.2793 34.3952 25.5249 34.3952C24.7739 34.3956 24.1635 33.785 24.1635 33.033ZM92.2449 60.7912C92.7777 61.3236 92.7777 62.1862 92.2449 62.7186C91.7133 63.2508 90.8503 63.2508 90.3175 62.7186L87.0423 59.443V80.2082C87.0423 80.9606 86.4319 81.571 85.6797 81.571H70.8299C70.0777 81.571 69.4671 80.9606 69.4671 80.2082C69.4671 79.4544 70.0775 78.8458 70.8299 78.8458H84.3169V59.4432L81.0395 62.7188C80.5079 63.251 79.6459 63.251 79.1133 62.7188C78.5817 62.1866 78.5817 61.3238 79.1133 60.7914L84.7205 55.1848C85.2939 54.6496 86.1187 54.6672 86.6421 55.1902L92.2449 60.7912ZM75.2059 32.6044C75.1385 31.614 74.6503 30.8856 73.6751 30.319C72.0719 29.4318 70.2549 30.1556 68.0645 28.8926C65.7279 27.5048 65.1963 25.6154 65.1631 24.2744C65.1607 24.2454 65.1607 24.2164 65.1631 24.1872C65.2443 22.1488 66.2627 20.5502 68.1079 19.5636C68.7367 19.2148 69.4203 18.9692 70.1485 18.8294V17.4926C70.1485 16.7384 70.7589 16.1302 71.5111 16.1302C72.2633 16.1302 72.8737 16.7384 72.8737 17.4926V18.8006C74.4845 19.0114 75.9283 19.5146 77.2577 20.327C77.8979 20.719 78.1013 21.5586 77.7093 22.1998C77.3171 22.8428 76.4781 23.0448 75.8367 22.6522C74.5849 21.8872 73.1765 21.4842 71.5327 21.4206C70.8391 21.4072 69.9291 21.6392 69.4235 21.9492C69.4155 21.9546 69.4087 21.9582 69.3995 21.9616C68.4095 22.4904 67.9419 23.1972 67.8881 24.2506C67.9121 24.8592 68.1111 25.742 69.4325 26.536C70.9537 27.3962 72.8557 26.7068 75.0147 27.9458C76.8277 28.9908 77.8361 30.58 77.9333 32.5422C77.9345 32.5896 77.9345 32.6368 77.9309 32.6842C77.7429 35.6104 75.6297 37.5214 72.8735 38.0308V39.357C72.8735 40.109 72.2631 40.7194 71.5109 40.7194C70.7587 40.7194 70.1483 40.109 70.1483 39.357V38.0562C68.6187 37.8544 67.1463 37.3458 65.7619 36.5358C65.1115 36.1556 64.8919 35.3202 65.2715 34.6714C65.6521 34.0212 66.4867 33.8034 67.1361 34.183C68.9613 35.2496 71.7127 35.9794 73.6853 34.8916C74.6539 34.35 75.1293 33.6418 75.2059 32.6044ZM71.5113 13.2396C63.1375 13.2396 56.3255 20.0504 56.3255 28.4238C56.3255 36.7974 63.1377 43.61 71.5113 43.61C79.8839 43.61 86.6949 36.7974 86.6949 28.4238C86.6949 20.0506 79.8839 13.2396 71.5113 13.2396ZM71.5113 46.3354C81.3871 46.3354 89.4201 38.2998 89.4201 28.4238C89.4201 18.5482 81.3871 10.5144 71.5113 10.5144C61.6355 10.5144 53.6001 18.5482 53.6001 28.4238C53.6001 38.2998 61.6353 46.3354 71.5113 46.3354ZM71.5113 7.76056C60.1161 7.76056 50.8473 17.0314 50.8473 28.4238C50.8473 39.8184 60.1161 49.0874 71.5113 49.0874C82.9053 49.0874 92.1741 39.8184 92.1741 28.4238C92.1741 17.0314 82.9053 7.76056 71.5113 7.76056ZM71.5113 51.8128C84.4085 51.8128 94.8995 41.3212 94.8995 28.4238C94.8995 15.5268 84.4087 5.03516 71.5113 5.03516C58.6139 5.03516 48.1219 15.527 48.1219 28.4238C48.1219 41.3212 58.6141 51.8128 71.5113 51.8128ZM52.0213 84.2052C49.8173 84.2052 48.0237 82.4118 48.0237 80.2082C48.0237 78.0026 49.8173 76.2116 52.0213 76.2116C54.2241 76.2116 56.0179 78.0028 56.0179 80.2082C56.0179 82.4118 54.2241 84.2052 52.0213 84.2052ZM52.0213 73.4862C48.3151 73.4862 45.2995 76.5004 45.2995 80.2082C45.2995 83.9146 48.3151 86.9302 52.0213 86.9302C55.7285 86.9302 58.7431 83.9146 58.7431 80.2082C58.7431 76.5004 55.7287 73.4862 52.0213 73.4862ZM64.0531 81.0204V79.3946L62.1691 78.7824C61.7255 78.6368 61.3861 78.2774 61.2717 77.825C61.0477 76.9582 60.7023 76.1264 60.2451 75.3542C60.0085 74.9528 59.9925 74.4566 60.2051 74.0404L61.1047 72.2748L59.9547 71.1244L58.1885 72.0238C57.7723 72.2364 57.2763 72.2202 56.8749 71.9822C56.1021 71.5262 55.2711 71.181 54.4045 70.9574C53.9517 70.8412 53.5905 70.5032 53.4465 70.0598L52.8337 68.1758H51.2069L50.5965 70.0598C50.4513 70.5032 50.0911 70.8412 49.6385 70.9574C48.7719 71.181 47.9397 71.5264 47.1659 71.9822C46.7647 72.2202 46.2709 72.2362 45.8547 72.0238L44.0885 71.1244L42.9385 72.2748L43.8381 74.0404C44.0507 74.4566 44.0335 74.9526 43.7957 75.3542C43.3395 76.1264 42.9943 76.9582 42.7715 77.825C42.6549 78.2774 42.3165 78.6368 41.8741 78.7824L39.9901 79.3946V81.0204L41.8741 81.6326C42.3165 81.7776 42.6549 82.1376 42.7715 82.59C42.9943 83.4568 43.3397 84.2886 43.7957 85.0608C44.0335 85.4622 44.0507 85.9584 43.8381 86.3746L42.9385 88.1402L44.0885 89.29L45.8547 88.3906C46.2709 88.178 46.7669 88.1946 47.1681 88.4326C47.9397 88.8904 48.7721 89.2337 49.6385 89.457C50.0911 89.5736 50.4513 89.9116 50.5965 90.3564L51.2069 92.2386H52.8337L53.4465 90.3546C53.5905 89.9116 53.9517 89.5736 54.4045 89.457C55.2711 89.2337 56.1021 88.8886 56.8749 88.4326C57.2761 88.1946 57.7723 88.1782 58.1885 88.3906L59.9547 89.29L61.1047 88.1402L60.2051 86.3746C59.9925 85.9584 60.0085 85.4622 60.2451 85.0608C60.7023 84.2886 61.0475 83.4568 61.2717 82.59C61.3883 82.1376 61.7255 81.7776 62.1691 81.6326L64.0531 81.0204ZM65.8377 77.1072L63.6965 76.4134C63.4987 75.8024 63.2519 75.2086 62.9591 74.6366L63.9823 72.6308C64.2497 72.1038 64.1493 71.4662 63.7319 71.0486L61.1805 68.4978C60.7633 68.0798 60.1253 67.9798 59.5983 68.247L57.5933 69.27C57.0205 68.9776 56.4273 68.7302 55.8157 68.5322L55.1207 66.392C54.9389 65.8306 54.4153 65.451 53.8255 65.451H50.2185C49.6287 65.451 49.1051 65.8306 48.9211 66.392L48.2273 68.5322C47.6169 68.73 47.0235 68.9776 46.4497 69.2682L44.4457 68.2468C43.9187 67.9798 43.2809 68.0798 42.8623 68.4976L40.3119 71.0484C39.8947 71.466 39.7917 72.1036 40.0615 72.6306L41.0823 74.6364C40.7919 75.2084 40.5449 75.8024 40.3461 76.4132L38.2061 77.107C37.6447 77.2904 37.2653 77.8136 37.2653 78.4042V82.0102C37.2653 82.601 37.6447 83.1238 38.2061 83.3074L40.3461 84.0014C40.5449 84.6118 40.7919 85.2062 41.0823 85.7782L40.0615 87.784C39.7917 88.3104 39.8945 88.9482 40.3119 89.3662L42.8623 91.917C43.2807 92.335 43.9187 92.435 44.4457 92.1674L46.4509 91.1466C47.0237 91.4371 47.6169 91.6842 48.2273 91.8826L48.9211 94.0224C49.1051 94.5842 49.6287 94.9638 50.2185 94.9638H53.8253C54.4151 94.9638 54.9387 94.5842 55.1205 94.0224L55.8155 91.8826C56.4271 91.6844 57.0205 91.4374 57.5931 91.1466L59.5981 92.1674C60.1251 92.4348 60.7629 92.3348 61.1803 91.917L63.7319 89.3662C64.1491 88.9482 64.2497 88.3106 63.9823 87.784L62.9591 85.7782C63.2517 85.2062 63.4987 84.6118 63.6965 84.0014L65.8377 83.3074C66.3989 83.124 66.7785 82.601 66.7785 82.0102V78.4042C66.7785 77.8138 66.3989 77.2908 65.8377 77.1072ZM31.0361 60.2822C27.8923 63.3254 22.8745 63.2434 19.8319 60.0968C16.7873 56.948 16.8679 51.9388 20.0171 48.8932C23.1661 45.848 28.1769 45.9336 31.2213 49.0784C34.2647 52.2224 34.1791 57.2406 31.0361 60.2822ZM25.7021 43.9406C19.8315 43.8282 14.9767 48.5278 14.8797 54.4122C14.7815 60.3666 19.5741 65.2366 25.5307 65.2366C31.3423 65.2366 36.0767 60.5776 36.1735 54.7632C36.2717 48.8792 31.5853 44.0384 25.7021 43.9406ZM34.4187 66.0358C34.0495 66.323 33.8539 66.7772 33.8973 67.242L34.2093 70.5558L31.2153 71.8512L29.0135 69.3532C28.7061 69.0026 28.2395 68.8334 27.7777 68.9078C26.4321 69.1204 25.0649 69.1422 23.7171 68.9736C23.2541 68.915 22.7933 69.0968 22.4961 69.4548L20.3743 72.018L17.3425 70.8172L17.5505 67.4962C17.5803 67.0308 17.3687 66.5822 16.9915 66.3078C15.8941 65.5104 14.9131 64.5582 14.0775 63.4794C13.7905 63.1106 13.3367 62.9142 12.8715 62.9578L9.55754 63.2704L8.26234 60.2762L10.7601 58.076C11.1111 57.7674 11.2779 57.3004 11.2049 56.841C10.9923 55.4928 10.9717 54.1268 11.1397 52.7786C11.2003 52.3156 11.0161 51.8538 10.6573 51.5578L8.09554 49.4358L9.29594 46.4038L12.6169 46.6128C13.0821 46.6436 13.5315 46.431 13.8047 46.055C14.6027 44.9538 15.5549 43.975 16.6341 43.139C17.0033 42.8536 17.1989 42.3978 17.1553 41.9346L16.8433 38.619L19.8373 37.3236L22.0367 39.8216C22.3465 40.1726 22.8107 40.3396 23.2725 40.2668C24.6203 40.0524 25.9865 40.0306 27.3353 40.2016C27.7983 40.2614 28.2589 40.0778 28.5551 39.718L30.6769 37.1566L33.7097 38.3574L33.5005 41.6784C33.4719 42.1436 33.6823 42.5924 34.0583 42.865C35.1581 43.6642 36.1389 44.6164 36.9745 45.6952C37.2591 46.064 37.7141 46.2604 38.1795 46.2168L41.4947 45.9042L42.7877 48.8982L40.2923 51.1002C39.9413 51.407 39.7745 51.874 39.8465 52.3354C40.0591 53.6818 40.0809 55.0478 39.9105 56.3958C39.8521 56.859 40.0341 57.3206 40.3941 57.6168L42.9571 59.7388L41.7555 62.771L38.4345 62.562C37.9703 62.5348 37.5211 62.7436 37.2467 63.1196C36.4501 64.2194 35.4979 65.2 34.4187 66.0358ZM36.6789 67.711C37.5271 66.9934 38.3011 66.194 38.9915 65.3272L42.5719 65.5544C43.1607 65.5888 43.7071 65.2438 43.9243 64.6952L45.8551 59.8224C46.0733 59.2718 45.9133 58.647 45.4573 58.271L42.6943 55.982C42.7835 54.8772 42.7663 53.7652 42.6417 52.6628L45.3339 50.288C45.7775 49.8976 45.9181 49.2672 45.6837 48.726L43.6019 43.9132C43.3675 43.372 42.8097 43.0432 42.2233 43.0978L38.6497 43.4354C37.9317 42.587 37.1327 41.8132 36.2661 41.1228L36.4913 37.5422C36.5301 36.9532 36.1827 36.4066 35.6339 36.1886L30.7593 34.2592C30.2105 34.0412 29.5853 34.2012 29.2081 34.657L26.9207 37.4202C25.8165 37.329 24.7041 37.3474 23.5997 37.473L21.2277 34.7806C20.8367 34.3372 20.2057 34.1952 19.6649 34.4296L14.8521 36.5118C14.3103 36.7456 13.9821 37.3018 14.0359 37.8906L14.3743 41.464C13.5261 42.1816 12.7521 42.9808 12.0617 43.8476L8.48134 43.6204C7.89034 43.5844 7.34494 43.9312 7.12774 44.48L5.19814 49.3524C4.97974 49.903 5.13994 50.5278 5.59594 50.906L8.35894 53.1932C8.26874 54.2976 8.28694 55.4094 8.41154 56.5142L5.71934 58.8868C5.27574 59.2776 5.13394 59.9076 5.36834 60.4494L7.44994 65.262C7.68554 65.8032 8.24094 66.1342 8.82974 66.0778L12.4009 65.7398C13.1211 66.5882 13.9201 67.3622 14.7867 68.0526L14.5593 71.6334C14.5227 72.222 14.8679 72.7686 15.4189 72.9864L20.2911 74.916C20.8351 75.133 21.4635 74.9774 21.8423 74.5182L24.1297 71.755C25.2363 71.846 26.3475 71.8278 27.4507 71.7022L29.8251 74.3944C30.2137 74.8378 30.8459 74.98 31.3879 74.7454L36.2007 72.6632C36.7425 72.4292 37.0707 71.8732 37.0157 71.2846L36.6789 67.711Z" fill="black"/>
</svg>
