<svg width="100" height="100" viewBox="0 0 100 100" fill="none" xmlns="http://www.w3.org/2000/svg">
<path fill-rule="evenodd" clip-rule="evenodd" d="M41.703 61.6644H37.0235V72.9462H41.703V61.6644ZM42.6522 58.8755C43.0888 58.452 43.5609 58.0664 44.0631 57.7232C45.3672 56.7724 46.995 55.5851 46.2424 51.8667C46.235 51.8349 46.2284 51.8027 46.2229 51.7691C45.8483 49.4902 46.4963 47.946 47.6096 47.091C48.2623 46.5993 49.0618 46.3421 49.8787 46.3609C50.676 46.3755 51.4577 46.5845 52.1559 46.9697C53.9409 47.9333 55.5098 50.0462 55.5098 53.0398V57.9445H61.4377C61.6776 57.9462 61.9169 57.9694 62.1528 58.0136C63.2428 58.2278 64.2109 58.8477 64.8615 59.7482C65.4351 60.4898 65.7668 61.3898 65.8117 62.3263C65.8103 62.489 65.7944 62.6513 65.7643 62.8113L64.078 72.1458C63.8919 73.25 63.3501 74.2631 62.535 75.0308C61.7224 75.779 60.655 76.1891 59.5504 76.1775H46.3799C45.3784 76.1775 44.3997 75.8788 43.569 75.3195C43.1578 75.6237 42.6596 75.7877 42.1481 75.7872H36.5782C35.9427 75.7864 35.3335 75.5335 34.8841 75.0842C34.4348 74.6348 34.182 74.0257 34.1811 73.3902V61.2191C34.1846 60.5844 34.4382 59.9767 34.887 59.528C35.3358 59.0792 35.9435 58.8255 36.5782 58.822C37.9998 58.8292 38.2096 58.8251 42.6524 58.8755H42.6522ZM44.5453 71.9675C44.5453 72.8544 45.6196 73.3363 46.3799 73.3363H59.5512C60.5373 73.3363 61.1274 72.555 61.2912 71.6474C61.649 69.6632 62.9696 63.9146 62.9696 62.3275C62.9346 62.0042 62.805 61.6984 62.5969 61.4486C62.374 61.123 62.0375 60.8925 61.6533 60.8023C60.3014 60.5589 55.7703 60.7886 54.0887 60.7886C53.7118 60.7886 53.3503 60.6388 53.0838 60.3723C52.8173 60.1057 52.6676 59.7442 52.6676 59.3673V53.0414C52.6676 51.2347 51.7998 50.0023 50.8121 49.4693C50.5239 49.3028 50.1998 49.2083 49.8672 49.1937C49.6763 49.1837 49.4874 49.2375 49.3303 49.3464C49.0028 49.5978 48.8409 50.2238 49.0201 51.3154V51.3171C50.1309 56.8001 47.686 58.5828 45.7272 60.0113C45.0895 60.4763 44.5442 60.8738 44.5442 61.2191V71.9675H44.5453ZM66.252 47.3904C70.0127 51.1511 72.353 56.0995 72.8743 61.3923C73.3956 66.6851 72.0655 71.995 69.1107 76.4171C66.156 80.8392 61.7593 84.1 56.6699 85.6439C51.5804 87.1877 46.1131 86.9191 41.1995 84.8839C36.2859 82.8486 32.23 79.1726 29.7229 74.4821C27.2158 69.7917 26.4126 64.377 27.4501 59.1608C28.4877 53.9445 31.3018 49.2494 35.413 45.8754C39.5242 42.5014 44.6781 40.6572 49.9965 40.6572C53.016 40.6532 56.0065 41.246 58.7962 42.4015C61.5859 43.557 64.1197 45.2525 66.252 47.3904ZM49.9965 37.815C55.9727 37.8149 61.7641 39.887 66.3838 43.6782C71.0036 47.4694 74.1658 52.7451 75.3318 58.6065C76.4978 64.4678 75.5953 70.5522 72.7782 75.8227C69.9611 81.0933 65.4036 85.2241 59.8824 87.5111C54.3611 89.7982 48.2176 90.1 42.4987 88.3652C36.7798 86.6305 31.8394 82.9664 28.5191 77.9974C25.1989 73.0284 23.7043 67.0618 24.2901 61.1144C24.8758 55.167 27.5057 49.6066 31.7315 45.3808C34.1274 42.9786 36.9744 41.0736 40.109 39.7752C43.2435 38.4768 46.6037 37.8106 49.9965 37.815ZM71.4809 42.1617C76.4515 47.1321 79.5448 53.6723 80.2339 60.6678C80.923 67.6633 79.1652 74.6813 75.2599 80.526C71.3547 86.3708 65.5437 90.6806 58.817 92.7212C52.0904 94.7618 44.8643 94.4069 38.3699 91.717C31.8756 89.027 26.5149 84.1685 23.2012 77.9692C19.8876 71.7699 18.8259 64.6134 20.1972 57.7191C21.5685 50.8247 25.2878 44.6192 30.7216 40.1598C36.1553 35.7003 42.9672 33.2629 49.9965 33.2628C53.9873 33.2576 57.9397 34.0411 61.6267 35.5683C65.3138 37.0954 68.6626 39.3361 71.4809 42.1617ZM49.9965 30.4205C57.6834 30.4203 65.1326 33.0855 71.0748 37.962C77.0169 42.8384 81.0844 49.6244 82.5842 57.1636C84.0839 64.7028 82.9231 72.5288 79.2996 79.3081C75.6761 86.0874 69.8141 91.4006 62.7123 94.3423C55.6105 97.2841 47.7085 97.6724 40.3525 95.441C32.9965 93.2097 26.6418 88.4968 22.3712 82.1054C18.1005 75.714 16.1781 68.0395 16.9315 60.3895C17.6849 52.7396 21.0675 45.5876 26.503 40.1521C29.5847 37.0622 33.2468 34.6119 37.2786 32.9418C41.3104 31.2717 45.6325 30.4148 49.9965 30.4205ZM51.7756 11.6578L49.9965 7.87124L48.268 11.5503C48.1776 11.7952 48.0214 12.0104 47.8167 12.1724C47.612 12.3343 47.3666 12.4367 47.1075 12.4683L42.9657 12.9884L45.9719 15.808C46.16 15.9708 46.302 16.1802 46.3836 16.4153C46.4652 16.6503 46.4835 16.9027 46.4367 17.147L45.6508 21.2525L49.2973 19.2455C49.5077 19.1262 49.7452 19.0628 49.987 19.0612C50.2289 19.0597 50.4672 19.12 50.6791 19.2365L54.342 21.2533L53.5573 17.1486C53.5124 16.9141 53.5274 16.6721 53.6011 16.445C53.6747 16.2179 53.8046 16.0131 53.9785 15.8496L57.0276 12.9884L52.8869 12.4628C52.6486 12.4338 52.4217 12.3447 52.2273 12.2037C52.033 12.0628 51.8778 11.8747 51.7762 11.6572L51.7756 11.6578ZM51.2789 3.94292L54.0053 9.74624L60.3725 10.547C60.6477 10.5815 60.9068 10.6956 61.118 10.8755C61.3291 11.0553 61.4831 11.2929 61.561 11.5591C61.6388 11.8253 61.6372 12.1084 61.5562 12.3737C61.4753 12.6389 61.3185 12.8747 61.1053 13.0521L56.4899 17.3806L57.6957 23.6857C57.7456 23.95 57.7194 24.223 57.6202 24.4731C57.521 24.7231 57.3528 24.9397 57.1352 25.0979C56.9177 25.2561 56.6597 25.3492 56.3912 25.3665C56.1228 25.3837 55.855 25.3244 55.619 25.1955L49.9965 22.0996L44.3727 25.1955C44.1366 25.3241 43.8689 25.383 43.6006 25.3656C43.3324 25.3481 43.0746 25.2549 42.8572 25.0968C42.6398 24.9386 42.4717 24.7221 42.3724 24.4722C42.2732 24.2224 42.2469 23.9495 42.2965 23.6853L43.5032 17.3802L38.8205 12.9884C38.6249 12.8035 38.486 12.5667 38.4199 12.3057C38.3538 12.0447 38.3632 11.7703 38.4472 11.5145C38.5311 11.2588 38.6861 11.0321 38.894 10.8611C39.1019 10.69 39.3541 10.5817 39.6213 10.5486L45.9885 9.74506L48.7147 3.94213C48.8293 3.69893 49.0108 3.49334 49.2378 3.34935C49.4649 3.20536 49.7282 3.12891 49.9971 3.12891C50.266 3.12891 50.5293 3.20536 50.7564 3.34935C50.9834 3.49334 51.1649 3.69893 51.2795 3.94213L51.2789 3.94292ZM14.4989 25.6283L10.5575 24.2066L11.9371 28.0314C12.0458 28.2676 12.0875 28.5292 12.0577 28.7875C12.0279 29.0458 11.9277 29.2909 11.7682 29.4962L9.20374 32.799L13.3821 32.6664C13.6206 32.6588 13.8572 32.7117 14.0698 32.8202C14.2824 32.9287 14.4641 33.0892 14.5979 33.2869L16.9483 36.7499L18.1096 32.7429C18.1743 32.5104 18.2974 32.2983 18.4672 32.1267C18.637 31.9552 18.8479 31.8299 19.0797 31.7628L23.1006 30.5974L19.6909 28.2832C19.478 28.1526 19.3034 27.968 19.1848 27.7481C19.0663 27.5283 19.008 27.281 19.0159 27.0314L19.1498 22.8529L15.8448 25.4136C15.6567 25.5599 15.4347 25.6563 15.1994 25.6939C14.9641 25.7315 14.7231 25.7088 14.4989 25.6283ZM8.68558 20.5224C8.43306 20.4317 8.15999 20.4146 7.89812 20.473C7.63625 20.5314 7.39635 20.663 7.20633 20.8524C7.0163 21.0418 6.88395 21.2813 6.82468 21.543C6.76541 21.8047 6.78165 22.0778 6.87152 22.3306L9.04906 28.3671L5.11253 33.4421C4.94828 33.6547 4.84775 33.9094 4.82262 34.1768C4.7975 34.4443 4.84883 34.7133 4.97063 34.9527C5.09243 35.1921 5.2797 35.392 5.51065 35.5291C5.74161 35.6662 6.00675 35.735 6.27523 35.7273L12.694 35.5216L16.27 40.7902C16.4157 41.0208 16.6248 41.2045 16.8723 41.3192C17.1198 41.4339 17.3952 41.4748 17.6653 41.437C17.9355 41.3992 18.189 41.2843 18.3955 41.106C18.602 40.9278 18.7527 40.6937 18.8295 40.432L20.6168 34.266L26.7825 32.4777C27.0401 32.4023 27.271 32.2553 27.4483 32.0537C27.6257 31.8522 27.742 31.6044 27.784 31.3393C27.8259 31.0741 27.7916 30.8025 27.6851 30.5561C27.5786 30.3097 27.4043 30.0986 27.1825 29.9474L21.8721 26.3433L22.0744 20.0298C22.103 19.7531 22.0498 19.474 21.9213 19.2272C21.7928 18.9804 21.5947 18.7767 21.3516 18.6414C21.1085 18.5061 20.831 18.4451 20.5535 18.4659C20.2761 18.4868 20.0108 18.5886 19.7907 18.7587L14.718 22.6984L8.68558 20.5224ZM88.0141 28.148L89.4358 24.2066L85.6112 25.5861C85.3749 25.6947 85.1134 25.7364 84.8551 25.7066C84.5968 25.6768 84.3516 25.5767 84.1463 25.4171L80.8444 22.8527L80.977 27.0314C80.9846 27.2699 80.9316 27.5065 80.8231 27.719C80.7146 27.9316 80.5541 28.1132 80.3565 28.247L76.8934 30.5974L80.8989 31.758C81.1313 31.8226 81.3434 31.9457 81.5149 32.1155C81.6864 32.2852 81.8117 32.4961 81.8787 32.7279L83.0444 36.749L85.3592 33.34C85.4898 33.1271 85.6744 32.9525 85.8943 32.834C86.1142 32.7155 86.3615 32.6572 86.6112 32.6652L90.7895 32.799L88.2287 29.4941C88.0824 29.306 87.986 29.084 87.9485 28.8486C87.9109 28.6133 87.9334 28.3723 88.0139 28.148H88.0141ZM93.1199 22.3347C93.2107 22.0822 93.2278 21.8091 93.1694 21.5472C93.111 21.2854 92.9794 21.0455 92.79 20.8554C92.6005 20.6654 92.3611 20.5331 92.0994 20.4739C91.8377 20.4146 91.5645 20.4309 91.3117 20.5208L85.2752 22.6984L80.2002 18.7619C79.9877 18.5976 79.7329 18.4971 79.4655 18.472C79.1981 18.4468 78.929 18.4982 78.6897 18.62C78.4503 18.7418 78.2504 18.929 78.1133 19.16C77.9761 19.3909 77.9074 19.6561 77.9151 19.9246L78.1207 26.3433L72.852 29.9193C72.6217 30.0651 72.4383 30.2742 72.3238 30.5216C72.2092 30.769 72.1684 31.0441 72.2062 31.3141C72.244 31.584 72.3588 31.8374 72.5369 32.0438C72.7149 32.2502 72.9487 32.4009 73.2102 32.4779L79.3762 34.265L81.1645 40.4306C81.2398 40.6883 81.3868 40.9193 81.5884 41.0966C81.79 41.274 82.0378 41.3904 82.303 41.4323C82.5682 41.4742 82.8398 41.4399 83.0863 41.3334C83.3327 41.2269 83.5438 41.0525 83.6949 40.8306L87.299 35.5203L93.6123 35.7226C93.8891 35.7511 94.1681 35.6978 94.4149 35.5693C94.6617 35.4408 94.8653 35.2428 95.0006 34.9997C95.136 34.7566 95.197 34.4791 95.1762 34.2017C95.1554 33.9243 95.0537 33.659 94.8836 33.4388L90.944 28.3662L93.1199 22.3347Z" fill="black"/>
</svg>
