<svg width="100" height="100" viewBox="0 0 100 100" fill="none" xmlns="http://www.w3.org/2000/svg">
<path d="M90.6212 47.1038C90.8649 43.6997 88.4232 40.583 84.9795 40.1288L83.1941 39.8434C82.2732 22.3247 67.7274 8.33301 49.9795 8.33301C32.2107 8.33301 17.6691 22.3247 16.767 39.8455L14.9816 40.1309C11.5149 40.5851 9.07324 43.7018 9.33991 47.1476C7.96699 47.6018 6.73574 48.4622 5.85241 49.6518C4.68366 51.2101 4.19199 53.1393 4.45657 55.0684C4.70449 56.9122 5.66699 58.5559 7.16699 59.6643C8.37741 60.5643 9.81074 61.0601 11.3107 61.0976C11.6378 62.6184 12.4795 64.0143 13.7524 64.9538C14.9212 65.8143 16.2941 66.3101 17.7107 66.3101C18.0212 66.3101 21.1774 65.8559 21.1774 65.8559C22.9253 65.6122 24.4628 64.708 25.5295 63.3143C26.5962 61.9184 27.0462 60.1538 26.7982 58.433L24.9545 45.383C24.7066 43.6184 23.8024 42.1018 22.392 41.0351C21.5482 40.3788 20.5649 40.0101 19.5399 39.8038C20.4774 23.8413 33.7524 11.1226 49.9795 11.1226C66.1857 11.1226 79.4795 23.8413 80.4024 39.8018C79.3982 40.008 78.4149 40.3768 77.5503 41.033C76.1545 42.0997 75.2566 43.6163 75.0087 45.3809L73.1649 58.4309C72.917 60.1538 73.367 61.9184 74.4337 63.3122C75.4212 64.6226 76.8545 65.4851 78.4545 65.8122C77.4503 72.5851 74.0045 78.6559 68.6274 82.9622C64.3837 86.3705 59.3545 88.3393 54.0441 88.7893C54.5774 88.0122 54.9045 87.1497 55.0066 86.2059C55.192 84.6059 54.742 83.0455 53.7378 81.8163C52.7503 80.5434 51.3337 79.808 49.7337 79.6018C48.1545 79.4372 46.5941 79.8872 45.3441 80.8705C44.0962 81.858 43.3149 83.2955 43.1503 84.8913C42.7816 88.1768 45.142 91.1309 48.4232 91.458C49.5462 91.6247 50.6566 91.6664 51.7857 91.6664C58.5128 91.6664 65.017 89.4101 70.3524 85.1413C76.2816 80.3809 80.0753 73.6913 81.1837 66.2268H81.3045C81.6107 66.2684 81.917 66.3101 82.2295 66.3101C83.667 66.3101 85.0399 65.8143 86.1878 64.9538C87.5024 63.9705 88.3441 62.5768 88.6712 61.0163C92.0962 60.8518 95.0482 58.3059 95.5441 54.7768C96.0378 51.2893 93.8607 48.0913 90.6212 47.1038ZM8.82532 57.4455C7.92116 56.7893 7.34616 55.8059 7.18157 54.6559C7.01699 53.4663 7.32949 52.2788 8.04199 51.333C8.49616 50.758 9.05032 50.2663 9.68574 49.9809L10.8545 58.2705C10.1399 58.1851 9.44407 57.8976 8.82532 57.4455ZM22.2253 45.7518L24.0482 58.8018C24.192 59.8268 23.9274 60.8101 23.3087 61.6288C22.6962 62.4518 21.792 62.9851 20.7878 63.1497L18.2628 63.4788C17.2587 63.6434 16.2545 63.358 15.4316 62.7393C14.6128 62.1268 14.0795 61.2601 13.9357 60.2351L12.0878 47.1893C11.8024 45.0976 13.2607 43.1268 15.3524 42.8413L16.7253 42.6351V53.383C16.7253 54.1643 17.3378 54.7788 18.0982 54.7788C18.8587 54.7788 19.4941 54.1663 19.4941 53.383V42.6351C19.9274 42.7559 20.3545 42.9622 20.7253 43.2476C21.5441 43.8663 22.0774 44.7684 22.2253 45.7518ZM46.5732 87.5622C46.0399 86.8643 45.7962 86.0455 45.8753 85.1851C45.9795 84.3247 46.4087 83.5851 47.0691 83.0497C47.7462 82.5163 48.5857 82.2684 49.4462 82.3518C50.2857 82.4726 51.0462 82.8851 51.5816 83.5413C52.1149 84.1976 52.3587 85.0622 52.2587 85.8809C52.1753 86.7413 51.7462 87.5205 51.0899 88.0538C50.4087 88.5872 49.5691 88.8351 48.7295 88.7518C47.867 88.6289 47.1066 88.2163 46.5732 87.5622ZM84.5295 62.7393C83.7066 63.3559 82.7024 63.6434 81.6982 63.4788L79.1524 63.1518C78.1482 62.9872 77.2649 62.4538 76.6524 61.6309C76.0357 60.8122 75.7482 59.8288 75.9128 58.8038L77.7357 45.7538C77.8837 44.7705 78.417 43.8663 79.2357 43.2497C79.6045 42.9643 80.0337 42.758 80.467 42.6372V53.3851C80.467 54.1663 81.0795 54.7809 81.8628 54.7809C82.6232 54.7809 83.2357 54.1684 83.2357 53.3851V42.6372L84.5878 42.8434C86.6795 43.1288 88.1587 45.0997 87.8524 47.1913L86.0253 60.2372C85.8816 61.2601 85.3482 62.1247 84.5295 62.7393ZM92.8149 54.3684C92.5295 56.3768 90.992 57.8976 89.1003 58.2247L90.2732 49.8934C90.9503 50.183 91.5462 50.633 91.9962 51.2497C92.6712 52.1518 92.9566 53.2601 92.8149 54.3684Z" fill="black"/>
<path d="M46.0384 65.4061C46.1217 66.0186 46.5717 66.4728 47.1697 66.554C48.0947 66.7186 49.0342 66.802 49.9801 66.802C50.9259 66.802 51.8676 66.7186 52.7905 66.554C53.3655 66.4749 53.8155 66.0207 53.9155 65.4061L54.6551 60.8103L58.4322 63.5582C58.903 63.8853 59.5572 63.8853 60.0488 63.5582C61.5905 62.454 62.9009 61.1374 64.0113 59.579C64.3592 59.129 64.3592 58.4707 64.0113 57.979L61.2634 54.2061L65.8759 53.4665C66.4717 53.3832 66.9217 52.8915 67.028 52.3186C67.1717 51.3728 67.2509 50.427 67.2509 49.5249C67.2509 48.6249 67.1717 47.6374 67.028 46.6978C66.9238 46.1228 66.4738 45.6728 65.8759 45.5895L61.2634 44.8499L64.0113 41.077C64.3592 40.5853 64.3592 39.9249 64.0113 39.4332C62.9238 37.9165 61.5905 36.602 60.0322 35.4957C59.5572 35.127 58.9009 35.127 58.4322 35.4957L54.6551 38.202L53.9155 33.6061C53.8155 33.0353 53.3655 32.5811 52.7676 32.4582C50.9238 32.1728 49.0322 32.1728 47.1676 32.4582C46.5717 32.579 46.1217 33.0332 46.0363 33.6061L45.3009 38.202L41.5238 35.4957C41.0322 35.127 40.3759 35.127 39.903 35.4957C38.3655 36.5999 37.0342 37.9165 35.9447 39.4332C35.5967 39.9249 35.5967 40.5853 35.9447 41.077L38.6759 44.8499L34.0801 45.5895C33.4842 45.6728 33.0342 46.1228 32.928 46.6978C32.7634 47.6395 32.7051 48.5853 32.7051 49.5249C32.7051 50.429 32.7634 51.4165 32.928 52.3186C33.0322 52.8895 33.4822 53.3811 34.0801 53.4665L38.6759 54.2061L35.9447 57.979C35.5967 58.4707 35.5967 59.1311 35.9447 59.579C37.0322 61.0957 38.3655 62.452 39.8863 63.5582C40.378 63.8853 41.0342 63.8853 41.5259 63.5582L45.303 60.8103L46.0384 65.4061ZM44.3176 58.104L40.7301 60.6874C40.0322 60.1124 39.378 59.4561 38.7801 58.7582L41.4051 55.1457C41.7113 54.7374 41.753 54.204 41.5051 53.7124C41.3197 53.3436 41.1572 52.9311 41.0134 52.5186C40.8488 52.027 40.4217 51.6582 39.9259 51.577L35.5363 50.879C35.4988 50.4249 35.4572 49.9749 35.4572 49.5228C35.4572 49.0728 35.4988 48.6228 35.5363 48.127L39.9259 47.429C40.4217 47.3499 40.8509 46.979 41.0134 46.4874C41.1572 46.1186 41.3197 45.7061 41.5259 45.2978C41.753 44.8436 41.7113 44.2686 41.4051 43.8603L38.7801 40.2895C39.3759 39.5499 40.0113 38.9374 40.7301 38.3186L44.3384 40.9436C44.7509 41.2332 45.3051 41.2749 45.7551 41.0707C46.1884 40.8645 46.5738 40.6582 46.9655 40.579C47.4572 40.4145 47.8259 39.9624 47.8905 39.4707L48.6092 35.0811C49.5342 34.9978 50.4322 34.9978 51.3572 35.0811L52.0551 39.4707C52.1384 39.9624 52.4884 40.4165 52.9801 40.579C53.3717 40.6582 53.778 40.8645 54.1905 41.0707C54.6613 41.3145 55.1947 41.2353 55.628 40.9436L59.2155 38.3186C59.9342 38.8936 60.5884 39.5499 61.1655 40.2895L58.5613 43.8603C58.2551 44.2686 58.2134 44.8436 58.4405 45.2978C58.6467 45.7478 58.8092 46.1165 58.953 46.529C59.1176 47.0207 59.5238 47.3478 60.0405 47.429L64.4259 48.127C64.4676 48.6228 64.4884 49.0728 64.4884 49.5228C64.4884 49.977 64.4676 50.427 64.4259 50.879L60.0405 51.577C59.5238 51.6561 59.1155 52.027 58.953 52.5186C58.8092 52.8874 58.6467 53.2999 58.4405 53.7124C58.2134 54.204 58.2551 54.7374 58.5613 55.1457L61.1655 58.7582C60.5905 59.4561 59.9342 60.1103 59.2155 60.6874L55.628 58.104C55.1947 57.7728 54.6613 57.7353 54.1905 57.977C53.7988 58.1832 53.3926 58.3457 52.9801 58.4686C52.4884 58.6332 52.1405 59.0436 52.0551 59.577L51.3572 63.9665C50.453 64.0499 49.5134 64.0499 48.6092 63.9665L47.8905 59.577C47.828 59.0436 47.4572 58.6311 46.9655 58.4686C46.5572 58.3478 46.1467 58.1832 45.7759 57.977C45.303 57.7353 44.7697 57.7728 44.3176 58.104Z" fill="black"/>
<path d="M49.9789 55.0248C53.0164 55.0248 55.4956 52.5623 55.4956 49.5248C55.4956 46.4498 53.0164 43.9873 49.9789 43.9873C46.9206 43.9873 44.4414 46.4498 44.4414 49.5248C44.4414 52.5623 46.9206 55.0248 49.9789 55.0248ZM49.9789 46.7352C51.4956 46.7352 52.7268 47.9665 52.7268 49.5248C52.7268 51.0456 51.4956 52.2769 49.9789 52.2769C48.4414 52.2769 47.2102 51.0456 47.2102 49.5248C47.2102 47.9665 48.4414 46.7352 49.9789 46.7352Z" fill="black"/>
</svg>
