<svg width="100" height="100" viewBox="0 0 100 100" fill="none" xmlns="http://www.w3.org/2000/svg">
<g clip-path="url(#clip0_112_1671)">
<path d="M79.7852 74.5938C80.5942 74.5938 81.25 73.9379 81.25 73.1289C81.25 72.3199 80.5942 71.6641 79.7852 71.6641C78.9761 71.6641 78.3203 72.3199 78.3203 73.1289C78.3203 73.9379 78.9761 74.5938 79.7852 74.5938Z" fill="black"/>
<path d="M84.9609 74.5938C85.7699 74.5938 86.4258 73.9379 86.4258 73.1289C86.4258 72.3199 85.7699 71.6641 84.9609 71.6641C84.1519 71.6641 83.4961 72.3199 83.4961 73.1289C83.4961 73.9379 84.1519 74.5938 84.9609 74.5938Z" fill="black"/>
<path d="M90.1367 74.5938C90.9457 74.5938 91.6016 73.9379 91.6016 73.1289C91.6016 72.3199 90.9457 71.6641 90.1367 71.6641C89.3277 71.6641 88.6719 72.3199 88.6719 73.1289C88.6719 73.9379 89.3277 74.5938 90.1367 74.5938Z" fill="black"/>
<path d="M94.8965 11.5938H73.9281C68.3318 4.53574 59.6855 0 49.999 0C40.3125 0 31.6662 4.53574 26.0697 11.5938H5.10156C2.67832 11.5938 0.707031 13.565 0.707031 15.9883V75.0092C0.707031 77.9709 3.11641 80.3803 6.07812 80.3803H37.3211V88.9641H15.2768C13.9305 88.9641 12.8354 90.0592 12.8354 91.4055V97.5586C12.8354 98.9049 13.9305 100 15.2768 100H84.7211C86.0674 100 87.1625 98.9049 87.1625 97.5586V91.4055C87.1625 90.0592 86.0674 88.9641 84.7211 88.9641H77.1475C76.3383 88.9641 75.6826 89.6199 75.6826 90.4289C75.6826 91.2379 76.3383 91.8938 77.1475 91.8938H84.2328V97.0703H15.765V91.8938H70.3115C71.1207 91.8938 71.7764 91.2379 71.7764 90.4289C71.7764 89.6199 71.1207 88.9641 70.3115 88.9641H62.677V80.3803H93.9199C96.8816 80.3803 99.291 77.9709 99.291 75.0092V15.9883C99.291 13.5652 97.3195 11.5938 94.8965 11.5938ZM74.7162 18.2617C76.3527 21.5463 77.3549 25.2 77.5578 29.0623H65.8631C65.7727 25.2885 65.3303 21.6406 64.5738 18.2617H74.7162ZM60.7387 45.7225C58.6518 52.3068 55.2803 56.9744 51.4639 57.9385V45.7225H60.7387ZM51.4639 42.7928V31.9922H62.9316C62.832 35.8318 62.3432 39.4916 61.5508 42.7928H51.4639ZM61.5055 51.7285C62.4117 49.9018 63.1852 47.8832 63.8203 45.7225H73.0246C69.5309 50.9992 64.2744 55.0111 58.1006 56.9107C59.3438 55.5129 60.4889 53.7779 61.5055 51.7285ZM64.5738 42.7928C65.3303 39.4139 65.7727 35.766 65.8631 31.9922H77.5576C77.3547 35.8545 76.3525 39.5082 74.716 42.7928H64.5738ZM73.0246 15.332H63.8203C63.1852 13.1713 62.4115 11.1527 61.5055 9.32598C60.4889 7.27656 59.3437 5.5416 58.1008 4.14375C64.2746 6.04355 69.5309 10.0555 73.0246 15.332ZM51.4639 3.11621C55.2805 4.08027 58.6518 8.74785 60.7387 15.332H51.4639V3.11621ZM49.999 21.3867C50.8082 21.3867 51.4639 20.7309 51.4639 19.9219V18.2617H61.5508C62.3434 21.5629 62.832 25.2227 62.9316 29.0623H51.4639V26.9531C51.4639 26.1441 50.8082 25.4883 49.999 25.4883C49.19 25.4883 48.5342 26.1441 48.5342 26.9531V29.0625H37.0664C37.166 25.2229 37.6549 21.5629 38.4473 18.2619H48.5342V19.9221C48.5342 20.7309 49.19 21.3867 49.999 21.3867ZM36.1777 45.7225C36.8129 47.8832 37.5863 49.902 38.4926 51.7285C39.5092 53.7779 40.6543 55.5129 41.8973 56.9107C35.7234 55.0111 30.4672 50.999 26.9732 45.7225H36.1777ZM25.2818 42.7928C23.6453 39.5082 22.6434 35.8547 22.4402 31.9922H34.1352C34.2256 35.7658 34.668 39.4139 35.4244 42.7928H25.2818ZM39.2594 45.7225H48.5342V57.9385C44.7176 56.9742 41.3463 52.3068 39.2594 45.7225ZM38.4473 42.7928C37.6547 39.4916 37.166 35.8318 37.0664 31.9922H48.5342V42.7928H38.4473ZM48.5342 3.11621V15.332H39.2594C41.3463 8.74785 44.7178 4.08027 48.5342 3.11621ZM41.8973 4.14395C40.6541 5.5416 39.5092 7.27676 38.4926 9.32617C37.5865 11.1529 36.8129 13.1715 36.1777 15.3322H26.9732C30.4672 10.0555 35.7234 6.04355 41.8973 4.14395ZM35.4244 18.2617C34.668 21.6406 34.2256 25.2887 34.1352 29.0623H22.4404C22.6434 25.1998 23.6455 21.5463 25.282 18.2617H35.4244ZM59.7473 88.9641H40.2508V80.3803H59.7473V88.9641ZM96.3613 66.3596H29.8816C29.0727 66.3596 28.4168 67.0154 28.4168 67.8244C28.4168 68.6334 29.0727 69.2893 29.8816 69.2893H96.3613V75.0092C96.3613 76.3555 95.2662 77.4506 93.9199 77.4506H6.07812C4.73184 77.4506 3.63672 76.3555 3.63672 75.0092V69.2893H23.0459C23.8549 69.2893 24.5107 68.6334 24.5107 67.8244C24.5107 67.0154 23.8549 66.3596 23.0459 66.3596H3.63672V15.9883C3.63672 15.1805 4.29375 14.5234 5.10156 14.5234H24.0139C21.1355 19.1799 19.4717 24.6625 19.4717 30.5273C19.4717 47.3602 33.1662 61.0547 49.999 61.0547C66.8318 61.0547 80.5264 47.3602 80.5264 30.5273C80.5264 24.6627 78.8625 19.1799 75.9842 14.5236H94.8965C95.7043 14.5236 96.3613 15.1807 96.3613 15.9885V66.3596Z" fill="black"/>
<path d="M19.1641 58.3984H9.78906C8.98008 58.3984 8.32422 59.0543 8.32422 59.8633C8.32422 60.6723 8.98008 61.3281 9.78906 61.3281H19.1641C19.973 61.3281 20.6289 60.6723 20.6289 59.8633C20.6289 59.0543 19.973 58.3984 19.1641 58.3984Z" fill="black"/>
<path d="M9.78906 56.25H13.3047C14.1137 56.25 14.7695 55.5941 14.7695 54.7852C14.7695 53.9762 14.1137 53.3203 13.3047 53.3203H9.78906C8.98008 53.3203 8.32422 53.9762 8.32422 54.7852C8.32422 55.5941 8.98008 56.25 9.78906 56.25Z" fill="black"/>
<path d="M90.2578 58.3984H86.3516C85.5424 58.3984 84.8867 59.0543 84.8867 59.8633C84.8867 60.6723 85.5424 61.3281 86.3516 61.3281H90.2578C91.067 61.3281 91.7227 60.6723 91.7227 59.8633C91.7227 59.0543 91.067 58.3984 90.2578 58.3984Z" fill="black"/>
<path d="M90.2578 53.3203H86.3516C85.5424 53.3203 84.8867 53.9762 84.8867 54.7852C84.8867 55.5941 85.5424 56.25 86.3516 56.25H90.2578C91.067 56.25 91.7227 55.5941 91.7227 54.7852C91.7227 53.9762 91.067 53.3203 90.2578 53.3203Z" fill="black"/>
<path d="M90.2578 48.2422H86.3516C85.5424 48.2422 84.8867 48.898 84.8867 49.707C84.8867 50.516 85.5424 51.1719 86.3516 51.1719H90.2578C91.067 51.1719 91.7227 50.516 91.7227 49.707C91.7227 48.898 91.067 48.2422 90.2578 48.2422Z" fill="black"/>
</g>
<defs>
<clipPath id="clip0_112_1671">
<rect width="100" height="100" fill="white"/>
</clipPath>
</defs>
</svg>
