<?xml version="1.0" encoding="UTF-8"?>
<svg id="Layer_1" data-name="Layer 1" xmlns="http://www.w3.org/2000/svg" xmlns:xlink="http://www.w3.org/1999/xlink" viewBox="0 0 1080 1080">
  <defs>
    <style>
      .cls-1 {
        fill: #fff;
        font-family: Montserrat-Bold, Montserrat;
        font-size: 97.8px;
      }

      .cls-2 {
        letter-spacing: .13em;
      }

      .cls-3, .cls-4 {
        fill: #f15a24;
      }

      .cls-5 {
        letter-spacing: .11em;
      }

      .cls-6 {
        filter: url(#drop-shadow-1);
      }

      .cls-7 {
        letter-spacing: -.04em;
      }

      .cls-8 {
        letter-spacing: -.04em;
      }

      .cls-9 {
        letter-spacing: .1em;
      }

      .cls-10 {
        letter-spacing: .12em;
      }

      .cls-4 {
        font-family: Montserrat-ExtraBold, Montserrat;
        font-size: 158.24px;
      }
    </style>
    <filter id="drop-shadow-1" filterUnits="userSpaceOnUse">
      <feOffset dx="3" dy="6"/>
      <feGaussianBlur result="blur" stdDeviation="15"/>
      <feFlood flood-color="#000" flood-opacity=".75"/>
      <feComposite in2="blur" operator="in"/>
      <feComposite in="SourceGraphic"/>
    </filter>
  </defs>
  <text class="cls-4" transform="translate(35.86 845.53)"><tspan class="cls-8" x="0" y="0">G</tspan><tspan class="cls-7" x="115.51" y="0">Y</tspan><tspan class="cls-8" x="218.36" y="0">MNASIAM</tspan></text>
  <text class="cls-1" transform="translate(363.42 944.81)"><tspan class="cls-5" x="0" y="0">P</tspan><tspan class="cls-10" x="82.35" y="0">R</tspan><tspan class="cls-9" x="165.96" y="0">O</tspan><tspan class="cls-2" x="258.77" y="0">’</tspan><tspan class="cls-10" x="297.11" y="0">S</tspan></text>
  <g class="cls-6">
    <path class="cls-3" d="M795.75,355.52c-3.88-2.73-8.29-4.83-13.13-6.19-11.99-3.37-24.22-1.37-34.17,4.51,0,0,.02-.02,.02-.03-.05,.03-.09,.06-.13,.09-2.53,1.48-3.1,1.82-3.32,2.13,3.09-.34,6.3-.06,9.38,.65,4.23,1.04,8.28,2.86,11.93,5.27,7.34,4.78,13.28,11.63,17.2,19.54,1.89,3.99,3.28,8.25,3.94,12.66,.59,4.41,.57,8.94-.44,13.28-1.84,8.76-7.29,16.22-13.99,21.26,5.09-6.71,8.86-14.13,9.73-21.99,.91-7.82-.74-15.74-4.22-22.8-3.4-7.11-8.55-13.43-14.74-18.47-5.77-4.59-12.64-8.08-20.36-8.65-18,1.18-34.13,13.46-39.3,31.83-4.16,14.8-.19,29.96,9.21,40.73-13.58,6-36.4,14.83-51.27,14.2,0,0-4.17-.48-8.7-.3,5.13-12.18,7.04-25.94,5.37-38.06-1.57-11.42-7.13-20.75-14.92-27.93,2.92-9.59,3.98-19.44,2.96-26.83-2.57-18.61-15.75-30.08-31.2-37.8,.93-8.65,.4-17.01-1.52-23.31-3.3-10.83-10.32-20.76-19.33-27.93,1.16-1.82,3.61-3.32,8.39,2.13l11.38,13.34s13.71,14.97,22.96,3.3l19.5-19.09s9.74,9.06,13.43,5.45c0,0,2.07-8.33,5.64-17.68,3-7.87,16.29-17.67,22.23-25.31,0,0,2.85-3.39,6.27-9.01,3.86-6.35,8.47-15.59,10.46-26.03,1.1-5.84,1.38-12.05,.26-18.37,0,0-.01-5.02-2.9-12.56-2.07-8.32-6.69-16.49-12.43-23.05-17.01-19.42-44.67-27.69-69.97-24.77-28.72,3.32-62.32,48.71-69.45,81.89-5.46,1.39-10.37,2.93-14.06,4.17-6.41,2.15-13.1,4.86-19.61,8.17-14.1-4.68-28.98-7.26-43.79-7.01-17.71,.3-36.59,5.7-51.79,15.72-11.09-.15-22.78,2.96-32.18,6.67-19.4,7.65-36,21.29-46.9,39.13-14.36,23.51-23.75,69.72-8.22,97.91-23.82,13.75-36.73,42.5-38.32,71.49-1.2,21.85,4.36,43.92,10.83,64.6,3.23,10.32,7.7,20.67,9.53,31.35,.37,2.18,.53,4.39,.62,6.6-1.03,5.61-2.45,11.3-4.41,16.92,0,0-2.49,6.19-4.88,13.76-.06,.1-.08,.18-.11,.29l-.02,.05-.04,.13h-.03c-1.16,2.39-2.14,5.13-2.9,7.85-.82,2.9-1.37,5.88-1.64,8.9-.31,3.04-.17,6.1,.28,9.12,.43,3.05,1.47,5.99,2.74,8.84-1.67-2.62-3.18-5.43-4.1-8.51-.92-3.07-1.54-6.26-1.7-9.47-.18-3.24-.04-6.47,.35-9.7,.46-3.26,1.05-6.37,2.12-9.68,0,0-1.22-.57-2.23-.94-27.24-9.53-43.86,18.1-44.6,35.52-.82,20.16,9.61,44.52,27.97,49.72,17.53,4.96,31.32-1.29,36.64-4.48l.03-.02c7.47-3.58,12.53-11.95,13.41-23.45,5.81,8.84,13.73,15.5,23.15,18.15,15.59,4.39,30.22,.18,36.48-1.54,.18-.03,.37-.1,.55-.13,.56-.16,1.05-.28,1.43-.37,2.72-.58,4.17-1.35,4.77-2.36,7.95-5.17,12.83-15.8,12.46-29.87-.04-2.31-.31-4.62-.63-6.93,.59,.45,1.16,.87,1.75,1.33,1.3,1,2.64,1.95,3.98,2.9,.14,.1,.26,.19,.41,.29,.04,.07,.09,.08,.16,.13,1.12,.8,2.27,1.62,3.46,2.41,.07,.05,.14,.1,.22,.15,.96,.67,1.95,1.35,2.95,1.98,.12,.09,.21,.17,.34,.24,1.31,.86,2.62,1.71,3.96,2.55,1.78,1.13,3.59,2.25,5.44,3.34,.24,.15,.49,.31,.74,.44,1.75,1.04,3.55,2.06,5.34,3.05,1.74,.98,3.51,1.91,5.29,2.84,.49,.28,.97,.53,1.48,.76,1.73,.89,3.47,1.75,5.22,2.59,1.54,.75,3.09,1.47,4.65,2.17,.63,.32,1.29,.62,1.96,.9l.46,.21c1.66,.73,3.36,1.43,5.03,2.13,.21,.09,.41,.17,.62,.26h.03c1.75,.73,3.51,1.43,5.27,2.09,.23,.09,.44,.15,.68,.25,.13,.06,.25,.13,.41,.17,1.95,.72,3.88,1.44,5.84,2.1,.26,.1,.52,.2,.78,.28,2.06,.72,4.14,1.4,6.23,2.04,2.21,.71,4.44,1.36,6.7,2,40.69,11.45,81.86,11.49,120.13,2.05-10.2-24.87-28-45.3-42.35-94.23,.56-12.28-21.49-67.41-19.44-82.46,4.77-10.15,3.5-23.15,1.39-25.55,0,0,11.48-10.67,13.29-20.9-.56,5.67-1.89,19.17-1.62,21.86,0,0-6.19,44.44,27,71.7,0,0,10.97,9.65,24.71,8.63,14.72,9.69,36.95,6.48,51.8-3.06,10.78-6.92,19.06-16.08,27.25-25.78,4.25-5.03,9.26-10.13,13.47-15.63,7.75-6.98,15.88-15.07,24.36-24.51,11.58,1.42,22.97-1.92,31.83-8.7,10.2-.52,19.82-4.59,27.22-11.29,5.93-5.34,10.46-12.36,12.77-20.59,5.2-18.47-2.23-37.47-17.17-47.86Zm-396.45,160.82c-6.24,7.37-11.36,15.75-15.43,24.7-.2-.06-.41-.14-.61-.2,.2,.06,.41,.14,.61,.2,0,.01-.01,.02-.02,.03-5.21-1.51-9.05-1.44-12.08-.98-1.26,.19-2.39,.45-3.43,.67-1.06,.08-2.09,.19-3.11,.33-1.34,1.2-2.68,2.58-3.87,3.96-1.67,1.94-3.2,4.01-4.5,6.2-1.26,2.23-2.29,4.58-3,7.08-.65,2.52-.84,5.13-.61,7.78-.69-2.55-.99-5.27-.76-8,.28-2.74,.92-5.43,1.89-8.03,.96-2.6,2.2-5.07,3.62-7.45,1.01-1.67,2.05-3.21,3.27-4.77-.5-3.82-.88-7.73-1.2-11.62,2.02-5.64,4.15-11.29,7.29-16.34,9.1-14.66,15.44-30.84,21.84-46.88,8.31-20.82,7.51-40.46-1.43-57.82,2.65-2.83,6.14-6.95,9.71-12.18,2.43,9.88,5.89,19.38,9.04,27.35,3.97,10.01,9.16,20.36,15.83,29.45-1.92,7.81-5.97,14.88-8.25,22.56-1.76,5.9-4.5,23.3-6.12,35.11-3.19,2.88-6.13,5.84-8.66,8.84Z"/>
  </g>
</svg>