<?xml version="1.0" encoding="UTF-8"?>
<svg id="Layer_1" data-name="Layer 1" xmlns="http://www.w3.org/2000/svg" viewBox="0 0 1080 1080">
  <defs>
    <style>
      .cls-1 {
        fill: #fff;
      }

      .cls-2 {
        fill: #eb0009;
      }

      .cls-3 {
        fill: #1f0001;
        font-size: 158.96px;
      }

      .cls-4 {
        font-family: Montserrat-ExtraBold, Montserrat;
      }

      .cls-5 {
        font-family: OriginalSurfer-Regular, 'Original Surfer';
      }
    </style>
  </defs>
  <path class="cls-2" d="M441.71,554.29c-1.26-12-8.08-15.33-11.77-16.25-1.59-.4-3-1.34-3.9-2.71-14.09-21.3-32.75-38.64-35.07-40.76-.16-.14-.32-.28-.49-.41-63.39-48.14-142.49-35.9-162.05-31.89-2.74,.56-5.52-.69-6.92-3.11l-10.55-18.26c-2.55-4.41-8.94-4.3-11.34,.19l-21.74,40.7c-.6,1.12-1.52,2.04-2.64,2.65-40.72,22.21-66.18,59.56-72.99,70.42-1.19,1.9-3.26,3.05-5.5,3.05h-18.19c-3.79,0-6.78,3.24-6.47,7.02l4.72,57.6c.28,3.37,3.09,5.96,6.47,5.96h19.78c2.31,0,4.42,1.23,5.6,3.22,16.3,27.53,63.69,59.89,79.67,63.36,13.41,2.92,20.47,40.19,22.69,54.45,.49,3.16,3.21,5.49,6.41,5.49h18.75c2.76,0,5.23-1.74,6.13-4.35,3.56-10.31,14.88-35.37,40.95-35.37s31.81,23.4,33.53,34.28c.5,3.14,3.23,5.44,6.4,5.44h19.49c3.36,0,6.17-2.56,6.46-5.91,.6-6.72,5.42-17.54,6.85-23.7,1.94-8.39,9.84-23.71,12.29-26.87,.3-.38,.64-.73,1.01-1.03,55.92-45.71,62.86-99.59,62.12-112.36-.1-1.67,.45-3.29,1.53-4.57,3.32-3.92,10.11-13.63,8.79-26.27Zm-117.44-48.64h-75.36c-3.58,0-6.49-2.91-6.49-6.49v-2.91c0-3.58,2.91-6.49,6.49-6.49h75.36c3.58,0,6.49,2.91,6.49,6.49v2.91c0,3.58-2.91,6.49-6.49,6.49Z"/>
  <g>
    <circle class="cls-2" cx="286.25" cy="384.73" r="44.4" transform="translate(-153.56 575.86) rotate(-76.84)"/>
    <circle class="cls-1" cx="286.25" cy="377" r="44.4" transform="translate(-146.02 569.88) rotate(-76.84)"/>
    <circle class="cls-2" cx="286.25" cy="369.4" r="44.4" transform="translate(-138.63 564.01) rotate(-76.84)"/>
  </g>
  <text class="cls-3" transform="translate(472.22 585.89)"><tspan class="cls-4"><tspan x="0" y="0">Bonus</tspan></tspan><tspan class="cls-5"><tspan x="0" y="117.5">buddy</tspan></tspan></text>
</svg>