<?xml version="1.0" encoding="UTF-8"?>
<svg id="Layer_1" data-name="Layer 1" xmlns="http://www.w3.org/2000/svg" viewBox="0 0 1080 1080">
  <defs>
    <style>
      .cls-1 {
        letter-spacing: -.05em;
      }

      .cls-2 {
        letter-spacing: 0em;
      }

      .cls-3 {
        font-family: Montserrat-Bold, Montserrat;
        font-size: 103.66px;
      }

      .cls-3, .cls-4, .cls-5 {
        fill: #2b2b2b;
      }

      .cls-6 {
        letter-spacing: 0em;
      }

      .cls-7 {
        fill: #a5cb39;
      }

      .cls-8 {
        letter-spacing: 0em;
      }

      .cls-4 {
        font-family: Montserrat-Regular, Montserrat;
        font-size: 49.92px;
      }

      .cls-9 {
        letter-spacing: 0em;
      }

      .cls-10 {
        letter-spacing: -.02em;
      }

      .cls-11 {
        letter-spacing: -.01em;
      }

      .cls-12 {
        letter-spacing: -.04em;
      }

      .cls-13 {
        letter-spacing: 0em;
      }

      .cls-14 {
        letter-spacing: 0em;
      }
    </style>
  </defs>
  <path class="cls-7" d="M347.84,446.8l-97.35-56.2c-5.92-3.41-13.2-3.41-19.11,0l-97.35,56.21h-.01s-72.55,41.9-72.55,41.9c-5.31,3.06-7.24,9.64-4.31,14.7,2.92,5.06,9.59,6.68,14.89,3.62l52.43-30.27v24.6l-95.11,54.91c-5.3,3.06-7.23,9.64-4.31,14.7,2.92,5.06,9.59,6.68,14.89,3.62l84.53-48.8v24.43l-46.67,26.95c-5.3,3.06-7.23,9.64-4.31,14.7,2.92,5.06,9.59,6.68,14.89,3.62l36.09-20.84v1.1c0,3.41,.91,6.7,2.56,9.55,1.65,2.86,4.04,5.29,7,7l1.1,.64-89.7,51.78c-5.3,3.06-7.23,9.64-4.31,14.7,2.92,5.06,9.59,6.68,14.89,3.62l100.28-57.9,21.16,12.22-44.32,25.59c-5.3,3.06-7.23,9.64-4.31,14.7,2.92,5.06,9.59,6.68,14.89,3.62l54.91-31.7,21.16,12.22-52.43,30.27c-5.3,3.06-7.23,9.64-4.31,14.7,2.92,5.07,9.59,6.68,14.89,3.62l100.96-58.29s0,0,0,0l68.95-39.81c5.91-3.41,9.56-9.72,9.56-16.55v-112.4c0-6.82-3.64-13.14-9.56-16.55"/>
  <path class="cls-5" d="M240.93,611.42c-.58,0-1.16-.15-1.68-.45l-76.63-44.25c-1.05-.6-1.69-1.72-1.69-2.92v-88.49c0-1.2,.65-2.32,1.69-2.92,1.04-.61,2.33-.61,3.37,0l76.63,44.24c1.04,.61,1.68,1.72,1.68,2.92v88.49c0,1.2-.64,2.32-1.68,2.92-.52,.3-1.1,.45-1.69,.45m-73.26-49.57l69.89,40.35v-80.7l-69.89-40.35v80.7Z"/>
  <path class="cls-5" d="M240.93,611.42c-.58,0-1.16-.15-1.68-.45l-76.63-44.25c-1.05-.6-1.69-1.72-1.69-2.92v-88.49c0-1.2,.65-2.32,1.69-2.92l76.63-44.24c1.05-.61,2.33-.61,3.37,0l76.63,44.24c1.04,.6,1.69,1.72,1.69,2.92v88.49c0,1.2-.65,2.32-1.69,2.92l-76.63,44.25c-.52,.3-1.1,.45-1.69,.45m-73.26-49.57l73.26,42.31,73.26-42.31v-84.59l-73.26-42.3-73.26,42.3v84.59Z"/>
  <path class="cls-5" d="M240.93,611.42c-.58,0-1.16-.15-1.68-.45-1.04-.61-1.69-1.72-1.69-2.92v-88.49c0-1.2,.65-2.32,1.69-2.92l76.63-44.24c1.05-.61,2.32-.61,3.37,0,1.04,.6,1.68,1.71,1.68,2.92v88.49c0,1.2-.64,2.32-1.68,2.92l-76.63,44.25c-.52,.3-1.1,.45-1.69,.45m3.37-89.91v80.7l69.89-40.36v-80.7l-69.89,40.35Z"/>
  <path class="cls-5" d="M240.94,522.93c-.58,0-1.16-.15-1.68-.45l-76.63-44.25c-1.04-.61-1.69-1.72-1.69-2.92s.65-2.32,1.69-2.92l76.63-44.25c1.05-.6,2.32-.6,3.37,0l76.63,44.25c1.05,.6,1.69,1.71,1.69,2.92s-.64,2.32-1.69,2.92l-76.63,44.25c-.52,.3-1.11,.45-1.69,.45m-69.89-47.62l69.89,40.35,69.89-40.35-69.89-40.35-69.89,40.35Z"/>
  <path class="cls-5" d="M240.94,522.93c-.58,0-1.16-.15-1.69-.45l-39.11-22.58c-1.04-.61-1.68-1.72-1.68-2.92s.65-2.32,1.68-2.92l39.11-22.58c1.05-.61,2.33-.61,3.37,0l39.11,22.58c1.04,.6,1.69,1.72,1.69,2.92s-.65,2.31-1.69,2.92l-39.11,22.58c-.52,.3-1.1,.45-1.68,.45m-32.36-25.96l32.36,18.69,32.36-18.69-32.36-18.69-32.36,18.69Z"/>
  <polygon class="cls-5" points="164.3 475.31 149.2 517.73 225.83 561.97 240.93 519.56 164.3 475.31"/>
  <path class="cls-5" d="M225.83,565.34c-.58,0-1.17-.16-1.68-.45l-76.63-44.24c-1.41-.81-2.03-2.52-1.49-4.05l15.1-42.42c.34-.94,1.07-1.69,2.01-2.03,.94-.35,1.98-.25,2.85,.25l76.63,44.24c1.41,.81,2.04,2.52,1.49,4.05l-15.1,42.41c-.34,.94-1.07,1.68-2.01,2.03-.38,.14-.77,.2-1.17,.2m-72.51-49.13l70.69,40.82,12.81-35.95-70.7-40.82-12.8,35.96Z"/>
  <polygon class="cls-5" points="317.57 475.31 332.67 517.73 256.04 561.97 240.94 519.56 317.57 475.31"/>
  <path class="cls-5" d="M256.04,565.34c-.39,0-.79-.07-1.17-.21-.94-.34-1.68-1.09-2.01-2.03l-15.1-42.41c-.55-1.54,.08-3.24,1.49-4.05l76.63-44.24c.87-.5,1.92-.6,2.85-.25,.94,.35,1.68,1.09,2.02,2.03l15.1,42.42c.55,1.53-.08,3.23-1.49,4.05l-76.63,44.25c-.52,.3-1.1,.45-1.68,.45m-10.99-44.27l12.8,35.95,70.7-40.82-12.8-35.96-70.7,40.82Z"/>
  <text class="cls-3" transform="translate(380.41 534.4)"><tspan x="0" y="0">Deli</tspan><tspan class="cls-11" x="213.43" y="0">v</tspan><tspan x="273.96" y="0">e</tspan><tspan class="cls-12" x="339.37" y="0">r</tspan><tspan x="380" y="0">ables</tspan></text>
  <text class="cls-4" transform="translate(383.32 582.88)"><tspan x="0" y="0">Reloca</tspan><tspan class="cls-10" x="168.53" y="0">t</tspan><tspan x="187.85" y="0">e</tspan><tspan class="cls-8" x="218.01" y="0">,</tspan><tspan class="cls-9" x="228.24" y="0">t</tspan><tspan class="cls-1" x="248.51" y="0">r</tspan><tspan class="cls-14" x="266.23" y="0">ans</tspan><tspan class="cls-2" x="353.79" y="0">f</tspan><tspan x="370.31" y="0">e</tspan><tspan class="cls-13" x="400.47" y="0">r</tspan><tspan x="420.04" y="0">,</tspan><tspan class="cls-6" x="430.62" y="0">p</tspan><tspan x="464.32" y="0">a</tspan><tspan class="cls-8" x="493.77" y="0">c</tspan><tspan x="521.53" y="0">king</tspan></text>
</svg>