<?xml version="1.0" encoding="UTF-8"?>
<svg id="Layer_1" data-name="Layer 1" xmlns="http://www.w3.org/2000/svg" viewBox="0 0 1080 1080">
  <defs>
    <style>
      .cls-1 {
        fill: #262626;
      }

      .cls-2 {
        fill: #2d2d2d;
      }

      .cls-3 {
        fill: #383838;
      }
    </style>
  </defs>
  <path class="cls-1" d="M998.58,295.15v489.7c0,12.35-6.57,23.7-17.22,29.88l-424.11,244.87c-4.74,2.74-9.96,4.26-15.27,4.52-6.61,.39-13.31-1.13-19.22-4.52l-107.69-62.2-168.54-97.3c-19.7-103.73,113.39-229.78,113.39-229.78,71.11-26.36,201.9-113.56,201.9-113.56l-29.23,87.94-21.83,65.76,36.06-20.66,10.96-6.26,140.53-209.38,173.24-103.21s44.71-28.1,34.4-52.19c-10.35-24.1-74.98-2.44-74.98-2.44-55.5-27.53-185.98,81.86-202.64,90.16-16.61,8.35-152.71,35.45-152.71,35.45l-17.96,15.66-18.31,16.01,72.33,9,5.96,.74-2.44,1.61-160.45,106.82-85.47-12.05-45.89,29.84,64.24,36.1s-6.31,7.48-107.82,5.18c-57.54-1.3-85.03-19.75-98.38-36.75V295.15c0-5.52,1.35-10.92,3.78-15.7,2.96-5.83,7.61-10.79,13.44-14.18L522.75,20.45c10.66-6.18,23.83-6.18,34.49,0l424.11,244.83c10.66,6.18,17.22,17.57,17.22,29.88Z"/>
  <path class="cls-2" d="M269.27,579.73l-45.89,29.84,64.24,36.1s-6.31,7.48-107.82,5.18c-57.54-1.3-85.03-19.75-98.38-36.75V295.15c0-5.52,1.35-10.92,3.78-15.7,52.76,60.02,179.02,169.45,372.44,178.15l-18.31,16.01,72.33,9,3.52,2.35-160.45,106.82-85.47-12.05Z"/>
  <path class="cls-2" d="M546.81,689.82c-24.84,77.07-68.85,252.05-4.83,374.31-6.61,.39-13.31-1.13-19.22-4.52l-276.23-159.49c-19.7-103.73,113.39-229.78,113.39-229.78,71.11-26.36,201.9-113.56,201.9-113.56l-51.06,153.71,36.06-20.66Z"/>
  <path class="cls-3" d="M179.8,650.85c-57.54-1.3-85.03-19.75-98.38-36.75v-200.81c55.72,48.19,188.55,125.35,433.77,71.68l-160.45,106.82-85.47-12.05-45.89,29.84,64.24,36.1s-6.31,7.48-107.82,5.18Z"/>
  <path class="cls-3" d="M532.58,644.71c-37.01,43.62-122.78,165.32-117.52,352.69l-168.54-97.3c-19.7-103.73,113.39-229.78,113.39-229.78,71.11-26.36,201.9-113.56,201.9-113.56l-29.23,87.94Z"/>
</svg>