<svg id="_x30_20-ar_app" enable-background="new 0 0 512 512" height="512" viewBox="0 0 512 512" width="512" xmlns="http://www.w3.org/2000/svg"><path d="m192 486.7h47.1c4.2 0 7.6-3.4 7.6-7.6s-3.4-7.6-7.6-7.6h-47.1c-4.2 0-7.6 3.4-7.6 7.6s3.4 7.6 7.6 7.6zm35.4-237.5c-4.2 0-7.7 3.4-7.7 7.7v15c0 4.2 3.4 7.7 7.7 7.7s7.7-3.4 7.7-7.7v-15c0-4.3-3.4-7.7-7.7-7.7zm0 38.6c-4.2 0-7.7 3.4-7.7 7.7v15c0 4.2 3.4 7.7 7.7 7.7s7.7-3.4 7.7-7.7v-15c0-4.2-3.4-7.7-7.7-7.7zm-80.1-88.8 13.6 5.9c1 .4 2 .6 3 .6 3 0 5.8-1.7 7.1-4.6 1.7-3.9-.1-8.4-4-10.1l-13.6-5.9c-3.9-1.7-8.4.1-10.1 4-1.6 3.9.1 8.4 4 10.1zm34.9 15.1 13.6 5.9c1 .4 2 .6 3 .6 3 0 5.8-1.7 7.1-4.6 1.7-3.9-.1-8.4-4-10.1l-13.6-5.9c-3.9-1.7-8.4.1-10.1 4s.1 8.4 4 10.1zm48.3 4.1-7.3-3.2c-3.9-1.7-8.4.1-10.1 4-.7 1.6-.8 3.3-.4 4.9l-3 1.3c-3.9 1.7-5.7 6.2-4 10.1 1.3 2.9 4.1 4.6 7 4.6 1 0 2.1-.2 3.1-.6l5-2.2c1.3 2.3 3.8 3.8 6.6 3.8 4.2 0 7.7-3.4 7.7-7.7v-8c0-3-1.8-5.8-4.6-7zm-38.6-118.8h47.1c4.2 0 7.6-3.4 7.6-7.6s-3.4-7.6-7.6-7.6h-47.1c-4.2 0-7.6 3.4-7.6 7.6s3.4 7.6 7.6 7.6zm-32.8 156.3c-1.7-3.9-6.2-5.7-10.1-4l-14.6 6.4c-3.9 1.7-5.7 6.2-4 10.1 1.3 2.9 4.1 4.6 7 4.6 1 0 2.1-.2 3.1-.6l14.6-6.4c3.9-1.6 5.7-6.2 4-10.1zm284.7 79c4.2 0 7.6-3.4 7.6-7.6s-3.4-7.6-7.6-7.6h-6.7c-4.2 0-7.6 3.4-7.6 7.6s3.4 7.6 7.6 7.6zm-69.8 52.2h43.5c4.2 0 7.6-3.4 7.6-7.6s-3.4-7.6-7.6-7.6h-43.5c-4.2 0-7.6 3.4-7.6 7.6s3.4 7.6 7.6 7.6zm0-52.1h43.5c4.2 0 7.6-3.4 7.6-7.6s-3.4-7.6-7.6-7.6h-43.5c-4.2 0-7.6 3.4-7.6 7.6s3.4 7.6 7.6 7.6zm63.2 52.1h6.7c4.2 0 7.6-3.4 7.6-7.6s-3.4-7.6-7.6-7.6h-6.7c-4.2 0-7.6 3.4-7.6 7.6s3.4 7.6 7.6 7.6zm-275.5-24.2-13.3 5.9c-3.9 1.7-5.6 6.2-3.9 10.1 1.9 4.2 6.7 5.6 10.1 3.9l13.3-5.9c3.9-1.7 5.6-6.2 3.9-10.1-1.6-3.9-6.2-5.6-10.1-3.9zm212.3-1.8h6.7c4.2 0 7.6-3.4 7.6-7.6s-3.4-7.6-7.6-7.6h-6.7c-4.2 0-7.6 3.4-7.6 7.6s3.4 7.6 7.6 7.6zm77.4-7.7c0-4.2-3.4-7.6-7.6-7.6h-43.5c-4.2 0-7.6 3.4-7.6 7.6s3.4 7.6 7.6 7.6h43.5c4.2 0 7.6-3.4 7.6-7.6zm-254.7-113.9c-1.7-3.9-6.2-5.7-10.1-4l-14.6 6.4c-3.9 1.7-5.7 6.2-4 10.1 1.3 2.9 4.1 4.6 7 4.6 1 0 2.1-.2 3.1-.6l14.6-6.4c3.9-1.7 5.7-6.2 4-10.1zm295.4-230.4c-5.8-5.7-13.4-8.9-21.5-8.9l-160.5.1c-16.7 0-30.4 13.6-30.4 30.4v25.1l-162.9.1c-16.3 0-29.5 13.2-29.5 29.5v102l-71.6 31.3c-2.1.9-3.6 2.7-4.3 4.8-.4 1.2-.4-6-.3 119.1 0 3.1 1.8 5.8 4.6 7l71.6 31.3v101.8c0 16.3 13.2 29.5 29.5 29.5l200.4-.1c4.6 0 8.9-1.1 12.8-2.9 9.9-4.8 16.7-14.9 16.7-26.6v-68.9h97.7c4.2 0 7.6-3.4 7.6-7.6s-3.4-7.6-7.6-7.6h-97.7l-.1-247.5c.6 0 1.1-.1 1.7-.1l122.2-.1c8.1 0 15.7-3.2 21.5-8.9 5.7-5.7 8.9-13.4 8.9-21.5l.1-89.8c0-8.1-3.2-15.7-8.9-21.5zm-404.7 355-60.8-26.6v-99.8l60.8 26.7zm.1-116.5-49.8-21.8 49.8-21.7zm244.2 235c.1 7.9-6.3 14.4-14.2 14.4-215.4 0-201.1.1-201.9-.1-7.2-.7-12.9-6.8-12.9-14.2v-21.1l229-.1zm.1-36-229 .1-.1-59.1c16.6 7.2 18.8 9.4 23.6 7.7l7.3-3.2c3.9-1.7 5.6-6.2 3.9-10.1s-6.2-5.6-10.1-3.9l-4.2 1.9-20.5-9.1v-99.7l8.7 3.8c1 .4 2 .6 3.1.6 3 0 5.8-1.7 7-4.6 1.7-3.9-.1-8.4-4-10.1l-14.6-6.4c-.1 0-.1-.1-.2-.1v-57l19.3-9.1c3 1.2 4.5 2.4 7.1 2.4 8.4 0 10.7-11.4 3.1-14.7l-7.3-3.2c-.1 0-3.1-1.3-6.4.2l-15.9 7.5v-95c0-7.9 6.4-14.3 14.3-14.3l162.9-.1v112.2c0 2.9 1.6 5.4 4.2 6.7h.1c3.2 1.3 5.9.7 7.8-1.1l35.1-29.9c1.4-1.2 3-2.3 4.6-3.3l.1 242.9h-83.5l-32.2-46.4c4.9 3.2 9.4-1 14.5-2.7 2.8-1.2 4.6-4 4.6-7v-8c0-4.2-3.5-7.8-7.8-7.7s-7.6 3.8-7.6 8v2.7l-2.7 1.2c-3.4 1.5-5.1 5.1-4.4 8.6l-16.8-24.3c-2.4-3.4-7.1-4.3-10.5-1.9-3.5 2.4-4.3 7.1-1.9 10.6l11.7 16.7-12.2 5.4c-3.9 1.7-5.6 6.2-3.9 10.1 1.9 4.2 6.7 5.6 10.1 3.9l13.3-5.9c.5-.2 1-.5 1.5-.9l34.3 49.5c1.4 2 3.7 3.3 6.2 3.3h87.5v32.8zm155.1-326c0 4.3-1.7 8.3-4.7 11.4-3.1 3.1-7.2 4.8-11.5 4.8l-122.2.1c-15.7 0-25.7 7.1-30.6 11.3l-24 20.4-.1-137.9c0-9 7.3-16.3 16.3-16.3l160.5-.1c4.3 0 8.4 1.7 11.5 4.8s4.8 7.2 4.8 11.5zm-59.1-88.1h-19.3c-3.9 0-7 3.1-7 7v72c0 3.9 3.1 7 7 7s7-3.1 7-7v-23.1h8.5l16.9 26.8c1.3 2.1 3.6 3.3 5.9 3.3 1.3 0 2.6-.3 3.7-1.1 3.3-2.1 4.3-6.4 2.2-9.7l-13.8-21.9c8.8-4.2 14.8-13.1 14.8-23.4v-4c0-14.3-11.6-25.9-25.9-25.9zm11.9 29.9c0 6.6-5.4 11.9-11.9 11.9h-12.3v-27.8h12.3c6.6 0 11.9 5.4 11.9 11.9zm-74.8-25.5c-1.1-2.8-3.8-4.5-6.6-4.5s-5.5 1.7-6.6 4.5l-27.7 71.3c-1.4 3.6.4 7.7 4 9.1.8.3 1.7.5 2.5.5 2.8 0 5.5-1.7 6.5-4.5l7.7-19.8h27.1l7.7 19.8c1.1 2.8 3.7 4.5 6.5 4.5.8 0 1.7-.2 2.5-.5 3.6-1.4 5.4-5.5 4-9.1zm-14.7 42.5 8.1-20.8 8.1 20.8z"/></svg>