<svg width="100" height="100" viewBox="0 0 100 100" fill="none" xmlns="http://www.w3.org/2000/svg">
<path d="M41.8809 28.434C34.9253 28.434 29.2663 34.093 29.2663 41.0486C29.2663 48.0045 34.9253 53.6633 41.8809 53.6633C48.8366 53.6633 54.4956 48.0043 54.4956 41.0486C54.4956 34.093 48.8366 28.434 41.8809 28.434ZM41.8809 50.5383C36.6483 50.5383 32.3913 46.2813 32.3913 41.0486C32.3913 35.816 36.6483 31.559 41.8809 31.559C47.1136 31.559 51.3706 35.816 51.3706 41.0486C51.3706 46.2813 47.1136 50.5383 41.8809 50.5383ZM46.9792 38.16L44.0905 41.0486L46.9792 43.9373C47.5893 44.5475 47.5893 45.5367 46.9792 46.1469C46.6741 46.452 46.2743 46.6045 45.8743 46.6045C45.4743 46.6045 45.0745 46.452 44.7694 46.1469L41.8809 43.2582L38.9925 46.1469C38.3821 46.757 37.393 46.757 36.7827 46.1469C36.1725 45.5367 36.1725 44.5475 36.7827 43.9373L39.6714 41.0486L36.7827 38.16C36.1725 37.5498 36.1725 36.5605 36.7827 35.9504C37.393 35.3402 38.3821 35.3402 38.9925 35.9504L41.8809 38.8391L44.7694 35.9504C45.3798 35.3402 46.3688 35.3402 46.9792 35.9504C47.5893 36.5605 47.5893 37.5498 46.9792 38.16ZM80.0067 83.7244H77.5399V50.3783C77.5399 48.8238 76.2751 47.5592 74.7206 47.5592H67.9907C66.4362 47.5592 65.1714 48.8238 65.1714 50.3783V83.7244H62.7048C61.8407 83.7244 61.0788 84.2113 60.7161 84.9947C60.3534 85.7783 60.4755 86.6744 61.0346 87.3332L69.6854 97.5221C70.1024 98.0131 70.711 98.2947 71.3554 98.2947C71.9997 98.2947 72.6085 98.0133 73.0257 97.5221L81.6766 87.3332C82.2358 86.6744 82.3579 85.7785 81.9952 84.9949C81.6327 84.2113 80.8708 83.7244 80.0067 83.7244ZM71.3557 94.6607L64.7235 86.8494H66.7341C67.5969 86.8494 68.2966 86.1498 68.2966 85.2869V50.684H74.4149V85.2869C74.4149 86.1498 75.1145 86.8494 75.9774 86.8494H77.9882L71.3557 94.6607ZM21.0569 68.5641H18.5903V50.3783C18.5903 48.8238 17.3255 47.559 15.771 47.559H9.04109C7.4866 47.559 6.22175 48.8236 6.22175 50.3783V68.5641H3.75535C2.89109 68.5641 2.12918 69.051 1.76629 69.835C1.40398 70.6187 1.52625 71.5148 2.08523 72.1729L10.736 82.3617C11.1528 82.8527 11.7614 83.1344 12.4057 83.1344H12.4061C13.0505 83.1344 13.6591 82.8529 14.0762 82.3617L22.7266 72.1732C23.286 71.5146 23.4083 70.6187 23.046 69.835C22.6831 69.051 21.921 68.5641 21.0569 68.5641ZM13.1182 80.3391L13.1167 80.3373C13.1173 80.3381 13.1178 80.3387 13.1182 80.3391C13.1182 80.3393 13.1182 80.3393 13.1182 80.3391ZM12.4061 79.5004L5.7739 71.6891H7.78445C8.64734 71.6891 9.34695 70.9894 9.34695 70.1266V50.6842H15.4653V70.1266C15.4653 70.9894 16.1649 71.6891 17.0278 71.6891H19.0384L12.4061 79.5004ZM97.3503 30.4051L83.1087 5.73809C81.6507 3.2127 79.0397 1.70508 76.1235 1.70508C73.2075 1.70508 70.5962 3.2127 69.1382 5.73789L59.1653 23.0111L57.3011 21.1469C56.8436 20.6896 56.1528 20.5613 55.5618 20.8238L52.496 22.1857C50.9843 21.3332 49.3811 20.6686 47.7122 20.2025L46.5077 17.0734C46.2757 16.4701 45.696 16.0723 45.0495 16.0723H38.7122C38.0657 16.0723 37.4862 16.4703 37.254 17.0734L36.0491 20.2035C34.3809 20.6693 32.7786 21.3338 31.2671 22.1861L28.1997 20.8238C27.6089 20.5611 26.9178 20.6896 26.4606 21.1469L21.9796 25.6279C21.5225 26.085 21.3942 26.7762 21.6565 27.367L23.0184 30.4332C22.1659 31.9449 21.5012 33.5479 21.0354 35.217L17.9063 36.4213C17.303 36.6535 16.905 37.2332 16.905 37.8795V44.2168C16.905 44.8633 17.303 45.4428 17.9061 45.675L21.0358 46.8797C21.5016 48.548 22.1661 50.1508 23.0186 51.6623L21.6563 54.7295C21.394 55.3201 21.5223 56.0115 21.9794 56.4686L26.4604 60.9498C26.9177 61.4068 27.6087 61.5355 28.1995 61.2729L31.2669 59.9105C32.6714 60.7025 34.1553 61.3301 35.6966 61.7889V76.1437H33.23C32.3659 76.1437 31.604 76.6307 31.2413 77.4143C30.8786 78.1978 31.0007 79.0939 31.5598 79.7525L40.2106 89.9414C40.6276 90.4324 41.2362 90.7141 41.8805 90.7141C42.5249 90.7141 43.1337 90.4326 43.5509 89.9414L52.2012 79.7529C52.7606 79.0943 52.8831 78.1984 52.5206 77.4146C52.1579 76.6307 51.3958 76.1437 50.5317 76.1437H48.0649V61.7889C49.6061 61.3301 51.0899 60.7025 52.4946 59.9105L55.562 61.2729C56.1524 61.5352 56.8438 61.4068 57.3009 60.9498L61.7821 56.4687C62.2393 56.0117 62.3677 55.3205 62.1053 54.7297L60.7434 51.6633C61.5958 50.1518 62.2604 48.5486 62.7264 46.8797L65.8555 45.6752C66.4587 45.4432 66.8567 44.8635 66.8567 44.217V42.5037H90.3645C93.2805 42.5037 95.8919 40.9961 97.3501 38.4707C98.8081 35.9457 98.8081 32.9305 97.3503 30.4051ZM48.5132 79.2691L41.8809 87.0805L35.2487 79.2691H37.2593C38.1221 79.2691 38.8218 78.5695 38.8218 77.7066V66.0246H44.9401V77.7066C44.9401 78.5695 45.6397 79.2691 46.5026 79.2691H48.5132ZM63.7321 43.1445L60.8544 44.2521C60.3735 44.4371 60.0149 44.8473 59.8958 45.3486C59.4419 47.2555 58.6893 49.0707 57.6593 50.7438C57.3889 51.1826 57.3526 51.7264 57.5616 52.1973L58.8143 55.0178L55.8503 57.9816L53.0286 56.7285C52.5581 56.5195 52.0139 56.5557 51.5753 56.826C49.902 57.8563 48.0874 58.6086 46.1817 59.0621C45.6805 59.1814 45.2702 59.54 45.0852 60.0209L43.977 62.8996H39.7854L38.6772 60.0209C38.4923 59.54 38.0819 59.1814 37.5807 59.0621C35.6751 58.6086 33.8604 57.8563 32.1872 56.826C31.7481 56.5557 31.2044 56.5195 30.7339 56.7285L27.9122 57.9816L24.9483 55.0176L26.2012 52.1963C26.4102 51.7254 26.3739 51.1816 26.1036 50.7428C25.0735 49.0697 24.321 47.2549 23.8673 45.3486C23.7481 44.8475 23.3895 44.4373 22.9087 44.2523L20.0303 43.1443V38.9527L22.9081 37.8451C23.3891 37.66 23.7477 37.2498 23.8671 36.7484C24.3206 34.8414 25.0731 33.0264 26.1034 31.3533C26.3737 30.9145 26.41 30.3707 26.201 29.8998L24.9483 27.0793L27.9122 24.1154L30.7339 25.3686C31.2044 25.5775 31.7485 25.5414 32.1872 25.2711C33.8602 24.241 35.6749 23.4887 37.5809 23.035C38.0819 22.9156 38.4923 22.557 38.6772 22.0762L39.7854 19.1975H43.977L45.0848 22.0752C45.2698 22.5561 45.6802 22.9148 46.1813 23.034C48.0882 23.4877 49.9034 24.2402 51.5764 25.2705C52.0155 25.541 52.5593 25.5773 53.0302 25.3682L55.8503 24.1154L57.5479 25.8133L54.897 30.4051C53.4388 32.9305 53.4388 35.9457 54.897 38.4711C56.355 40.9965 58.9663 42.5041 61.8823 42.5041H63.7323V43.1445H63.7321ZM94.644 36.9086C93.7509 38.4555 92.151 39.3791 90.3649 39.3791H61.8821C60.0958 39.3791 58.4962 38.4555 57.603 36.9086C56.71 35.3617 56.71 33.5146 57.603 31.9676L71.8444 7.30078C72.7376 5.75391 74.3374 4.83047 76.1235 4.83047C77.9096 4.83047 79.5094 5.75391 80.4022 7.30078H80.4024L94.6438 31.9676C95.5368 33.5145 95.5368 35.3617 94.644 36.9086ZM76.1235 30.3004C74.0593 30.3004 72.3798 31.9797 72.3798 34.0439C72.3798 36.1082 74.0593 37.7875 76.1235 37.7875C78.1876 37.7875 79.8671 36.108 79.8671 34.0439C79.8671 31.9799 78.1876 30.3004 76.1235 30.3004ZM76.1235 34.6627C75.7823 34.6627 75.5048 34.3852 75.5048 34.0441C75.5048 33.7031 75.7823 33.4256 76.1235 33.4256C76.4645 33.4256 76.7421 33.7031 76.7421 34.0441C76.7421 34.3852 76.4645 34.6627 76.1235 34.6627ZM76.1235 29.532C77.8895 29.532 79.3227 28.1494 79.3864 26.3848L79.8169 14.4666C79.8493 13.5598 79.5337 12.7354 78.9038 12.0824C78.2737 11.4295 77.4612 11.0842 76.5538 11.0842H75.693C74.7854 11.0842 73.9725 11.4295 73.3432 12.0824C72.713 12.7357 72.3973 13.5602 72.4302 14.467L72.8604 26.3848C72.9241 28.1494 74.3573 29.532 76.1235 29.532ZM75.5925 14.2516C75.6307 14.2119 75.6374 14.2092 75.693 14.2092H76.5538C76.6095 14.2092 76.6161 14.2119 76.6548 14.252C76.6932 14.292 76.696 14.2986 76.6938 14.3541L76.2634 26.2721C76.2606 26.3479 76.1993 26.407 76.1235 26.407C76.0477 26.407 75.9862 26.3479 75.9835 26.2721L75.5532 14.3541C75.551 14.2984 75.5536 14.2918 75.5925 14.2516Z" fill="black"/>
</svg>
