<svg height="512" viewBox="0 0 32 32" width="512" xmlns="http://www.w3.org/2000/svg"><g id="_x30_2"><path d="m11 17c.1533203 0 .3066406-.0351563.4472656-.1054688l4-2c.3388672-.1694335.5527344-.5156249.5527344-.8945312v-4c0-.3789063-.2138672-.7250977-.5527344-.8945313l-4-2c-.28125-.140625-.6132813-.140625-.8945313 0l-4 2c-.3388671.1694336-.5527343.5156251-.5527343.8945313v4c0 .3789063.2138672.7250977.5527344.8945313l4 2c.140625.0703125.2939453.1054687.4472656.1054687zm1-2.6181641v-1.7636719l2-1v1.7636719zm-1-5.2636718 1.7641602.8818359-1.7641602.8818359-1.7641602-.8818359zm-3 2.5 2 1v1.7636719l-2-1z"/><path d="m26 18h-6v-13c0-1.6542969-1.3457031-3-3-3h-12c-1.6542969 0-3 1.3457031-3 3v22c0 1.6542969 1.3457031 3 3 3h2c.5522461 0 1-.4477539 1-1s-.4477539-1-1-1h-2c-.5512695 0-1-.4487305-1-1v-22c0-.5512695.4487305-1 1-1h4c0 1.1030273.8969727 2 2 2s2-.8969727 2-2h4c.5512695 0 1 .4487305 1 1v13h-6c-2.2055664 0-4 1.7944336-4 4v4c0 2.2055664 1.7944336 4 4 4h3c1.3037109 0 2.4160156-.8359375 2.8286133-2h2.3427734c.4125977 1.1640625 1.5249024 2 2.8286133 2h3c2.2055664 0 4-1.7944336 4-4v-4c0-2.2055664-1.7944336-4-4-4zm2 8c0 1.1030273-.8969727 2-2 2h-3c-.5512695 0-1-.4487305-1-1 0-.5522461-.4477539-1-1-1h-4c-.5522461 0-1 .4477539-1 1 0 .5512695-.4487305 1-1 1h-3c-1.1030273 0-2-.8969727-2-2v-4c0-1.1030273.8969727-2 2-2h14c1.1030273 0 2 .8969727 2 2z"/><path d="m24 21h-1c-.5522461 0-1 .4477539-1 1s.4477539 1 1 1h1c.5512695 0 1 .4487305 1 1 0 .5522461.4477539 1 1 1s1-.4477539 1-1c0-1.6542969-1.3457031-3-3-3z"/></g></svg>