<svg width="100" height="100" viewBox="0 0 100 100" fill="none" xmlns="http://www.w3.org/2000/svg">
<g clip-path="url(#clip0_112_1726)">
<path d="M98.4343 79.0566H86.5306V48.6207H98.4343C98.6413 48.623 98.8468 48.5842 99.0388 48.5066C99.2307 48.429 99.4054 48.314 99.5526 48.1684C99.6999 48.0228 99.8168 47.8494 99.8965 47.6584C99.9763 47.4673 100.017 47.2622 100.017 47.0552C100.017 46.8481 99.9763 46.6431 99.8965 46.452C99.8168 46.2609 99.6999 46.0875 99.5526 45.9419C99.4054 45.7963 99.2307 45.6814 99.0388 45.6038C98.8468 45.5261 98.6413 45.4873 98.4343 45.4896H86.1358C85.4104 45.4904 84.7149 45.7789 84.2019 46.2919C83.6889 46.8048 83.4004 47.5003 83.3995 48.2258V49.5188H76.1823C75.859 49.519 75.5417 49.4312 75.2644 49.2648L56.1189 37.7777C54.9667 37.0862 53.6483 36.7208 52.3046 36.7207H39.7151C38.5865 36.7236 37.4738 36.9875 36.4641 37.4919C35.4544 37.9962 34.5751 38.7273 33.8948 39.6279L26.5538 49.2814H16.6003V48.2258C16.5995 47.5003 16.3109 46.8048 15.7979 46.2919C15.2849 45.7789 14.5894 45.4904 13.864 45.4896H1.56553C1.35847 45.4873 1.15301 45.5261 0.961046 45.6038C0.769079 45.6814 0.59442 45.7963 0.447183 45.9419C0.299945 46.0875 0.183054 46.2609 0.103277 46.452C0.0234996 46.6431 -0.0175781 46.8481 -0.0175781 47.0552C-0.0175781 47.2622 0.0234996 47.4673 0.103277 47.6584C0.183054 47.8494 0.299945 48.0228 0.447183 48.1684C0.59442 48.314 0.769079 48.429 0.961046 48.5066C1.15301 48.5842 1.35847 48.623 1.56553 48.6207H13.4692V79.0566H1.56553C1.35847 79.0543 1.15301 79.0931 0.961046 79.1708C0.769079 79.2484 0.59442 79.3633 0.447183 79.5089C0.299945 79.6545 0.183054 79.8279 0.103277 80.019C0.0234996 80.2101 -0.0175781 80.4151 -0.0175781 80.6222C-0.0175781 80.8292 0.0234996 81.0343 0.103277 81.2253C0.183054 81.4164 0.299945 81.5898 0.447183 81.7354C0.59442 81.881 0.769079 81.9959 0.961046 82.0736C1.15301 82.1512 1.35847 82.19 1.56553 82.1877H13.864C14.5894 82.1869 15.285 81.8983 15.7979 81.3853C16.3109 80.8724 16.5995 80.1768 16.6003 79.4514V75.4016H19.0128C18.86 76.4004 18.9967 77.4221 19.4069 78.3455C19.817 79.269 20.4833 80.0554 21.3269 80.6117C21.6736 80.8401 22.0968 80.9215 22.5035 80.8378C22.9102 80.7541 23.267 80.5123 23.4954 80.1656C23.7238 79.8189 23.8052 79.3956 23.7215 78.989C23.6378 78.5823 23.396 78.2255 23.0493 77.9971C22.5741 77.684 22.2427 77.195 22.1281 76.6376C22.0134 76.0802 22.1248 75.5001 22.4378 75.0248L23.8483 72.8836C24.1627 72.4114 24.6512 72.0829 25.2071 71.9699C25.763 71.857 26.341 71.9687 26.8147 72.2807C27.2885 72.5928 27.6194 73.0797 27.7351 73.635C27.8508 74.1903 27.7418 74.7689 27.4321 75.2441L26.0214 77.3855C25.2531 78.5547 24.98 79.9809 25.2619 81.3511C25.5438 82.7214 26.3578 83.9239 27.5253 84.6947C27.872 84.9231 28.2953 85.0045 28.702 84.9208C29.1086 84.8371 29.4654 84.5954 29.6939 84.2486C29.9223 83.9019 30.0036 83.4786 29.9199 83.072C29.8363 82.6653 29.5945 82.3085 29.2478 82.0801C28.7731 81.7666 28.4422 81.2776 28.3276 80.7205C28.213 80.1633 28.324 79.5834 28.6362 79.108L30.0468 76.9668C30.3615 76.4957 30.8498 76.1682 31.4051 76.0558C31.9603 75.9433 32.5375 76.055 33.0108 76.3665C33.484 76.6781 33.8148 77.1641 33.931 77.7186C34.0472 78.2731 33.9394 78.851 33.6312 79.3264L32.2206 81.4678C31.4524 82.637 31.1792 84.0631 31.4612 85.4334C31.7431 86.8037 32.5571 88.0062 33.7245 88.7771C33.8962 88.8919 34.0889 88.9716 34.2914 89.0115C34.494 89.0515 34.7025 89.051 34.9049 89.0101C35.1073 88.9692 35.2996 88.8886 35.4707 88.7731C35.6419 88.6575 35.7884 88.5092 35.902 88.3368C36.0156 88.1643 36.094 87.9711 36.1326 87.7683C36.1712 87.5655 36.1693 87.357 36.127 87.1549C36.0847 86.9527 36.0028 86.761 35.8861 86.5906C35.7694 86.4203 35.6202 86.2747 35.447 86.1623C34.9724 85.8487 34.6415 85.3598 34.5269 84.8026C34.4123 84.2455 34.5234 83.6656 34.8356 83.1902L36.2462 81.0488C36.5591 80.5735 37.048 80.242 37.6054 80.1271C38.1628 80.0123 38.743 80.1236 39.2183 80.4365C39.6936 80.7494 40.0251 81.2384 40.14 81.7957C40.2548 82.3531 40.1435 82.9333 39.8306 83.4086L38.4179 85.552C37.6496 86.7211 37.3765 88.1473 37.6585 89.5176C37.9404 90.8879 38.7544 92.0904 39.9218 92.8613C40.2685 93.0864 40.6902 93.1652 41.0949 93.0805C41.4995 92.9958 41.8542 92.7546 42.0816 92.4093C42.309 92.0641 42.3907 91.643 42.3087 91.2378C42.2268 90.8326 41.9879 90.4762 41.6442 90.2465C41.1697 89.9329 40.8388 89.444 40.7242 88.8868C40.6096 88.3297 40.7206 87.7498 41.0329 87.2744L42.4435 85.133C42.7565 84.6578 43.2456 84.3264 43.803 84.2118C44.3604 84.0971 44.9405 84.2086 45.4157 84.5217C45.8909 84.8348 46.2223 85.3238 46.337 85.8812C46.4516 86.4386 46.3401 87.0187 46.0271 87.4939C45.8943 87.6955 45.8104 87.9253 45.7819 88.165C45.7763 88.1762 45.7696 88.1865 45.7644 88.1978C45.5877 88.5736 45.5674 89.0041 45.7082 89.3948C45.8489 89.7854 46.139 90.1041 46.5148 90.2809C47.2314 90.618 47.9634 90.9539 48.6921 91.2799C49.5111 91.7666 50.4404 92.0368 51.3927 92.0653C52.345 92.0938 53.2888 91.8795 54.1354 91.4426C54.982 91.0058 55.7035 90.3607 56.2321 89.5681C56.7607 88.7755 57.0788 87.8614 57.1567 86.9119C57.8153 87.1775 58.5186 87.3146 59.2286 87.3156C59.6668 87.3154 60.1035 87.2644 60.53 87.1635C61.7362 86.8801 62.815 86.206 63.5985 85.246C64.3819 84.286 64.8261 83.094 64.862 81.8555C65.4102 82.0324 65.9825 82.1229 66.5585 82.1238C66.9966 82.1234 67.4333 82.0724 67.8597 81.9717C69.0788 81.6851 70.1673 80.9997 70.9525 80.0242C71.7378 79.0487 72.1748 77.8389 72.1942 76.5867C72.5797 76.6703 72.973 76.7126 73.3675 76.7129C73.8056 76.7126 74.2423 76.6615 74.6687 76.5607C75.7518 76.3055 76.7349 75.735 77.4939 74.9211C78.2528 74.1073 78.7534 73.0868 78.9325 71.9885C79.1116 70.8902 78.9611 69.7635 78.4999 68.7508C78.0388 67.738 77.2879 66.8847 76.3419 66.2986L47.1151 48.1209H47.1138L47.1083 48.1176C47.0993 48.1119 47.0899 48.1076 47.0808 48.1023C46.1198 47.5076 44.9727 47.29 43.8607 47.4915C42.7487 47.693 41.7508 48.2993 41.0597 49.1934L35.1745 56.7383C34.8438 57.1642 34.432 57.5204 33.963 57.7864C33.494 58.0524 32.9769 58.223 32.4417 58.2883C31.9064 58.3536 31.3636 58.3123 30.8443 58.1668C30.3251 58.0213 29.8398 57.7746 29.4164 57.4407C28.993 57.1068 28.6398 56.6924 28.3773 56.2215C28.1147 55.7505 27.948 55.2322 27.8866 54.6965C27.8253 54.1608 27.8706 53.6182 28.0199 53.1001C28.1692 52.5819 28.4196 52.0985 28.7565 51.6775L36.3976 41.5084C36.7853 40.995 37.2865 40.5783 37.862 40.2909C38.4376 40.0035 39.0718 39.8531 39.7151 39.8516H52.3046C53.0804 39.8516 53.8417 40.0624 54.5069 40.4615L73.6526 51.9488C74.4167 52.4071 75.2908 52.6493 76.1817 52.6494H83.3989V79.4514C83.3998 80.1768 83.6883 80.8724 84.2013 81.3853C84.7143 81.8983 85.4098 82.1869 86.1353 82.1877H98.4337C98.6408 82.19 98.8462 82.1512 99.0382 82.0736C99.2302 81.9959 99.4048 81.881 99.5521 81.7354C99.6993 81.5898 99.8162 81.4164 99.896 81.2253C99.9757 81.0343 100.017 80.8292 100.017 80.6222C100.017 80.4151 99.9757 80.2101 99.896 80.019C99.8162 79.8279 99.6993 79.6545 99.5521 79.5089C99.4048 79.3633 99.2302 79.2484 99.0382 79.1708C98.8462 79.0931 98.6408 79.0543 98.4337 79.0566H98.4343ZM31.9546 61.4516C33.0527 61.4517 34.1363 61.2006 35.1224 60.7175C36.1086 60.2343 36.971 59.5319 37.6439 58.6641L43.528 51.117C43.7473 50.8308 44.0655 50.6366 44.4204 50.5726C44.7752 50.5085 45.1412 50.5791 45.4468 50.7705L45.4511 50.7729L45.4536 50.7746L74.6919 68.9582C74.9708 69.1307 75.2129 69.3564 75.4046 69.6225C75.5962 69.8886 75.7335 70.1898 75.8088 70.5089C75.884 70.8281 75.8956 71.1589 75.843 71.4826C75.7903 71.8062 75.6744 72.1164 75.502 72.3952C75.3295 72.6741 75.1037 72.9162 74.8377 73.1079C74.5716 73.2995 74.2704 73.4369 73.9512 73.5121C73.6321 73.5873 73.3012 73.5989 72.9776 73.5463C72.6539 73.4936 72.3438 73.3778 72.0649 73.2053L69.5282 71.7051L62.686 67.3088C62.3437 67.0879 61.9287 67.0093 61.5293 67.0896C61.1299 67.17 60.7776 67.403 60.5473 67.739C60.317 68.0751 60.2269 68.4878 60.2962 68.8892C60.3654 69.2907 60.5885 69.6493 60.9181 69.8889C60.9407 69.9066 60.9651 69.9248 60.9937 69.943L67.8603 74.3551L67.8829 74.3695C68.4444 74.7186 68.8445 75.2762 68.9955 75.92C69.1464 76.5637 69.0358 77.241 68.6879 77.8033C68.3401 78.3656 67.7834 78.767 67.14 78.9193C66.4966 79.0717 65.819 78.9626 65.256 78.616L62.1896 76.891L57.3343 73.7248C57.1621 73.6124 56.9694 73.5351 56.7673 73.4972C56.5652 73.4593 56.3576 73.4615 56.1563 73.5039C55.7499 73.5893 55.3941 73.8328 55.1672 74.1806C54.9403 74.5284 54.8608 74.9521 54.9463 75.3585C55.0317 75.7649 55.2751 76.1207 55.623 76.3477L60.5214 79.542L60.5528 79.5615C60.8317 79.734 61.0739 79.9598 61.2655 80.2258C61.4571 80.4919 61.5945 80.7932 61.6697 81.1123C61.7449 81.4315 61.7565 81.7624 61.7038 82.086C61.6512 82.4097 61.5353 82.7198 61.3628 82.9986C61.1903 83.2775 60.9646 83.5197 60.6985 83.7113C60.4324 83.9029 60.1312 84.0403 59.812 84.1155C59.1674 84.2674 58.4889 84.157 57.9257 83.8086L54.5273 81.7068L52.1294 80.0613C51.7978 79.8342 51.3916 79.7434 50.9949 79.8076C50.5982 79.8717 50.2413 80.086 49.9982 80.4061C49.7552 80.7261 49.6445 81.1274 49.6891 81.5268C49.7337 81.9261 49.9303 82.2931 50.238 82.5516C50.2681 82.5773 50.3032 82.6037 50.3411 82.6297C50.3468 82.6338 50.3519 82.6383 50.3577 82.6424L52.7862 84.309L52.8214 84.3307L52.8827 84.3709C53.4354 84.7137 53.8296 85.2617 53.9787 85.8948C54.1279 86.5278 54.0199 87.1941 53.6784 87.7477C53.3297 88.3105 52.7718 88.712 52.1272 88.8638C51.4827 89.0157 50.8043 88.9054 50.2409 88.5574L50.1515 88.5022L50.0556 88.4594C49.7728 88.3332 49.4892 88.2043 49.2067 88.0754C49.5186 87.196 49.5916 86.2497 49.4185 85.3329C49.2453 84.416 48.8321 83.5616 48.221 82.8565C47.6099 82.1515 46.8227 81.6211 45.9398 81.3194C45.0569 81.0178 44.1098 80.9557 43.195 81.1395C42.9093 79.7789 42.0975 78.5863 40.9366 77.8215C39.7756 77.0568 38.3594 76.7817 36.9966 77.0563C36.7109 75.6962 35.8995 74.504 34.7391 73.7392C33.5787 72.9744 32.1632 72.6989 30.8007 72.9727C30.5856 71.9538 30.074 71.0214 29.33 70.2928C28.5861 69.5643 27.6433 69.0721 26.6202 68.8783C25.5971 68.6845 24.5396 68.7978 23.5808 69.2038C22.6219 69.6099 21.8047 70.2906 21.2319 71.1602L20.5011 72.2695H16.6003V52.4127H24.9608C24.686 53.4805 24.6589 54.5971 24.8815 55.677C25.1042 56.7569 25.5707 57.7717 26.2454 58.6437C26.9202 59.5158 27.7853 60.2222 28.7748 60.7088C29.7642 61.1954 30.8518 61.4495 31.9544 61.4516H31.9546Z" fill="black"/>
<path d="M50.0755 17.1284C50.2811 17.1284 50.4847 17.0879 50.6746 17.0092C50.8645 16.9306 51.0371 16.8152 51.1825 16.6698C51.3279 16.5245 51.4432 16.3519 51.5218 16.1619C51.6005 15.972 51.6409 15.7684 51.6409 15.5628V8.44542C51.6432 8.23836 51.6044 8.0329 51.5268 7.84093C51.4492 7.64896 51.3342 7.4743 51.1886 7.32707C51.043 7.17983 50.8697 7.06294 50.6786 6.98316C50.4875 6.90338 50.2825 6.8623 50.0754 6.8623C49.8683 6.8623 49.6633 6.90338 49.4722 6.98316C49.2811 7.06294 49.1078 7.17983 48.9622 7.32707C48.8166 7.4743 48.7016 7.64896 48.624 7.84093C48.5463 8.0329 48.5076 8.23836 48.5099 8.44542V15.5626C48.5098 15.7682 48.5503 15.9718 48.629 16.1618C48.7077 16.3518 48.823 16.5244 48.9684 16.6698C49.1137 16.8152 49.2863 16.9305 49.4763 17.0092C49.6663 17.0879 49.8699 17.1284 50.0755 17.1284Z" fill="black"/>
<path d="M61.2843 21.9851C61.4899 21.9853 61.6936 21.945 61.8836 21.8663C62.0735 21.7877 62.2461 21.6722 62.3913 21.5267L67.424 16.4941C67.7176 16.2005 67.8826 15.8022 67.8826 15.387C67.8826 14.9718 67.7177 14.5735 67.4241 14.2799C67.1305 13.9863 66.7322 13.8213 66.317 13.8213C65.9018 13.8213 65.5035 13.9862 65.2099 14.2798L60.1773 19.3124C59.9583 19.5314 59.8092 19.8103 59.7488 20.114C59.6884 20.4177 59.7194 20.7325 59.8379 21.0186C59.9564 21.3047 60.1571 21.5492 60.4145 21.7212C60.672 21.8932 60.9747 21.9851 61.2843 21.9851Z" fill="black"/>
<path d="M37.4119 21.5274C37.5573 21.6727 37.7299 21.7881 37.9199 21.8667C38.1098 21.9454 38.3134 21.9859 38.519 21.9859C38.7246 21.9859 38.9282 21.9454 39.1182 21.8667C39.3081 21.788 39.4807 21.6727 39.6261 21.5273C39.7715 21.3819 39.8868 21.2093 39.9655 21.0193C40.0441 20.8294 40.0846 20.6258 40.0846 20.4202C40.0846 20.2146 40.0441 20.011 39.9654 19.821C39.8867 19.6311 39.7714 19.4585 39.626 19.3131L34.5932 14.2805C34.4482 14.1333 34.2755 14.0162 34.0851 13.9361C33.8947 13.8559 33.6902 13.8143 33.4836 13.8135C33.277 13.8127 33.0723 13.8528 32.8813 13.9316C32.6902 14.0103 32.5167 14.126 32.3706 14.2721C32.2245 14.4182 32.1088 14.5918 32.0301 14.7829C31.9514 14.9739 31.9113 15.1787 31.9121 15.3853C31.9129 15.5919 31.9546 15.7963 32.0348 15.9867C32.115 16.1771 32.2321 16.3498 32.3793 16.4948L37.4119 21.5274Z" fill="black"/>
<path d="M27.0187 30.7747H34.1358C34.3429 30.777 34.5484 30.7382 34.7403 30.6606C34.9323 30.583 35.107 30.468 35.2542 30.3224C35.4014 30.1768 35.5183 30.0034 35.5981 29.8124C35.6779 29.6213 35.719 29.4163 35.719 29.2092C35.719 29.0021 35.6779 28.7971 35.5981 28.606C35.5183 28.4149 35.4014 28.2416 35.2542 28.096C35.107 27.9503 34.9323 27.8354 34.7403 27.7578C34.5484 27.6801 34.3429 27.6413 34.1358 27.6437H27.0187C26.8116 27.6413 26.6061 27.6801 26.4142 27.7578C26.2222 27.8354 26.0475 27.9503 25.9003 28.096C25.7531 28.2416 25.6362 28.4149 25.5564 28.606C25.4766 28.7971 25.4355 29.0021 25.4355 29.2092C25.4355 29.4163 25.4766 29.6213 25.5564 29.8124C25.6362 30.0034 25.7531 30.1768 25.9003 30.3224C26.0475 30.468 26.2222 30.583 26.4142 30.6606C26.6061 30.7382 26.8116 30.777 27.0187 30.7747Z" fill="black"/>
<path d="M64.7949 29.2091C64.795 29.6243 64.9599 30.0225 65.2535 30.3161C65.5471 30.6097 65.9453 30.7747 66.3605 30.7747H73.4777C73.6848 30.777 73.8903 30.7382 74.0822 30.6606C74.2742 30.583 74.4488 30.468 74.5961 30.3224C74.7433 30.1768 74.8602 30.0034 74.94 29.8124C75.0198 29.6213 75.0608 29.4163 75.0608 29.2092C75.0608 29.0021 75.0198 28.7971 74.94 28.606C74.8602 28.4149 74.7433 28.2416 74.5961 28.096C74.4488 27.9503 74.2742 27.8354 74.0822 27.7578C73.8903 27.6801 73.6848 27.6413 73.4777 27.6437H66.3605C65.9454 27.6437 65.5472 27.8086 65.2536 28.1022C64.96 28.3958 64.795 28.7939 64.7949 29.2091Z" fill="black"/>
</g>
<defs>
<clipPath id="clip0_112_1726">
<rect width="100" height="100" fill="white"/>
</clipPath>
</defs>
</svg>
