<svg version="1.1" id="Capa_1" xmlns="http://www.w3.org/2000/svg" xmlns:xlink="http://www.w3.org/1999/xlink" x="0px" y="0px" viewBox="0 0 512 512" style="enable-background:new 0 0 512 512;" xml:space="preserve">
<g>
	<g>
		<path style="fill:none;stroke:#000000;stroke-width:15;stroke-linecap:round;stroke-linejoin:round;stroke-miterlimit:10;" d="&#10;&#9;&#9;&#9;M504.3,93.6c0.02-0.06,0.02-0.11,0.02-0.17c0.02-0.22,0.04-0.42,0.06-0.62c0.03-0.4,0.06-0.78,0.08-1.12&#10;&#9;&#9;&#9;c0.03-0.45,0.04-0.91,0.04-1.36C504.5,44.59,393.24,7.5,256,7.5S7.5,44.59,7.5,90.33c0,0.45,0.01,0.91,0.04,1.36&#10;&#9;&#9;&#9;c0.02,0.34,0.05,0.72,0.08,1.12c0.02,0.2,0.04,0.4,0.06,0.62c0,0.1,0.01,0.21,0.03,0.31"/>
		<path style="fill:none;stroke:#000000;stroke-width:15;stroke-linecap:round;stroke-linejoin:round;stroke-miterlimit:10;" d="&#10;&#9;&#9;&#9;M431,256.95c-16.46-5.44-35.18-10.12-55.66-13.86"/>
		<path style="fill:none;stroke:#000000;stroke-width:15;stroke-linecap:round;stroke-linejoin:round;stroke-miterlimit:10;" d="&#10;&#9;&#9;&#9;M136.66,243.09c-20.48,3.74-39.2,8.42-55.66,13.86"/>
		<g>
			<path style="fill:none;stroke:#000000;stroke-width:15;stroke-linecap:round;stroke-linejoin:round;stroke-miterlimit:10;" d="&#10;&#9;&#9;&#9;&#9;M431,111.53c-26.5-8.77-58.88-15.55-95-19.65"/>
			
				<polyline style="fill:none;stroke:#000000;stroke-width:15;stroke-linecap:round;stroke-linejoin:round;stroke-miterlimit:10;" points="&#10;&#9;&#9;&#9;&#9;407.206,125.393 432.179,112.114 418.901,87.141 &#9;&#9;&#9;"/>
		</g>
		<g>
			<path style="fill:none;stroke:#000000;stroke-width:15;stroke-linecap:round;stroke-linejoin:round;stroke-miterlimit:10;" d="&#10;&#9;&#9;&#9;&#9;M176,91.88c-36.12,4.1-68.5,10.88-95,19.65"/>
			
				<polyline style="fill:none;stroke:#000000;stroke-width:15;stroke-linecap:round;stroke-linejoin:round;stroke-miterlimit:10;" points="&#10;&#9;&#9;&#9;&#9;104.794,125.393 79.821,112.114 93.099,87.141 &#9;&#9;&#9;"/>
		</g>
		<g>
			<g>
				
					<line style="fill:none;stroke:#000000;stroke-width:15;stroke-linecap:round;stroke-linejoin:round;stroke-miterlimit:10;" x1="276" y1="64.997" x2="276" y2="114.997"/>
				<path style="fill:none;stroke:#000000;stroke-width:15;stroke-linecap:round;stroke-linejoin:round;stroke-miterlimit:10;" d="&#10;&#9;&#9;&#9;&#9;&#9;M276,94.997h15c8.284,0,15-6.716,15-15v0c0-8.284-6.716-15-15-15h-15"/>
				
					<line style="fill:none;stroke:#000000;stroke-width:15;stroke-linecap:round;stroke-linejoin:round;stroke-miterlimit:10;" x1="296" y1="94.997" x2="306" y2="114.997"/>
			</g>
			<g>
				
					<line style="fill:none;stroke:#000000;stroke-width:15;stroke-linecap:round;stroke-linejoin:round;stroke-miterlimit:10;" x1="226" y1="114.997" x2="206" y2="64.997"/>
				
					<line style="fill:none;stroke:#000000;stroke-width:15;stroke-linecap:round;stroke-linejoin:round;stroke-miterlimit:10;" x1="226" y1="114.997" x2="246" y2="64.997"/>
			</g>
		</g>
		<path style="fill:none;stroke:#000000;stroke-width:15;stroke-linecap:round;stroke-linejoin:round;stroke-miterlimit:10;" d="&#10;&#9;&#9;&#9;M81,319.81v30.49c0,7.05-7.09,11.86-13.66,9.31C30.04,345.12,7.5,326.29,7.5,305.7V90.33c0,20.73,22.83,39.67,60.57,54.2&#10;&#9;&#9;&#9;C75.84,147.52,81,154.92,81,163.24v121.57"/>
		<path style="fill:none;stroke:#000000;stroke-width:15;stroke-linecap:round;stroke-linejoin:round;stroke-miterlimit:10;" d="&#10;&#9;&#9;&#9;M431,222.99V350.3c0,7.05,7.09,11.86,13.66,9.31c37.3-14.49,59.84-33.32,59.84-53.91V90.33c0,20.73-22.83,39.67-60.57,54.2&#10;&#9;&#9;&#9;c-7.77,2.99-12.93,10.39-12.93,18.71v24.75"/>
	</g>
	<g>
		<path style="fill:none;stroke:#000000;stroke-width:15;stroke-linecap:round;stroke-linejoin:round;stroke-miterlimit:10;" d="&#10;&#9;&#9;&#9;M111,359.58v-1v-33.12c0-80.08,64.92-145,145-145c40.04,0,76.29,16.23,102.53,42.47S401,285.42,401,325.46v33.12v1"/>
		<path style="fill:none;stroke:#000000;stroke-width:15;stroke-linecap:round;stroke-linejoin:round;stroke-miterlimit:10;" d="&#10;&#9;&#9;&#9;M369.27,403.63C359.83,460.94,312.7,504.5,256,504.5c-56.71,0-103.83-43.56-113.27-100.87c0,0,0,0,0-0.01"/>
		<path style="fill:none;stroke:#000000;stroke-width:15;stroke-linecap:round;stroke-linejoin:round;stroke-miterlimit:10;" d="&#10;&#9;&#9;&#9;M217.59,308.58c19.42-6.04,37.63-15.96,51.13-30.17c4.2-4.42,11.36-4.19,15.1,0.62c9.09,11.67,22.54,21.9,37.25,29.55"/>
		<path style="fill:none;stroke:#000000;stroke-width:15;stroke-linecap:round;stroke-linejoin:round;stroke-miterlimit:10;" d="&#10;&#9;&#9;&#9;M272.46,446.703c-4.003,4.594-9.892,7.501-16.464,7.501s-12.461-2.907-16.464-7.501"/>
		<g>
			<path style="fill:none;stroke:#000000;stroke-width:15;stroke-linecap:round;stroke-linejoin:round;stroke-miterlimit:10;" d="&#10;&#9;&#9;&#9;&#9;M371,338.58h10c11.05,0,20,8.95,20,20v20c0,11.04-8.95,20-20,20h-10.43"/>
			<path style="fill:none;stroke:#000000;stroke-width:15;stroke-linecap:round;stroke-linejoin:round;stroke-miterlimit:10;" d="&#10;&#9;&#9;&#9;&#9;M141,338.58h-10c-11.05,0-20,8.95-20,20v20c0,11.04,8.95,20,20,20h10.43"/>
			<path style="fill:none;stroke:#000000;stroke-width:15;stroke-linecap:round;stroke-linejoin:round;stroke-miterlimit:10;" d="&#10;&#9;&#9;&#9;&#9;M371,386.08v7.5c0,16.57-13.43,30-30,30h-44.3c-6.68,0-12.93-3.34-16.64-8.91l-7.42-11.13c-7.92-11.87-25.36-11.87-33.28,0&#10;&#9;&#9;&#9;&#9;l-7.42,11.13c-3.71,5.57-9.96,8.91-16.64,8.91H171c-16.57,0-30-13.43-30-30v-55c0-16.57,13.43-30,30-30h170&#10;&#9;&#9;&#9;&#9;c16.57,0,30,13.43,30,30v12.5"/>
		</g>
	</g>
</g>
<g>
</g>
<g>
</g>
<g>
</g>
<g>
</g>
<g>
</g>
<g>
</g>
<g>
</g>
<g>
</g>
<g>
</g>
<g>
</g>
<g>
</g>
<g>
</g>
<g>
</g>
<g>
</g>
<g>
</g>
</svg>