<svg width="100" height="100" viewBox="0 0 100 100" fill="none" xmlns="http://www.w3.org/2000/svg">
<path d="M70.3541 0H29.6475C25.3865 0 21.9199 3.4666 21.9199 7.72734V92.2725C21.9199 96.5334 25.3865 99.9998 29.6475 99.9998H70.3543C74.6152 99.9998 78.0818 96.5332 78.0818 92.2725V7.72734C78.0816 3.4666 74.6152 0 70.3541 0ZM40.5061 2.92969H59.4955V4.59609C59.4955 5.51504 58.7479 6.2625 57.8291 6.2625H42.1727C41.2537 6.2625 40.5063 5.51484 40.5063 4.59609V2.92969H40.5061ZM75.1519 92.2727C75.1519 94.9182 72.9996 97.0703 70.3541 97.0703H29.6475C27.002 97.0703 24.8496 94.918 24.8496 92.2727V7.72734C24.8496 5.08184 27.002 2.92969 29.6475 2.92969H37.5766V4.59609C37.5766 7.13047 39.6385 9.19219 42.1727 9.19219H57.8291C60.3635 9.19219 62.4252 7.13027 62.4252 4.59609V2.92969H70.3543C72.9998 2.92969 75.1521 5.08203 75.1521 7.72734V92.2727H75.1519Z" fill="black"/>
<path d="M31.3145 34.2617V54.148C31.3145 54.6715 31.5938 55.1549 32.0469 55.4166L49.2689 65.3598C49.4955 65.4906 49.7484 65.5561 50.0014 65.5561C50.2543 65.5561 50.5072 65.4906 50.7338 65.3598L67.9559 55.4166C68.409 55.1549 68.6883 54.6715 68.6883 54.148V34.2617C68.6883 33.7383 68.409 33.2549 67.9559 32.9932L50.7338 23.0498C50.2807 22.7881 49.7221 22.7881 49.2689 23.0498L32.0469 32.9932C31.5936 33.2549 31.3145 33.7383 31.3145 34.2617ZM51.4662 61.5541V45.0506L65.7586 36.7988V53.3023L51.4662 61.5541ZM34.2441 35.1074L50.0014 26.0098L64.2938 34.2617L50.0014 42.5135L39.6416 36.5322C38.9408 36.1275 38.0451 36.3678 37.6406 37.0684C37.2361 37.7689 37.4762 38.6648 38.1768 39.0693L48.5365 45.0506V61.5541L34.2441 53.3023V35.1074Z" fill="black"/>
<path d="M34.3441 21.7176H37.4754C40.0098 21.7176 42.0715 19.6557 42.0715 17.1215C42.0715 14.5873 40.0096 12.5254 37.4754 12.5254H34.3441C31.8098 12.5254 29.748 14.5873 29.748 17.1215C29.748 19.6557 31.8098 21.7176 34.3441 21.7176ZM34.3441 15.4551H37.4754C38.3943 15.4551 39.1418 16.2027 39.1418 17.1215C39.1418 18.0402 38.3941 18.7879 37.4754 18.7879H34.3441C33.4252 18.7879 32.6777 18.0402 32.6777 17.1215C32.6777 16.2027 33.4252 15.4551 34.3441 15.4551Z" fill="black"/>
<path d="M65.657 12.5254H62.5258C59.9914 12.5254 57.9297 14.5873 57.9297 17.1215C57.9297 19.6557 59.9916 21.7176 62.5258 21.7176H65.657C68.1914 21.7176 70.2531 19.6557 70.2531 17.1215C70.2531 14.5873 68.1914 12.5254 65.657 12.5254ZM65.657 18.7879H62.5258C61.6068 18.7879 60.8594 18.0402 60.8594 17.1215C60.8594 16.2027 61.607 15.4551 62.5258 15.4551H65.657C66.576 15.4551 67.3234 16.2027 67.3234 17.1215C67.3234 18.0402 66.576 18.7879 65.657 18.7879Z" fill="black"/>
<path d="M68.7885 72.0199H41.8311C41.218 70.202 39.4979 68.8887 37.4756 68.8887C35.4533 68.8887 33.7334 70.202 33.1201 72.0199H31.2129C30.4039 72.0199 29.748 72.6758 29.748 73.4848C29.748 74.2938 30.4039 74.9496 31.2129 74.9496H33.1201C33.7332 76.7678 35.4533 78.0811 37.4756 78.0811C39.4979 78.0811 41.2178 76.7678 41.8311 74.9496H68.7887C69.5977 74.9496 70.2535 74.2938 70.2535 73.4848C70.2535 72.6758 69.5975 72.0199 68.7885 72.0199ZM37.4756 75.1512C36.5566 75.1512 35.8092 74.4035 35.8092 73.4846C35.8092 72.5656 36.5568 71.8182 37.4756 71.8182C38.3943 71.8182 39.142 72.5658 39.142 73.4846C39.142 74.4037 38.3945 75.1512 37.4756 75.1512Z" fill="black"/>
<path d="M68.7883 84.5453H66.8811C66.268 82.7273 64.5478 81.4141 62.5256 81.4141C60.5033 81.4141 58.7834 82.7273 58.1701 84.5453H31.2129C30.4039 84.5453 29.748 85.2012 29.748 86.0102C29.748 86.8191 30.4039 87.475 31.2129 87.475H58.1705C58.7836 89.293 60.5037 90.6063 62.526 90.6063C64.5482 90.6063 66.2682 89.293 66.8814 87.475H68.7887C69.5977 87.475 70.2535 86.8191 70.2535 86.0102C70.2535 85.2012 69.5973 84.5453 68.7883 84.5453ZM62.5258 87.6766C61.6068 87.6766 60.8594 86.9289 60.8594 86.0102C60.8594 85.0914 61.607 84.3437 62.5258 84.3437C63.4445 84.3437 64.1922 85.0914 64.1922 86.0102C64.1922 86.9289 63.4445 87.6766 62.5258 87.6766Z" fill="black"/>
</svg>
