<svg width="100" height="100" viewBox="0 0 100 100" fill="none" xmlns="http://www.w3.org/2000/svg">
<g clip-path="url(#clip0_148_193)">
<path d="M95.9824 18.1645H48.4323V14.5955C48.4323 14.0722 48.1531 13.5889 47.7001 13.3273L24.9563 0.196231C24.5033 -0.0654103 23.9448 -0.0654103 23.4919 0.196231L12.1075 6.76889C11.4072 7.17326 11.1672 8.06889 11.5716 8.76927C11.9761 9.46985 12.8718 9.70981 13.572 9.30525L24.2241 3.15531L44.0393 14.5955L24.2241 26.0358L4.40885 14.5957L8.02868 12.5059C8.72905 12.1015 8.96902 11.2059 8.56465 10.5055C8.16028 9.8049 7.26465 9.56513 6.56427 9.9695L0.747829 13.3273C0.294839 13.5889 0.015625 14.0722 0.015625 14.5955V40.858C0.015625 41.3813 0.294839 41.8645 0.747829 42.1262L23.4917 55.2572C23.9447 55.5189 24.5031 55.5189 24.9561 55.2572L27.3083 53.8992V77.741C27.3083 79.9482 29.1039 81.7437 31.311 81.7437H51.8085L50.2747 91.0062H47.1983C45.6372 91.0062 44.3671 92.2763 44.3671 93.8374V97.1688C44.3671 98.7299 45.6372 100 47.1983 100H66.2604C67.0692 100 67.7248 99.3443 67.7248 98.5356C67.7248 97.7269 67.0692 97.0712 66.2604 97.0712H47.2959V93.935H75.758C75.7636 93.935 75.7693 93.9352 75.775 93.9352C75.781 93.9352 75.7873 93.935 75.7933 93.935H79.9975V97.0712H72.6427C71.834 97.0712 71.1783 97.7269 71.1783 98.5356C71.1783 99.3443 71.834 100 72.6427 100H80.0952C81.6562 100 82.9264 98.7299 82.9264 97.1688V93.8374C82.9264 92.2763 81.6562 91.0062 80.0952 91.0062H77.0187L75.485 81.7437H95.9824C98.1896 81.7437 99.9852 79.9482 99.9852 77.741V22.1672C99.9852 19.9603 98.1896 18.1645 95.9824 18.1645ZM25.6885 51.4529V28.5722L45.5035 17.1318V40.0123L25.6885 51.4529ZM2.94444 17.132L22.7595 28.5724V51.4529L2.94444 40.0125V17.132ZM74.0501 91.0062H53.2436L54.7773 81.7437H72.5164L74.0501 91.0062ZM97.0564 77.7412C97.0564 78.3334 96.5747 78.8151 95.9824 78.8151C87.7792 78.8151 37.0056 78.8151 31.311 78.8151C30.7188 78.8151 30.2371 78.3334 30.2371 77.7412V52.2083L33.3733 50.3977V74.2145C33.3733 75.0232 34.029 75.6789 34.8377 75.6789H92.4556C93.2643 75.6789 93.92 75.0232 93.92 74.2145V37.0388C93.92 36.2301 93.2643 35.5744 92.4556 35.5744C91.6468 35.5744 90.9911 36.2301 90.9911 37.0388V72.7501H36.3021V48.7068L47.7001 42.1264C48.1531 41.8647 48.4323 41.3815 48.4323 40.8582V27.1667H90.9913V30.6567C90.9913 31.4655 91.647 32.1211 92.4558 32.1211C93.2645 32.1211 93.9202 31.4655 93.9202 30.6567V25.7023C93.9202 24.8936 93.2645 24.2379 92.4558 24.2379H48.4323V21.0933H95.9824C96.5747 21.0933 97.0564 21.575 97.0564 22.1672V77.7412Z" fill="black"/>
<path d="M85.4131 39.8452L70.1171 31.014C69.9243 30.8988 69.7029 30.8268 69.4661 30.8111C69.4632 30.8109 69.4602 30.8107 69.4573 30.8105C69.4458 30.8098 69.4341 30.8094 69.4223 30.8088C69.4186 30.8086 69.4149 30.8084 69.4112 30.8084C69.3966 30.808 69.3821 30.8076 69.3675 30.8076C69.3528 30.8076 69.3382 30.8078 69.3237 30.8084C69.32 30.8086 69.3163 30.8086 69.3126 30.8088C69.3009 30.8092 69.2894 30.8098 69.2777 30.8105C69.2747 30.8107 69.2718 30.8109 69.2689 30.8111C69.032 30.8269 68.8106 30.899 68.6179 31.014L53.322 39.8452C52.8691 40.1068 52.5898 40.5901 52.5898 41.1133V58.7958C52.5898 59.3191 52.8691 59.8023 53.322 60.064L68.6355 68.9053C69.0885 69.1669 69.6469 69.1669 70.0999 68.9053L85.4135 60.064C85.8665 59.8023 86.1457 59.3191 86.1457 58.7958V41.1133C86.1453 40.5901 85.8663 40.1068 85.4131 39.8452ZM69.3675 48.2638L56.9829 41.1133L69.3675 33.9629L81.7523 41.1133L69.3675 48.2638ZM55.5183 43.6497L67.9029 50.7999V65.1006L55.5183 57.9501V43.6497ZM70.8319 65.1008V50.8001L83.2167 43.6497V57.9503L70.8319 65.1008Z" fill="black"/>
<path d="M81.1071 55.3974C81.1071 54.4283 80.1828 53.8496 79.5021 53.8496C78.8726 53.8496 78.0361 54.342 78.0361 55.3128C78.0361 56.2856 78.9646 56.8606 79.6411 56.8606C80.2704 56.8606 81.1071 56.368 81.1071 55.3974Z" fill="black"/>
<path d="M76.0112 52.455C76.0112 51.4854 75.0853 50.9072 74.4064 50.9072C73.8396 50.9072 72.9404 51.3489 72.9404 52.3707C72.9404 53.3403 73.8665 53.9184 74.5452 53.9184C75.1119 53.9184 76.0112 53.4768 76.0112 52.455Z" fill="black"/>
<path d="M59.2317 53.8496C58.5653 53.8496 57.627 54.4153 57.627 55.3974C57.627 56.4137 58.512 56.8606 59.0929 56.8606C59.7593 56.8606 60.6979 56.2948 60.6979 55.3128C60.6979 54.2965 59.8128 53.8496 59.2317 53.8496Z" fill="black"/>
<path d="M65.7936 52.3705C65.7936 51.3542 64.9083 50.9072 64.3273 50.9072C63.6609 50.9072 62.7227 51.4729 62.7227 52.455C62.7227 53.4713 63.6077 53.9182 64.1886 53.9182C64.8552 53.9182 65.7936 53.3524 65.7936 52.3705Z" fill="black"/>
<path d="M69.3675 36.625C67.4124 36.625 67.4128 39.7172 69.3675 39.7172C71.3226 39.7172 71.3222 36.625 69.3675 36.625Z" fill="black"/>
<path d="M69.3675 42.5088C67.4124 42.5088 67.4128 45.601 69.3675 45.601C71.3226 45.601 71.3222 42.5088 69.3675 42.5088Z" fill="black"/>
<path d="M46.9689 51.5527H40.9039C40.0951 51.5527 39.4395 52.2084 39.4395 53.0171C39.4395 53.8259 40.0951 54.4816 40.9039 54.4816H46.9689C47.7776 54.4816 48.4333 53.8259 48.4333 53.0171C48.4333 52.2084 47.7776 51.5527 46.9689 51.5527Z" fill="black"/>
<path d="M46.9689 57.6182H40.9039C40.0951 57.6182 39.4395 58.2738 39.4395 59.0826C39.4395 59.8913 40.0951 60.547 40.9039 60.547H46.9689C47.7776 60.547 48.4333 59.8913 48.4333 59.0826C48.4333 58.2738 47.7776 57.6182 46.9689 57.6182Z" fill="black"/>
<path d="M44.6643 63.6826H40.9019C40.0932 63.6826 39.4375 64.3383 39.4375 65.147C39.4375 65.9558 40.0932 66.6114 40.9019 66.6114H44.6643C45.473 66.6114 46.1287 65.9558 46.1287 65.147C46.1287 64.3383 45.4732 63.6826 44.6643 63.6826Z" fill="black"/>
<path d="M42.3375 6.81749H57.2488C59.1329 6.81749 60.6658 8.35043 60.6658 10.2344V15.4136C60.6658 16.2223 61.3215 16.878 62.1302 16.878C62.939 16.878 63.5946 16.2223 63.5946 15.4136V10.2344C63.5946 6.73548 60.7478 3.88867 57.2488 3.88867H42.3375C41.5287 3.88867 40.873 4.54434 40.873 5.35308C40.873 6.16183 41.5287 6.81749 42.3375 6.81749Z" fill="black"/>
<path d="M23.2381 60.6504H9.3946C7.51059 60.6504 5.97765 59.1175 5.97765 57.2335V48.4849C5.97765 47.6762 5.32198 47.0205 4.51324 47.0205C3.70449 47.0205 3.04883 47.6762 3.04883 48.4849V57.2335C3.04883 60.7324 5.89564 63.5793 9.3946 63.5793H23.2381C24.0469 63.5793 24.7026 62.9236 24.7026 62.1149C24.7026 61.3061 24.0469 60.6504 23.2381 60.6504Z" fill="black"/>
</g>
<defs>
<clipPath id="clip0_148_193">
<rect width="100" height="100" fill="white"/>
</clipPath>
</defs>
</svg>
