<svg width="100" height="100" viewBox="0 0 100 100" fill="none" xmlns="http://www.w3.org/2000/svg">
<path d="M50.6258 64.5832C50.4438 64.5805 50.2652 64.534 50.1049 64.4478C49.9444 64.3552 49.8115 64.2214 49.72 64.0602C49.6284 63.8991 49.5815 63.7165 49.5841 63.5312V54.4374C49.587 54.2574 49.6365 54.0812 49.7278 53.926C49.8191 53.7709 49.949 53.642 50.1049 53.552L58.5216 48.6562C58.6799 48.5647 58.8596 48.5166 59.0424 48.5166C59.2253 48.5166 59.4049 48.5647 59.5633 48.6562C59.7222 48.7479 59.8541 48.8801 59.9456 49.0392C60.037 49.1984 60.0848 49.3789 60.0841 49.5624V58.6562C60.083 58.8379 60.0343 59.0163 59.943 59.1734C59.8516 59.3306 59.7207 59.4611 59.5633 59.552L51.1466 64.4478C50.9878 64.5378 50.8082 64.5845 50.6258 64.5832ZM51.6674 55.052V61.7291L57.9903 58.052V51.3749L51.6674 55.052Z" fill="black"/>
<path d="M50.6257 64.5836C50.4437 64.5808 50.2651 64.5344 50.1048 64.4482L41.6673 59.5627C41.5084 59.471 41.3765 59.3388 41.285 59.1797C41.1935 59.0205 41.1458 58.84 41.1465 58.6565V49.5627C41.1476 49.3804 41.1965 49.2016 41.2884 49.0441C41.3803 48.8866 41.5119 48.756 41.67 48.6653C41.8282 48.5746 42.0074 48.5271 42.1897 48.5273C42.372 48.5276 42.5511 48.5757 42.709 48.6669L51.1777 53.5523C51.3367 53.6441 51.4686 53.7763 51.5601 53.9354C51.6515 54.0945 51.6993 54.275 51.6986 54.4586V63.5523C51.6986 63.8286 51.5888 64.0935 51.3935 64.2889C51.1981 64.4842 50.9332 64.594 50.6569 64.594L50.6257 64.5836ZM43.1986 58.0523L49.5944 61.7398V55.0523L43.2298 51.3648L43.1986 58.0523Z" fill="black"/>
<path d="M50.6674 55.4999C50.4855 55.4972 50.3068 55.4507 50.1466 55.3645L41.6674 50.4687C41.5096 50.3771 41.3785 50.2457 41.2875 50.0875C41.1964 49.9294 41.1484 49.7501 41.1484 49.5676C41.1484 49.3851 41.1964 49.2058 41.2875 49.0477C41.3785 48.8896 41.5096 48.7581 41.6674 48.6666L50.0841 43.7499C50.2424 43.6585 50.4221 43.6104 50.6049 43.6104C50.7878 43.6104 50.9674 43.6585 51.1258 43.7499L59.5945 48.6457C59.7524 48.7373 59.8834 48.8687 59.9745 49.0269C60.0656 49.185 60.1135 49.3643 60.1135 49.5468C60.1135 49.7293 60.0656 49.9086 59.9745 50.0667C59.8834 50.2248 59.7524 50.3563 59.5945 50.4478L51.1778 55.3332C51.0252 55.4324 50.8492 55.4899 50.6674 55.4999ZM44.2716 49.5624L50.6674 53.2499L57.0008 49.5728L50.6153 45.8853L44.2716 49.5624Z" fill="black"/>
<path d="M25.4792 36.8643C25.2029 36.8643 24.9379 36.7546 24.7426 36.5592C24.5472 36.3639 24.4375 36.0989 24.4375 35.8226V10.9372C24.4389 9.77136 24.6702 8.61721 25.1182 7.54087C25.5663 6.46453 26.2223 5.48715 27.0486 4.66469C27.8749 3.84223 28.8554 3.19085 29.9338 2.74786C31.0122 2.30486 32.1675 2.07895 33.3333 2.08306H68.75C71.0974 2.08582 73.3479 3.01955 75.0078 4.67943C76.6677 6.33931 77.6014 8.5898 77.6042 10.9372V35.8226C77.6042 36.0989 77.4944 36.3639 77.2991 36.5592C77.1037 36.7546 76.8388 36.8643 76.5625 36.8643C76.2862 36.8643 76.0213 36.7546 75.8259 36.5592C75.6306 36.3639 75.5208 36.0989 75.5208 35.8226V10.9372C75.5181 9.14234 74.8038 7.42175 73.5347 6.15257C72.2655 4.88339 70.5449 4.16915 68.75 4.1664H33.3333C31.5384 4.16915 29.8179 4.88339 28.5487 6.15257C27.2795 7.42175 26.5653 9.14234 26.5625 10.9372V35.8226C26.5626 35.963 26.5344 36.102 26.4794 36.2311C26.4245 36.3603 26.344 36.4771 26.2428 36.5743C26.1416 36.6716 26.0218 36.7475 25.8906 36.7973C25.7594 36.8471 25.6194 36.8699 25.4792 36.8643Z" fill="black"/>
<path d="M68.7493 97.917H33.3327C30.9853 97.9142 28.7348 96.9805 27.0749 95.3206C25.415 93.6607 24.4813 91.4103 24.4785 89.0628V65.9899C24.4785 65.7136 24.5883 65.4487 24.7836 65.2533C24.979 65.058 25.2439 64.9482 25.5202 64.9482C25.7964 64.9482 26.0614 65.058 26.2568 65.2533C26.4521 65.4487 26.5618 65.7136 26.5618 65.9899V89.0628C26.5646 90.8577 27.2788 92.5783 28.548 93.8475C29.8172 95.1167 31.5378 95.8309 33.3327 95.8337H68.7493C70.5442 95.8309 72.2648 95.1167 73.534 93.8475C74.8032 92.5783 75.5174 90.8577 75.5202 89.0628V65.9899C75.5202 65.7136 75.6299 65.4487 75.8253 65.2533C76.0206 65.058 76.2856 64.9482 76.5618 64.9482C76.8381 64.9482 77.1031 65.058 77.2984 65.2533C77.4938 65.4487 77.6035 65.7136 77.6035 65.9899V89.0628C77.6008 91.4103 76.667 93.6607 75.0071 95.3206C73.3473 96.9805 71.0968 97.9142 68.7493 97.917Z" fill="black"/>
<path d="M58.7084 10.5204H58.5104L58.3333 10.4162L58.1563 10.3224L57.9896 10.187C57.8931 10.0897 57.8167 9.97426 57.7648 9.84735C57.713 9.72044 57.6867 9.58454 57.6875 9.44745C57.6887 9.17418 57.7972 8.9123 57.9896 8.71828C58.0864 8.62065 58.2016 8.54315 58.3286 8.49027C58.4555 8.43738 58.5917 8.41016 58.7292 8.41016C58.8667 8.41016 59.0028 8.43738 59.1298 8.49027C59.2567 8.54315 59.3719 8.62065 59.4688 8.71828C59.5662 8.81335 59.6441 8.92659 59.6979 9.05161C59.7477 9.17756 59.7725 9.31202 59.7709 9.44745C59.7716 9.58454 59.7454 9.72044 59.6935 9.84735C59.6417 9.97426 59.5653 10.0897 59.4688 10.187C59.3716 10.2918 59.254 10.3754 59.1232 10.4327C58.9924 10.4901 58.8512 10.5199 58.7084 10.5204Z" fill="black"/>
<path d="M52.8444 10.5101H43.4694C43.1931 10.5101 42.9282 10.4003 42.7328 10.205C42.5375 10.0096 42.4277 9.74469 42.4277 9.46842C42.4277 9.19216 42.5375 8.92721 42.7328 8.73186C42.9282 8.5365 43.1931 8.42676 43.4694 8.42676H52.8444C53.1207 8.42676 53.3856 8.5365 53.581 8.73186C53.7763 8.92721 53.8861 9.19216 53.8861 9.46842C53.8861 9.74469 53.7763 10.0096 53.581 10.205C53.3856 10.4003 53.1207 10.5101 52.8444 10.5101Z" fill="black"/>
<path d="M55.3132 91.2191H45.9382C45.6619 91.2191 45.3969 91.1093 45.2016 90.914C45.0062 90.7186 44.8965 90.4537 44.8965 90.1774C44.8965 89.9011 45.0062 89.6362 45.2016 89.4408C45.3969 89.2455 45.6619 89.1357 45.9382 89.1357H55.3132C55.5894 89.1357 55.8544 89.2455 56.0497 89.4408C56.2451 89.6362 56.3548 89.9011 56.3548 90.1774C56.3548 90.4537 56.2451 90.7186 56.0497 90.914C55.8544 91.1093 55.5894 91.2191 55.3132 91.2191Z" fill="black"/>
<path d="M86.0319 61.1462C85.7556 61.1462 85.4907 61.0364 85.2953 60.8411C85.1 60.6457 84.9902 60.3808 84.9902 60.1045V29.8962C84.9902 29.6199 85.1 29.3549 85.2953 29.1596C85.4907 28.9642 85.7556 28.8545 86.0319 28.8545C86.3082 28.8545 86.5731 28.9642 86.7685 29.1596C86.9638 29.3549 87.0736 29.6199 87.0736 29.8962V60.1045C87.0736 60.3808 86.9638 60.6457 86.7685 60.8411C86.5731 61.0364 86.3082 61.1462 86.0319 61.1462Z" fill="black"/>
<path d="M16.0514 61.1462C15.7752 61.1462 15.5102 61.0364 15.3149 60.8411C15.1195 60.6457 15.0098 60.3808 15.0098 60.1045V29.8962C15.0098 29.6199 15.1195 29.3549 15.3149 29.1596C15.5102 28.9642 15.7752 28.8545 16.0514 28.8545C16.3277 28.8545 16.5927 28.9642 16.788 29.1596C16.9834 29.3549 17.0931 29.6199 17.0931 29.8962V60.1045C17.0931 60.3808 16.9834 60.6457 16.788 60.8411C16.5927 61.0364 16.3277 61.1462 16.0514 61.1462Z" fill="black"/>
<path d="M51.041 69.7912C33.5723 69.7912 15.0098 66.4058 15.0098 60.1349C15.0098 56.1349 22.1868 53.8016 28.1973 52.5412C28.3313 52.5121 28.4698 52.5099 28.6048 52.5345C28.7398 52.5591 28.8685 52.6102 28.9837 52.6847C29.0989 52.7592 29.1982 52.8558 29.276 52.9688C29.3537 53.0818 29.4084 53.2091 29.4368 53.3433C29.4658 53.4781 29.4676 53.6173 29.4424 53.7528C29.4171 53.8883 29.3651 54.0175 29.2896 54.1328C29.214 54.2481 29.1163 54.3473 29.0021 54.4245C28.8879 54.5018 28.7595 54.5556 28.6243 54.5829C20.1139 56.3641 17.0931 58.687 17.0931 60.1349C17.0931 63.2599 30.0098 67.7079 51.041 67.7079C72.0723 67.7079 84.9889 63.2912 84.9889 60.1349C84.9889 58.687 81.9681 56.3641 73.4577 54.5829C73.3225 54.5556 73.1941 54.5018 73.08 54.4245C72.9658 54.3473 72.8681 54.2481 72.7925 54.1328C72.7169 54.0175 72.665 53.8883 72.6397 53.7528C72.6144 53.6173 72.6163 53.4781 72.6452 53.3433C72.6736 53.2091 72.7283 53.0818 72.8061 52.9688C72.8838 52.8558 72.9831 52.7592 73.0983 52.6847C73.2135 52.6102 73.3423 52.5591 73.4772 52.5345C73.6122 52.5099 73.7507 52.5121 73.8848 52.5412C79.8952 53.8016 87.0723 56.1349 87.0723 60.1349C87.0723 66.3745 68.5098 69.7912 51.041 69.7912Z" fill="black"/>
<path d="M51.041 39.5835C33.5723 39.5835 15.0098 36.1981 15.0098 29.9272C15.0098 27.1981 18.3118 24.9168 24.8327 23.146C25.0957 23.0847 25.3723 23.128 25.604 23.2667C25.8358 23.4054 26.0046 23.6287 26.0748 23.8895C26.1451 24.1503 26.1113 24.4281 25.9806 24.6645C25.85 24.9009 25.6326 25.0772 25.3743 25.1564C19.2702 26.8126 17.0931 28.7085 17.0931 29.9272C17.0931 33.0522 30.0098 37.5001 51.041 37.5001C72.0723 37.5001 84.9889 33.0939 84.9889 29.9272C84.9889 28.6772 82.7181 26.7397 76.3431 25.0626C76.2104 25.0284 76.0858 24.9684 75.9762 24.8861C75.8667 24.8037 75.7745 24.7006 75.7049 24.5826C75.5642 24.3442 75.524 24.0598 75.5931 23.7918C75.6622 23.5238 75.8349 23.2943 76.0732 23.1536C76.3115 23.013 76.596 22.9727 76.8639 23.0418C83.6348 24.8231 87.0723 27.146 87.0723 29.9272C87.0723 36.2085 68.5098 39.5835 51.041 39.5835Z" fill="black"/>
<path d="M73.6667 67.7087C73.3904 67.7087 73.1254 67.5989 72.9301 67.4036C72.7347 67.2082 72.625 66.9433 72.625 66.667V36.4587C72.625 36.1824 72.7347 35.9174 72.9301 35.7221C73.1254 35.5267 73.3904 35.417 73.6667 35.417C73.9429 35.417 74.2079 35.5267 74.4032 35.7221C74.5986 35.9174 74.7083 36.1824 74.7083 36.4587V66.667C74.7083 66.9433 74.5986 67.2082 74.4032 67.4036C74.2079 67.5989 73.9429 67.7087 73.6667 67.7087Z" fill="black"/>
<path d="M28.4167 67.7087C28.1404 67.7087 27.8754 67.5989 27.6801 67.4036C27.4847 67.2082 27.375 66.9433 27.375 66.667V36.4587C27.375 36.1824 27.4847 35.9174 27.6801 35.7221C27.8754 35.5267 28.1404 35.417 28.4167 35.417C28.6929 35.417 28.9579 35.5267 29.1532 35.7221C29.3486 35.9174 29.4583 36.1824 29.4583 36.4587V66.667C29.4583 66.9433 29.3486 67.2082 29.1532 67.4036C28.9579 67.5989 28.6929 67.7087 28.4167 67.7087Z" fill="black"/>
</svg>
