<svg width="100" height="100" viewBox="0 0 100 100" fill="none" xmlns="http://www.w3.org/2000/svg">
<path d="M71.1745 45.7627L59.0308 41.0096L58.1777 34.1783C58.0714 33.3189 57.2714 32.7189 56.4308 32.8221C55.5777 32.9283 54.9683 33.7096 55.0745 34.5658L56.0464 42.3189C56.1152 42.8877 56.4964 43.3721 57.0245 43.5814L70.0339 48.6721C71.512 49.2502 72.7245 50.2314 73.587 51.4627C74.6339 51.1533 75.6527 50.8252 76.6402 50.4783C75.4339 48.3814 73.5527 46.6908 71.1745 45.7627Z" fill="black"/>
<path d="M29.9648 48.6725L42.9711 43.5819C43.5023 43.3725 43.8805 42.8881 43.9492 42.3194L44.9211 34.5694C45.0273 33.7131 44.4211 32.9319 43.5648 32.8256C42.7211 32.7194 41.9273 33.3225 41.818 34.1819L40.9648 41.01L28.8242 45.7631C26.443 46.6944 24.5648 48.385 23.3555 50.4819C24.3398 50.8287 25.3617 51.1569 26.4086 51.4662C27.2711 50.235 28.4836 49.2506 29.9648 48.6725Z" fill="black"/>
<path d="M79.6879 61.8406C79.0785 61.8406 78.4973 61.4813 78.2473 60.8813C77.9129 60.0844 78.2879 59.1687 79.0848 58.8375C88.4035 54.9312 93.7504 49.4313 93.7504 43.75C93.7504 42.8875 94.4504 42.1875 95.3129 42.1875C96.1754 42.1875 96.8754 42.8875 96.8754 43.75C96.8754 50.7531 90.8285 57.3 80.291 61.7188C80.0942 61.8031 79.8879 61.8406 79.6879 61.8406Z" fill="black"/>
<path d="M20.2937 61.8312C20.0937 61.8312 19.8875 61.7937 19.6906 61.7094C9.1625 57.2937 3.125 50.75 3.125 43.75C3.125 42.8875 3.825 42.1875 4.6875 42.1875C5.55 42.1875 6.25 42.8875 6.25 43.75C6.25 49.4281 11.5906 54.925 20.9 58.8281C21.6969 59.1594 22.0719 60.0781 21.7375 60.8719C21.4844 61.4719 20.9031 61.8312 20.2937 61.8312Z" fill="black"/>
<path d="M79.6879 71.2156C79.0785 71.2156 78.4973 70.8563 78.2473 70.2563C77.9129 69.4594 78.2879 68.5437 79.0848 68.2125C88.4035 64.3062 93.7504 58.8063 93.7504 53.125C93.7504 52.2625 94.4504 51.5625 95.3129 51.5625C96.1754 51.5625 96.8754 52.2625 96.8754 53.125C96.8754 60.1281 90.8285 66.675 80.291 71.0938C80.0942 71.1781 79.8879 71.2156 79.6879 71.2156Z" fill="black"/>
<path d="M20.2937 71.2062C20.0937 71.2062 19.8875 71.1687 19.6906 71.0844C9.1625 66.6687 3.125 60.125 3.125 53.125C3.125 52.2625 3.825 51.5625 4.6875 51.5625C5.55 51.5625 6.25 52.2625 6.25 53.125C6.25 58.8031 11.5906 64.3 20.9 68.2031C21.6969 68.5344 22.0719 69.4531 21.7375 70.2469C21.4844 70.8469 20.9031 71.2062 20.2937 71.2062Z" fill="black"/>
<path d="M79.6866 80.5875C79.0772 80.5875 78.496 80.2281 78.246 79.6281C77.9147 78.8313 78.2866 77.9156 79.0835 77.5844C88.4022 73.6812 93.7491 68.1813 93.7491 62.5C93.7491 61.6375 94.4491 60.9375 95.3116 60.9375C96.1741 60.9375 96.8741 61.6375 96.8741 62.5C96.8741 69.5031 90.8272 76.05 80.2897 80.4656C80.0928 80.55 79.8866 80.5875 79.6866 80.5875Z" fill="black"/>
<path d="M20.2937 80.5812C20.0937 80.5812 19.8875 80.5437 19.6906 80.4594C9.1625 76.0437 3.125 69.5 3.125 62.5C3.125 61.6375 3.825 60.9375 4.6875 60.9375C5.55 60.9375 6.25 61.6375 6.25 62.5C6.25 68.1781 11.5906 73.675 20.9 77.5781C21.6969 77.9094 22.0719 78.8281 21.7375 79.6219C21.4844 80.2219 20.9031 80.5812 20.2937 80.5812Z" fill="black"/>
<path d="M50 96.875C23.7156 96.875 3.125 86.5812 3.125 73.4375V32.8125C3.125 31.95 3.825 31.25 4.6875 31.25C5.55 31.25 6.25 31.95 6.25 32.8125C6.25 43.8219 26.2844 53.125 50 53.125C73.7156 53.125 93.75 43.8219 93.75 32.8125C93.75 31.95 94.45 31.25 95.3125 31.25C96.175 31.25 96.875 31.95 96.875 32.8125V73.4375C96.875 86.5812 76.2844 96.875 50 96.875ZM6.25 41.3906V73.4375C6.25 84.4469 26.2844 93.75 50 93.75C73.7156 93.75 93.75 84.4469 93.75 73.4375V41.3906C87.0375 50.1687 70.2 56.25 50 56.25C29.8 56.25 12.9625 50.1687 6.25 41.3906Z" fill="black"/>
<path d="M20.3125 50.8753C20.1094 50.8753 19.9 50.8347 19.7094 50.7534C9.17188 46.3284 3.125 39.7909 3.125 32.8128C3.125 25.8315 9.17188 19.2909 19.7094 14.8722C20.1906 14.669 20.7437 14.7222 21.1781 15.0097C21.6125 15.3003 21.875 15.7878 21.875 16.3128V49.3128C21.875 49.8347 21.6125 50.3253 21.175 50.6159C20.9156 50.7878 20.6156 50.8753 20.3125 50.8753ZM18.75 18.7253C10.7719 22.544 6.25 27.6065 6.25 32.8128C6.25 38.0159 10.7719 43.0784 18.75 46.9003V18.7253Z" fill="black"/>
<path d="M79.6875 50.8752C79.3844 50.8752 79.0844 50.7877 78.825 50.6158C78.3875 50.3252 78.125 49.8377 78.125 49.3127V16.3127C78.125 15.7908 78.3875 15.3002 78.825 15.0096C79.2625 14.719 79.8063 14.669 80.2938 14.8721C90.8281 19.2908 96.875 25.8315 96.875 32.8127C96.875 39.7908 90.8281 46.3283 80.2906 50.7533C80.1 50.8377 79.8906 50.8752 79.6875 50.8752ZM81.25 18.7252V46.9033C89.2281 43.0783 93.75 38.019 93.75 32.8158C93.75 27.6065 89.2281 22.544 81.25 18.7252Z" fill="black"/>
<path d="M40.1844 14.1062C40.4719 12.2219 41.175 10.3937 42.9125 8.65C44.5062 7.05937 46.8906 6.25 50 6.25C53.1094 6.25 55.4937 7.05938 57.0875 8.65313C58.825 10.3938 59.5281 12.225 59.8156 14.1062C61.1625 14.2344 62.3375 14.9187 63.1094 15.9406C63.0031 12.8906 62.3813 9.53125 59.2969 6.44375C57.0969 4.24063 53.9687 3.125 50 3.125C46.0312 3.125 42.9031 4.24063 40.7 6.44375C37.6219 9.53438 36.9969 12.8906 36.8906 15.9438C37.6656 14.9188 38.8406 14.2344 40.1844 14.1062Z" fill="black"/>
<path d="M40.9492 26.5627H40.6242C39.4242 26.5627 38.343 26.0971 37.5117 25.3564C38.3336 30.0439 39.9492 33.3439 42.4336 35.2783C43.118 35.8033 44.093 35.6846 44.6273 35.0064C45.1586 34.3252 45.0367 33.3439 44.3555 32.8127C42.8023 31.6033 41.6742 29.4908 40.9492 26.5627Z" fill="black"/>
<path d="M59.375 26.5621H59.0531C57.125 34.3402 52.6781 34.3746 50 34.3746C49.1375 34.3746 48.4375 35.0746 48.4375 35.9371C48.4375 36.7996 49.1375 37.4996 50 37.4996C57.075 37.4996 61.0812 33.6715 62.5125 25.334C61.6781 26.0902 60.5875 26.5621 59.375 26.5621Z" fill="black"/>
<path d="M59.375 28.125H40.625C37.1781 28.125 34.375 25.3219 34.375 21.875V18.75C34.375 15.3031 37.1781 12.5 40.625 12.5H59.375C62.8219 12.5 65.625 15.3031 65.625 18.75V21.875C65.625 25.3219 62.8219 28.125 59.375 28.125ZM40.625 15.625C38.9 15.625 37.5 17.0281 37.5 18.75V21.875C37.5 23.5969 38.9 25 40.625 25H59.375C61.1 25 62.5 23.5969 62.5 21.875V18.75C62.5 17.0281 61.1 15.625 59.375 15.625H40.625Z" fill="black"/>
<path d="M51.6147 90.5348C50.8335 90.5348 50.1553 89.9473 50.0647 89.1504C49.9678 88.2942 50.5835 87.5192 51.4397 87.4223C56.1522 86.8817 60.2178 83.6379 61.7928 79.1536C62.0803 78.3411 62.9678 77.9129 63.7866 78.1973C64.6022 78.4848 65.0272 79.3754 64.7428 80.1911C62.7678 85.7942 57.6866 89.8504 51.7928 90.5254C51.7335 90.5317 51.6741 90.5348 51.6147 90.5348Z" fill="black"/>
<path d="M63.9742 75.0096C63.1898 75.0096 62.5117 74.419 62.4242 73.619C62.2117 71.6784 61.5336 69.7877 60.4586 68.1534C59.9867 67.4315 60.1867 66.4627 60.9086 65.9909C61.6242 65.5159 62.5961 65.7127 63.0711 66.4409C64.4148 68.4846 65.2648 70.8502 65.5305 73.2784C65.6242 74.1346 65.0055 74.9065 64.1461 75.0002C64.0898 75.0065 64.0305 75.0096 63.9742 75.0096Z" fill="black"/>
<path d="M45.2 89.7844C45.0219 89.7844 44.8438 89.7531 44.6656 89.6906C38.5094 87.4563 34.375 81.5531 34.375 75C34.375 66.3844 41.3844 59.375 50 59.375C52.4531 59.375 54.8031 59.9281 56.9812 61.0156C57.7531 61.4031 58.0656 62.3406 57.6813 63.1125C57.2969 63.8875 56.3625 64.1938 55.5844 63.8125C53.8406 62.9406 51.9656 62.5 50 62.5C43.1062 62.5 37.5 68.1062 37.5 75C37.5 80.2406 40.8094 84.9656 45.7344 86.7562C46.5469 87.05 46.9656 87.9469 46.6687 88.7594C46.4375 89.3906 45.8375 89.7844 45.2 89.7844Z" fill="black"/>
<path d="M50 82.8125C45.6906 82.8125 42.1875 79.3062 42.1875 75C42.1875 74.1375 42.8875 73.4375 43.75 73.4375C44.6125 73.4375 45.3125 74.1375 45.3125 75C45.3125 77.5844 47.4156 79.6875 50 79.6875C52.5844 79.6875 54.6875 77.5844 54.6875 75C54.6875 72.4156 52.5844 70.3125 50 70.3125C49.1375 70.3125 48.4375 69.6125 48.4375 68.75C48.4375 67.8875 49.1375 67.1875 50 67.1875C54.3094 67.1875 57.8125 70.6937 57.8125 75C57.8125 79.3062 54.3094 82.8125 50 82.8125Z" fill="black"/>
</svg>
