<svg width="100" height="100" viewBox="0 0 100 100" fill="none" xmlns="http://www.w3.org/2000/svg">
<g clip-path="url(#clip0_148_152)">
<path d="M93.4381 50.012C95.5423 45.8174 97.1986 41.6006 98.3484 37.4456C101.953 24.4268 100.208 13.5252 93.432 6.75025C86.6571 -0.0246637 75.7554 -1.77103 62.7366 1.83386C58.5816 2.98361 54.3648 4.64072 50.1702 6.74414C44.9517 4.12497 39.7255 2.20846 34.6901 1.10449C22.9943 -1.45899 13.1363 0.546016 6.93284 6.75025C2.95105 10.732 0.641633 16.3267 0.255585 22.9299C-0.0915531 28.8702 1.11237 35.687 3.73612 42.7091C1.58158 44.4128 0.195312 47.0465 0.195312 49.9998C0.195312 52.9531 1.58158 55.5868 3.73612 57.2905C1.11237 64.3126 -0.0915531 71.1302 0.255585 77.0697C0.642395 83.6729 2.95105 89.2676 6.93284 93.2494C11.3793 97.6965 17.6178 99.9892 25.1534 99.9892C26.6663 99.9892 28.2318 99.8969 29.8462 99.7107C36.3076 98.9653 43.2114 96.7642 50.1801 93.26C54.3717 95.3619 58.5854 97.0168 62.7366 98.1658C67.167 99.3926 71.3525 99.9999 75.2137 99.9999C82.6974 99.9999 88.9627 97.7187 93.432 93.2494C99.6362 87.0459 101.641 77.188 99.0777 65.4913C97.9738 60.4567 96.0572 55.2305 93.4381 50.012ZM63.5194 4.66208C75.4754 1.35168 85.3616 2.83026 91.3568 8.82544C97.352 14.8206 98.8305 24.7068 95.5201 36.6628C94.5932 40.0122 93.3198 43.4072 91.736 46.7993C88.8978 41.7097 85.4074 36.6667 81.363 31.8563C82.602 30.277 83.3436 28.2896 83.3436 26.1312C83.3436 24.0446 82.6684 22.0731 81.3897 20.4298L79.0734 22.2311C79.9478 23.3549 80.4093 24.7038 80.4093 26.1312C80.4093 29.6377 77.5567 32.4896 74.051 32.4896C70.5453 32.4896 67.6926 29.6377 67.6926 26.1312C67.6926 22.6247 70.5453 19.7729 74.051 19.7729C75.1954 19.7729 76.3177 20.0796 77.295 20.6609L78.795 18.1387C77.3637 17.288 75.7234 16.8378 74.051 16.8378C71.8926 16.8378 69.9052 17.5802 68.3267 18.8192C63.5155 14.7749 58.4725 11.2844 53.3829 8.4455C56.775 6.8624 60.1701 5.58905 63.5194 4.66208ZM9.00804 8.82544C16.9419 0.891628 31.4896 1.18765 46.9697 8.43711C39.4127 12.6516 32.0008 18.2951 25.2388 25.0562C20.2248 30.0703 15.8119 35.4559 12.1048 41.078C11.2694 40.8354 10.3905 40.7064 9.48869 40.7064C8.37861 40.7064 7.31431 40.9033 6.3263 41.2611C1.24207 27.4038 2.19422 15.6385 9.00804 8.82544ZM25.2297 97.0442C18.5913 97.0442 12.9479 95.114 9.00727 91.1742C2.19422 84.3611 1.2413 72.5966 6.3263 58.7385C7.31431 59.0971 8.37861 59.2932 9.48869 59.2932C10.3958 59.2932 11.2717 59.1597 12.1018 58.9163C15.8089 64.5407 20.2233 69.9278 25.2388 74.9434C31.9985 81.7023 39.4082 87.3442 46.9628 91.5587C39.2029 95.1903 31.7376 97.045 25.2297 97.0442ZM50.174 89.9619C42.2478 85.7985 34.4208 79.9742 27.314 72.8682C22.5388 68.0922 18.3266 62.9744 14.7751 57.6368C17.1936 55.9576 18.7813 53.1614 18.7813 50.0006C18.7813 49.7251 18.7699 49.4467 18.7454 49.1728L15.8219 49.4314C15.8386 49.6191 15.847 49.8098 15.847 49.9998C15.847 53.5063 12.9944 56.3582 9.48869 56.3582C5.98298 56.3582 3.13034 53.5063 3.13034 49.9998C3.13034 46.4933 5.98298 43.6415 9.48869 43.6415C11.9103 43.6415 14.09 44.9873 15.1764 47.1533L17.7994 45.838C17.0822 44.4075 16.037 43.2226 14.7812 42.3521C18.3319 37.0191 22.5418 31.9036 27.314 27.1314C34.4223 20.0231 42.2524 14.1973 50.1809 10.0339C55.5772 12.8744 61.0368 16.5365 66.3262 20.9715C65.3359 22.4485 64.7576 24.2231 64.7576 26.1312C64.7576 31.2551 68.9271 35.4238 74.051 35.4238C75.9591 35.4238 77.7337 34.8455 79.2108 33.8552C83.6457 39.1447 87.3071 44.6051 90.1475 50.0006C85.9841 57.929 80.1583 65.7591 73.0508 72.8682C72.2688 73.6494 71.4654 74.4261 70.6536 75.1868C69.0339 73.8165 66.9427 72.988 64.66 72.988C62.5733 72.988 60.6019 73.6639 58.9585 74.9418L60.7606 77.2581C61.8836 76.3846 63.2325 75.923 64.66 75.9222C68.1657 75.9222 71.0183 78.7749 71.0183 82.2806C71.0183 85.787 68.1657 88.6389 64.66 88.6389C61.1543 88.6389 58.3016 85.787 58.3016 82.2806C58.3016 81.1362 58.6083 80.0146 59.1897 79.0373L56.6674 77.5366C55.8167 78.9679 55.3666 80.6082 55.3666 82.2806C55.3666 83.7531 55.7122 85.1447 56.3241 86.3829C54.2679 87.6952 52.2141 88.8884 50.174 89.9619ZM91.3568 91.1742C85.3616 97.1701 75.4754 98.6479 63.5194 95.3383C60.1723 94.4113 56.7803 93.1395 53.3906 91.5572C54.9363 90.6935 56.4828 89.7665 58.0247 88.7793C59.7131 90.502 62.0629 91.574 64.66 91.574C69.7839 91.574 73.9533 87.4052 73.9533 82.2813C73.9533 80.4968 73.4467 78.8298 72.5717 77.4123C73.4368 76.6028 74.2928 75.7757 75.1252 74.9434C81.8872 68.1807 87.5299 60.7687 91.7451 53.2118C98.9946 68.6926 99.2906 83.2404 91.3568 91.1742Z" fill="black"/>
<path d="M74.2458 65.1629H71.2139V57.7692C71.2139 54.4992 69.0158 51.5955 65.8687 50.7074L64.7716 50.3984L63.9751 53.2228L65.0722 53.5326C66.9597 54.0651 68.2788 55.8069 68.2788 57.7692V65.1629H62.9962V61.1521H60.062V65.1629H46.8555V68.0971H74.2458V65.1629Z" fill="black"/>
<path d="M55.0361 50.701L61.1518 52.4267L61.9491 49.6016L55.9547 47.9109V44.0138C58.6685 42.1629 60.4545 39.0478 60.4545 35.5223V31.2178C60.4545 25.5544 55.8471 20.9463 50.183 20.9463C44.5197 20.9463 39.9116 25.5544 39.9116 31.2178V35.5223C39.9116 39.0478 41.6976 42.1629 44.4114 44.0138V47.9109L34.4962 50.7071C31.3491 51.5951 29.1511 54.4989 29.1511 57.7688V65.1625H26.1191V68.0968H43.9224V65.1625H40.303V61.1517H37.3687V65.1625H32.0861V57.7688C32.0861 55.8066 33.4052 54.0648 35.2927 53.5322L45.33 50.7017C46.5659 52.0537 48.3115 52.8372 50.183 52.8372C52.0545 52.8372 53.8009 52.0529 55.0361 50.701ZM50.183 23.8813C54.2282 23.8813 57.5195 27.1726 57.5195 31.2185V32.8527L54.4349 28.7725H43.267C44.2764 25.926 46.9947 23.8813 50.183 23.8813ZM42.8466 35.5223V31.7076H52.9746L57.2761 37.396C56.4453 40.5371 53.5804 42.8587 50.183 42.8587C46.1379 42.8587 42.8466 39.5674 42.8466 35.5223ZM47.3464 48.5479V45.3917C48.2475 45.6518 49.1988 45.7937 50.183 45.7937C51.1672 45.7937 52.1179 45.6518 53.0197 45.3917V48.5479C52.33 49.4017 51.2969 49.9022 50.183 49.9022C49.0691 49.9022 48.0354 49.4017 47.3464 48.5479Z" fill="black"/>
<path d="M57.9324 57.6162L53.7988 56.4504L54.5961 53.626L58.7289 54.7917L57.9324 57.6162Z" fill="black"/>
<path d="M64.3736 56.3795L63.5764 59.2039L60.752 58.4074L61.5492 55.583L64.3736 56.3795Z" fill="black"/>
<path d="M72.584 24.6641H75.5183V27.5991H72.584V24.6641Z" fill="black"/>
<path d="M63.1934 80.8145H66.1276V83.7487H63.1934V80.8145Z" fill="black"/>
<path d="M8.02148 48.5332H10.9565V51.4675H8.02148V48.5332Z" fill="black"/>
</g>
<defs>
<clipPath id="clip0_148_152">
<rect width="100" height="100" fill="white"/>
</clipPath>
</defs>
</svg>
