<svg width="100" height="100" viewBox="0 0 100 100" fill="none" xmlns="http://www.w3.org/2000/svg">
<g clip-path="url(#clip0_148_145)">
<path d="M19.354 48.3871H25.8056V45.1613H19.354C13.1284 45.1613 8.0637 40.095 8.0637 33.871C8.0637 27.647 13.1284 22.5806 19.354 22.5806C20.822 22.5806 22.2443 22.8563 23.5863 23.4013L24.7991 20.4109C23.072 19.7116 21.2394 19.3548 19.354 19.3548C19.354 12.2401 25.1425 6.45161 32.2572 6.45161C36.3249 6.45161 40.1044 8.37402 42.5411 11.6014C41.8929 12.9017 41.3558 14.2759 40.9833 15.7274L44.1075 16.5307C46.1236 8.69849 53.1896 3.22581 61.2895 3.22581C71.0717 3.22581 79.0314 11.1856 79.0314 20.9677V22.5806H80.6443C86.8699 22.5806 91.9347 27.647 91.9347 33.871C91.9347 40.095 86.8699 45.1613 80.6443 45.1613H70.9669V48.3871H80.6443C88.6474 48.3871 95.1605 41.8756 95.1605 33.871C95.1605 26.3916 89.4767 20.218 82.2021 19.4383C81.4169 8.58745 72.3365 0 61.2895 0C54.4118 0 48.1784 3.35024 44.3217 8.66463C41.2802 5.23091 36.914 3.22581 32.2572 3.22581C23.3634 3.22581 16.1282 10.461 16.1282 19.3548C16.1282 19.4793 16.1463 19.5998 16.1495 19.7242C9.68448 21.189 4.83789 26.9697 4.83789 33.871C4.83789 41.8756 11.3509 48.3871 19.354 48.3871Z" fill="black"/>
<path d="M14.5168 33.8712C14.5168 31.2037 16.6881 29.0324 19.3555 29.0324V25.8066C14.909 25.8066 11.291 29.4246 11.291 33.8712H14.5168Z" fill="black"/>
<path d="M88.7096 63.1985L81.5642 64.6468L81.324 65.6454C80.5404 68.8948 79.2551 71.9915 77.5067 74.8503L76.9696 75.7261L81.0003 81.8083L73.7422 89.0664L67.6615 85.0357L66.7858 85.5712C63.9223 87.3227 60.8256 88.6064 57.5793 89.3885L56.5807 89.6271L55.134 96.7741H44.8675L43.4192 89.6271L42.419 89.3885C39.1743 88.6064 36.076 87.3227 33.2125 85.5712L32.3368 85.0357L26.2561 89.0664L18.998 81.8083L23.0287 75.7261L22.4916 74.8503C20.7432 71.9915 19.4595 68.8948 18.6743 65.6454L18.4341 64.6468L11.2903 63.1985V58.0645H8.06445V65.8336L15.7966 67.4032C16.5818 70.2841 17.7277 73.0484 19.2146 75.6418L14.8531 82.2226L25.8418 93.2097L32.4226 88.8482C35.0207 90.3351 37.7835 91.4826 40.6627 92.2646L42.2308 99.9999H57.7707L59.3387 92.2662C62.218 91.4842 64.9807 90.3367 67.5789 88.8498L74.1596 93.2113L85.1483 82.2241L80.7869 75.6434C82.2722 73.05 83.4196 70.2857 84.2048 67.4048L91.9354 65.8336V58.0645H88.7096V63.1985Z" fill="black"/>
<path d="M20.9668 58.0645C20.9668 74.0722 33.9913 87.0967 49.9991 87.0967C66.0068 87.0967 79.0313 74.0722 79.0313 58.0645H75.8055C75.8055 72.2931 64.2277 83.8709 49.9991 83.8709C35.7704 83.8709 24.1926 72.2931 24.1926 58.0645H20.9668Z" fill="black"/>
<path d="M55.7724 19.5044C51.2849 21.5883 48.3867 26.0679 48.3867 30.9144C48.3867 35.4161 50.8864 39.6019 54.8383 41.8433V67.7419C54.8383 71.3 57.7318 74.1935 61.2899 74.1935C64.8481 74.1935 67.7416 71.3 67.7416 67.7419V41.8433C71.6935 39.5995 74.1932 35.4161 74.1932 30.9144C74.1932 26.0679 71.295 21.5883 66.8075 19.5044L64.5158 18.4404V27.8706L58.0641 30.0206V18.4404L55.7724 19.5044ZM67.7416 30.1954V23.921C69.7561 25.6835 70.9674 28.2242 70.9674 30.9144C70.9674 34.5096 68.8016 37.8417 65.4498 39.3979L64.5158 39.8319V67.7419C64.5158 69.521 63.069 70.9677 61.2899 70.9677C59.5109 70.9677 58.0641 69.521 58.0641 67.7419V39.8319L57.1301 39.3964C53.7783 37.8417 51.6125 34.5096 51.6125 30.9144C51.6125 28.2242 52.8238 25.6835 54.8383 23.921V34.497L67.7416 30.1954Z" fill="black"/>
<path d="M29.0332 44.1643V53.2258H32.259V69.8439L37.0977 77.102L41.9364 69.8439V53.2258H45.1622V44.1643L41.9364 42.5514V41.3197L45.1622 39.7067V29.0323C45.1622 24.5858 41.5442 20.9678 37.0977 20.9678C32.6512 20.9678 29.0332 24.5858 29.0332 29.0323V39.7067L32.259 41.3197V42.5514L29.0332 44.1643ZM38.7106 68.8658L37.0977 71.2852L35.4848 68.8658V53.2258H38.7106V68.8658ZM32.259 29.0323C32.259 26.3649 34.4303 24.1936 37.0977 24.1936C39.7652 24.1936 41.9364 26.3649 41.9364 29.0323V37.7127L38.7106 39.3256V41.9355H35.4848V39.3256L32.259 37.7127V29.0323ZM34.2523 45.1613H39.9416L41.9364 46.1584V50H32.259V46.1584L34.2523 45.1613Z" fill="black"/>
</g>
<defs>
<clipPath id="clip0_148_145">
<rect width="100" height="100" fill="white"/>
</clipPath>
</defs>
</svg>
