<svg width="100" height="100" viewBox="0 0 100 100" fill="none" xmlns="http://www.w3.org/2000/svg">
<g clip-path="url(#clip0_148_187)">
<path d="M61.6543 17.7246C61.6694 14.7706 60.1019 12.0354 57.5469 10.5542C54.9911 9.07306 51.8385 9.07306 49.2835 10.5542C46.7277 12.0354 45.161 14.7706 45.1761 17.7246C45.1342 21.635 47.8819 25.0207 51.7178 25.7852V41.9969C47.8811 42.7605 45.1308 46.1462 45.1702 50.0574C45.1711 53.9444 47.8861 57.3032 51.6867 58.1188L51.7044 74.3238C47.5752 75.1872 44.7645 79.0289 45.1912 83.2252C45.6178 87.4223 49.1443 90.6193 53.3624 90.6336C57.5805 90.6478 61.1288 87.4751 61.5848 83.2813C62.0399 79.0876 59.2553 75.2274 55.1328 74.3356L55.1093 58.118C58.9158 57.3166 61.6443 53.9637 61.6543 50.0742C61.6644 46.1839 58.9535 42.8167 55.1512 41.9969V25.7852C58.9317 24.9419 61.6292 21.5981 61.6543 17.7246ZM48.5819 17.7246C48.5819 15.069 50.7345 12.9164 53.3901 12.9156C56.0456 12.9156 58.1982 15.0682 58.1982 17.7229C58.1991 20.3785 56.0465 22.5319 53.3917 22.5328C50.737 22.5303 48.5852 20.3793 48.5819 17.7246ZM58.1982 82.3903C58.1982 85.0458 56.0456 87.1993 53.3892 87.1993C50.7337 87.1984 48.581 85.0458 48.5819 82.3894C48.5819 79.7339 50.7353 77.5812 53.3917 77.5821C56.0448 77.5863 58.1949 79.7372 58.1982 82.3903ZM58.1982 50.0574C58.1982 52.713 56.0448 54.8656 53.3892 54.8656C50.7337 54.8656 48.581 52.7122 48.5819 50.0566C48.5819 47.4002 50.7353 45.2484 53.3917 45.2493C56.0448 45.2526 58.1949 47.4035 58.1982 50.0574Z" fill="black"/>
<path d="M90.344 11.4306C90.344 10.4825 89.5753 9.71387 88.6273 9.71387H67.3827C66.4347 9.71387 65.666 10.4825 65.666 11.4306V23.8769C65.666 24.8249 66.4347 25.5936 67.3827 25.5936H88.6273C89.5753 25.5936 90.344 24.8249 90.344 23.8769V11.4306ZM69.0995 13.1473H86.9105V22.1601H69.0995V13.1473Z" fill="black"/>
<path d="M100.001 43.8339C100.001 42.8859 99.2319 42.1172 98.2839 42.1172H67.3827C66.4347 42.1172 65.666 42.8859 65.666 43.8339V56.2802C65.666 57.2283 66.4347 57.9969 67.3827 57.9969H98.2839C99.2319 57.9969 100.001 57.2283 100.001 56.2802V43.8339ZM96.5671 54.5635H69.0995V45.5506H96.5671V54.5635Z" fill="black"/>
<path d="M90.344 76.2372C90.344 75.2892 89.5753 74.5205 88.6273 74.5205H67.3827C66.4347 74.5205 65.666 75.2892 65.666 76.2372V88.6835C65.666 89.6316 66.4347 90.4002 67.3827 90.4002H88.6273C89.5753 90.4002 90.344 89.6316 90.344 88.6835V76.2372ZM86.9105 86.9668H69.0995V77.954H86.9105V86.9668Z" fill="black"/>
<path d="M37.9044 36.2121L20.033 30.4433C19.6935 30.3327 19.3281 30.3327 18.9886 30.4433L1.144 36.2121C0.444899 36.446 -0.0194892 37.1099 0.000628763 37.8467V62.2665C-0.0169744 63.0042 0.448252 63.6672 1.14903 63.9011L19.0188 69.6699C19.1856 69.7252 19.3599 69.7529 19.5351 69.7529C19.7128 69.7529 19.8889 69.7252 20.0573 69.6699L37.907 63.9003C38.6069 63.6672 39.073 63.0042 39.0562 62.2665V37.8467C39.0721 37.1082 38.6052 36.4452 37.9044 36.2121ZM19.5251 33.8801L31.823 37.8467L19.5251 41.8125L7.22715 37.8467L19.5251 33.8801ZM3.43409 40.2039L17.5971 44.7983V65.6111L3.43409 61.0167V40.2039ZM21.0306 65.7477V44.9349L35.6227 40.2039V61.0167L21.0306 65.7477Z" fill="black"/>
</g>
<defs>
<clipPath id="clip0_148_187">
<rect width="100" height="100" fill="white"/>
</clipPath>
</defs>
</svg>
