<svg width="100" height="100" viewBox="0 0 100 100" fill="none" xmlns="http://www.w3.org/2000/svg">
<path d="M65.625 79.6875C66.4879 79.6875 67.1875 78.9879 67.1875 78.125C67.1875 77.2621 66.4879 76.5625 65.625 76.5625C64.7621 76.5625 64.0625 77.2621 64.0625 78.125C64.0625 78.9879 64.7621 79.6875 65.625 79.6875Z" fill="black"/>
<path d="M4.6875 43.3594H13.652L21.1425 49.3522C21.3148 49.4902 21.5227 49.5767 21.742 49.6018C21.9614 49.6268 22.1834 49.5894 22.3824 49.4938C22.5814 49.3982 22.7494 49.2483 22.8669 49.0615C22.9845 48.8746 23.0469 48.6583 23.0469 48.4375V43.3594H26.5625C27.7017 43.3582 28.794 42.9051 29.5996 42.0996C30.4051 41.294 30.8582 40.2017 30.8594 39.0625V20.3125C30.8582 19.1733 30.4051 18.081 29.5996 17.2754C28.794 16.4699 27.7017 16.0168 26.5625 16.0156H4.6875C3.54825 16.0168 2.456 16.4699 1.65043 17.2754C0.84486 18.081 0.391783 19.1733 0.390625 20.3125V39.0625C0.391783 40.2017 0.84486 41.294 1.65043 42.0996C2.456 42.9051 3.54825 43.3582 4.6875 43.3594ZM2.73438 20.3125C2.73483 19.7946 2.94075 19.2981 3.30693 18.9319C3.67312 18.5658 4.16964 18.3598 4.6875 18.3594H26.5625C27.0804 18.3598 27.5769 18.5658 27.9431 18.9319C28.3092 19.2981 28.5152 19.7946 28.5156 20.3125V39.0625C28.5152 39.5804 28.3092 40.0769 27.9431 40.4431C27.5769 40.8092 27.0804 41.0152 26.5625 41.0156H21.875C21.5642 41.0156 21.2661 41.1391 21.0464 41.3589C20.8266 41.5786 20.7031 41.8767 20.7031 42.1875V46L14.795 41.2728C14.5871 41.1065 14.3288 41.0158 14.0625 41.0156H4.6875C4.16964 41.0152 3.67312 40.8092 3.30693 40.4431C2.94075 40.0769 2.73483 39.5804 2.73438 39.0625V20.3125Z" fill="black"/>
<path d="M9.375 37.1092C9.5567 37.1091 9.73588 37.0668 9.89844 36.9856L22.3984 30.7356C22.5932 30.6383 22.7569 30.4887 22.8714 30.3035C22.9859 30.1184 23.0465 29.905 23.0465 29.6873C23.0465 29.4696 22.9859 29.2562 22.8714 29.0711C22.7569 28.8859 22.5932 28.7363 22.3984 28.639L9.89844 22.389C9.71979 22.2998 9.52131 22.2578 9.32184 22.2668C9.12237 22.2759 8.92852 22.3358 8.75869 22.4408C8.58886 22.5458 8.44867 22.6925 8.35144 22.8669C8.25421 23.0413 8.20316 23.2376 8.20313 23.4373V35.9373C8.20296 36.0912 8.23316 36.2437 8.29199 36.386C8.35083 36.5282 8.43714 36.6575 8.54599 36.7663C8.65484 36.8752 8.7841 36.9615 8.92635 37.0203C9.0686 37.0791 9.22106 37.1093 9.375 37.1092ZM10.5469 25.3332L19.255 29.6873L10.5469 34.0414V25.3332Z" fill="black"/>
<path d="M70.1787 46.3306C70.2895 46.2222 70.3776 46.0929 70.438 45.9503C70.4985 45.8076 70.53 45.6543 70.5308 45.4994C70.5317 45.3445 70.5018 45.1909 70.4428 45.0476C70.3839 44.9043 70.2972 44.7741 70.1876 44.6645C70.0781 44.555 69.9479 44.4682 69.8045 44.4093C69.6612 44.3504 69.5077 44.3205 69.3527 44.3213C69.1978 44.3221 69.0446 44.3537 68.9019 44.4141C68.7592 44.4745 68.6299 44.5627 68.5216 44.6734C67.852 45.3128 66.9618 45.6696 66.0359 45.6696C65.1101 45.6696 64.2199 45.3128 63.5503 44.6734C63.4419 44.5627 63.3127 44.4745 63.17 44.4141C63.0273 44.3537 62.8741 44.3221 62.7191 44.3213C62.5642 44.3205 62.4106 44.3504 62.2673 44.4093C62.124 44.4682 61.9938 44.555 61.8842 44.6645C61.7747 44.7741 61.6879 44.9043 61.629 45.0476C61.5701 45.1909 61.5402 45.3445 61.541 45.4994C61.5419 45.6543 61.5734 45.8076 61.6338 45.9503C61.6943 46.0929 61.7824 46.2222 61.8931 46.3306C62.4371 46.8748 63.0829 47.3065 63.7938 47.601C64.5046 47.8955 65.2665 48.0471 66.0359 48.0471C66.8054 48.0471 67.5673 47.8955 68.2781 47.601C68.9889 47.3065 69.6348 46.8748 70.1787 46.3306Z" fill="black"/>
<path d="M73.8477 34.375C74.7106 34.375 75.4102 33.6754 75.4102 32.8125C75.4102 31.9496 74.7106 31.25 73.8477 31.25C72.9847 31.25 72.2852 31.9496 72.2852 32.8125C72.2852 33.6754 72.9847 34.375 73.8477 34.375Z" fill="black"/>
<path d="M58.2227 34.375C59.0856 34.375 59.7852 33.6754 59.7852 32.8125C59.7852 31.9496 59.0856 31.25 58.2227 31.25C57.3597 31.25 56.6602 31.9496 56.6602 32.8125C56.6602 33.6754 57.3597 34.375 58.2227 34.375Z" fill="black"/>
<path d="M66.0352 41.7969C66.346 41.7969 66.644 41.6734 66.8638 41.4536C67.0836 41.2339 67.207 40.9358 67.207 40.625V37.5C67.207 37.1892 67.0836 36.8911 66.8638 36.6714C66.644 36.4516 66.346 36.3281 66.0352 36.3281C65.7244 36.3281 65.4263 36.4516 65.2065 36.6714C64.9867 36.8911 64.8633 37.1892 64.8633 37.5V40.625C64.8633 40.9358 64.9867 41.2339 65.2065 41.4536C65.4263 41.6734 65.7244 41.7969 66.0352 41.7969Z" fill="black"/>
<path d="M28.125 80.8594C29.5929 80.8594 31.0279 80.4241 32.2484 79.6086C33.4689 78.793 34.4202 77.6339 34.9819 76.2777C35.5437 74.9216 35.6906 73.4293 35.4043 71.9896C35.1179 70.5499 34.411 69.2274 33.3731 68.1894C32.3351 67.1515 31.0126 66.4446 29.5729 66.1582C28.1332 65.8719 26.6409 66.0188 25.2848 66.5806C23.9286 67.1423 22.7695 68.0936 21.9539 69.3141C21.1384 70.5347 20.7031 71.9696 20.7031 73.4375C20.7054 75.4052 21.4881 77.2917 22.8795 78.6831C24.2708 80.0744 26.1573 80.8571 28.125 80.8594ZM28.125 68.3594C29.1294 68.3594 30.1112 68.6572 30.9463 69.2152C31.7813 69.7732 32.4322 70.5663 32.8166 71.4942C33.2009 72.4221 33.3015 73.4431 33.1055 74.4282C32.9096 75.4133 32.426 76.3181 31.7158 77.0283C31.0056 77.7385 30.1008 78.2221 29.1157 78.4181C28.1306 78.614 27.1096 78.5134 26.1817 78.1291C25.2538 77.7447 24.4607 77.0939 23.9027 76.2588C23.3447 75.4237 23.0469 74.4419 23.0469 73.4375C23.0484 72.0912 23.584 70.8005 24.536 69.8485C25.488 68.8965 26.7787 68.3609 28.125 68.3594Z" fill="black"/>
<path d="M82.6278 58.4449L78.9794 57.0762C79.2235 56.7015 79.4074 56.2909 79.5244 55.8593H83.223C84.3622 55.8581 85.4545 55.4051 86.26 54.5995C87.0656 53.7939 87.5187 52.7017 87.5198 51.5624V42.3493C88.0063 41.9504 88.3986 41.4489 88.6688 40.8806C88.9389 40.3124 89.0801 39.6916 89.0823 39.0624V32.8124C89.079 31.7527 88.6812 30.7322 87.9666 29.9498C88.1786 29.097 88.2909 28.2224 88.3011 27.3437C88.2998 25.1772 87.9809 23.0227 87.3548 20.9487C88.7095 20.4702 89.9295 19.6734 90.9122 18.6253C91.8948 17.5772 92.6114 16.3085 93.0017 14.9258C93.392 13.5431 93.4446 12.0869 93.155 10.6797C92.8654 9.27252 92.2421 7.95542 91.3376 6.83921C90.4331 5.72299 89.2737 4.8403 87.9571 4.26538C86.6404 3.69045 85.205 3.4401 83.7714 3.53538C82.3379 3.63066 80.9482 4.06878 79.7192 4.81291C78.4902 5.55703 77.4579 6.58538 76.7091 7.81149C73.3193 5.95584 69.5047 5.0149 65.6408 5.08132C61.777 5.14773 57.997 6.2192 54.673 8.19025C51.349 10.1613 48.5956 12.964 46.6838 16.3224C44.772 19.6808 43.7677 23.4792 43.7698 27.3437C43.7798 28.2223 43.8922 29.0967 44.1048 29.9493C43.3898 30.7317 42.9918 31.7525 42.9886 32.8124V39.0624C42.9897 40.2017 43.4428 41.2939 44.2484 42.0995C45.054 42.9051 46.1462 43.3581 47.2855 43.3593H50.3141C51.6517 46.9251 54.1569 49.933 57.4219 51.8935V54.2373L56.1884 55.6079L55.3933 55.906C55.0404 55.1906 54.4949 54.5878 53.8181 54.1655C53.1414 53.7432 52.3602 53.5181 51.5625 53.5156H4.6875C3.54825 53.5167 2.456 53.9698 1.65043 54.7754C0.84486 55.5809 0.391783 56.6732 0.390625 57.8124V98.4374C0.390625 98.7482 0.51409 99.0463 0.733859 99.2661C0.953628 99.4858 1.2517 99.6093 1.5625 99.6093H78.125C78.4358 99.6093 78.7339 99.4858 78.9536 99.2661C79.1734 99.0463 79.2969 98.7482 79.2969 98.4374V96.6473L90.4678 99.3071C91.0357 99.4427 91.6174 99.5113 92.2012 99.5117C94.1672 99.5066 96.051 98.7222 97.4397 97.3306C98.8283 95.9389 99.6086 94.0534 99.6094 92.0874V82.9498C99.5923 77.6263 97.9596 72.4334 94.9274 68.0579C91.8952 63.6823 87.6063 60.3302 82.6278 58.4449ZM64.4531 91.0156H55.8594V84.7551C56.838 84.2434 57.9136 83.944 59.0158 83.8764C60.118 83.8088 61.2221 83.9745 62.2559 84.3627L64.4531 85.1874V91.0156ZM55.8594 59.4781L57.8125 57.3081L63.7752 69.2334L55.8594 63.9563V59.4781ZM70.723 52.7343H75.4105C75.9285 52.7343 76.4253 52.9401 76.7915 53.3064C77.1578 53.6726 77.3636 54.1694 77.3636 54.6874C77.3636 55.2054 77.1578 55.7022 76.7915 56.0685C76.4253 56.4348 75.9285 56.6406 75.4105 56.6406H70.723C70.205 56.6406 69.7082 56.4348 69.3419 56.0685C68.9756 55.7022 68.7698 55.2054 68.7698 54.6874C68.7698 54.1694 68.9756 53.6726 69.3419 53.3064C69.7082 52.9401 70.205 52.7343 70.723 52.7343ZM72.5994 58.9843H74.9463L77.9098 62.2763L67.475 69.2332L72.5994 58.9843ZM85.1761 51.5624C85.1756 52.0803 84.9697 52.5768 84.6035 52.943C84.2373 53.3091 83.7408 53.5151 83.223 53.5156H79.5244C79.3219 52.8064 78.9399 52.1615 78.4152 51.6432C77.8905 51.1249 77.241 50.7507 76.5294 50.557C78.8932 48.6789 80.698 46.1898 81.7481 43.3593H84.7861C84.9198 43.3593 85.0461 43.3318 85.1767 43.3198L85.1761 51.5624ZM82.8323 37.4999V30.8593H84.7855C85.3033 30.8598 85.7998 31.0657 86.166 31.4319C86.5322 31.7981 86.7381 32.2946 86.7386 32.8124V39.0624C86.7381 39.5803 86.5322 40.0768 86.166 40.443C85.7998 40.8091 85.3033 41.0151 84.7855 41.0156H82.4252C82.6835 39.8612 82.82 38.6828 82.8323 37.4999ZM84.375 5.8593C85.9419 5.85628 87.4592 6.40853 88.6576 7.41804C89.856 8.42755 90.658 9.82901 90.9212 11.3737C91.1843 12.9184 90.8917 14.5063 90.0952 15.8557C89.2987 17.2051 88.0498 18.2286 86.5703 18.7446C84.9187 14.8328 82.1886 11.4714 78.6986 9.05274C79.2901 8.07709 80.1233 7.27056 81.1177 6.71114C82.1121 6.15171 83.234 5.85831 84.375 5.8593ZM66.0355 7.4218C71.3172 7.4278 76.381 9.52863 80.1157 13.2634C83.8505 16.9982 85.9513 22.0619 85.9573 27.3437C85.9569 27.7869 85.9239 28.2294 85.8586 28.6677C85.5089 28.5714 85.1482 28.5203 84.7855 28.5156H82.8323V26.5624C82.8323 26.2516 82.7089 25.9536 82.4891 25.7338C82.2693 25.514 81.9713 25.3906 81.6605 25.3906H71.4616C69.578 25.3972 67.7302 24.8759 66.1279 23.8857C64.5256 22.8955 63.2328 21.476 62.3963 19.7884C62.3069 19.61 62.1734 19.4573 62.0085 19.3449C61.8436 19.2325 61.6528 19.1641 61.454 19.1462C61.2553 19.1282 61.0552 19.1613 60.8729 19.2423C60.6905 19.3233 60.5318 19.4495 60.4119 19.609L59.1164 21.3371C58.1695 22.5931 56.9446 23.6127 55.5376 24.316C54.1307 25.0192 52.58 25.387 51.007 25.3906H50.4105C50.0997 25.3906 49.8016 25.514 49.5818 25.7338C49.3621 25.9536 49.2386 26.2516 49.2386 26.5624V28.5156H47.2855C46.9228 28.5202 46.5622 28.5713 46.2125 28.6677C46.147 28.2294 46.1139 27.7869 46.1136 27.3437C46.1196 22.0619 48.2204 16.9982 51.9552 13.2634C55.69 9.52863 60.7537 7.4278 66.0355 7.4218ZM47.2855 41.0156C46.7676 41.0151 46.2711 40.8092 45.9049 40.443C45.5387 40.0768 45.3328 39.5803 45.3323 39.0624V32.8124C45.3328 32.2946 45.5387 31.798 45.9049 31.4319C46.2711 31.0657 46.7676 30.8598 47.2855 30.8593H49.2386V37.4999C49.2399 38.6818 49.3662 39.8602 49.6152 41.0156H47.2855ZM51.5823 37.4999V27.7206C53.4193 27.6314 55.2141 27.1393 56.8396 26.2791C58.4652 25.419 59.8816 24.2118 60.9886 22.7432L61.2358 22.4151C62.382 24.0634 63.9115 25.4088 65.6925 26.3354C67.4736 27.2621 69.4531 27.7424 71.4608 27.7351H80.4878V37.4999C80.4951 40.1799 79.7511 42.8082 78.3402 45.0868C76.9293 47.3653 74.908 49.2027 72.5056 50.3906H70.723C70.1149 50.3924 69.5142 50.5241 68.9611 50.7769C68.408 51.0296 67.9153 51.3976 67.5159 51.8562C67.0246 51.9153 66.5303 51.9477 66.0355 51.9531C62.2035 51.9489 58.5297 50.4249 55.8201 47.7153C53.1105 45.0057 51.5865 41.3319 51.5823 37.4999ZM66.0355 54.2968C66.1748 54.2968 66.3247 54.2849 66.4672 54.2812C66.4541 54.4171 66.4261 54.5487 66.4261 54.6874C66.4285 55.7022 66.7902 56.6833 67.447 57.4568C68.1039 58.2303 69.0135 58.7461 70.0145 58.9127L65.625 67.6918L59.7656 55.9731V53.0709C61.7571 53.8794 63.8861 54.2957 66.0355 54.2968ZM4.6875 55.8593H51.5625C52.0804 55.8598 52.5769 56.0657 52.9431 56.4319C53.3092 56.798 53.5152 57.2946 53.5156 57.8124V91.0156H2.73438V57.8124C2.73483 57.2946 2.94075 56.798 3.30693 56.4319C3.67312 56.0657 4.16964 55.8598 4.6875 55.8593ZM2.73438 93.3593H53.5156V97.2656H2.73438V93.3593ZM76.9531 97.2656H55.8594V93.3593H65.488L76.9531 96.0891V97.2656ZM97.2656 92.0874C97.2654 92.8543 97.0916 93.6112 96.7572 94.3012C96.4228 94.9913 95.9364 95.5968 95.3346 96.0721C94.7329 96.5474 94.0313 96.8803 93.2825 97.0458C92.5337 97.2113 91.7571 97.205 91.0111 97.0276L66.7969 91.262V85.5468H87.5C87.8108 85.5468 88.1089 85.4233 88.3286 85.2036C88.5484 84.9838 88.6719 84.6857 88.6719 84.3749C88.6719 84.0641 88.5484 83.7661 88.3286 83.5463C88.1089 83.3265 87.8108 83.2031 87.5 83.2031H87.1094V73.4374C87.1094 73.1266 86.9859 72.8286 86.7661 72.6088C86.5464 72.389 86.2483 72.2656 85.9375 72.2656C85.6267 72.2656 85.3286 72.389 85.1089 72.6088C84.8891 72.8286 84.7656 73.1266 84.7656 73.4374V83.2031H65.8375L63.0781 82.1685C60.7498 81.2933 58.1813 81.3025 55.8594 82.1946V66.7727L64.975 72.8495C65.1675 72.9778 65.3937 73.0462 65.625 73.0462C65.8563 73.0462 66.0825 72.9778 66.275 72.8495L80.3375 63.4745C80.4775 63.3812 80.5958 63.2589 80.6843 63.1158C80.7729 62.9727 80.8296 62.8123 80.8505 62.6454C80.8715 62.4785 80.8563 62.309 80.806 62.1484C80.7556 61.9879 80.6713 61.8401 80.5587 61.7151L78.4614 59.3848L81.8039 60.6387C86.3369 62.3549 90.2422 65.4068 93.003 69.3907C95.7639 73.3746 97.2503 78.1028 97.2656 82.9498V92.0874Z" fill="black"/>
</svg>
