<svg width="100" height="100" viewBox="0 0 100 100" fill="none" xmlns="http://www.w3.org/2000/svg">
<path d="M84.375 10.9375H15.625C13.0402 10.9375 10.9375 13.0402 10.9375 15.625V18.75C10.9375 21.3348 13.0402 23.4375 15.625 23.4375H17.1875V65.625C17.1875 66.4879 17.8871 67.1875 18.75 67.1875H40.625V73.4375H39.0625C38.4705 73.4375 37.9295 73.7717 37.6648 74.3011L31.4148 86.8011C31.0288 87.5732 31.3415 88.5117 32.1137 88.8977C32.8865 89.2845 33.8242 88.971 34.2102 88.1988L40.0284 76.5625H48.4375V87.5C48.4375 88.3629 49.1371 89.0625 50 89.0625C50.8629 89.0625 51.5625 88.3629 51.5625 87.5V76.5625H59.9716L65.7898 88.1989C66.0637 88.7467 66.6153 89.0633 67.189 89.0625C67.4233 89.0625 67.662 89.0099 67.8864 88.8977C68.6585 88.5117 68.9713 87.5732 68.5852 86.8011L62.3352 74.3011C62.0705 73.7717 61.5295 73.4375 60.9375 73.4375H59.375V67.1875H81.25C82.1129 67.1875 82.8125 66.4879 82.8125 65.625V23.4375H84.375C86.9598 23.4375 89.0625 21.3348 89.0625 18.75V15.625C89.0625 13.0402 86.9598 10.9375 84.375 10.9375ZM43.75 73.4375V67.1875H48.4375V73.4375H43.75ZM56.25 73.4375H51.5625V67.1875H56.25V73.4375ZM79.6875 64.0625H20.3125V23.4375H79.6875V64.0625ZM85.9375 18.75C85.9375 19.6114 85.2364 20.3125 84.375 20.3125H81.25H18.75H15.625C14.7636 20.3125 14.0625 19.6114 14.0625 18.75V15.625C14.0625 14.7636 14.7636 14.0625 15.625 14.0625H84.375C85.2364 14.0625 85.9375 14.7636 85.9375 15.625V18.75Z" fill="black"/>
<path d="M81.25 15.625H71.875C71.0121 15.625 70.3125 16.3246 70.3125 17.1875C70.3125 18.0504 71.0121 18.75 71.875 18.75H81.25C82.1129 18.75 82.8125 18.0504 82.8125 17.1875C82.8125 16.3246 82.1129 15.625 81.25 15.625Z" fill="black"/>
<path d="M64.0625 15.625H54.6875C53.8246 15.625 53.125 16.3246 53.125 17.1875C53.125 18.0504 53.8246 18.75 54.6875 18.75H64.0625C64.9254 18.75 65.625 18.0504 65.625 17.1875C65.625 16.3246 64.9254 15.625 64.0625 15.625Z" fill="black"/>
<path d="M46.1761 45.1482C46.3974 45.2588 46.637 45.313 46.875 45.313C47.2069 45.313 47.5365 45.2069 47.8127 45.0002L54.0627 40.3127C54.4563 40.0182 54.6875 39.5551 54.6875 39.063C54.6875 38.5709 54.4563 38.1078 54.0627 37.8133L47.8127 33.1258C47.3373 32.7703 46.7056 32.7123 46.1762 32.9778C45.6467 33.2425 45.3125 33.7834 45.3125 34.3755V43.7505C45.3125 44.3425 45.6467 44.8834 46.1761 45.1482ZM48.4375 37.5005L50.5211 39.063L48.4375 40.6255V37.5005Z" fill="black"/>
<path d="M50 51.5625C56.8924 51.5625 62.5 45.9549 62.5 39.0625C62.5 32.1701 56.8924 26.5625 50 26.5625C43.1076 26.5625 37.5 32.1701 37.5 39.0625C37.5 45.9549 43.1076 51.5625 50 51.5625ZM50 29.6875C55.1697 29.6875 59.375 33.8928 59.375 39.0625C59.375 44.2322 55.1697 48.4375 50 48.4375C44.8303 48.4375 40.625 44.2322 40.625 39.0625C40.625 33.8928 44.8303 29.6875 50 29.6875Z" fill="black"/>
<path d="M37.5 59.375H57.8125C57.8125 60.2379 58.5121 60.9375 59.375 60.9375C60.2379 60.9375 60.9375 60.2379 60.9375 59.375H62.5C63.3629 59.375 64.0625 58.6754 64.0625 57.8125C64.0625 56.9496 63.3629 56.25 62.5 56.25H60.9375C60.9375 55.3871 60.2379 54.6875 59.375 54.6875C58.5121 54.6875 57.8125 55.3871 57.8125 56.25H37.5C36.6371 56.25 35.9375 56.9496 35.9375 57.8125C35.9375 58.6754 36.6371 59.375 37.5 59.375Z" fill="black"/>
<path d="M75 29.6875C75.8629 29.6875 76.5625 28.9879 76.5625 28.125C76.5625 27.2621 75.8629 26.5625 75 26.5625C74.1371 26.5625 73.4375 27.2621 73.4375 28.125C73.4375 28.9879 74.1371 29.6875 75 29.6875Z" fill="black"/>
<path d="M68.75 29.6875C69.6129 29.6875 70.3125 28.9879 70.3125 28.125C70.3125 27.2621 69.6129 26.5625 68.75 26.5625C67.8871 26.5625 67.1875 27.2621 67.1875 28.125C67.1875 28.9879 67.8871 29.6875 68.75 29.6875Z" fill="black"/>
<path d="M31.25 29.6875C32.1129 29.6875 32.8125 28.9879 32.8125 28.125C32.8125 27.2621 32.1129 26.5625 31.25 26.5625C30.3871 26.5625 29.6875 27.2621 29.6875 28.125C29.6875 28.9879 30.3871 29.6875 31.25 29.6875Z" fill="black"/>
<path d="M25 29.6875C25.8629 29.6875 26.5625 28.9879 26.5625 28.125C26.5625 27.2621 25.8629 26.5625 25 26.5625C24.1371 26.5625 23.4375 27.2621 23.4375 28.125C23.4375 28.9879 24.1371 29.6875 25 29.6875Z" fill="black"/>
<path d="M31.25 60.9375C32.1129 60.9375 32.8125 60.2379 32.8125 59.375C32.8125 58.5121 32.1129 57.8125 31.25 57.8125C30.3871 57.8125 29.6875 58.5121 29.6875 59.375C29.6875 60.2379 30.3871 60.9375 31.25 60.9375Z" fill="black"/>
<path d="M25 60.9375C25.8629 60.9375 26.5625 60.2379 26.5625 59.375C26.5625 58.5121 25.8629 57.8125 25 57.8125C24.1371 57.8125 23.4375 58.5121 23.4375 59.375C23.4375 60.2379 24.1371 60.9375 25 60.9375Z" fill="black"/>
<path d="M75 60.9375C75.8629 60.9375 76.5625 60.2379 76.5625 59.375C76.5625 58.5121 75.8629 57.8125 75 57.8125C74.1371 57.8125 73.4375 58.5121 73.4375 59.375C73.4375 60.2379 74.1371 60.9375 75 60.9375Z" fill="black"/>
<path d="M68.75 60.9375C69.6129 60.9375 70.3125 60.2379 70.3125 59.375C70.3125 58.5121 69.6129 57.8125 68.75 57.8125C67.8871 57.8125 67.1875 58.5121 67.1875 59.375C67.1875 60.2379 67.8871 60.9375 68.75 60.9375Z" fill="black"/>
</svg>
