<svg width="100" height="100" viewBox="0 0 100 100" fill="none" xmlns="http://www.w3.org/2000/svg">
<path d="M60.417 33.333H43.7503C42.5003 33.333 41.667 34.1663 41.667 35.4163C41.667 36.6663 42.5003 37.4997 43.7503 37.4997H58.3337V56.2497C58.3337 57.4997 59.167 58.333 60.417 58.333C61.667 58.333 62.5003 57.4997 62.5003 56.2497V35.4163C62.5003 34.1663 61.667 33.333 60.417 33.333Z" fill="black"/>
<path d="M77.0833 33.333H75V31.2497C75 26.2497 71.25 22.083 66.6667 21.2497V14.583C66.6667 11.2497 63.75 8.33301 60.4167 8.33301H39.5833C36.25 8.33301 33.3333 11.2497 33.3333 14.583V21.2497C28.75 22.083 25 26.2497 25 31.2497V68.7497C25 73.7497 28.75 77.9163 33.3333 78.7497V85.4163C33.3333 88.7497 36.25 91.6664 39.5833 91.6664H60.4167C63.75 91.6664 66.6667 88.7497 66.6667 85.4163V78.7497C71.25 77.9163 75 73.7497 75 68.7497V45.833H77.0833C78.3333 45.833 79.1667 44.9997 79.1667 43.7497V35.4163C79.1667 34.1663 78.3333 33.333 77.0833 33.333ZM37.5 14.583C37.5 13.333 38.3333 12.4997 39.5833 12.4997H60.4167C61.6667 12.4997 62.5 13.333 62.5 14.583V20.833H37.5V14.583ZM62.5 85.4163C62.5 86.6663 61.6667 87.4997 60.4167 87.4997H39.5833C38.3333 87.4997 37.5 86.6663 37.5 85.4163V79.1663H62.5V85.4163ZM70.8333 68.7497C70.8333 72.083 67.9167 74.9997 64.5833 74.9997H35.4167C32.0833 74.9997 29.1667 72.083 29.1667 68.7497V31.2497C29.1667 27.9163 32.0833 24.9997 35.4167 24.9997H64.5833C67.9167 24.9997 70.8333 27.9163 70.8333 31.2497V68.7497Z" fill="black"/>
</svg>
