<svg width="100" height="100" viewBox="0 0 100 100" fill="none" xmlns="http://www.w3.org/2000/svg">
<path d="M75.2973 60.1289C76.1064 60.1289 76.7621 59.4732 76.7621 58.6641V22.8408C76.7621 19.8793 74.3527 17.4697 71.391 17.4697H20.748C17.7865 17.4697 15.377 19.8793 15.377 22.8408V77.159C15.377 80.1205 17.7865 82.5301 20.748 82.5301H71.391C74.3527 82.5301 76.7621 80.1205 76.7621 77.159V66.4686C76.7621 64.5746 73.8324 64.5746 73.8324 66.4686V77.159C73.8324 78.5053 72.7373 79.6004 71.391 79.6004H20.748C19.4018 79.6004 18.3066 78.5053 18.3066 77.159V22.8408C18.3066 21.4945 19.4018 20.3994 20.748 20.3994H71.391C72.7373 20.3994 73.8324 21.4945 73.8324 22.8408V58.6641C73.8324 59.4732 74.4883 60.1289 75.2973 60.1289Z" fill="black"/>
<path d="M85.3775 43.9377H83.5787V21.8236C83.5787 15.6311 78.5408 10.5932 72.3482 10.5932H68.8588V7.57461C68.8588 3.39785 65.4607 0 61.284 0H30.8551C26.6785 0 23.2807 3.39785 23.2807 7.57461V10.5932H19.7912C13.5986 10.5932 8.56074 15.6311 8.56074 21.8236V25.5875C8.56074 27.4814 11.4904 27.4814 11.4904 25.5875V21.8236C11.4904 17.2465 15.2141 13.5229 19.7912 13.5229H72.3484C76.9256 13.5229 80.6492 17.2465 80.6492 21.8236V78.1762C80.6492 82.7533 76.9256 86.477 72.3484 86.477H19.791C15.2139 86.477 11.4902 82.7533 11.4902 78.1762V33.3949C11.4902 31.501 8.56055 31.501 8.56055 33.3949V78.1762C8.56055 84.3688 13.5984 89.4066 19.791 89.4066H23.2805V92.4252C23.2805 96.602 26.6783 99.9998 30.8549 99.9998H61.284C65.4607 99.9998 68.8586 96.602 68.8586 92.4252V89.4066H72.348C78.5406 89.4066 83.5785 84.3688 83.5785 78.1762V56.0623H85.3773C88.7201 56.0623 91.4397 53.3428 91.4397 50C91.4397 46.6572 88.7203 43.9377 85.3775 43.9377ZM26.2102 7.57461C26.2102 5.01348 28.2938 2.92969 30.8549 2.92969H61.284C63.8451 2.92969 65.9289 5.01348 65.9289 7.57461V10.5932H26.2102V7.57461ZM65.9291 92.4254C65.9291 94.9865 63.8453 97.0703 61.2842 97.0703H30.8551C28.2939 97.0703 26.2104 94.9865 26.2104 92.4254V89.4068H65.9291V92.4254ZM85.3775 53.1326H83.5787V46.8674H85.3775C87.1049 46.8674 88.5102 48.2727 88.5102 50C88.5102 51.7273 87.1049 53.1326 85.3775 53.1326Z" fill="black"/>
<path d="M56.5113 49.9998C56.5113 44.242 51.8272 39.5576 46.0691 39.5576C40.3111 39.5576 35.627 44.242 35.627 49.9998C35.627 55.7576 40.3111 60.442 46.0691 60.442C51.8272 60.442 56.5113 55.7576 56.5113 49.9998ZM46.0691 57.5123C41.9268 57.5123 38.5566 54.1422 38.5566 49.9998C38.5566 45.8574 41.9268 42.4873 46.0691 42.4873C50.2115 42.4873 53.5816 45.8574 53.5816 49.9998C53.5816 54.1422 50.2115 57.5123 46.0691 57.5123Z" fill="black"/>
<path d="M62.2953 70.3277C66.7109 70.3277 70.3033 66.7353 70.3033 62.3197C70.3033 57.9041 66.7109 54.3115 62.2953 54.3115C57.8797 54.3115 54.2871 57.9041 54.2871 62.3197C54.2871 66.7353 57.8797 70.3277 62.2953 70.3277ZM62.2953 57.2412C65.0955 57.2412 67.3736 59.5193 67.3736 62.3197C67.3736 65.1199 65.0955 67.398 62.2953 67.398C59.4949 67.398 57.2168 65.1199 57.2168 62.3197C57.2168 59.5193 59.4949 57.2412 62.2953 57.2412Z" fill="black"/>
<path d="M29.8441 45.6881C34.2598 45.6881 37.8521 42.0955 37.8521 37.6799C37.8521 33.2643 34.2598 29.6719 29.8441 29.6719C25.4285 29.6719 21.8359 33.2643 21.8359 37.6799C21.8359 42.0955 25.4283 45.6881 29.8441 45.6881ZM29.8441 32.6016C32.6443 32.6016 34.9225 34.8797 34.9225 37.6799C34.9225 40.4803 32.6443 42.7584 29.8441 42.7584C27.0437 42.7584 24.7656 40.4803 24.7656 37.6799C24.7656 34.8797 27.0437 32.6016 29.8441 32.6016Z" fill="black"/>
<path d="M29.8441 70.3277C34.2598 70.3277 37.8521 66.7353 37.8521 62.3197C37.8521 57.9041 34.2598 54.3115 29.8441 54.3115C25.4285 54.3115 21.8359 57.9041 21.8359 62.3197C21.8359 66.7353 25.4283 70.3277 29.8441 70.3277ZM29.8441 57.2412C32.6443 57.2412 34.9225 59.5193 34.9225 62.3197C34.9225 65.1199 32.6443 67.398 29.8441 67.398C27.0437 67.398 24.7656 65.1199 24.7656 62.3197C24.7656 59.5193 27.0437 57.2412 29.8441 57.2412Z" fill="black"/>
<path d="M62.2953 29.6719C57.8797 29.6719 54.2871 33.2643 54.2871 37.6799C54.2871 42.0955 57.8797 45.6881 62.2953 45.6881C66.7109 45.6881 70.3033 42.0955 70.3033 37.6799C70.3033 33.2643 66.7111 29.6719 62.2953 29.6719ZM62.2953 42.7584C59.4949 42.7584 57.2168 40.4803 57.2168 37.6799C57.2168 34.8797 59.4949 32.6016 62.2953 32.6016C65.0955 32.6016 67.3736 34.8797 67.3736 37.6799C67.3736 40.4803 65.0955 42.7584 62.2953 42.7584Z" fill="black"/>
<path d="M51.8203 29.8967C51.8203 26.7256 49.2404 24.1455 46.0693 24.1455C42.8982 24.1455 40.3184 26.7256 40.3184 29.8967C40.3184 33.0678 42.8982 35.6477 46.0693 35.6477C49.2404 35.6477 51.8203 33.068 51.8203 29.8967ZM43.248 29.8967C43.248 28.3408 44.5137 27.0752 46.0693 27.0752C47.625 27.0752 48.8906 28.3408 48.8906 29.8967C48.8906 31.4523 47.625 32.718 46.0693 32.718C44.5137 32.718 43.248 31.4523 43.248 29.8967Z" fill="black"/>
<path d="M40.3184 70.1025C40.3184 73.2736 42.8982 75.8537 46.0693 75.8537C49.2404 75.8537 51.8203 73.2736 51.8203 70.1025C51.8203 66.9314 49.2404 64.3516 46.0693 64.3516C42.8982 64.3516 40.3184 66.9313 40.3184 70.1025ZM48.8906 70.1025C48.8906 71.6584 47.625 72.924 46.0693 72.924C44.5137 72.924 43.248 71.6584 43.248 70.1025C43.248 68.5469 44.5137 67.2812 46.0693 67.2812C47.625 67.2812 48.8906 68.5469 48.8906 70.1025Z" fill="black"/>
</svg>
