<svg width="100" height="100" viewBox="0 0 100 100" fill="none" xmlns="http://www.w3.org/2000/svg">
<g clip-path="url(#clip0_157_454)">
<path d="M99.9966 69.9283C99.895 67.0709 97.6112 64.8672 94.9632 64.9209L90.9073 64.9369C90.0983 64.9402 89.4452 65.5986 89.4483 66.4074C89.4516 67.2146 90.1067 67.8666 90.9132 67.8666C94.7856 67.8514 94.8474 67.8512 94.9442 67.8508C97.6517 67.9658 97.8276 71.9535 95.1985 72.2551L82.3725 73.0672C80.6498 71.5047 77.9514 72.0557 76.6976 72.4346C73.7779 73.2059 69.2087 74.1912 67.4488 75.0342L62.8169 77.2858C62.0894 77.6395 61.7862 78.5161 62.1399 79.2436C62.4939 79.9712 63.37 80.2743 64.0978 79.9206L68.7083 77.679C70.4357 76.9085 75.7228 75.8043 77.5213 75.2459C78.4691 74.9563 80.1248 74.6114 80.6223 75.5348C80.6502 75.6375 80.8832 76.6583 79.6064 77.5135C76.8746 79.3428 71.3968 81.0622 69.2929 82.5141C68.6271 82.9737 68.4597 83.8858 68.9193 84.5519C69.3783 85.2169 70.2904 85.3857 70.957 84.9255C72.0027 84.2036 75.5021 82.7671 76.6697 82.2796L90.5885 81.5714C93.8014 81.4329 96.0634 78.3171 95.1507 75.1938C98.2644 74.992 100.095 72.7008 99.9966 69.9283ZM90.4512 78.6448L82.2836 79.0604C83.1994 78.0717 83.5705 76.9272 83.593 75.9256L92.0284 75.3915C92.9899 76.7032 92.1024 78.5737 90.4512 78.6448Z" fill="black"/>
<path d="M64.4615 86.6054C58.7935 90.0922 53.9066 87.5197 51.8888 86.9736C43.1399 82.7478 46.2776 83.7376 42.9561 83.7909V71.5624C43.1444 71.5301 43.3288 71.4866 43.5087 71.4327C48.1895 71.5743 39.6768 71.5579 61.0673 71.5159C64.0588 71.5159 67.5322 70.8567 71.1119 69.6092C77.0993 67.5237 79.4897 67.9286 82.197 67.901L84.5343 67.8918C85.3433 67.8885 85.9966 67.2301 85.9935 66.4213C85.9903 65.6143 85.3351 64.9621 84.5286 64.9621H84.5228C78.9241 64.9293 76.4204 64.6572 70.1479 66.8428C66.8744 67.9832 63.7346 68.5862 61.0644 68.5862L46.5565 68.6153C47.7505 65.5432 45.478 62.191 42.1555 62.191H30.6224C27.7457 62.191 25.5117 64.7645 25.9593 67.6395L21.0997 67.4014V64.1338C21.0997 63.3246 20.4439 62.669 19.6349 62.669H13.1846V62.2305C13.1846 61.4213 12.5288 60.7656 11.7198 60.7656H1.46485C0.655863 60.7656 0 61.4213 0 62.2305V94.0225C0 94.8316 0.655863 95.4873 1.46485 95.4873H11.7198C12.5288 95.4873 13.1846 94.8316 13.1846 94.0225V93.584H19.6349C20.4439 93.584 21.0997 92.9283 21.0997 92.1191V88.3486C25.9908 87.9861 39.5504 86.9808 44.544 86.6107L50.7224 89.6648C50.7224 89.6648 58.6619 93.6127 65.9965 89.1004C66.6855 88.6765 66.9006 87.7742 66.4766 87.0853C66.0527 86.3964 65.1506 86.1812 64.4615 86.6054ZM32.7518 71.6303H40.0264V84.0081L32.7518 84.5474V71.6303ZM30.6226 65.1209H42.1557C43.1426 65.1209 43.9456 65.9239 43.9456 66.9108C43.9456 67.9246 43.109 68.7006 42.1557 68.7006H30.6226C29.6357 68.7006 28.8328 67.8977 28.8328 66.9108C28.8328 65.9239 29.6357 65.1209 30.6226 65.1209ZM13.1846 90.6545V76.6651C13.1846 75.8559 12.5288 75.2003 11.7198 75.2003C10.9108 75.2003 10.2549 75.8559 10.2549 76.6651V92.5578H2.9297V63.6955H10.2549V70.2813C10.2549 71.0905 10.9108 71.7462 11.7198 71.7462C12.5288 71.7462 13.1846 71.0905 13.1846 70.2813V65.5989H18.17V90.6545H13.1846ZM21.0997 70.335L27.7607 70.6614C28.3535 71.1149 29.0566 71.4311 29.8221 71.5624V84.7646L21.0997 85.4111V70.335Z" fill="black"/>
<path d="M19.7824 34.724C19.7734 35.2624 20.0688 35.8025 20.6045 36.0636L35.7097 43.6279C36.1124 43.8295 36.5976 43.8394 37.0198 43.6287L52.1721 36.0644C52.6932 35.8111 53.0055 35.28 52.9957 34.7232V13.5764C53.0086 12.9863 52.6623 12.4307 52.0967 12.1937L37.0442 4.66753C36.6319 4.46108 36.1464 4.46108 35.7341 4.66753L20.6844 12.1924C20.1197 12.4275 19.7699 12.9822 19.7826 13.5756L19.7824 34.724ZM36.389 7.6154L47.9517 13.3969L41.8986 15.8145C41.1472 16.1145 40.7814 16.9666 41.0816 17.718C41.3806 18.4668 42.2314 18.8362 42.9853 18.5352L50.066 15.7072V33.8413L36.3665 40.6806L22.7121 33.8427V15.7098L29.7876 18.5444C30.5374 18.8446 31.3907 18.4817 31.6921 17.7293C31.993 16.9783 31.628 16.1256 30.877 15.8248L24.8221 13.3992L36.389 7.6154Z" fill="black"/>
<path d="M31.3998 28.1973C30.7154 28.1973 29.7793 28.7543 29.7793 29.7418C29.7793 30.5625 30.4484 31.2059 31.2457 31.2059C31.9314 31.2059 32.8662 30.6467 32.8662 29.6611C32.866 28.8404 32.1971 28.1973 31.3998 28.1973Z" fill="black"/>
<path d="M26.3666 30.7178C25.6803 30.7178 24.7461 31.276 24.7461 32.2625C24.7461 33.0332 25.3648 33.7266 26.2123 33.7266C26.8986 33.7266 27.8326 33.1684 27.8326 32.182C27.8328 31.4098 27.2123 30.7178 26.3666 30.7178Z" fill="black"/>
<path d="M37.9182 27.2219C37.9182 26.2945 37.0859 25.7119 36.3648 25.7119C35.6463 25.7119 34.8115 26.2916 34.8115 27.2219C34.8115 29.1816 37.9182 29.1678 37.9182 27.2219Z" fill="black"/>
<path d="M44.9287 32.1818C44.9287 33.1725 45.8764 33.7264 46.5494 33.7264C47.3492 33.7264 48.0156 33.0797 48.0156 32.2623C48.0156 31.2717 47.068 30.7178 46.3947 30.7178C45.5918 30.7176 44.9287 31.368 44.9287 32.1818Z" fill="black"/>
<path d="M39.8799 29.6613C39.8799 30.6521 40.8318 31.2059 41.5008 31.2059C42.302 31.2059 42.9672 30.557 42.9672 29.7418C42.9672 28.751 42.015 28.1973 41.3461 28.1973C40.5459 28.1973 39.8799 28.8453 39.8799 29.6613Z" fill="black"/>
<path d="M36.3893 22.5844C38.3471 22.5844 38.3446 19.4561 36.3893 19.4561C34.4315 19.4561 34.434 22.5844 36.3893 22.5844Z" fill="black"/>
<path d="M36.3893 15.7453C38.3471 15.7453 38.3446 12.6172 36.3893 12.6172C34.4315 12.6174 34.434 15.7453 36.3893 15.7453Z" fill="black"/>
<path d="M36.3889 56.5801C35.5816 56.5801 34.9238 57.2381 34.9238 58.0453C34.9238 58.8514 35.5756 59.5082 36.3887 59.5082C37.2439 59.5082 37.8535 58.8221 37.8535 58.0453C37.8535 57.2398 37.2029 56.5801 36.3889 56.5801Z" fill="black"/>
<path d="M37.8535 48.5723C37.8535 47.7631 37.1977 47.1074 36.3887 47.1074C35.5797 47.1074 34.9238 47.7631 34.9238 48.5723V52.2062C34.9238 53.0154 35.5797 53.6711 36.3887 53.6711C37.1977 53.6711 37.8535 53.0154 37.8535 52.2062V48.5723Z" fill="black"/>
<path d="M44.9327 52.6576L42.6772 56.7531C42.2868 57.4617 42.545 58.3526 43.2536 58.743C43.9659 59.1352 44.8551 58.8713 45.2434 58.1666L47.4989 54.0711C47.8893 53.3625 47.6311 52.4717 46.9225 52.0813C46.2141 51.6912 45.3229 51.9492 44.9327 52.6576Z" fill="black"/>
<path d="M52.2375 42.4301C51.5287 42.0397 50.6381 42.298 50.2477 43.0064L48.3823 46.3939C47.9918 47.1025 48.25 47.9934 48.9586 48.3838C49.6704 48.7758 50.5598 48.5129 50.9485 47.8074L52.8139 44.4199C53.2041 43.7113 52.9461 42.8203 52.2375 42.4301Z" fill="black"/>
<path d="M27.2038 54.5286C26.4952 54.9189 26.237 55.8099 26.6273 56.5185L27.5353 58.1669C27.9235 58.8718 28.813 59.1355 29.5251 58.7433C30.2337 58.353 30.4919 57.462 30.1017 56.7534L29.1937 55.105C28.8034 54.3966 27.9126 54.1384 27.2038 54.5286Z" fill="black"/>
<path d="M20.5407 42.4301C19.8321 42.8203 19.5739 43.7113 19.9643 44.4199L23.0039 49.9391C23.3922 50.6439 24.2817 50.9076 24.9938 50.5154C25.7024 50.1252 25.9606 49.2342 25.5702 48.5256L22.5305 43.0064C22.1401 42.298 21.2497 42.0397 20.5407 42.4301Z" fill="black"/>
</g>
<defs>
<clipPath id="clip0_157_454">
<rect width="100" height="100" fill="white"/>
</clipPath>
</defs>
</svg>
