<svg width="100" height="100" viewBox="0 0 100 100" fill="none" xmlns="http://www.w3.org/2000/svg">
<path d="M3.125 65.6252C3.12404 67.0367 3.50574 68.422 4.22951 69.6338C4.95328 70.8456 5.99202 71.8386 7.23522 72.507C8.47843 73.1753 9.87958 73.4942 11.2896 73.4296C12.6996 73.365 14.0657 72.9193 15.2426 72.14L27.8598 84.7572C27.2254 85.7181 26.8112 86.8074 26.647 87.9471C26.4829 89.0867 26.5726 90.2486 26.91 91.3495C27.2473 92.4504 27.8239 93.4631 28.5984 94.3151C29.3729 95.1671 30.3262 95.8374 31.3901 96.2779C32.4539 96.7184 33.602 96.9182 34.7521 96.8631C35.9022 96.808 37.0259 96.4994 38.0427 95.9592C39.0596 95.419 39.9445 94.6608 40.634 93.7386C41.3235 92.8165 41.8007 91.7533 42.0313 90.6252H57.9707C58.2 91.7547 58.6763 92.8195 59.3656 93.7432C60.0548 94.6669 60.9399 95.4267 61.9574 95.9681C62.9748 96.5095 64.0995 96.819 65.2507 96.8745C66.4019 96.9301 67.5511 96.7302 68.616 96.2893C69.6808 95.8483 70.6349 95.1773 71.4099 94.3242C72.1848 93.471 72.7614 92.457 73.0983 91.3548C73.4352 90.2526 73.5241 89.0896 73.3586 87.949C73.193 86.8084 72.7772 85.7186 72.1408 84.7576L78.9377 77.9608L76.7279 75.751L69.9311 82.5479C68.8653 81.842 67.6425 81.4086 66.3701 81.2858C65.0977 81.163 63.8146 81.3545 62.6335 81.8435C61.4524 82.3325 60.4095 83.104 59.5963 84.0903C58.7831 85.0766 58.2246 86.2476 57.9697 87.5002H42.0313C41.6123 85.4661 40.4026 83.6816 38.6682 82.5393L39.5768 80.2678L36.6752 79.1072L35.7676 81.3766C33.7886 81.0153 31.7466 81.4353 30.0709 82.5484L17.4537 69.9313C18.5668 68.2556 18.9869 66.2136 18.6256 64.2346L30.2699 59.577L29.1094 56.6754L17.4609 61.3332C16.3186 59.5987 14.5342 58.3889 12.5 57.9699V42.0315C14.5342 41.6125 16.3186 40.4027 17.4609 38.6682L29.1074 43.327L30.268 40.4254L18.6234 35.7668C18.9848 33.7878 18.5647 31.7458 17.4516 30.0701L27.1781 20.3436L24.9693 18.1336L15.2428 27.8602C14.2819 27.2257 13.1926 26.8114 12.0529 26.6472C10.9132 26.4829 9.75125 26.5726 8.65028 26.91C7.54932 27.2473 6.53655 27.8239 5.68449 28.5984C4.83242 29.3729 4.16214 30.3263 3.72162 31.3902C3.28111 32.4541 3.08126 33.6022 3.13638 34.7523C3.1915 35.9025 3.50024 37.0263 4.04048 38.0431C4.58071 39.06 5.3391 39.9449 6.26133 40.6344C7.18356 41.3239 8.24682 41.801 9.375 42.0315V57.9709C7.61184 58.3334 6.02753 59.2925 4.88906 60.6868C3.7506 62.0811 3.12758 63.8252 3.125 65.6252ZM65.625 84.3752C66.5521 84.3752 67.4584 84.6501 68.2292 85.1652C69.0001 85.6803 69.6009 86.4124 69.9557 87.2689C70.3105 88.1254 70.4033 89.0679 70.2224 89.9772C70.0416 90.8865 69.5951 91.7217 68.9396 92.3773C68.284 93.0328 67.4488 93.4793 66.5395 93.6601C65.6302 93.841 64.6877 93.7482 63.8312 93.3934C62.9746 93.0386 62.2426 92.4378 61.7275 91.6669C61.2124 90.8961 60.9375 89.9898 60.9375 89.0627C60.9389 87.8199 61.4333 86.6285 62.312 85.7497C63.1908 84.871 64.3822 84.3767 65.625 84.3752ZM34.375 84.3752C35.3021 84.3752 36.2084 84.6501 36.9792 85.1652C37.7501 85.6803 38.3509 86.4124 38.7057 87.2689C39.0605 88.1254 39.1533 89.0679 38.9724 89.9772C38.7916 90.8865 38.3451 91.7217 37.6896 92.3773C37.034 93.0328 36.1988 93.4793 35.2895 93.6601C34.3802 93.841 33.4377 93.7482 32.5812 93.3934C31.7246 93.0386 30.9926 92.4378 30.4775 91.6669C29.9624 90.8961 29.6875 89.9898 29.6875 89.0627C29.6889 87.8199 30.1833 86.6285 31.062 85.7497C31.9408 84.871 33.1322 84.3767 34.375 84.3752ZM6.25 34.3752C6.25 33.4481 6.52492 32.5418 7.03999 31.771C7.55506 31.0001 8.28714 30.3993 9.14367 30.0445C10.0002 29.6897 10.9427 29.5969 11.852 29.7778C12.7613 29.9586 13.5965 30.4051 14.2521 31.0606C14.9076 31.7162 15.3541 32.5514 15.5349 33.4607C15.7158 34.37 15.623 35.3125 15.2682 36.169C14.9134 37.0256 14.3126 37.7576 13.5417 38.2727C12.7709 38.7878 11.8646 39.0627 10.9375 39.0627C9.69474 39.0613 8.5033 38.5669 7.62454 37.6882C6.74577 36.8094 6.25145 35.618 6.25 34.3752ZM10.9375 60.9377C11.8646 60.9377 12.7709 61.2126 13.5417 61.7277C14.3126 62.2428 14.9134 62.9749 15.2682 63.8314C15.623 64.6879 15.7158 65.6304 15.5349 66.5397C15.3541 67.449 14.9076 68.2842 14.2521 68.9398C13.5965 69.5953 12.7613 70.0418 11.852 70.2226C10.9427 70.4035 10.0002 70.3107 9.14367 69.9559C8.28714 69.6011 7.55506 69.0003 7.03999 68.2294C6.52492 67.4586 6.25 66.5523 6.25 65.6252C6.25145 64.3825 6.74577 63.191 7.62454 62.3122C8.5033 61.4335 9.69474 60.9392 10.9375 60.9377ZM96.875 34.3752C96.876 32.9637 96.4943 31.5784 95.7705 30.3666C95.0467 29.1548 94.008 28.1618 92.7648 27.4935C91.5216 26.8251 90.1204 26.5062 88.7104 26.5708C87.3004 26.6354 85.9343 27.0811 84.7574 27.8604L72.1402 15.2432C72.7751 14.2823 73.1896 13.193 73.3541 12.0532C73.5186 10.9133 73.429 9.75126 73.0918 8.65011C72.7546 7.54896 72.1781 6.53599 71.4035 5.68376C70.629 4.83152 69.6755 4.16109 68.6115 3.72049C67.5475 3.27989 66.3993 3.08001 65.2489 3.13516C64.0986 3.19032 62.9748 3.49915 61.9578 4.03954C60.9408 4.57992 60.0559 5.33849 59.3665 6.26093C58.677 7.18336 58.2 8.24684 57.9697 9.37521H42.0313C41.7252 7.86572 40.9803 6.4802 39.8899 5.39243C38.7995 4.30466 37.4122 3.56306 35.9019 3.26064C34.3917 2.95823 32.8258 3.10846 31.4007 3.6925C29.9755 4.27654 28.7545 5.26838 27.8908 6.54364C27.0271 7.81889 26.5592 9.32076 26.5457 10.8609C26.5322 12.401 26.9738 13.9109 27.8151 15.201C28.6563 16.4912 29.8598 17.5042 31.2745 18.1131C32.6893 18.722 34.2523 18.8996 35.7676 18.6236L36.6752 20.893L39.5768 19.7324L38.6672 17.4611C40.402 16.319 41.6121 14.5345 42.0313 12.5002H57.9707C58.3896 14.5343 59.5993 16.3188 61.3338 17.4611L59.8002 21.2951L62.7016 22.4557L64.2344 18.6238C66.2134 18.9852 68.2554 18.5651 69.9311 17.452L82.5482 30.0691C81.4351 31.7448 81.0151 33.7868 81.3764 35.7658L69.732 40.4234L70.8926 43.325L82.5391 38.6662C83.1045 39.5254 83.8336 40.2648 84.6848 40.8423C85.536 41.4197 86.4926 41.8238 87.5 42.0315V57.9709C85.4658 58.3899 83.6814 59.5997 82.5391 61.3342L77.9238 59.4879L76.7633 62.3895L81.3764 64.2346C81.0151 66.2136 81.4351 68.2556 82.5482 69.9313L79.4623 73.0172L81.6721 75.227L84.758 72.141C85.7189 72.7757 86.8083 73.1901 87.9481 73.3544C89.0879 73.5188 90.2499 73.4291 91.351 73.0918C92.4521 72.7545 93.4649 72.1779 94.3171 71.4033C95.1692 70.6287 95.8396 69.6752 96.2801 68.6112C96.7206 67.5472 96.9204 66.399 96.8652 65.2487C96.8099 64.0985 96.501 62.9746 95.9606 61.9577C95.4202 60.9408 94.6616 60.056 93.7392 59.3666C92.8168 58.6771 91.7533 58.2002 90.625 57.9699V42.0315C92.3885 41.6689 93.9731 40.7095 95.1116 39.3148C96.2501 37.9201 96.8729 36.1756 96.875 34.3752ZM34.375 15.6252C33.4479 15.6252 32.5416 15.3503 31.7708 14.8352C30.9999 14.3201 30.3991 13.5881 30.0443 12.7315C29.6895 11.875 29.5967 10.9325 29.7776 10.0232C29.9584 9.11393 30.4049 8.2787 31.0604 7.62314C31.716 6.96758 32.5512 6.52114 33.4605 6.34027C34.3698 6.15941 35.3123 6.25223 36.1688 6.60702C37.0254 6.96181 37.7575 7.56261 38.2725 8.33347C38.7876 9.10433 39.0625 10.0106 39.0625 10.9377C39.0611 12.1805 38.5667 13.3719 37.688 14.2507C36.8092 15.1294 35.6178 15.6238 34.375 15.6252ZM65.625 15.6252C64.6979 15.6252 63.7916 15.3503 63.0208 14.8352C62.2499 14.3201 61.6491 13.5881 61.2943 12.7315C60.9395 11.875 60.8467 10.9325 61.0276 10.0232C61.2084 9.11393 61.6549 8.2787 62.3104 7.62314C62.966 6.96758 63.8012 6.52114 64.7105 6.34027C65.6198 6.15941 66.5623 6.25223 67.4188 6.60702C68.2754 6.96181 69.0074 7.56261 69.5225 8.33347C70.0376 9.10433 70.3125 10.0106 70.3125 10.9377C70.3111 12.1805 69.8167 13.3719 68.938 14.2507C68.0592 15.1294 66.8678 15.6238 65.625 15.6252ZM93.75 65.6252C93.75 66.5523 93.4751 67.4586 92.96 68.2294C92.4449 69.0003 91.7129 69.6011 90.8563 69.9559C89.9998 70.3107 89.0573 70.4035 88.148 70.2226C87.2387 70.0418 86.4035 69.5953 85.7479 68.9398C85.0924 68.2842 84.6459 67.449 84.4651 66.5397C84.2842 65.6304 84.377 64.6879 84.7318 63.8314C85.0866 62.9749 85.6874 62.2428 86.4583 61.7277C87.2291 61.2126 88.1354 60.9377 89.0625 60.9377C90.3053 60.9392 91.4967 61.4335 92.3755 62.3122C93.2542 63.191 93.7486 64.3825 93.75 65.6252ZM89.0625 39.0627C88.1354 39.0627 87.2291 38.7878 86.4583 38.2727C85.6874 37.7576 85.0866 37.0256 84.7318 36.169C84.377 35.3125 84.2842 34.37 84.4651 33.4607C84.6459 32.5514 85.0924 31.7162 85.7479 31.0606C86.4035 30.4051 87.2387 29.9586 88.148 29.7778C89.0573 29.5969 89.9998 29.6897 90.8563 30.0445C91.7129 30.3993 92.4449 31.0001 92.96 31.771C93.4751 32.5418 93.75 33.4481 93.75 34.3752C93.7486 35.618 93.2542 36.8094 92.3755 37.6882C91.4967 38.5669 90.3053 39.0613 89.0625 39.0627ZM35.9375 35.9377V71.8752C35.9385 72.7037 36.268 73.498 36.8539 74.0838C37.4397 74.6697 38.234 74.9992 39.0625 75.0002H56.25V78.1252H39.0625C37.4055 78.1233 35.8168 77.4643 34.6451 76.2926C33.4734 75.1209 32.8144 73.5322 32.8125 71.8752V35.9377H35.9375ZM71.875 73.4377V56.3611C71.8773 55.5401 71.7166 54.7267 71.4024 53.9681C71.0882 53.2095 70.6267 52.5208 70.0445 51.9418L67.1875 49.085V60.2904L69.8549 62.9578L67.6451 65.1676L64.5201 62.0426L59.2408 56.7633C59.0781 56.6006 58.885 56.4716 58.6724 56.3835C58.4598 56.2955 58.232 56.2502 58.0019 56.2502C57.7718 56.2503 57.544 56.2956 57.3315 56.3837C57.1189 56.4717 56.9258 56.6008 56.7631 56.7635C56.6004 56.9262 56.4714 57.1193 56.3833 57.3319C56.2953 57.5445 56.25 57.7723 56.25 58.0024C56.25 58.2325 56.2954 58.4603 56.3834 58.6729C56.4715 58.8854 56.6006 59.0785 56.7633 59.2412L62.0424 64.5203C62.2978 64.7757 62.4569 65.1118 62.4925 65.4712C62.5281 65.8307 62.4381 66.1914 62.2377 66.492C61.443 67.6876 60.9776 69.0715 60.8885 70.5043C60.7993 71.9371 61.0895 73.3681 61.7299 74.6529L62.3354 75.8639C62.4438 76.0809 62.5001 76.3201 62.5 76.5627V78.1252H59.375V76.9317L58.9344 76.0504C58.1464 74.4693 57.7402 72.7255 57.7483 70.9589C57.7564 69.1924 58.1786 67.4523 58.9811 65.8785L54.5533 61.4508C53.6452 60.5348 53.1369 59.2963 53.1398 58.0065C53.1426 56.7166 53.6562 55.4804 54.5683 54.5683C55.4804 53.6563 56.7167 53.1427 58.0065 53.14C59.2964 53.1372 60.5348 53.6456 61.4508 54.5537L64.0625 57.1654V29.6877C64.0615 28.8592 63.732 28.0649 63.1461 27.4791C62.5603 26.8932 61.766 26.5637 60.9375 26.5627H57.2156L56.085 28.824C55.9552 29.0835 55.7557 29.3018 55.5089 29.4543C55.2621 29.6069 54.9777 29.6877 54.6875 29.6877H45.3125C45.0223 29.6877 44.7379 29.6069 44.4911 29.4543C44.2443 29.3018 44.0448 29.0835 43.915 28.824L42.7844 26.5627H39.0625C38.234 26.5637 37.4397 26.8932 36.8539 27.4791C36.268 28.0649 35.9385 28.8592 35.9375 29.6877V32.8127H32.8125V29.6877C32.8144 28.0307 33.4734 26.442 34.6451 25.2703C35.8168 24.0986 37.4055 23.4396 39.0625 23.4377H60.9375C62.5945 23.4396 64.1832 24.0986 65.3549 25.2703C66.5266 26.442 67.1856 28.0307 67.1875 29.6877V44.6654L72.2541 49.732C73.1274 50.6006 73.8197 51.6337 74.2911 52.7715C74.7624 53.9094 75.0034 55.1295 75 56.3611V73.4377H71.875ZM46.875 68.7502H53.125V71.8752H46.875V68.7502ZM53.5826 49.5426C52.6317 48.5938 51.3433 48.0609 50 48.0609C48.6567 48.0609 47.3683 48.5938 46.4174 49.5426L44.2076 47.3328C45.7451 45.7989 47.8282 44.9374 50 44.9374C52.1718 44.9374 54.2549 45.7989 55.7924 47.3328L53.5826 49.5426ZM58.2701 45.6133C57.1841 44.5272 55.8947 43.6657 54.4758 43.078C53.0568 42.4902 51.5359 42.1877 50 42.1877C48.4641 42.1877 46.9432 42.4902 45.5243 43.078C44.1053 43.6657 42.8159 44.5272 41.7299 45.6133L39.5201 43.4037C42.3017 40.6284 46.0706 39.0697 50 39.0697C53.9294 39.0697 57.6983 40.6284 60.4799 43.4037L58.2701 45.6133ZM51.5625 54.6877V57.8127H48.4375V54.6877H51.5625ZM42.1875 54.6877H45.3125V57.8127H42.1875V54.6877Z" fill="black"/>
</svg>
