<svg width="100" height="100" viewBox="0 0 100 100" fill="none" xmlns="http://www.w3.org/2000/svg">
<g clip-path="url(#clip0_157_452)">
<path d="M66.3208 44.2628C66.4659 44.4079 66.581 44.5801 66.6595 44.7697C66.7381 44.9593 66.7785 45.1625 66.7785 45.3677C66.7785 45.573 66.7381 45.7762 66.6595 45.9658C66.581 46.1553 66.4659 46.3276 66.3208 46.4727C66.1757 46.6178 66.0034 46.7329 65.8138 46.8115C65.6242 46.89 65.421 46.9304 65.2158 46.9304C65.0106 46.9304 64.8074 46.89 64.6178 46.8115C64.4282 46.7329 64.2559 46.6178 64.1108 46.4727C62.2578 44.6196 60.0579 43.1496 57.6368 42.1467C55.2157 41.1438 52.6207 40.6276 50.0001 40.6276C47.3794 40.6276 44.7845 41.1438 42.3633 42.1467C39.9422 43.1496 37.7423 44.6196 35.8893 46.4727C35.5963 46.7658 35.1988 46.9304 34.7843 46.9304C34.3699 46.9304 33.9724 46.7658 33.6794 46.4727C33.3863 46.1797 33.2217 45.7822 33.2217 45.3677C33.2217 44.9533 33.3863 44.5558 33.6794 44.2628C38.0079 39.9343 43.8786 37.5026 50.0001 37.5026C56.1215 37.5026 61.9922 39.9343 66.3208 44.2628ZM50.0001 43.7526C47.7889 43.7466 45.5985 44.1791 43.5557 45.0253C41.5128 45.8715 39.6581 47.1145 38.0989 48.6823C37.8088 48.976 37.6468 49.3725 37.6481 49.7852C37.6494 50.198 37.814 50.5935 38.1059 50.8853C38.3978 51.1771 38.7933 51.3416 39.206 51.3428C39.6188 51.344 40.0153 51.1818 40.3089 50.8917C42.8792 48.3215 46.3653 46.8776 50.0002 46.8776C53.6351 46.8776 57.1211 48.3215 59.6915 50.8917C59.9851 51.1818 60.3815 51.344 60.7943 51.3428C61.207 51.3416 61.6026 51.1771 61.8945 50.8853C62.1864 50.5935 62.3509 50.198 62.3522 49.7852C62.3535 49.3725 62.1915 48.976 61.9014 48.6823C60.3422 47.1145 58.4874 45.8715 56.4445 45.0253C54.4017 44.1791 52.2113 43.7465 50.0001 43.7526ZM50.0001 50.0026C48.61 49.9988 47.233 50.2708 45.9487 50.8027C44.6645 51.3347 43.4985 52.1161 42.5182 53.1016C42.2252 53.3947 42.0606 53.7922 42.0606 54.2066C42.0606 54.621 42.2253 55.0185 42.5183 55.3115C42.8114 55.6045 43.2088 55.7691 43.6233 55.7691C44.0377 55.7691 44.4352 55.6045 44.7282 55.3114C45.4205 54.619 46.2424 54.0698 47.1469 53.6951C48.0515 53.3204 49.021 53.1276 50.0001 53.1276C50.9792 53.1276 51.9487 53.3204 52.8532 53.6951C53.7578 54.0698 54.5796 54.619 55.2719 55.3114C55.565 55.6045 55.9624 55.7691 56.3769 55.7691C56.7913 55.7691 57.1887 55.6045 57.4818 55.3115C57.7749 55.0185 57.9395 54.621 57.9395 54.2066C57.9395 53.7922 57.7749 53.3947 57.4819 53.1016C56.5017 52.116 55.3357 51.3346 54.0514 50.8026C52.7672 50.2706 51.3901 49.9989 50.0001 50.0026ZM54.3309 60.5835C54.3309 61.44 54.0769 62.2773 53.6009 62.9895C53.125 63.7017 52.4486 64.2568 51.6573 64.5845C50.8659 64.9123 49.9951 64.998 49.155 64.8309C48.3149 64.6638 47.5433 64.2513 46.9376 63.6456C46.332 63.0399 45.9195 62.2682 45.7524 61.4281C45.5853 60.588 45.6711 59.7172 45.9989 58.9259C46.3267 58.1345 46.8818 57.4582 47.594 56.9823C48.3062 56.5064 49.1435 56.2524 50.0001 56.2524C51.1483 56.2538 52.2491 56.7105 53.061 57.5224C53.8729 58.3343 54.3296 59.4351 54.3309 60.5833V60.5835ZM51.2059 60.5835C51.206 60.345 51.1353 60.1118 51.0029 59.9134C50.8704 59.7151 50.6821 59.5605 50.4618 59.4691C50.2415 59.3778 49.999 59.3539 49.7651 59.4003C49.5311 59.4468 49.3162 59.5616 49.1475 59.7303C48.9788 59.8989 48.864 60.1138 48.8174 60.3477C48.7708 60.5816 48.7947 60.8241 48.886 61.0444C48.9772 61.2648 49.1318 61.4532 49.3301 61.5857C49.5284 61.7182 49.7616 61.7889 50.0001 61.7889C50.3197 61.7886 50.6262 61.6614 50.8523 61.4354C51.0783 61.2094 51.2055 60.9029 51.2059 60.5833V60.5835ZM100 50.0005C100 52.0806 99.2245 54.086 97.8244 55.6244C96.4244 57.1629 94.5008 58.1238 92.4299 58.3192C90.359 58.5145 88.2896 57.9303 86.6266 56.6808C84.9635 55.4314 83.8264 53.6064 83.4376 51.563H77.2981C76.9492 57.7268 74.5163 63.5892 70.3983 68.1889L74.7487 72.5395C76.467 71.3732 78.5586 70.8897 80.6145 71.1836C82.6704 71.4774 84.5428 72.5275 85.8655 74.1285C87.1883 75.7295 87.8664 77.7663 87.7673 79.8407C87.6681 81.9152 86.7988 83.878 85.3293 85.3455C83.8599 86.8131 81.8959 87.6798 79.8213 87.7762C77.7468 87.8726 75.7109 87.1918 74.1116 85.8669C72.5124 84.5419 71.4648 82.6682 71.1736 80.6119C70.8825 78.5556 71.3688 76.4647 72.5374 74.7479L68.1885 70.3989C63.5888 74.5168 57.7264 76.9496 51.5626 77.2985V83.438C53.6061 83.827 55.431 84.9642 56.6805 86.6274C57.93 88.2905 58.5142 90.3599 58.3188 92.431C58.1234 94.502 57.1626 96.4256 55.6241 97.8258C54.0857 99.2259 52.0803 100.002 50.0001 100.002C47.9199 100.002 45.9144 99.2259 44.376 97.8258C42.8375 96.4256 41.8767 94.502 41.6813 92.431C41.486 90.3599 42.0701 88.2905 43.3196 86.6274C44.5691 84.9642 46.394 83.827 48.4376 83.438V77.2985C42.2737 76.9496 36.4113 74.5167 31.8116 70.3987L27.4628 74.7477C28.6307 76.468 29.1154 78.5619 28.8222 80.6204C28.5289 82.6789 27.4788 84.5542 25.8769 85.8799C24.2751 87.2056 22.2365 87.8865 20.1595 87.7896C18.0824 87.6927 16.1161 86.825 14.6446 85.3559C13.1738 83.8851 12.3046 81.9185 12.2068 79.8408C12.1091 77.7631 12.7898 75.7236 14.116 74.1212C15.4422 72.5187 17.3184 71.4686 19.3777 71.1761C21.4371 70.8836 23.5315 71.3697 25.2514 72.5395L29.6018 68.1891C25.4838 63.5894 23.0509 57.7269 22.702 51.563H16.5626C16.1736 53.6064 15.0363 55.4313 13.3732 56.6808C11.7101 57.9302 9.64074 58.5144 7.56977 58.319C5.49881 58.1236 3.57519 57.1628 2.17507 55.6244C0.774948 54.086 -0.000976562 52.0806 -0.000976562 50.0005C-0.000976562 47.9203 0.774948 45.9149 2.17507 44.3765C3.57519 42.8381 5.49881 41.8773 7.56977 41.6819C9.64074 41.4866 11.7101 42.0707 13.3732 43.3202C15.0363 44.5696 16.1736 46.3945 16.5626 48.438H22.702C23.0509 42.2741 25.4838 36.4117 29.6018 31.812L25.2514 27.4614C23.5314 28.6313 21.4368 29.1176 19.3772 28.8251C17.3177 28.5326 15.4413 27.4824 14.115 25.8799C12.7887 24.2773 12.1079 22.2376 12.2057 20.1597C12.3034 18.0818 13.1728 16.1151 14.6437 14.6441C16.1147 13.1732 18.0814 12.3038 20.1593 12.206C22.2372 12.1083 24.2769 12.7891 25.8795 14.1154C27.482 15.4417 28.5323 17.3181 28.8247 19.3776C29.1172 21.4372 28.6309 23.5318 27.461 25.2518L31.8114 29.6024C36.4111 25.4843 42.2736 23.0513 48.4376 22.7024V16.563C46.394 16.174 44.5691 15.0367 43.3196 13.3735C42.0701 11.7104 41.486 9.64098 41.6813 7.56997C41.8767 5.49895 42.8375 3.57528 44.376 2.17513C45.9144 0.774969 47.9199 -0.000976563 50.0001 -0.000976562C52.0803 -0.000976563 54.0857 0.774969 55.6241 2.17513C57.1626 3.57528 58.1234 5.49895 58.3188 7.56997C58.5142 9.64098 57.93 11.7104 56.6805 13.3735C55.431 15.0367 53.6061 16.174 51.5626 16.563V22.7024C57.7265 23.0513 63.5889 25.4843 68.1885 29.6024L72.5391 25.2518C71.3713 23.5339 70.8862 21.4422 71.1786 19.3856C71.4711 17.3291 72.5201 15.4555 74.1206 14.1313C75.721 12.8071 77.7579 12.1274 79.8328 12.2252C81.9078 12.323 83.8717 13.1912 85.3405 14.66C86.8094 16.1289 87.6775 18.0928 87.7753 20.1677C87.8731 22.2427 87.1934 24.2795 85.8692 25.88C84.545 27.4804 82.6714 28.5294 80.6149 28.8219C78.5583 29.1144 76.4666 28.6292 74.7487 27.4614L70.3983 31.8118C74.5163 36.4115 76.9492 42.274 77.2981 48.438H83.4376C83.8264 46.3945 84.9635 44.5696 86.6266 43.3201C88.2896 42.0706 90.359 41.4864 92.4299 41.6818C94.5008 41.8771 96.4244 42.838 97.8244 44.3765C99.2245 45.9149 100 47.9203 100 50.0005ZM75.7485 24.252C76.4799 24.9828 77.4115 25.4803 78.4256 25.6817C79.4396 25.883 80.4906 25.7793 81.4457 25.3834C82.4008 24.9876 83.2171 24.3174 83.7914 23.4577C84.3657 22.598 84.6722 21.5874 84.6722 20.5535C84.6722 19.5196 84.3657 18.5089 83.7914 17.6492C83.2171 16.7895 82.4008 16.1194 81.4457 15.7236C80.4906 15.3277 79.4396 15.2239 78.4256 15.4253C77.4115 15.6267 76.4799 16.1242 75.7485 16.8549C74.7689 17.8366 74.2188 19.1667 74.2188 20.5535C74.2188 21.9403 74.7689 23.2704 75.7485 24.252ZM50.0001 13.5868C51.0346 13.5868 52.0459 13.28 52.906 12.7053C53.7662 12.1305 54.4366 11.3136 54.8326 10.3579C55.2285 9.40209 55.3321 8.35039 55.1302 7.33574C54.9284 6.3211 54.4303 5.38908 53.6988 4.65755C52.9673 3.92602 52.0353 3.42784 51.0206 3.22599C50.006 3.02414 48.9543 3.1277 47.9985 3.52356C47.0427 3.91943 46.2258 4.58983 45.651 5.44998C45.0762 6.31013 44.7694 7.32141 44.7694 8.35593C44.7709 9.74274 45.3225 11.0723 46.3031 12.053C47.2837 13.0336 48.6133 13.5852 50.0001 13.5868ZM24.2516 24.252C24.9831 23.5205 25.4813 22.5885 25.6831 21.5739C25.8849 20.5593 25.7813 19.5077 25.3854 18.5519C24.9895 17.5962 24.3191 16.7793 23.459 16.2046C22.5988 15.6298 21.5876 15.3231 20.5531 15.3231C19.5186 15.3231 18.5074 15.6298 17.6472 16.2046C16.7871 16.7793 16.1167 17.5962 15.7208 18.5519C15.3249 19.5077 15.2213 20.5593 15.4231 21.5739C15.6249 22.5885 16.1231 23.5205 16.8546 24.252C17.8362 25.2315 19.1663 25.7816 20.5531 25.7816C21.9398 25.7816 23.27 25.2315 24.2516 24.252ZM13.5864 50.0005C13.5864 48.9659 13.2796 47.9547 12.7049 47.0945C12.1301 46.2343 11.3132 45.5639 10.3575 45.168C9.40169 44.7721 8.34999 44.6685 7.33535 44.8703C6.3207 45.0721 5.38869 45.5703 4.65716 46.3018C3.92563 47.0333 3.42744 47.9653 3.22559 48.9799C3.02375 49.9945 3.1273 51.0462 3.52317 52.002C3.91904 52.9578 4.58943 53.7747 5.44959 54.3495C6.30974 54.9243 7.32101 55.2311 8.35553 55.2311C9.74235 55.2296 11.0719 54.6781 12.0526 53.6975C13.0332 52.7168 13.5848 51.3873 13.5864 50.0005ZM25.7839 79.4475C25.7839 78.5873 25.5718 77.7403 25.1664 76.9816C24.7609 76.2229 24.1746 75.5759 23.4594 75.0979C22.7441 74.6199 21.922 74.3258 21.0659 74.2414C20.2098 74.157 19.3461 74.2851 18.5514 74.6143C17.7566 74.9435 17.0553 75.4636 16.5095 76.1286C15.9638 76.7936 15.5905 77.5829 15.4226 78.4266C15.2548 79.2703 15.2977 80.1424 15.5474 80.9656C15.7971 81.7888 16.246 82.5377 16.8544 83.146C17.5859 83.8774 18.5179 84.3755 19.5325 84.5772C20.5471 84.779 21.5987 84.6754 22.5545 84.2796C23.5102 83.8837 24.3271 83.2134 24.9019 82.3533C25.4767 81.4932 25.7835 80.482 25.7837 79.4475H25.7839ZM50.0001 86.4141C48.9655 86.4141 47.9543 86.7209 47.0941 87.2956C46.2339 87.8704 45.5635 88.6873 45.1676 89.6431C44.7717 90.5988 44.6681 91.6505 44.8699 92.6652C45.0717 93.6798 45.5699 94.6118 46.3014 95.3434C47.0329 96.0749 47.9649 96.5731 48.9795 96.7749C49.9941 96.9768 51.0458 96.8732 52.0016 96.4774C52.9574 96.0815 53.7743 95.4111 54.3491 94.5509C54.9239 93.6908 55.2307 92.6795 55.2307 91.645C55.2292 90.2582 54.6777 88.9286 53.6971 87.9479C52.7165 86.9673 51.3869 86.4157 50.0001 86.4141ZM79.4471 74.2192C78.5869 74.219 77.74 74.4309 76.9813 74.8363C76.2226 75.2417 75.5756 75.8279 75.0976 76.5431C74.6197 77.2583 74.3256 78.0804 74.2413 78.9364C74.157 79.7925 74.2851 80.6561 74.6144 81.4508C74.9437 82.2455 75.4639 82.9467 76.129 83.4922C76.794 84.0378 77.5834 84.4109 78.4271 84.5784C79.2708 84.746 80.1428 84.7028 80.9659 84.4528C81.789 84.2027 82.5376 83.7535 83.1456 83.145C83.877 82.4137 84.3751 81.482 84.5769 80.4675C84.7787 79.4531 84.6751 78.4017 84.2792 77.4462C83.8833 76.4906 83.2128 75.674 82.3527 75.0996C81.4926 74.5252 80.4814 74.2188 79.4471 74.2192ZM74.2188 50.0005C74.2188 45.2104 72.7984 40.528 70.1372 36.5452C67.476 32.5625 63.6936 29.4583 59.2682 27.6253C54.8428 25.7922 49.9732 25.3126 45.2752 26.2471C40.5772 27.1816 36.2619 29.4882 32.8748 32.8752C29.4878 36.2623 27.1812 40.5776 26.2467 45.2756C25.3122 49.9736 25.7918 54.8432 27.6249 59.2686C29.4579 63.694 32.5621 67.4764 36.5448 70.1376C40.5276 72.7988 45.21 74.2192 50.0001 74.2192C56.4211 74.212 62.577 71.658 67.1173 67.1177C71.6576 62.5774 74.2116 56.4215 74.2188 50.0005ZM96.8751 50.0005C96.8751 48.9659 96.5683 47.9546 95.9935 47.0944C95.4188 46.2343 94.6018 45.5638 93.646 45.1679C92.6903 44.772 91.6385 44.6685 90.6239 44.8703C89.6092 45.0722 88.6772 45.5704 87.9457 46.3019C87.2142 47.0334 86.716 47.9655 86.5142 48.9801C86.3124 49.9948 86.416 51.0465 86.812 52.0023C87.2079 52.9581 87.8783 53.775 88.7385 54.3497C89.5987 54.9244 90.6101 55.2312 91.6446 55.2311C93.0314 55.2296 94.3609 54.678 95.3415 53.6974C96.322 52.7168 96.8736 51.3872 96.8751 50.0005Z" fill="black"/>
</g>
<defs>
<clipPath id="clip0_157_452">
<rect width="100" height="100" fill="white"/>
</clipPath>
</defs>
</svg>
