<svg width="100" height="100" viewBox="0 0 100 100" fill="none" xmlns="http://www.w3.org/2000/svg">
<path d="M98.1758 73.633C97.1191 69.6857 93.0156 67.2873 88.834 68.1642L59.6894 74.3517C60.2628 72.7752 60.264 71.0474 59.6928 69.4702C59.1216 67.8929 58.0143 66.5665 56.5644 65.7228L39.6699 55.9669C38.992 55.5435 38.3551 55.0577 37.7676 54.5158C36.2832 53.2326 34.4355 51.6369 30.9922 51.2697C27.7207 50.922 23.4629 51.6896 17.7109 53.6798C17.5189 52.4601 16.8981 51.3488 15.9602 50.5458C15.0222 49.7428 13.8285 49.3007 12.5938 49.299H6.74219C5.36893 49.3005 4.05235 49.8467 3.08131 50.8178C2.11026 51.7888 1.56405 53.1054 1.5625 54.4787V83.2697C1.56405 84.6429 2.11026 85.9595 3.08131 86.9306C4.05235 87.9016 5.36893 88.4478 6.74219 88.4494H12.5762C13.935 88.4475 15.2388 87.9123 16.2072 86.959C17.1755 86.0057 17.7309 84.7104 17.7539 83.3517C22.4141 82.6974 28.334 86.0763 34.0723 89.3537C39.0176 92.1779 43.7324 94.8712 47.6719 94.8712C48.413 94.8773 49.1507 94.7699 49.8594 94.5529L92.7344 83.0646C94.7061 82.5346 96.3868 81.2435 97.4071 79.475C98.4275 77.7065 98.7039 75.6052 98.1758 73.633ZM12.5762 85.3244H6.74219C6.19741 85.3238 5.67509 85.1072 5.28988 84.722C4.90466 84.3368 4.68802 83.8145 4.6875 83.2697V54.4787C4.68802 53.9339 4.90466 53.4116 5.28988 53.0263C5.67509 52.6411 6.19741 52.4245 6.74219 52.424H12.5762C13.1209 52.4245 13.6433 52.6411 14.0285 53.0263C14.4137 53.4116 14.6303 53.9339 14.6309 54.4787V83.2697C14.6303 83.8145 14.4137 84.3368 14.0285 84.722C13.6433 85.1072 13.1209 85.3238 12.5762 85.3244ZM91.9258 80.0509L49.0234 91.5431L48.9512 91.5646C45.9375 92.5275 40.6953 89.5353 35.627 86.6408C29.5859 83.1876 23.3594 79.6369 17.7617 80.1955V56.9708C30.5254 52.3927 33.166 54.672 35.7305 56.879C36.4648 57.553 37.2628 58.1541 38.1133 58.674L55.0078 68.4279C55.464 68.6926 55.8635 69.0445 56.1837 69.4636C56.5038 69.8828 56.7383 70.3608 56.8737 70.8705C57.0091 71.3803 57.0427 71.9117 56.9728 72.4344C56.9028 72.9571 56.7305 73.461 56.4658 73.9171C56.2011 74.3733 55.8492 74.7729 55.4301 75.093C55.0109 75.4132 54.5329 75.6476 54.0232 75.783C53.5134 75.9184 52.982 75.9521 52.4593 75.8821C51.9366 75.8121 51.4327 75.6398 50.9766 75.3751L36.8711 67.2326C36.5132 67.0382 36.0935 66.9913 35.7015 67.1018C35.3095 67.2123 34.9762 67.4715 34.7725 67.8242C34.5688 68.1768 34.5108 68.5951 34.6109 68.9899C34.7111 69.3847 34.9614 69.7247 35.3086 69.9376L49.4141 78.0822C50.495 78.7078 51.7218 79.0373 52.9707 79.0373C54.0915 79.0356 55.1964 78.7721 56.1973 78.2677C56.2707 78.2628 56.3438 78.253 56.416 78.2384L89.4746 71.2384C92.0742 70.6876 94.5137 72.0685 95.1523 74.4494C95.4641 75.6192 95.2996 76.8649 94.6948 77.9137C94.0901 78.9624 93.0944 79.7288 91.9258 80.0451V80.0509ZM12.2637 58.0665C12.2652 58.5823 12.1137 59.0869 11.8282 59.5164C11.5428 59.9459 11.1363 60.2811 10.6602 60.4794C10.1842 60.6778 9.65997 60.7304 9.15399 60.6306C8.64801 60.5308 8.18303 60.283 7.81795 59.9188C7.45286 59.5545 7.20409 59.0901 7.10315 58.5843C7.0022 58.0786 7.05362 57.5543 7.25089 57.0777C7.44816 56.6012 7.7824 56.194 8.21129 55.9076C8.64019 55.6212 9.14443 55.4685 9.66016 55.4689C10.3492 55.4704 11.0096 55.7444 11.4973 56.2311C11.9851 56.7177 12.2606 57.3775 12.2637 58.0665ZM43.1113 40.9005H45.7559C46.2799 42.7842 47.0315 44.5971 47.9941 46.299L46.125 48.1701C45.6346 48.6541 45.3373 49.3002 45.2888 49.9875C45.2402 50.6748 45.4438 51.3563 45.8613 51.9044C47.5143 54.0978 49.4662 56.049 51.6602 57.7013C52.2077 58.1199 52.8892 58.3243 53.5768 58.2761C54.2644 58.2279 54.9107 57.9305 55.3945 57.4396L57.2656 55.5705C58.9672 56.5333 60.7793 57.2861 62.6621 57.8126V60.4572C62.6579 61.1463 62.9052 61.8132 63.3575 62.3331C63.8098 62.853 64.4361 63.1902 65.1191 63.2814C67.8401 63.6646 70.6013 63.6646 73.3223 63.2814C74.0063 63.1905 74.6337 62.853 75.0865 62.3322C75.5392 61.8115 75.7863 61.1433 75.7812 60.4533V57.8126C77.6647 57.2879 79.4775 56.5363 81.1797 55.5744L83.0488 57.4435C83.5327 57.9344 84.179 58.2318 84.8666 58.28C85.5541 58.3282 86.2356 58.1238 86.7832 57.7052C88.9765 56.052 90.9271 54.0994 92.5781 51.9044C92.9959 51.3565 93.1998 50.6752 93.1516 49.9879C93.1035 49.3006 92.8065 48.6543 92.3164 48.1701L90.4453 46.299C91.408 44.5978 92.1597 42.7856 92.6836 40.9025H95.3301C96.0193 40.9071 96.6865 40.66 97.2065 40.2076C97.7264 39.7552 98.0635 39.1287 98.1543 38.4454C98.5375 35.7245 98.5375 32.9633 98.1543 30.2423C98.063 29.5595 97.7258 28.9334 97.2059 28.4814C96.6859 28.0294 96.019 27.7826 95.3301 27.7872H92.6816C92.1566 25.9036 91.4043 24.0908 90.4414 22.3888L92.3125 20.5197C92.8001 20.0366 93.0958 19.3929 93.1446 18.7082C93.1935 18.0236 92.9922 17.3445 92.5781 16.797C90.9262 14.6021 88.9742 12.6501 86.7793 10.9982C86.2317 10.5796 85.5502 10.3752 84.8627 10.4234C84.1751 10.4716 83.5288 10.769 83.0449 11.2599L81.1758 13.131C79.4752 12.166 77.6638 11.4112 75.7812 10.883V8.23842C75.786 7.54929 75.5392 6.88209 75.0873 6.36183C74.6353 5.84157 74.0092 5.50396 73.3262 5.41225C70.6049 5.03316 67.8443 5.03316 65.123 5.41225C64.4402 5.50436 63.8143 5.84209 63.3624 6.36226C62.9106 6.88243 62.6637 7.5494 62.668 8.23842V10.883C60.783 11.4079 58.9689 12.1602 57.2656 13.1232L55.3945 11.2521C54.9103 10.762 54.264 10.465 53.5767 10.4169C52.8894 10.3687 52.208 10.5726 51.6602 10.9904C49.4647 12.6447 47.5127 14.5994 45.8613 16.797C45.4434 17.345 45.2396 18.0265 45.2881 18.714C45.3367 19.4014 45.6342 20.0476 46.125 20.5314L47.9941 22.4005C47.0311 24.1022 46.2795 25.9151 45.7559 27.799H43.1113C42.4222 27.7943 41.755 28.041 41.2347 28.4929C40.7145 28.9449 40.3769 29.571 40.2852 30.254C39.902 32.975 39.902 35.7362 40.2852 38.4572C40.3791 39.1382 40.7177 39.7618 41.2378 40.2114C41.7579 40.6611 42.4238 40.906 43.1113 40.9005ZM43.3477 30.9162H46.9727C47.3281 30.9162 47.6729 30.7951 47.9502 30.5728C48.2275 30.3506 48.4207 30.0404 48.498 29.6935C49.0305 27.3139 49.9715 25.0446 51.2793 22.9865C51.4694 22.6866 51.5517 22.3309 51.5126 21.9781C51.4736 21.6252 51.3155 21.2961 51.0645 21.0451L48.502 18.4806C49.8992 16.6575 51.5304 15.0263 53.3535 13.629L55.916 16.1935C56.1672 16.445 56.4966 16.6034 56.8499 16.6424C57.2033 16.6815 57.5593 16.5989 57.8594 16.4083C59.9175 15.1006 62.1868 14.1595 64.5664 13.6271C64.9116 13.5497 65.2204 13.3574 65.4421 13.0818C65.6639 12.8061 65.7855 12.4633 65.7871 12.1095V8.47475C68.0646 8.17787 70.371 8.17787 72.6484 8.47475V12.1095C72.6484 12.4649 72.7695 12.8097 72.9917 13.087C73.214 13.3644 73.5242 13.5576 73.8711 13.6349C76.2495 14.1642 78.5181 15.102 80.5762 16.4064C80.8762 16.597 81.2323 16.6796 81.5856 16.6405C81.9389 16.6014 82.2684 16.4431 82.5195 16.1915L85.084 13.6271C86.906 15.025 88.5365 16.6561 89.9336 18.4787L87.3711 21.0431C87.12 21.2942 86.962 21.6232 86.9229 21.9761C86.8839 22.329 86.9662 22.6846 87.1562 22.9845C88.4642 25.0411 89.4052 27.3092 89.9375 29.6876C90.0152 30.0342 90.2086 30.3439 90.4859 30.5658C90.7632 30.7877 91.1078 30.9085 91.4629 30.9083H95.0879C95.3874 33.1856 95.3874 35.4924 95.0879 37.7697H91.4609C91.1061 37.7699 90.762 37.891 90.4851 38.1128C90.2082 38.3347 90.0151 38.6442 89.9375 38.9904C89.4057 41.372 88.4647 43.6434 87.1562 45.7033C86.9662 46.0031 86.8839 46.3588 86.9229 46.7117C86.962 47.0646 87.12 47.3936 87.3711 47.6447L89.9355 50.2091C88.5372 52.0313 86.9061 53.6623 85.084 55.0607L82.5195 52.4982C82.2682 52.2474 81.9391 52.0897 81.5862 52.051C81.2333 52.0123 80.8778 52.095 80.5781 52.2853C78.5195 53.5935 76.2495 54.5346 73.8691 55.0665C73.5229 55.1442 73.2134 55.3373 72.9916 55.6142C72.7697 55.891 72.6487 56.2352 72.6484 56.59V60.2169C70.371 60.5138 68.0646 60.5138 65.7871 60.2169V56.59C65.7873 56.2348 65.6665 55.8903 65.4446 55.613C65.2227 55.3357 64.9129 55.1423 64.5664 55.0646C62.1861 54.5343 59.9164 53.5931 57.8594 52.2833C57.5593 52.0928 57.2033 52.0102 56.8499 52.0492C56.4966 52.0883 56.1672 52.2467 55.916 52.4982L53.3535 55.0626C51.5304 53.6654 49.8992 52.0342 48.502 50.2111L51.0645 47.6564C51.3155 47.4053 51.4736 47.0763 51.5126 46.7234C51.5517 46.3705 51.4694 46.0149 51.2793 45.715C49.9711 43.6571 49.03 41.3877 48.498 39.008C48.4207 38.6611 48.2275 38.3509 47.9502 38.1286C47.6729 37.9063 47.3281 37.7852 46.9727 37.7853H43.3477C43.0482 35.5086 43.0482 33.2026 43.3477 30.9259V30.9162ZM69.2188 50.0001C72.3133 50.0001 75.3384 49.0825 77.9115 47.3632C80.4845 45.644 82.49 43.2003 83.6742 40.3413C84.8585 37.4823 85.1683 34.3363 84.5646 31.3012C83.9609 28.2661 82.4707 25.4781 80.2825 23.2899C78.0943 21.1017 75.3064 19.6115 72.2712 19.0078C69.2361 18.4041 66.0901 18.7139 63.2311 19.8982C60.3721 21.0824 57.9284 23.0879 56.2092 25.6609C54.4899 28.234 53.5723 31.2591 53.5723 34.3537C53.5769 38.5019 55.2269 42.479 58.1602 45.4123C61.0934 48.3455 65.0705 49.9955 69.2188 50.0001ZM69.2188 21.8322C71.6953 21.8322 74.1162 22.5665 76.1753 23.9424C78.2345 25.3183 79.8394 27.2739 80.7871 29.5619C81.7348 31.8499 81.9828 34.3675 81.4996 36.7965C81.0165 39.2254 79.8239 41.4565 78.0728 43.2077C76.3216 44.9588 74.0905 46.1514 71.6616 46.6345C69.2326 47.1177 66.715 46.8697 64.427 45.922C62.139 44.9743 60.1834 43.3694 58.8075 41.3102C57.4316 39.2511 56.6973 36.8302 56.6973 34.3537C56.6988 31.0325 58.0183 27.8477 60.366 25.4986C62.7136 23.1494 65.8976 21.828 69.2188 21.8244V21.8322ZM62.7207 35.8322C62.5757 35.687 62.4606 35.5147 62.3822 35.3251C62.3037 35.1354 62.2634 34.9322 62.2635 34.727C62.2636 34.5218 62.3041 34.3186 62.3827 34.129C62.4613 33.9395 62.5765 33.7673 62.7217 33.6222C62.8669 33.4772 63.0392 33.3621 63.2288 33.2837C63.4184 33.2052 63.6217 33.1649 63.8269 33.165C64.0321 33.1651 64.2353 33.2056 64.4248 33.2842C64.6144 33.3628 64.7866 33.478 64.9316 33.6232L67.4414 36.133L73.4375 29.2521C73.7186 28.9747 74.0942 28.814 74.489 28.8023C74.8837 28.7906 75.2682 28.9289 75.5652 29.1892C75.8621 29.4495 76.0495 29.8126 76.0896 30.2055C76.1297 30.5984 76.0195 30.9918 75.7812 31.3068L68.6914 39.4396C68.5506 39.6012 68.3781 39.7321 68.1845 39.8241C67.991 39.9162 67.7806 39.9675 67.5664 39.9747H67.5137C67.3084 39.9749 67.1051 39.9346 66.9155 39.8562C66.7258 39.7778 66.5534 39.6628 66.4082 39.5177L62.7207 35.8322Z" fill="black"/>
</svg>
