<svg width="100" height="100" viewBox="0 0 100 100" fill="none" xmlns="http://www.w3.org/2000/svg">
<g clip-path="url(#clip0_162_513)">
<path d="M63.7935 44.8272H81.0349C81.9883 44.8272 82.759 44.0548 82.759 43.103C82.759 42.1513 81.9883 41.3789 81.0349 41.3789H63.7935C62.84 41.3789 62.0693 42.1513 62.0693 43.103C62.0693 44.0548 62.84 44.8272 63.7935 44.8272Z" fill="black"/>
<path d="M74.1383 48.2754H63.7935C62.84 48.2754 62.0693 49.0478 62.0693 49.9995C62.0693 50.9513 62.84 51.7237 63.7935 51.7237H74.1383C75.0917 51.7237 75.8624 50.9513 75.8624 49.9995C75.8624 49.0478 75.0917 48.2754 74.1383 48.2754Z" fill="black"/>
<path d="M70.69 55.1729H63.7935C62.84 55.1729 62.0693 55.9453 62.0693 56.897C62.0693 57.8487 62.84 58.6211 63.7935 58.6211H70.69C71.6435 58.6211 72.4142 57.8487 72.4142 56.897C72.4142 55.9453 71.6435 55.1729 70.69 55.1729Z" fill="black"/>
<path d="M48.6451 37.9711L41.7486 36.459C41.5037 36.4056 41.2537 36.4056 41.0089 36.459L34.1124 37.9711C33.1831 38.1746 32.5934 39.0935 32.7986 40.0246C33.002 40.9556 33.9175 41.5487 34.852 41.3383L41.3796 39.909L47.9072 41.3401C48.0313 41.3677 48.1555 41.3797 48.2779 41.3797C49.0693 41.3797 49.7848 40.8314 49.9606 40.0246C50.1641 39.0952 49.5744 38.1763 48.6451 37.9711Z" fill="black"/>
<path d="M45.8117 56.9151C44.9566 57.9444 43.3962 58.9668 41.379 59.8271C39.3617 58.9651 37.8014 57.9444 36.9462 56.9151C36.3359 56.1823 35.2497 56.0823 34.5169 56.6927C33.7841 57.303 33.6859 58.3892 34.2945 59.122C35.9721 61.1375 38.7307 62.5047 40.7497 63.2978C40.9514 63.3771 41.1652 63.4168 41.379 63.4168C41.5928 63.4168 41.8066 63.3771 42.0083 63.2978C44.0272 62.5065 46.7859 61.1392 48.4635 59.122C49.0721 58.3892 48.9721 57.303 48.241 56.6927C47.5083 56.084 46.4203 56.1823 45.8117 56.9151Z" fill="black"/>
<path d="M94.8276 32.7586H78.9724C76.9345 28.3138 74.1897 24.3431 70.881 20.9776L61.9172 1.01724C61.6397 0.398276 61.0241 0 60.3448 0H22.4138C21.7345 0 21.119 0.398276 20.8414 1.01724L11.8414 21.0603C4.52241 28.5293 0 38.7448 0 50C0 61.2552 4.52241 71.4707 11.8397 78.9379L20.8397 98.981C21.119 99.6017 21.7345 100 22.4138 100H60.3448C61.0241 100 61.6397 99.6017 61.9172 98.9828L70.8793 79.0241C74.1897 75.6586 76.9328 71.6879 78.9707 67.2431H94.8276C97.6793 67.2431 100 64.9224 100 62.0707V37.931C100 35.0793 97.6793 32.7586 94.8276 32.7586ZM23.5293 3.44828H59.2293L64.8259 15.9103C58.0707 11.2655 49.9534 8.62069 41.3793 8.62069C32.6741 8.62069 24.5931 11.3293 17.9207 15.9397L23.5293 3.44828ZM59.2293 96.5517H23.5293L17.9207 84.0603C24.5931 88.6707 32.6741 91.3793 41.3793 91.3793C49.9534 91.3793 58.0707 88.7345 64.8241 84.0897L59.2293 96.5517ZM69.3845 75.5672L68.2017 74.3828C67.5276 73.7086 66.4379 73.7086 65.7638 74.3828C65.0897 75.0552 65.0897 76.1466 65.7638 76.8207L66.9552 78.0138C60.5138 83.8948 52.1276 87.4603 43.1034 87.8672V86.2069C43.1034 85.2552 42.331 84.4828 41.3793 84.4828C40.4276 84.4828 39.6552 85.2552 39.6552 86.2069V87.8879C30.4948 87.4759 22.169 83.8017 15.819 78L16.9966 76.8224C17.6707 76.1483 17.6707 75.0586 16.9966 74.3845C16.3224 73.7104 15.2328 73.7104 14.5586 74.3845L13.381 75.5621C7.57759 69.2103 3.90345 60.8845 3.49138 51.7241H5.17241C6.12414 51.7241 6.89655 50.9517 6.89655 50C6.89655 49.0483 6.12414 48.2759 5.17241 48.2759H3.49138C3.90345 39.1155 7.57759 30.7897 13.3793 24.4397L14.5569 25.6172C14.8931 25.9534 15.3345 26.1224 15.7759 26.1224C16.2172 26.1224 16.6586 25.9534 16.9948 25.6172C17.669 24.9431 17.669 23.8534 16.9948 23.1793L15.8172 22.0017C22.169 16.1983 30.4948 12.5241 39.6552 12.1121V13.7931C39.6552 14.7448 40.4276 15.5172 41.3793 15.5172C42.331 15.5172 43.1034 14.7448 43.1034 13.7931V12.1328C52.1276 12.5397 60.5138 16.1052 66.9552 21.9862L65.7638 23.1793C65.0897 23.8534 65.0897 24.9448 65.7638 25.6172C66.1 25.9534 66.5414 26.1224 66.9828 26.1224C67.4241 26.1224 67.8655 25.9534 68.2017 25.6172L69.3845 24.4328C71.6431 26.9086 73.6034 29.6914 75.1655 32.7586H67.1603C61.3879 24.1103 51.8293 18.9655 41.3776 18.9655C24.2655 18.9655 10.3431 32.8879 10.3431 50C10.3431 67.1121 24.2655 81.0345 41.3776 81.0345C51.8293 81.0345 61.3879 75.8897 67.1603 67.2414H75.1655C73.6034 70.3086 71.6431 73.0914 69.3845 75.5672ZM41.3793 67.1724C39.2 66.5172 29.3103 63.0965 29.3103 55.1724V35.8293L41.3793 32.8121L53.4483 35.8293V55.1724C53.4483 63.0983 43.5586 66.5172 41.3793 67.1724ZM55.3845 32.7586L41.7983 29.3621C41.5241 29.2931 41.2362 29.2931 40.9621 29.3621L27.169 32.8103C26.4 33.0017 25.8621 33.6914 25.8621 34.4828V55.1724C25.8621 66.731 40.3448 70.4845 40.9603 70.6379C41.0983 70.6724 41.2379 70.6897 41.3793 70.6897C41.5207 70.6897 41.6603 70.6724 41.7983 70.6379C42.1034 70.5621 45.8138 69.5965 49.4793 67.2414H62.9052C57.7034 73.769 49.8724 77.5862 41.3793 77.5862C26.169 77.5862 13.7931 65.2103 13.7931 50C13.7931 34.7897 26.169 22.4138 41.3793 22.4138C49.8724 22.4138 57.7034 26.231 62.9052 32.7586H55.3845ZM96.5517 62.069C96.5517 63.019 95.7793 63.7931 94.8276 63.7931H77.8879C77.8845 63.7931 77.881 63.7931 77.8776 63.7931H53.5638C55.5017 61.5845 56.8965 58.7552 56.8965 55.1724V36.2069H77.881H77.8862H94.8276C95.7793 36.2069 96.5517 36.981 96.5517 37.931V62.069Z" fill="black"/>
<path d="M89.6554 55.1729H77.5864C76.633 55.1729 75.8623 55.9453 75.8623 56.897C75.8623 57.8487 76.633 58.6211 77.5864 58.6211H89.6554C90.6089 58.6211 91.3795 57.8487 91.3795 56.897C91.3795 55.9453 90.6089 55.1729 89.6554 55.1729Z" fill="black"/>
</g>
<defs>
<clipPath id="clip0_162_513">
<rect width="100" height="100" fill="white"/>
</clipPath>
</defs>
</svg>
