<svg width="100" height="100" viewBox="0 0 100 100" fill="none" xmlns="http://www.w3.org/2000/svg">
<g clip-path="url(#clip0_112_1286)">
<path d="M72.7292 96.9697H62.8807V93.9394C62.8807 93.5375 62.7211 93.1522 62.437 92.868C62.1528 92.5839 61.7674 92.4242 61.3656 92.4242C60.9637 92.4242 60.5784 92.5839 60.2942 92.868C60.0101 93.1522 59.8504 93.5375 59.8504 93.9394V96.9697H40.1535V89.3939H46.9696C47.3715 89.3939 47.7569 89.2343 48.041 88.9502C48.3251 88.666 48.4848 88.2806 48.4848 87.8788C48.4848 87.4769 48.3251 87.0916 48.041 86.8074C47.7569 86.5233 47.3715 86.3636 46.9696 86.3636H4.54539C4.14406 86.3626 3.7595 86.2025 3.47591 85.9186C3.19231 85.6346 3.03279 85.2498 3.03226 84.8485V6.06061C3.03226 5.25692 3.35152 4.48615 3.91981 3.91786C4.4881 3.34957 5.25887 3.0303 6.06256 3.0303H46.9696C47.3715 3.0303 47.7569 2.87067 48.041 2.58653C48.3251 2.30238 48.4848 1.91699 48.4848 1.51515C48.4848 1.11331 48.3251 0.727924 48.041 0.443778C47.7569 0.159632 47.3715 0 46.9696 0L6.06256 0C4.45519 0 2.91365 0.638526 1.77706 1.77511C0.640479 2.91169 0.00195313 4.45323 0.00195312 6.06061L0.00195313 84.8485C0.00355664 86.0535 0.482966 87.2087 1.33506 88.0608C2.18715 88.9129 3.34237 89.3923 4.54741 89.3939H37.1232V96.9697H27.2747C26.8728 96.9697 26.4875 97.1293 26.2033 97.4135C25.9192 97.6976 25.7595 98.083 25.7595 98.4848C25.7595 98.8867 25.9192 99.2721 26.2033 99.5562C26.4875 99.8404 26.8728 100 27.2747 100H72.7292C73.1311 100 73.5164 99.8404 73.8006 99.5562C74.0847 99.2721 74.2444 98.8867 74.2444 98.4848C74.2444 98.083 74.0847 97.6976 73.8006 97.4135C73.5164 97.1293 73.1311 96.9697 72.7292 96.9697Z" fill="black"/>
<path d="M93.9418 0H57.5782C55.9708 0 54.4293 0.638526 53.2927 1.77511C52.1561 2.91169 51.5176 4.45323 51.5176 6.06061V83.3333C51.5176 84.9407 52.1561 86.4822 53.2927 87.6188C54.4293 88.7554 55.9708 89.3939 57.5782 89.3939H93.9418C95.5492 89.3939 97.0907 88.7554 98.2273 87.6188C99.3639 86.4822 100.002 84.9407 100.002 83.3333V6.06061C100.002 4.45323 99.3639 2.91169 98.2273 1.77511C97.0907 0.638526 95.5492 0 93.9418 0ZM57.5782 3.0303H93.9418C94.7455 3.0303 95.5163 3.34957 96.0846 3.91786C96.6529 4.48615 96.9721 5.25692 96.9721 6.06061V13.6364H54.5479V6.06061C54.5479 5.25692 54.8671 4.48615 55.4354 3.91786C56.0037 3.34957 56.7745 3.0303 57.5782 3.0303ZM96.9721 72.7273H54.5479V16.6667H96.9721V72.7273ZM93.9418 86.3636H57.5782C56.7745 86.3636 56.0037 86.0444 55.4354 85.4761C54.8671 84.9078 54.5479 84.137 54.5479 83.3333V75.7576H96.9721V83.3333C96.9721 84.137 96.6529 84.9078 96.0846 85.4761C95.5163 86.0444 94.7455 86.3636 93.9418 86.3636Z" fill="black"/>
<path d="M71.2144 9.77737H80.3053C80.7071 9.77737 81.0925 9.61774 81.3767 9.3336C81.6608 9.04945 81.8204 8.66407 81.8204 8.26222C81.8204 7.86038 81.6608 7.47499 81.3767 7.19085C81.0925 6.9067 80.7071 6.74707 80.3053 6.74707H71.2144C70.8125 6.74707 70.4271 6.9067 70.143 7.19085C69.8588 7.47499 69.6992 7.86038 69.6992 8.26222C69.6992 8.66407 69.8588 9.04945 70.143 9.3336C70.4271 9.61774 70.8125 9.77737 71.2144 9.77737Z" fill="black"/>
<path d="M64.8508 80.0528C64.5806 80.3394 64.4325 80.7197 64.4376 81.1134C64.4428 81.5072 64.6008 81.8835 64.8783 82.1629C65.1559 82.4422 65.5311 82.6027 65.9248 82.6105C66.3186 82.6182 66.6998 82.4726 66.9881 82.2044C67.1311 82.0636 67.2448 81.8961 67.3228 81.7113C67.4008 81.5265 67.4415 81.3282 67.4427 81.1276C67.4379 80.7236 67.2746 80.3377 66.9881 80.0528C66.696 79.7864 66.3149 79.6387 65.9195 79.6387C65.5241 79.6387 65.1429 79.7864 64.8508 80.0528Z" fill="black"/>
<path d="M75.7593 79.6123C75.3574 79.6123 74.9721 79.7719 74.6879 80.0561C74.4038 80.3402 74.2441 80.7256 74.2441 81.1275C74.2441 81.5293 74.4038 81.9147 74.6879 82.1988C74.9721 82.483 75.3574 82.6426 75.7593 82.6426C76.1611 82.6426 76.5465 82.483 76.8307 82.1988C77.1148 81.9147 77.2744 81.5293 77.2744 81.1275C77.2744 80.7256 77.1148 80.3402 76.8307 80.0561C76.5465 79.7719 76.1611 79.6123 75.7593 79.6123Z" fill="black"/>
<path d="M84.54 80.0528C84.2579 80.3393 84.1004 80.7256 84.1016 81.1276C84.0999 81.3271 84.1377 81.5251 84.213 81.7099C84.2882 81.8947 84.3994 82.0628 84.54 82.2044C84.6806 82.3464 84.8484 82.4585 85.0335 82.5338C85.2186 82.6091 85.417 82.6462 85.6168 82.6427C85.9149 82.6385 86.2053 82.5466 86.4517 82.3787C86.6981 82.2108 86.8897 81.9741 87.0027 81.6982C87.1157 81.4222 87.1451 81.1192 87.0873 80.8266C87.0294 80.5341 86.8869 80.265 86.6774 80.0528C86.3852 79.7864 86.0041 79.6387 85.6087 79.6387C85.2133 79.6387 84.8321 79.7864 84.54 80.0528Z" fill="black"/>
<path d="M21.7286 62.8064C23.7008 65.5527 26.1066 67.9599 28.8518 69.9337C29.1096 70.1217 29.4205 70.223 29.7397 70.223C30.0588 70.223 30.3697 70.1217 30.6275 69.9337L38.1427 64.4791C38.4902 64.6347 38.8498 64.7842 39.2154 64.9256L40.678 74.0953C40.7286 74.409 40.8762 74.699 41.1002 74.9244C41.3242 75.1498 41.6132 75.2993 41.9265 75.3519C43.5962 75.6241 45.2853 75.7592 46.977 75.7559C47.3789 75.7559 47.7643 75.5963 48.0484 75.3121C48.3326 75.028 48.4922 74.6426 48.4922 74.2408C48.4922 73.8389 48.3326 73.4535 48.0484 73.1694C47.7643 72.8852 47.3789 72.7256 46.977 72.7256C45.8164 72.7298 44.6566 72.6623 43.5043 72.5236L42.078 63.568C42.0348 63.2953 41.9179 63.0395 41.7399 62.8283C41.5619 62.6172 41.3295 62.4587 41.0679 62.3701C40.252 62.1019 39.4583 61.7703 38.6942 61.3781C38.4445 61.2505 38.1644 61.1945 37.8849 61.2162C37.6054 61.238 37.3373 61.3367 37.1104 61.5014L29.7669 66.8307C27.9342 65.4017 26.2853 63.7514 24.8578 61.9175L30.1871 54.5741C30.3513 54.3472 30.4493 54.0791 30.47 53.7998C30.4906 53.5205 30.4333 53.2409 30.3043 52.9923C29.9161 52.2283 29.5859 51.4361 29.3164 50.6226C29.2296 50.3578 29.0715 50.1222 28.8594 49.9415C28.6473 49.7608 28.3896 49.642 28.1144 49.5983L19.1589 48.1842C18.8679 45.8775 18.8679 43.5434 19.1589 41.2367L28.1164 39.8105C28.3909 39.7672 28.6482 39.6491 28.8599 39.4691C29.0716 39.2891 29.2295 39.0542 29.3164 38.7903C29.5861 37.9722 29.9163 37.1754 30.3043 36.4064C30.4293 36.1573 30.4835 35.8786 30.4611 35.6007C30.4387 35.3229 30.3404 35.0565 30.177 34.8307L24.8498 27.4973C26.2756 25.6614 27.9247 24.0103 29.7589 22.5822L37.1043 27.9074C37.3272 28.0695 37.5903 28.1673 37.865 28.1901C38.1397 28.2129 38.4153 28.1599 38.6619 28.0367C39.4372 27.6517 40.2377 27.3196 41.0578 27.0428C41.3197 26.954 41.5522 26.7952 41.7303 26.5837C41.9083 26.3721 42.0251 26.1159 42.0679 25.8428L43.4962 16.8832C44.6475 16.7385 45.8066 16.6663 46.9669 16.667C47.3688 16.667 47.7542 16.5074 48.0383 16.2232C48.3225 15.9391 48.4821 15.5537 48.4821 15.1519C48.4821 14.75 48.3225 14.3646 48.0383 14.0805C47.7542 13.7964 47.3688 13.6367 46.9669 13.6367C45.2749 13.6356 43.5857 13.7742 41.9164 14.0509C41.6034 14.1038 41.3149 14.2535 41.0913 14.4789C40.8677 14.7043 40.7204 14.994 40.67 15.3074L39.2073 24.4812C38.8558 24.6185 38.5023 24.766 38.1407 24.9276L30.6174 19.4731C30.3596 19.2858 30.0492 19.185 29.7306 19.185C29.4119 19.185 29.1015 19.2858 28.8437 19.4731C26.0954 21.4463 23.6885 23.8559 21.7185 26.6064C21.5324 26.8647 21.4322 27.175 21.4322 27.4933C21.4322 27.8116 21.5324 28.1219 21.7185 28.3802L27.173 35.8872C27.0134 36.2428 26.8659 36.5963 26.7285 36.9539L17.577 38.4125C17.2631 38.4618 16.9728 38.6087 16.7472 38.8325C16.5216 39.0563 16.3723 39.3455 16.3205 39.6589C15.7656 42.9983 15.7656 46.4064 16.3205 49.7458C16.3727 50.0595 16.5224 50.3487 16.7483 50.5725C16.9742 50.7962 17.2649 50.9431 17.5791 50.9923L26.7467 52.4509C26.8814 52.8078 27.0296 53.1627 27.1912 53.5155L21.7366 61.0327C21.5488 61.2899 21.4469 61.5998 21.4454 61.9182C21.444 62.2367 21.5431 62.5475 21.7286 62.8064Z" fill="black"/>
<path d="M46.9702 38.5518C47.372 38.5518 47.7574 38.3922 48.0416 38.108C48.3257 37.8239 48.4853 37.4385 48.4853 37.0367C48.4853 36.6348 48.3257 36.2494 48.0416 35.9653C47.7574 35.6811 47.372 35.5215 46.9702 35.5215C45.7536 35.5035 44.5456 35.7275 43.4164 36.1806C42.2872 36.6336 41.2594 37.3067 40.3927 38.1607C39.526 39.0146 38.8377 40.0323 38.368 41.1547C37.8982 42.277 37.6562 43.4816 37.6562 44.6983C37.6562 45.915 37.8982 47.1195 38.368 48.2419C38.8377 49.3642 39.526 50.382 40.3927 51.2359C41.2594 52.0898 42.2872 52.7629 43.4164 53.216C44.5456 53.6691 45.7536 53.8931 46.9702 53.875C47.372 53.875 47.7574 53.7154 48.0416 53.4313C48.3257 53.1471 48.4853 52.7617 48.4853 52.3599C48.4853 51.9581 48.3257 51.5727 48.0416 51.2885C47.7574 51.0044 47.372 50.8447 46.9702 50.8447C46.1536 50.8596 45.3423 50.7115 44.5837 50.4093C43.825 50.107 43.1341 49.6566 42.5514 49.0844C41.9687 48.5122 41.5059 47.8296 41.1899 47.0765C40.874 46.3235 40.7113 45.515 40.7113 44.6983C40.7113 43.8816 40.874 43.0731 41.1899 42.32C41.5059 41.5669 41.9687 40.8844 42.5514 40.3121C43.1341 39.7399 43.825 39.2895 44.5837 38.9873C45.3423 38.6851 46.1536 38.537 46.9702 38.5518Z" fill="black"/>
</g>
<defs>
<clipPath id="clip0_112_1286">
<rect width="100" height="100" fill="white"/>
</clipPath>
</defs>
</svg>
