<svg width="100" height="100" viewBox="0 0 100 100" fill="none" xmlns="http://www.w3.org/2000/svg">
<path d="M49.957 81.9666C49.957 82.7217 49.3449 83.3338 48.5898 83.3338H11.0396C10.2846 83.3338 9.67246 82.7217 9.67246 81.9666C9.67246 81.2115 10.2846 80.5994 11.0396 80.5994H48.5898C49.3449 80.5994 49.957 81.2115 49.957 81.9666ZM16.8623 17.1607C16.8623 13.0008 20.2473 9.61621 24.4078 9.61621C28.5684 9.61621 31.9533 13.0008 31.9533 17.1607C31.9533 21.3213 28.5684 24.7063 24.4078 24.7063C20.2473 24.7063 16.8623 21.3213 16.8623 17.1607ZM19.5967 17.1607C19.5967 19.8137 21.7549 21.9719 24.4078 21.9719C27.0607 21.9719 29.2189 19.8137 29.2189 17.1607C29.2189 14.5084 27.0607 12.3506 24.4078 12.3506C21.7549 12.3506 19.5967 14.5084 19.5967 17.1607ZM9.67246 40.2664C9.67246 32.142 16.2826 25.5322 24.4076 25.5322C32.532 25.5322 39.1416 32.142 39.1416 40.2664C39.1416 41.8941 38.2615 44.1586 34.0693 45.702C31.4975 46.6488 28.066 47.1705 24.4068 47.1705C20.7477 47.1705 17.3162 46.649 14.7443 45.702C10.5525 44.1584 9.67246 41.8941 9.67246 40.2664ZM12.4068 40.2664C12.4068 42.5654 17.79 44.4361 24.407 44.4361C31.024 44.4361 36.4072 42.5656 36.4072 40.2664C36.4072 33.6498 31.024 28.2666 24.4076 28.2666C17.7904 28.2666 12.4068 33.6496 12.4068 40.2664ZM98.2422 51.9143V96.875C98.2422 97.6301 97.6301 98.2422 96.875 98.2422H52.0391H3.125C2.36992 98.2422 1.75781 97.6301 1.75781 96.875V3.125C1.75781 2.36992 2.36992 1.75781 3.125 1.75781H61.916C62.2785 1.75781 62.6264 1.90176 62.8828 2.1582L78.1268 17.4023C78.383 17.6586 78.5271 18.0064 78.5271 18.3691V26.4006C85.9781 28.2307 91.5225 34.9666 91.5225 42.974V50.5471H96.875C97.6301 50.5471 98.2422 51.1592 98.2422 51.9143ZM74.4572 28.6432C66.5551 28.6432 60.1262 35.0721 60.1262 42.974V50.5471H64.9941V42.2057C64.9941 37.4115 68.8947 33.5109 73.6891 33.5109H75.2256C80.0199 33.5109 83.9203 37.4113 83.9203 42.2057V50.5471H88.7883V42.974C88.7881 35.0719 82.3594 28.6432 74.4572 28.6432ZM75.7928 50.5471V36.2732C75.6059 36.2555 75.417 36.2455 75.2256 36.2455H73.6891C70.4025 36.2455 67.7285 38.9191 67.7285 42.2059V50.5473H75.7928V50.5471ZM78.5271 50.5471H81.1857V42.2057C81.1857 40.1395 80.1285 38.316 78.5271 37.2463V50.5471ZM63.2832 17.0018H73.8592L63.2832 6.42559V17.0018ZM4.49219 95.5078H50.6719V71.3281H11.0396C10.2846 71.3281 9.67246 70.716 9.67246 69.9609C9.67246 69.2059 10.2846 68.5938 11.0396 68.5938H50.6719V59.3229H11.0396C10.2846 59.3229 9.67246 58.7107 9.67246 57.9557C9.67246 57.2006 10.2846 56.5885 11.0396 56.5885H50.6719V51.9141C50.6719 51.159 51.284 50.5469 52.0391 50.5469H57.3916V42.9738C57.3916 33.5641 65.0471 25.9086 74.457 25.9086C74.9064 25.9086 75.3518 25.9264 75.7926 25.9605V19.7359H61.916C61.1609 19.7359 60.5488 19.1238 60.5488 18.3687V4.49219H4.49219V95.5078ZM95.5078 53.2814H53.4062V95.5078H95.5078V53.2814ZM64.9941 69.8176C64.9941 64.5996 69.2391 60.3547 74.457 60.3547C79.675 60.3547 83.9199 64.5996 83.9199 69.8176C83.9199 74.5711 80.3963 78.5158 75.8242 79.1805V87.0672C75.8242 87.8223 75.2121 88.4344 74.457 88.4344C73.702 88.4344 73.0898 87.8223 73.0898 87.0672V79.1805C68.5176 78.5156 64.9941 74.5711 64.9941 69.8176ZM67.7285 69.8176C67.7285 73.5277 70.7469 76.5461 74.457 76.5461C78.1672 76.5461 81.1855 73.5277 81.1855 69.8176C81.1855 66.1074 78.1672 63.0891 74.457 63.0891C70.7469 63.0891 67.7285 66.1074 67.7285 69.8176Z" fill="black"/>
</svg>
