<svg width="100" height="100" viewBox="0 0 100 100" fill="none" xmlns="http://www.w3.org/2000/svg">
<g clip-path="url(#clip0_112_1454)">
<path d="M79.4923 31.4448H59.9611C53.4992 31.4448 48.2422 36.7018 48.2422 43.1636C48.2422 49.6253 53.4992 54.8823 59.9611 54.8823H79.4923C85.954 54.8823 91.2111 49.6253 91.2111 43.1636C91.2111 36.7018 85.954 31.4448 79.4923 31.4448ZM79.4923 50.976H59.9611C55.6531 50.976 52.1484 47.4714 52.1484 43.1636C52.1484 38.8557 55.6531 35.3511 59.9611 35.3511H79.4923C83.8001 35.3511 87.3048 38.8557 87.3048 43.1636C87.3048 47.4714 83.8001 50.976 79.4923 50.976Z" fill="black"/>
<path d="M59.9635 40.2339H59.9621C58.3441 40.2339 57.0332 41.5456 57.0332 43.1636C57.0332 44.7815 58.3455 46.0933 59.9635 46.0933C61.5814 46.0933 62.8932 44.7815 62.8932 43.1636C62.8932 41.5456 61.5814 40.2339 59.9635 40.2339Z" fill="black"/>
<path d="M79.493 40.2339H79.4914C77.8734 40.2339 76.5625 41.5456 76.5625 43.1636C76.5625 44.7815 77.875 46.0933 79.493 46.0933C81.1109 46.0933 82.4227 44.7815 82.4227 43.1636C82.4227 41.5456 81.1109 40.2339 79.493 40.2339Z" fill="black"/>
<path d="M90.2344 21.6795H71.6799V17.466C74.2274 16.6402 76.0745 14.2447 76.0745 11.4258C76.0745 7.92558 73.227 5.07812 69.7268 5.07812C66.2266 5.07812 63.3792 7.92558 63.3792 11.4258C63.3792 14.2447 65.2262 16.6404 67.7737 17.466V21.6795H49.219C43.8343 21.6795 39.4534 26.0603 39.4534 31.4451V48.0466H9.76561C4.38085 48.0466 0 52.4274 0 57.8122V77.3434C0 82.0594 3.36054 86.0055 7.81249 86.9127V92.9684C7.81249 93.6453 8.16288 94.274 8.73885 94.6299C9.05233 94.8238 9.40838 94.9215 9.76561 94.9215C10.064 94.9215 10.3635 94.8531 10.639 94.7153L25.8515 87.109H50.781C56.1657 87.109 60.5466 82.7282 60.5466 77.3434V64.6481H74.1485L89.361 72.2544C89.6367 72.3923 89.9358 72.4606 90.2346 72.4606C90.5916 72.4606 90.9477 72.3628 91.2615 72.169C91.8371 71.8131 92.1877 71.1844 92.1877 70.5075V64.4518C96.6397 63.5444 100 59.5983 100 54.8825V31.4451C100 26.0603 95.6192 21.6795 90.2344 21.6795ZM69.7268 8.98417C71.0731 8.98417 72.1682 10.0793 72.1682 11.4256C72.1682 12.7719 71.0731 13.867 69.7268 13.867C68.3805 13.867 67.2854 12.7719 67.2854 11.4256C67.2854 10.0793 68.3805 8.98417 69.7268 8.98417ZM56.6403 77.3434C56.6403 80.5743 54.0118 83.2028 50.781 83.2028H25.3906C25.0875 83.2028 24.7884 83.2733 24.5171 83.409L11.7187 89.8082V85.1559C11.7187 84.0774 10.8443 83.2028 9.76561 83.2028C6.53475 83.2028 3.90624 80.5743 3.90624 77.3434V57.8122C3.90624 54.5813 6.53475 51.9528 9.76561 51.9528H39.4534V54.8825C39.4534 60.2673 43.8343 64.6481 49.219 64.6481H56.6403V77.3434ZM96.0938 54.8825C96.0938 58.1134 93.4653 60.7419 90.2344 60.7419C89.1559 60.7419 88.2813 61.6165 88.2813 62.695V67.3471L75.4831 60.9479C75.2118 60.8124 74.9128 60.7417 74.6094 60.7417H49.219C45.9882 60.7417 43.3597 58.1132 43.3597 54.8823V31.4451C43.3597 28.2142 45.9882 25.5857 49.219 25.5857H90.2344C93.4653 25.5857 96.0938 28.2142 96.0938 31.4451V54.8825Z" fill="black"/>
<path d="M21.4852 65.6245H21.4838C20.4051 65.6245 19.5312 66.4991 19.5312 67.5776C19.5312 68.6561 20.4064 69.5308 21.4852 69.5308C22.5639 69.5308 23.4383 68.6561 23.4383 67.5776C23.4383 66.4991 22.5639 65.6245 21.4852 65.6245Z" fill="black"/>
<path d="M30.2742 65.6245H30.2728C29.1941 65.6245 28.3203 66.4991 28.3203 67.5776C28.3203 68.6561 29.1955 69.5308 30.2742 69.5308C31.3529 69.5308 32.2273 68.6561 32.2273 67.5776C32.2273 66.4991 31.3529 65.6245 30.2742 65.6245Z" fill="black"/>
<path d="M39.0633 65.6245H39.0619C37.9832 65.6245 37.1094 66.4991 37.1094 67.5776C37.1094 68.6561 37.9846 69.5308 39.0633 69.5308C40.142 69.5308 41.0164 68.6561 41.0164 67.5776C41.0164 66.4991 40.142 65.6245 39.0633 65.6245Z" fill="black"/>
</g>
<defs>
<clipPath id="clip0_112_1454">
<rect width="100" height="100" fill="white"/>
</clipPath>
</defs>
</svg>
