<svg width="100" height="100" viewBox="0 0 100 100" fill="none" xmlns="http://www.w3.org/2000/svg">
<path d="M11.711 13.0361C11.6141 12.7998 11.4698 12.582 11.2891 12.4013C11.1993 12.3115 11.0997 12.2295 10.9923 12.1572C10.8868 12.0871 10.7735 12.0263 10.6544 11.9775C10.5372 11.9287 10.4141 11.8918 10.2891 11.8664C9.42079 11.6908 8.52098 12.1494 8.14247 12.948C7.76454 13.7451 7.98505 14.7334 8.66942 15.2916C9.35673 15.8521 10.3575 15.8763 11.0716 15.3504C11.7825 14.8265 12.0499 13.8502 11.711 13.0361Z" fill="black"/>
<path d="M19.0489 13.0357C18.645 12.0511 17.48 11.5697 16.4982 11.9771C15.5148 12.3853 15.0355 13.5447 15.4415 14.5281C15.8472 15.5101 17.0103 15.9945 17.9923 15.5847C18.9722 15.1759 19.4585 14.0199 19.0489 13.0357Z" fill="black"/>
<path d="M82.8965 49.1428L82.8957 11.8197C82.8957 7.91328 79.7176 4.73535 75.8113 4.73535H7.08457C3.17812 4.73516 0 7.91328 0 11.8197V76.8684C0 80.7746 3.17793 83.9525 7.08398 83.9525H23.1133C24.192 83.9525 25.0664 83.0779 25.0664 81.9994C25.0664 80.9209 24.192 80.0463 23.1133 80.0463H7.08398C5.33184 80.0463 3.90625 78.6207 3.90625 76.8684V22.634H78.9902V48.3943C74.4357 47.9213 69.7666 48.7982 65.7035 50.9152L58.6959 48.8318C58.0533 48.6406 57.325 48.8066 56.8283 49.2559C56.3227 49.7133 56.0922 50.4012 56.2201 51.0711L57.5377 57.9631C54.6369 61.9533 53.0779 66.7965 53.0779 71.7277C53.0779 74.5609 53.5961 77.3961 54.5986 80.0461H40.2822C39.2035 80.0461 38.3291 80.9207 38.3291 81.9992C38.3291 83.0777 39.2035 83.9523 40.2822 83.9523H56.5068C59.3922 88.6855 63.9742 92.2086 69.4467 94.0918C73.8848 95.6189 79.4379 95.6916 83.6256 94.0936C93.3316 91.0322 100 82.0254 100 71.7275C100 60.9938 92.7539 51.9211 82.8965 49.1428ZM3.90625 11.8197C3.90625 10.0672 5.33203 8.6416 7.08457 8.6416H75.8111C77.5637 8.6416 78.9893 10.0674 78.9893 11.8197V18.7275H3.90625V11.8197ZM81.19 80.8441C80.4656 81.2172 80.0434 82.0287 80.15 82.8357L80.842 90.8061C78.0238 91.4404 75.0602 91.4408 72.2418 90.8072L72.9344 82.8273C73.0381 82.0213 72.6145 81.2146 71.892 80.8422C68.4883 79.0879 66.3738 75.6246 66.3738 71.8045C66.3738 68.6303 67.8783 65.6576 70.3367 63.7535V71.8045C70.3367 72.883 71.2111 73.7576 72.2898 73.7576H80.717C81.7957 73.7576 82.6701 72.883 82.6701 71.8045V63.6947C85.1732 65.5926 86.7053 68.5855 86.7053 71.8045C86.7057 75.6275 84.5922 79.0914 81.19 80.8441ZM84.6518 89.5266L84.1412 83.6471C88.1637 81.0713 90.6117 76.6463 90.6117 71.8043C90.6117 65.8926 86.8633 60.7611 81.4334 58.6209C80.1758 58.1252 78.7641 59.0855 78.7641 60.4381V69.8512H74.2432V60.432C74.2432 59.0459 72.7646 58.084 71.4973 58.6469C66.1949 61.0018 62.4678 65.8477 62.4678 71.8041C62.4678 76.6441 64.9178 81.0693 68.9426 83.6459L68.4318 89.5289C61.5182 86.3912 56.985 79.3098 56.985 71.7273C56.985 67.3594 58.4557 63.0898 61.1549 59.6549C61.4994 59.2164 61.6428 58.6289 61.5379 58.0805L60.6605 53.4912L65.3672 54.8904C65.8771 55.0422 66.4268 54.9789 66.8891 54.7162C70.977 52.3916 75.8779 51.6268 80.4818 52.5723C89.3811 54.4018 96.0938 62.2955 96.0938 71.7275C96.0938 79.5072 91.5291 86.4029 84.6518 89.5266Z" fill="black"/>
<path d="M12.5957 36.0664H16.6488C17.4764 38.6404 19.8928 40.5088 22.7383 40.5088C25.5838 40.5088 28.0002 38.6404 28.8277 36.0664H69.9471C71.0258 36.0664 71.9002 35.1918 71.9002 34.1133C71.9002 33.0348 71.0258 32.1602 69.9471 32.1602H28.8277C28.0002 29.5861 25.5838 27.7178 22.7383 27.7178C19.8928 27.7178 17.4764 29.5861 16.6488 32.1602H12.5957C11.517 32.1602 10.6426 33.0348 10.6426 34.1133C10.6426 35.1918 11.517 36.0664 12.5957 36.0664ZM22.7381 31.624C24.1107 31.624 25.2275 32.7408 25.2275 34.1133C25.2275 35.4857 24.1107 36.6025 22.7381 36.6025C21.3654 36.6025 20.2488 35.4857 20.2488 34.1133C20.2488 32.7408 21.3656 31.624 22.7381 31.624Z" fill="black"/>
<path d="M12.5957 51.2197H30.3754C31.2029 53.7937 33.6193 55.6621 36.4648 55.6621C39.3104 55.6621 41.7268 53.7937 42.5543 51.2197H49.9992C51.0779 51.2197 51.9523 50.3451 51.9523 49.2666C51.9523 48.1881 51.0779 47.3135 49.9992 47.3135H42.5541C41.7266 44.7395 39.3102 42.8711 36.4646 42.8711C33.6191 42.8711 31.2027 44.7395 30.3752 47.3135H12.5957C11.517 47.3135 10.6426 48.1881 10.6426 49.2666C10.6426 50.3453 11.517 51.2197 12.5957 51.2197ZM36.4648 46.7773C37.8375 46.7773 38.9541 47.8941 38.9541 49.2666C38.9541 50.6391 37.8375 51.7559 36.4648 51.7559C35.0922 51.7559 33.9754 50.6391 33.9754 49.2666C33.9754 47.8941 35.0922 46.7773 36.4648 46.7773Z" fill="black"/>
<path d="M10.6426 71.7791C10.6426 72.8576 11.517 73.7322 12.5957 73.7322H45.4533C46.532 73.7322 47.4064 72.8576 47.4064 71.7791V62.1904C47.4064 61.1119 46.532 60.2373 45.4533 60.2373H12.5957C11.517 60.2373 10.6426 61.1119 10.6426 62.1904V71.7791ZM14.5488 64.1436H43.5002V69.826H14.5488V64.1436Z" fill="black"/>
<path d="M30.0227 82.7449C30.3371 83.5128 31.143 84.0101 31.9707 83.9457C32.7867 83.8824 33.4879 83.3078 33.7074 82.5191C34.1695 80.8578 32.3053 79.4396 30.8238 80.3248C30.0051 80.8142 29.6551 81.8634 30.0227 82.7449Z" fill="black"/>
</svg>
