<svg width="100" height="100" viewBox="0 0 100 100" fill="none" xmlns="http://www.w3.org/2000/svg">
<path d="M28.3962 90.4513H6.13616C3.27393 90.4513 0.947266 88.1224 0.947266 85.2624V42.2824C0.947266 39.4202 3.27615 37.0935 6.13616 37.0935H28.3962C31.2584 37.0935 33.585 39.4224 33.585 42.2824C33.585 42.8957 33.0873 43.3935 32.4739 43.3935C31.8606 43.3935 31.3628 42.8957 31.3628 42.2824C31.3628 40.6468 30.0317 39.3157 28.3962 39.3157H6.13616C4.5006 39.3157 3.16949 40.6468 3.16949 42.2824V85.2624C3.16949 86.8979 4.5006 88.229 6.13616 88.229H28.3962C30.0317 88.229 31.3628 86.8979 31.3628 85.2624C31.3628 84.649 31.8606 84.1513 32.4739 84.1513C33.0873 84.1513 33.585 84.649 33.585 85.2624C33.585 88.1246 31.2562 90.4513 28.3962 90.4513ZM17.265 75.2557C10.9339 75.2557 5.78282 70.1046 5.78282 63.7735C5.78282 57.4424 10.9339 52.2913 17.265 52.2913C23.5962 52.2913 28.7473 57.4424 28.7473 63.7735C28.7473 70.1046 23.5962 75.2557 17.265 75.2557ZM17.265 54.5135C12.1584 54.5135 8.00504 58.6668 8.00504 63.7735C8.00504 68.8802 12.1584 73.0335 17.265 73.0335C22.3717 73.0335 26.525 68.8802 26.525 63.7735C26.525 58.6668 22.3717 54.5135 17.265 54.5135ZM25.4784 71.2179C24.9828 71.2179 24.5317 70.8846 24.4028 70.3824C23.8495 68.2335 22.3073 66.4046 20.2739 65.4957C19.7139 65.2446 19.4628 64.5868 19.7139 64.0268C19.965 63.4668 20.6228 63.2157 21.1828 63.4668C23.8273 64.6513 25.8339 67.029 26.5539 69.829C26.7073 70.4224 26.3495 71.029 25.7539 71.1824C25.6628 71.2068 25.5695 71.2179 25.4784 71.2179ZM9.05393 71.2179C8.96282 71.2179 8.86949 71.2068 8.77616 71.1824C8.18282 71.029 7.82504 70.4246 7.97615 69.829C8.69616 67.029 10.705 64.6513 13.3473 63.4668C13.9073 63.2157 14.565 63.4668 14.8162 64.0268C15.0673 64.5868 14.8162 65.2446 14.2562 65.4957C12.225 66.4068 10.6806 68.2335 10.1273 70.3824C10.0006 70.8846 9.54727 71.2179 9.05393 71.2179ZM20.8895 43.2757H13.6428C13.0295 43.2757 12.5317 42.7779 12.5317 42.1646C12.5317 41.5513 13.0295 41.0535 13.6428 41.0535H20.8895C21.5028 41.0535 22.0006 41.5513 22.0006 42.1646C22.0006 42.7779 21.5028 43.2757 20.8895 43.2757ZM19.4162 47.5646H15.1139C14.5006 47.5646 14.0028 47.0668 14.0028 46.4535C14.0028 45.8402 14.5006 45.3424 15.1139 45.3424H19.4162C20.0295 45.3424 20.5273 45.8402 20.5273 46.4535C20.5273 47.0668 20.0317 47.5646 19.4162 47.5646ZM19.4162 86.4913H15.1139C14.5006 86.4913 14.0028 85.9935 14.0028 85.3801C14.0028 84.7668 14.5006 84.269 15.1139 84.269H19.4162C20.0295 84.269 20.5273 84.7668 20.5273 85.3801C20.5273 85.9935 20.0317 86.4913 19.4162 86.4913ZM94.0539 90.4513H36.4784C33.6584 90.4513 31.3628 88.1557 31.3628 85.3357V14.9935C31.3628 12.1735 33.6584 9.87793 36.4784 9.87793H94.0539C96.8762 9.87793 99.1695 12.1735 99.1695 14.9935V85.3357C99.1695 88.1557 96.8739 90.4513 94.0539 90.4513ZM36.4784 12.1002C34.8828 12.1002 33.585 13.3979 33.585 14.9935V85.3357C33.585 86.9313 34.8828 88.229 36.4784 88.229H94.0539C95.6495 88.229 96.9473 86.9313 96.9473 85.3357V14.9935C96.9473 13.3979 95.6495 12.1002 94.0539 12.1002H36.4784ZM61.6362 64.7313H40.3584C38.4339 64.7313 36.8695 63.1668 36.8695 61.2424V39.089C36.8695 37.1646 38.4339 35.6002 40.3584 35.6002H61.6362C63.5606 35.6002 65.125 37.1646 65.125 39.089V61.2424C65.125 63.1646 63.5606 64.7313 61.6362 64.7313ZM40.3584 37.8202C39.6606 37.8202 39.0917 38.389 39.0917 39.0868V61.2402C39.0917 61.9379 39.6606 62.5068 40.3584 62.5068H61.6362C62.3339 62.5068 62.9028 61.9379 62.9028 61.2402V39.0868C62.9028 38.389 62.3339 37.8202 61.6362 37.8202H40.3584ZM90.7562 64.7313H74.6962C73.0939 64.7313 71.7895 63.4268 71.7895 61.8246V38.5046C71.7895 36.9024 73.0939 35.5979 74.6962 35.5979H90.7562C92.3584 35.5979 93.6628 36.9024 93.6628 38.5046V61.8246C93.6628 63.4268 92.3584 64.7313 90.7562 64.7313ZM74.6962 37.8202C74.3251 37.8202 74.0117 38.1335 74.0117 38.5046V61.8246C74.0117 62.1957 74.3251 62.509 74.6962 62.509H90.7562C91.1273 62.509 91.4406 62.1957 91.4406 61.8246V38.5046C91.4406 38.1335 91.1273 37.8202 90.7562 37.8202H74.6962ZM50.0562 58.3379C49.8095 58.3379 49.5606 58.2557 49.3539 58.0868C48.8784 57.6979 48.8073 56.9979 49.1962 56.5224L57.7739 46.0157C58.0006 45.7402 58.3428 45.589 58.7006 45.609C59.0562 45.6313 59.3806 45.8202 59.5717 46.1224L64.9517 54.5757C65.2806 55.0935 65.1295 55.7802 64.6117 56.109C64.0939 56.4379 63.4073 56.2846 63.0784 55.769L58.525 48.6113L50.9184 57.9268C50.6962 58.2002 50.3784 58.3379 50.0562 58.3379ZM54.125 64.7313C53.7584 64.7313 53.3984 64.549 53.1873 64.2157L46.2873 53.3713L38.8917 62.4268C38.5028 62.9024 37.8028 62.9735 37.3273 62.5846C36.8517 62.1957 36.7806 61.4957 37.1695 61.0202L45.5362 50.7735C45.7606 50.4979 46.1073 50.3446 46.4628 50.3668C46.8184 50.389 47.1428 50.5779 47.3339 50.8802L55.0606 63.0224C55.3895 63.5402 55.2384 64.2268 54.7206 64.5557C54.5339 64.6757 54.3295 64.7313 54.125 64.7313ZM90.1739 32.0957H40.3584C38.4339 32.0957 36.8695 30.5313 36.8695 28.6068V19.0935C36.8695 17.169 38.4339 15.6046 40.3584 15.6046H90.1739C92.0984 15.6046 93.6628 17.169 93.6628 19.0935V28.6068C93.6628 30.529 92.0962 32.0957 90.1739 32.0957ZM40.3584 17.8268C39.6606 17.8268 39.0917 18.3957 39.0917 19.0935V28.6068C39.0917 29.3046 39.6606 29.8735 40.3584 29.8735H90.1739C90.8717 29.8735 91.4406 29.3046 91.4406 28.6068V19.0935C91.4406 18.3957 90.8717 17.8268 90.1739 17.8268H40.3584ZM79.4184 26.9313C78.2739 26.9313 77.1962 26.4846 76.3873 25.6757C75.5784 24.8668 75.1317 23.789 75.1317 22.6446C75.1317 21.5002 75.5784 20.4224 76.3873 19.6135C78.0584 17.9424 80.7784 17.9424 82.4495 19.6135C84.1206 21.2846 84.1206 24.0046 82.4495 25.6757C81.6406 26.4846 80.5628 26.9313 79.4184 26.9313ZM79.4184 20.5802C78.8895 20.5802 78.3606 20.7824 77.9584 21.1846C77.5673 21.5735 77.3539 22.0935 77.3539 22.6446C77.3539 23.1957 77.5695 23.7157 77.9584 24.1046C78.3495 24.4957 78.8673 24.709 79.4184 24.709C79.9695 24.709 80.4895 24.4935 80.8784 24.1046C81.6828 23.3002 81.6828 21.989 80.8784 21.1846C80.4762 20.7802 79.9473 20.5802 79.4184 20.5802ZM85.005 29.3424C84.7206 29.3424 84.4362 29.2335 84.2184 29.0179L80.8784 25.6757C80.4451 25.2424 80.4451 24.5379 80.8784 24.1046C81.3117 23.6713 82.0162 23.6713 82.4495 24.1046L85.7895 27.4468C86.2228 27.8802 86.2228 28.5846 85.7895 29.0179C85.5739 29.2335 85.2895 29.3424 85.005 29.3424ZM66.9295 24.8979H45.5273C44.9139 24.8979 44.4162 24.4002 44.4162 23.7868C44.4162 23.1735 44.9139 22.6757 45.5273 22.6757H66.9295C67.5428 22.6757 68.0406 23.1735 68.0406 23.7868C68.0406 24.4002 67.5428 24.8979 66.9295 24.8979ZM47.3673 84.7246H39.8584C38.2117 84.7246 36.8695 83.3846 36.8695 81.7357V71.2224C36.8695 69.5735 38.2095 68.2335 39.8584 68.2335H47.3673C49.0139 68.2335 50.3562 69.5735 50.3562 71.2224V81.7357C50.3562 83.3846 49.0162 84.7246 47.3673 84.7246ZM39.8584 70.4579C39.4428 70.4579 39.0917 70.809 39.0917 71.2246V81.7379C39.0917 82.1602 39.4362 82.5046 39.8584 82.5046H47.3673C47.7895 82.5046 48.1339 82.1602 48.1339 81.7379V71.2224C48.1339 70.8068 47.7828 70.4557 47.3673 70.4557H39.8584V70.4579ZM90.1739 84.7246H60.5095C58.585 84.7246 57.0206 83.1602 57.0206 81.2357V71.7224C57.0206 69.7979 58.585 68.2335 60.5095 68.2335H90.1739C92.0984 68.2335 93.6628 69.7979 93.6628 71.7224V81.2357C93.6628 83.1602 92.0962 84.7246 90.1739 84.7246ZM60.5095 70.4579C59.8117 70.4579 59.2428 71.0268 59.2428 71.7246V81.2379C59.2428 81.9357 59.8117 82.5046 60.5095 82.5046H90.1739C90.8717 82.5046 91.4406 81.9357 91.4406 81.2379V71.7246C91.4406 71.0268 90.8717 70.4579 90.1739 70.4579H60.5095ZM49.9806 49.0535C47.4962 49.0535 45.4739 47.0313 45.4739 44.5468C45.4739 42.0624 47.4962 40.0402 49.9806 40.0402C52.465 40.0402 54.4873 42.0624 54.4873 44.5468C54.4873 47.0313 52.465 49.0535 49.9806 49.0535ZM49.9806 42.2624C48.7206 42.2624 47.6962 43.2868 47.6962 44.5468C47.6962 45.8068 48.7206 46.8313 49.9806 46.8313C51.2406 46.8313 52.265 45.8068 52.265 44.5468C52.265 43.2868 51.2384 42.2624 49.9806 42.2624ZM87.9828 42.5757H77.4695C76.8562 42.5757 76.3584 42.0779 76.3584 41.4646C76.3584 40.8513 76.8562 40.3535 77.4695 40.3535H87.9828C88.5962 40.3535 89.0939 40.8513 89.0939 41.4646C89.0939 42.0779 88.5962 42.5757 87.9828 42.5757ZM87.9828 48.3757H77.4695C76.8562 48.3757 76.3584 47.8779 76.3584 47.2646C76.3584 46.6513 76.8562 46.1535 77.4695 46.1535H87.9828C88.5962 46.1535 89.0939 46.6513 89.0939 47.2646C89.0939 47.8779 88.5962 48.3757 87.9828 48.3757ZM87.9828 54.1757H77.4695C76.8562 54.1757 76.3584 53.6779 76.3584 53.0646C76.3584 52.4513 76.8562 51.9535 77.4695 51.9535H87.9828C88.5962 51.9535 89.0939 52.4513 89.0939 53.0646C89.0939 53.6779 88.5962 54.1757 87.9828 54.1757ZM87.9828 59.9757H77.4695C76.8562 59.9757 76.3584 59.4779 76.3584 58.8646C76.3584 58.2513 76.8562 57.7535 77.4695 57.7535H87.9828C88.5962 57.7535 89.0939 58.2513 89.0939 58.8646C89.0939 59.4779 88.5962 59.9757 87.9828 59.9757ZM69.9895 77.5913H62.9184C62.305 77.5913 61.8073 77.0935 61.8073 76.4802C61.8073 75.8668 62.305 75.369 62.9184 75.369H69.9895C70.6028 75.369 71.1006 75.8668 71.1006 76.4802C71.1006 77.0935 70.605 77.5913 69.9895 77.5913ZM87.7628 77.5913H73.8073C73.1939 77.5913 72.6962 77.0935 72.6962 76.4802C72.6962 75.8668 73.1939 75.369 73.8073 75.369H87.7628C88.3762 75.369 88.8739 75.8668 88.8739 76.4802C88.8739 77.0935 88.3784 77.5913 87.7628 77.5913ZM17.265 67.2201C14.1717 67.2201 11.6539 64.7024 11.6539 61.609C11.6539 58.5157 14.1717 56.0002 17.265 56.0002C20.3584 56.0002 22.8762 58.5179 22.8762 61.6113C22.8762 64.7046 20.3584 67.2201 17.265 67.2201ZM17.265 58.2224C15.3962 58.2224 13.8762 59.7424 13.8762 61.6113C13.8762 63.4802 15.3962 65.0002 17.265 65.0002C19.1339 65.0002 20.6539 63.4802 20.6539 61.6113C20.6539 59.7424 19.1339 58.2224 17.265 58.2224Z" fill="black"/>
</svg>
