<svg width="100" height="100" viewBox="0 0 100 100" fill="none" xmlns="http://www.w3.org/2000/svg">
<path fill-rule="evenodd" clip-rule="evenodd" d="M21.3758 47.0779C23.0054 47.0779 24.3316 48.4053 24.3316 50.0347C24.3316 51.6641 23.0054 52.9905 21.3758 52.9905C19.7464 52.9905 18.4214 51.6643 18.4214 50.0347C18.4214 48.4051 19.7464 47.0779 21.3758 47.0779ZM40.4302 28.2677C42.0596 28.2677 43.3848 29.5939 43.3848 31.2233C43.3848 32.8529 42.0598 34.1803 40.4302 34.1803C38.7996 34.1803 37.4746 32.8529 37.4746 31.2233C37.4746 29.5939 38.7996 28.2677 40.4302 28.2677ZM59.5072 47.0779C61.1366 47.0779 62.4628 48.4053 62.4628 50.0347C62.4628 51.6641 61.1366 52.9905 59.5072 52.9905C57.8776 52.9905 56.5514 51.6643 56.5514 50.0347C56.5514 48.4051 57.8776 47.0779 59.5072 47.0779ZM78.5592 28.2677C80.1886 28.2677 81.5148 29.5939 81.5148 31.2233C81.5148 32.8529 80.1886 34.1803 78.5592 34.1803C76.9298 34.1803 75.6034 32.8529 75.6034 31.2233C75.6036 29.5939 76.9298 28.2677 78.5592 28.2677ZM21.3758 55.7219C25.8066 55.7219 28.5002 50.8713 26.263 47.1285L37.4616 36.0715C39.2826 37.1919 41.5796 37.1929 43.4002 36.0703L54.6176 47.1321C52.3854 50.8837 55.0848 55.7219 59.5072 55.7219C63.9244 55.7219 66.6364 50.8899 64.3932 47.1285L75.5906 36.0715C79.3524 38.3827 84.2452 35.6727 84.2452 31.2231C84.2452 28.0881 81.6942 25.5371 78.5592 25.5371C74.143 25.5371 71.4296 30.3675 73.6732 34.1293L62.4746 45.1863C60.654 44.0645 58.3554 44.0663 56.535 45.1875L45.3176 34.1257C47.5544 30.3751 44.8524 25.5371 40.4304 25.5371C36.016 25.5371 33.3016 30.3619 35.5432 34.1293L24.3446 45.1863C20.5918 42.8773 15.69 45.5785 15.69 50.0345C15.6898 53.1697 18.2408 55.7219 21.3758 55.7219ZM74.1156 83.3649V45.5533H83.077V83.3649H74.1156ZM55.0518 83.3649V62.9655H64.012V83.3651L55.0518 83.3649ZM35.9868 83.3649V48.8583H44.9494V83.3649H35.9868ZM16.924 83.3649V67.0325H25.8842V83.3649H16.924ZM28.6158 77.7757H33.2552V83.3649H28.6158V77.7757ZM47.6808 77.7757H52.3202V83.3649H47.6808V77.7757ZM66.7436 77.7757H71.3842V83.3649H66.7436V77.7757ZM12.1182 75.0443H14.1924V65.6675C14.1924 64.9135 14.8048 64.3011 15.5576 64.3011H27.2506C28.0034 64.3011 28.6158 64.9135 28.6158 65.6675V75.0443H33.2552V47.4931C33.2552 46.7367 33.8676 46.1267 34.6216 46.1267H46.3146C47.0686 46.1267 47.681 46.7367 47.681 47.4931V75.0441H52.3204V61.5989C52.3204 60.8449 52.9316 60.2337 53.6856 60.2337H65.3774C66.1338 60.2337 66.7438 60.8449 66.7438 61.5989V75.0441H71.3844V44.1881C71.3844 43.4341 71.9968 42.8229 72.7508 42.8229H84.4426C85.1966 42.8229 85.809 43.4341 85.809 44.1881V75.0441H87.8822C89.829 75.0441 91.4136 73.4607 91.4136 71.5127V20.1663C91.4136 18.2205 89.829 16.6347 87.8822 16.6347H12.1182C10.1724 16.6347 8.58559 18.2205 8.58559 20.1663V71.5127C8.58559 73.4607 10.1724 75.0443 12.1182 75.0443ZM93.7024 83.3649H85.8086V77.7757H87.8818C91.3342 77.7757 94.1448 74.9663 94.1448 71.5127V20.1663C94.1448 16.7127 91.3342 13.9033 87.8818 13.9033H12.1182C8.66579 13.9033 5.85519 16.7127 5.85519 20.1663V71.5127C5.85519 74.9663 8.66579 77.7757 12.1182 77.7757H14.1924V83.3649H6.29879C5.54479 83.3649 4.93359 83.9761 4.93359 84.7301C4.93359 85.4853 5.54479 86.0965 6.29879 86.0965H93.7022C94.455 86.0965 95.0674 85.4853 95.0674 84.7301C95.0676 83.9761 94.455 83.3649 93.7024 83.3649Z" fill="black"/>
</svg>
