<svg width="100" height="100" viewBox="0 0 100 100" fill="none" xmlns="http://www.w3.org/2000/svg">
<path fill-rule="evenodd" clip-rule="evenodd" d="M51.2069 6.08264L53.7623 13.999L62.0927 13.983C63.3153 13.9818 63.8209 15.5562 62.8349 16.272L62.8367 16.2744L56.0897 21.1568L58.6787 29.073C59.0529 30.2206 57.7193 31.2706 56.6521 30.43L49.9991 25.5768L43.2687 30.4866C42.2805 31.2066 40.9475 30.2318 41.3227 29.074L41.3193 29.073L43.9083 21.1568L37.1613 16.2744C36.1809 15.5644 36.6467 13.9334 37.9977 13.9832L46.2357 13.999L48.7937 6.07444C49.1725 4.89824 50.8397 4.91404 51.2069 6.08264ZM71.3067 18.8496C70.6053 18.8496 70.0369 19.418 70.0369 20.1194C70.0369 20.8206 70.6053 21.389 71.3067 21.389H81.4557C82.1571 21.389 82.7255 20.8206 82.7255 20.1194C82.7255 19.4182 82.1571 18.8496 81.4557 18.8496H71.3067ZM68.2435 10.8266C67.6079 11.117 67.3281 11.8676 67.6185 12.5032C67.9089 13.1386 68.6595 13.4184 69.2949 13.1282L78.2025 9.04444C78.8379 8.75404 79.1179 8.00344 78.8275 7.36804C78.5371 6.73264 77.7865 6.45264 77.1509 6.74304L68.2435 10.8266ZM70.0151 26.3524C69.3795 26.062 68.6289 26.3418 68.3387 26.9774C68.0483 27.6128 68.3281 28.3634 68.9637 28.6538L78.4909 33.0218C79.1265 33.3122 79.8769 33.0324 80.1673 32.3968C80.4577 31.7614 80.1779 31.0106 79.5423 30.7204L70.0151 26.3524ZM28.2431 18.8496C28.9443 18.8496 29.5129 19.418 29.5129 20.1194C29.5129 20.8206 28.9445 21.389 28.2431 21.389H18.0941C17.3927 21.389 16.8243 20.8206 16.8243 20.1194C16.8243 19.4182 17.3927 18.8496 18.0941 18.8496H28.2431ZM31.3063 10.8266C31.9419 11.117 32.2217 11.8676 31.9313 12.5032C31.6409 13.1386 30.8903 13.4184 30.2549 13.1282L21.3473 9.04444C20.7119 8.75404 20.4319 8.00344 20.7223 7.36804C21.0127 6.73264 21.7633 6.45264 22.3989 6.74304L31.3063 10.8266ZM29.5347 26.3524C30.1703 26.062 30.9209 26.3418 31.2111 26.9774C31.5015 27.6128 31.2217 28.3634 30.5861 28.6538L21.0589 33.0218C20.4233 33.3122 19.6729 33.0324 19.3825 32.3968C19.0921 31.7614 19.3719 31.0106 20.0075 30.7204L29.5347 26.3524ZM21.8445 69.206L16.2151 53.374L11.2117 55.153C10.7647 55.3118 10.5355 55.8092 10.6935 56.2536L15.7465 70.4648C15.9055 70.912 16.4027 71.141 16.8471 70.983L21.8445 69.206ZM18.4583 52.1158L18.6499 52.6548L21.2105 51.7444L34.0581 43.015L33.3577 41.6406C33.0855 41.1568 33.1553 40.5326 33.5671 40.1208L37.2543 36.4336C37.6327 36.056 38.2251 35.945 38.7275 36.2006L41.9507 37.8428C42.9467 37.308 43.9761 36.8806 45.0691 36.5524L46.1615 33.1904C46.3011 32.6408 46.7991 32.2342 47.3921 32.2342H52.6065V32.2362C53.1409 32.2362 53.6377 32.5764 53.8117 33.112L54.9295 36.5522C56.0221 36.8802 57.0521 37.3082 58.0477 37.8426L61.2243 36.224C61.7081 35.9518 62.3323 36.0216 62.7441 36.4334L66.4313 40.1206C66.8091 40.499 66.9201 41.0914 66.6645 41.5936L65.9405 43.0148L78.7881 51.7442L81.3487 52.6546C81.6139 51.9088 81.7889 51.3164 82.6213 50.9206C83.1043 50.691 83.6755 50.6448 84.2177 50.8376L89.6299 52.762C91.3917 53.3884 92.3225 55.3332 91.6955 57.0966L86.6425 71.3078C86.0161 73.0696 84.0715 74.0004 82.3079 73.3734L76.8925 71.4478C75.8277 71.0682 75.2515 69.9038 75.5981 68.83C68.8161 69.2464 66.4363 63.3838 66.2461 63.3156L66.6407 64.0902C66.9129 64.574 66.8431 65.1982 66.4313 65.61L62.7441 69.2972C62.3657 69.6748 61.7733 69.786 61.2711 69.5302L59.5473 68.652L56.3677 80.8402V83.5588C57.1581 83.5588 57.7749 83.5246 58.4249 84.1748C58.8023 84.5522 59.0409 85.0958 59.0409 85.659V91.4032C59.0409 93.276 57.5163 94.8008 55.6435 94.8008H40.5607C38.6879 94.8008 37.1633 93.2762 37.1633 91.4032V85.659C37.1633 84.5314 38.0761 83.5946 39.1991 83.56C38.5241 81.979 38.2649 80.41 38.4277 78.8526C38.6421 76.802 39.5815 74.823 41.2585 72.917V68.2408L38.7743 69.5066C38.2905 69.7788 37.6663 69.709 37.2545 69.2972L33.5673 65.61C33.1895 65.2316 33.0787 64.6392 33.3341 64.137L33.7525 63.3158C33.5629 63.3828 31.1833 69.2464 24.4005 68.83C24.7471 69.9038 24.1709 71.0682 23.1061 71.4478L17.6907 73.3734C15.9273 74.0004 13.9825 73.0696 13.3561 71.3076L8.30308 57.0964C7.67608 55.333 8.60688 53.3882 10.3687 52.7618L15.7809 50.8374C16.8701 50.4504 18.0717 51.028 18.4583 52.1158ZM19.4991 55.0432L22.1975 54.0836L22.1965 54.0808C22.2965 54.0454 22.3935 53.997 22.4853 53.9348L34.5029 45.7692L34.3513 46.1094L33.6861 47.9348L30.2453 49.0528C29.6819 49.236 29.3345 49.7766 29.3723 50.342V55.3886C29.3343 55.954 29.6819 56.4946 30.2453 56.6778C30.7629 56.846 31.1689 57.0502 31.6791 56.8694L38.2619 54.5288C38.8117 54.3334 39.3923 54.381 39.8847 54.615C41.5971 55.429 41.4299 57.8952 39.6863 58.5152L32.4351 61.0936L32.4355 61.0944C32.1415 61.198 31.8849 61.4096 31.7309 61.7086C29.9029 65.253 27.2967 66.8292 23.4555 66.1708L19.4991 55.0432ZM35.9675 49.1616C35.8853 49.6036 35.5703 49.9878 35.1129 50.1364L31.9023 51.1796V54.0998L37.4193 52.138C37.8095 51.9992 38.2065 51.9164 38.6015 51.885C39.1007 46.0028 44.0355 41.4258 49.9993 41.4258C55.9647 41.4258 60.8995 46.0044 61.3973 51.888L61.9333 51.973L61.9345 51.969L63.5753 52.4918L68.0909 54.0976V51.1776L64.8851 50.136C64.4277 49.9872 64.1125 49.603 64.0305 49.1614C63.7813 48.0502 63.0799 46.4848 62.4919 45.4902C62.2631 45.103 62.2639 44.644 62.4533 44.2706L62.4523 44.27L63.9841 41.2638L61.6001 38.88L58.5941 40.4118C58.1737 40.6256 57.6899 40.5828 57.3219 40.3414C56.3009 39.708 54.7833 39.109 53.6205 38.8116C53.1847 38.7006 52.8603 38.3754 52.7305 37.9774L52.7277 37.9784L51.6863 34.7732H48.3119L47.2705 37.9784C47.1217 38.4358 46.7377 38.7508 46.2959 38.833C45.1843 39.0824 43.6191 39.7836 42.6241 40.372C42.2371 40.6006 41.7779 40.6 41.4045 40.4106L41.4039 40.4118L38.3981 38.8802L36.0141 41.264L37.5459 44.2702C37.8651 44.8972 37.6045 45.306 37.3317 45.7936C36.7495 46.8348 36.2693 48.0076 35.9675 49.1616ZM41.1115 52.3958C43.3611 53.5614 44.2537 56.2808 43.1521 58.5572C43.8993 59.4544 44.8201 60.203 45.8633 60.7514C46.1129 60.8826 46.3697 61.0022 46.6331 61.1098C47.0983 61.1836 47.5423 61.3276 47.9533 61.5304C48.6093 61.6838 49.2941 61.7652 49.9993 61.7652C52.6873 61.7652 55.1649 60.576 56.8463 58.5574C55.7461 56.2786 56.6355 53.5596 58.8869 52.3952C58.6417 47.6868 54.7457 43.9656 49.9993 43.9656C45.2527 43.9656 41.3563 47.6868 41.1115 52.3958ZM41.4495 60.46C41.1667 60.6382 40.8605 60.7882 40.5333 60.9048L37.2305 62.0792L36.0141 64.4664L38.3979 66.8502L41.2691 65.3872C41.3631 64.016 42.0579 62.7924 43.1109 61.995C42.5079 61.5392 41.9513 61.0246 41.4495 60.46ZM76.5423 66.1708L80.4991 55.0432L77.8005 54.0838L77.8015 54.081C77.7015 54.0456 77.6045 53.9972 77.5127 53.935L65.4949 45.7694C65.8191 46.4794 66.0801 47.1642 66.3115 47.9352L69.6739 49.0278C70.2235 49.1674 70.6301 49.6654 70.6301 50.2584V55.473H70.6279C70.6281 56.0072 70.2877 56.5042 69.7521 56.6782C69.2345 56.8464 68.8283 57.0504 68.3183 56.8698C67.4359 56.5574 61.9097 54.5526 61.2519 54.416C60.7909 54.368 60.3301 54.4768 59.9375 54.71C58.3921 55.628 58.6527 57.9262 60.3111 58.5158L67.5623 61.0942L67.5619 61.095C67.8559 61.1986 68.1125 61.4102 68.2665 61.709C70.0949 65.253 72.7013 66.8294 76.5423 66.1708ZM83.7831 53.3738L78.1537 69.206L83.1509 70.9828C83.5953 71.1408 84.0927 70.9118 84.2515 70.4646L89.3045 56.2534C89.4625 55.809 89.2333 55.3116 88.7863 55.1526L83.7831 53.3738ZM62.7675 62.0792L59.4681 60.9062C59.1397 60.7894 58.8323 60.6388 58.5487 60.46C56.4691 62.8006 53.5115 64.2098 50.3263 64.3C50.3377 64.3686 50.3431 64.4374 50.3431 64.5056H50.3441V70.9572H51.6861L52.7277 67.7518C52.9155 67.1742 53.3181 67.001 53.7895 66.8738L54.8023 66.5576L54.9751 66.4954L55.0039 66.4848L55.2909 66.3752L55.3769 66.341L56.5079 65.8316L56.6501 65.759L56.7067 65.7296L57.3739 65.3582C57.7611 65.1294 58.2201 65.13 58.5935 65.3196L58.5941 65.3186L61.6003 66.8504L63.9843 64.4666L62.7675 62.0792ZM42.0163 83.5592H53.8283V80.6942H53.8323C53.8323 80.5894 53.8455 80.483 53.8729 80.3768L56.9955 68.4072L55.2113 69.0912L55.1093 69.1234L55.0069 69.155L54.9297 69.1782L53.8373 72.5406C53.6977 73.0902 53.1997 73.4968 52.6067 73.4968H49.0749C48.3737 73.4968 47.8053 72.9284 47.8053 72.227V64.7656C47.7577 64.5644 47.2511 64.0092 47.0371 63.9154C46.6967 63.824 46.3623 63.7172 46.0349 63.596C45.9945 63.5938 45.9537 63.5926 45.9125 63.5926C44.7521 63.5926 43.7981 64.5468 43.7981 65.707V73.403H43.7951C43.7951 73.7144 43.6811 74.0264 43.4509 74.271C40.7271 77.1718 40.1173 80.1702 42.0163 83.5592ZM56.5013 86.0986H39.7025V91.4034C39.7025 91.8744 40.0895 92.2614 40.5605 92.2614H55.6433C56.1143 92.2614 56.5013 91.8744 56.5013 91.4034V86.0986ZM51.6359 15.6524L49.9991 10.582L48.3623 15.6524L48.3615 15.6522C48.1981 16.1616 47.7207 16.5304 47.1571 16.5304L41.8265 16.5202L46.1445 19.6448C46.5775 19.959 46.7801 20.5272 46.6057 21.0634L44.9477 26.1328L49.2345 23.0058C49.6673 22.677 50.2809 22.6544 50.7429 22.9908L55.0501 26.1328L53.4073 21.1096C53.2157 20.59 53.3829 19.986 53.8535 19.645L58.1715 16.5204L52.8995 16.5304C52.3421 16.5562 51.8145 16.209 51.6359 15.6524Z" fill="black"/>
</svg>
