<svg width="100" height="100" viewBox="0 0 100 100" fill="none" xmlns="http://www.w3.org/2000/svg">
<path d="M61.7615 70.1355H22.7357C21.9873 70.1355 21.3809 69.529 21.3809 68.7806C21.3809 68.0322 21.9873 67.4258 22.7357 67.4258H61.7615C62.5099 67.4258 63.1163 68.0322 63.1163 68.7806C63.1163 69.529 62.5034 70.1355 61.7615 70.1355Z" fill="black"/>
<path d="M8.92906 46.5807C8.18067 46.5807 7.57422 45.9742 7.57422 45.2259V19.9613C7.57422 17.3097 9.73551 15.1484 12.3871 15.1484H80.7936C83.4452 15.1484 85.6065 17.3097 85.6065 19.9613V35.3807C85.6065 36.1291 85 36.7355 84.2516 36.7355C83.5033 36.7355 82.8968 36.1291 82.8968 35.3807V19.9613C82.8968 18.8 81.9549 17.8581 80.7936 17.8581H12.3871C11.2258 17.8581 10.2839 18.8 10.2839 19.9613V45.2259C10.2839 45.9742 9.67744 46.5807 8.92906 46.5807Z" fill="black"/>
<path d="M61.7615 58.5935H22.7357C21.9873 58.5935 21.3809 57.987 21.3809 57.2386C21.3809 56.4902 21.9873 55.8838 22.7357 55.8838H61.7615C62.5099 55.8838 63.1163 56.4902 63.1163 57.2386C63.1163 57.987 62.5034 58.5935 61.7615 58.5935Z" fill="black"/>
<path d="M46.587 64.6779C47.5098 64.6779 48.258 63.9298 48.258 63.0069C48.258 62.0841 47.5098 61.3359 46.587 61.3359C45.6641 61.3359 44.916 62.0841 44.916 63.0069C44.916 63.9298 45.6641 64.6779 46.587 64.6779Z" fill="black"/>
<path d="M41.0384 77.529C40.29 77.529 39.6836 76.9226 39.6836 76.1742V68.7806C39.6836 68.0322 40.29 67.4258 41.0384 67.4258C41.7868 67.4258 42.3933 68.0322 42.3933 68.7806V76.1742C42.3933 76.9226 41.7868 77.529 41.0384 77.529Z" fill="black"/>
<path d="M52.1419 77.529C51.3936 77.529 50.7871 76.9226 50.7871 76.1742V68.7806C50.7871 68.0322 51.3936 67.4258 52.1419 67.4258C52.8903 67.4258 53.4968 68.0322 53.4968 68.7806V76.1742C53.4968 76.9226 52.8903 77.529 52.1419 77.529Z" fill="black"/>
<path d="M63.0525 84.8455H27.0912C26.3428 84.8455 25.7363 84.2391 25.7363 83.4907V82.6262C25.7363 78.5423 29.0589 75.2197 33.1428 75.2197H60.046C60.7621 75.2197 61.4718 75.3229 62.1492 75.5229C62.8654 75.7359 63.2783 76.4907 63.0654 77.2068C62.8525 77.9229 62.0976 78.3359 61.3815 78.123C60.9492 77.9939 60.5041 77.9294 60.046 77.9294H33.1428C30.717 77.9294 28.717 79.7746 28.4718 82.1359H63.0525C63.8008 82.1359 64.4073 82.7423 64.4073 83.4907C64.4073 84.2391 63.8008 84.8455 63.0525 84.8455Z" fill="black"/>
<path d="M21.709 84.8453H3.02518C1.70905 84.8453 0.644531 83.7743 0.644531 82.4646V46.2517C0.644531 44.9356 1.7155 43.8711 3.02518 43.8711H21.7026C23.0187 43.8711 24.0832 44.9421 24.0832 46.2517V82.4582C24.0897 83.7808 23.0187 84.8453 21.709 84.8453ZM3.35421 82.1356H21.38V46.5808H3.35421V82.1356Z" fill="black"/>
<path d="M22.7349 52.1618H1.99937C1.25098 52.1618 0.644531 51.5554 0.644531 50.807C0.644531 50.0586 1.25098 49.4521 1.99937 49.4521H22.7349C23.4832 49.4521 24.0897 50.0586 24.0897 50.807C24.0897 51.5554 23.4832 52.1618 22.7349 52.1618Z" fill="black"/>
<path d="M22.7349 79.2653H1.99937C1.25098 79.2653 0.644531 78.6589 0.644531 77.9105C0.644531 77.1621 1.25098 76.5557 1.99937 76.5557H22.7349C23.4832 76.5557 24.0897 77.1621 24.0897 77.9105C24.0897 78.6589 23.4832 79.2653 22.7349 79.2653Z" fill="black"/>
<path d="M96.7095 84.8451H63.0514C61.5933 84.8451 60.4062 83.658 60.4062 82.2V36.6774C60.4062 35.2193 61.5933 34.0322 63.0514 34.0322H96.7095C98.1675 34.0322 99.3546 35.2193 99.3546 36.6774V82.2C99.3546 83.658 98.1675 84.8451 96.7095 84.8451ZM63.1159 82.1355H96.645V36.7355H63.1095V82.1355H63.1159Z" fill="black"/>
<path d="M93.4838 77.6775H66.2709C65.5225 77.6775 64.916 77.071 64.916 76.3226V39.8968C64.916 39.1484 65.5225 38.542 66.2709 38.542H93.4838C94.2321 38.542 94.8386 39.1484 94.8386 39.8968V76.3226C94.8386 77.071 94.2321 77.6775 93.4838 77.6775ZM67.6321 74.9678H92.1289V41.2517H67.6257V74.9678H67.6321Z" fill="black"/>
<path d="M79.8776 81.1937C80.5867 81.1937 81.1615 80.6189 81.1615 79.9098C81.1615 79.2008 80.5867 78.626 79.8776 78.626C79.1686 78.626 78.5938 79.2008 78.5938 79.9098C78.5938 80.6189 79.1686 81.1937 79.8776 81.1937Z" fill="black"/>
</svg>
