<svg width="100" height="100" viewBox="0 0 100 100" fill="none" xmlns="http://www.w3.org/2000/svg">
<path fill-rule="evenodd" clip-rule="evenodd" d="M57.9167 34.6673C57.9167 35.4243 57.3053 36.0381 56.5459 36.0381C55.7889 36.0381 55.1751 35.4243 55.1751 34.6673C55.1751 33.9103 55.7873 33.2965 56.5459 33.2965C57.3053 33.2965 57.9167 33.9103 57.9167 34.6673ZM43.9505 34.6673C43.9505 35.4243 43.3367 36.0381 42.5797 36.0381C41.8227 36.0381 41.2065 35.4243 41.2065 34.6673C41.2065 33.9103 41.8211 33.2965 42.5797 33.2965C43.3365 33.2965 43.9505 33.9103 43.9505 34.6673ZM60.7881 29.2411H41.8361V26.2617H47.5715C48.6705 26.2617 49.5621 25.3689 49.5621 24.2709V19.5001H55.3195C55.4581 19.5001 55.4525 19.5747 55.5597 19.7197L60.4485 26.3541C60.6645 26.6459 60.7881 26.6071 60.7881 26.7703V29.2411ZM62.5567 24.5927L57.8051 18.1451C57.2701 17.2753 56.3469 16.7585 55.3195 16.7585H42.1259C41.3701 16.7585 40.7551 17.3723 40.7551 18.1293C40.7551 18.8863 41.3701 19.5001 42.1259 19.5001H46.8205V23.5191H35.3653C34.6083 23.5191 33.9945 24.1341 33.9945 24.8899C33.9945 25.6481 34.6083 26.2619 35.3653 26.2619H39.0931V29.9921C39.0931 31.0899 39.9859 31.9827 41.0825 31.9827H61.5399C62.6377 31.9827 63.5305 31.0899 63.5305 29.9921V26.7701C63.5309 25.9149 63.1863 25.1495 62.5567 24.5927ZM31.5321 76.9797C31.5321 77.7379 30.9183 78.3505 30.1613 78.3505C29.4043 78.3505 28.7893 77.7379 28.7893 76.9797C28.7893 76.2225 29.3995 75.6089 30.1613 75.6089C30.9183 75.6089 31.5321 76.2227 31.5321 76.9797ZM23.0077 76.9797C23.0077 77.7379 22.3927 78.3505 21.6357 78.3505C20.8775 78.3505 20.2637 77.7379 20.2637 76.9797C20.2637 76.2225 20.8751 75.6089 21.6357 75.6089C22.3927 75.6089 23.0077 76.2227 23.0077 76.9797ZM32.0477 66.1783L30.8031 70.2955C30.7533 70.4605 30.6551 70.4605 30.6223 70.4617L21.8795 70.5139L20.6725 66.0109H31.8753C32.0143 66.0111 32.0595 66.1523 32.0477 66.1783ZM31.8753 63.2695H19.9373L19.1851 60.4575C18.8393 59.1679 17.7099 58.3019 16.3755 58.3019H13.6185C12.8627 58.3019 12.2477 58.9157 12.2477 59.6727C12.2477 60.4297 12.8627 61.0435 13.6185 61.0435H16.3759C16.4595 61.0435 16.5141 61.0859 16.5373 61.1673L17.5623 64.9957L19.5045 72.2463C19.6665 72.8493 20.2125 73.2647 20.8377 73.2629L30.6383 73.2035C31.9279 73.1951 33.0475 72.3459 33.4283 71.0891L34.6729 66.9719C35.2145 65.1765 33.8473 63.2695 31.8753 63.2695ZM81.0685 72.0778C81.0709 72.1237 81.0709 72.1687 81.0685 72.2147C80.9305 74.8251 79.1149 76.6513 76.6711 77.1811V78.2959C76.6711 79.0529 76.0573 79.6667 75.3003 79.6667C74.5433 79.6667 73.9295 79.0529 73.9295 78.2959V77.2125C72.6243 77.0111 71.3687 76.5453 70.1835 75.8187C69.5381 75.4233 69.3355 74.5789 69.7323 73.9335C70.1277 73.2881 70.9721 73.0855 71.6175 73.4811C73.1307 74.4085 75.4361 75.0725 77.0765 74.1241C78.7233 73.1719 78.7433 71.1309 77.0655 70.1537C76.5075 69.8431 75.9385 69.6903 75.3405 69.6975C72.3871 69.7205 69.5659 67.5339 69.5953 64.4605C69.6443 61.9051 71.5211 60.0203 73.9297 59.4845V58.3575C73.9297 57.6005 74.5435 56.9867 75.3005 56.9867C76.0575 56.9867 76.6713 57.6005 76.6713 58.3575V59.4469C78.0445 59.6555 79.2769 60.1189 80.4185 60.8493C81.0541 61.2581 81.2409 62.1061 80.8309 62.7429C80.4221 63.3809 79.5753 63.5653 78.9373 63.1577C77.6035 62.3037 75.1195 61.5713 73.6021 62.5209C73.5947 62.5257 73.5863 62.5305 73.5777 62.5343C72.1309 63.2501 71.7261 65.3867 73.6093 66.5071C74.1467 66.8067 74.7133 66.9523 75.3391 66.9559C78.2687 66.9645 80.9253 68.9567 81.0685 72.0778ZM65.2911 89.6103C65.5629 90.3163 65.2099 91.1097 64.5051 91.3827C62.0025 92.3471 59.4005 93.0447 56.7681 93.4535C56.0355 93.5723 55.3215 93.0695 55.2031 92.3095C55.0855 91.5623 55.5973 90.8611 56.3459 90.7447C58.7855 90.3651 61.1983 89.7197 63.5177 88.8243C64.2247 88.5525 65.0181 88.9044 65.2911 89.6103ZM44.7983 92.3131C44.6799 93.0725 43.9681 93.5697 43.2323 93.4557C40.5817 93.0397 37.9809 92.3421 35.4953 91.3801C34.7893 91.1071 34.4387 90.3137 34.7129 89.6065C34.9847 88.9017 35.7805 88.5499 36.4853 88.8242C38.7865 89.7145 41.1993 90.3623 43.6559 90.7469C44.4041 90.8635 44.9161 91.5659 44.7983 92.3131ZM18.1105 26.4947C19.7943 24.4093 21.6999 22.5037 23.7743 20.8333C24.3651 20.3589 25.2275 20.4511 25.7031 21.0407C26.1763 21.6303 26.0827 22.4941 25.4945 22.9683C23.5717 24.5175 21.8043 26.2825 20.2431 28.2173C19.7655 28.8099 18.8997 28.8945 18.3155 28.4235C17.7259 27.9469 17.6349 27.0843 18.1105 26.4947ZM9.26952 45.9551C9.68452 43.3057 10.3819 40.7037 11.3439 38.2193C11.6157 37.5133 12.4115 37.1615 13.1163 37.4345C13.8223 37.7087 14.1729 38.5021 13.9011 39.2081C13.0083 41.5105 12.3617 43.9233 11.9783 46.3799C11.8599 47.1337 11.1545 47.6365 10.4111 47.5213C9.66132 47.4035 9.15192 46.7023 9.26952 45.9551ZM74.3005 21.0383C74.7773 20.4499 75.6397 20.3577 76.2281 20.8333C78.3147 22.5171 80.2203 24.4229 81.8921 26.4971C82.6219 27.4047 81.9409 28.7279 80.8233 28.7279C80.4229 28.7279 80.0263 28.5531 79.7545 28.2171C78.2065 26.2931 76.4403 24.5269 74.5067 22.9669C73.9185 22.4903 73.8251 21.6279 74.3005 21.0383ZM86.1027 39.2067C85.8297 38.4995 86.1815 37.7061 86.8875 37.4343C87.5935 37.1613 88.3881 37.5131 88.6599 38.2191C89.6255 40.7205 90.3219 43.3237 90.7307 45.9561C90.8601 46.7847 90.2075 47.5379 89.3745 47.5379C88.7109 47.5379 88.1287 47.0539 88.0219 46.3769C87.6421 43.9377 86.9967 41.5249 86.1027 39.2067ZM49.1655 43.5289C58.6093 43.5289 66.2943 35.8441 66.2943 26.3989C66.2943 16.9527 58.6095 9.26894 49.1655 9.26894C39.7193 9.26894 32.0343 16.9525 32.0343 26.3989C32.0343 35.8441 39.7193 43.5289 49.1655 43.5289ZM69.0359 26.3989C69.0359 15.4411 60.1233 6.52734 49.1655 6.52734C38.2077 6.52734 29.2927 15.4411 29.2927 26.3989C29.2927 37.3555 38.2077 46.2705 49.1655 46.2705C60.1233 46.2705 69.0359 37.3555 69.0359 26.3989ZM24.6599 85.4835C34.1207 85.4835 41.8177 77.7877 41.8177 68.3269C41.8177 58.8661 34.1207 51.1703 24.6599 51.1703C15.2003 51.1703 7.50332 58.8661 7.50332 68.3269C7.50332 77.7877 15.2003 85.4835 24.6599 85.4835ZM44.5593 68.3267C44.5593 57.3543 35.6323 48.4285 24.6599 48.4285C13.6887 48.4285 4.76172 57.3545 4.76172 68.3267C4.76172 79.2991 13.6887 88.2249 24.6599 88.2249C35.6323 88.2251 44.5593 79.2991 44.5593 68.3267ZM75.3001 85.5247C84.7827 85.5247 92.4981 77.8107 92.4981 68.3267C92.4981 58.8441 84.7829 51.1289 75.3001 51.1289C65.8173 51.1289 58.1023 58.8441 58.1023 68.3267C58.1023 77.8107 65.8175 85.5247 75.3001 85.5247ZM75.3001 48.3873C64.3059 48.3873 55.3595 57.3313 55.3595 68.3267C55.3595 79.3221 64.3061 88.2673 75.3001 88.2673C86.2943 88.2673 95.2397 79.3221 95.2397 68.3267C95.2397 57.3313 86.2945 48.3873 75.3001 48.3873Z" fill="black"/>
</svg>
