<svg width="100" height="100" viewBox="0 0 100 100" fill="none" xmlns="http://www.w3.org/2000/svg">
<path d="M89.0625 9.375H54.5313C54.1664 7.61266 53.2063 6.02951 51.8122 4.89142C50.418 3.75333 48.6747 3.12961 46.875 3.125H34.375C32.5753 3.12961 30.832 3.75333 29.4378 4.89142C28.0437 6.02951 27.0836 7.61266 26.7188 9.375H10.9375C8.8655 9.375 6.87836 10.1981 5.41323 11.6632C3.9481 13.1284 3.125 15.1155 3.125 17.1875V67.1875C3.125 68.2135 3.32708 69.2294 3.71969 70.1772C4.11231 71.1251 4.68777 71.9863 5.41323 72.7118C6.13869 73.4372 6.99993 74.0127 7.94779 74.4053C8.89564 74.7979 9.91155 75 10.9375 75H40.625V84.375H31.25C30.0079 84.3787 28.8178 84.8738 27.9395 85.752C27.0613 86.6303 26.5662 87.8204 26.5625 89.0625V95.3125C26.5625 95.7269 26.7271 96.1243 27.0201 96.4174C27.3132 96.7104 27.7106 96.875 28.125 96.875H71.875C72.2894 96.875 72.6868 96.7104 72.9799 96.4174C73.2729 96.1243 73.4375 95.7269 73.4375 95.3125V89.0625C73.4338 87.8204 72.9387 86.6303 72.0605 85.752C71.1822 84.8738 69.9921 84.3787 68.75 84.375H59.375V75H89.0625C90.0885 75 91.1044 74.7979 92.0522 74.4053C93.0001 74.0127 93.8613 73.4372 94.5868 72.7118C95.3122 71.9863 95.8877 71.1251 96.2803 70.1772C96.6729 69.2294 96.875 68.2135 96.875 67.1875V17.1875C96.875 15.1155 96.0519 13.1284 94.5868 11.6632C93.1216 10.1981 91.1345 9.375 89.0625 9.375ZM46.875 6.25C48.1171 6.25371 49.3072 6.74876 50.1855 7.62704C51.0637 8.50531 51.5588 9.69544 51.5625 10.9375V18.75H48.4375V10.9375C48.4328 9.24026 47.8669 7.59221 46.8281 6.25H46.875ZM35.9375 10.9375C35.9375 9.6943 36.4314 8.50201 37.3104 7.62294C38.1895 6.74386 39.3818 6.25 40.625 6.25C41.8682 6.25 43.0605 6.74386 43.9396 7.62294C44.8186 8.50201 45.3125 9.6943 45.3125 10.9375V18.75H35.9375V10.9375ZM35.9375 21.875H57.8125V31.25H53.125C52.7106 31.25 52.3132 31.4146 52.0201 31.7076C51.7271 32.0007 51.5625 32.3981 51.5625 32.8125V50H35.9375V21.875ZM57.8125 34.375V50H54.6875V34.375H57.8125ZM29.6875 10.9375C29.6912 9.69544 30.1863 8.50531 31.0645 7.62704C31.9428 6.74876 33.1329 6.25371 34.375 6.25H34.4219C33.3831 7.59221 32.8172 9.24026 32.8125 10.9375V18.75H29.6875V10.9375ZM32.8125 21.875V47.7969L29.6875 44.6719V25H26.5625V44.6719L23.4375 47.7969V21.875H32.8125ZM30.6094 50H25.6406L28.125 47.5156L30.6094 50ZM68.75 87.5C69.1644 87.5 69.5618 87.6646 69.8549 87.9576C70.1479 88.2507 70.3125 88.6481 70.3125 89.0625V93.75H29.6875V89.0625C29.6875 88.6481 29.8521 88.2507 30.1451 87.9576C30.4382 87.6646 30.8356 87.5 31.25 87.5H68.75ZM43.75 84.375V75H56.25V84.375H43.75ZM93.75 67.1875C93.7463 68.4296 93.2512 69.6197 92.373 70.498C91.4947 71.3762 90.3046 71.8713 89.0625 71.875H10.9375C9.69544 71.8713 8.50531 71.3762 7.62704 70.498C6.74876 69.6197 6.25371 68.4296 6.25 67.1875V62.5H93.75V67.1875ZM93.75 59.375H6.25V17.1875C6.25371 15.9454 6.74876 14.7553 7.62704 13.877C8.50531 12.9988 9.69544 12.5037 10.9375 12.5H26.5625V18.75H21.875C21.4606 18.75 21.0632 18.9146 20.7701 19.2076C20.4771 19.5007 20.3125 19.8981 20.3125 20.3125V51.5625C20.3125 51.9769 20.4771 52.3743 20.7701 52.6674C21.0632 52.9604 21.4606 53.125 21.875 53.125H78.125C78.5394 53.125 78.9368 52.9604 79.2299 52.6674C79.5229 52.3743 79.6875 51.9769 79.6875 51.5625V32.8125C79.6875 32.3981 79.5229 32.0007 79.2299 31.7076C78.9368 31.4146 78.5394 31.25 78.125 31.25H73.4375V26.5625C73.4338 25.3204 72.9387 24.1303 72.0605 23.252C71.1822 22.3738 69.9921 21.8787 68.75 21.875H62.5C61.967 21.8792 61.4386 21.9743 60.9375 22.1562V20.3125C60.9375 19.8981 60.7729 19.5007 60.4799 19.2076C60.1868 18.9146 59.7894 18.75 59.375 18.75H54.6875V12.5H89.0625C90.3046 12.5037 91.4947 12.9988 92.373 13.877C93.2512 14.7553 93.7463 15.9454 93.75 17.1875V59.375ZM76.5625 34.375V50H60.9375V34.375H76.5625ZM60.9375 31.25V26.5625C60.9375 26.1481 61.1021 25.7507 61.3951 25.4576C61.6882 25.1646 62.0856 25 62.5 25H68.75C69.1644 25 69.5618 25.1646 69.8549 25.4576C70.1479 25.7507 70.3125 26.1481 70.3125 26.5625V31.25H60.9375Z" fill="black"/>
<path d="M87.5 65.625H84.375V68.75H87.5V65.625Z" fill="black"/>
<path d="M81.25 65.625H78.125V68.75H81.25V65.625Z" fill="black"/>
<path d="M81.2492 28.1252C81.6636 28.1251 82.061 27.9604 82.3539 27.6674L90.1664 19.8549L87.957 17.6455L81.2492 24.3533L77.6664 20.7705L75.457 22.9799L80.1445 27.6674C80.4375 27.9604 80.8349 28.1251 81.2492 28.1252Z" fill="black"/>
</svg>
