<svg width="100" height="100" viewBox="0 0 100 100" fill="none" xmlns="http://www.w3.org/2000/svg">
<path d="M39.0625 9.375H37.5C37.0856 9.375 36.6882 9.53962 36.3951 9.83265C36.1021 10.1257 35.9375 10.5231 35.9375 10.9375C35.9375 11.3519 36.1021 11.7493 36.3951 12.0424C36.6882 12.3354 37.0856 12.5 37.5 12.5H39.0625C39.4769 12.5 39.8743 12.3354 40.1674 12.0424C40.4604 11.7493 40.625 11.3519 40.625 10.9375C40.625 10.5231 40.4604 10.1257 40.1674 9.83265C39.8743 9.53962 39.4769 9.375 39.0625 9.375Z" fill="black"/>
<path d="M31.25 9.375H23.4375C23.0231 9.375 22.6257 9.53962 22.3326 9.83265C22.0396 10.1257 21.875 10.5231 21.875 10.9375C21.875 11.3519 22.0396 11.7493 22.3326 12.0424C22.6257 12.3354 23.0231 12.5 23.4375 12.5H31.25C31.6644 12.5 32.0618 12.3354 32.3549 12.0424C32.6479 11.7493 32.8125 11.3519 32.8125 10.9375C32.8125 10.5231 32.6479 10.1257 32.3549 9.83265C32.0618 9.53962 31.6644 9.375 31.25 9.375Z" fill="black"/>
<path d="M31.25 90.625C32.1771 90.625 33.0834 90.3501 33.8542 89.835C34.6251 89.3199 35.2259 88.5879 35.5807 87.7313C35.9355 86.8748 36.0283 85.9323 35.8474 85.023C35.6666 84.1137 35.2201 83.2785 34.5646 82.6229C33.909 81.9674 33.0738 81.5209 32.1645 81.3401C31.2552 81.1592 30.3127 81.252 29.4562 81.6068C28.5996 81.9616 27.8676 82.5624 27.3525 83.3333C26.8374 84.1041 26.5625 85.0104 26.5625 85.9375C26.5625 87.1807 27.0564 88.373 27.9354 89.2521C28.8145 90.1311 30.0068 90.625 31.25 90.625ZM31.25 84.375C31.559 84.375 31.8611 84.4666 32.1181 84.6383C32.375 84.81 32.5753 85.0541 32.6936 85.3396C32.8118 85.6251 32.8428 85.9392 32.7825 86.2423C32.7222 86.5454 32.5734 86.8238 32.3549 87.0424C32.1363 87.2609 31.8579 87.4097 31.5548 87.47C31.2517 87.5303 30.9376 87.4993 30.6521 87.3811C30.3665 87.2628 30.1225 87.0625 29.9508 86.8056C29.7791 86.5486 29.6875 86.2465 29.6875 85.9375C29.6875 85.5231 29.8521 85.1257 30.1451 84.8326C30.4382 84.5396 30.8356 84.375 31.25 84.375Z" fill="black"/>
<path d="M40.625 87.5H43.75C44.1644 87.5 44.5618 87.3354 44.8549 87.0424C45.1479 86.7493 45.3125 86.3519 45.3125 85.9375C45.3125 85.5231 45.1479 85.1257 44.8549 84.8326C44.5618 84.5396 44.1644 84.375 43.75 84.375H40.625C40.2106 84.375 39.8132 84.5396 39.5201 84.8326C39.2271 85.1257 39.0625 85.5231 39.0625 85.9375C39.0625 86.3519 39.2271 86.7493 39.5201 87.0424C39.8132 87.3354 40.2106 87.5 40.625 87.5Z" fill="black"/>
<path d="M18.75 87.5H21.875C22.2894 87.5 22.6868 87.3354 22.9799 87.0424C23.2729 86.7493 23.4375 86.3519 23.4375 85.9375C23.4375 85.5231 23.2729 85.1257 22.9799 84.8326C22.6868 84.5396 22.2894 84.375 21.875 84.375H18.75C18.3356 84.375 17.9382 84.5396 17.6451 84.8326C17.3521 85.1257 17.1875 85.5231 17.1875 85.9375C17.1875 86.3519 17.3521 86.7493 17.6451 87.0424C17.9382 87.3354 18.3356 87.5 18.75 87.5Z" fill="black"/>
<path d="M70.3125 48.4375C69.3854 48.4375 68.4791 48.7124 67.7083 49.2275C66.9374 49.7426 66.3366 50.4746 65.9818 51.3312C65.627 52.1877 65.5342 53.1302 65.7151 54.0395C65.8959 54.9488 66.3424 55.784 66.9979 56.4396C67.6535 57.0951 68.4887 57.5416 69.398 57.7224C70.3073 57.9033 71.2498 57.8105 72.1063 57.4557C72.9629 57.1009 73.6949 56.5001 74.21 55.7292C74.7251 54.9584 75 54.0521 75 53.125C75 51.8818 74.5061 50.6895 73.6271 49.8104C72.748 48.9314 71.5557 48.4375 70.3125 48.4375ZM70.3125 54.6875C70.0035 54.6875 69.7014 54.5959 69.4444 54.4242C69.1875 54.2525 68.9872 54.0085 68.8689 53.7229C68.7507 53.4374 68.7197 53.1233 68.78 52.8202C68.8403 52.5171 68.9891 52.2387 69.2076 52.0201C69.4262 51.8016 69.7046 51.6528 70.0077 51.5925C70.3108 51.5322 70.6249 51.5632 70.9104 51.6814C71.196 51.7997 71.44 52 71.6117 52.2569C71.7834 52.5139 71.875 52.816 71.875 53.125C71.875 53.5394 71.7104 53.9368 71.4174 54.2299C71.1243 54.5229 70.7269 54.6875 70.3125 54.6875Z" fill="black"/>
<path d="M92.1875 20.3125C92.1908 17.9878 91.6753 15.6916 90.6786 13.5914C89.6818 11.4912 88.2291 9.63987 86.4261 8.17235C84.6231 6.70483 82.5154 5.65811 80.2566 5.10849C77.9978 4.55888 75.6448 4.52021 73.3692 4.99532C71.0935 5.47043 68.9526 6.44733 67.1024 7.85482C65.2522 9.26232 63.7394 11.0649 62.6742 13.1312C61.609 15.1976 61.0184 17.4755 60.9452 19.7991C60.8721 22.1227 61.3184 24.4333 62.2516 26.5625H54.6875V12.5C54.685 10.4287 53.8611 8.44303 52.3965 6.97844C50.9319 5.51385 48.9462 4.68995 46.875 4.68747H15.625C13.5538 4.68995 11.5681 5.51385 10.1035 6.97844C8.63888 8.44303 7.81498 10.4287 7.8125 12.5V87.5C7.81498 89.5712 8.63888 91.5569 10.1035 93.0215C11.5681 94.4861 13.5538 95.31 15.625 95.3125H46.875C48.9462 95.31 50.9319 94.4861 52.3965 93.0215C53.8611 91.5569 54.685 89.5712 54.6875 87.5V73.4375H76.5625C77.3913 73.4375 78.1862 73.1082 78.7722 72.5222C79.3583 71.9361 79.6875 71.1413 79.6875 70.3125V64.0625C80.5163 64.0625 81.3112 63.7332 81.8972 63.1472C82.4833 62.5611 82.8125 61.7663 82.8125 60.9375V45.3125C82.8125 44.4837 82.4833 43.6888 81.8972 43.1028C81.3112 42.5167 80.5163 42.1875 79.6875 42.1875V35.9375C79.6828 35.8328 79.6723 35.7285 79.6562 35.625C83.1889 34.906 86.365 32.9897 88.6481 30.1998C90.9313 27.4099 92.1815 23.9175 92.1875 20.3125ZM67.1875 32.8125H28.125C27.9194 32.8125 27.7158 32.7711 27.5266 32.6906C27.3328 32.6071 27.1575 32.486 27.0109 32.3343C26.8703 32.1967 26.7592 32.0319 26.6844 31.85C26.5608 31.5613 26.5288 31.2417 26.5928 30.9343C26.6568 30.6269 26.8137 30.3466 27.0422 30.1312C27.1833 29.9879 27.352 29.8747 27.5381 29.7984C27.7242 29.7221 27.9239 29.6844 28.125 29.6875H64.0625C64.9732 30.8523 66.0226 31.9018 67.1875 32.8125ZM10.9375 12.5C10.9375 11.2568 11.4314 10.0645 12.3104 9.18541C13.1895 8.30633 14.3818 7.81247 15.625 7.81247H46.875C48.1182 7.81247 49.3105 8.30633 50.1896 9.18541C51.0686 10.0645 51.5625 11.2568 51.5625 12.5V14.0625H10.9375V12.5ZM51.5625 87.5C51.5625 88.7432 51.0686 89.9355 50.1896 90.8145C49.3105 91.6936 48.1182 92.1875 46.875 92.1875H15.625C14.3818 92.1875 13.1895 91.6936 12.3104 90.8145C11.4314 89.9355 10.9375 88.7432 10.9375 87.5V79.6875H51.5625V87.5ZM51.5625 76.5625H10.9375V17.1875H51.5625V26.5625H28.125C26.8839 26.5694 25.6957 27.0655 24.8181 27.9431C23.9406 28.8207 23.4445 30.0089 23.4375 31.25V68.75C23.4375 69.9932 23.9314 71.1855 24.8104 72.0645C25.6895 72.9436 26.8818 73.4375 28.125 73.4375H51.5625V76.5625ZM79.6875 60.9375H57.8125V45.3125H79.6875V60.9375ZM76.5625 42.1875H57.8125C56.9837 42.1875 56.1888 42.5167 55.6028 43.1028C55.0167 43.6888 54.6875 44.4837 54.6875 45.3125V60.9375C54.6875 61.7663 55.0167 62.5611 55.6028 63.1472C56.1888 63.7332 56.9837 64.0625 57.8125 64.0625H76.5625V70.3125H28.125C27.7106 70.3125 27.3132 70.1479 27.0201 69.8548C26.7271 69.5618 26.5625 69.1644 26.5625 68.75V35.6734C26.7062 35.7234 26.8594 35.7515 27.0094 35.789C27.0859 35.8078 27.1656 35.8328 27.2375 35.8484C27.5299 35.9058 27.827 35.9356 28.125 35.9375H76.5625V42.1875ZM76.5625 32.8125C74.0902 32.8125 71.6735 32.0794 69.6179 30.7058C67.5623 29.3323 65.9601 27.3801 65.014 25.096C64.0679 22.8119 63.8204 20.2986 64.3027 17.8738C64.785 15.4491 65.9755 13.2218 67.7237 11.4736C69.4718 9.72548 71.6991 8.53497 74.1239 8.05265C76.5486 7.57034 79.062 7.81788 81.346 8.76398C83.6301 9.71007 85.5824 11.3122 86.9559 13.3678C88.3294 15.4235 89.0625 17.8402 89.0625 20.3125C89.0555 23.6255 87.7363 26.8009 85.3936 29.1436C83.0509 31.4862 79.8755 32.8055 76.5625 32.8125Z" fill="black"/>
<path d="M78.125 18.75H75C74.5856 18.75 74.1882 18.5854 73.8951 18.2924C73.6021 17.9993 73.4375 17.6019 73.4375 17.1875C73.4375 16.7731 73.6021 16.3757 73.8951 16.0826C74.1882 15.7896 74.5856 15.625 75 15.625H79.6875C80.1019 15.625 80.4993 15.4604 80.7924 15.1674C81.0854 14.8743 81.25 14.4769 81.25 14.0625C81.25 13.6481 81.0854 13.2507 80.7924 12.9576C80.4993 12.6646 80.1019 12.5 79.6875 12.5H78.125C78.125 12.0856 77.9604 11.6882 77.6674 11.3951C77.3743 11.1021 76.9769 10.9375 76.5625 10.9375C76.1481 10.9375 75.7507 11.1021 75.4576 11.3951C75.1646 11.6882 75 12.0856 75 12.5C73.7568 12.5 72.5645 12.9939 71.6854 13.8729C70.8064 14.752 70.3125 15.9443 70.3125 17.1875C70.3125 18.4307 70.8064 19.623 71.6854 20.5021C72.5645 21.3811 73.7568 21.875 75 21.875H78.125C78.5394 21.875 78.9368 22.0396 79.2299 22.3326C79.5229 22.6257 79.6875 23.0231 79.6875 23.4375C79.6875 23.8519 79.5229 24.2493 79.2299 24.5424C78.9368 24.8354 78.5394 25 78.125 25H73.4375C73.0231 25 72.6257 25.1646 72.3326 25.4576C72.0396 25.7507 71.875 26.1481 71.875 26.5625C71.875 26.9769 72.0396 27.3743 72.3326 27.6674C72.6257 27.9604 73.0231 28.125 73.4375 28.125H75C75 28.5394 75.1646 28.9368 75.4576 29.2299C75.7507 29.5229 76.1481 29.6875 76.5625 29.6875C76.9769 29.6875 77.3743 29.5229 77.6674 29.2299C77.9604 28.9368 78.125 28.5394 78.125 28.125C79.3682 28.125 80.5605 27.6311 81.4396 26.7521C82.3186 25.873 82.8125 24.6807 82.8125 23.4375C82.8125 22.1943 82.3186 21.002 81.4396 20.1229C80.5605 19.2439 79.3682 18.75 78.125 18.75Z" fill="black"/>
</svg>
