<svg width="100" height="100" viewBox="0 0 100 100" fill="none" xmlns="http://www.w3.org/2000/svg">
<g clip-path="url(#clip0_112_1476)">
<path d="M19.9689 48.3242L16.1852 51.2943L20.3854 58.5693L24.8568 56.7746C26.3338 58.6152 28.0061 60.2877 29.8469 61.7648L28.0521 66.2361L35.3271 70.4363L38.2977 66.652C40.498 67.5106 42.7844 68.1225 45.1193 68.4779L45.8 73.2428H54.2004L54.8811 68.4779C57.2178 68.1223 59.5039 67.5107 61.7033 66.6525L64.6734 70.4363L71.9484 66.2361L70.1537 61.7648C71.9949 60.2873 73.667 58.6152 75.1439 56.7746L79.6152 58.5693L83.8154 51.2943L80.0311 48.3236C80.8896 46.1232 81.5016 43.8369 81.857 41.502L86.6219 40.8213V32.4209L81.857 31.7402C81.5014 29.4035 80.8898 27.1174 80.0316 24.918L83.8154 21.9479L79.6152 14.6729L75.1439 16.4676C73.6666 14.6266 71.9945 12.9545 70.1539 11.4775L71.9486 7.00625L64.6736 2.80605L61.7029 6.59043C59.5025 5.73184 57.2162 5.11992 54.8813 4.76445L54.2002 0H45.7998L45.1191 4.76484C42.7828 5.12031 40.4963 5.73203 38.2969 6.59023L35.3268 2.80645L28.0518 7.00664L29.8465 11.4781C28.0059 12.9551 26.3334 14.6273 24.8562 16.4682L20.385 14.6734L16.1848 21.9484L19.9691 24.9189C19.1105 27.1193 18.4986 29.4057 18.1432 31.7406L13.3789 32.4211V40.8215L18.1438 41.5022C18.499 43.8383 19.1107 46.1248 19.9689 48.3242ZM16.3086 34.9619L20.7727 34.3242L20.9029 33.2027C21.2305 30.3848 21.9664 27.6354 23.0904 25.0305L23.5375 23.9945L19.993 21.2121L21.6521 18.3383L25.8375 20.0182L26.5115 19.1154C28.2088 16.8422 30.2219 14.8293 32.4949 13.1322L33.3977 12.4582L31.7176 8.27285L34.5914 6.61367L37.3732 10.1574L38.4092 9.71035C41.0123 8.58731 43.7619 7.85137 46.582 7.52363L47.7035 7.39336L48.3408 2.92969H51.6592L52.2969 7.39375L53.4184 7.52402C56.2361 7.85156 58.9857 8.5875 61.5906 9.71133L62.6266 10.1584L65.4088 6.61406L68.2826 8.27324L66.6027 12.4586L67.5055 13.1326C69.7781 14.8295 71.7912 16.8426 73.4887 19.116L74.1627 20.0188L78.348 18.3389L80.0072 21.2127L76.4635 23.9945L76.9105 25.0305C78.0336 27.6332 78.7693 30.383 79.0973 33.2033L79.2275 34.3246L83.6914 34.9623V38.2807L79.2273 38.9184L79.0971 40.0398C78.7695 42.8576 78.0336 45.6072 76.9098 48.2121L76.4627 49.2481L80.007 52.0303L78.3478 54.9041L74.1625 53.2242L73.4885 54.127C71.7918 56.3994 69.7787 58.4125 67.5051 60.1104L66.6023 60.7844L68.2822 64.9695L65.4084 66.6287L62.6266 63.085L61.5906 63.532C58.9879 64.6551 56.2381 65.3908 53.4178 65.7188L52.2965 65.849L51.6588 70.3129H48.3404L47.7027 65.8488L46.5812 65.7186C43.7633 65.391 41.0139 64.6551 38.409 63.5311L37.373 63.084L34.5906 66.6285L31.7168 64.9693L33.3967 60.784L32.4939 60.11C30.2207 58.4127 28.2078 56.3996 26.5107 54.1266L25.8367 53.2238L21.6514 54.9039L19.9922 52.0301L23.5359 49.2482L23.0889 48.2123C21.9658 45.6092 21.2299 42.8596 20.9021 40.0395L20.7719 38.918L16.3086 38.2805V34.9619Z" fill="black"/>
<path d="M50 60.0586C62.9234 60.0586 73.4375 49.5445 73.4375 36.6211C73.4375 23.6977 62.9234 13.1836 50 13.1836C44.3377 13.1836 38.8711 15.2305 34.6072 18.9473L36.5322 21.1559C40.2627 17.9041 45.0455 16.1133 50 16.1133C61.308 16.1133 70.5078 25.3131 70.5078 36.6211C70.5078 47.9291 61.308 57.1289 50 57.1289C38.692 57.1289 29.4922 47.9291 29.4922 36.6211C29.4922 31.667 31.283 26.884 34.5348 23.1531L32.3262 21.2283C28.6094 25.4928 26.5625 30.9594 26.5625 36.6211C26.5625 49.5447 37.0766 60.0586 50 60.0586Z" fill="black"/>
<path d="M41.9803 32.8857V29.9561H34.668V43.2865H41.9803V40.3568H37.5977V38.0861H41.657V35.1564H37.5977V32.8857H41.9803Z" fill="black"/>
<path d="M49.0449 29.9561H44.7893L44.7871 43.2863L47.7168 43.2867L47.7174 39.3313L51.317 43.6084L53.5586 41.7221L50.5076 38.0967C52.1871 37.516 53.3922 35.9658 53.3922 34.1486C53.3922 31.8369 51.442 29.9561 49.0449 29.9561ZM47.7186 32.8857H49.0449C49.8133 32.8857 50.4625 33.4643 50.4625 34.1488C50.4625 34.8336 49.8133 35.4119 49.0377 35.4119L47.7182 35.4186L47.7186 32.8857Z" fill="black"/>
<path d="M56.4609 43.2865H59.3906V38.8186L60.8484 38.8104C63.3215 38.8104 65.3334 36.8244 65.3334 34.3832C65.3334 31.9422 63.3215 29.9563 60.8484 29.9563L56.4609 29.9561V43.2865ZM59.3906 32.8859H60.8484C61.6914 32.8859 62.4037 33.5717 62.4037 34.3832C62.4037 35.1949 61.6914 35.8807 60.84 35.8807L59.3904 35.8889V32.8859H59.3906Z" fill="black"/>
<path d="M53.1797 20.0337H56.1094V22.9634H53.1797V20.0337Z" fill="black"/>
<path d="M59.0391 22.9634H61.9688V25.8931H59.0391V22.9634Z" fill="black"/>
<path d="M86.084 82.4219V76.1719H13.916V82.4219H0V95.6055C0 98.0287 1.97129 100 4.39453 100H26.3672C28.7904 100 30.7617 98.0287 30.7617 95.6055V82.4219H16.8457V79.1016H48.5352V82.4219H34.6191V95.6055C34.6191 98.0287 36.5904 100 39.0137 100H60.9863C63.4096 100 65.3809 98.0287 65.3809 95.6055V82.4219H51.4648V79.1016H83.1543V82.4219H69.2383V95.6055C69.2383 98.0287 71.2096 100 73.6328 100H83.1543V97.0703H73.6328C72.825 97.0703 72.168 96.4131 72.168 95.6055V85.3516H97.0703V95.6055C97.0703 96.4131 96.4131 97.0703 95.6055 97.0703H86.084V100H95.6055C98.0287 100 100 98.0287 100 95.6055V82.4219H86.084ZM27.832 95.6055C27.832 96.4131 27.175 97.0703 26.3672 97.0703H4.39453C3.58691 97.0703 2.92969 96.4131 2.92969 95.6055V85.3516H27.832V95.6055ZM62.4512 95.6055C62.4512 96.4131 61.7939 97.0703 60.9863 97.0703H39.0137C38.2061 97.0703 37.5488 96.4131 37.5488 95.6055V85.3516H62.4512V95.6055Z" fill="black"/>
<path d="M51.4648 89.7461H54.3945V92.6758H51.4648V89.7461Z" fill="black"/>
<path d="M45.6055 89.7461H48.5352V92.6758H45.6055V89.7461Z" fill="black"/>
<path d="M13.916 89.7461H16.8457V92.6758H13.916V89.7461Z" fill="black"/>
<path d="M77.2949 89.7461H80.2246V92.6758H77.2949V89.7461Z" fill="black"/>
<path d="M89.0137 89.7461H91.9434V92.6758H89.0137V89.7461Z" fill="black"/>
<path d="M83.1543 89.7461H86.084V92.6758H83.1543V89.7461Z" fill="black"/>
</g>
<defs>
<clipPath id="clip0_112_1476">
<rect width="100" height="100" fill="white"/>
</clipPath>
</defs>
</svg>
