<svg width="100" height="100" viewBox="0 0 100 100" fill="none" xmlns="http://www.w3.org/2000/svg">
<path d="M31.1191 68.3879V71.9731C31.1191 74.2953 32.65 76.2662 34.7553 76.9311V79.2451C34.7553 81.601 36.3312 83.5949 38.4842 84.2307V86.5176C38.4842 89.384 40.8162 91.7162 43.6826 91.7162H48.4014C51.2678 91.7162 53.5998 89.3842 53.5998 86.5176V84.2309C55.7527 83.5953 57.3289 81.6014 57.3289 79.2453V76.9313C59.4342 76.2664 60.9648 74.2953 60.9648 71.9732V68.3908C61.5232 58.9881 63.9584 54.8256 66.1074 51.1529C68.0988 47.7492 69.9801 44.5344 69.9801 38.335C69.9801 25.1354 59.2416 14.3969 46.042 14.3969C32.8426 14.3969 22.1041 25.1354 22.1041 38.335C22.1041 44.5346 23.9854 47.7494 25.9768 51.1529C28.1254 54.8252 30.5604 58.9873 31.1191 68.3879ZM48.4014 88.5912H43.6826C42.5393 88.5912 41.6092 87.6609 41.6092 86.5176V84.4436H50.475V86.5176C50.4748 87.6609 49.5447 88.5912 48.4014 88.5912ZM52.1307 81.3188H39.9539C38.8105 81.3188 37.8803 80.3887 37.8803 79.2453V77.1715H54.2039V79.2453C54.2039 80.3887 53.2738 81.3188 52.1307 81.3188ZM55.7666 74.0465H36.3176C35.1742 74.0465 34.2441 73.1164 34.2441 71.9731V69.899H57.84V71.9731C57.8398 73.1164 56.9098 74.0465 55.7666 74.0465ZM40.6156 42.1365H36.9785C34.9729 42.1365 33.3414 40.5049 33.3414 38.4994C33.3414 36.4939 34.973 34.8623 36.9785 34.8623C38.984 34.8623 40.6156 36.4939 40.6156 38.4994V42.1365ZM48.3436 66.7742H43.7406V45.2615H48.3436V66.7742ZM46.042 17.5219C57.5186 17.5219 66.8551 26.8586 66.8551 38.335C66.8551 43.6873 65.335 46.2855 63.4102 49.5748C61.1961 53.3586 58.7016 57.6217 57.9461 66.7744H51.4684V45.2615H55.1055C58.8342 45.2615 61.8676 42.2281 61.8676 38.4994C61.8676 34.7707 58.8342 31.7373 55.1055 31.7373C51.3768 31.7373 48.3434 34.7707 48.3434 38.4994V42.1365H43.7404V38.4994C43.7404 34.7707 40.707 31.7373 36.9783 31.7373C33.2496 31.7373 30.2162 34.7707 30.2162 38.4994C30.2162 42.2279 33.2496 45.2615 36.9783 45.2615H40.6154V66.7742H34.1377C33.3824 57.6215 30.8877 53.3584 28.6736 49.5746C26.749 46.2854 25.2287 43.6871 25.2287 38.3348C25.2289 26.8584 34.5656 17.5219 46.042 17.5219ZM51.4686 42.1365V38.4994C51.4686 36.4939 53.1002 34.8623 55.1057 34.8623C57.1111 34.8623 58.7428 36.4939 58.7428 38.4994C58.7428 40.5049 57.1111 42.1365 55.1057 42.1365H51.4686ZM44.4797 8.3957V3.1252C44.4797 2.2623 45.1793 1.5627 46.0422 1.5627C46.9051 1.5627 47.6047 2.2623 47.6047 3.1252V8.3957C47.6047 9.25859 46.9051 9.9582 46.0422 9.9582C45.1793 9.9582 44.4797 9.25859 44.4797 8.3957ZM25.1775 9.13437C24.7459 8.38711 25.0021 7.43145 25.7494 7C26.4971 6.56836 27.4525 6.82461 27.8838 7.57187L30.5191 12.1363C30.9508 12.8836 30.6945 13.8393 29.9473 14.2707C29.7012 14.4127 29.4324 14.4803 29.1676 14.4803C28.6273 14.4803 28.1023 14.2 27.8129 13.6988L25.1775 9.13437ZM10.8941 21.8553C11.3256 21.1078 12.2813 20.8518 13.0285 21.2834L17.593 23.9187C18.3402 24.3502 18.5965 25.3059 18.1648 26.0531C17.8756 26.5543 17.3502 26.8346 16.8102 26.8346C16.5451 26.8346 16.2766 26.767 16.0305 26.625L11.466 23.9896C10.7186 23.5582 10.4625 22.6025 10.8941 21.8553ZM61.565 12.1363L64.2004 7.57187C64.6318 6.82441 65.5875 6.56816 66.3348 7C67.082 7.43145 67.3383 8.38711 66.9066 9.13437L64.2713 13.6988C63.982 14.2 63.4566 14.4803 62.9166 14.4803C62.6516 14.4803 62.383 14.4127 62.1369 14.2707C61.3896 13.8393 61.1334 12.8838 61.565 12.1363ZM73.9193 26.0531C73.4877 25.3059 73.7439 24.3502 74.4912 23.9187L79.0557 21.2834C79.8035 20.852 80.7588 21.1082 81.19 21.8553C81.6217 22.6025 81.3654 23.5582 80.6182 23.9896L76.0537 26.625C75.8076 26.767 75.5389 26.8346 75.274 26.8346C74.7338 26.8348 74.2088 26.5545 73.9193 26.0531ZM87.5867 30.6412H85.6326C82.0773 30.6412 79.185 33.5336 79.185 37.0889V86.7217C79.185 86.9959 79.2572 87.2654 79.3943 87.5029L83.9031 95.3125H21.4885C20.6256 95.3125 19.926 96.0121 19.926 96.875C19.926 97.7379 20.6256 98.4375 21.4885 98.4375C21.4885 98.4375 86.5998 98.4379 86.6111 98.4379C86.876 98.4379 87.1447 98.3703 87.3908 98.2283C87.6467 98.0807 87.8447 97.8717 87.9775 97.6307L93.8248 87.5029C93.9619 87.2654 94.0342 86.9959 94.0342 86.7217V37.0889C94.0344 33.5336 91.142 30.6412 87.5867 30.6412ZM85.6326 33.7662H87.5867C89.4188 33.7662 90.9094 35.2566 90.9094 37.0889V41.2291H82.3102V37.0889C82.31 35.2566 83.8006 33.7662 85.6326 33.7662ZM82.31 85.159V44.3541H90.9092V85.1592H82.31V85.159ZM86.6096 93.75L83.4539 88.284H89.7656L86.6096 93.75ZM12.8137 54.1184C12.8137 54.9813 12.1141 55.6809 11.2512 55.6809H7.5293C6.66641 55.6809 5.9668 54.9813 5.9668 54.1184C5.9668 53.2555 6.66641 52.5559 7.5293 52.5559H11.2512C12.1141 52.5559 12.8137 53.2553 12.8137 54.1184ZM18.4279 52.5559H22.15C23.0129 52.5559 23.7125 53.2555 23.7125 54.1184C23.7125 54.9813 23.0129 55.6809 22.15 55.6809H18.4279C17.565 55.6809 16.8654 54.9813 16.8654 54.1184C16.8654 53.2555 17.565 52.5559 18.4279 52.5559ZM14.8396 62.991C13.9768 62.991 13.2771 62.2914 13.2771 61.4285V57.7064C13.2771 56.8436 13.9768 56.1439 14.8396 56.1439C15.7025 56.1439 16.4021 56.8436 16.4021 57.7064V61.4285C16.4021 62.2916 15.7025 62.991 14.8396 62.991ZM16.4021 46.808V50.5301C16.4021 51.393 15.7025 52.0926 14.8396 52.0926C13.9768 52.0926 13.2771 51.393 13.2771 50.5301V46.808C13.2771 45.9451 13.9768 45.2455 14.8396 45.2455C15.7025 45.2455 16.4021 45.9451 16.4021 46.808ZM83.599 6.84707V3.125C83.599 2.26211 84.2986 1.5625 85.1615 1.5625C86.0244 1.5625 86.724 2.26211 86.724 3.125V6.84707C86.724 7.70996 86.0244 8.40957 85.1615 8.40957C84.2986 8.40957 83.599 7.70996 83.599 6.84707ZM87.1873 10.4354C87.1873 9.57246 87.8869 8.87285 88.7498 8.87285H92.4719C93.3348 8.87285 94.0344 9.57246 94.0344 10.4354C94.0344 11.2982 93.3348 11.9979 92.4719 11.9979H88.7498C87.8869 11.9979 87.1873 11.2984 87.1873 10.4354ZM83.599 17.7457V14.0238C83.599 13.1609 84.2986 12.4613 85.1615 12.4613C86.0244 12.4613 86.724 13.1609 86.724 14.0238V17.7459C86.724 18.6088 86.0244 19.3084 85.1615 19.3084C84.2986 19.3084 83.599 18.6088 83.599 17.7457ZM76.2887 10.4354C76.2887 9.57246 76.9883 8.87285 77.8512 8.87285H81.573C82.4359 8.87285 83.1355 9.57246 83.1355 10.4354C83.1355 11.2982 82.4359 11.9979 81.573 11.9979H77.8512C76.9883 11.9979 76.2887 11.2984 76.2887 10.4354ZM66.2168 81.6617C66.2168 82.5246 65.5172 83.2242 64.6543 83.2242H60.9322C60.0693 83.2242 59.3697 82.5246 59.3697 81.6617C59.3697 80.7988 60.0693 80.0992 60.9322 80.0992H64.6543C65.5172 80.0992 66.2168 80.7988 66.2168 81.6617ZM69.8051 78.0734C69.8051 78.9363 69.1055 79.6359 68.2426 79.6359C67.3797 79.6359 66.6801 78.9363 66.6801 78.0734V74.3514C66.6801 73.4885 67.3797 72.7889 68.2426 72.7889C69.1055 72.7889 69.8051 73.4885 69.8051 74.3514V78.0734ZM69.8051 85.2502V88.9721C69.8051 89.835 69.1055 90.5346 68.2426 90.5346C67.3797 90.5346 66.6801 89.835 66.6801 88.9721V85.2502C66.6801 84.3873 67.3797 83.6877 68.2426 83.6877C69.1055 83.6877 69.8051 84.3871 69.8051 85.2502ZM70.2686 81.6617C70.2686 80.7988 70.9682 80.0992 71.8311 80.0992H75.5531C76.416 80.0992 77.1156 80.7988 77.1156 81.6617C77.1156 82.5246 76.416 83.2242 75.5531 83.2242H71.8311C70.9682 83.2242 70.2686 82.5248 70.2686 81.6617ZM20.2531 83.2242H16.5311C15.6682 83.2242 14.9686 82.5246 14.9686 81.6617C14.9686 80.7988 15.6682 80.0992 16.5311 80.0992H20.2531C21.116 80.0992 21.8156 80.7988 21.8156 81.6617C21.8156 82.5246 21.116 83.2242 20.2531 83.2242ZM25.4041 78.0734C25.4041 78.9363 24.7045 79.6359 23.8416 79.6359C22.9787 79.6359 22.2791 78.9363 22.2791 78.0734V74.3514C22.2791 73.4885 22.9787 72.7889 23.8416 72.7889C24.7045 72.7889 25.4041 73.4885 25.4041 74.3514V78.0734ZM25.4041 85.2502V88.9721C25.4041 89.835 24.7045 90.5346 23.8416 90.5346C22.9787 90.5346 22.2791 89.835 22.2791 88.9721V85.2502C22.2791 84.3873 22.9787 83.6877 23.8416 83.6877C24.7045 83.6877 25.4041 84.3871 25.4041 85.2502ZM32.7145 81.6617C32.7145 82.5246 32.0148 83.2242 31.152 83.2242H27.4299C26.567 83.2242 25.8674 82.5246 25.8674 81.6617C25.8674 80.7988 26.567 80.0992 27.4299 80.0992H31.152C32.0148 80.0992 32.7145 80.7988 32.7145 81.6617Z" fill="black"/>
</svg>
