<svg width="100" height="100" viewBox="0 0 100 100" fill="none" xmlns="http://www.w3.org/2000/svg">
<path d="M50.5469 50.3906C60.1687 50.3906 67.9688 42.5906 67.9688 32.9688C67.9688 23.3469 60.1687 15.5469 50.5469 15.5469C40.925 15.5469 33.125 23.3469 33.125 32.9688C33.125 42.5906 40.925 50.3906 50.5469 50.3906Z" stroke="black" stroke-width="3" stroke-miterlimit="10" stroke-linecap="round" stroke-linejoin="round"/>
<path d="M31.7969 81.5625V66.1719C31.7969 63.2812 33.0469 60.7031 35.0781 58.6719C37.5 56.3281 40.9375 54.8438 44.6875 54.8438H56.3281C60 54.8438 63.2813 56.25 65.5469 58.5156" stroke="black" stroke-width="3" stroke-miterlimit="10" stroke-linecap="round" stroke-linejoin="round"/>
<path d="M63.5156 63.2031V81.875C68.0469 80.7031 72.3437 79.0625 76.1719 77.0312V63.2031C76.1719 59.7656 73.3594 56.9531 69.9219 56.9531H69.6875C68.125 56.9531 66.6406 57.5781 65.5469 58.5156C64.2969 59.6875 63.5156 61.4063 63.5156 63.2031Z" stroke="black" stroke-width="3" stroke-miterlimit="10" stroke-linecap="round" stroke-linejoin="round"/>
<path d="M35.1563 58.6719C34.0625 57.6562 32.5781 57.0312 30.9375 57.0312H30.7031C27.2656 57.0312 24.4531 59.8437 24.4531 63.2812V78.9844" stroke="black" stroke-width="3" stroke-miterlimit="10" stroke-linecap="round" stroke-linejoin="round"/>
<path d="M76.1719 77.1094C72.2656 79.2188 68.0469 80.7813 63.5156 81.9531C58.75 83.125 53.6719 83.8281 48.3594 83.8281C42.5781 83.8281 36.9531 83.0469 31.7969 81.5625C29.2188 80.8594 26.7188 80 24.375 78.9844" stroke="black" stroke-width="3" stroke-miterlimit="10" stroke-linecap="round" stroke-linejoin="round"/>
<path d="M63.2821 37.1874C62.3446 38.1249 61.0946 38.6718 59.8446 38.5937C57.1102 38.3593 55.079 35.4687 55.3133 32.0312C55.5477 28.5937 57.9696 26.0155 60.7039 26.1718C61.8758 26.2499 62.9696 26.8749 63.7508 27.8124" stroke="black" stroke-width="2" stroke-miterlimit="10" stroke-linecap="round" stroke-linejoin="round"/>
<path d="M66.6102 32.7152C66.797 30.0885 65.238 27.8374 63.128 27.6873C61.0181 27.5372 59.1561 29.5449 58.9692 32.1716C58.7823 34.7984 60.3413 37.0494 62.4513 37.1995C64.5613 37.3496 66.4233 35.3419 66.6102 32.7152Z" stroke="black" stroke-width="2.00104" stroke-miterlimit="10" stroke-linecap="round" stroke-linejoin="round"/>
<path d="M35.8594 22.9688C36.1719 21.2501 36.875 19.6095 37.8906 18.2032C40.3125 14.8438 44.2969 13.4376 48.3594 13.9845C51.0156 14.3751 53.75 15.547 56.0938 17.5782C58.6719 19.7657 59.7656 22.9688 59.9219 25.6251" stroke="#060606" stroke-width="2" stroke-miterlimit="10" stroke-linecap="round" stroke-linejoin="round"/>
<path d="M56.6406 37.1094C56.5625 37.6562 56.3281 38.2031 55.8594 38.75C54.6875 40 52.5781 41.0156 50.2344 41.4844C48.6719 41.7969 47.1094 41.875 45.625 41.6406C44.0625 41.4062 42.8125 40.8594 42.1094 40.1563" stroke="black" stroke-width="2" stroke-miterlimit="10" stroke-linecap="round" stroke-linejoin="round"/>
<path d="M43.2898 40.889C43.8006 40.2471 43.4478 39.1166 42.5018 38.364C41.5558 37.6113 40.375 37.5215 39.8642 38.1634C39.3535 38.8053 39.7063 39.9358 40.6523 40.6885C41.5982 41.4412 42.7791 41.5309 43.2898 40.889Z" fill="black"/>
</svg>
