<svg width="100" height="100" viewBox="0 0 100 100" fill="none" xmlns="http://www.w3.org/2000/svg">
<g clip-path="url(#clip0_112_1316)">
<path d="M67.0605 70.7568V29.2432C67.0605 25.7209 64.1961 22.8564 60.6738 22.8564H38.3203C34.798 22.8564 31.9336 25.7209 31.9336 29.2432V70.7568C31.9336 74.2791 34.798 77.1435 38.3203 77.1435H60.6738C64.1961 77.1435 67.0605 74.2791 67.0605 70.7568ZM63.8672 64.3701H35.127V35.6299H63.8672V64.3701ZM38.3203 26.0498H60.6738C62.435 26.0498 63.8672 27.482 63.8672 29.2432V32.4365H35.127V29.2432C35.127 27.482 36.5592 26.0498 38.3203 26.0498ZM60.6738 73.9502H38.3203C36.5592 73.9502 35.127 72.518 35.127 70.7568V67.5635H63.8672V70.7568C63.8672 72.518 62.435 73.9502 60.6738 73.9502Z" fill="black"/>
<path d="M6.38672 83.5303H9.58008V86.7236H6.38672V83.5303Z" fill="black"/>
<path d="M15.9668 83.5303H25.5469V86.7236H15.9668V83.5303Z" fill="black"/>
<path d="M6.38672 89.917H25.5469V93.1104H6.38672V89.917Z" fill="black"/>
<path d="M6.38574 8.48633C7.26756 8.48633 7.98242 7.77147 7.98242 6.88965C7.98242 6.00783 7.26756 5.29297 6.38574 5.29297C5.50392 5.29297 4.78906 6.00783 4.78906 6.88965C4.78906 7.77147 5.50392 8.48633 6.38574 8.48633Z" fill="black"/>
<path d="M22.3535 10.083H19.1602V6.88965H15.9668V13.2764H22.3535V10.083Z" fill="black"/>
<path d="M6.38672 19.6631H9.58008V22.8564H12.7734V16.4697H6.38672V19.6631Z" fill="black"/>
<path d="M41.5137 61.1767H57.4805C59.2416 61.1767 60.6738 59.7445 60.6738 57.9834V42.0166C60.6738 40.2555 59.2416 38.8232 57.4805 38.8232H41.5137C39.7525 38.8232 38.3203 40.2555 38.3203 42.0166V57.9834C38.3203 59.7445 39.7525 61.1767 41.5137 61.1767ZM47.9004 42.0166H51.0937V45.21H47.9004V42.0166ZM41.5137 42.0166H44.707V48.4033H54.2871V42.0166H57.4805L57.4821 57.9834H41.5137V42.0166Z" fill="black"/>
<path d="M92.6074 83.5302H100L86.7061 71.7132C90.5557 65.1301 92.6074 57.6608 92.6074 50C92.6074 42.6153 90.7121 35.4159 87.1292 29.01C93.8608 27.8189 98.9941 21.9399 98.9941 14.873C98.9941 6.95032 92.5483 0.50293 84.624 0.50293C77.5555 0.50293 71.6781 5.63625 70.487 12.3663C64.0811 8.7849 56.8817 6.88965 49.4971 6.88965C42.2034 6.88965 35.087 8.73221 28.7402 12.2289V0.50293H0V29.2432H11.726C8.22928 35.5884 6.38672 42.7063 6.38672 50C6.38672 59.9696 9.79243 69.4763 16.0275 77.1435H4.79004C2.14913 77.1435 0 79.2926 0 81.9336V94.707C0 97.3479 2.14913 99.497 4.79004 99.497H27.1435C29.7845 99.497 31.9336 97.3479 31.9336 94.707V89.3677C37.4357 91.8218 43.4568 93.1103 49.4971 93.1103C56.7907 93.1103 63.9071 91.2677 70.2539 87.771V96.3037H67.0605V99.497H95.8007V96.3037H92.6074V83.5302ZM89.414 96.3037H83.0273V83.5302H89.414V96.3037ZM71.2598 80.3369L81.4306 71.2965L91.6015 80.3369H71.2598ZM95.8007 14.873C95.8007 20.4918 91.627 25.1429 86.2207 25.9221V22.8564C88.8616 22.8564 91.0107 20.7073 91.0107 18.0664C91.0107 15.4255 88.8616 13.2764 86.2207 13.2764H83.0273C82.1459 13.2764 81.4306 12.5595 81.4306 11.6797C81.4306 10.7999 82.1459 10.083 83.0273 10.083H86.2207C87.102 10.083 87.8174 10.7999 87.8174 11.6797H91.0107C91.0107 9.03878 88.8616 6.88965 86.2207 6.88965V3.82402C91.627 4.6032 95.8007 9.25433 95.8007 14.873ZM83.0273 3.82402V6.88965C80.3864 6.88965 78.2373 9.03878 78.2373 11.6797C78.2373 14.3206 80.3864 16.4697 83.0273 16.4697H86.2207C87.102 16.4697 87.8174 17.1866 87.8174 18.0664C87.8174 18.9462 87.102 19.6631 86.2207 19.6631H83.0273C82.1459 19.6631 81.4306 18.9462 81.4306 18.0664H78.2373C78.2373 20.7073 80.3864 22.8564 83.0273 22.8564V25.9221C77.621 25.1429 73.4472 20.4918 73.4472 14.873C73.4472 9.25433 77.621 4.6032 83.0273 3.82402ZM9.58007 3.69629V10.083H3.19336V3.69629H9.58007ZM3.19336 13.2764H12.7734V3.69629H25.5469V26.0498H19.1601V22.8564H22.3535V19.6631H19.1601V16.4697H15.9668V26.0498H3.19336V13.2764ZM28.7402 94.707C28.7402 95.5868 28.0249 96.3037 27.1435 96.3037H4.79004C3.90867 96.3037 3.19336 95.5868 3.19336 94.707V81.9336C3.19336 81.0538 3.90867 80.3369 4.79004 80.3369H27.1435C28.0249 80.3369 28.7402 81.0538 28.7402 81.9336V94.707ZM49.4971 89.917C43.3307 89.917 37.4309 88.5294 31.9336 85.8247V81.9336C31.9336 79.2926 29.7845 77.1435 27.1435 77.1435H20.2587C13.3738 69.7317 9.58007 60.1229 9.58007 50C9.58007 42.6473 11.6142 35.4957 15.4335 29.2432H28.7402V15.9364C34.9944 12.1172 42.1459 10.083 49.4971 10.083C56.8721 10.083 64.0444 12.1284 70.3098 15.97C70.8462 23.0177 76.4793 28.6524 83.5271 29.1873C87.3687 35.4558 89.414 42.6265 89.414 50C89.414 56.8785 87.6289 63.5909 84.2711 69.5497L81.4306 67.0238L62.8613 83.5302H70.2539V84.0635C63.9997 87.8828 56.8482 89.917 49.4971 89.917ZM73.4472 83.5302H79.834V96.3037H73.4472V83.5302Z" fill="black"/>
</g>
<defs>
<clipPath id="clip0_112_1316">
<rect width="100" height="100" fill="white"/>
</clipPath>
</defs>
</svg>
