<svg width="100" height="101" viewBox="0 0 100 101" fill="none" xmlns="http://www.w3.org/2000/svg">
<g clip-path="url(#clip0_110_1172)">
<path d="M25.7884 9.10229C25.7881 8.90308 25.8272 8.70577 25.9033 8.52168C25.9794 8.33758 26.0911 8.17031 26.2319 8.02945C26.3728 7.88859 26.5401 7.77691 26.7242 7.7008C26.9083 7.62469 27.1056 7.58566 27.3048 7.58593H42.4725C42.8746 7.58593 43.2603 7.74569 43.5447 8.03006C43.8291 8.31443 43.9888 8.70012 43.9888 9.10229C43.9888 9.50445 43.8291 9.89014 43.5447 10.1745C43.2603 10.4589 42.8746 10.6186 42.4725 10.6186H27.3048C27.1056 10.6189 26.9083 10.5799 26.7242 10.5038C26.5401 10.4277 26.3728 10.316 26.2319 10.1751C26.0911 10.0343 25.9794 9.86699 25.9033 9.68289C25.8272 9.4988 25.7881 9.30149 25.7884 9.10229ZM34.8949 89.5003C34.4927 89.5003 34.107 89.66 33.8227 89.9444C33.5383 90.2288 33.3785 90.6144 33.3785 91.0166C33.3785 91.4188 33.5383 91.8045 33.8227 92.0888C34.107 92.3732 34.4927 92.533 34.8949 92.533C35.297 92.533 35.6827 92.3732 35.9671 92.0888C36.2515 91.8045 36.4112 91.4188 36.4112 91.0166C36.4112 90.6144 36.2515 90.2288 35.9671 89.9444C35.6827 89.66 35.297 89.5003 34.8949 89.5003ZM19.7272 89.5003C19.325 89.5003 18.9393 89.66 18.655 89.9444C18.3706 90.2288 18.2108 90.6144 18.2108 91.0166C18.2108 91.4188 18.3706 91.8045 18.655 92.0888C18.9393 92.3732 19.325 92.533 19.7272 92.533C20.1293 92.533 20.515 92.3732 20.7994 92.0888C21.0838 91.8045 21.2435 91.4188 21.2435 91.0166C21.2435 90.6144 21.0838 90.2288 20.7994 89.9444C20.515 89.66 20.1293 89.5003 19.7272 89.5003ZM50.0584 89.5003C49.6562 89.5003 49.2705 89.66 48.9862 89.9444C48.7018 90.2288 48.5421 90.6144 48.5421 91.0166C48.5421 91.4188 48.7018 91.8045 48.9862 92.0888C49.2705 92.3732 49.6562 92.533 50.0584 92.533C50.4606 92.533 50.8463 92.3732 51.1306 92.0888C51.415 91.8045 51.5748 91.4188 51.5748 91.0166C51.5748 90.6144 51.415 90.2288 51.1306 89.9444C50.8463 89.66 50.4606 89.5003 50.0584 89.5003ZM49.1824 10.6186C49.5845 10.6186 49.9702 10.4589 50.2546 10.1745C50.539 9.89014 50.6987 9.50445 50.6987 9.10229C50.6987 8.70012 50.539 8.31443 50.2546 8.03006C49.9702 7.74569 49.5845 7.58593 49.1824 7.58593C48.9832 7.58634 48.7862 7.62597 48.6023 7.70256C48.4185 7.77914 48.2516 7.89118 48.1111 8.03228C47.9706 8.17337 47.8592 8.34076 47.7834 8.52489C47.7076 8.70902 47.6687 8.90628 47.6692 9.10542C47.6696 9.30455 47.7092 9.50164 47.7858 9.68546C47.8624 9.86928 47.9744 10.0362 48.1155 10.1767C48.2566 10.3172 48.424 10.4286 48.6081 10.5044C48.7922 10.5802 48.9895 10.6191 49.1886 10.6186H49.1824ZM99.9938 21.7024C99.994 21.9016 99.955 22.0989 99.8789 22.283C99.8028 22.4671 99.6911 22.6344 99.5502 22.7752C99.4094 22.9161 99.2421 23.0278 99.058 23.1039C98.8739 23.18 98.6766 23.219 98.4774 23.2188H93.3631L91.4484 32.9551L86.3195 59.046L85.068 65.466C85.7731 66.2376 86.2916 67.1609 86.5834 68.1646C86.8752 69.1683 86.9326 70.2257 86.751 71.2551C86.5695 72.2845 86.1539 73.2584 85.5363 74.1018C84.9188 74.9452 84.1157 75.6354 83.1892 76.1192C82.2626 76.6031 81.2373 76.8677 80.1923 76.8925C79.1473 76.9173 78.1105 76.7018 77.162 76.2625C76.2135 75.8232 75.3786 75.1719 74.7217 74.3589C74.0648 73.5458 73.6034 72.5927 73.3731 71.5731H69.7793V94.0493C69.7771 95.6582 69.1369 97.2005 67.999 98.338C66.8612 99.4754 65.3186 100.115 63.7097 100.117H6.0675C4.4588 100.115 2.91648 99.4754 1.77896 98.3378C0.64144 97.2003 0.00165645 95.658 0 94.0493C0 89.3939 0 23.4294 0 16.6861V6.0675C0.00220724 4.45897 0.642168 2.91696 1.77957 1.77957C2.91696 0.642168 4.45897 0.00220724 6.0675 0L63.7097 0C65.3185 0.00220589 66.8607 0.6421 67.9984 1.77944C69.1361 2.91678 69.7766 4.45878 69.7793 6.0675V31.1468H88.7118L90.6266 21.4104C90.6943 21.0653 90.8799 20.7544 91.1516 20.5311C91.4232 20.3077 91.7641 20.1858 92.1158 20.1861H98.4837C98.6829 20.1858 98.8802 20.2248 99.0643 20.3009C99.2484 20.377 99.4156 20.4887 99.5565 20.6296C99.6973 20.7704 99.809 20.9377 99.8851 21.1218C99.9612 21.3059 100 21.5032 100 21.7024H99.9938ZM88.1049 34.1815H37.8775L43.5925 57.2334H57.515C57.4353 57.0248 57.402 56.8014 57.4174 56.5786C57.4328 56.3558 57.4965 56.139 57.6042 55.9434C57.7119 55.7477 57.8609 55.5779 58.0409 55.4457C58.2209 55.3135 58.4275 55.2221 58.6464 55.1778C58.8653 55.1336 59.0912 55.1376 59.3084 55.1895C59.5256 55.2414 59.7289 55.3401 59.9041 55.4786C60.0793 55.617 60.2222 55.792 60.3229 55.9913C60.4236 56.1907 60.4797 56.4095 60.4872 56.6327C60.6129 57.5492 61.0662 58.3892 61.7633 58.9973C62.4604 59.6053 63.3541 59.9403 64.2792 59.9403C65.2042 59.9403 66.098 59.6053 66.7951 58.9973C67.4922 58.3892 67.9455 57.5492 68.0711 56.6327C68.0711 54.4406 66.7946 53.3247 64.2792 53.3247C62.6424 53.4808 61.0094 52.9913 59.7283 51.9606C58.4472 50.9299 57.6194 49.4396 57.4214 47.8074C57.2234 46.1751 57.6707 44.5301 58.6681 43.223C59.6656 41.9158 61.1341 41.05 62.7607 40.8101V39.5023C62.7753 39.1096 62.9415 38.7379 63.2245 38.4652C63.5075 38.1925 63.8851 38.0402 64.2781 38.0402C64.6711 38.0402 65.0488 38.1925 65.3317 38.4652C65.6147 38.7379 65.781 39.1096 65.7955 39.5023V40.8101C67.2533 41.0747 68.5759 41.8319 69.5422 42.955C70.5085 44.0781 71.0597 45.4989 71.1038 46.9798C71.1038 47.382 70.944 47.7677 70.6597 48.052C70.3753 48.3364 69.9896 48.4962 69.5874 48.4962C69.1853 48.4962 68.7996 48.3364 68.5152 48.052C68.2308 47.7677 68.0711 47.382 68.0711 46.9798C67.9501 42.6268 60.6061 42.6247 60.4872 46.9798C60.4872 49.1761 61.7616 50.2878 64.2792 50.2878C69.552 50.3233 71.3708 53.8545 71.0391 57.2293H83.5892L88.1049 34.1815ZM3.0327 6.0675V15.1698H66.7445V6.0675C66.7434 5.26315 66.4233 4.4921 65.8543 3.92353C65.2854 3.35497 64.5141 3.03534 63.7097 3.03479H6.0675C5.26315 3.03534 4.49188 3.35497 3.92292 3.92353C3.35397 4.4921 3.03381 5.26315 3.0327 6.0675ZM66.7445 94.0493V84.9491H3.0327V94.0493C3.03381 94.8538 3.3539 95.6251 3.92279 96.194C4.49169 96.7629 5.26296 97.083 6.0675 97.0841H63.7097C64.5145 97.0835 65.286 96.7636 65.8551 96.1946C66.4241 95.6256 66.744 94.854 66.7445 94.0493ZM66.7445 71.5731H55.1831C54.8103 73.2119 53.8467 74.6558 52.4765 75.6291C51.1063 76.6024 49.4256 77.0367 47.7555 76.8491C46.0853 76.6615 44.5428 75.8651 43.4227 74.6121C42.3026 73.3591 41.6833 71.7374 41.6833 70.0567C41.6833 68.3761 42.3026 66.7543 43.4227 65.5013C44.5428 64.2484 46.0853 63.452 47.7555 63.2644C49.4256 63.0768 51.1063 63.5111 52.4765 64.4844C53.8467 65.4576 54.8103 66.9016 55.1831 68.5404H73.3627C73.579 67.5993 73.9925 66.7148 74.5757 65.9452C75.1589 65.1756 75.8987 64.5384 76.7462 64.0756C77.5937 63.6128 78.5297 63.3349 79.4924 63.2604C80.4552 63.1858 81.4228 63.3162 82.3315 63.643L82.9948 60.2682H69.8544C68.8479 61.5724 67.407 62.4723 65.7934 62.8045V64.1102C65.801 64.3142 65.7673 64.5176 65.6945 64.7083C65.6217 64.899 65.5111 65.0731 65.3694 65.2201C65.2278 65.3671 65.058 65.484 64.8701 65.5639C64.6822 65.6438 64.4802 65.6849 64.276 65.6849C64.0719 65.6849 63.8698 65.6438 63.682 65.5639C63.4941 65.484 63.3243 65.3671 63.1826 65.2201C63.041 65.0731 62.9304 64.899 62.8576 64.7083C62.7847 64.5176 62.7511 64.3142 62.7586 64.1102V62.8045C61.1453 62.4767 59.7034 61.5803 58.6956 60.2787H42.4016C42.0628 60.2788 41.7337 60.1656 41.4668 59.9569C41.1999 59.7482 41.0106 59.4561 40.929 59.1273L34.4631 33.0385C34.4084 32.8153 34.4052 32.5826 34.4537 32.358C34.5021 32.1333 34.601 31.9226 34.7428 31.7418C34.8847 31.561 35.0658 31.4148 35.2724 31.3142C35.4791 31.2137 35.7059 31.1614 35.9357 31.1614H66.7445V18.2296H3.0327V81.9143H66.7445V71.5731ZM48.5233 66.2502C47.5137 66.2502 46.5455 66.6513 45.8317 67.3651C45.1178 68.079 44.7168 69.0472 44.7168 70.0567C44.7168 71.0663 45.1178 72.0345 45.8317 72.7484C46.5455 73.4622 47.5137 73.8633 48.5233 73.8633C49.5328 73.8633 50.501 73.4622 51.2149 72.7484C51.9288 72.0345 52.3298 71.0663 52.3298 70.0567C52.3298 69.0472 51.9288 68.079 51.2149 67.3651C50.501 66.6513 49.5328 66.2502 48.5233 66.2502ZM83.8291 70.0567C83.8058 69.0623 83.3944 68.1165 82.6829 67.4214C81.9714 66.7264 81.0162 66.3372 80.0215 66.3372C79.0268 66.3372 78.0716 66.7264 77.3601 67.4214C76.6486 68.1165 76.2372 69.0623 76.2139 70.0567C76.2372 71.0511 76.6486 71.997 77.3601 72.692C78.0716 73.3871 79.0268 73.7762 80.0215 73.7762C81.0162 73.7762 81.9714 73.3871 82.6829 72.692C83.3944 71.997 83.8058 71.0511 83.8291 70.0567ZM31.5201 45.7054C31.5201 45.5064 31.4809 45.3093 31.4046 45.1254C31.3284 44.9416 31.2167 44.7746 31.0759 44.6339C30.935 44.4933 30.7678 44.3818 30.5839 44.3058C30.3999 44.2298 30.2028 44.1909 30.0038 44.1911H13.3176C12.9155 44.1911 12.5298 44.3509 12.2454 44.6353C11.961 44.9196 11.8013 45.3053 11.8013 45.7075C11.8013 46.1097 11.961 46.4953 12.2454 46.7797C12.5298 47.0641 12.9155 47.2238 13.3176 47.2238H30.0038C30.2031 47.2238 30.4004 47.1846 30.5845 47.1082C30.7686 47.0319 30.9359 46.92 31.0767 46.779C31.2176 46.638 31.3292 46.4705 31.4053 46.2863C31.4814 46.1021 31.5204 45.9047 31.5201 45.7054ZM32.1458 52.5342H15.4597C15.067 52.5488 14.6952 52.715 14.4226 52.998C14.1499 53.281 13.9975 53.6586 13.9975 54.0516C13.9975 54.4446 14.1499 54.8222 14.4226 55.1052C14.6952 55.3882 15.067 55.5544 15.4597 55.569H32.1458C32.5386 55.5553 32.9107 55.3898 33.184 55.1074C33.4573 54.825 33.6104 54.4476 33.6112 54.0546C33.612 53.6616 33.4604 53.2836 33.1883 53.0001C32.9162 52.7166 32.5448 52.5496 32.1521 52.5342H32.1458ZM29.4343 37.3644C29.4343 37.1651 29.3951 36.9678 29.3187 36.7837C29.2424 36.5996 29.1305 36.4323 28.9895 36.2915C28.8484 36.1506 28.681 36.039 28.4968 35.9629C28.3126 35.8868 28.1152 35.8478 27.9159 35.8481H11.2298C10.8276 35.8481 10.4419 36.0078 10.1575 36.2922C9.87317 36.5766 9.71342 36.9623 9.71342 37.3644C9.71342 37.7666 9.87317 38.1523 10.1575 38.4366C10.4419 38.721 10.8276 38.8808 11.2298 38.8808H27.9159C28.3183 38.8808 28.7042 38.7211 28.9889 38.4368C29.2736 38.1525 29.4338 37.7668 29.4343 37.3644Z" fill="#1A171B"/>
</g>
<defs>
<clipPath id="clip0_110_1172">
<rect width="100" height="100.117" fill="white"/>
</clipPath>
</defs>
</svg>
