<svg width="100" height="100" viewBox="0 0 100 100" fill="none" xmlns="http://www.w3.org/2000/svg">
<path d="M69.6816 25.8184H81.6459C82.4549 25.8184 83.1107 25.1627 83.1107 24.3535C83.1107 23.5443 82.4549 22.8887 81.6459 22.8887H69.6816C68.8727 22.8887 68.2168 23.5443 68.2168 24.3535C68.2168 25.1627 68.8725 25.8184 69.6816 25.8184Z" fill="black"/>
<path d="M69.6816 33.0869H81.6459C82.4549 33.0869 83.1107 32.4313 83.1107 31.6221C83.1107 30.8129 82.4549 30.1572 81.6459 30.1572H69.6816C68.8727 30.1572 68.2168 30.8129 68.2168 31.6221C68.2168 32.4313 68.8725 33.0869 69.6816 33.0869Z" fill="black"/>
<path d="M83.7043 0H16.2949C12.7949 0 9.94727 2.84746 9.94727 6.34766V78.2908C9.94727 79.1 10.6031 79.7557 11.4121 79.7557C12.2211 79.7557 12.877 79.1 12.877 78.2908V16.8945H66.7887C67.5977 16.8945 68.2535 16.2389 68.2535 15.4297C68.2535 14.6205 67.5977 13.9648 66.7887 13.9648H30.6174V2.92969H83.7043C85.5889 2.92969 87.1223 4.46309 87.1223 6.34766V13.9648H73.6246C72.8156 13.9648 72.1598 14.6205 72.1598 15.4297C72.1598 16.2389 72.8156 16.8945 73.6246 16.8945H87.1223V93.6523C87.1223 95.5369 85.5889 97.0703 83.7043 97.0703H16.2949C14.4104 97.0703 12.877 95.5369 12.877 93.6523V85.1268C12.877 84.3176 12.2211 83.6619 11.4121 83.6619C10.6031 83.6619 9.94727 84.3176 9.94727 85.1268V93.6523C9.94727 97.1525 12.7949 100 16.2949 100H83.7045C87.2045 100 90.0521 97.1525 90.0521 93.6523V6.34766C90.0519 2.84746 87.2045 0 83.7043 0ZM27.6877 13.9648H12.877V6.34766C12.877 4.46309 14.4104 2.92969 16.2949 2.92969H27.6879V13.9648H27.6877Z" fill="black"/>
<path d="M21.1746 31.4605C23.5379 31.4605 25.4605 29.5379 25.4605 27.1746C25.4605 24.8113 23.5379 22.8887 21.1746 22.8887C18.8113 22.8887 16.8887 24.8113 16.8887 27.1746C16.8887 29.5379 18.8113 31.4605 21.1746 31.4605ZM21.1746 25.8182C21.9225 25.8182 22.5309 26.4266 22.5309 27.1744C22.5309 27.9223 21.9225 28.5307 21.1746 28.5307C20.4268 28.5307 19.8184 27.9223 19.8184 27.1744C19.8184 26.4266 20.4268 25.8182 21.1746 25.8182Z" fill="black"/>
<path d="M21.1746 42.6342C23.5379 42.6342 25.4605 40.7115 25.4605 38.3484C25.4605 35.985 23.5379 34.0625 21.1746 34.0625C18.8113 34.0625 16.8887 35.9852 16.8887 38.3484C16.8887 40.7115 18.8113 42.6342 21.1746 42.6342ZM21.1746 36.992C21.9225 36.992 22.5309 37.6004 22.5309 38.3482C22.5309 39.0959 21.9225 39.7043 21.1746 39.7043C20.4268 39.7043 19.8184 39.0959 19.8184 38.3482C19.8184 37.6006 20.4268 36.992 21.1746 36.992Z" fill="black"/>
<path d="M27.3666 53.8109C27.3062 53.9961 27.167 54.1404 26.9936 54.1967L23.6123 55.2955C22.1643 55.7656 21.1914 57.1047 21.1914 58.6274V63.7625C21.1914 65.2848 22.1641 66.6236 23.6121 67.0943L26.9934 68.193C27.1666 68.2492 27.3061 68.3934 27.3664 68.5787C27.7455 69.742 28.2191 70.8852 28.7744 71.9764C28.8631 72.1508 28.8668 72.3518 28.7838 72.5143L27.1693 75.6828C26.4781 77.0393 26.7371 78.6738 27.8137 79.7502L31.4447 83.3817C32.5213 84.4582 34.1563 84.7168 35.5123 84.0258L38.6807 82.4113C38.8455 82.3272 39.0416 82.3307 39.2186 82.4209C40.3098 82.9762 41.4529 83.4498 42.6162 83.8289C42.8014 83.8893 42.9455 84.0285 43.0018 84.2018L44.1004 87.5832C44.5709 89.0309 45.91 90.0037 47.4322 90.0037H52.5674C54.0897 90.0037 55.4287 89.0311 55.8992 87.583L56.9979 84.2018C57.0541 84.0285 57.1982 83.8891 57.3834 83.8289C58.5467 83.4498 59.6898 82.9762 60.7811 82.4209C60.9555 82.332 61.1564 82.3283 61.3189 82.4113L64.4873 84.0258C65.8438 84.7172 67.4785 84.4582 68.5549 83.3817L72.1859 79.7504C73.2625 78.6738 73.5213 77.0393 72.8303 75.6826L71.2158 72.5143C71.133 72.3518 71.1365 72.1508 71.2252 71.9764C71.7805 70.8852 72.2541 69.7422 72.6332 68.5787C72.6936 68.3936 72.833 68.2492 73.0061 68.193L76.3875 67.0943C77.8354 66.6238 78.808 65.2848 78.808 63.7625V58.6274C78.808 57.1047 77.8352 55.7658 76.3873 55.2955L73.0057 54.1967C72.8326 54.1404 72.6934 53.9963 72.633 53.8109C72.2539 52.6479 71.7803 51.5049 71.225 50.4133C71.135 50.2365 71.1314 50.0404 71.2156 49.8756L72.8301 46.707C73.5213 45.3506 73.2623 43.716 72.1857 42.6393L68.5547 39.0082C67.4783 37.9318 65.8436 37.6727 64.4871 38.3639L61.3186 39.9783C61.1561 40.0611 60.9551 40.0574 60.7809 39.969C60.5264 39.8395 60.2662 39.7152 60.0033 39.5938C61.4547 37.559 62.2701 35.0897 62.2701 32.4707C62.2701 28.2725 60.1566 24.4102 56.6172 22.1397C55.9889 21.7365 55.1904 21.7086 54.5336 22.0674C53.8736 22.4281 53.4637 23.1186 53.4637 23.8697V30.2475H46.5353V23.8697C46.5353 23.1186 46.1254 22.4281 45.4654 22.0674C44.8086 21.7084 44.0102 21.7363 43.3822 22.1395C39.8422 24.4102 37.7289 28.2723 37.7289 32.4707C37.7289 35.0899 38.5443 37.5592 39.9957 39.594C39.7328 39.7154 39.4727 39.8397 39.2184 39.9692C39.0412 40.0592 38.8451 40.0625 38.6805 39.9785L35.5121 38.3641C34.1557 37.6729 32.5209 37.9318 31.4445 39.0084L27.8135 42.6395C26.7369 43.7162 26.4779 45.3508 27.1691 46.7072L28.7836 49.8758C28.8676 50.0406 28.8643 50.2367 28.7742 50.4137C28.2193 51.5049 27.7457 52.6479 27.3666 53.8109ZM43.6064 25.6621V30.7359C43.6064 32.0822 44.7016 33.1774 46.0479 33.1774H53.9527C55.299 33.1774 56.3941 32.0822 56.3941 30.7359V25.6621C58.2633 27.4115 59.3412 29.8557 59.3412 32.4707C59.3412 36.0393 57.3545 39.2453 54.1561 40.8373C53.3203 41.2537 52.801 42.0906 52.801 43.0219V70.3983C51.9143 70.6686 50.9742 70.8153 50.0004 70.8153C49.0266 70.8153 48.0865 70.6686 47.1998 70.3983V63.977C47.1998 63.1678 46.5439 62.5121 45.735 62.5121C44.926 62.5121 44.2701 63.1678 44.2701 63.977V68.9172C41.9111 67.1623 40.3799 64.3541 40.3799 61.1947C40.3799 58.0932 41.8543 55.252 44.2701 53.465V57.141C44.2701 57.9502 44.926 58.6059 45.735 58.6059C46.5439 58.6059 47.1998 57.9502 47.1998 57.141V43.0219C47.1998 42.0906 46.6805 41.2537 45.8445 40.8373C42.6463 39.2453 40.6596 36.0395 40.6596 32.4707C40.6594 29.8557 41.7373 27.4117 43.6064 25.6621ZM55.7305 53.4649C58.1463 55.2518 59.6207 58.093 59.6207 61.1945C59.6207 64.3539 58.0895 67.1621 55.7305 68.917V53.4649ZM30.152 54.7188C30.4842 53.6998 30.8992 52.6981 31.3855 51.742C31.8979 50.7352 31.901 49.5402 31.3941 48.5455L29.7797 45.377C29.6664 45.1549 29.709 44.8873 29.8852 44.7111L33.5162 41.0801C33.6924 40.9037 33.96 40.8615 34.1822 40.9744L37.3506 42.5889C38.3453 43.0957 39.5402 43.0924 40.5471 42.5803C41.0477 42.3254 41.5705 42.0895 42.1061 41.8713C42.765 42.4219 43.4881 42.9098 44.2693 43.3223V50.0277C40.0959 52.166 37.4494 56.4471 37.4494 61.1947C37.4494 68.115 43.0795 73.7449 49.9996 73.7449C56.9197 73.7449 62.5498 68.115 62.5498 61.1947C62.5498 56.4473 59.9033 52.166 55.7299 50.0277V43.3223C56.5111 42.9098 57.234 42.4219 57.8932 41.8713C58.4289 42.0895 58.9518 42.3254 59.4525 42.5803C60.4596 43.0926 61.6543 43.0959 62.649 42.5889L65.8174 40.9744C66.0398 40.8615 66.307 40.9037 66.4834 41.0801L70.1145 44.7111C70.2906 44.8873 70.3332 45.1549 70.2199 45.377L68.6055 48.5455C68.0986 49.5402 68.102 50.7352 68.6141 51.7418C69.1006 52.6981 69.5156 53.6998 69.8477 54.7188C70.1975 55.7918 71.0398 56.6383 72.1008 56.9828L75.4822 58.0816C75.7191 58.1588 75.8783 58.3779 75.8783 58.6272V63.7623C75.8783 64.0115 75.7191 64.2307 75.482 64.3078L72.1006 65.4065C71.0395 65.7514 70.1973 66.5979 69.8477 67.6705C69.5154 68.6899 69.1004 69.6914 68.6141 70.6475C68.1018 71.6543 68.0984 72.8492 68.6055 73.844L70.2199 77.0121C70.333 77.2344 70.2906 77.502 70.1145 77.6783L66.4834 81.3094C66.307 81.4856 66.0395 81.5281 65.8174 81.4149L62.649 79.8004C61.6543 79.2934 60.4594 79.2969 59.4525 79.8092C58.4963 80.2957 57.4949 80.7108 56.4758 81.0428C55.4027 81.3922 54.5563 82.2348 54.2115 83.2959L53.1129 86.6772C53.0357 86.9143 52.8166 87.0734 52.5674 87.0734H47.4322C47.183 87.0734 46.9637 86.9143 46.8867 86.6774L45.7881 83.2961C45.4434 82.2348 44.5969 81.3924 43.524 81.043C42.5049 80.711 41.5033 80.2957 40.5471 79.8094C39.5402 79.2971 38.3451 79.294 37.3506 79.8006L34.1822 81.4151C33.9604 81.5285 33.6926 81.486 33.5162 81.3098L29.8852 77.6783C29.709 77.5022 29.6666 77.2346 29.7797 77.0125L31.3941 73.8442C31.901 72.8494 31.8979 71.6545 31.3855 70.6475C30.899 69.6914 30.484 68.6901 30.152 67.6707C29.8021 66.5981 28.96 65.7516 27.8988 65.4067L24.5176 64.308C24.2805 64.2309 24.1211 64.0117 24.1211 63.7625V58.6274C24.1211 58.3781 24.2803 58.159 24.5174 58.0818L27.8984 56.983C28.96 56.6383 29.8023 55.7918 30.152 54.7188Z" fill="black"/>
</svg>
