<svg width="100" height="100" viewBox="0 0 100 100" fill="none" xmlns="http://www.w3.org/2000/svg">
<path d="M43.8326 3.89322C43.5381 3.66484 43.165 3.56262 42.7952 3.60897C42.4254 3.65533 42.089 3.84648 41.86 4.14049L32.4379 16.2536C30.1672 16.2551 25.5303 16.2536 23.2812 16.2536C21.4432 16.2612 21.4414 19.0585 23.2812 19.0661H26.3164L32.0414 39.8721C32.2875 40.7622 32.8182 41.5471 33.5526 42.107C34.2869 42.6668 35.1844 42.9708 36.1078 42.9723H64.7121C65.6354 42.9708 66.5328 42.667 67.2671 42.1073C68.0014 41.5476 68.5322 40.7628 68.7783 39.8729L74.5035 19.0661H76.7188C78.5572 19.0583 78.5584 16.2614 76.7188 16.2536C74.8461 16.2536 70.8115 16.2536 68.9139 16.2536L58.0982 4.06979C56.8678 2.70104 54.7805 4.55592 55.9945 5.93756L65.152 16.2536H35.9996L44.0783 5.86666C44.3074 5.57238 44.4102 5.19915 44.3642 4.82906C44.3181 4.45897 44.1269 4.12234 43.8326 3.89322ZM71.5865 19.0661L66.0676 39.1278C65.9852 39.4241 65.8081 39.6854 65.5634 39.8717C65.3186 40.058 65.0197 40.1592 64.7121 40.1598H36.1078C35.8001 40.1592 35.5011 40.058 35.2564 39.8715C35.0116 39.6851 34.8346 39.4237 34.7523 39.1272L29.233 19.0661H71.5865ZM48.5938 34.5348V24.6911C48.5938 24.3181 48.7419 23.9604 49.0056 23.6967C49.2694 23.433 49.627 23.2848 50 23.2848C50.373 23.2848 50.7306 23.433 50.9944 23.6967C51.2581 23.9604 51.4063 24.3181 51.4063 24.6911V34.5348C51.4063 34.9078 51.2581 35.2655 50.9944 35.5292C50.7306 35.7929 50.373 35.9411 50 35.9411C49.627 35.9411 49.2694 35.7929 49.0056 35.5292C48.7419 35.2655 48.5938 34.9078 48.5938 34.5348ZM57.0861 34.1442L59.9572 24.2338C60.061 23.8755 60.303 23.573 60.6298 23.393C60.9566 23.213 61.3415 23.1702 61.6999 23.274C62.0583 23.3778 62.3607 23.6197 62.5408 23.9465C62.7208 24.2733 62.7636 24.6583 62.6598 25.0167L59.7896 34.927C59.6858 35.2854 59.4439 35.5879 59.1171 35.7679C58.7902 35.948 58.4053 35.9908 58.0469 35.887C57.6885 35.7832 57.386 35.5412 57.206 35.2144C57.0259 34.8876 56.9831 34.5026 57.0869 34.1442H57.0861ZM37.341 25.0159C37.2372 24.6575 37.28 24.2726 37.46 23.9457C37.64 23.6189 37.9425 23.377 38.3009 23.2732C38.6593 23.1694 39.0442 23.2122 39.371 23.3922C39.6978 23.5722 39.9397 23.8747 40.0436 24.2331L42.9146 34.1434C43.4172 35.9085 40.7391 36.6942 40.2119 34.9262L37.341 25.0159ZM91.091 23.2848H79.5312C79.1583 23.2848 78.8006 23.433 78.5369 23.6967C78.2732 23.9604 78.125 24.3181 78.125 24.6911C78.125 25.064 78.2732 25.4217 78.5369 25.6854C78.8006 25.9492 79.1583 26.0973 79.5312 26.0973H91.0902C91.7539 26.098 92.3902 26.362 92.8595 26.8312C93.3288 27.3004 93.5929 27.9366 93.5938 28.6003V73.9098H6.40625V28.6003C6.40713 27.9366 6.67119 27.3004 7.14052 26.8312C7.60985 26.362 8.24612 26.098 8.90977 26.0973H20.4688C22.3068 26.0796 22.3225 23.3096 20.4688 23.2848H8.90977C7.50048 23.2865 6.14938 23.847 5.15281 24.8435C4.15624 25.8399 3.59556 27.191 3.59375 28.6003V83.7536C3.59499 84.8721 4.03986 85.9444 4.83076 86.7353C5.62166 87.5262 6.694 87.9711 7.8125 87.9723H43.5057L40.6932 93.5973H37.3438C35.5127 93.6038 35.4984 96.402 37.3438 96.4098H62.6562C64.4873 96.4036 64.5016 93.6051 62.6562 93.5973H59.3068L56.4943 87.9723H92.1875C93.306 87.9711 94.3783 87.5262 95.1692 86.7353C95.9601 85.9444 96.405 84.8721 96.4062 83.7536V28.6003C96.4044 27.191 95.8438 25.8399 94.8472 24.8435C93.8506 23.847 92.4995 23.2865 91.0902 23.2848H91.091ZM43.8389 93.5973L46.6514 87.9723H53.3506L56.1631 93.5973H43.8389ZM93.5945 83.7536C93.5942 84.1264 93.4459 84.4839 93.1823 84.7475C92.9186 85.0112 92.5611 85.1595 92.1883 85.1598H7.8125C7.43965 85.1595 7.08218 85.0112 6.81853 84.7475C6.55489 84.4839 6.40661 84.1264 6.40625 83.7536V76.7223H93.5938L93.5945 83.7536ZM88.5742 59.5294C88.5516 59.2668 88.4556 59.0159 88.2973 58.8053C88.139 58.5946 87.9246 58.4327 87.6787 58.338L72.9543 52.6739C71.8672 52.2163 70.6748 53.3999 71.1361 54.4903L76.8002 69.2153C77.174 70.2866 78.7641 70.4296 79.3197 69.4344L81.7908 65.3149L86.1793 69.7069C86.4441 69.965 86.8 70.1085 87.1698 70.1061C87.5397 70.1038 87.8937 69.9558 88.1552 69.6943C88.4167 69.4328 88.5647 69.0788 88.5671 68.709C88.5695 68.3392 88.4261 67.9833 88.168 67.7184L83.7779 63.3284L87.8973 60.8567C88.1232 60.7212 88.3066 60.5249 88.4263 60.2902C88.546 60.0555 88.5972 59.7918 88.5742 59.5294ZM80.7863 61.8434C80.5886 61.9623 80.4231 62.1278 80.3041 62.3254L78.39 65.5163L74.8979 56.4362L83.9779 59.9284L80.7863 61.8434ZM66.9229 50.4506L64.6584 48.185C63.3627 46.8784 65.342 44.9026 66.6469 46.1965L68.9113 48.4622C70.207 49.7684 68.2279 51.7448 66.923 50.4506H66.9229ZM80.2383 48.185L77.9738 50.4506C76.668 51.7458 74.6908 49.7671 75.9852 48.4622L78.2498 46.1965C79.5561 44.9022 81.5328 46.8803 80.2385 48.1854L80.2383 48.185ZM68.9115 59.5116L66.6471 61.7772C65.3406 63.0725 63.3641 61.0936 64.6586 59.7887L66.923 57.5231C68.2299 56.2286 70.2057 58.2073 68.9115 59.5116ZM17.6562 69.6911H28.9063C30.0248 69.6898 31.0971 69.245 31.888 68.4541C32.6789 67.6632 33.1238 66.5908 33.125 65.4723V50.0036H34.5313C36.3633 49.9969 36.3758 47.1991 34.5313 47.1911C34.125 47.1911 10.5971 47.1911 12.0312 47.1911C10.1992 47.1975 10.1867 49.9958 12.0312 50.0036H13.4375V65.4723C13.4387 66.5908 13.8836 67.6632 14.6745 68.4541C15.4654 69.245 16.5377 69.6898 17.6562 69.6911ZM16.25 50.0036H21.875V52.8161C21.875 53.189 22.0232 53.5467 22.2869 53.8104C22.5506 54.0742 22.9083 54.2223 23.2812 54.2223C23.6542 54.2223 24.0119 54.0742 24.2756 53.8104C24.5393 53.5467 24.6875 53.189 24.6875 52.8161V50.0036H30.3125V65.4723C30.3121 65.8452 30.1639 66.2027 29.9002 66.4663C29.6366 66.7299 29.2791 66.8782 28.9063 66.8786H17.6562C17.2834 66.8782 16.9259 66.7299 16.6623 66.4663C16.3986 66.2027 16.2504 65.8452 16.25 65.4723V50.0036ZM51.4063 47.1911H48.5938C47.8481 47.192 47.1332 47.4886 46.606 48.0158C46.0787 48.5431 45.7821 49.2579 45.7812 50.0036V51.4098C44.7717 51.3588 43.5742 51.362 43.3809 52.6266L41.866 63.7639C41.3828 66.9313 44.2521 69.7698 47.4154 69.6911H52.5846C55.7502 69.7682 58.6182 66.9323 58.134 63.759L56.6193 52.6262C56.424 51.3674 55.2359 51.3549 54.2188 51.4094V50.0032C54.2178 49.2576 53.9211 48.5428 53.3939 48.0157C52.8666 47.4885 52.1518 47.192 51.4063 47.1911ZM48.5938 50.0036L51.4063 50.0016V51.4098H48.5938V50.0036ZM55.3463 64.1335C55.5611 65.6641 54.0963 66.9155 52.5846 66.8786H47.4154C45.9076 66.9176 44.4381 65.6637 44.6537 64.1381L46.0023 54.2223H53.9977L55.3463 64.1335ZM43.3766 81.9395C43.1151 81.673 42.9686 81.3145 42.9686 80.9411C42.9686 80.5677 43.1151 80.2092 43.3766 79.9426C43.6449 79.6845 44.0027 79.5404 44.375 79.5404C44.7473 79.5404 45.1051 79.6845 45.3734 79.9426C45.867 80.4633 45.9615 81.2006 45.3734 81.9395C45.1063 82.1998 44.748 82.3454 44.375 82.3454C44.002 82.3454 43.6437 82.1998 43.3766 81.9395ZM49.0016 81.9395C48.5236 81.437 48.4014 80.6895 49.0016 79.9426C49.2696 79.684 49.6275 79.5395 50 79.5395C50.3725 79.5395 50.7304 79.684 50.9984 79.9426C51.6117 80.7055 51.4725 81.4389 50.9984 81.9395C50.4883 82.4217 49.7529 82.5434 49.0016 81.9395ZM54.6266 79.9426C54.8935 79.6819 55.2519 79.5359 55.625 79.5359C55.9981 79.5359 56.3565 79.6819 56.6234 79.9426C57.125 80.4989 57.2139 81.1979 56.6234 81.9395C56.4923 82.0706 56.3367 82.1746 56.1654 82.2456C55.994 82.3166 55.8104 82.3531 55.625 82.3531C55.4396 82.3531 55.256 82.3166 55.0847 82.2456C54.9133 82.1746 54.7577 82.0706 54.6266 81.9395C54.4954 81.8084 54.3914 81.6527 54.3205 81.4814C54.2495 81.3101 54.213 81.1265 54.213 80.9411C54.213 80.7556 54.2495 80.572 54.3205 80.4007C54.3914 80.2294 54.4954 80.0738 54.6266 79.9426Z" fill="black"/>
</svg>
