<svg width="100" height="100" viewBox="0 0 100 100" fill="none" xmlns="http://www.w3.org/2000/svg">
<g clip-path="url(#clip0_112_1495)">
<path d="M76.6667 53.3333C70.3893 53.3326 64.3783 55.8698 60 60.3683V6.66667C60 2.98477 57.0152 0 53.3333 0H6.66667C2.98477 0 0 2.98477 0 6.66667V80C0 83.6819 2.98477 86.6667 6.66667 86.6667H53.3333C54.0525 86.6642 54.7667 86.546 55.4483 86.3167C60.2545 96.8788 72.0945 102.301 83.2312 99.0402C94.3678 95.7793 101.413 84.8273 99.7636 73.341C98.1139 61.8546 88.2709 53.3281 76.6667 53.3333ZM54.3167 70H3.33333V16.6667H56.6667V64.71C55.6649 66.368 54.8754 68.1452 54.3167 70ZM6.66667 3.33333H53.3333C55.1743 3.33333 56.6667 4.82572 56.6667 6.66667V13.3333H3.33333V6.66667C3.33333 4.82572 4.82572 3.33333 6.66667 3.33333ZM53.3333 83.3333H6.66667C4.82572 83.3333 3.33333 81.841 3.33333 80V73.3333H53.6C53.0855 76.6254 53.3168 79.9909 54.2767 83.1817C53.9712 83.2777 53.6535 83.3288 53.3333 83.3333ZM76.6667 96.6667C65.621 96.6667 56.6667 87.7124 56.6667 76.6667C56.6667 65.621 65.621 56.6667 76.6667 56.6667C87.7124 56.6667 96.6667 65.621 96.6667 76.6667C96.6547 87.7074 87.7074 96.6547 76.6667 96.6667Z" fill="black"/>
<path d="M30.0007 21.6665C18.0345 21.6665 8.33398 31.367 8.33398 43.3332C8.33398 55.2993 18.0345 64.9998 30.0007 64.9998C41.9668 64.9998 51.6673 55.2993 51.6673 43.3332C51.6535 31.3727 41.9611 21.6803 30.0007 21.6665ZM30.0007 61.6665C19.8754 61.6665 11.6673 53.4584 11.6673 43.3332C11.6673 33.208 19.8754 24.9998 30.0007 24.9998C40.1259 24.9998 48.334 33.208 48.334 43.3332C48.322 53.4534 40.1209 61.6546 30.0007 61.6665Z" fill="black"/>
<path d="M36.6667 9.99984H38.3333C39.2538 9.99984 40 9.25365 40 8.33317C40 7.4127 39.2538 6.6665 38.3333 6.6665H36.6667C35.7462 6.6665 35 7.4127 35 8.33317C35 9.25365 35.7462 9.99984 36.6667 9.99984Z" fill="black"/>
<path d="M21.6667 9.99984H30C30.9205 9.99984 31.6667 9.25365 31.6667 8.33317C31.6667 7.4127 30.9205 6.6665 30 6.6665H21.6667C20.7462 6.6665 20 7.4127 20 8.33317C20 9.25365 20.7462 9.99984 21.6667 9.99984Z" fill="black"/>
<path d="M33.3333 76.6665H26.6667C25.7462 76.6665 25 77.4127 25 78.3332C25 79.2536 25.7462 79.9998 26.6667 79.9998H33.3333C34.2538 79.9998 35 79.2536 35 78.3332C35 77.4127 34.2538 76.6665 33.3333 76.6665Z" fill="black"/>
<path d="M85.8337 65.2268C85.4518 65.0039 84.997 64.9419 84.5694 65.0544C84.1418 65.1669 83.7764 65.4448 83.5537 65.8268L72.9837 83.9601L69.512 80.4884C68.8581 79.8568 67.8185 79.8658 67.1757 80.5087C66.5328 81.1516 66.5237 82.1911 67.1554 82.8451L72.1554 87.8451C72.4678 88.1577 72.8917 88.3333 73.3337 88.3334C73.405 88.3332 73.4762 88.3287 73.547 88.3201C74.06 88.254 74.5131 87.9535 74.7737 87.5068L86.4404 67.5068C86.6627 67.1241 86.7237 66.6687 86.6099 66.2409C86.4961 65.8132 86.2168 65.4484 85.8337 65.2268Z" fill="black"/>
<path d="M38.8595 46.7532C37.9869 46.4631 37.0442 46.9344 36.7528 47.8066C36.7395 47.8449 35.4028 51.6666 29.9995 51.6666C24.6861 51.6666 23.2978 47.9499 23.2461 47.8066C23.058 47.2409 22.5823 46.8186 21.9984 46.6987C21.4144 46.5788 20.8108 46.7796 20.415 47.2253C20.0192 47.6711 19.8913 48.2942 20.0795 48.8599C20.1661 49.1116 22.2211 54.9999 29.9995 54.9999C37.7778 54.9999 39.8328 49.1116 39.9128 48.8599C40.203 47.9873 39.7316 47.0446 38.8595 46.7532Z" fill="black"/>
<path d="M23.3327 40.0002C24.2532 40.0002 24.9993 39.254 24.9993 38.3335V35.0002C24.9993 34.0797 24.2532 33.3335 23.3327 33.3335C22.4122 33.3335 21.666 34.0797 21.666 35.0002V38.3335C21.666 39.254 22.4122 40.0002 23.3327 40.0002Z" fill="black"/>
<path d="M36.6667 40.0002C37.5871 40.0002 38.3333 39.254 38.3333 38.3335V35.0002C38.3333 34.0797 37.5871 33.3335 36.6667 33.3335C35.7462 33.3335 35 34.0797 35 35.0002V38.3335C35 39.254 35.7462 40.0002 36.6667 40.0002Z" fill="black"/>
</g>
<defs>
<clipPath id="clip0_112_1495">
<rect width="100" height="100" fill="white"/>
</clipPath>
</defs>
</svg>
