<svg width="100" height="100" viewBox="0 0 100 100" fill="none" xmlns="http://www.w3.org/2000/svg">
<path d="M20.3095 3.12305C17.7397 3.12305 15.625 5.23771 15.625 7.80755V57.8076C15.625 59.893 18.753 59.893 18.753 57.8076V18.7542H81.2439V57.8076C81.1966 59.9382 84.4167 59.9382 84.3689 57.8076V7.80755C84.3689 5.23771 82.2573 3.12305 79.6875 3.12305H20.3095ZM20.3095 6.25116H79.6875C80.5802 6.25116 81.2439 6.91488 81.2439 7.80755V15.6261H18.753V7.80755C18.753 6.91488 19.4168 6.25116 20.3095 6.25116ZM23.4375 9.37314C22.5745 9.37314 21.875 10.0728 21.875 10.9357C21.875 11.7986 22.5745 12.498 23.4375 12.498C24.3004 12.498 25 11.7986 25 10.9357C25 10.0728 24.3004 9.37314 23.4375 9.37314ZM29.6875 9.37314C28.8246 9.37314 28.125 10.0728 28.125 10.9357C28.125 11.7986 28.8246 12.498 29.6875 12.498C30.5505 12.498 31.25 11.7986 31.25 10.9357C31.25 10.0728 30.5505 9.37314 29.6875 9.37314ZM35.9375 9.37314C35.0746 9.37314 34.375 10.0728 34.375 10.9357C34.375 11.7986 35.0746 12.498 35.9375 12.498C36.8005 12.498 37.5 11.7986 37.5 10.9357C37.5 10.0728 36.8005 9.37314 35.9375 9.37314ZM57.7332 9.37621C55.6235 9.51971 55.7675 12.5529 57.8064 12.5013H76.5625C78.6001 12.454 78.6001 9.42138 76.5625 9.37621H57.7332ZM7.81861 12.5013C5.24877 12.5013 3.125 14.6129 3.125 17.1827V73.4355C3.125 76.0054 5.24877 78.12 7.81861 78.12H92.1905C94.7604 78.12 96.875 76.0054 96.875 73.4355V17.1825C96.875 14.6127 94.7604 12.5011 92.1905 12.5011H89.0655C86.9355 12.4538 86.9355 15.6734 89.0655 15.6261H92.1905C93.0832 15.6261 93.7469 16.2898 93.7469 17.1825V62.5011H6.25V17.1825C6.25 16.2898 6.92598 15.6261 7.81861 15.6261H10.9314C13.0615 15.6734 13.0615 12.4538 10.9314 12.5011L7.81861 12.5013ZM54.7058 24.9737C54.0189 24.969 53.4096 25.4138 53.2043 26.0694L43.8263 54.1913C43.1651 56.1688 46.1314 57.1606 46.7926 55.183L56.1706 27.052C56.5243 26.0402 55.7776 24.9808 54.7058 24.9737ZM61.499 34.007L69.4336 40.6261L61.499 47.2363C59.8037 48.5636 61.8971 51.0681 63.504 49.6351L72.8699 41.8255C73.6178 41.2009 73.6178 40.0516 72.8699 39.4269L63.504 31.6053C63.224 31.3656 62.8685 31.2326 62.4206 31.2332C60.9437 31.3625 60.4082 33.1241 61.499 34.007ZM37.4603 31.236C37.1084 31.2479 36.7708 31.3778 36.5021 31.6051L27.1271 39.4268C26.3792 40.0515 26.3792 41.2007 27.1271 41.8253L36.5021 49.6349C38.1145 51.1366 40.2678 48.5486 38.4979 47.2361L30.5634 40.626L38.4979 34.0068C39.6524 33.0615 38.9518 31.1906 37.4603 31.236ZM6.25 65.6292H93.7469V73.4355C93.7469 74.3282 93.0832 74.9919 92.1905 74.9919H7.81861C6.92598 74.9919 6.25 74.3282 6.25 73.4355V65.6292ZM53.2104 68.7512L46.7987 68.7543C44.807 68.9923 44.9408 71.8137 46.872 71.8671H53.125C55.2708 72.0566 55.4495 68.7943 53.2104 68.7512ZM41.2353 81.1229C40.6082 81.1111 40.0338 81.4725 39.7766 82.0446C39.0242 83.6584 37.6762 85.5429 35.3485 87.495H32.8125C30.2427 87.495 28.1311 89.6219 28.1311 92.1918V95.3046C28.128 96.1675 28.8246 96.8696 29.6875 96.873H70.3094C71.1771 96.8762 71.8814 96.1723 71.878 95.3046V92.1918C71.878 89.6219 69.7543 87.495 67.1844 87.495H64.6515C62.3241 85.5431 60.9757 83.6583 60.2234 82.0446C59.9588 81.4576 59.3617 81.0931 58.7189 81.126C57.6026 81.185 56.9054 82.3595 57.3914 83.3661C58.0004 84.6725 58.9306 86.0739 60.1837 87.495H39.8163C41.0694 86.0739 41.9995 84.6725 42.6086 83.3661C43.1047 82.3414 42.3736 81.1472 41.2353 81.1229ZM32.8125 90.6231H67.1844C68.077 90.6231 68.753 91.2991 68.753 92.1918V93.7482H31.2561V92.1918C31.2561 91.2991 31.9198 90.6231 32.8125 90.6231Z" fill="black"/>
</svg>
