<svg width="100" height="100" viewBox="0 0 100 100" fill="none" xmlns="http://www.w3.org/2000/svg">
<path d="M29.6979 96.9696C36.1412 96.9696 41.3646 91.7462 41.3646 85.3029C41.3646 78.8596 36.1412 73.6362 29.6979 73.6362C23.2546 73.6362 18.0312 78.8596 18.0312 85.3029C18.0312 91.7462 23.2546 96.9696 29.6979 96.9696Z" stroke="black" stroke-width="2.64" stroke-miterlimit="10" stroke-linecap="round" stroke-linejoin="round"/>
<path d="M29.6988 85.3029C28.3352 85.3029 27.123 84.0908 27.123 82.7271C27.123 81.3635 28.3352 80.1514 29.6988 80.1514C30.6079 80.1514 31.517 80.6059 31.9715 81.3635" stroke="black" stroke-width="2.64" stroke-miterlimit="10" stroke-linecap="round" stroke-linejoin="round"/>
<path d="M29.6985 85.3032C31.0621 85.3032 32.2743 86.5153 32.2743 87.879C32.2743 89.2426 31.0621 90.4547 29.6985 90.4547C28.7894 90.4547 27.8803 90.0002 27.4258 89.2426" stroke="black" stroke-width="2.64" stroke-miterlimit="10" stroke-linecap="round" stroke-linejoin="round"/>
<path d="M29.6992 80.1516V78.9395" stroke="black" stroke-width="2.64" stroke-miterlimit="10" stroke-linecap="round" stroke-linejoin="round"/>
<path d="M29.6992 91.8182V90.4546" stroke="black" stroke-width="2.64" stroke-miterlimit="10" stroke-linecap="round" stroke-linejoin="round"/>
<path d="M25.6058 41.2121C22.121 41.2121 19.2422 38.3333 19.2422 34.8485C19.2422 31.3637 22.121 28.4849 25.6058 28.4849C28.0301 28.4849 29.9998 29.697 31.2119 31.6667" stroke="black" stroke-width="2.64" stroke-miterlimit="10" stroke-linecap="round" stroke-linejoin="round"/>
<path d="M25.7565 41.2119C29.2413 41.2119 32.1201 44.0907 32.1201 47.5755C32.1201 51.0604 29.2413 53.9392 25.7565 53.9392C23.3322 53.9392 21.3625 52.7271 20.1504 50.7574" stroke="black" stroke-width="2.64" stroke-miterlimit="10" stroke-linecap="round" stroke-linejoin="round"/>
<path d="M25.6055 28.3332V25.1514" stroke="black" stroke-width="2.64" stroke-miterlimit="10" stroke-linecap="round" stroke-linejoin="round"/>
<path d="M25.6055 57.2728V53.9395" stroke="black" stroke-width="2.64" stroke-miterlimit="10" stroke-linecap="round" stroke-linejoin="round"/>
<path d="M21.8189 76.6664H13.4856C10.0007 76.6664 7.27344 73.9391 7.27344 70.4543V11.9694C7.27344 8.4846 10.0007 5.75732 13.4856 5.75732H37.8795C41.3644 5.75732 44.0916 8.4846 44.0916 11.9694V65.4543" stroke="black" stroke-width="2.64" stroke-miterlimit="10" stroke-linecap="round" stroke-linejoin="round"/>
<path d="M33.6365 5.75732L32.2728 9.5452H19.091L17.8789 5.75732" stroke="black" stroke-width="2.64" stroke-miterlimit="10" stroke-linecap="round" stroke-linejoin="round"/>
<path d="M21.8184 68.7876H29.6971" stroke="black" stroke-width="2.64" stroke-miterlimit="10" stroke-linecap="round" stroke-linejoin="round"/>
<path d="M59.8488 46.0604C65.4553 46.0604 70.0003 41.5154 70.0003 35.9088C70.0003 30.3023 65.4553 25.7573 59.8488 25.7573C54.2423 25.7573 49.6973 30.3023 49.6973 35.9088C49.6973 41.5154 54.2423 46.0604 59.8488 46.0604Z" stroke="black" stroke-width="2.64" stroke-miterlimit="10" stroke-linecap="round" stroke-linejoin="round"/>
<path d="M59.8477 35.9084C60.7567 34.9993 62.1204 34.9993 63.0295 35.9084C63.9386 36.8175 63.9386 38.1811 63.0295 39.0902C62.4234 39.6963 61.6658 39.8478 60.9083 39.6963" stroke="black" stroke-width="2.64" stroke-miterlimit="10" stroke-linecap="round" stroke-linejoin="round"/>
<path d="M59.848 35.9084C58.9389 36.8175 57.5753 36.8175 56.6662 35.9084C55.7571 34.9994 55.7571 33.6357 56.6662 32.7266C57.2723 32.1206 58.0298 31.9691 58.7874 32.1206" stroke="black" stroke-width="2.64" stroke-miterlimit="10" stroke-linecap="round" stroke-linejoin="round"/>
<path d="M63.0293 39.0903L63.7869 39.8479" stroke="black" stroke-width="2.64" stroke-miterlimit="10" stroke-linecap="round" stroke-linejoin="round"/>
<path d="M55.7578 31.9692L56.6669 32.7268" stroke="black" stroke-width="2.64" stroke-miterlimit="10" stroke-linecap="round" stroke-linejoin="round"/>
<path d="M46.6676 65.303L44.0918 63.0303" stroke="black" stroke-width="2.64" stroke-miterlimit="10" stroke-linecap="round" stroke-linejoin="round"/>
<path d="M44.0918 25.9091L66.213 3.93936C67.4251 2.72724 69.3948 2.72724 70.6069 3.93936L91.8191 25.1515C93.0312 26.3636 93.0312 28.3333 91.8191 29.5454L56.213 65.1515" stroke="black" stroke-width="2.64" stroke-miterlimit="10" stroke-linecap="round" stroke-linejoin="round"/>
<path d="M44.2441 60.3029C44.6987 59.6968 45.1532 59.0907 45.6078 58.6362C49.5472 54.6968 55.9108 54.6968 59.8502 58.6362C60.3047 59.0907 60.7593 59.5453 61.0623 60.1513" stroke="black" stroke-width="2.64" stroke-miterlimit="10" stroke-linecap="round" stroke-linejoin="round"/>
<path d="M85.9098 19.394C84.8492 19.8486 83.6371 20.7577 82.728 21.6668C78.7886 25.6062 78.7886 31.9698 82.728 35.9092C83.1825 36.3637 83.6371 36.8183 84.2431 37.1213" stroke="black" stroke-width="2.64" stroke-miterlimit="10" stroke-linecap="round" stroke-linejoin="round"/>
<path d="M58.6367 11.515C58.9397 11.9695 59.5458 12.5756 60.0004 13.0301C63.9397 16.9695 70.3034 16.9695 74.2428 13.0301C75.1519 12.121 75.9094 10.9089 76.364 9.69678" stroke="black" stroke-width="2.64" stroke-miterlimit="10" stroke-linecap="round" stroke-linejoin="round"/>
<path d="M36.9707 76.0607V68.4849C36.9707 66.8182 38.3343 65.4546 40.001 65.4546H89.5465C91.2131 65.4546 92.5768 66.8182 92.5768 68.4849V93.1819C92.5768 94.8485 91.2131 96.2122 89.5465 96.2122H40.001C38.6374 96.2122 37.5768 95.4546 37.1222 94.2425" stroke="black" stroke-width="2.64" stroke-miterlimit="10" stroke-linecap="round" stroke-linejoin="round"/>
<path d="M36.9707 72.8789H92.5768" stroke="black" stroke-width="2.64" stroke-miterlimit="10" stroke-linecap="round" stroke-linejoin="round"/>
<path d="M40.002 79.6968H92.5777" stroke="black" stroke-width="2.64" stroke-miterlimit="10" stroke-linecap="round" stroke-linejoin="round"/>
<path d="M42.8789 90.606H47.4244" stroke="black" stroke-width="2.64" stroke-miterlimit="10" stroke-linecap="round" stroke-linejoin="round"/>
<path d="M52.5762 90.606H57.2731" stroke="black" stroke-width="2.64" stroke-miterlimit="10" stroke-linecap="round" stroke-linejoin="round"/>
<path d="M84.5459 91.5152C86.2195 91.5152 87.5762 90.1585 87.5762 88.4849C87.5762 86.8113 86.2195 85.4546 84.5459 85.4546C82.8723 85.4546 81.5156 86.8113 81.5156 88.4849C81.5156 90.1585 82.8723 91.5152 84.5459 91.5152Z" stroke="black" stroke-width="2.64" stroke-miterlimit="10" stroke-linecap="round" stroke-linejoin="round"/>
<path d="M72.4248 91.5152C74.0984 91.5152 75.4551 90.1585 75.4551 88.4849C75.4551 86.8113 74.0984 85.4546 72.4248 85.4546C70.7512 85.4546 69.3945 86.8113 69.3945 88.4849C69.3945 90.1585 70.7512 91.5152 72.4248 91.5152Z" stroke="black" stroke-width="2.64" stroke-miterlimit="10" stroke-linecap="round" stroke-linejoin="round"/>
</svg>
