<svg width="100" height="100" viewBox="0 0 100 100" fill="none" xmlns="http://www.w3.org/2000/svg">
<g clip-path="url(#clip0_112_1537)">
<path d="M36.9698 29.3942V17.273C36.9698 16.3639 36.3637 15.7578 35.4546 15.7578C34.5455 15.7578 33.9395 16.3639 33.9395 17.273V29.3942C31.2122 30.0002 29.2425 32.576 29.2425 35.4548C29.2425 37.273 30.0001 38.7881 31.0607 40.0002L25.6061 49.2427C25.1516 50.0002 25.4546 50.9093 26.2122 51.3639C26.9698 51.8184 27.8789 51.5154 28.3334 50.7578L33.788 41.5154C34.394 41.6669 35.0001 41.8184 35.6061 41.8184C39.091 41.8184 41.8183 38.9396 41.8183 35.6063C41.6668 32.4245 39.5455 30.0002 36.9698 29.3942ZM35.4546 38.6366C33.6364 38.6366 32.2728 37.1214 32.2728 35.4548C32.2728 33.6366 33.788 32.273 35.4546 32.273C37.2728 32.273 38.6364 33.7881 38.6364 35.4548C38.6364 37.1214 37.1213 38.6366 35.4546 38.6366Z" fill="black"/>
<path d="M35.4546 11.8184C36.3637 11.8184 36.9698 11.2124 36.9698 10.3033V7.27296C36.9698 6.36387 36.3637 5.75781 35.4546 5.75781C34.5455 5.75781 33.9395 6.36387 33.9395 7.27296V10.3033C33.9395 11.0608 34.5455 11.8184 35.4546 11.8184Z" fill="black"/>
<path d="M35.4546 58.9395C34.5455 58.9395 33.9395 59.5455 33.9395 60.4546V63.4849C33.9395 64.394 34.5455 65.0001 35.4546 65.0001C36.3637 65.0001 36.9698 64.394 36.9698 63.4849V60.4546C36.9698 59.697 36.2122 58.9395 35.4546 58.9395Z" fill="black"/>
<path d="M11.8184 35.4546C11.8184 34.5455 11.2124 33.9395 10.3033 33.9395H7.27296C6.36387 33.9395 5.75781 34.5455 5.75781 35.4546C5.75781 36.3637 6.36387 36.9698 7.27296 36.9698H10.3033C11.0608 36.9698 11.8184 36.2122 11.8184 35.4546Z" fill="black"/>
<path d="M58.9395 35.4546C58.9395 36.3637 59.5455 36.9698 60.4546 36.9698H63.4849C64.394 36.9698 65.0001 36.3637 65.0001 35.4546C65.0001 34.5455 64.394 33.9395 63.4849 33.9395H60.4546C59.697 33.9395 58.9395 34.5455 58.9395 35.4546Z" fill="black"/>
<path d="M10.1508 22.5756L12.8781 24.0908C13.6357 24.5453 14.5448 24.2423 14.9993 23.4847C15.4539 22.7271 15.1508 21.818 14.3932 21.3635L11.666 19.8483C10.9084 19.3938 9.99931 19.6968 9.54476 20.4544C9.24173 21.3635 9.39325 22.2726 10.1508 22.5756Z" fill="black"/>
<path d="M23.637 55.7575C22.8795 55.303 21.9704 55.606 21.5158 56.3636L20.0007 59.0908C19.5461 59.8484 19.8492 60.7575 20.6067 61.2121C21.3643 61.6666 22.2734 61.3636 22.7279 60.606L24.2431 57.8787C24.5461 57.1212 24.3946 56.2121 23.637 55.7575Z" fill="black"/>
<path d="M47.1215 15.0001C47.8791 15.4547 48.7882 15.1517 49.2427 14.3941L50.7579 11.6668C51.2124 10.9092 50.9094 10.0001 50.1518 9.5456C49.3943 9.09105 48.4852 9.39408 48.0306 10.1517L46.5155 12.8789C46.2124 13.6365 46.364 14.5456 47.1215 15.0001Z" fill="black"/>
<path d="M23.3335 15.1515C24.091 14.6969 24.2425 13.7878 23.788 13.0303L22.2728 10.303C21.8183 9.54543 20.9092 9.39391 20.1516 9.84846C19.3941 10.303 19.2425 11.2121 19.6971 11.9697L21.2122 14.6969C21.6668 15.303 22.5759 15.606 23.3335 15.1515Z" fill="black"/>
<path d="M13.0313 46.9695L10.304 48.4847C9.5464 48.9392 9.39489 49.8483 9.84943 50.6059C10.304 51.3635 11.2131 51.515 11.9706 51.0605L14.6979 49.5453C15.4555 49.0908 15.607 48.1817 15.1525 47.4241C14.6979 46.6665 13.7888 46.515 13.0313 46.9695Z" fill="black"/>
<path d="M57.7265 23.9394L60.4538 22.4242C61.2114 21.9697 61.3629 21.0606 60.9083 20.303C60.4538 19.5454 59.5447 19.3939 58.7871 19.8485L56.0598 21.3636C55.3023 21.8182 55.1507 22.7272 55.6053 23.4848C56.0598 24.0909 56.9689 24.2424 57.7265 23.9394Z" fill="black"/>
<path d="M61.9702 3.0303H88.1824V39.3939L81.9702 33.1818C81.3642 32.5758 80.4551 32.5758 79.849 33.1818C79.243 33.7879 79.243 34.697 79.849 35.303L88.6369 44.0909C88.9399 44.3939 89.243 44.5455 89.6975 44.5455C90.152 44.5455 90.4551 44.3939 90.7581 44.0909L99.546 35.303C100.152 34.697 100.152 33.7879 99.546 33.1818C98.9399 32.5758 98.0308 32.5758 97.4248 33.1818L91.2127 39.3939V1.51515C91.2127 0.606061 90.6066 0 89.6975 0H61.9702C61.0611 0 60.4551 0.606061 60.4551 1.51515C60.4551 2.42424 61.2127 3.0303 61.9702 3.0303Z" fill="black"/>
<path d="M98.9394 55.1515C98.6364 55 70.7576 39.697 70.4545 39.697C70.6061 38.1818 70.7576 36.8182 70.7576 35.4545C70.7576 15.9091 54.8485 0 35.303 0C15.9091 0 0 15.9091 0 35.4545C0 55 15.9091 70.9091 35.303 70.9091C36.8182 70.9091 38.6364 70.7576 40.4545 70.4545V80.7576C40.4545 81.2121 40.7576 81.8182 41.2121 81.9697L69.2424 99.697C69.5455 99.8485 69.697 100 70 100C70.303 100 70.6061 99.8485 70.7576 99.8485L99.0909 84.8485C99.5455 84.5455 99.8485 84.0909 99.8485 83.4848V56.5151C99.8485 55.9091 99.5455 55.4545 98.9394 55.1515ZM95.1515 56.5151L88.4848 60.1515L63.3333 46.3636L70 42.8788L95.1515 56.5151ZM82.4242 64.2424L56.3636 50L60.1515 47.8788L86.9697 62.5758V70.1515L83.3333 72.4242V65.6061C83.3333 65 82.8788 64.3939 82.4242 64.2424ZM70.1515 70.1515L45.1515 56.0606L53.1818 51.8182L78.6364 65.6061L70.1515 70.1515ZM35.303 67.7273C17.5758 67.7273 3.0303 53.1818 3.0303 35.4545C3.0303 17.5758 17.5758 3.0303 35.303 3.0303C53.1818 3.0303 67.7273 17.5758 67.7273 35.4545C67.7273 36.9697 67.5758 39.0909 67.2727 40.9091C67.2727 40.9091 41.5152 54.697 41.2121 54.697C40.7576 55 40.4545 55.6061 40.4545 56.0606V67.4242C38.6364 67.5758 36.8182 67.7273 35.303 67.7273ZM43.4848 79.8485V58.6364L68.4848 72.7273V95.7576L43.4848 79.8485ZM71.5152 95.9091V72.8788L80.1515 68.1818V75C80.1515 75.6061 80.4545 76.0606 80.9091 76.3636C81.3636 76.6667 81.9697 76.6667 82.4242 76.3636L89.2424 72.5758C89.697 72.2727 90 71.8182 90 71.2121V62.7273L96.6667 59.0909V82.5758L71.5152 95.9091Z" fill="black"/>
<path d="M65.1507 77.4241L48.6356 67.8786C47.878 67.4241 46.9689 67.7271 46.5143 68.4847C46.0598 69.2422 46.3628 70.1513 47.1204 70.6059L63.6356 79.9998C64.3931 80.4544 65.3022 80.1513 65.7568 79.3938C66.0598 78.7877 65.7568 77.7271 65.1507 77.4241Z" fill="black"/>
<path d="M65.0003 83.6361L48.4852 73.9392C47.7276 73.4846 46.8185 73.7876 46.364 74.5452C45.9094 75.3028 46.2124 76.2119 46.97 76.6664L63.4852 86.2119C64.2427 86.6664 65.1518 86.3634 65.6064 85.6058C65.9094 84.8482 65.6064 83.9392 65.0003 83.6361Z" fill="black"/>
</g>
<defs>
<clipPath id="clip0_112_1537">
<rect width="100" height="100" fill="white"/>
</clipPath>
</defs>
</svg>
