<svg width="100" height="100" viewBox="0 0 100 100" fill="none" xmlns="http://www.w3.org/2000/svg">
<path d="M72.5254 2.83398C64.1484 2.83398 56.791 7.27539 52.6797 13.9258V7.42578C52.6797 3.86914 49.7871 0.976562 46.2305 0.976562H10.6055C7.05078 0.976562 4.15625 3.86914 4.15625 7.42578V81.1797C4.15625 84.7363 7.04883 87.6289 10.6055 87.6289H42.8164V87.5801C43.2148 87.9238 43.5449 88.3477 43.8027 88.9844L41.498 89.6016C40.873 89.7695 40.502 90.4121 40.6699 91.0371L42.5762 98.1543C42.6562 98.4551 42.8535 98.7109 43.123 98.8652C43.3027 98.9688 43.5059 99.0215 43.709 99.0215C43.8105 99.0215 43.9121 99.0078 44.0117 98.9824L69.4141 92.1758C70.0391 92.0078 70.4102 91.3652 70.2422 90.7402L68.3359 83.625C68.168 83 67.5254 82.6289 66.9004 82.7969L64.5957 83.4141C64.4688 82.4277 64.7656 81.8848 65.207 81.082C66.0137 79.6152 67.0176 77.791 65.8027 73.2559L62.5332 61.0547C61.9844 59.0039 59.8691 57.7832 57.8184 58.332C57.2441 58.4863 56.7324 58.7676 56.3086 59.1367C55.5488 57.9082 54.1406 57.1914 52.6797 57.3262V48.4316L62.4961 47.2031C65.6406 48.7051 69.0137 49.4668 72.5254 49.4668C85.3828 49.4668 95.8418 39.0059 95.8418 26.1504C95.8418 13.2949 85.3828 2.83398 72.5254 2.83398ZM39.2188 3.32031L38.2598 6.27148H18.5762L17.6113 3.32031H39.2188ZM24.4551 85.2871L24.8652 82.3359H31.9727L32.3828 85.2871H24.4551ZM67.6758 90.2168L44.5371 96.416L43.2363 91.5645L66.375 85.3652L67.6758 90.2168ZM54.4883 60.7715L55.8398 65.8164C56.0078 66.4414 56.6504 66.8125 57.2754 66.6445C57.9004 66.4766 58.2715 65.834 58.1035 65.209L57.3555 62.416C57.3535 62.4102 57.3535 62.4043 57.3516 62.3984C57.166 61.6133 57.6484 60.8066 58.4258 60.5977C59.2266 60.3828 60.0547 60.8613 60.2695 61.6621L63.5391 73.8633C64.5098 77.4883 63.8203 78.7422 63.1543 79.9531C62.6016 80.957 61.9863 82.084 62.3223 84.0234L46.0762 88.377C45.2988 86.2461 43.9355 85.4258 42.8164 84.7578C41.6758 84.0781 40.8516 83.5859 40.3789 81.8184L37.1523 69.7793C36.9375 68.9766 37.416 68.1504 38.2168 67.9355C38.916 67.748 39.6504 68.0859 39.9648 68.7402C39.9961 68.8047 40.0215 68.8711 40.043 68.9395C40.0449 68.9473 40.0488 68.9551 40.0508 68.9648L41.8281 75.5957C41.9961 76.2207 42.6387 76.5918 43.2637 76.4238C43.8887 76.2559 44.2598 75.6133 44.0918 74.9883L38.4922 54.0898C38.2773 53.2871 38.7539 52.4609 39.5566 52.2461C40.3594 52.0312 41.1855 52.5098 41.4004 53.3106L45.4941 68.5879C45.6621 69.2129 46.3047 69.584 46.9297 69.416C47.5547 69.248 47.9258 68.6055 47.7578 67.9805L46.1074 61.8203C46.1055 61.8164 46.1055 61.8106 46.1035 61.8066C45.9121 61.0195 46.3926 60.207 47.1777 59.9961C47.9805 59.7812 48.8066 60.2598 49.0215 61.0605L50.666 67.2012C50.834 67.8262 51.4766 68.1973 52.1016 68.0293C52.7266 67.8613 53.0977 67.2188 52.9297 66.5938L51.5723 61.5234C51.5703 61.5176 51.5703 61.5117 51.5684 61.5059C51.3828 60.7207 51.8652 59.9121 52.6445 59.7051C53.4453 59.4922 54.2734 59.9688 54.4883 60.7715ZM50.3359 58.4277C50.2773 58.4863 50.2188 58.5469 50.1641 58.6113C49.2266 57.7578 47.8867 57.3828 46.5723 57.7344C46.0586 57.873 45.5957 58.1113 45.1992 58.4238L43.666 52.7051C43.4004 51.7148 42.7637 50.8848 41.8711 50.3711C40.9785 49.8555 39.9414 49.7188 38.9512 49.9844C36.9004 50.5332 35.6797 52.6484 36.2285 54.6992L39.1445 65.5801C38.6445 65.5098 38.123 65.5352 37.6113 65.6738C35.5605 66.2227 34.3398 68.3379 34.8887 70.3887L38.1152 82.4277C38.4688 83.7441 39.0195 84.6348 39.6328 85.2891H34.748L34.1523 81.0039C34.0723 80.4238 33.5762 79.9941 32.9922 79.9941H23.8438C23.2598 79.9941 22.7637 80.4258 22.6836 81.0039L22.0879 85.2891H10.6055C8.3418 85.2891 6.5 83.4473 6.5 81.1836V7.42578C6.5 5.16211 8.3418 3.32031 10.6055 3.32031H15.1465L16.6113 7.80859C16.7695 8.29102 17.2188 8.61719 17.7246 8.61719H39.1113C39.6191 8.61719 40.0684 8.29102 40.2266 7.80664L41.6836 3.32031H46.2305C48.4941 3.32031 50.3359 5.16211 50.3359 7.42578V18.9883C49.6055 21.2461 49.209 23.6523 49.209 26.1504C49.209 29.2676 49.8125 32.2871 51.0039 35.1348L45.3301 47.5527C45.1543 47.9395 45.1992 48.3906 45.4512 48.7324C45.7031 49.0742 46.1191 49.2559 46.541 49.2012L50.3359 48.7266V58.4277ZM72.5254 47.123C69.2578 47.123 66.125 46.3906 63.2168 44.9473C63.0547 44.8672 62.875 44.8242 62.6953 44.8242C62.6465 44.8242 62.5977 44.8281 62.5488 44.834L48.334 46.6133L53.3516 35.6328C53.4922 35.3262 53.4922 34.9766 53.3555 34.6699C52.1582 31.9824 51.5508 29.1152 51.5508 26.1484C51.5508 14.584 60.959 5.17578 72.5234 5.17578C84.0879 5.17578 93.4961 14.584 93.4961 26.1484C93.4961 37.7129 84.0918 47.123 72.5254 47.123ZM84.8945 19.2227H64.6836L64.0879 17.1855C63.9414 16.6855 63.4844 16.3438 62.9629 16.3438H59.0234C58.377 16.3438 57.8516 16.8691 57.8516 17.5156C57.8516 18.1621 58.377 18.6875 59.0234 18.6875H62.084L62.6797 20.7246L65.834 31.5059C64.7539 32.0098 64 33.1055 64 34.375C64 36.1211 65.4219 37.543 67.168 37.543H68.043C67.6855 38.043 67.4727 38.6543 67.4727 39.3145C67.4727 40.998 68.8438 42.3691 70.5273 42.3691C72.2109 42.3691 73.582 40.998 73.582 39.3145C73.582 38.6543 73.3691 38.043 73.0117 37.543H75.6816C75.3242 38.043 75.1113 38.6543 75.1113 39.3145C75.1113 40.998 76.4824 42.3691 78.166 42.3691C79.8496 42.3691 81.2207 40.998 81.2207 39.3145C81.2207 38.6543 81.0078 38.043 80.6504 37.543H81.3828C82.0293 37.543 82.5547 37.0176 82.5547 36.3711C82.5547 35.7246 82.0293 35.1992 81.3828 35.1992H67.166C66.7188 35.1992 66.3418 34.8223 66.3418 34.375C66.3418 33.9277 66.7188 33.5508 67.166 33.5508C67.1953 33.5508 67.2246 33.5488 67.2539 33.5469C67.2715 33.5469 67.2891 33.5508 67.3086 33.5508H81.3828C81.9023 33.5508 82.3613 33.207 82.5078 32.709L86.0156 20.7246C86.1191 20.3711 86.0508 19.9883 85.8281 19.6934C85.6113 19.3965 85.2637 19.2227 84.8945 19.2227ZM70.5293 40.0234C70.1367 40.0234 69.8184 39.7051 69.8184 39.3125C69.8184 38.9199 70.1367 38.6016 70.5293 38.6016C70.9219 38.6016 71.2402 38.9199 71.2402 39.3125C71.2422 39.7051 70.9219 40.0234 70.5293 40.0234ZM78.1699 40.0234C77.7773 40.0234 77.459 39.7051 77.459 39.3125C77.459 38.9199 77.7773 38.6016 78.1699 38.6016C78.5625 38.6016 78.8809 38.9199 78.8809 39.3125C78.8809 39.7051 78.5625 40.0234 78.1699 40.0234ZM80.5098 31.207H68.1914L65.3711 21.5664H83.332L80.5098 31.207ZM41.6426 24.9883C41.6074 24.3691 41.0938 23.8848 40.4727 23.8848H36.2539L35.9062 17.877C35.8711 17.2578 35.3574 16.7734 34.7363 16.7734H30.7754V16.707C30.7754 13.8262 28.4316 11.4805 25.5488 11.4805C22.666 11.4805 20.3223 13.8242 20.3223 16.707V16.7734H16.3633C15.7422 16.7734 15.2285 17.2578 15.1934 17.877L14.2188 34.6934C14.1543 35.8008 14.5508 36.8691 15.3359 37.7012C16.166 38.5801 17.334 39.084 18.5391 39.084H20.1133L19.9551 41.8066C19.8906 42.9141 20.2871 43.9824 21.0723 44.8145C21.9023 45.6934 23.0703 46.1973 24.2754 46.1973H38.2969C39.502 46.1973 40.6699 45.6934 41.5 44.8145C42.2852 43.9824 42.6816 42.9141 42.6191 41.8066L41.6426 24.9883ZM22.668 16.7051C22.668 15.1152 23.9609 13.8223 25.5508 13.8223C27.1406 13.8223 28.4316 15.1152 28.4316 16.7051V16.7715H22.668V16.7051ZM20.9297 24.9883L20.248 36.7383H18.5391C17.9766 36.7383 17.4297 36.502 17.041 36.0898C16.7031 35.7324 16.5312 35.2832 16.5586 34.8262L17.4688 19.1152H20.3242V19.5996C20.3242 20.2461 20.8496 20.7715 21.4961 20.7715C22.1426 20.7715 22.668 20.2461 22.668 19.5996V19.1152H28.4316V19.5996C28.4316 20.2461 28.957 20.7715 29.6035 20.7715C30.25 20.7715 30.7754 20.2461 30.7754 19.5996V19.1152H33.6309L33.9082 23.8848H22.1016C21.4785 23.8848 20.9668 24.3672 20.9297 24.9883ZM39.7949 43.2031C39.4062 43.6152 38.8594 43.8516 38.2969 43.8516H24.2754C23.7109 43.8516 23.166 43.6152 22.7773 43.2031C22.4395 42.8457 22.2676 42.3965 22.2949 41.9395L23.2051 26.2285H39.3672L40.2773 41.9395C40.3047 42.3945 40.1328 42.8438 39.7949 43.2031ZM26.0605 31.6211V28.7266C26.0605 28.0801 26.5859 27.5547 27.2324 27.5547C27.8789 27.5547 28.4043 28.0801 28.4043 28.7266V31.6211C28.4043 33.2109 29.6973 34.5039 31.2871 34.5039C32.877 34.5039 34.1699 33.2109 34.1699 31.6211V28.7266C34.1699 28.0801 34.6953 27.5547 35.3418 27.5547C35.9883 27.5547 36.5137 28.0801 36.5137 28.7266V31.6211C36.5137 34.502 34.1699 36.8477 31.2871 36.8477C28.4043 36.8477 26.0605 34.5039 26.0605 31.6211ZM32.4668 40.6836C32.4668 41.3301 31.9414 41.8555 31.2949 41.8555C30.6484 41.8555 30.1152 41.3301 30.1152 40.6836C30.1152 40.0371 30.6309 39.5117 31.2793 39.5117H31.2949C31.9414 39.5117 32.4668 40.0371 32.4668 40.6836ZM28.2832 40.6836C28.2832 41.3301 27.7578 41.8555 27.1113 41.8555C26.4648 41.8555 25.9316 41.3301 25.9316 40.6836C25.9316 40.0371 26.4473 39.5117 27.0957 39.5117H27.1113C27.7598 39.5117 28.2832 40.0371 28.2832 40.6836ZM36.6504 40.6836C36.6504 41.3301 36.125 41.8555 35.4785 41.8555C34.832 41.8555 34.2988 41.3301 34.2988 40.6836C34.2988 40.0371 34.8145 39.5117 35.4629 39.5117H35.4785C36.125 39.5117 36.6504 40.0371 36.6504 40.6836ZM17.5957 54.7559C17.5957 55.4023 17.0703 55.9277 16.4238 55.9277H11.127C10.4805 55.9277 9.95508 55.4023 9.95508 54.7559C9.95508 54.1094 10.4805 53.584 11.127 53.584H16.4258C17.0723 53.584 17.5957 54.1094 17.5957 54.7559ZM17.5957 61.1367C17.5957 61.7832 17.0703 62.3086 16.4238 62.3086H11.127C10.4805 62.3086 9.95508 61.7832 9.95508 61.1367C9.95508 60.4902 10.4805 59.9648 11.127 59.9648H16.4258C17.0723 59.9648 17.5957 60.4902 17.5957 61.1367ZM17.5957 67.5195C17.5957 68.166 17.0703 68.6914 16.4238 68.6914H11.127C10.4805 68.6914 9.95508 68.166 9.95508 67.5195C9.95508 66.873 10.4805 66.3477 11.127 66.3477H16.4258C17.0723 66.3477 17.5957 66.8711 17.5957 67.5195ZM17.5957 73.9004C17.5957 74.5469 17.0703 75.0723 16.4238 75.0723H11.127C10.4805 75.0723 9.95508 74.5469 9.95508 73.9004C9.95508 73.2539 10.4805 72.7285 11.127 72.7285H16.4258C17.0723 72.7285 17.5957 73.252 17.5957 73.9004ZM19.8652 54.7559C19.8652 54.1094 20.3906 53.584 21.0371 53.584H33.5488C34.1953 53.584 34.7207 54.1094 34.7207 54.7559C34.7207 55.4023 34.1953 55.9277 33.5488 55.9277H21.0371C20.3887 55.9277 19.8652 55.4043 19.8652 54.7559ZM36.3945 61.1367C36.3945 61.7832 35.8691 62.3086 35.2227 62.3086H21.0371C20.3906 62.3086 19.8652 61.7832 19.8652 61.1367C19.8652 60.4902 20.3906 59.9648 21.0371 59.9648H35.2227C35.8691 59.9648 36.3945 60.4902 36.3945 61.1367ZM19.8652 67.5195C19.8652 66.873 20.3906 66.3477 21.0371 66.3477H32.3711C33.0176 66.3477 33.543 66.873 33.543 67.5195C33.543 68.166 33.0176 68.6914 32.3711 68.6914H21.0371C20.3887 68.6914 19.8652 68.166 19.8652 67.5195ZM34.3613 73.9004C34.3613 74.5469 33.8359 75.0723 33.1895 75.0723H21.0371C20.3906 75.0723 19.8652 74.5469 19.8652 73.9004C19.8652 73.2539 20.3906 72.7285 21.0371 72.7285H33.1895C33.8359 72.7285 34.3613 73.252 34.3613 73.9004Z" fill="black"/>
</svg>
