<svg width="100" height="100" viewBox="0 0 100 100" fill="none" xmlns="http://www.w3.org/2000/svg">
<g clip-path="url(#clip0_112_1271)">
<path d="M50.166 81.3333H12.4993C7.83268 81.3333 4.16602 77.6667 4.16602 73V18.8333C4.16602 14.1667 7.83268 10.5 12.4993 10.5H87.4994C92.166 10.5 95.8327 14.1667 95.8327 18.8333V55H91.666V18.8333C91.666 16.5 89.8327 14.6667 87.4994 14.6667H12.4993C10.166 14.6667 8.33268 16.5 8.33268 18.8333V73C8.33268 75.3333 10.166 77.1667 12.4993 77.1667H50.166V81.3333Z" fill="black"/>
<path d="M6.33398 29.167H93.834V33.3337H6.33398V29.167Z" fill="black"/>
<path d="M16.666 64.5H35.4993V68.6667H16.666V64.5Z" fill="black"/>
<path d="M73.0007 95.8337C58.0007 95.8337 45.834 83.667 45.834 68.667C45.834 53.667 58.0007 41.667 73.0007 41.667C88.0007 41.667 100.001 53.8337 100.001 68.8337C100.001 83.8337 87.834 95.8337 73.0007 95.8337ZM73.0007 45.8337C60.334 45.8337 50.1673 56.167 50.1673 68.667C50.1673 81.167 60.334 91.667 73.0007 91.667C85.6673 91.667 95.834 81.3337 95.834 68.8337C95.834 56.3337 85.5007 45.8337 73.0007 45.8337Z" fill="black"/>
<path d="M16.666 52.167H24.9993V56.3337H16.666V52.167Z" fill="black"/>
<path d="M33.334 52.167H41.6673V56.3337H33.334V52.167Z" fill="black"/>
<path d="M70.8327 82.1663L55.666 66.9997L58.666 63.9997L70.8327 76.1663L87.166 59.833L90.166 62.833L70.8327 82.1663Z" fill="black"/>
</g>
<defs>
<clipPath id="clip0_112_1271">
<rect width="100" height="100" fill="white"/>
</clipPath>
</defs>
</svg>
