<svg width="100" height="100" viewBox="0 0 100 100" fill="none" xmlns="http://www.w3.org/2000/svg">
<g clip-path="url(#clip0_112_1463)">
<path d="M29.2474 44.4609C29.2474 42.9705 28.0347 41.7578 26.5441 41.7578H22.7658C21.2752 41.7578 20.0625 42.9705 20.0625 44.4609V47.5525C20.0625 49.0431 21.2752 50.2558 22.7658 50.2558H26.5441C28.0347 50.2558 29.2474 49.0431 29.2474 47.5525V44.4609ZM26.3169 47.3253H22.993V44.6882H26.3169V47.3253Z" fill="black"/>
<path d="M16.5988 44.4609C16.5988 42.9705 15.3861 41.7578 13.8954 41.7578H10.1174C8.62672 41.7578 7.41406 42.9705 7.41406 44.4609V47.5525C7.41406 49.0431 8.62672 50.2558 10.1174 50.2558H13.8954C15.3861 50.2558 16.5988 49.0431 16.5988 47.5525V44.4609ZM13.6682 47.3253H10.3446V44.6882H13.6682V47.3253Z" fill="black"/>
<path d="M29.2474 55.5886C29.2474 54.0979 28.0347 52.8853 26.5441 52.8853H22.7658C21.2752 52.8853 20.0625 54.0979 20.0625 55.5886V58.6801C20.0625 60.1706 21.2752 61.3832 22.7658 61.3832H26.5441C28.0347 61.3832 29.2474 60.1706 29.2474 58.6801V55.5886ZM26.3169 58.4529H22.993V55.8158H26.3169V58.4529Z" fill="black"/>
<path d="M16.5988 55.5886C16.5988 54.0979 15.3861 52.8853 13.8954 52.8853H10.1174C8.62672 52.8853 7.41406 54.0979 7.41406 55.5886V58.6801C7.41406 60.1706 8.62672 61.3832 10.1174 61.3832H13.8954C15.3861 61.3832 16.5988 60.1706 16.5988 58.6801V55.5886ZM13.6682 58.4529H10.3446V55.8158H13.6682V58.4529Z" fill="black"/>
<path d="M26.5441 64.0132H22.7658C21.2752 64.0132 20.0625 65.2258 20.0625 66.7165V69.808C20.0625 71.2987 21.2752 72.5114 22.7658 72.5114H26.5441C28.0347 72.5114 29.2474 71.2987 29.2474 69.808V66.7165C29.2472 65.2258 28.0345 64.0132 26.5441 64.0132ZM26.3167 69.5806H22.9928V66.9435H26.3167V69.5806Z" fill="black"/>
<path d="M13.8954 64.0132H10.1174C8.62672 64.0132 7.41406 65.2258 7.41406 66.7165V69.808C7.41406 71.2987 8.62672 72.5114 10.1174 72.5114H13.8954C15.3861 72.5114 16.5988 71.2987 16.5988 69.808V66.7165C16.5988 65.2258 15.3861 64.0132 13.8954 64.0132ZM13.6682 69.5806H10.3446V66.9435H13.6682V69.5806Z" fill="black"/>
<path d="M35.4143 72.5109H39.1923C40.683 72.5109 41.8956 71.2982 41.8956 69.8075V66.716C41.8956 65.2254 40.683 64.0127 39.1923 64.0127H35.4143C33.9236 64.0127 32.7109 65.2254 32.7109 66.716V69.8075C32.7109 71.2982 33.9236 72.5109 35.4143 72.5109ZM35.6415 66.9434H38.9651V69.5805H35.6415V66.9434Z" fill="black"/>
<path d="M98.2537 87.24L95.9038 83.1312L97.4166 68.137C98.183 60.5403 95.1548 53.0674 89.316 48.1472L76.9911 37.7618L64.1338 15.2806C63.3188 13.8554 61.9973 12.8328 60.4132 12.4015C58.829 11.9703 57.1715 12.1813 55.7464 12.9966L47.7576 17.5655V8.22036C47.7576 3.6876 44.07 0 39.5374 0H9.7731C5.24033 0 1.55273 3.6876 1.55273 8.22036V70.5244C1.55273 74.7737 4.79352 78.2802 8.9332 78.7022V95.5997C8.9332 96.281 9.27686 96.9054 9.85261 97.2697C10.4286 97.6343 11.1401 97.6776 11.7557 97.3862L14.9646 95.867L19.1075 97.6622C19.3575 97.7704 19.625 97.8246 19.8926 97.8246C20.1705 97.8246 20.4483 97.7663 20.7066 97.6497L24.6659 95.8615L28.7878 97.6577C29.3114 97.8859 29.9079 97.8769 30.424 97.6323L34.1398 95.872L37.5915 97.4211C38.2058 97.6966 38.9097 97.6429 39.4749 97.2769C40.0399 96.911 40.3773 96.2909 40.3773 95.6177V78.7022C44.517 78.2802 47.7578 74.7737 47.7578 70.5244V65.6672L49.5644 68.8259C49.7599 69.1678 49.9854 69.486 50.2358 69.7789L49.6079 72.9201C49.3397 74.2618 49.6103 75.6275 50.3693 76.7659C51.1283 77.9043 52.2853 78.679 53.6269 78.947C53.9649 79.0146 54.3044 79.048 54.6414 79.048C55.6423 79.048 56.6211 78.7536 57.4727 78.1858C57.4876 78.1759 57.5016 78.1653 57.5163 78.1554C58.2425 79.268 59.3965 80.1005 60.7993 80.3808C61.1324 80.4474 61.4667 80.4797 61.7978 80.4797C62.6475 80.4797 63.4758 80.2652 64.212 79.8717C66.0613 85.3323 69.3426 90.2778 73.7587 94.0959L74.7887 94.9866L77.2337 99.2617C77.5043 99.7347 77.9986 99.9998 78.507 99.9998C78.7537 99.9998 79.0036 99.9375 79.2331 99.8062C79.9355 99.4045 80.1793 98.5093 79.7776 97.8068L77.2085 93.3145C77.1263 93.1707 77.0204 93.0419 76.895 92.9335L75.6757 91.8793C69.5581 86.5899 65.8332 78.9232 65.4561 70.8446L64.946 59.9202C64.9137 59.2278 64.7149 58.5436 64.3704 57.9413L59.3629 49.1856C58.9944 48.5415 58.8989 47.7924 59.0941 47.0764C59.2893 46.3604 59.7513 45.7631 60.3954 45.3949C61.0398 45.0264 61.7884 44.9305 62.5048 45.126C63.2209 45.321 63.8181 45.7831 64.1864 46.4272L66.9845 51.3196C67.3863 52.0222 68.2815 52.2658 68.9837 51.8643C69.6862 51.4624 69.9301 50.5673 69.5284 49.8649L66.7305 44.9725C65.9734 43.6488 64.7463 42.6991 63.275 42.2984C61.8037 41.8979 60.2643 42.0941 58.9407 42.8511C56.2083 44.4139 55.2566 47.9085 56.8194 50.6409L61.8269 59.3964C61.9418 59.5974 62.0082 59.8258 62.019 60.0569L62.2624 65.2692L56.497 68.5664C55.7513 68.9929 54.8843 69.1037 54.0553 68.8777C53.2264 68.652 52.535 68.1169 52.1085 67.3712L40.5828 47.2188C40.181 46.5163 39.2856 46.2723 38.5834 46.6743C37.8811 47.076 37.6373 47.9712 38.0389 48.6737L40.7182 53.3585C40.2839 53.0606 39.759 52.8855 39.1936 52.8855H35.4155C33.9248 52.8855 32.7122 54.0982 32.7122 55.5888V58.6804C32.7122 60.1708 33.9248 61.3835 35.4155 61.3835H39.1936C40.6842 61.3835 41.8969 60.1708 41.8969 58.6804V55.5888C41.8969 55.5261 41.8916 55.4646 41.8875 55.4028L44.8274 60.5434V70.5246C44.8274 73.4415 42.4545 75.8145 39.5378 75.8145H9.7731C6.85623 75.8145 4.48327 73.4415 4.48327 70.5246V8.22036C4.48327 5.3035 6.85623 2.93054 9.7731 2.93054H39.5374C42.4541 2.93054 44.827 5.3035 44.827 8.22036V19.2415L41.8965 20.9176V13.4338C41.8965 12.133 40.8382 11.0747 39.5374 11.0747H9.7731C8.47213 11.0747 7.41381 12.133 7.41381 13.434V19.6874C7.41381 20.4966 8.06987 21.1526 8.87909 21.1526C9.6883 21.1526 10.3444 20.4966 10.3444 19.6874V14.0052H38.966V22.5935L32.3637 26.3696C29.6894 27.8989 28.5999 31.147 29.6873 33.9355H10.3444V25.9318C10.3444 25.1225 9.6883 24.4665 8.87909 24.4665C8.06987 24.4665 7.41381 25.1225 7.41381 25.9318V34.5067C7.41381 35.8077 8.47213 36.866 9.7731 36.866H31.2856L34.9386 43.2532C35.3405 43.9556 36.2355 44.1994 36.938 43.7977C37.6406 43.396 37.8842 42.5008 37.4825 41.7983L32.6235 33.3025C31.743 31.763 32.2793 29.794 33.8188 28.9137L57.2015 15.5407C57.9473 15.1142 58.8143 15.0034 59.6433 15.2294C60.4722 15.4551 61.1636 15.9902 61.5901 16.7359L81.0747 50.805C81.5012 51.5507 81.6118 52.418 81.3861 53.2469C81.1603 54.0759 80.6254 54.7671 79.8796 55.1936L74.3759 58.3412L72.6281 55.2852C72.2262 54.5827 71.3309 54.3391 70.6287 54.7407C69.9263 55.1424 69.6825 56.0376 70.0842 56.7401L74.0371 63.6517C74.3077 64.1247 74.802 64.3898 75.3103 64.3898C75.5571 64.3898 75.807 64.3275 76.0365 64.1962C76.7389 63.7945 76.9827 62.8994 76.581 62.1968L75.8308 60.8851L81.3345 57.7375C82.7598 56.9224 83.7823 55.6009 84.2137 54.0169C84.6451 52.4328 84.4337 50.7753 83.6186 49.3501L81.2218 45.1594L87.4275 50.3887C92.5259 54.6849 95.1702 61.21 94.5011 67.8432L92.9412 83.3045C92.9106 83.6083 92.9756 83.9141 93.1272 84.1792L95.7102 88.6955C95.9808 89.1685 96.4751 89.4336 96.9834 89.4336C97.2302 89.4336 97.4801 89.3713 97.7096 89.24C98.412 88.8378 98.6556 87.9426 98.2537 87.24ZM62.5287 70.9816C62.6223 72.9841 62.9046 74.9632 63.3604 76.895C62.8501 77.412 62.1049 77.6533 61.3737 77.5073C60.1885 77.2705 59.417 76.1136 59.6538 74.9285L60.7352 69.5185L62.4154 68.5574L62.5287 70.9816ZM54.9099 71.9241C55.7539 71.9241 56.5885 71.7457 57.3705 71.4005L56.7801 74.3539C56.6655 74.9279 56.3339 75.4229 55.8469 75.7478C55.3596 76.0729 54.7752 76.1884 54.2013 76.0735C53.6273 75.9588 53.1322 75.6273 52.8073 75.1402C52.4824 74.6532 52.3667 74.0688 52.4816 73.4946L52.8657 71.5732C53.0034 71.6212 53.1427 71.6664 53.285 71.7052C53.822 71.8516 54.3677 71.9241 54.9099 71.9241ZM38.966 58.4529H35.6423V55.8159H38.966V58.4529ZM37.4466 94.144L34.9376 93.0181C34.4094 92.7813 33.8065 92.7874 33.2825 93.0353L29.5613 94.7981L25.4486 93.0058C24.9379 92.7831 24.3535 92.787 23.8452 93.0165L19.8848 94.8053L15.7334 93.0064C15.4824 92.8975 15.2149 92.8432 14.9473 92.8432C14.6581 92.8432 14.369 92.9067 14.1013 93.0333L11.8635 94.0928V78.7448H37.4466V94.144Z" fill="black"/>
<path d="M57.7909 26.4963C58.0035 25.7154 57.543 24.9101 56.7621 24.6975C53.8769 23.9119 50.8582 24.2966 48.2623 25.7812C45.6667 27.2659 43.8044 29.6724 43.0186 32.5578C42.8061 33.3387 43.2666 34.144 44.0474 34.3566C44.1764 34.3918 44.3059 34.4086 44.4333 34.4086C45.0778 34.4086 45.6686 33.9799 45.8462 33.328C46.4263 31.1979 47.8011 29.4212 49.7173 28.3253C51.6336 27.2293 53.8618 26.9453 55.9921 27.5253C56.7726 27.7377 57.5783 27.277 57.7909 26.4963Z" fill="black"/>
<path d="M54.4527 33.1818C55.233 33.394 56.0387 32.9339 56.2517 32.1532C56.4644 31.3725 56.0038 30.567 55.2231 30.3542C53.8477 29.9797 52.4094 30.1622 51.1737 30.8686C49.9381 31.5751 49.0515 32.7219 48.6768 34.0979C48.4643 34.8788 48.9248 35.6841 49.7056 35.8966C49.8346 35.9318 49.9641 35.9486 50.0915 35.9486C50.736 35.9486 51.3268 35.52 51.5044 34.868C51.6734 34.2473 52.0727 33.7306 52.6286 33.4125C53.1844 33.0948 53.8322 33.0128 54.4527 33.1818Z" fill="black"/>
<path d="M53.8794 38.5538C54.15 39.0268 54.6443 39.292 55.1526 39.292C55.3994 39.292 55.6492 39.2296 55.8788 39.0983C56.5812 38.6967 56.825 37.8015 56.4233 37.0989L55.9366 36.2479C55.5348 35.5454 54.6396 35.3015 53.9372 35.7034C53.2349 36.1051 52.9911 37.0003 53.3927 37.7028L53.8794 38.5538Z" fill="black"/>
</g>
<defs>
<clipPath id="clip0_112_1463">
<rect width="100" height="100" fill="white"/>
</clipPath>
</defs>
</svg>
