<svg width="100" height="100" viewBox="0 0 100 100" fill="none" xmlns="http://www.w3.org/2000/svg">
<g clip-path="url(#clip0_112_1436)">
<path d="M72.9173 54.1667C57.984 54.1667 45.834 42.0167 45.834 27.0833C45.834 12.15 57.984 0 72.9173 0C87.8507 0 100.001 12.15 100.001 27.0833C100.001 42.0167 87.8507 54.1667 72.9173 54.1667ZM72.9173 4.16667C60.284 4.16667 50.0007 14.4458 50.0007 27.0833C50.0007 39.7208 60.284 50 72.9173 50C85.5507 50 95.834 39.7208 95.834 27.0833C95.834 14.4458 85.5507 4.16667 72.9173 4.16667Z" fill="black"/>
<path d="M68.7497 37.5002C68.1956 37.5002 67.6664 37.2794 67.2747 36.8919L58.9414 28.5585C58.1289 27.746 58.1289 26.4252 58.9414 25.6127C59.7539 24.8002 61.0747 24.8002 61.8872 25.6127L68.6456 32.371L81.7622 17.3794C82.5247 16.5085 83.8372 16.4252 84.6997 17.1835C85.5664 17.9419 85.6539 19.2585 84.8956 20.1252L70.3122 36.7919C69.9372 37.2252 69.3956 37.4794 68.8206 37.5002C68.7956 37.5002 68.7747 37.5002 68.7497 37.5002Z" fill="black"/>
<path d="M81.2491 70.8333H27.0824C26.0907 70.8333 25.2366 70.1333 25.0407 69.1583L16.7074 27.4917C16.5824 26.8792 16.7449 26.2458 17.1366 25.7625C17.5282 25.2792 18.1282 25 18.7491 25H35.4157C36.5657 25 37.4991 25.9333 37.4991 27.0833C37.4991 28.2333 36.5657 29.1667 35.4157 29.1667H21.2907L28.7907 66.6667H79.5407L80.6949 60.8958C80.9241 59.7625 82.0657 59.0417 83.1449 59.2625C84.2741 59.4875 85.0074 60.5833 84.7824 61.7125L83.2949 69.1583C83.0949 70.1333 82.2407 70.8333 81.2491 70.8333Z" fill="black"/>
<path d="M27.0792 70.8335C26.1083 70.8335 25.2417 70.1502 25.0417 69.1585L14.7125 17.5169C14.1333 14.6044 11.55 12.4919 8.58333 12.4919L2.0875 12.5002C0.9375 12.5002 0 11.5669 0 10.4169C0 9.26686 0.933333 8.33353 2.07917 8.33353L8.57083 8.3252H8.58333C13.5333 8.3252 17.8292 11.846 18.8 16.7002L29.125 68.3419C29.3542 69.471 28.6208 70.5669 27.4875 70.7919C27.3542 70.821 27.2167 70.8335 27.0792 70.8335Z" fill="black"/>
<path d="M89.5833 79.1665H18.75C15.3042 79.1665 12.5 76.3623 12.5 72.9165C12.5 69.4707 15.3042 66.6665 18.75 66.6665H27.0833C28.2333 66.6665 29.1667 67.5998 29.1667 68.7498C29.1667 69.8998 28.2333 70.8332 27.0833 70.8332H18.75C17.6042 70.8332 16.6667 71.7665 16.6667 72.9165C16.6667 74.0665 17.6042 74.9998 18.75 74.9998H89.5833C90.7333 74.9998 91.6667 75.9332 91.6667 77.0832C91.6667 78.2332 90.7333 79.1665 89.5833 79.1665Z" fill="black"/>
<path d="M33.3333 100C28.7375 100 25 96.2627 25 91.6668C25 87.071 28.7375 83.3335 33.3333 83.3335C37.9292 83.3335 41.6667 87.071 41.6667 91.6668C41.6667 96.2627 37.9292 100 33.3333 100ZM33.3333 87.5002C31.0333 87.5002 29.1667 89.371 29.1667 91.6668C29.1667 93.9627 31.0333 95.8335 33.3333 95.8335C35.6333 95.8335 37.5 93.9627 37.5 91.6668C37.5 89.371 35.6333 87.5002 33.3333 87.5002Z" fill="black"/>
<path d="M70.8333 100C66.2375 100 62.5 96.2627 62.5 91.6668C62.5 87.071 66.2375 83.3335 70.8333 83.3335C75.4292 83.3335 79.1667 87.071 79.1667 91.6668C79.1667 96.2627 75.4292 100 70.8333 100ZM70.8333 87.5002C68.5333 87.5002 66.6667 89.371 66.6667 91.6668C66.6667 93.9627 68.5333 95.8335 70.8333 95.8335C73.1333 95.8335 75 93.9627 75 91.6668C75 89.371 73.1333 87.5002 70.8333 87.5002Z" fill="black"/>
</g>
<defs>
<clipPath id="clip0_112_1436">
<rect width="100" height="100" fill="white"/>
</clipPath>
</defs>
</svg>
