<svg width="100" height="100" viewBox="0 0 100 100" fill="none" xmlns="http://www.w3.org/2000/svg">
<g clip-path="url(#clip0_112_1509)">
<path d="M81.666 63.3333C83.4341 63.3333 85.1298 62.631 86.3801 61.3807C87.6303 60.1305 88.3327 58.4348 88.3327 56.6667V6.66667C88.3327 4.89856 87.6303 3.20286 86.3801 1.95262C85.1298 0.702379 83.4341 0 81.666 0L18.3327 0C16.5646 0 14.8689 0.702379 13.6186 1.95262C12.3684 3.20286 11.666 4.89856 11.666 6.66667V56.6667C11.666 58.4348 12.3684 60.1305 13.6186 61.3807C14.8689 62.631 16.5646 63.3333 18.3327 63.3333H41.666V70H33.3327C31.5646 70 29.8689 70.7024 28.6186 71.9526C27.3684 73.2029 26.666 74.8986 26.666 76.6667V93.3333C26.666 95.1014 27.3684 96.7971 28.6186 98.0474C29.8689 99.2976 31.5646 100 33.3327 100H66.666C68.4341 100 70.1298 99.2976 71.3801 98.0474C72.6303 96.7971 73.3327 95.1014 73.3327 93.3333V76.6667C73.3327 74.8986 72.6303 73.2029 71.3801 71.9526C70.1298 70.7024 68.4341 70 66.666 70H58.3327V63.3333H81.666ZM18.3327 3.33333H81.666C82.5501 3.33333 83.3979 3.68452 84.023 4.30964C84.6482 4.93476 84.9994 5.78261 84.9994 6.66667V13.3333H14.9993V6.66667C14.9993 5.78261 15.3505 4.93476 15.9757 4.30964C16.6008 3.68452 17.4486 3.33333 18.3327 3.33333ZM18.3327 60C17.4486 60 16.6008 59.6488 15.9757 59.0237C15.3505 58.3986 14.9993 57.5507 14.9993 56.6667V16.6667H84.9994V56.6667C84.9994 57.5507 84.6482 58.3986 84.023 59.0237C83.3979 59.6488 82.5501 60 81.666 60H58.3327V45H60.2994C60.8616 44.9993 61.4125 44.8412 61.8896 44.5437C62.3668 44.2463 62.7512 43.8212 62.9994 43.3167C63.27 42.7845 63.3861 42.1872 63.3345 41.5925C63.283 40.9977 63.0658 40.4293 62.7077 39.9517L52.3977 26.2167C52.1116 25.8545 51.7471 25.5619 51.3318 25.3607C50.9164 25.1596 50.4609 25.055 49.9994 25.055C49.5378 25.055 49.0823 25.1596 48.6669 25.3607C48.2516 25.5619 47.8871 25.8545 47.601 26.2167L37.2927 39.9583C36.9369 40.4359 36.7217 41.0035 36.6713 41.5969C36.621 42.1903 36.7375 42.7859 37.0077 43.3167C37.2552 43.82 37.6383 44.2442 38.1139 44.5415C38.5894 44.8389 39.1385 44.9977 39.6994 45H41.666V60H18.3327ZM69.9994 76.6667V93.3333C69.9994 94.2174 69.6482 95.0652 69.023 95.6904C68.3979 96.3155 67.5501 96.6667 66.666 96.6667H33.3327C32.4486 96.6667 31.6008 96.3155 30.9757 95.6904C30.3505 95.0652 29.9993 94.2174 29.9993 93.3333V76.6667C29.9993 75.7826 30.3505 74.9348 30.9757 74.3096C31.6008 73.6845 32.4486 73.3333 33.3327 73.3333H66.666C67.5501 73.3333 68.3979 73.6845 69.023 74.3096C69.6482 74.9348 69.9994 75.7826 69.9994 76.6667ZM44.9994 70V43.3333C44.9994 42.8913 44.8238 42.4674 44.5112 42.1548C44.1986 41.8423 43.7747 41.6667 43.3327 41.6667H40.1777L49.9994 28.5717L59.8993 41.6667H56.666C56.224 41.6667 55.8001 41.8423 55.4875 42.1548C55.1749 42.4674 54.9994 42.8913 54.9994 43.3333V70H44.9994Z" fill="black"/>
<path d="M43.0537 80.7415C42.9323 80.5593 42.7761 80.4029 42.5942 80.2812C42.4123 80.1594 42.2082 80.0747 41.9935 80.0318C41.7788 79.9889 41.5578 79.9888 41.3431 80.0313C41.1284 80.0739 40.9241 80.1583 40.742 80.2798L35.742 83.6131C35.5138 83.7653 35.3266 83.9715 35.1972 84.2134C35.0677 84.4553 35 84.7254 35 84.9998C35 85.2742 35.0677 85.5443 35.1972 85.7862C35.3266 86.0281 35.5138 86.2343 35.742 86.3865L40.742 89.7198C41.1098 89.9651 41.56 90.0543 41.9935 89.9677C42.427 89.8812 42.8084 89.6259 43.0537 89.2581C43.299 88.8904 43.3882 88.4402 43.3016 88.0067C43.2151 87.5732 42.9598 87.1918 42.592 86.9465L39.667 84.9998L42.587 83.0531C42.7696 82.9321 42.9264 82.7762 43.0487 82.5945C43.1709 82.4128 43.2562 82.2087 43.2995 81.994C43.3428 81.7793 43.3434 81.5582 43.3013 81.3433C43.2591 81.1284 43.175 80.9239 43.0537 80.7415Z" fill="black"/>
<path d="M56.9462 89.2586C57.0677 89.4407 57.2238 89.5971 57.4057 89.7189C57.5876 89.8406 57.7918 89.9254 58.0064 89.9682C58.2211 90.0111 58.4421 90.0113 58.6568 89.9687C58.8716 89.9262 59.0758 89.8417 59.2579 89.7202L64.2579 86.3869C64.4862 86.2347 64.6733 86.0285 64.8028 85.7866C64.9322 85.5447 64.9999 85.2746 64.9999 85.0002C64.9999 84.7259 64.9322 84.4558 64.8028 84.2139C64.6733 83.972 64.4862 83.7658 64.2579 83.6135L59.2579 80.2802C58.8901 80.0349 58.44 79.9457 58.0064 80.0323C57.5729 80.1189 57.1916 80.3741 56.9462 80.7419C56.7009 81.1096 56.6117 81.5598 56.6983 81.9933C56.7849 82.4269 57.0401 82.8082 57.4079 83.0536L60.3329 85.0002L57.4129 86.9469C57.2304 87.0679 57.0735 87.2238 56.9513 87.4055C56.829 87.5873 56.7438 87.7913 56.7004 88.006C56.6571 88.2207 56.6565 88.4418 56.6987 88.6567C56.7408 88.8717 56.825 89.0762 56.9462 89.2586Z" fill="black"/>
<path d="M52.1933 78.4201C51.7742 78.2808 51.317 78.3134 50.922 78.5109C50.527 78.7084 50.2266 79.0546 50.0866 79.4734L46.7533 89.4734C46.6841 89.6814 46.6566 89.9009 46.6722 90.1195C46.6879 90.338 46.7465 90.5514 46.8446 90.7473C46.9427 90.9432 47.0785 91.1179 47.2441 91.2614C47.4097 91.4048 47.602 91.5143 47.8099 91.5834C48.0179 91.6526 48.2374 91.6801 48.4559 91.6645C48.6745 91.6488 48.8878 91.5902 49.0838 91.4921C49.2797 91.394 49.4544 91.2582 49.5979 91.0926C49.7413 90.927 49.8508 90.7347 49.9199 90.5268L53.2533 80.5268C53.3221 80.3189 53.3493 80.0994 53.3333 79.881C53.3173 79.6625 53.2584 79.4494 53.1599 79.2537C53.0615 79.0581 52.9254 78.8838 52.7596 78.7407C52.5937 78.5977 52.4013 78.4887 52.1933 78.4201Z" fill="black"/>
<path d="M20.0007 9.99984H21.6673C22.1093 9.99984 22.5333 9.82424 22.8458 9.51168C23.1584 9.19912 23.334 8.7752 23.334 8.33317C23.334 7.89114 23.1584 7.46722 22.8458 7.15466C22.5333 6.8421 22.1093 6.6665 21.6673 6.6665H20.0007C19.5586 6.6665 19.1347 6.8421 18.8221 7.15466C18.5096 7.46722 18.334 7.89114 18.334 8.33317C18.334 8.7752 18.5096 9.19912 18.8221 9.51168C19.1347 9.82424 19.5586 9.99984 20.0007 9.99984Z" fill="black"/>
<path d="M28.3327 9.99984H29.9993C30.4414 9.99984 30.8653 9.82424 31.1779 9.51168C31.4904 9.19912 31.666 8.7752 31.666 8.33317C31.666 7.89114 31.4904 7.46722 31.1779 7.15466C30.8653 6.8421 30.4414 6.6665 29.9993 6.6665H28.3327C27.8907 6.6665 27.4667 6.8421 27.1542 7.15466C26.8416 7.46722 26.666 7.89114 26.666 8.33317C26.666 8.7752 26.8416 9.19912 27.1542 9.51168C27.4667 9.82424 27.8907 9.99984 28.3327 9.99984Z" fill="black"/>
<path d="M36.6667 9.99984H38.3333C38.7754 9.99984 39.1993 9.82424 39.5118 9.51168C39.8244 9.19912 40 8.7752 40 8.33317C40 7.89114 39.8244 7.46722 39.5118 7.15466C39.1993 6.8421 38.7754 6.6665 38.3333 6.6665H36.6667C36.2246 6.6665 35.8007 6.8421 35.4882 7.15466C35.1756 7.46722 35 7.89114 35 8.33317C35 8.7752 35.1756 9.19912 35.4882 9.51168C35.8007 9.82424 36.2246 9.99984 36.6667 9.99984Z" fill="black"/>
<path d="M73.3327 9.99984H79.9993C80.4414 9.99984 80.8653 9.82424 81.1779 9.51168C81.4904 9.19912 81.666 8.7752 81.666 8.33317C81.666 7.89114 81.4904 7.46722 81.1779 7.15466C80.8653 6.8421 80.4414 6.6665 79.9993 6.6665H73.3327C72.8907 6.6665 72.4667 6.8421 72.1542 7.15466C71.8416 7.46722 71.666 7.89114 71.666 8.33317C71.666 8.7752 71.8416 9.19912 72.1542 9.51168C72.4667 9.82424 72.8907 9.99984 73.3327 9.99984Z" fill="black"/>
</g>
<defs>
<clipPath id="clip0_112_1509">
<rect width="100" height="100" fill="white"/>
</clipPath>
</defs>
</svg>
