<svg width="100" height="100" viewBox="0 0 100 100" fill="none" xmlns="http://www.w3.org/2000/svg">
<g clip-path="url(#clip0_110_1223)">
<path d="M25.6846 69.9236C27.7904 69.2882 29.716 70.8107 29.7789 70.8615L30.8949 71.7996L32.7799 69.5568L31.6584 68.6144C31.5316 68.5076 28.5068 66.014 24.8396 67.1185C23.0191 67.6671 21.7318 69.0976 21.4801 70.8521C21.2447 72.4916 21.9551 74.0685 23.3338 74.9671C23.3984 75.0095 23.4664 75.0464 23.5369 75.0779C23.6174 75.1138 25.5297 75.9648 27.684 76.7597C29.1154 77.2877 29.8469 78.0927 29.6904 78.9685C29.5313 79.8609 28.4738 80.7839 26.9799 80.7839C25.5166 80.7839 24.1053 80.191 23.2053 79.1976L22.2215 78.1123L20.0508 80.0796L21.0344 81.1652C22.4807 82.7609 24.7033 83.7136 26.9799 83.7136C29.7389 83.7136 32.1439 81.8951 32.5746 79.4836C32.902 77.65 32.0555 75.2494 28.6979 74.0111C26.94 73.3627 25.3068 72.6554 24.8537 72.4568C24.4881 72.1783 24.3119 71.741 24.3797 71.2681C24.4229 70.9689 24.6359 70.2394 25.6846 69.9236Z" fill="black"/>
<path d="M48.0838 83.7139V69.6338H45.1541V71.3086C44.1572 70.6643 42.9711 70.2883 41.6982 70.2883C38.1771 70.2883 35.3125 73.1529 35.3125 76.6738C35.3125 80.1949 38.1771 83.0596 41.6982 83.0596C42.9711 83.0596 44.1572 82.6838 45.1541 82.0393V83.7139H48.0838ZM41.698 80.1301C39.7924 80.1301 38.242 78.5797 38.242 76.674C38.242 74.7684 39.7924 73.2182 41.698 73.2182C43.6037 73.2182 45.1539 74.7686 45.1539 76.674C45.1539 78.5795 43.6037 80.1301 41.698 80.1301Z" fill="black"/>
<path d="M63.785 83.7139V69.6338H60.8553V71.3086C59.8582 70.6641 58.6721 70.2883 57.3992 70.2883C53.8783 70.2883 51.0137 73.1529 51.0137 76.6738C51.0137 80.1949 53.8783 83.0596 57.3992 83.0596C58.6723 83.0596 59.8584 82.6838 60.8553 82.0393V83.7139H63.785ZM57.3992 80.1301C55.4936 80.1301 53.9434 78.5797 53.9434 76.674C53.9434 74.7684 55.4938 73.2182 57.3992 73.2182C59.3047 73.2182 60.8553 74.7686 60.8553 76.674C60.8553 78.5795 59.3049 80.1301 57.3992 80.1301Z" fill="black"/>
<path d="M73.6832 80.7839C72.2197 80.7839 70.8084 80.191 69.9084 79.1976L68.9246 78.1122L66.7539 80.0796L67.7375 81.1652C69.1838 82.7609 71.4066 83.7136 73.6832 83.7136C76.4422 83.7136 78.8473 81.8951 79.2779 79.4835C79.6053 77.6499 78.7588 75.2494 75.4012 74.0111C73.6434 73.3626 72.0102 72.6554 71.557 72.4568C71.1914 72.1783 71.015 71.741 71.0828 71.2681C71.1258 70.9691 71.3389 70.2394 72.3877 69.9236C74.4916 69.2884 76.4158 70.8083 76.4816 70.8615L77.5977 71.7996L79.4828 69.557L78.3615 68.6144C78.2346 68.5078 75.21 66.014 71.5428 67.1185C69.7223 67.6671 68.4348 69.0976 68.183 70.8521C67.9477 72.4915 68.6582 74.0685 70.0369 74.9673C70.1016 75.0095 70.1695 75.0464 70.24 75.0779C70.3203 75.1138 72.2326 75.9648 74.3871 76.7597C75.8185 77.2876 76.55 78.0927 76.3936 78.9685C76.2344 79.8611 75.177 80.7839 73.6832 80.7839Z" fill="black"/>
<path d="M67.2363 87.4326H70.166V90.3623H67.2363V87.4326Z" fill="black"/>
<path d="M100 54.0488C100 49.5863 98.0658 45.3551 94.6932 42.4402C91.7344 39.8828 87.9426 38.5635 84.0711 38.7053C83.8758 36.4865 82.9537 34.3672 81.4291 32.7107C79.5174 30.6336 76.8002 29.4424 73.9744 29.4424C72.467 29.4424 70.9885 29.7793 69.6445 30.4141C69.0152 25.1344 66.6367 20.252 62.8029 16.4604C58.3545 12.0607 52.4584 9.6377 46.201 9.6377C40.6646 9.6377 35.1861 11.8145 30.7752 15.7666L32.7303 17.9486C36.6033 14.4785 41.3873 12.5674 46.2012 12.5674C51.6822 12.5674 56.8465 14.6896 60.743 18.5434C64.6363 22.3938 66.8164 27.5279 66.8816 33L66.9187 36.1281L69.2977 34.0963C70.5994 32.9846 72.2604 32.3721 73.9746 32.3721C76.0133 32.3721 77.8951 33.1971 79.2738 34.6949C80.6568 36.1975 81.3254 38.1477 81.1561 40.1859L81.0035 42.0236L82.8281 41.7566C86.4125 41.2322 90.0385 42.2893 92.7777 44.657C95.5057 47.0148 97.0703 50.4381 97.0703 54.0488C97.0703 57.3031 95.8035 60.3221 93.5031 62.55C91.5201 64.4703 88.933 65.658 86.1137 65.967C85.402 62.6686 82.4635 60.1887 78.9551 60.1887H21.0449C17.6496 60.1887 14.7873 62.5111 13.9613 65.6506C11.0633 64.6846 8.46074 62.8941 6.51836 60.4982C4.2041 57.6438 2.92969 54.0434 2.92969 50.3605C2.92969 42.0201 8.43164 37.0898 13.5805 35.2566C16.6738 34.1555 19.9465 33.9752 23.0445 34.7352C26.3572 35.5478 29.2889 37.4252 31.5227 40.1648L33.7932 38.3135C31.5475 35.559 28.6908 33.573 25.5379 32.4418C25.7404 27.9961 27.5801 23.5869 30.7813 19.9229L28.5752 17.9953C25.0902 21.984 23.024 26.7764 22.651 31.6607C19.3949 31.0549 15.9424 31.3057 12.5979 32.4963C8.99199 33.7799 5.90957 36.0268 3.68359 38.9937C1.27383 42.2064 0 46.1369 0 50.3605C0 54.7129 1.50684 58.9686 4.24277 62.3436C6.68828 65.3602 10.0215 67.5648 13.7207 68.6434V83.0381C13.7207 87.0768 17.0063 90.3623 21.0449 90.3623H64.3066V87.4326H21.0449C18.6219 87.4326 16.6504 85.4611 16.6504 83.0381V67.5131C16.6504 65.09 18.6219 63.1188 21.0449 63.1188H78.9551C81.3781 63.1188 83.3496 65.09 83.3496 67.5131V83.0381C83.3496 85.4611 81.3781 87.4326 78.9551 87.4326H73.0957V90.3623H78.9551C82.9938 90.3623 86.2793 87.0768 86.2793 83.0381V68.8945C94.0809 68.1139 100 61.843 100 54.0488Z" fill="black"/>
<path d="M60.2988 28.8857H63.2285V31.8154H60.2988V28.8857Z" fill="black"/>
<path d="M57.3691 23.0264H60.2988V25.9561H57.3691V23.0264Z" fill="black"/>
</g>
<defs>
<clipPath id="clip0_110_1223">
<rect width="100" height="100" fill="white"/>
</clipPath>
</defs>
</svg>
