<svg width="100" height="100" viewBox="0 0 100 100" fill="none" xmlns="http://www.w3.org/2000/svg">
<path d="M93.75 12.5C94.1644 12.5 94.5618 12.3354 94.8549 12.0424C95.1479 11.7493 95.3125 11.3519 95.3125 10.9375V4.6875C95.3125 4.2731 95.1479 3.87567 94.8549 3.58265C94.5618 3.28962 94.1644 3.125 93.75 3.125H87.5C87.0856 3.125 86.6882 3.28962 86.3951 3.58265C86.1021 3.87567 85.9375 4.2731 85.9375 4.6875V6.25H67.1875V4.6875C67.1875 4.2731 67.0229 3.87567 66.7299 3.58265C66.4368 3.28962 66.0394 3.125 65.625 3.125H59.375C58.9606 3.125 58.5632 3.28962 58.2701 3.58265C57.9771 3.87567 57.8125 4.2731 57.8125 4.6875V6.25H39.0625V4.6875C39.0625 4.2731 38.8979 3.87567 38.6049 3.58265C38.3118 3.28962 37.9144 3.125 37.5 3.125H31.25C30.8356 3.125 30.4382 3.28962 30.1451 3.58265C29.8521 3.87567 29.6875 4.2731 29.6875 4.6875V10.9375C29.6875 11.3519 29.8521 11.7493 30.1451 12.0424C30.4382 12.3354 30.8356 12.5 31.25 12.5H32.8125V37.5H31.25C30.8356 37.5 30.4382 37.6646 30.1451 37.9576C29.8521 38.2507 29.6875 38.6481 29.6875 39.0625V45.3125C29.6875 45.7269 29.8521 46.1243 30.1451 46.4174C30.4382 46.7104 30.8356 46.875 31.25 46.875H32.8125V50H6.25C5.8356 50 5.43817 50.1646 5.14515 50.4576C4.85212 50.7507 4.6875 51.1481 4.6875 51.5625V95.3125C4.6875 95.7269 4.85212 96.1243 5.14515 96.4174C5.43817 96.7104 5.8356 96.875 6.25 96.875H46.875C47.2894 96.875 47.6868 96.7104 47.9799 96.4174C48.2729 96.1243 48.4375 95.7269 48.4375 95.3125V78.125H57.8125V79.6875C57.8125 80.1019 57.9771 80.4993 58.2701 80.7924C58.5632 81.0854 58.9606 81.25 59.375 81.25H65.625C66.0394 81.25 66.4368 81.0854 66.7299 80.7924C67.0229 80.4993 67.1875 80.1019 67.1875 79.6875V78.125H85.9375V79.6875C85.9375 80.1019 86.1021 80.4993 86.3951 80.7924C86.6882 81.0854 87.0856 81.25 87.5 81.25H93.75C94.1644 81.25 94.5618 81.0854 94.8549 80.7924C95.1479 80.4993 95.3125 80.1019 95.3125 79.6875V73.4375C95.3125 73.0231 95.1479 72.6257 94.8549 72.3326C94.5618 72.0396 94.1644 71.875 93.75 71.875H92.1875V46.875H93.75C94.1644 46.875 94.5618 46.7104 94.8549 46.4174C95.1479 46.1243 95.3125 45.7269 95.3125 45.3125V39.0625C95.3125 38.6481 95.1479 38.2507 94.8549 37.9576C94.5618 37.6646 94.1644 37.5 93.75 37.5H92.1875V12.5H93.75ZM89.0625 6.25H92.1875V9.375H89.0625V6.25ZM60.9375 6.25H64.0625V9.375H60.9375V6.25ZM32.8125 6.25H35.9375V9.375H32.8125V6.25ZM32.8125 40.625H35.9375V43.75H32.8125V40.625ZM45.3125 93.75H7.8125V53.125H45.3125V93.75ZM71.4174 22.3326L67.8346 18.75H79.6875V30.6027L76.1049 27.0201C75.9598 26.875 75.7875 26.7599 75.598 26.6814C75.4084 26.6029 75.2052 26.5624 75 26.5624C74.7948 26.5624 74.5916 26.6029 74.402 26.6814C74.2125 26.7599 74.0402 26.875 73.8951 27.0201L48.4375 52.4777V51.5625C48.4375 51.1481 48.2729 50.7507 47.9799 50.4576C47.6868 50.1646 47.2894 50 46.875 50H45.9598L71.4174 24.5424C71.5625 24.3973 71.6776 24.225 71.7561 24.0355C71.8346 23.8459 71.8751 23.6427 71.8751 23.4375C71.8751 23.2323 71.8346 23.0291 71.7561 22.8395C71.6776 22.65 71.5625 22.4777 71.4174 22.3326ZM64.0625 78.125H60.9375V75H64.0625V78.125ZM92.1875 78.125H89.0625V75H92.1875V78.125ZM92.1875 43.75H89.0625V40.625H92.1875V43.75ZM89.0625 37.5H87.5C87.0856 37.5 86.6882 37.6646 86.3951 37.9576C86.1021 38.2507 85.9375 38.6481 85.9375 39.0625V45.3125C85.9375 45.7269 86.1021 46.1243 86.3951 46.4174C86.6882 46.7104 87.0856 46.875 87.5 46.875H89.0625V71.875H87.5C87.0856 71.875 86.6882 72.0396 86.3951 72.3326C86.1021 72.6257 85.9375 73.0231 85.9375 73.4375V75H67.1875V73.4375C67.1875 73.0231 67.0229 72.6257 66.7299 72.3326C66.4368 72.0396 66.0394 71.875 65.625 71.875H59.375C58.9606 71.875 58.5632 72.0396 58.2701 72.3326C57.9771 72.6257 57.8125 73.0231 57.8125 73.4375V75H48.4375V56.8973L75 30.3348L80.1451 35.4799C80.3636 35.6984 80.6421 35.8472 80.9452 35.9075C81.2483 35.9678 81.5624 35.9369 81.8479 35.8186C82.1335 35.7003 82.3775 35.5001 82.5492 35.2431C82.7209 34.9861 82.8125 34.684 82.8125 34.375V17.1875C82.8125 16.7731 82.6479 16.3757 82.3549 16.0826C82.0618 15.7896 81.6644 15.625 81.25 15.625H64.0625C63.7535 15.625 63.4514 15.7166 63.1944 15.8883C62.9374 16.06 62.7372 16.304 62.6189 16.5895C62.5006 16.8751 62.4697 17.1892 62.53 17.4923C62.5903 17.7954 62.7391 18.0739 62.9576 18.2924L68.1027 23.4375L41.5402 50H35.9375V46.875H37.5C37.9144 46.875 38.3118 46.7104 38.6049 46.4174C38.8979 46.1243 39.0625 45.7269 39.0625 45.3125V39.0625C39.0625 38.6481 38.8979 38.2507 38.6049 37.9576C38.3118 37.6646 37.9144 37.5 37.5 37.5H35.9375V12.5H37.5C37.9144 12.5 38.3118 12.3354 38.6049 12.0424C38.8979 11.7493 39.0625 11.3519 39.0625 10.9375V9.375H57.8125V10.9375C57.8125 11.3519 57.9771 11.7493 58.2701 12.0424C58.5632 12.3354 58.9606 12.5 59.375 12.5H65.625C66.0394 12.5 66.4368 12.3354 66.7299 12.0424C67.0229 11.7493 67.1875 11.3519 67.1875 10.9375V9.375H85.9375V10.9375C85.9375 11.3519 86.1021 11.7493 86.3951 12.0424C86.6882 12.3354 87.0856 12.5 87.5 12.5H89.0625V37.5Z" fill="black"/>
<path d="M35.3688 59.9359C34.2179 58.7709 32.8475 57.8456 31.3368 57.2132C29.8261 56.5809 28.2051 56.2542 26.5675 56.252C26.5649 56.252 26.5622 56.252 26.5595 56.252C24.0295 56.2519 21.5592 57.0197 19.475 58.4538C17.3908 59.888 15.7911 61.921 14.8872 64.2839C13.9834 66.6469 13.818 69.2286 14.413 71.6875C15.0081 74.1465 16.3354 76.367 18.2196 78.0553C18.3854 78.2024 18.5182 78.3828 18.6096 78.5847C18.701 78.7866 18.7488 79.0055 18.7499 79.2271V79.6875C18.7491 80.3866 18.9057 81.0769 19.2081 81.7072C19.0627 81.8522 18.9475 82.0245 18.8689 82.2142C18.7904 82.4038 18.7501 82.6072 18.7505 82.8125V85.9375C18.7519 87.1803 19.2463 88.3717 20.125 89.2505C21.0038 90.1292 22.1952 90.6236 23.438 90.625H29.688C30.9307 90.6236 32.1222 90.1292 33.0009 89.2505C33.8797 88.3717 34.374 87.1803 34.3755 85.9375V82.8125C34.3758 82.6072 34.3354 82.4038 34.2568 82.2141C34.1782 82.0244 34.0628 81.8521 33.9173 81.7072C34.2197 81.0769 34.3763 80.3866 34.3755 79.6875V79.2264C34.3766 79.0048 34.4244 78.7859 34.5157 78.584C34.6071 78.3821 34.7399 78.2017 34.9056 78.0545C36.1733 76.9241 37.1959 75.5459 37.9103 74.005C38.6246 72.464 39.0156 70.793 39.059 69.0951C39.1024 67.3972 38.7973 65.7084 38.1627 64.1329C37.528 62.5575 36.5772 61.1288 35.3688 59.9352V59.9359ZM31.2505 85.9375C31.25 86.3518 31.0853 86.7489 30.7923 87.0418C30.4994 87.3348 30.1022 87.4995 29.688 87.5H23.438C23.0237 87.4995 22.6266 87.3348 22.3336 87.0418C22.0407 86.7489 21.876 86.3518 21.8755 85.9375V84.375H31.2505V85.9375ZM25.0005 68.75H28.1255L26.563 70.8334L25.0005 68.75ZM32.8192 75.7285C32.3271 76.1689 31.9331 76.708 31.6628 77.3106C31.3925 77.9132 31.2521 78.5659 31.2505 79.2264V79.6875C31.25 80.1018 31.0853 80.4989 30.7923 80.7918C30.4994 81.0848 30.1022 81.2495 29.688 81.25H28.1255V73.9582L32.5005 68.125C32.6746 67.8929 32.7806 67.6168 32.8067 67.3278C32.8327 67.0388 32.7778 66.7483 32.648 66.4887C32.5183 66.2292 32.3188 66.0109 32.0719 65.8584C31.8251 65.7058 31.5407 65.625 31.2505 65.625H21.8755C21.5853 65.625 21.3009 65.7058 21.054 65.8584C20.8072 66.0109 20.6077 66.2292 20.4779 66.4887C20.3482 66.7483 20.2932 67.0388 20.3193 67.3278C20.3454 67.6168 20.4514 67.8929 20.6255 68.125L25.0005 73.9582V81.25H23.438C23.0237 81.2495 22.6266 81.0848 22.3336 80.7918C22.0407 80.4989 21.876 80.1018 21.8755 79.6875V79.2264C21.8739 78.5659 21.7334 77.9132 21.4631 77.3105C21.1928 76.7079 20.7988 76.1689 20.3065 75.7285C19.3263 74.8491 18.5421 73.7733 18.0048 72.571C17.4675 71.3688 17.1892 70.0669 17.188 68.75C17.2139 66.2723 18.2097 63.9033 19.9617 62.1511C21.7138 60.3989 24.0827 59.403 26.5604 59.377H26.5665C28.4639 59.3769 30.3166 59.9527 31.8796 61.0283C33.4426 62.104 34.6423 63.6287 35.32 65.401C35.9977 67.1732 36.1214 69.1094 35.6749 70.9534C35.2284 72.7975 34.2326 74.4626 32.8192 75.7285Z" fill="black"/>
</svg>
