<svg width="100" height="100" viewBox="0 0 100 100" fill="none" xmlns="http://www.w3.org/2000/svg">
<g clip-path="url(#clip0_112_1262)">
<path d="M31.8988 77.7822C26.1329 77.7822 21.459 82.4564 21.459 88.222C21.459 93.9879 26.1331 98.6619 31.8988 98.6619C37.6647 98.6619 42.3386 93.9877 42.3386 88.222C42.3388 82.4564 37.6647 77.7822 31.8988 77.7822ZM31.8988 94.0221C28.6956 94.0221 26.099 91.4255 26.099 88.2223C26.099 85.019 28.6956 82.4224 31.8988 82.4224C35.102 82.4224 37.6987 85.019 37.6987 88.2223C37.6989 91.4255 35.102 94.0221 31.8988 94.0221Z" fill="black"/>
<path d="M75.9789 77.7822C70.213 77.7822 65.5391 82.4564 65.5391 88.222C65.5391 93.9879 70.2132 98.6619 75.9789 98.6619C81.7445 98.6619 86.4187 93.9877 86.4187 88.222C86.4187 82.4564 81.7448 77.7822 75.9789 77.7822ZM75.9789 94.0221C72.7757 94.0221 70.179 91.4255 70.179 88.2223C70.179 85.019 72.7757 82.4224 75.9789 82.4224C79.1821 82.4224 81.7787 85.019 81.7787 88.2223C81.779 91.4255 79.1821 94.0221 75.9789 94.0221Z" fill="black"/>
<path d="M99.5271 16.8829C99.0439 16.3552 98.383 16.0248 97.6711 15.9548L22.1559 14.9109L20.0679 8.53084C18.597 4.26588 14.6031 1.3866 10.0919 1.33887H2.31998C1.03865 1.33887 0 2.37752 0 3.65885C0 4.94018 1.03865 5.97884 2.31998 5.97884H10.0919C12.6144 6.03456 14.8356 7.65427 15.6599 10.0389L30.3918 54.4665L29.2319 57.1344C27.9382 60.4706 28.3267 64.2256 30.2759 67.2263C32.2065 70.1735 35.4543 71.9924 38.9759 72.0983H84.0996C85.3809 72.0983 86.4196 71.0596 86.4196 69.7783C86.4196 68.497 85.3809 67.4583 84.0996 67.4583H38.9757C36.987 67.4086 35.1563 66.3624 34.1037 64.6743C33.0628 63.0068 32.849 60.9526 33.5238 59.1062L34.4518 57.0183L83.2874 51.9143C88.6516 51.3234 93.0643 47.4219 94.3074 42.1703L99.8754 18.8545C100.126 18.1831 99.9931 17.428 99.5271 16.8829ZM89.7833 41.1265C89.0302 44.5071 86.16 47.0007 82.7075 47.2745L34.4518 52.2624L23.6639 19.5508L94.7712 20.5948L89.7833 41.1265Z" fill="black"/>
</g>
<defs>
<clipPath id="clip0_112_1262">
<rect width="100" height="100" fill="white"/>
</clipPath>
</defs>
</svg>
