<svg width="100" height="100" viewBox="0 0 100 100" fill="none" xmlns="http://www.w3.org/2000/svg">
<g clip-path="url(#clip0_112_1336)">
<path d="M0.390625 0.390625V22.793V25.9961V99.6094H99.6094V25.9961V22.793V0.390625H0.390625ZM96.4062 96.4062H3.59375V25.9961H96.4062V96.4062ZM3.59375 22.793V3.59375H96.4062V22.793H3.59375Z" fill="black"/>
<path d="M8.39844 11.6016H11.6016V14.8047H8.39844V11.6016Z" fill="black"/>
<path d="M14.7852 11.6016H17.9883V14.8047H14.7852V11.6016Z" fill="black"/>
<path d="M21.1914 11.6016H24.3945V14.8047H21.1914V11.6016Z" fill="black"/>
<path d="M51.6016 11.6016H91.6016V14.8047H51.6016V11.6016Z" fill="black"/>
<path d="M51.6016 74.0039C56.0352 74.0039 60.1758 72.6953 63.6719 70.4492L66.7773 73.5547L65.7812 74.5508L79.0234 91.4453C80.6055 93.3789 82.9297 94.5508 85.4297 94.6875C85.5664 94.6875 85.7227 94.707 85.8594 94.707C88.2031 94.707 90.4492 93.7695 92.1094 92.1094C93.8672 90.3516 94.8047 87.9102 94.6875 85.4102C94.5703 82.9102 93.3789 80.5859 91.4258 78.9844L74.5508 65.7617L73.5547 66.7578L70.4492 63.6523C72.6953 60.1758 74.0039 56.0352 74.0039 51.582C74.0039 39.2188 63.9453 29.1797 51.6016 29.1797C39.2578 29.1797 29.1992 39.2383 29.1992 51.582C29.1992 63.9453 39.2383 74.0039 51.6016 74.0039ZM91.5039 85.5859C91.582 87.207 90.9961 88.7109 89.8633 89.8633C88.7305 90.9961 87.207 91.582 85.5859 91.5039C83.9648 91.4258 82.5195 90.6836 81.5234 89.4727L70.0391 74.8242L74.8242 70.0391L89.4336 81.5039C90.6836 82.5195 91.4062 83.9648 91.5039 85.5859ZM69.043 71.2891L66.7773 69.0234L69.043 66.7578L71.3086 69.0234L69.043 71.2891ZM51.6016 32.4023C62.1875 32.4023 70.8008 41.0156 70.8008 51.6016C70.8008 62.1875 62.1875 70.8008 51.6016 70.8008C41.0156 70.8008 32.4023 62.1875 32.4023 51.6016C32.4023 41.0156 41.0156 32.4023 51.6016 32.4023Z" fill="black"/>
<path d="M38.7891 51.6016C38.7891 44.5508 44.5313 38.8086 51.582 38.8086C52.4609 38.8086 53.1836 38.0859 53.1836 37.207C53.1836 36.3281 52.4609 35.6055 51.582 35.6055C42.7539 35.6055 35.5859 42.793 35.5859 51.6016C35.5859 52.4805 36.3086 53.2031 37.1875 53.2031C38.0859 53.2031 38.7891 52.4805 38.7891 51.6016Z" fill="black"/>
<path d="M10 37.207H27.5977V40.4102H10V37.207Z" fill="black"/>
<path d="M10 51.6016H24.5117V54.8047H10V51.6016Z" fill="black"/>
<path d="M10 65.9961H29.1992V69.1992H10V65.9961Z" fill="black"/>
<path d="M10 80.4102H61.2109V83.6133H10V80.4102Z" fill="black"/>
</g>
<defs>
<clipPath id="clip0_112_1336">
<rect width="100" height="100" fill="white"/>
</clipPath>
</defs>
</svg>
