<svg width="100" height="100" viewBox="0 0 100 100" fill="none" xmlns="http://www.w3.org/2000/svg">
<g clip-path="url(#clip0_112_1518)">
<path d="M25.0007 8.33333H26.6673C27.5877 8.33333 28.334 7.58708 28.334 6.66667C28.334 5.74625 27.5877 5 26.6673 5H25.0007C24.0802 5 23.334 5.74625 23.334 6.66667C23.334 7.58708 24.0802 8.33333 25.0007 8.33333Z" fill="black"/>
<path d="M33.3327 8.33333H34.9993C35.9198 8.33333 36.666 7.58708 36.666 6.66667C36.666 5.74625 35.9198 5 34.9993 5H33.3327C32.4123 5 31.666 5.74625 31.666 6.66667C31.666 7.58708 32.4123 8.33333 33.3327 8.33333Z" fill="black"/>
<path d="M98.3333 16.6667H60V8.33333C60 3.73104 56.269 0 51.6667 0H8.33333C3.73104 0 0 3.73104 0 8.33333V83.3333C0 87.9356 3.73104 91.6667 8.33333 91.6667H40V98.3333C40 99.2537 40.7463 100 41.6667 100H75C75.9204 100 76.6667 99.2537 76.6667 98.3333V88.3333C76.6667 87.4129 75.9204 86.6667 75 86.6667H73.3333V86.0167C73.3348 85.6846 73.4333 85.3602 73.6167 85.0833L74.7 83.45C75.9825 81.531 76.6669 79.2748 76.6667 76.9667V60H98.3333C99.2537 60 100 59.2537 100 58.3333V18.3333C100 17.4129 99.2537 16.6667 98.3333 16.6667ZM3.33333 8.33333C3.34167 5.57542 5.57542 3.34167 8.33333 3.33333H51.6667C54.4246 3.34167 56.6583 5.57542 56.6667 8.33333V10H3.33333V8.33333ZM3.33333 13.3333H56.6667V16.6667H51.6667C50.7463 16.6667 50 17.4129 50 18.3333V36.9833C47.9881 37.7585 46.6625 39.694 46.6667 41.85V56.6667H45C42.2421 56.675 40.0083 58.9087 40 61.6667V75H3.33333V13.3333ZM40 88.3333H8.33333C5.57542 88.325 3.34167 86.0912 3.33333 83.3333V78.3333H40.1C40.3102 80.1621 40.9498 81.9154 41.9667 83.45L43.05 85.0833C43.2333 85.3602 43.3319 85.6846 43.3333 86.0167V86.6667H41.6667C40.7463 86.6667 40 87.4129 40 88.3333ZM73.3333 96.6667H43.3333V90H73.3333V96.6667ZM73.3333 76.9667C73.3337 78.6154 72.8467 80.2273 71.9333 81.6L70.8333 83.2333C70.2862 84.0581 69.9962 85.0269 70 86.0167V86.6667H46.6667V86.0167C46.6704 85.0269 46.3804 84.0581 45.8333 83.2333L44.7333 81.6C43.82 80.2273 43.3329 78.6154 43.3333 76.9667V61.6667C43.3333 60.7463 44.0796 60 45 60H46.6667V68.3333C46.6667 69.2537 47.4129 70 48.3333 70C49.2537 70 50 69.2537 50 68.3333V41.85C49.9723 40.941 50.62 40.1512 51.5167 40C52.0167 39.9594 52.5079 40.1498 52.85 40.5167C53.1654 40.8152 53.3408 41.2325 53.3333 41.6667V61.6667C53.3333 62.5871 54.0796 63.3333 55 63.3333C55.9204 63.3333 56.6667 62.5871 56.6667 61.6667V53.3333C56.6667 52.4129 57.4129 51.6667 58.3333 51.6667C58.7833 51.6627 59.2137 51.8506 59.5167 52.1833C59.8321 52.4819 60.0075 52.8992 60 53.3333V61.6667C60 62.5871 60.7463 63.3333 61.6667 63.3333C62.5871 63.3333 63.3333 62.5871 63.3333 61.6667V55C63.3333 54.0796 64.0796 53.3333 65 53.3333C65.45 53.3294 65.8804 53.5173 66.1833 53.85C66.4987 54.1485 66.6742 54.5658 66.6667 55V61.6667C66.6667 62.5871 67.4129 63.3333 68.3333 63.3333C69.2537 63.3333 70 62.5871 70 61.6667V58.3333C70 57.4129 70.7462 56.6667 71.6667 56.6667C72.1167 56.6627 72.5471 56.8506 72.85 57.1833C73.1654 57.4819 73.3408 57.8992 73.3333 58.3333V76.9667ZM96.6667 56.6667H76.3667C76.1254 55.9723 75.7325 55.3404 75.2167 54.8167C73.7971 53.4208 71.6952 52.9783 69.8333 53.6833C69.6069 52.8498 69.1642 52.0908 68.55 51.4833C66.9433 49.9319 64.5187 49.595 62.55 50.65C62.361 50.3471 62.1373 50.0675 61.8833 49.8167C60.5098 48.465 58.4927 48.001 56.6667 48.6167V41.6667C56.674 40.3475 56.1517 39.0806 55.2167 38.15C54.684 37.6212 54.0408 37.2171 53.3333 36.9667V20H96.6667V56.6667Z" fill="black"/>
<path d="M13.3333 51.6665H11.6667C10.7463 51.6665 10 52.4128 10 53.3332C10 54.2536 10.7463 54.9998 11.6667 54.9998H13.3333C14.2538 54.9998 15 54.2536 15 53.3332C15 52.4128 14.2538 51.6665 13.3333 51.6665Z" fill="black"/>
<path d="M36.6673 51.6665H20.0007C19.0802 51.6665 18.334 52.4128 18.334 53.3332C18.334 54.2536 19.0802 54.9998 20.0007 54.9998H36.6673C37.5877 54.9998 38.334 54.2536 38.334 53.3332C38.334 52.4128 37.5877 51.6665 36.6673 51.6665Z" fill="black"/>
<path d="M13.3333 58.3335H11.6667C10.7463 58.3335 10 59.0797 10 60.0002C10 60.9206 10.7463 61.6668 11.6667 61.6668H13.3333C14.2538 61.6668 15 60.9206 15 60.0002C15 59.0797 14.2538 58.3335 13.3333 58.3335Z" fill="black"/>
<path d="M33.334 58.3335H20.0007C19.0802 58.3335 18.334 59.0797 18.334 60.0002C18.334 60.9206 19.0802 61.6668 20.0007 61.6668H33.334C34.2544 61.6668 35.0007 60.9206 35.0007 60.0002C35.0007 59.0797 34.2544 58.3335 33.334 58.3335Z" fill="black"/>
<path d="M13.3333 65H11.6667C10.7463 65 10 65.7462 10 66.6667C10 67.5871 10.7463 68.3333 11.6667 68.3333H13.3333C14.2538 68.3333 15 67.5871 15 66.6667C15 65.7462 14.2538 65 13.3333 65Z" fill="black"/>
<path d="M33.334 65H20.0007C19.0802 65 18.334 65.7462 18.334 66.6667C18.334 67.5871 19.0802 68.3333 20.0007 68.3333H33.334C34.2544 68.3333 35.0007 67.5871 35.0007 66.6667C35.0007 65.7462 34.2544 65 33.334 65Z" fill="black"/>
<path d="M71.6673 48.3332C73.5083 48.3332 75.0007 46.8408 75.0007 44.9998C75.0007 43.1589 73.5083 41.6665 71.6673 41.6665C69.8264 41.6665 68.334 43.1589 68.334 44.9998C68.334 46.8408 69.8264 48.3332 71.6673 48.3332Z" fill="black"/>
<path d="M79.9993 48.3332C81.8403 48.3332 83.3327 46.8408 83.3327 44.9998C83.3327 43.1589 81.8403 41.6665 79.9993 41.6665C78.1584 41.6665 76.666 43.1589 76.666 44.9998C76.666 46.8408 78.1584 48.3332 79.9993 48.3332Z" fill="black"/>
<path d="M65.0007 28.3333H66.8623L67.094 30.185V30.2333L68.3407 40.2067C68.4452 41.0431 69.1577 41.6698 70.0007 41.6667H81.6673C82.385 41.6669 83.0221 41.2075 83.249 40.5267L86.5823 30.5267C86.8732 29.6533 86.4011 28.7096 85.5277 28.4188C85.3577 28.3621 85.1798 28.3333 85.0007 28.3333H70.2223L69.9873 26.46C69.8832 25.626 69.1744 25.0002 68.334 25H65.0007C64.0802 25 63.334 25.7463 63.334 26.6667C63.334 27.5871 64.0802 28.3333 65.0007 28.3333ZM82.689 31.6667L80.4656 38.3333H71.4657L70.6323 31.6667H82.689Z" fill="black"/>
<path d="M33.3333 81.6665H26.6667C25.7463 81.6665 25 82.4128 25 83.3332C25 84.2536 25.7463 84.9998 26.6667 84.9998H33.3333C34.2538 84.9998 35 84.2536 35 83.3332C35 82.4128 34.2538 81.6665 33.3333 81.6665Z" fill="black"/>
<path d="M45.4073 21.7167L38.769 20.05C38.6365 20.0167 38.5004 19.9998 38.364 20H35.0007C34.0802 20 33.334 20.7463 33.334 21.6667C33.334 23.5077 31.8417 25 30.0007 25C28.1596 25 26.6673 23.5077 26.6673 21.6667C26.6673 20.7463 25.9211 20 25.0007 20H21.6257C21.4886 20 21.3519 20.0167 21.219 20.05L14.594 21.7167C13.8532 21.9031 13.3338 22.5694 13.334 23.3333V30C13.334 30.9204 14.0802 31.6667 15.0007 31.6667C15.1371 31.6667 15.2732 31.6498 15.4057 31.6167L20.0007 30.4683V45C20.0007 45.9204 20.7469 46.6667 21.6673 46.6667H38.334C39.2544 46.6667 40.0007 45.9204 40.0007 45V30.4683L44.5957 31.6167C45.4886 31.8404 46.3938 31.2979 46.6173 30.405C46.6504 30.2725 46.6673 30.1367 46.6673 30V23.3333C46.6675 22.5694 46.1482 21.9031 45.4073 21.7167ZM43.334 27.865L38.739 26.7167C38.2411 26.5944 37.7144 26.7063 37.309 27.02C36.9042 27.3356 36.6675 27.8202 36.6673 28.3333V43.3333H23.334V28.3333C23.334 27.4129 22.5877 26.6667 21.6673 26.6667C21.5309 26.6667 21.3948 26.6835 21.2623 26.7167L16.6673 27.865V24.6333L21.834 23.3333H23.5457C24.4625 26.8992 28.0965 29.0467 31.6623 28.13C34.0161 27.5248 35.8538 25.6869 36.459 23.3333H38.159L43.334 24.6333V27.865Z" fill="black"/>
</g>
<defs>
<clipPath id="clip0_112_1518">
<rect width="100" height="100" fill="white"/>
</clipPath>
</defs>
</svg>
