<svg width="100" height="100" viewBox="0 0 100 100" fill="none" xmlns="http://www.w3.org/2000/svg">
<g clip-path="url(#clip0_112_1506)">
<path fill-rule="evenodd" clip-rule="evenodd" d="M76.6842 61.4529C76.2156 61.4529 75.7469 61.2771 75.454 60.8085L71.9391 55.8876L68.2484 60.8671C67.0767 62.4488 64.6749 60.6327 65.8465 59.051L70.123 53.3099L65.9637 47.5103C64.792 45.9286 67.2525 44.1125 68.4241 45.7528L71.9977 50.7909L75.6298 45.9286C76.8014 44.3468 79.2033 46.1629 78.0316 47.7446L73.8723 53.3685L77.9145 59.051C78.6175 60.0469 77.8559 61.4529 76.6842 61.4529ZM78.969 25.8934H20.9725C19.0393 25.8934 19.0393 22.9057 20.9725 22.9057H78.969C80.9608 22.9057 80.9608 25.8934 78.969 25.8934ZM78.969 34.3879H20.9725C19.0393 34.3879 19.0393 31.3416 20.9725 31.3416H78.969C80.9608 31.3416 80.9608 34.3879 78.969 34.3879ZM89.9238 76.3914V23.0815C89.9238 14.8799 85.1787 8.26015 79.379 8.26015H20.621C14.7627 8.26015 10.0762 14.8799 10.0762 23.0815V76.3914H41.1248H41.1834H41.2419H41.3005H41.3591H41.4177L41.4763 76.45H41.5349H41.5934L41.652 76.5085H41.7106H41.7692V76.5671H41.8278L41.8864 76.6257H41.9449L42.0035 76.6843L42.0621 76.7429H42.1207V76.8014H42.1793C42.1793 76.86 42.5893 77.4458 42.5893 77.9145V82.4253H57.3521V77.9145C57.3521 76.8014 57.9379 76.7429 58.5823 76.3914H58.8166H58.8752H58.9338H89.9238ZM7.02988 76.3914V23.0815C7.02988 13.2396 13.1224 5.21387 20.621 5.21387H79.379C86.8776 5.21387 92.9701 13.2396 92.9701 23.0815V76.3914H98.4769C99.297 76.3914 100 77.0358 100 77.9145C100 87.1705 92.4429 94.7276 83.1283 94.7276H16.8717C7.55712 94.7276 0 87.1705 0 77.9145C0 77.0358 0.702988 76.3914 1.52314 76.3914H7.02988ZM39.6016 79.3791H3.10486C3.86643 86.2918 9.72466 91.7399 16.8717 91.7399H83.1283C90.2168 91.7399 96.1336 86.2918 96.8951 79.3791H60.3984V83.9485C60.3984 84.7686 59.6954 85.4716 58.8752 85.4716H41.0662C40.246 85.4716 39.6016 84.8272 39.6016 83.9485V79.3791ZM42.2378 64.7335C41.2419 64.7335 40.4804 63.7962 40.7733 62.8003L46.3386 41.945C46.8658 40.0703 49.795 40.8905 49.2677 42.7651L43.7024 63.6204C43.5267 64.2648 42.8823 64.7335 42.2378 64.7335ZM57.1178 61.5115C53.7786 61.5115 51.2595 59.3439 51.4353 55.8876V46.573C51.4353 44.6398 54.423 44.6398 54.423 46.573C54.423 48.4476 54.5401 54.7745 54.423 56.1219C54.1301 59.2853 60.0469 59.2853 59.754 56.1219C59.6368 54.8331 59.754 48.389 59.754 46.573C59.754 44.6398 62.8002 44.6398 62.8002 46.573V55.8876C62.9174 59.3439 60.3984 61.5115 57.1178 61.5115ZM27.3579 60.5156C24.0187 60.5156 21.4997 58.348 21.6755 54.8917V45.5771C21.6755 43.6439 24.6632 43.6439 24.6632 45.5771C24.6632 47.5103 24.7803 53.6614 24.6632 55.126C24.4288 58.2894 30.2871 58.2894 29.9941 55.126C29.877 53.6614 29.9941 47.5103 29.9941 45.5771C29.9941 43.6439 33.0404 43.6439 33.0404 45.5771V54.8917C33.1576 58.348 30.6385 60.5156 27.3579 60.5156ZM37.4927 60.457C36.6725 60.457 35.9695 59.8126 35.9695 58.9338V45.6357C35.9695 43.6439 39.0158 43.6439 39.0158 45.6357V58.9338C39.0158 59.8126 38.3128 60.457 37.4927 60.457Z" fill="black"/>
</g>
<defs>
<clipPath id="clip0_112_1506">
<rect width="100" height="100" fill="white"/>
</clipPath>
</defs>
</svg>
