<svg width="100" height="100" viewBox="0 0 100 100" fill="none" xmlns="http://www.w3.org/2000/svg">
<path fill-rule="evenodd" clip-rule="evenodd" d="M29.0683 61.7093H9.15285C4.87501 61.7093 1.37305 58.2073 1.37305 53.9295V11.2134C1.37305 6.93555 4.87501 3.43359 9.15285 3.43359H77.5031C81.7811 3.43359 85.2829 6.93555 85.2829 11.2134V22.8042H94.0148C96.5487 22.8042 98.628 24.8832 98.628 27.434V91.936C98.628 94.4867 96.5487 96.5658 94.0148 96.5658H61.6513C59.1117 96.5658 57.034 94.4861 57.034 91.936V80.0358H15.8903C15.024 80.0358 14.3217 79.3336 14.3217 78.4671V74.235C14.3217 71.1532 17.3264 68.4397 21.186 68.4397H29.0683V61.7093ZM82.1456 22.8042V11.2134C82.1456 8.66046 80.056 6.57085 77.5031 6.57085H9.15285C6.60011 6.57085 4.5103 8.66046 4.5103 11.2134V53.9295C4.5103 56.4822 6.60011 58.572 9.15285 58.572H35.5219V51.2495H8.13324C7.26677 51.2495 6.56462 50.5473 6.56462 49.6808V11.0599C6.56462 9.71634 7.65599 8.63046 8.99932 8.63046H77.6621C78.9929 8.63046 80.0915 9.71359 80.0915 11.0599V22.8042H82.1456ZM35.5219 61.7093H32.2056V68.4397H35.5219V61.7093ZM57.034 76.8985V74.0022H39.0446C37.4842 74.0022 36.157 72.9844 35.6956 71.5769H21.186C19.2193 71.5769 17.4589 72.6646 17.4589 74.235V76.8985H57.034ZM60.1713 74.0022V91.936C60.1713 92.7558 60.835 93.4285 61.6513 93.4285H94.0148C94.8287 93.4285 95.4907 92.7552 95.4907 91.936V27.434C95.4907 26.6148 94.8287 25.9414 94.0148 25.9414H90.2948L88.8329 28.701C88.2507 29.8001 87.1089 30.4873 85.8654 30.4873H69.7966C68.553 30.4873 67.4113 29.8001 66.8291 28.701L65.3672 25.9414H61.6513C60.835 25.9414 60.1713 26.6142 60.1713 27.434V34.0381C62.7419 36.2887 64.3713 39.5914 64.3713 43.2561V46.175H65.2003C67.1431 46.175 68.7185 47.7587 68.7185 49.6934V70.484C68.7185 72.4267 67.1431 74.0022 65.2003 74.0022H60.1713ZM86.7446 25.9414H68.9176L69.6015 27.2326C69.6397 27.3048 69.7148 27.3501 69.7966 27.3501H85.8654C85.9472 27.3501 86.0223 27.3048 86.0605 27.2326L86.7446 25.9414ZM57.034 32.0367V27.434C57.034 24.8838 59.1117 22.8042 61.6513 22.8042H76.9542V11.7677H9.70187V48.1122H35.8995C36.4809 46.9661 37.6727 46.175 39.0446 46.175H56.344V43.2561C56.344 40.9373 54.4381 39.0301 52.1225 39.0301C49.8068 39.0301 47.9009 40.9373 47.9009 43.2561C47.9009 44.1226 47.1985 44.8248 46.3323 44.8248H41.4376C40.5713 44.8248 39.8689 44.1226 39.8689 43.2561C39.8689 36.5173 45.3836 31.0028 52.1225 31.0028C53.8668 31.0028 55.5287 31.3722 57.034 32.0367ZM59.4813 46.175H61.234V43.2561C61.234 38.2428 57.1358 34.1401 52.1225 34.1401C47.6434 34.1401 43.8915 37.4146 43.1423 41.6875H44.9338C45.6605 38.3899 48.6238 35.8928 52.1225 35.8928C56.1579 35.8928 59.4813 39.215 59.4813 43.2561V46.175ZM74.7601 60.3322C74.1479 59.7201 74.1479 58.7261 74.7601 58.114C75.3723 57.5018 76.3664 57.5018 76.9785 58.114L80.0993 61.2348L86.5268 54.8075C87.1389 54.1954 88.1329 54.1954 88.745 54.8075C89.3572 55.4197 89.3572 56.4138 88.745 57.026L81.2085 64.5624C80.596 65.175 79.6029 65.175 78.9901 64.5624L74.7601 60.3322ZM73.8127 89.4175C72.9468 89.4175 72.244 88.7146 72.244 87.8489C72.244 86.983 72.9468 86.2803 73.8127 86.2803H81.8536C82.7193 86.2803 83.4223 86.983 83.4223 87.8489C83.4223 88.7146 82.7193 89.4175 81.8536 89.4175H73.8127ZM26.5756 29.7216L36.254 19.9422L36.2572 19.9391C37.9599 18.2279 40.7387 18.2195 42.4501 19.9222C44.1611 21.6244 44.1717 24.3936 42.4695 26.1134L42.4687 26.1142C38.2027 30.4191 33.9685 34.7499 29.683 39.0354C27.9721 40.7463 25.1942 40.7463 23.4832 39.0354L16.3791 31.925C14.6691 30.2148 14.6668 27.4469 16.3764 25.7277C16.3776 25.7267 16.3785 25.7256 16.3797 25.7246C18.0907 24.0142 20.8681 24.0144 22.5789 25.725L26.5756 29.7216ZM25.1934 32.7763L20.3605 27.9434C19.8746 27.4575 19.086 27.4569 18.5993 27.9416C18.1134 28.4318 18.1107 29.2197 18.5976 29.7065L25.7017 36.8171C26.1881 37.3036 26.9781 37.3036 27.4646 36.8171C31.7468 32.535 35.9772 28.2079 40.2397 23.9065C40.7236 23.4175 40.724 22.6303 40.2376 22.1463C39.7523 21.6636 38.9646 21.6665 38.4817 22.1512L27.9736 32.7691C27.6066 33.1399 27.1068 33.3493 26.585 33.3507C26.0632 33.3518 25.5625 33.1452 25.1934 32.7763ZM39.0446 49.3122C38.8332 49.3122 38.6591 49.4828 38.6591 49.6934V70.484C38.6591 70.6954 38.8332 70.865 39.0446 70.865H65.2003C65.4107 70.865 65.5813 70.6944 65.5813 70.484V49.6934C65.5813 49.4838 65.4107 49.3122 65.2003 49.3122H39.0446ZM52.1225 51.1012C55.0874 51.1012 57.4909 53.5093 57.4909 56.4742C57.4909 58.0761 56.7948 59.5112 55.686 60.4946V65.5124C55.686 67.4761 54.0779 69.076 52.1225 69.076C50.1589 69.076 48.5589 67.4761 48.5589 65.5124V60.4948C47.4489 59.5114 46.7495 58.0759 46.7495 56.4742C46.7495 53.5099 49.1579 51.1012 52.1225 51.1012ZM52.1225 54.2385C50.8889 54.2385 49.8868 55.2408 49.8868 56.4742C49.8868 57.2801 50.3127 57.9844 50.9509 58.3781C51.414 58.6636 51.6962 59.1691 51.6962 59.7132V65.5124C51.6962 65.7473 51.8876 65.9387 52.1225 65.9387C52.3564 65.9387 52.5487 65.7473 52.5487 65.5124V59.7132C52.5487 59.1691 52.8307 58.6636 53.294 58.3781C53.9319 57.9846 54.3536 57.2797 54.3536 56.4742C54.3536 55.2412 53.3554 54.2385 52.1225 54.2385Z" fill="black"/>
</svg>
