<svg width="86" height="86" viewBox="0 0 86 86" fill="none" xmlns="http://www.w3.org/2000/svg">
<path d="M65.311 70.2087L65.3131 70.2106C66.1232 70.986 67.1694 71.375 68.2111 71.375C69.3062 71.375 70.4094 70.9465 71.2329 70.0868C78.2552 62.7685 82.125 53.1449 82.125 43C82.125 21.4248 64.5752 3.875 43 3.875C21.4248 3.875 3.875 21.4248 3.875 43C3.875 50.2148 5.85963 57.1464 9.518 63.1841C7.80686 63.7099 6.5625 65.3023 6.5625 67.1875C6.5625 69.5019 8.43789 71.375 10.75 71.375H18.8125C21.1246 71.375 23 69.5019 23 67.1875V59.125C23 56.8106 21.1246 54.9375 18.8125 54.9375C17.4317 54.9375 16.2067 55.6055 15.4439 56.6366C13.3597 52.4441 12.25 47.8008 12.25 43C12.25 26.0448 26.046 12.25 43 12.25C59.954 12.25 73.75 26.0448 73.75 43C73.75 50.9773 70.7108 58.5338 65.1892 64.2882C63.5876 65.9573 63.644 68.607 65.311 70.2087Z" stroke="black" stroke-width="3"/>
<path d="M47.1875 56.4375V54.9375H45.6875H40.3125H38.8125V56.4375V69.8277C37.1934 71.0749 36.125 73.026 36.125 75.25C36.125 79.0413 39.2069 82.125 43 82.125C46.7931 82.125 49.875 79.0413 49.875 75.25C49.875 73.026 48.8066 71.0749 47.1875 69.8277V56.4375Z" stroke="black" stroke-width="3"/>
<path d="M35.6974 52.9372L34.9375 52.4907L34.1776 52.9372C33.422 53.3812 32.6077 53.7345 31.7385 54.0498L30.75 54.4084V55.4599V60.0786L26.6017 64.2269C25.817 65.0115 25.375 66.0752 25.375 67.1877V69.8279C23.7559 71.0751 22.6875 73.0262 22.6875 75.2502C22.6875 79.0414 25.7694 82.1252 29.5625 82.1252C33.3556 82.1252 36.4375 79.0414 36.4375 75.2502C36.4375 73.0262 35.3691 71.0751 33.75 69.8279V68.9218L37.8983 64.7735C38.683 63.9888 39.125 62.9252 39.125 61.8127V55.4599V54.4084L38.1365 54.0498C37.2673 53.7345 36.453 53.3812 35.6974 52.9372Z" stroke="black" stroke-width="3"/>
<path d="M55.25 55.4599V54.4084L54.2615 54.0498C53.3923 53.7345 52.578 53.3812 51.8224 52.9372L51.0625 52.4907L50.3026 52.9372C49.547 53.3812 48.7327 53.7345 47.8635 54.0498L46.875 54.4084V55.4599V61.8127C46.875 62.9252 47.317 63.9888 48.1017 64.7735L52.25 68.9218V69.8279C50.6309 71.0751 49.5625 73.0262 49.5625 75.2502C49.5625 79.0414 52.6444 82.1252 56.4375 82.1252C60.2306 82.1252 63.3125 79.0414 63.3125 75.2502C63.3125 73.0262 62.2441 71.0751 60.625 69.8279V67.1877C60.625 66.0752 60.183 65.0115 59.3983 64.2269L55.25 60.0786V55.4599Z" stroke="black" stroke-width="3"/>
<path d="M11.9375 40.3125C11.9375 48.5622 18.6253 55.25 26.875 55.25C29.8684 55.25 32.6217 54.3389 34.9375 52.8331C37.2533 54.3389 40.0066 55.25 43 55.25C45.9934 55.25 48.7467 54.3389 51.0625 52.8331C53.3783 54.3389 56.1316 55.25 59.125 55.25C67.3747 55.25 74.0625 48.5622 74.0625 40.3125C74.0625 32.0928 67.4232 25.4236 59.2149 25.3753C56.5372 19.0641 50.2968 14.625 43 14.625C35.7032 14.625 29.4628 19.0641 26.7851 25.3753C18.5768 25.4236 11.9375 32.0928 11.9375 40.3125Z" stroke="black" stroke-width="3"/>
</svg>
