<svg width="100" height="100" viewBox="0 0 100 100" fill="none" xmlns="http://www.w3.org/2000/svg">
<path fill-rule="evenodd" clip-rule="evenodd" d="M91.1033 42.6909L88.1844 28.6288C88.0418 27.9413 87.4031 27.4735 86.7033 27.547L74.951 28.7782C74.8672 28.6853 74.7809 28.5937 74.6912 28.5042C73.3502 27.1632 71.5674 26.4247 69.6709 26.4247C69.5398 26.4247 69.4096 26.429 69.2797 26.436L56.275 10.6813C55.9998 8.43818 54.9947 6.36279 53.3713 4.73936C49.4002 0.767871 42.9377 0.767871 38.9666 4.73936C37.0426 6.66318 35.9832 9.221 35.9832 11.9417C35.9832 12.3472 36.0096 12.7483 36.0561 13.1448L19.7299 26.6212C16.9918 26.7468 14.2906 27.8522 12.2045 29.9384C10.0535 32.0892 8.86914 34.9485 8.86914 37.9901C8.86914 41.0317 10.0535 43.8913 12.2045 46.0421C13.8244 47.6622 15.8469 48.7333 18.0463 49.1636L29.1619 73.5114C28.9842 73.6296 28.8166 73.7659 28.6623 73.9204L24.6648 77.9179C23.4078 79.1749 23.4078 81.2204 24.6648 82.4772C26.365 84.1774 26.3246 86.3431 25.7199 87.803C25.1152 89.2628 23.6125 90.8226 21.208 90.8226C19.4303 90.8226 17.984 92.2688 17.984 94.0464V96.873C17.984 97.628 18.5961 98.2401 19.3512 98.2401H34.0363C34.7914 98.2401 35.4035 97.628 35.4035 96.873C35.4035 90.1382 40.8828 84.6589 47.6176 84.6589C54.3523 84.6589 59.8314 90.1382 59.8314 96.873C59.8314 97.628 60.4436 98.2401 61.1986 98.2401H75.8838C76.6389 98.2401 77.251 97.628 77.251 96.873V94.0464C77.251 92.2687 75.8047 90.8226 74.0269 90.8226C71.6225 90.8226 70.1199 89.2628 69.515 87.803C68.9104 86.3431 68.8701 84.1774 70.5703 82.4771C71.827 81.22 71.8269 79.1749 70.5701 77.9177L66.5727 73.9204C65.9639 73.3114 65.1543 72.9763 64.293 72.9763C63.4318 72.9763 62.6221 73.3114 62.0129 73.9204C60.3129 75.6208 58.1473 75.5804 56.6873 74.9755C55.2273 74.3708 53.6676 72.8681 53.6676 70.4636C53.6676 68.6858 52.2215 67.2397 50.4437 67.2397H48.2047L30.6605 42.6097C31.3436 41.0665 31.6668 39.4024 31.6312 37.7438L44.6236 22.0042C45.1355 22.0821 45.6521 22.1228 46.1687 22.1228C47.0603 22.1228 47.9514 22.0038 48.8182 21.7718L62.5822 33.1333C62.5752 33.2632 62.5709 33.3935 62.5709 33.5245C62.5709 35.421 63.3094 37.2038 64.6502 38.5448C64.7396 38.6343 64.8312 38.7204 64.9244 38.8044L63.6932 50.5567C63.6201 51.255 64.0877 51.8952 64.775 52.0378L78.8371 54.9569C78.9295 54.9763 79.0225 54.9855 79.115 54.9855C79.4738 54.9855 79.8227 54.844 80.0816 54.5851L81.6777 52.989C81.9922 52.6745 82.1342 52.2271 82.0582 51.7888C81.9822 51.3507 81.698 50.9769 81.2963 50.7866L72.1139 46.4372L73.6814 39.3831C74.0391 39.1372 74.3775 38.8581 74.691 38.5446C75.0062 38.2294 75.2836 37.8907 75.527 37.5356L82.5834 35.9677L86.9328 45.1499C87.1232 45.5517 87.4971 45.8358 87.9352 45.9116C88.0127 45.9251 88.091 45.9317 88.1684 45.9317C88.5277 45.9317 88.8766 45.7897 89.135 45.5313L90.731 43.9354C91.0572 43.6099 91.1971 43.1419 91.1033 42.6909ZM11.6031 37.9901C11.6031 35.679 12.5031 33.5062 14.1375 31.8718C15.8246 30.1847 18.0398 29.3415 20.2559 29.3415C22.4713 29.3415 24.6875 30.1851 26.3742 31.8718C29.7477 35.2454 29.7477 40.7349 26.3742 44.1085C23.0006 47.4821 17.5111 47.4821 14.1375 44.1085C12.5033 42.4741 11.6031 40.3013 11.6031 37.9901ZM50.9334 70.4634C50.9334 73.6019 52.7371 76.2987 55.6412 77.5015C58.5445 78.7042 61.7271 78.0731 63.9465 75.8536C64.0713 75.7288 64.2172 75.7103 64.293 75.7103C64.3687 75.7103 64.5145 75.7288 64.6391 75.8534L68.6363 79.8507C68.8275 80.0417 68.8275 80.3526 68.6367 80.5435C66.4174 82.7626 65.7857 85.9452 66.9887 88.8491C68.1914 91.7528 70.8883 93.5567 74.0266 93.5567C74.2965 93.5567 74.5162 93.7765 74.5162 94.0462V95.5056H62.5035C61.8109 87.9013 55.3988 81.9243 47.6172 81.9243C39.8354 81.9243 33.4232 87.9013 32.7307 95.5056H20.718V94.0462C20.718 93.7763 20.9377 93.5567 21.2076 93.5567C24.3459 93.5567 27.043 91.753 28.2457 88.8491C29.4484 85.9452 28.8172 82.7626 26.5978 80.5435C26.4068 80.3524 26.4068 80.0419 26.5978 79.8509L30.5953 75.8534C30.7199 75.7288 30.8656 75.7103 30.9414 75.7103C31.0172 75.7103 31.1631 75.7288 31.2875 75.8534C33.5066 78.0726 36.6889 78.704 39.593 77.5013C42.4969 76.2985 44.3008 73.6017 44.3008 70.4632C44.3008 70.1933 44.5203 69.9737 44.7902 69.9737H50.4434C50.7139 69.9739 50.9334 70.1935 50.9334 70.4634ZM44.8478 67.2396H44.7908C43.0131 67.2396 41.567 68.6858 41.567 70.4634C41.567 72.8679 40.0072 74.3706 38.5473 74.9753C37.0873 75.5802 34.9215 75.6202 33.2217 73.9202C32.8734 73.572 32.4582 73.3169 32.0064 73.1591L21.1326 49.3405C23.8436 49.1353 26.365 47.9845 28.3076 46.0419C28.5945 45.755 28.8619 45.4562 29.1117 45.1476L44.8478 67.2396ZM30.998 34.2159C30.4516 32.6526 29.5549 31.1856 28.3076 29.9384C26.915 28.5458 25.2482 27.5903 23.4795 27.0714L36.842 16.0415C37.3445 17.1837 38.0578 18.2353 38.9666 19.144C39.8117 19.9892 40.7703 20.6526 41.793 21.1382L30.998 34.2159ZM40.8998 17.2104C39.4926 15.803 38.7174 13.9317 38.7174 11.9415C38.7174 9.95107 39.4926 8.07998 40.8998 6.67256C42.3525 5.21982 44.2607 4.49346 46.1689 4.49346C48.0771 4.49346 49.9853 5.21982 51.4381 6.67256C52.8453 8.07998 53.6205 9.95107 53.6205 11.9415C53.6205 13.9317 52.8453 15.803 51.4381 17.2104C48.5324 20.1157 43.8053 20.1157 40.8998 17.2104ZM51.6236 20.5415C52.2436 20.1483 52.8311 19.6841 53.3713 19.1438C54.6424 17.8728 55.5334 16.3241 55.9935 14.6354L66.3871 27.2271C65.7551 27.5577 65.1695 27.9851 64.6506 28.504C64.1316 29.0229 63.7043 29.6085 63.3736 30.2405L51.6236 20.5415ZM69.9578 48.4413L77.0221 51.7874L66.5418 49.6118L67.5184 40.2919C68.2057 40.5097 68.9293 40.6241 69.6709 40.6241C69.991 40.6241 70.3072 40.6013 70.6193 40.5599L69.2084 46.9091C69.0699 47.5321 69.3811 48.1681 69.9578 48.4413ZM72.758 36.6112C71.9332 37.4358 70.8371 37.8899 69.6709 37.8899C68.5049 37.8899 67.4086 37.4358 66.584 36.6112C65.7594 35.7866 65.3053 34.6905 65.3053 33.5243C65.3053 32.3581 65.7594 31.262 66.584 30.4374H66.5842C67.4086 29.6128 68.5049 29.1587 69.6709 29.1587C70.8371 29.1587 71.9332 29.6128 72.7578 30.4374C74.4598 32.1395 74.4598 34.9091 72.758 36.6112ZM84.5879 33.8112C84.3148 33.2345 83.6801 32.9235 83.0557 33.062L76.7027 34.4737C76.8414 33.4372 76.7514 32.3765 76.4336 31.3722L85.7584 30.3952L87.934 40.8753L84.5879 33.8112ZM47.6174 88.1235C42.7932 88.1235 38.8682 92.0485 38.8682 96.873C38.8682 97.628 39.4803 98.2401 40.2353 98.2401H54.9996C55.7547 98.2401 56.3668 97.628 56.3668 96.873C56.3668 92.0485 52.4418 88.1235 47.6174 88.1235ZM41.7594 95.5058C42.3799 92.8454 44.7709 90.8579 47.6174 90.8579C50.4641 90.8579 52.8551 92.8454 53.4756 95.5058H41.7594ZM50.0395 8.0708C49.0055 7.03701 47.6309 6.46768 46.1689 6.46768C44.7068 6.46768 43.3322 7.03701 42.2984 8.0708C41.2645 9.10478 40.6949 10.4794 40.6949 11.9415C40.6949 13.4036 41.2645 14.7782 42.2982 15.8122C43.3322 16.846 44.7068 17.4153 46.1689 17.4153C47.6309 17.4153 49.0055 16.846 50.0395 15.8122C51.0734 14.7784 51.643 13.4036 51.643 11.9415C51.643 10.4794 51.0734 9.10478 50.0395 8.0708ZM48.1062 13.8788C47.5889 14.3962 46.9006 14.6812 46.1689 14.6812C45.4371 14.6812 44.749 14.3962 44.2316 13.8788C43.7143 13.3614 43.4293 12.6733 43.4293 11.9417C43.4293 11.2101 43.7143 10.5218 44.2316 10.0044C44.7488 9.48701 45.4371 9.20205 46.1689 9.20205C46.9006 9.20205 47.5889 9.48701 48.1062 10.0044C48.6236 10.5218 48.9086 11.2099 48.9086 11.9417C48.9086 12.6735 48.6236 13.3612 48.1062 13.8788ZM24.5221 42.2565C26.8746 39.9042 26.8746 36.0765 24.5221 33.7239C22.1699 31.3716 18.3418 31.3716 15.9896 33.7239C13.6371 36.0763 13.6371 39.904 15.9896 42.2565C17.1656 43.4327 18.7109 44.0208 20.2559 44.0208C21.8008 44.0208 23.3459 43.4327 24.5221 42.2565ZM16.9566 37.9901C16.9566 37.1089 17.3 36.2806 17.9229 35.6573C18.5459 35.0343 19.3746 34.6911 20.2557 34.6911C21.1367 34.6911 21.9654 35.0343 22.5885 35.6573C23.2113 36.2804 23.5547 37.1089 23.5547 37.9901C23.5547 38.8714 23.2113 39.6997 22.5885 40.3229C21.9654 40.946 21.1367 41.2892 20.2557 41.2892C19.3746 41.2892 18.5459 40.946 17.9229 40.3229C17.3 39.6999 16.9566 38.8714 16.9566 37.9901ZM70.6377 32.5575C71.1715 33.0913 71.1715 33.9571 70.6377 34.4909C70.1037 35.0247 69.2381 35.0247 68.7041 34.4909C68.1703 33.9569 68.1703 33.0913 68.7041 32.5575C69.2381 32.0237 70.1037 32.0237 70.6377 32.5575Z" fill="black"/>
</svg>
