<svg width="100" height="100" viewBox="0 0 100 100" fill="none" xmlns="http://www.w3.org/2000/svg">
<path d="M68.75 21.875H31.25C30.0068 21.875 28.8145 22.3689 27.9354 23.2479C27.0564 24.127 26.5625 25.3193 26.5625 26.5625V73.4375C26.5625 74.6807 27.0564 75.873 27.9354 76.7521C28.8145 77.6311 30.0068 78.125 31.25 78.125H68.75C69.9932 78.125 71.1855 77.6311 72.0646 76.7521C72.9436 75.873 73.4375 74.6807 73.4375 73.4375V26.5625C73.4375 25.3193 72.9436 24.127 72.0646 23.2479C71.1855 22.3689 69.9932 21.875 68.75 21.875ZM70.3125 73.4375C70.3125 73.8519 70.1479 74.2493 69.8549 74.5424C69.5618 74.8354 69.1644 75 68.75 75H31.25C30.8356 75 30.4382 74.8354 30.1451 74.5424C29.8521 74.2493 29.6875 73.8519 29.6875 73.4375V54.6875H36.6641L39.3203 58.6797C39.4485 58.8718 39.6178 59.0331 39.8158 59.152C40.0138 59.2709 40.2358 59.3444 40.4656 59.3672C40.5185 59.3731 40.5718 59.3757 40.625 59.375C41.0394 59.3749 41.4367 59.2102 41.7297 58.9172L46.875 53.7719L50.4578 57.3547C50.6256 57.5225 50.8295 57.6498 51.0539 57.727C51.2783 57.8043 51.5173 57.8294 51.7528 57.8005C51.9884 57.7715 52.2142 57.6894 52.4133 57.5601C52.6123 57.4309 52.7793 57.2581 52.9016 57.0547L56.3187 51.3594L58.075 53.9922C58.2177 54.2061 58.4111 54.3815 58.6378 54.5028C58.8646 54.6241 59.1178 54.6875 59.375 54.6875H70.3125V73.4375ZM70.3125 51.5625H60.2109L57.5547 47.5703C57.4138 47.3448 57.2148 47.1613 56.9787 47.039C56.7426 46.9167 56.478 46.8601 56.2125 46.875C55.9493 46.8814 55.6919 46.9543 55.4644 47.0867C55.2368 47.2192 55.0465 47.4071 54.9109 47.6328L51.2516 53.7266L47.9797 50.4547C47.6867 50.1618 47.2893 49.9972 46.875 49.9972C46.4607 49.9972 46.0633 50.1618 45.7703 50.4547L40.8672 55.3594L38.8 52.2578C38.6573 52.0439 38.4639 51.8685 38.2372 51.7472C38.0104 51.6259 37.7572 51.5625 37.5 51.5625H29.6875V26.5625C29.6875 26.1481 29.8521 25.7507 30.1451 25.4576C30.4382 25.1646 30.8356 25 31.25 25H68.75C69.1644 25 69.5618 25.1646 69.8549 25.4576C70.1479 25.7507 70.3125 26.1481 70.3125 26.5625V51.5625Z" fill="black"/>
<path d="M72.8922 15.7281L67.0313 3.98909C66.9009 3.72816 66.7001 3.50893 66.4515 3.35623C66.203 3.20352 65.9167 3.12343 65.625 3.12502H34.375C34.0846 3.12489 33.8 3.20566 33.553 3.35829C33.306 3.51091 33.1064 3.72935 32.9766 3.98909L27.1078 15.7281C25.2332 15.9713 23.5106 16.8871 22.2607 18.3052C21.0107 19.7233 20.3184 21.5472 20.3125 23.4375V76.5625C20.3184 78.4529 21.0107 80.2767 22.2607 81.6948C23.5106 83.1129 25.2332 84.0287 27.1078 84.2719L32.9766 96.011C33.1064 96.2707 33.306 96.4891 33.553 96.6418C33.8 96.7944 34.0846 96.8752 34.375 96.875H65.625C65.9167 96.8766 66.203 96.7965 66.4515 96.6438C66.7001 96.4911 66.9009 96.2719 67.0313 96.011L72.9 84.2719C74.7732 84.027 76.4939 83.1105 77.7423 81.6925C78.9906 80.2746 79.6819 78.4517 79.6875 76.5625V23.4375C79.6816 21.5472 78.9893 19.7233 77.7393 18.3052C76.4894 16.8871 74.7668 15.9713 72.8922 15.7281ZM32.2156 12.5H39.0625V9.37502H33.7781L35.3406 6.25002H64.6594L69.3469 15.625H30.6531L32.2156 12.5ZM64.6594 93.75H35.3406L30.6531 84.375H69.3469L64.6594 93.75ZM76.5625 76.5625C76.5625 77.8057 76.0686 78.998 75.1896 79.8771C74.3105 80.7562 73.1182 81.25 71.875 81.25H28.125C26.8818 81.25 25.6895 80.7562 24.8104 79.8771C23.9314 78.998 23.4375 77.8057 23.4375 76.5625V23.4375C23.4375 22.1943 23.9314 21.002 24.8104 20.123C25.6895 19.2439 26.8818 18.75 28.125 18.75H71.875C73.1182 18.75 74.3105 19.2439 75.1896 20.123C76.0686 21.002 76.5625 22.1943 76.5625 23.4375V76.5625Z" fill="black"/>
<path d="M45.3125 9.375H42.1875V12.5H45.3125V9.375Z" fill="black"/>
<path d="M62.5 87.5H59.375V90.625H62.5V87.5Z" fill="black"/>
<path d="M15.625 42.1875L14.4047 41.2109C12.4147 43.7082 11.3311 46.8068 11.3311 50C11.3311 53.1932 12.4147 56.2918 14.4047 58.7891L16.8453 56.8359C11.4734 50.1172 16.6265 43.4406 16.8453 43.1594L15.625 42.1875Z" fill="black"/>
<path d="M9.37525 39.0621L8.10337 38.1543C8.01899 38.273 -0.260693 50.1355 8.10337 61.8449L10.6471 60.0293C3.594 50.1559 10.3565 40.3793 10.6487 39.9684L9.37525 39.0621Z" fill="black"/>
<path d="M85.2484 58.7891C87.2384 56.2918 88.322 53.1932 88.322 50C88.322 46.8068 87.2384 43.7082 85.2484 41.2109L82.8125 43.1641C83.0359 43.4422 88.2203 50.0781 82.8125 56.8359L85.2484 58.7891Z" fill="black"/>
<path d="M91.5502 61.8449C99.9143 50.1355 91.6346 38.273 91.5502 38.1543L89.0049 39.9684C89.2955 40.3793 96.0564 50.1605 89.0049 60.0293L91.5502 61.8449Z" fill="black"/>
<path d="M43.7505 29.3059C42.3808 28.4792 40.7838 28.1094 39.1902 28.2498C37.5966 28.3903 36.0889 29.0337 34.8849 30.0872C34.2079 30.7538 33.6717 31.5496 33.308 32.4274C32.9443 33.3052 32.7606 34.247 32.7678 35.1971C32.7749 36.1472 32.9728 37.0862 33.3496 37.9584C33.7264 38.8306 34.2745 39.6182 34.9614 40.2747L43.7505 47.3137L52.6161 40.2168C53.2867 39.5556 53.8191 38.7677 54.1826 37.8988C54.546 37.03 54.7331 36.0977 54.7331 35.1559C54.7331 34.2141 54.546 33.2818 54.1826 32.413C53.8191 31.5442 53.2867 30.7562 52.6161 30.095C51.4131 29.0401 49.9058 28.3951 48.3121 28.2532C46.7184 28.1114 45.1209 28.48 43.7505 29.3059ZM50.5864 37.8418L43.7505 43.3122L36.9911 37.9075C36.2858 37.165 35.8926 36.18 35.8926 35.1559C35.8926 34.1318 36.2858 33.1468 36.9911 32.4043C37.7849 31.7215 38.7972 31.346 39.8442 31.346C40.8913 31.346 41.9036 31.7215 42.6974 32.4043L43.7505 33.3637L44.8036 32.4043C45.5974 31.7215 46.6097 31.346 47.6567 31.346C48.7038 31.346 49.7161 31.7215 50.5099 32.4043C51.2019 33.1361 51.5939 34.1011 51.6081 35.1082C51.6223 36.1152 51.2576 37.0909 50.5864 37.8418Z" fill="black"/>
<path d="M40.625 62.5H34.375C33.9606 62.5 33.5632 62.6646 33.2701 62.9576C32.9771 63.2507 32.8125 63.6481 32.8125 64.0625V70.3125C32.8125 70.7269 32.9771 71.1243 33.2701 71.4174C33.5632 71.7104 33.9606 71.875 34.375 71.875H40.625C41.0394 71.875 41.4368 71.7104 41.7299 71.4174C42.0229 71.1243 42.1875 70.7269 42.1875 70.3125V64.0625C42.1875 63.6481 42.0229 63.2507 41.7299 62.9576C41.4368 62.6646 41.0394 62.5 40.625 62.5ZM39.0625 68.75H35.9375V65.625H39.0625V68.75Z" fill="black"/>
<path d="M60.9375 68.75H45.3125V71.875H60.9375V68.75Z" fill="black"/>
<path d="M57.8125 62.5H45.3125V65.625H57.8125V62.5Z" fill="black"/>
<path d="M67.1875 68.75H64.0625V71.875H67.1875V68.75Z" fill="black"/>
<path d="M65.625 29.6875H59.375V32.8125H65.625V29.6875Z" fill="black"/>
<path d="M65.625 35.9375H59.375V39.0625H65.625V35.9375Z" fill="black"/>
</svg>
