<svg width="55" height="55" viewBox="0 0 55 55" fill="none" xmlns="http://www.w3.org/2000/svg">
<g clip-path="url(#clip0_43_324)">
<path d="M54.3379 30.7381L52.5046 30.2569L53.4442 28.6298C53.6573 28.2838 53.6 27.8346 53.3067 27.5527L48.9296 23.1756C48.6477 22.8823 48.1985 22.825 47.8525 23.0381L46.2254 23.9777L45.7442 22.1444C45.6319 21.7548 45.279 21.4844 44.8733 21.4798H43.4754V13.3833V4.44583C43.4777 1.99375 41.4908 0.00229167 39.0388 0H39.0342H15.9708C14.9694 0.00458333 13.9977 0.350625 13.2208 0.980833C12.1575 1.81271 11.5365 3.08458 11.5296 4.43437V7.10417H10.1317C9.72604 7.10875 9.37313 7.37917 9.26084 7.76875L8.77959 9.60208L7.1525 8.6625C6.80646 8.44938 6.35729 8.50667 6.07542 8.8L1.69834 13.1702C1.405 13.4521 1.34771 13.9013 1.56084 14.2473L2.50042 15.8744L0.667086 16.3556C0.486044 16.4106 0.325627 16.5206 0.208752 16.6696C0.0781274 16.8254 0.00479411 17.0225 0.00250244 17.2265V23.414C0.00479411 23.815 0.277503 24.1633 0.667086 24.2619H0.692294L2.50042 24.7592L1.56084 26.3863C1.52417 26.4756 1.50354 26.5719 1.49896 26.6704C1.42334 26.9523 1.49896 27.2525 1.69834 27.4633L2.04209 27.8048L6.07542 31.8542C6.36188 32.136 6.80417 32.1933 7.1525 31.9917L8.77959 31.0521L9.26084 32.8625C9.37313 33.2521 9.72604 33.5225 10.1317 33.5271H11.5342V50.5725C11.541 53.0177 13.5233 54.9977 15.9708 55H39.0342C39.5017 54.9931 39.9669 54.9129 40.4092 54.7594C42.2288 54.1681 43.4617 52.4769 43.4685 50.5656V47.8958H44.871C45.2767 47.8913 45.6296 47.6208 45.7419 47.2313L46.2231 45.4208L47.8502 46.3604C48.1985 46.5621 48.6408 46.5048 48.9273 46.2229L53.3044 41.8458C53.5954 41.5617 53.6527 41.1148 53.4419 40.7688L52.5023 39.1417L54.2623 38.6581L54.3356 38.6375C54.7252 38.539 54.9979 38.1906 55.0002 37.7896V31.6021C54.991 31.201 54.7229 30.8504 54.3379 30.7381ZM11.5342 24.8623C11.5044 24.8508 11.47 24.8463 11.4379 24.8348C8.93771 23.8585 7.7025 21.0421 8.67646 18.5419C9.16917 17.2769 10.1706 16.2754 11.4356 15.7827C11.47 15.769 11.5044 15.7644 11.5342 15.7529V24.8623ZM11.5342 13.8829C11.5021 13.8829 11.47 13.8829 11.4379 13.9035C7.89959 14.8821 5.82563 18.5442 6.80417 22.0802C7.4275 24.3306 9.18521 26.0906 11.4379 26.714L11.5342 26.7346V31.7327L10.8192 31.7373L10.3608 30.0873C10.2875 29.8054 10.0813 29.5763 9.81084 29.4685C9.58167 29.3975 9.35938 29.3035 9.14625 29.1935C8.87813 29.0813 8.57563 29.0996 8.32125 29.2394L6.85459 30.0873L3.44 26.691L4.31084 25.2083C4.44375 24.9517 4.45292 24.6469 4.33375 24.3833C4.22375 24.1702 4.12979 23.9479 4.05875 23.7188C3.95792 23.4438 3.72417 23.2375 3.44 23.1688L1.79 22.7333V17.9208L3.44 17.4625C3.72417 17.3938 3.95792 17.1875 4.05875 16.9125C4.13438 16.6856 4.22604 16.4633 4.33375 16.2479C4.45292 15.9844 4.44375 15.6796 4.31084 15.4229L3.44 13.9563L6.85459 10.5417L8.32125 11.4125C8.57792 11.5454 8.88271 11.5546 9.14625 11.4354C9.37542 11.3438 9.58167 11.2521 9.81084 11.1604C10.0904 11.0642 10.299 10.8304 10.3608 10.5417L10.8192 8.91458H11.5342V13.8829ZM41.6971 50.5588C41.6994 52.03 40.5054 53.224 39.0342 53.2262H15.9708C14.5019 53.224 13.3102 52.0346 13.3079 50.5656V47.8958H41.6971V50.5588ZM41.6971 13.3833V43.6104V46.1312H13.3079V15.0815V8.87104H41.6971V13.3833ZM41.6971 7.10417H13.3079V4.43437C13.3102 2.96542 14.5019 1.77604 15.9708 1.77375H39.0342C40.5031 1.77604 41.6948 2.96542 41.6971 4.43437V7.10417ZM51.565 37.5444C51.2808 37.6131 51.0471 37.8194 50.9463 38.0944C50.8752 38.3235 50.7813 38.5458 50.6713 38.759C50.5521 39.0225 50.5613 39.3273 50.6942 39.584L51.565 41.0735L48.1481 44.4583L46.6815 43.6104C46.4271 43.4706 46.1246 43.4546 45.8565 43.5646C45.6433 43.6746 45.421 43.7685 45.1919 43.8396C44.9215 43.9473 44.7152 44.1765 44.6419 44.4583L44.1835 46.1083H43.4685V43.6104V41.1171C43.4983 41.1171 43.5304 41.1171 43.5602 41.0965C47.0985 40.1179 49.1725 36.4558 48.194 32.9198C47.5706 30.6694 45.8129 28.9094 43.5602 28.286L43.4685 28.2677V23.2902H44.179L44.6373 24.9173C44.6992 25.206 44.9077 25.4421 45.1873 25.536C45.4165 25.6277 45.6227 25.7194 45.8519 25.811C46.1154 25.9302 46.4202 25.921 46.6769 25.7881L48.1435 24.9173L51.5581 28.3319L50.6873 29.7985C50.5544 30.0552 50.5452 30.36 50.6644 30.6235C50.7721 30.839 50.8638 31.0613 50.9394 31.2881C51.0402 31.5631 51.274 31.7694 51.5581 31.8381L53.2081 32.2965V37.109H53.2127L51.565 37.5444ZM43.4754 39.2448V30.1377C43.5052 30.1492 43.5373 30.1538 43.5671 30.1652C45.389 30.9535 46.5944 32.7204 46.6608 34.7027C46.6608 36.701 45.4302 38.4954 43.5671 39.2173C43.535 39.231 43.5052 39.2333 43.4754 39.2448Z" fill="#1B1B1B"/>
<path d="M24.75 51.4571C24.7798 51.4594 24.8096 51.4594 24.8394 51.4571H30.1606C30.6533 51.4823 31.0727 51.1019 31.0979 50.6092C31.1231 50.1165 30.7427 49.6971 30.25 49.6719C30.2202 49.6696 30.1904 49.6696 30.1583 49.6719H24.8417C24.349 49.6467 23.9296 50.0271 23.9044 50.5198C23.8769 51.0125 24.2573 51.4319 24.75 51.4571Z" fill="#1B1B1B"/>
<path d="M29.8742 3.54053H25.7033C25.2083 3.56574 24.8279 3.9874 24.8531 4.48011C24.8761 4.93844 25.2427 5.3074 25.7033 5.33032H29.8742C30.3692 5.30511 30.7496 4.88344 30.7244 4.39074C30.6992 3.93011 30.3325 3.56344 29.8742 3.54053Z" fill="#1B1B1B"/>
<path d="M22.0894 3.49928C21.5715 3.49699 21.1521 3.91636 21.1498 4.43428C21.1475 4.95219 21.5669 5.37157 22.0848 5.37386C22.6027 5.37615 23.0221 4.95678 23.0244 4.43886V4.43428C23.0244 3.91865 22.605 3.49928 22.0894 3.49928Z" fill="#1B1B1B"/>
<path d="M16.8529 38.5185H38.1654C38.6558 38.5139 39.05 38.1174 39.0477 37.627C39.05 37.1343 38.6512 36.7355 38.1585 36.7332H38.1539H16.8529C16.3648 36.7264 15.9637 37.1182 15.9569 37.6064C15.9546 37.831 16.0371 38.0487 16.1906 38.216C16.3556 38.4085 16.5985 38.5185 16.8529 38.5185Z" fill="#1B1B1B"/>
<path d="M16.7612 43.0078C16.791 43.0101 16.8208 43.0101 16.8506 43.0078H38.1631C38.6535 43.0032 39.0477 42.6045 39.0454 42.1141C39.0454 41.6214 38.6467 41.2226 38.154 41.2226H16.8529C16.3602 41.1974 15.9408 41.5778 15.9156 42.0705C15.8881 42.5632 16.2685 42.9826 16.7612 43.0078Z" fill="#1B1B1B"/>
<path d="M19.7519 30.5938C20.2377 31.0911 20.7763 31.538 21.356 31.923C25.0754 34.398 29.92 34.398 33.6394 31.923C33.7196 31.868 33.786 31.7924 33.8685 31.7351C34.3613 31.3959 34.8219 31.0132 35.2435 30.5893C37.3565 28.5313 38.5458 25.7057 38.5435 22.7563C38.5298 22.2224 38.4748 21.6907 38.3808 21.1659C37.5169 15.1411 31.9344 10.9565 25.9096 11.8205C19.8848 12.6845 15.6979 18.267 16.5619 24.2918C16.9033 26.6843 18.024 28.9003 19.7519 30.5938ZM27.5023 31.9918C25.4031 31.9963 23.3658 31.2859 21.7273 29.9751C22.896 26.7851 26.4298 25.1488 29.6198 26.3176C31.3179 26.9409 32.6563 28.277 33.2773 29.9751C31.6365 31.2859 29.5992 31.9963 27.5023 31.9918ZM24.5644 21.2668C24.5644 19.6465 25.8775 18.3334 27.4977 18.3334H27.5023C29.1202 18.3357 30.431 19.6488 30.431 21.2668C30.431 22.887 29.1179 24.2001 27.4977 24.2001C25.8775 24.2001 24.5644 22.887 24.5644 21.2668ZM27.4771 13.4774C32.5898 13.4659 36.7446 17.6024 36.756 22.7151C36.7606 24.8807 36.0067 26.9776 34.6248 28.6436C34.2329 27.8484 33.715 27.1197 33.0894 26.4895C32.3629 25.7699 31.5081 25.1947 30.5685 24.7936C32.5165 23.0978 32.7181 20.1438 31.0223 18.1982C29.3265 16.2503 26.3725 16.0486 24.4269 17.7445C22.4813 19.4403 22.2773 22.3943 23.9731 24.3399C24.1129 24.5003 24.2665 24.6538 24.4269 24.7936C23.4873 25.1947 22.6325 25.7699 21.906 26.4895C21.2804 27.1197 20.7625 27.8484 20.3706 28.6436C18.991 26.9913 18.2371 24.9059 18.2394 22.754C18.2279 17.6436 22.3644 13.4888 27.4771 13.4774Z" fill="#1B1B1B"/>
</g>
<defs>
<clipPath id="clip0_43_324">
<rect width="55" height="55" fill="white"/>
</clipPath>
</defs>
</svg>
