<svg width="55" height="55" viewBox="0 0 55 55" fill="none" xmlns="http://www.w3.org/2000/svg">
<path d="M50.6388 0H28.2501C25.9066 0 24 1.90663 24 4.25004V50.7499C24 53.0934 25.9066 54.9999 28.2501 54.9999H50.6389C52.9824 54.9999 54.8891 53.0933 54.8891 50.7499V4.25004C54.8889 1.90663 52.9824 0 50.6388 0ZM34.2224 1.61133H44.6666V2.52785C44.6666 3.03327 44.2554 3.44437 43.75 3.44437H35.139C34.6336 3.44437 34.2225 3.03316 34.2225 2.52785V1.61133H34.2224ZM53.2776 50.75C53.2776 52.205 52.0938 53.3887 50.6388 53.3887H28.2501C26.7951 53.3887 25.6113 52.2049 25.6113 50.75V4.25004C25.6113 2.79501 26.7951 1.61133 28.2501 1.61133H32.6112V2.52785C32.6112 3.92176 33.7452 5.0557 35.139 5.0557H43.75C45.144 5.0557 46.2779 3.92165 46.2779 2.52785V1.61133H50.6389C52.0939 1.61133 53.2777 2.79512 53.2777 4.25004V50.75H53.2776Z" fill="black"/>
<path d="M29.1667 18.8438V29.7813C29.1667 30.0692 29.3203 30.3351 29.5695 30.479L39.0417 35.9478C39.1663 36.0197 39.3054 36.0557 39.4445 36.0557C39.5836 36.0557 39.7227 36.0197 39.8473 35.9478L49.3195 30.479C49.5687 30.3351 49.7223 30.0692 49.7223 29.7813V18.8438C49.7223 18.556 49.5687 18.2901 49.3195 18.1461L39.8473 12.6773C39.5981 12.5333 39.2909 12.5333 39.0417 12.6773L29.5695 18.1461C29.3202 18.2901 29.1667 18.556 29.1667 18.8438ZM40.2502 33.8547V24.7777L48.111 20.2393V29.3162L40.2502 33.8547ZM30.778 19.309L39.4445 14.3053L47.3053 18.8438L39.4445 23.3823L33.7466 20.0926C33.3612 19.87 32.8686 20.0022 32.6461 20.3875C32.4236 20.7728 32.5556 21.2656 32.941 21.488L38.6388 24.7777V33.8547L30.778 29.3162V19.309Z" fill="black"/>
<path d="M30.8335 11.9446H32.5556C33.9495 11.9446 35.0835 10.8106 35.0835 9.41677C35.0835 8.02297 33.9494 6.88892 32.5556 6.88892H30.8335C29.4395 6.88892 28.3056 8.02297 28.3056 9.41677C28.3056 10.8106 29.4395 11.9446 30.8335 11.9446ZM30.8335 8.50024H32.5556C33.0611 8.50024 33.4722 8.91146 33.4722 9.41677C33.4722 9.92208 33.061 10.3333 32.5556 10.3333H30.8335C30.328 10.3333 29.9169 9.92208 29.9169 9.41677C29.9169 8.91146 30.328 8.50024 30.8335 8.50024Z" fill="black"/>
<path d="M48.0555 6.88892H46.3333C44.9394 6.88892 43.8055 8.02297 43.8055 9.41677C43.8055 10.8106 44.9395 11.9446 46.3333 11.9446H48.0555C49.4494 11.9446 50.5834 10.8106 50.5834 9.41677C50.5834 8.02297 49.4494 6.88892 48.0555 6.88892ZM48.0555 10.3333H46.3333C45.8279 10.3333 45.4168 9.92208 45.4168 9.41677C45.4168 8.91146 45.828 8.50024 46.3333 8.50024H48.0555C48.5609 8.50024 48.972 8.91146 48.972 9.41677C48.972 9.92208 48.5609 10.3333 48.0555 10.3333Z" fill="black"/>
<path d="M49.7777 39.6109H34.9511C34.6139 38.611 33.6679 37.8887 32.5556 37.8887C31.4434 37.8887 30.4974 38.611 30.1601 39.6109H29.1111C28.6662 39.6109 28.3055 39.9716 28.3055 40.4165C28.3055 40.8615 28.6662 41.2222 29.1111 41.2222H30.1601C30.4973 42.2222 31.4434 42.9445 32.5556 42.9445C33.6679 42.9445 34.6138 42.2222 34.9511 41.2222H49.7778C50.2228 41.2222 50.5835 40.8615 50.5835 40.4165C50.5835 39.9716 50.2227 39.6109 49.7777 39.6109ZM32.5556 41.333C32.0502 41.333 31.6391 40.9218 31.6391 40.4164C31.6391 39.911 32.0503 39.4999 32.5556 39.4999C33.0609 39.4999 33.4722 39.9111 33.4722 40.4164C33.4722 40.9219 33.061 41.333 32.5556 41.333Z" fill="black"/>
<path d="M49.7777 46.4998H48.7288C48.3916 45.4999 47.4455 44.7776 46.3332 44.7776C45.221 44.7776 44.275 45.4999 43.9377 46.4998H29.1113C28.6663 46.4998 28.3056 46.8605 28.3056 47.3054C28.3056 47.7504 28.6663 48.1111 29.1113 48.1111H43.938C44.2752 49.111 45.2212 49.8333 46.3335 49.8333C47.4457 49.8333 48.3917 49.111 48.729 48.1111H49.7779C50.2229 48.1111 50.5836 47.7504 50.5836 47.3054C50.5836 46.8605 50.2227 46.4998 49.7777 46.4998ZM46.3334 48.222C45.8279 48.222 45.4168 47.8108 45.4168 47.3054C45.4168 46.8001 45.828 46.3889 46.3334 46.3889C46.8387 46.3889 47.2499 46.8001 47.2499 47.3054C47.2499 47.8108 46.8387 48.222 46.3334 48.222Z" fill="black"/>
</svg>
