<svg width="55" height="55" viewBox="0 0 55 55" fill="none" xmlns="http://www.w3.org/2000/svg">
<path d="M30.0781 25.7812C31.4961 25.7812 32.6562 24.6211 32.6562 23.2031V4.29688C32.6562 2.87891 31.4961 1.71875 30.0781 1.71875H4.29688C2.87891 1.71875 1.71875 2.87891 1.71875 4.29688V23.2031C1.71875 24.6211 2.87891 25.7812 4.29688 25.7812H30.0781ZM3.4375 4.29688C3.4375 3.82422 3.82422 3.4375 4.29688 3.4375H30.0781C30.5508 3.4375 30.9375 3.82422 30.9375 4.29688V9.45312H3.4375V4.29688ZM3.4375 23.2031V11.1719H30.9375V23.2031C30.9375 23.6758 30.5508 24.0625 30.0781 24.0625H4.29688C3.82422 24.0625 3.4375 23.6758 3.4375 23.2031Z" fill="black"/>
<path d="M35.2344 15.4688H42.1094C44.4813 15.4688 46.4063 17.3937 46.4063 19.7656V24.5695L44.4383 22.6016C44.1031 22.2664 43.5617 22.2664 43.2266 22.6016C42.8914 22.9367 42.8914 23.4781 43.2266 23.8133L46.6641 27.2508C46.836 27.4227 47.0508 27.5 47.2742 27.5C47.4977 27.5 47.7125 27.4141 47.8844 27.2508L51.3219 23.8133C51.6571 23.4781 51.6571 22.9367 51.3219 22.6016C50.9867 22.2664 50.4453 22.2664 50.1102 22.6016L48.1422 24.5695V19.7656C48.1422 16.4484 45.4438 13.75 42.1266 13.75H35.2516C34.7789 13.75 34.3922 14.1367 34.3922 14.6094C34.3922 15.082 34.7789 15.4688 35.2516 15.4688H35.2344Z" fill="black"/>
<path d="M19.6797 39.4453H12.8047C10.4328 39.4453 8.50784 37.5203 8.50784 35.1484V30.3445L10.4758 32.3125C10.6477 32.4843 10.8625 32.5617 11.086 32.5617C11.3094 32.5617 11.5242 32.4757 11.6961 32.3125C12.0313 31.9773 12.0313 31.4359 11.6961 31.1007L8.25862 27.6632C7.92346 27.3281 7.38206 27.3281 7.0469 27.6632L3.6094 31.1007C3.27424 31.4359 3.27424 31.9773 3.6094 32.3125C3.94456 32.6476 4.48596 32.6476 4.82112 32.3125L6.78909 30.3445V35.1484C6.78909 38.4656 9.48752 41.164 12.8047 41.164H19.6797C20.1524 41.164 20.5391 40.7773 20.5391 40.3046C20.5391 39.832 20.1524 39.4453 19.6797 39.4453Z" fill="black"/>
<path d="M27.9297 7.73438C28.6416 7.73438 29.2188 7.15724 29.2188 6.44531C29.2188 5.73338 28.6416 5.15625 27.9297 5.15625C27.2178 5.15625 26.6406 5.73338 26.6406 6.44531C26.6406 7.15724 27.2178 7.73438 27.9297 7.73438Z" fill="black"/>
<path d="M23.6328 7.73438C24.3447 7.73438 24.9219 7.15724 24.9219 6.44531C24.9219 5.73338 24.3447 5.15625 23.6328 5.15625C22.9209 5.15625 22.3438 5.73338 22.3438 6.44531C22.3438 7.15724 22.9209 7.73438 23.6328 7.73438Z" fill="black"/>
<path d="M50.7031 29.2188H24.9219C23.5039 29.2188 22.3438 30.3789 22.3438 31.7969V50.7031C22.3438 52.1211 23.5039 53.2812 24.9219 53.2812H50.7031C52.1211 53.2812 53.2812 52.1211 53.2812 50.7031V31.7969C53.2812 30.3789 52.1211 29.2188 50.7031 29.2188ZM24.0625 31.7969C24.0625 31.3242 24.4492 30.9375 24.9219 30.9375H50.7031C51.1758 30.9375 51.5625 31.3242 51.5625 31.7969V36.9531H24.0625V31.7969ZM50.7031 51.5625H24.9219C24.4492 51.5625 24.0625 51.1758 24.0625 50.7031V38.6719H51.5625V50.7031C51.5625 51.1758 51.1758 51.5625 50.7031 51.5625Z" fill="black"/>
<path d="M48.5547 35.2344C49.2666 35.2344 49.8438 34.6572 49.8438 33.9453C49.8438 33.2334 49.2666 32.6562 48.5547 32.6562C47.8428 32.6562 47.2656 33.2334 47.2656 33.9453C47.2656 34.6572 47.8428 35.2344 48.5547 35.2344Z" fill="black"/>
<path d="M44.2578 35.2344C44.9697 35.2344 45.5469 34.6572 45.5469 33.9453C45.5469 33.2334 44.9697 32.6562 44.2578 32.6562C43.5459 32.6562 42.9688 33.2334 42.9688 33.9453C42.9688 34.6572 43.5459 35.2344 44.2578 35.2344Z" fill="black"/>
</svg>
