<svg width="55" height="55" viewBox="0 0 55 55" fill="none" xmlns="http://www.w3.org/2000/svg">
<path d="M32.1761 53.929H6.08016C3.71248 53.929 1.78748 52.0029 1.78748 49.6363V5.52901C1.78748 3.16133 3.71359 1.23633 6.08016 1.23633H32.175C34.5427 1.23633 36.4677 3.16245 36.4677 5.52901V14.547C36.4677 15.021 36.0831 15.4055 35.6091 15.4055C35.1351 15.4055 34.7506 15.021 34.7506 14.547V5.52901C34.7506 4.10818 33.5947 2.9534 32.175 2.9534H6.08016C4.65933 2.9534 3.50455 4.1093 3.50455 5.52901V49.6352C3.50455 51.056 4.66044 52.2108 6.08016 52.2108H32.175C33.5958 52.2108 34.7506 51.0549 34.7506 49.6352V35.2905C34.7506 34.8165 35.1351 34.432 35.6091 34.432C36.0831 34.432 36.4677 34.8165 36.4677 35.2905V49.6363C36.4688 52.0029 34.5427 53.929 32.1761 53.929Z" fill="black"/>
<path d="M48.7745 43.1301C48.078 43.1301 47.3995 42.9166 46.8003 42.4974C33.0827 32.9328 28.2601 32.9328 14.5426 42.4974C13.6516 43.119 12.5885 43.2889 11.5489 42.9781C10.5092 42.6673 9.71441 41.9407 9.31086 40.9324C7.48647 36.3658 6.09134 26.7788 17.2534 13.8795C19.8223 10.954 22.4382 12.1323 24.9691 13.2714C26.6057 14.0081 28.4591 14.8431 30.6725 14.9013C32.8848 14.8431 34.7394 14.0081 36.3749 13.2714C38.9047 12.1323 41.5216 10.954 44.0861 13.8751C55.2515 26.7788 53.8575 36.3658 52.032 40.9324C51.6284 41.9407 50.8347 42.6673 49.794 42.9781C49.4541 43.0798 49.1121 43.1301 48.7745 43.1301ZM30.6714 33.5979C35.9736 33.5979 41.1494 36.4642 47.7818 41.0889C48.2468 41.4131 48.7577 41.4947 49.301 41.3326C49.8443 41.1705 50.2266 40.8206 50.4368 40.2941C52.117 36.0897 53.3567 27.2137 42.7904 15.0019C41.1415 13.1238 39.7733 13.6224 37.0791 14.8353C35.2894 15.6413 33.2604 16.5546 30.6927 16.6161C30.6781 16.6161 30.6647 16.6161 30.6513 16.6161C28.0824 16.5535 26.0534 15.6402 24.2648 14.8353C21.5707 13.6224 20.2024 13.1227 18.5491 15.0064C7.98616 27.2137 9.22701 36.0897 10.9072 40.2929C11.1174 40.8195 11.4997 41.1682 12.043 41.3315C12.5863 41.4936 13.0971 41.4119 13.5622 41.0878C20.1935 36.4642 25.3693 33.5979 30.6714 33.5979Z" fill="black"/>
<path d="M22.0067 27.775H18.8587C18.3847 27.775 18.0002 27.3904 18.0002 26.9164V26.201H17.2847C16.8108 26.201 16.4262 25.8164 16.4262 25.3425V22.1945C16.4262 21.7205 16.8108 21.3359 17.2847 21.3359H18.0002V20.6205C18.0002 20.1465 18.3847 19.762 18.8587 19.762H22.0067C22.4807 19.762 22.8652 20.1465 22.8652 20.6205V21.3359H23.5807C24.0547 21.3359 24.4392 21.7205 24.4392 22.1945V25.3425C24.4392 25.8164 24.0547 26.201 23.5807 26.201H22.8652V26.9164C22.8652 27.3904 22.4807 27.775 22.0067 27.775ZM19.7173 26.0579H21.1482V25.3425C21.1482 24.8685 21.5327 24.4839 22.0067 24.4839H22.7221V23.053H22.0067C21.5327 23.053 21.1482 22.6685 21.1482 22.1945V21.479H19.7173V22.1945C19.7173 22.6685 19.3327 23.053 18.8587 23.053H18.1433V24.4839H18.8587C19.3327 24.4839 19.7173 24.8685 19.7173 25.3425V26.0579Z" fill="black"/>
<path d="M20.7043 38.4127C20.3231 38.4127 19.9755 38.1567 19.8738 37.771C19.3103 35.6124 17.8057 33.8685 15.7476 32.9865C13.6796 32.1 11.3745 32.2129 9.42376 33.2928C9.00902 33.5231 8.48697 33.3721 8.25669 32.9574C8.0264 32.5427 8.17732 32.0206 8.59205 31.7903C11.0112 30.4511 13.8651 30.3114 16.4251 31.4069C18.975 32.4991 20.8374 34.6599 21.5361 37.3362C21.6557 37.7945 21.3807 38.264 20.9223 38.3836C20.8497 38.4026 20.777 38.4127 20.7043 38.4127Z" fill="black"/>
<path d="M16.8711 40.7446C16.8499 40.7446 16.8298 40.7435 16.8085 40.7424C16.3356 40.7077 15.9802 40.2975 16.0137 39.8246C16.1512 37.9275 14.8477 36.9047 13.6907 36.6051C12.5248 36.3032 10.8804 36.5626 10.0811 38.2875C9.88097 38.7179 9.37122 38.9046 8.94083 38.7056C8.51045 38.5066 8.32376 37.9957 8.52274 37.5653C9.68758 35.0546 12.1738 34.4386 14.12 34.9428C16.0584 35.4447 17.9253 37.1875 17.7252 39.9487C17.6939 40.4003 17.3172 40.7446 16.8711 40.7446Z" fill="black"/>
<path d="M40.9079 27.7772C40.4339 27.7772 40.0494 27.3927 40.0494 26.9187V20.6183C40.0494 20.1443 40.4339 19.7598 40.9079 19.7598C41.3819 19.7598 41.7664 20.1443 41.7664 20.6183V26.9187C41.7664 27.3927 41.3819 27.7772 40.9079 27.7772Z" fill="black"/>
<path d="M44.0592 24.627H37.7588C37.2848 24.627 36.9003 24.2424 36.9003 23.7684C36.9003 23.2945 37.2848 22.9099 37.7588 22.9099H44.0592C44.5332 22.9099 44.9177 23.2945 44.9177 23.7684C44.9177 24.2424 44.5332 24.627 44.0592 24.627Z" fill="black"/>
<path d="M35.4392 36.0944C34.9652 36.0944 34.5807 35.7098 34.5807 35.2358V33.9626C34.5807 32.5127 33.4013 31.3333 31.9514 31.3333H29.3914C27.9416 31.3333 26.7622 32.5127 26.7622 33.9626V35.2358C26.7622 35.7098 26.3776 36.0944 25.9036 36.0944C25.4297 36.0944 25.0451 35.7098 25.0451 35.2358V33.9626C25.0451 31.5658 26.9947 29.6162 29.3914 29.6162H31.9514C34.3482 29.6162 36.2977 31.5658 36.2977 33.9626V35.2358C36.2977 35.7098 35.9132 36.0944 35.4392 36.0944Z" fill="black"/>
<path d="M40.6385 38.4126C40.5669 38.4126 40.4943 38.4037 40.4205 38.3847C39.9622 38.2651 39.6872 37.7956 39.8068 37.3372C40.5055 34.661 42.369 32.5001 44.9178 31.408C47.4766 30.3113 50.3317 30.4511 52.7508 31.7914C53.1655 32.0206 53.3153 32.5437 53.0862 32.9585C52.857 33.3732 52.3338 33.523 51.9191 33.2938C49.9673 32.2128 47.6622 32.1011 45.5941 32.9875C43.5361 33.8696 42.0314 35.6135 41.468 37.7721C41.3674 38.1567 41.0197 38.4126 40.6385 38.4126Z" fill="black"/>
<path d="M44.4729 40.7447C44.0268 40.7447 43.6501 40.4004 43.6177 39.9477C43.4176 37.1854 45.2844 35.4437 47.2229 34.9418C49.1702 34.4376 51.6564 35.0536 52.8201 37.5644C53.0202 37.9947 52.8324 38.5045 52.402 38.7046C51.9716 38.9047 51.4619 38.7169 51.2618 38.2865C50.4614 36.5616 48.817 36.3023 47.6521 36.6041C46.4951 36.9037 45.1917 37.9266 45.3292 39.8236C45.3638 40.2965 45.0072 40.7079 44.5343 40.7414C44.5142 40.7447 44.493 40.7447 44.4729 40.7447Z" fill="black"/>
<path d="M28.7431 26.5386H27.2149C26.7409 26.5386 26.3564 26.1541 26.3564 25.6801C26.3564 25.2061 26.7409 24.8215 27.2149 24.8215H28.7431C29.2171 24.8215 29.6016 25.2061 29.6016 25.6801C29.6016 26.1541 29.2171 26.5386 28.7431 26.5386Z" fill="black"/>
<path d="M33.8529 26.5386H32.3248C31.8508 26.5386 31.4662 26.1541 31.4662 25.6801C31.4662 25.2061 31.8508 24.8215 32.3248 24.8215H33.8529C34.3269 24.8215 34.7115 25.2061 34.7115 25.6801C34.7115 26.1541 34.328 26.5386 33.8529 26.5386Z" fill="black"/>
<path d="M31.0828 21.763H29.5546C29.0807 21.763 28.6961 21.3784 28.6961 20.9044C28.6961 20.4305 29.0807 20.0459 29.5546 20.0459H31.0828C31.5568 20.0459 31.9413 20.4305 31.9413 20.9044C31.9413 21.3784 31.5579 21.763 31.0828 21.763Z" fill="black"/>
<path d="M35.6102 46.7185H2.64601C2.17203 46.7185 1.78748 46.334 1.78748 45.86C1.78748 45.386 2.17203 45.0015 2.64601 45.0015H35.6102C36.0842 45.0015 36.4688 45.386 36.4688 45.86C36.4688 46.334 36.0842 46.7185 35.6102 46.7185Z" fill="black"/>
<path d="M35.6102 10.1639H2.64601C2.17203 10.1639 1.78748 9.7793 1.78748 9.30531C1.78748 8.83133 2.17203 8.44678 2.64601 8.44678H35.6102C36.0842 8.44678 36.4688 8.83133 36.4688 9.30531C36.4688 9.7793 36.0842 10.1639 35.6102 10.1639Z" fill="black"/>
<path d="M21.6847 6.55863H16.5704C16.0964 6.55863 15.7119 6.17407 15.7119 5.70009C15.7119 5.22611 16.0964 4.84155 16.5704 4.84155H21.6847C22.1587 4.84155 22.5433 5.22611 22.5433 5.70009C22.5433 6.17407 22.1587 6.55863 21.6847 6.55863Z" fill="black"/>
</svg>
