<svg width="55" height="55" viewBox="0 0 55 55" fill="none" xmlns="http://www.w3.org/2000/svg">
<path d="M53.2812 31.3414L51.6106 31.0183C51.3625 30.1724 51.0237 29.3558 50.6 28.5828L51.5539 27.182C51.6667 27.0167 51.7183 26.8173 51.6998 26.618C51.6813 26.4188 51.5938 26.2323 51.4525 26.0906L48.2591 22.8972C48.1177 22.756 47.9316 22.6685 47.7328 22.6497C47.5339 22.6309 47.3347 22.6819 47.1694 22.794L45.7634 23.7462C44.9902 23.323 44.1737 22.9842 43.328 22.7356L43.0066 21.0701C42.9686 20.8742 42.8637 20.6975 42.7097 20.5705C42.5557 20.4435 42.3623 20.374 42.1627 20.374H40.7687V6.80451C40.7674 5.62765 40.2992 4.49941 39.4668 3.66741C38.6345 2.8354 37.5061 2.36761 36.3292 2.3667H14.1728C12.9962 2.36806 11.8683 2.83606 11.0363 3.66801C10.2044 4.49997 9.73636 5.62795 9.735 6.80451V12.3234L9.53219 13.3839C8.91535 13.5713 8.31883 13.8201 7.75156 14.1264L6.72031 13.4269C6.55485 13.3143 6.35528 13.263 6.15603 13.2818C5.95678 13.3006 5.77035 13.3884 5.6289 13.53L3.09375 16.072C2.95276 16.213 2.8652 16.3987 2.84607 16.5972C2.82695 16.7957 2.87744 16.9946 2.9889 17.16L3.685 18.1912C3.38171 18.7589 3.13419 19.3547 2.94594 19.9701L1.71875 20.2056C1.52435 20.2453 1.34967 20.351 1.22435 20.5048C1.09904 20.6587 1.03081 20.8511 1.03125 21.0495V24.6383C1.03081 24.8367 1.09904 25.0291 1.22435 25.1829C1.34967 25.3368 1.52435 25.4425 1.71875 25.4822L2.93906 25.7159C3.12878 26.3336 3.37862 26.9311 3.685 27.5L2.9975 28.5312C2.88603 28.6966 2.83554 28.8955 2.85467 29.094C2.8738 29.2925 2.96135 29.4782 3.10234 29.6192L5.63922 32.1578C5.78034 32.2992 5.96634 32.387 6.16521 32.4062C6.36408 32.4253 6.5634 32.3746 6.7289 32.2626L7.76015 31.5648C8.32782 31.8716 8.92495 32.1203 9.5425 32.3073L9.74531 33.3678V48.1989C9.74668 49.3755 10.2147 50.5034 11.0466 51.3354C11.8786 52.1673 13.0066 52.6353 14.1831 52.6367H36.3241C37.444 52.6337 38.5213 52.2065 39.339 51.4411C40.1567 50.6758 40.654 49.629 40.7309 48.5117H42.1575C42.3574 48.5117 42.551 48.442 42.705 48.3146C42.859 48.1873 42.9638 48.0102 43.0014 47.8139L43.3228 46.1501C44.1695 45.9028 44.9867 45.5639 45.76 45.1395L47.1642 46.0917C47.3297 46.2036 47.529 46.2544 47.7279 46.2352C47.9268 46.2161 48.1128 46.1283 48.2539 45.9869L51.4473 42.7969C51.5887 42.6552 51.6761 42.4687 51.6946 42.2694C51.7131 42.0702 51.6616 41.8707 51.5487 41.7054L50.5948 40.3029C51.0199 39.5294 51.3588 38.7115 51.6055 37.864L53.2812 37.5392C53.4772 37.5013 53.6539 37.3963 53.7809 37.2423C53.9079 37.0883 53.9774 36.8949 53.9773 36.6953V32.187C53.9778 31.9871 53.9085 31.7933 53.7815 31.6389C53.6544 31.4846 53.4775 31.3794 53.2812 31.3414ZM40.7687 29.7859C41.8578 29.9853 42.8424 30.5602 43.5513 31.4106C44.2602 32.2611 44.6484 33.3332 44.6484 34.4403C44.6484 35.5474 44.2602 36.6195 43.5513 37.4699C42.8424 38.3204 41.8578 38.8953 40.7687 39.0947V29.7859ZM8.16234 29.8169C8.0219 29.7311 7.85978 29.6874 7.69525 29.6911C7.53073 29.6947 7.37071 29.7455 7.23422 29.8375L6.34906 30.4373L4.8125 28.9042L5.41062 28.0208C5.50274 27.8848 5.55396 27.7253 5.55823 27.5611C5.56249 27.3969 5.51962 27.2349 5.43469 27.0944C4.99557 26.3755 4.67087 25.5927 4.47219 24.774C4.43394 24.6134 4.35021 24.4672 4.23103 24.3529C4.11185 24.2386 3.96226 24.161 3.80015 24.1295L2.75 23.9284V21.7576L3.80187 21.5548C3.96366 21.523 4.11288 21.4453 4.23174 21.3311C4.35059 21.2168 4.43406 21.0707 4.47219 20.9103C4.67107 20.0928 4.99578 19.3112 5.43469 18.5934C5.51962 18.4528 5.56249 18.2909 5.55823 18.1267C5.55396 17.9625 5.50274 17.803 5.41062 17.667L4.8125 16.7853L6.34562 15.2487L7.22906 15.8486C7.36557 15.9411 7.52582 15.9925 7.6907 15.9964C7.85558 16.0004 8.01811 15.9568 8.1589 15.8709C8.87646 15.432 9.65818 15.1078 10.4758 14.9101C10.6367 14.8718 10.783 14.7878 10.8974 14.6683C11.0117 14.5488 11.0891 14.3988 11.1203 14.2364L11.3214 13.188H13.4905L13.6933 14.2364C13.7245 14.3988 13.8019 14.5488 13.9162 14.6683C14.0306 14.7878 14.1769 14.8718 14.3378 14.9101C15.1541 15.1067 15.9343 15.431 16.6495 15.8709C16.7905 15.9572 16.9534 16.0009 17.1186 15.997C17.2838 15.993 17.4444 15.9415 17.5811 15.8486L18.4645 15.2487L20.0011 16.7836L19.3995 17.6653C19.3071 17.8015 19.2556 17.9613 19.2514 18.1258C19.2471 18.2904 19.2902 18.4527 19.3755 18.5934C19.814 19.3112 20.1382 20.0928 20.3362 20.9103C20.3746 21.0712 20.4586 21.2176 20.5781 21.3319C20.6976 21.4462 20.8476 21.5236 21.01 21.5548L22.0619 21.7576V23.9284L21.01 24.1295C20.8476 24.1607 20.6976 24.2381 20.5781 24.3525C20.4586 24.4668 20.3746 24.6132 20.3362 24.774C20.1384 25.5927 19.8143 26.3755 19.3755 27.0944C19.2902 27.2351 19.2471 27.3974 19.2514 27.5619C19.2556 27.7265 19.3071 27.8863 19.3995 28.0225L19.9994 28.9042L18.4645 30.4373L17.5794 29.8375C17.4427 29.7452 17.2824 29.6942 17.1175 29.6905C16.9526 29.6869 16.7902 29.7307 16.6495 29.8169C15.9343 30.2568 15.1541 30.581 14.3378 30.7776C14.1769 30.816 14.0306 30.9 13.9162 31.0195C13.8019 31.139 13.7245 31.289 13.6933 31.4514L13.4905 32.4998H11.3197L11.1186 31.4514C11.0874 31.289 11.01 31.139 10.8956 31.0195C10.7813 30.9 10.6349 30.816 10.4741 30.7776C9.65646 30.58 8.87474 30.2558 8.15719 29.8169H8.16234ZM15.0373 33.5534C15.0423 33.5435 15.0464 33.5332 15.0494 33.5225L15.2797 32.3125C15.8967 32.1255 16.4932 31.8767 17.0603 31.57L18.0916 32.2678C18.2571 32.3797 18.4564 32.4305 18.6553 32.4113C18.8541 32.3922 19.0401 32.3044 19.1812 32.1629L21.7216 29.6244C21.8627 29.483 21.9502 29.2969 21.969 29.0981C21.9879 28.8992 21.9368 28.7 21.8247 28.5347L21.1234 27.5C21.427 26.932 21.6739 26.3356 21.8608 25.7194L23.0845 25.4839C23.2805 25.446 23.4572 25.341 23.5842 25.187C23.7112 25.033 23.7807 24.8396 23.7806 24.64V21.0495C23.7807 20.8499 23.7112 20.6565 23.5842 20.5025C23.4572 20.3485 23.2805 20.2435 23.0845 20.2056L21.8608 19.9684C21.6736 19.3528 21.4267 18.757 21.1234 18.1895L21.8212 17.1583C21.9334 16.993 21.9844 16.7937 21.9656 16.5949C21.9468 16.396 21.8593 16.2099 21.7181 16.0686L19.1778 13.53C19.0364 13.3884 18.8499 13.3006 18.6507 13.2818C18.4514 13.263 18.2519 13.3143 18.0864 13.4269L17.0552 14.1264C16.4892 13.821 15.8945 13.5723 15.2797 13.3839L15.0442 12.1653C15.0413 12.1552 15.0372 12.1454 15.0322 12.1361V11.2458H17.5106C17.7781 11.5295 18.1006 11.7558 18.4585 11.9106C18.8164 12.0655 19.2021 12.1457 19.592 12.1464H30.9066C31.2967 12.1452 31.6825 12.0648 32.0406 11.91C32.3987 11.7552 32.7216 11.5292 32.9897 11.2458H35.4647V43.7576H15.0322L15.0373 33.5534ZM39.05 48.1954C39.0491 48.9166 38.7621 49.6079 38.252 50.1177C37.7419 50.6275 37.0504 50.9141 36.3292 50.9145H14.1728C13.452 50.9136 12.7609 50.6268 12.2511 50.1171C11.7414 49.6074 11.4547 48.9163 11.4537 48.1954V34.2186H13.3134V44.617C13.3134 44.8449 13.404 45.0635 13.5651 45.2247C13.7263 45.3858 13.9449 45.4764 14.1728 45.4764H36.3241C36.552 45.4764 36.7706 45.3858 36.9317 45.2247C37.0929 45.0635 37.1834 44.8449 37.1834 44.617V10.3864C37.1834 10.1585 37.0929 9.93988 36.9317 9.77872C36.7706 9.61755 36.552 9.52701 36.3241 9.52701H32.5909C32.455 9.52706 32.3211 9.55932 32.2001 9.62117C32.0791 9.68302 31.9745 9.77268 31.8948 9.88279C31.7854 10.0458 31.6386 10.1802 31.4667 10.275C31.2948 10.3698 31.1028 10.4221 30.9066 10.4276H19.5937C19.3991 10.423 19.2084 10.3715 19.0379 10.2776C18.8674 10.1837 18.722 10.05 18.6141 9.88795C18.5346 9.77641 18.4297 9.68546 18.3081 9.62268C18.1864 9.5599 18.0515 9.5271 17.9145 9.52701H14.1728C13.9449 9.52701 13.7263 9.61755 13.5651 9.77872C13.404 9.93988 13.3134 10.1585 13.3134 10.3864V11.4692H11.4537V6.80451C11.4547 6.08365 11.7414 5.39258 12.2511 4.88285C12.7609 4.37312 13.452 4.08636 14.1728 4.08545H36.3241C37.0452 4.0859 37.7367 4.37247 38.2468 4.88224C38.7569 5.39202 39.0439 6.08335 39.0448 6.80451V48.1954H39.05ZM52.2569 35.9923L50.7564 36.2794C50.5943 36.3109 50.4447 36.3884 50.3255 36.5027C50.2063 36.617 50.1226 36.7632 50.0844 36.9239C49.8296 37.9727 49.4139 38.9758 48.852 39.8973C48.7664 40.0383 48.7231 40.2009 48.7274 40.3658C48.7317 40.5307 48.7833 40.6908 48.8761 40.8272L49.7355 42.087L47.5406 44.2664L46.2791 43.407C46.1431 43.3149 45.9836 43.2637 45.8194 43.2594C45.6552 43.2551 45.4932 43.298 45.3527 43.3829C44.4319 43.9445 43.4293 44.3591 42.3809 44.6119C42.2201 44.6502 42.0737 44.7342 41.9594 44.8537C41.845 44.9732 41.7676 45.1232 41.7364 45.2856L41.4477 46.7844H40.7602V40.8134C42.3086 40.6128 43.731 39.8553 44.7616 38.6824C45.7923 37.5096 46.3607 36.0017 46.3607 34.4403C46.3607 32.8789 45.7923 31.371 44.7616 30.1981C43.731 29.0253 42.3086 28.2678 40.7602 28.0672V22.0928H41.4477L41.7364 23.5881C41.7678 23.7492 41.8447 23.898 41.958 24.0168C42.0714 24.1356 42.2163 24.2194 42.3758 24.2584C43.4251 24.5184 44.4292 24.935 45.3544 25.4942C45.4949 25.5785 45.6566 25.6209 45.8205 25.6163C45.9843 25.6118 46.1434 25.5604 46.2791 25.4684L47.5406 24.609L49.7286 26.797L48.8692 28.0551C48.7764 28.1915 48.7248 28.3516 48.7205 28.5165C48.7162 28.6814 48.7595 28.844 48.8452 28.985C49.407 29.9066 49.8227 30.9096 50.0775 31.9584C50.1162 32.1182 50.1999 32.2635 50.3187 32.3772C50.4375 32.4908 50.5865 32.568 50.7478 32.5995L52.25 32.89L52.2569 35.9923Z" fill="black"/>
<path d="M31.3139 5.86426H25.2759C25.048 5.86426 24.8294 5.9548 24.6683 6.11596C24.5071 6.27713 24.4166 6.49571 24.4166 6.72363C24.4166 6.95155 24.5071 7.17014 24.6683 7.3313C24.8294 7.49247 25.048 7.58301 25.2759 7.58301H31.3139C31.5418 7.58301 31.7604 7.49247 31.9216 7.3313C32.0827 7.17014 32.1733 6.95155 32.1733 6.72363C32.1733 6.49571 32.0827 6.27713 31.9216 6.11596C31.7604 5.9548 31.5418 5.86426 31.3139 5.86426Z" fill="black"/>
<path d="M20.3792 5.86426H19.1881C18.9602 5.86426 18.7416 5.9548 18.5805 6.11596C18.4193 6.27713 18.3288 6.49571 18.3288 6.72363C18.3288 6.95155 18.4193 7.17014 18.5805 7.3313C18.7416 7.49247 18.9602 7.58301 19.1881 7.58301H20.3792C20.6071 7.58301 20.8257 7.49247 20.9869 7.3313C21.1481 7.17014 21.2386 6.95155 21.2386 6.72363C21.2386 6.49571 21.1481 6.27713 20.9869 6.11596C20.8257 5.9548 20.6071 5.86426 20.3792 5.86426Z" fill="black"/>
<path d="M26.9637 47.2656H23.5262C23.2983 47.2656 23.0797 47.3562 22.9186 47.5173C22.7574 47.6785 22.6669 47.8971 22.6669 48.125C22.6669 48.3529 22.7574 48.5715 22.9186 48.7327C23.0797 48.8938 23.2983 48.9844 23.5262 48.9844H26.9637C27.1917 48.9844 27.4103 48.8938 27.5714 48.7327C27.7326 48.5715 27.8231 48.3529 27.8231 48.125C27.8231 47.8971 27.7326 47.6785 27.5714 47.5173C27.4103 47.3562 27.1917 47.2656 26.9637 47.2656Z" fill="black"/>
<path d="M18.6502 47.2656H17.3078C17.0799 47.2656 16.8613 47.3562 16.7001 47.5173C16.539 47.6785 16.4484 47.8971 16.4484 48.125C16.4484 48.3529 16.539 48.5715 16.7001 48.7327C16.8613 48.8938 17.0799 48.9844 17.3078 48.9844H18.6502C18.8781 48.9844 19.0967 48.8938 19.2578 48.7327C19.419 48.5715 19.5095 48.3529 19.5095 48.125C19.5095 47.8971 19.419 47.6785 19.2578 47.5173C19.0967 47.3562 18.8781 47.2656 18.6502 47.2656Z" fill="black"/>
<path d="M33.1908 47.2656H31.8484C31.6205 47.2656 31.4019 47.3562 31.2408 47.5173C31.0796 47.6785 30.9891 47.8971 30.9891 48.125C30.9891 48.3529 31.0796 48.5715 31.2408 48.7327C31.4019 48.8938 31.6205 48.9844 31.8484 48.9844H33.1908C33.4187 48.9844 33.6373 48.8938 33.7984 48.7327C33.9596 48.5715 34.0502 48.3529 34.0502 48.125C34.0502 47.8971 33.9596 47.6785 33.7984 47.5173C33.6373 47.3562 33.4187 47.2656 33.1908 47.2656Z" fill="black"/>
<path d="M17.9214 22.8421C17.9214 21.7509 17.5978 20.6841 16.9915 19.7768C16.3852 18.8694 15.5234 18.1623 14.5152 17.7448C13.5069 17.3272 12.3975 17.2181 11.3272 17.4311C10.257 17.6441 9.27389 18.1697 8.50237 18.9415C7.73085 19.7133 7.20552 20.6965 6.99283 21.7668C6.78014 22.8372 6.88965 23.9466 7.30749 24.9547C7.72534 25.9628 8.43276 26.8243 9.34028 27.4304C10.2478 28.0364 11.3147 28.3597 12.4059 28.3593C13.8685 28.3575 15.2706 27.7756 16.3046 26.7413C17.3386 25.7069 17.92 24.3047 17.9214 22.8421ZM8.6075 22.8421C8.6075 22.0909 8.83027 21.3565 9.24765 20.7318C9.66503 20.1072 10.2583 19.6203 10.9523 19.3328C11.6464 19.0453 12.4102 18.9701 13.147 19.1167C13.8838 19.2633 14.5606 19.625 15.0918 20.1562C15.6231 20.6875 15.9848 21.3643 16.1314 22.1011C16.278 22.8379 16.2027 23.6017 15.9152 24.2957C15.6277 24.9898 15.1409 25.583 14.5162 26.0004C13.8916 26.4178 13.1572 26.6406 12.4059 26.6406C11.3987 26.6401 10.4328 26.2398 9.72054 25.5275C9.00829 24.8153 8.60795 23.8494 8.6075 22.8421Z" fill="black"/>
</svg>
