<svg width="55" height="55" viewBox="0 0 55 55" fill="none" xmlns="http://www.w3.org/2000/svg">
<path d="M18.2188 10.2708V20.3228C18.2188 20.5926 18.3765 20.8377 18.6223 20.9491L26.8723 24.6887C26.9744 24.7499 27.1556 24.7499 27.1566 24.7499C27.2707 24.7499 27.4199 24.6977 27.4402 24.6884L35.6902 20.9487C35.936 20.8374 36.0938 20.5923 36.0938 20.3224V10.2708C36.0938 9.91127 35.9074 9.77549 35.6902 9.64452L27.4402 5.90487C27.2597 5.82305 27.0531 5.82305 26.8727 5.90487L18.6227 9.64452C18.4552 9.73768 18.2188 9.97933 18.2188 10.2708ZM26.4688 22.9958L19.5938 19.8797V11.3371L26.4688 14.4532V22.9958ZM34.7188 19.8797L27.8438 22.9958V14.4536L34.7188 11.3375V19.8797ZM27.1562 7.28605L33.7408 10.2708L27.1562 13.2556L20.5717 10.2708L27.1562 7.28605Z" fill="black"/>
<path d="M11.3438 49.1562H42.9688C44.1062 49.1562 45.0312 48.2312 45.0312 47.0938V42.625C45.0312 41.4875 44.1062 40.5625 42.9688 40.5625H38.5V39.1875C38.5 38.05 37.575 37.125 36.4375 37.125H32.3125C32.3125 34.2818 29.9994 31.9688 27.1562 31.9688C24.3131 31.9688 22 34.2818 22 37.125H17.875C16.7375 37.125 15.8125 38.05 15.8125 39.1875V40.5625H11.3438C10.2063 40.5625 9.28125 41.4875 9.28125 42.625V47.0938C9.28125 48.2312 10.2063 49.1562 11.3438 49.1562ZM27.1562 33.3438C29.2411 33.3438 30.9375 35.0402 30.9375 37.125H23.375C23.375 35.0402 25.0714 33.3438 27.1562 33.3438ZM17.1875 39.1875C17.1875 38.8083 17.4958 38.5 17.875 38.5H22.6875H31.625H36.4375C36.8167 38.5 37.125 38.8083 37.125 39.1875V40.5625H17.1875V39.1875ZM10.6562 42.625C10.6562 42.2458 10.9646 41.9375 11.3438 41.9375H16.5H37.8125H42.9688C43.3479 41.9375 43.6562 42.2458 43.6562 42.625V47.0938C43.6562 47.4729 43.3479 47.7812 42.9688 47.7812H11.3438C10.9646 47.7812 10.6562 47.4729 10.6562 47.0938V42.625Z" fill="black"/>
<path d="M26.4688 26.4688V30.25C26.4688 30.6295 26.7767 30.9375 27.1562 30.9375C27.5358 30.9375 27.8438 30.6295 27.8438 30.25V26.4688C27.8438 26.0892 27.5358 25.7812 27.1562 25.7812C26.7767 25.7812 26.4688 26.0892 26.4688 26.4688Z" fill="black"/>
<path d="M33.3757 35.3315C33.4757 35.3824 33.582 35.4064 33.6868 35.4064C33.9374 35.4064 34.1787 35.2689 34.3001 35.0304L44.0773 15.813C44.2492 15.4748 44.1145 15.0609 43.7762 14.8887C43.438 14.7168 43.0241 14.8515 42.8519 15.1898L33.0746 34.4071C32.9027 34.7454 33.0371 35.1593 33.3757 35.3315Z" fill="black"/>
<path d="M7.59204 9.35714C7.25448 9.53073 7.12111 9.94495 7.2947 10.2829L10.7349 16.9777C10.8566 17.2149 11.0976 17.351 11.3468 17.351C11.4527 17.351 11.5599 17.3266 11.6607 17.2747C11.9982 17.1011 12.1316 16.6869 11.958 16.349L8.51776 9.65448C8.34417 9.31692 7.92961 9.18354 7.59204 9.35714Z" fill="black"/>
<path d="M15.4983 24.7425C15.1607 24.9161 15.0274 25.3303 15.2009 25.6682L20.0134 35.033C20.1351 35.2702 20.3761 35.4063 20.6253 35.4063C20.7312 35.4063 20.8384 35.3819 20.9392 35.33C21.2767 35.1564 21.4101 34.7422 21.2365 34.4042L16.424 25.0395C16.2504 24.7019 15.8359 24.5689 15.4983 24.7425Z" fill="black"/>
<path d="M21.0251 23.7702C20.6641 23.8885 20.4675 24.2769 20.5861 24.6375L22.7218 31.1516C22.8167 31.4413 23.0859 31.6249 23.375 31.6249C23.4461 31.6249 23.5183 31.6139 23.5895 31.5905C23.9504 31.4723 24.147 31.0838 24.0284 30.7232L21.8927 24.2092C21.7741 23.8486 21.3857 23.652 21.0251 23.7702Z" fill="black"/>
<path d="M16.5 20.9688C16.5 19.2627 15.1123 17.875 13.4062 17.875C11.7002 17.875 10.3125 19.2627 10.3125 20.9688C10.3125 22.6748 11.7002 24.0625 13.4062 24.0625C15.1123 24.0625 16.5 22.6748 16.5 20.9688ZM11.6875 20.9688C11.6875 20.021 12.4585 19.25 13.4062 19.25C14.354 19.25 15.125 20.021 15.125 20.9688C15.125 21.9165 14.354 22.6875 13.4062 22.6875C12.4585 22.6875 11.6875 21.9165 11.6875 20.9688Z" fill="black"/>
<path d="M47.7812 11C47.7812 9.29397 46.3935 7.90625 44.6875 7.90625C42.9815 7.90625 41.5938 9.29397 41.5938 11C41.5938 12.706 42.9815 14.0938 44.6875 14.0938C46.3935 14.0938 47.7812 12.706 47.7812 11ZM44.6875 12.7188C43.7398 12.7188 42.9688 11.9477 42.9688 11C42.9688 10.0523 43.7398 9.28125 44.6875 9.28125C45.6352 9.28125 46.4062 10.0523 46.4062 11C46.4062 11.9477 45.6352 12.7188 44.6875 12.7188Z" fill="black"/>
<path d="M34.375 28.1875C34.375 26.8606 33.2956 25.7812 31.9688 25.7812C30.6419 25.7812 29.5625 26.8606 29.5625 28.1875C29.5625 29.5144 30.6419 30.5938 31.9688 30.5938C33.2956 30.5938 34.375 29.5144 34.375 28.1875ZM31.9688 29.2188C31.4002 29.2188 30.9375 28.7561 30.9375 28.1875C30.9375 27.6189 31.4002 27.1562 31.9688 27.1562C32.5373 27.1562 33 27.6189 33 28.1875C33 28.7561 32.5373 29.2188 31.9688 29.2188Z" fill="black"/>
<path d="M46.0625 25.0938C46.0625 23.7669 44.9831 22.6875 43.6562 22.6875C42.3294 22.6875 41.25 23.7669 41.25 25.0938C41.25 26.4206 42.3294 27.5 43.6562 27.5C44.9831 27.5 46.0625 26.4206 46.0625 25.0938ZM43.6562 26.125C43.0877 26.125 42.625 25.6623 42.625 25.0938C42.625 24.5252 43.0877 24.0625 43.6562 24.0625C44.2248 24.0625 44.6875 24.5252 44.6875 25.0938C44.6875 25.6623 44.2248 26.125 43.6562 26.125Z" fill="black"/>
<path d="M13.0625 34.0312C14.3894 34.0312 15.4688 32.9519 15.4688 31.625C15.4688 30.2981 14.3894 29.2188 13.0625 29.2188C11.7356 29.2188 10.6562 30.2981 10.6562 31.625C10.6562 32.9519 11.7356 34.0312 13.0625 34.0312ZM13.0625 30.5938C13.6311 30.5938 14.0938 31.0564 14.0938 31.625C14.0938 32.1936 13.6311 32.6562 13.0625 32.6562C12.4939 32.6562 12.0312 32.1936 12.0312 31.625C12.0312 31.0564 12.4939 30.5938 13.0625 30.5938Z" fill="black"/>
<path d="M11.6875 8.59375C11.6875 9.92062 12.7669 11 14.0938 11C15.4206 11 16.5 9.92062 16.5 8.59375C16.5 7.26688 15.4206 6.1875 14.0938 6.1875C12.7669 6.1875 11.6875 7.26688 11.6875 8.59375ZM14.0938 7.5625C14.6623 7.5625 15.125 8.02519 15.125 8.59375C15.125 9.16231 14.6623 9.625 14.0938 9.625C13.5252 9.625 13.0625 9.16231 13.0625 8.59375C13.0625 8.02519 13.5252 7.5625 14.0938 7.5625Z" fill="black"/>
</svg>
