<svg width="55" height="55" viewBox="0 0 55 55" fill="none" xmlns="http://www.w3.org/2000/svg">
<path fill-rule="evenodd" clip-rule="evenodd" d="M0 19.7656V35.2344C0 39.9781 3.85 43.8281 8.59375 43.8281H46.4062C51.15 43.8281 55 39.9781 55 35.2344V19.7656C55 15.0219 51.15 11.1719 46.4062 11.1719H8.59375C3.85 11.1719 0 15.0219 0 19.7656ZM1.71875 19.7656C1.71875 15.9706 4.79875 12.8906 8.59375 12.8906H46.4062C50.2012 12.8906 53.2812 15.9706 53.2812 19.7656V35.2344C53.2812 39.0294 50.2012 42.1094 46.4062 42.1094H8.59375C4.79875 42.1094 1.71875 39.0294 1.71875 35.2344V19.7656ZM9.45312 39.5312C9.45312 40.0056 9.83813 40.3906 10.3125 40.3906H43.8281C44.3025 40.3906 44.6875 40.0056 44.6875 39.5312V15.4688C44.6875 14.9944 44.3025 14.6094 43.8281 14.6094H10.3125C9.83813 14.6094 9.45312 14.9944 9.45312 15.4688V39.5312ZM11.1719 38.6719V16.3281H42.9688V38.6719H11.1719ZM38.6719 34.375H40.3906C40.865 34.375 41.25 33.99 41.25 33.5156C41.25 33.0413 40.865 32.6562 40.3906 32.6562H38.6719C38.1975 32.6562 37.8125 33.0413 37.8125 33.5156C37.8125 33.99 38.1975 34.375 38.6719 34.375ZM13.75 34.375H35.2344C35.7088 34.375 36.0938 33.99 36.0938 33.5156C36.0938 33.0413 35.7088 32.6562 35.2344 32.6562H13.75C13.2756 32.6562 12.8906 33.0413 12.8906 33.5156C12.8906 33.99 13.2756 34.375 13.75 34.375ZM46.4062 24.9219V30.0781C46.4062 31.5012 47.5612 32.6562 48.9844 32.6562C50.4075 32.6562 51.5625 31.5012 51.5625 30.0781V24.9219C51.5625 23.4987 50.4075 22.3438 48.9844 22.3438C47.5612 22.3438 46.4062 23.4987 46.4062 24.9219ZM6.875 30.0781V24.9219C6.875 24.4475 6.49 24.0625 6.01562 24.0625C5.54125 24.0625 5.15625 24.4475 5.15625 24.9219V30.0781C5.15625 30.5525 5.54125 30.9375 6.01562 30.9375C6.49 30.9375 6.875 30.5525 6.875 30.0781ZM48.125 24.9219C48.125 24.4475 48.51 24.0625 48.9844 24.0625C49.4588 24.0625 49.8438 24.4475 49.8438 24.9219V30.0781C49.8438 30.5525 49.4588 30.9375 48.9844 30.9375C48.51 30.9375 48.125 30.5525 48.125 30.0781V24.9219ZM25.7812 29.2188C26.2556 29.2188 26.6406 28.8337 26.6406 28.3594C26.6406 27.885 27.0256 27.5 27.5 27.5C27.9744 27.5 28.3594 27.885 28.3594 28.3594C28.3594 28.8337 28.7444 29.2188 29.2188 29.2188H35.2344C35.7088 29.2188 36.0938 28.8337 36.0938 28.3594V21.4844C36.0938 21.01 35.7088 20.625 35.2344 20.625H19.7656C19.2913 20.625 18.9062 21.01 18.9062 21.4844V28.3594C18.9062 28.8337 19.2913 29.2188 19.7656 29.2188H25.7812ZM25.068 27.5H20.625V22.3438H34.375V27.5H29.9303C29.578 26.4997 28.6223 25.7812 27.5 25.7812C26.3777 25.7812 25.422 26.4997 25.068 27.5ZM23.2031 24.0625C23.6775 24.0625 24.0625 24.4475 24.0625 24.9219C24.0625 25.3962 23.6775 25.7812 23.2031 25.7812C22.7288 25.7812 22.3438 25.3962 22.3438 24.9219C22.3438 24.4475 22.7288 24.0625 23.2031 24.0625ZM31.7969 24.0625C32.2713 24.0625 32.6562 24.4475 32.6562 24.9219C32.6562 25.3962 32.2713 25.7812 31.7969 25.7812C31.3225 25.7812 30.9375 25.3962 30.9375 24.9219C30.9375 24.4475 31.3225 24.0625 31.7969 24.0625ZM6.875 21.4844V19.7656C6.875 19.2913 6.49 18.9062 6.01562 18.9062C5.54125 18.9062 5.15625 19.2913 5.15625 19.7656V21.4844C5.15625 21.9587 5.54125 22.3438 6.01562 22.3438C6.49 22.3438 6.875 21.9587 6.875 21.4844Z" fill="black"/>
</svg>
