<svg width="55" height="55" viewBox="0 0 55 55" fill="none" xmlns="http://www.w3.org/2000/svg">
<path d="M32.1161 14.1352L31.088 11.4976V3.22685C31.088 1.44762 29.6405 0 27.8612 0H15.2501C13.4708 0 12.0232 1.44762 12.0232 3.22685V11.4976L10.9951 14.1352C8.99531 14.2827 7.41288 15.9558 7.41288 17.9926V22.8327H6.02026C5.57521 22.8327 5.2146 23.1935 5.2146 23.6384C5.2146 24.0833 5.57521 24.4441 6.02026 24.4441H7.41288V37.0074C7.41288 39.0442 8.99531 40.7173 10.9951 40.8648L12.0232 43.5024V51.7732C12.0232 53.5524 13.4708 55 15.2501 55H27.8612C29.6404 55 31.088 53.5524 31.088 51.7732V47.1351C31.088 46.6902 30.7274 46.3294 30.2824 46.3294C29.8373 46.3294 29.4767 46.6902 29.4767 47.1351V51.7732C29.4767 52.6639 28.752 53.3887 27.8612 53.3887H15.2501C14.3592 53.3887 13.6345 52.6639 13.6345 51.7732V44.1565H30.2825C30.4856 44.1595 30.9082 44.0174 31.0331 43.6435L32.1161 40.8649C34.1159 40.7174 35.6983 39.0443 35.6983 37.0075V17.9927C35.6983 15.9558 34.1159 14.2827 32.1161 14.1352ZM13.3795 12.4548H29.7318L30.3823 14.1234H12.7291L13.3795 12.4548ZM13.6345 3.22685C13.6345 2.3361 14.3592 1.61133 15.2501 1.61133H27.8612C28.752 1.61133 29.4767 2.3361 29.4767 3.22685V10.8435H13.6345V3.22685ZM13.3795 42.5452L12.7291 40.8766H30.3821L29.7317 42.5452H13.3795ZM34.087 37.0074C34.087 38.2524 33.0741 39.2653 31.8291 39.2653H11.282C10.037 39.2653 9.0241 38.2524 9.0241 37.0074V17.9926C9.0241 16.7476 10.037 15.7347 11.282 15.7347H31.8291C33.0741 15.7347 34.087 16.7476 34.087 17.9926V37.0074Z" fill="black"/>
<path d="M20.0465 20.3425C20.0465 18.9905 18.9466 17.8906 17.5945 17.8906H14.1186C12.7666 17.8906 11.6667 18.9905 11.6667 20.3425C11.6667 21.6945 12.7666 22.7944 14.1186 22.7944H17.5945C18.9466 22.7944 20.0465 21.6945 20.0465 20.3425ZM17.5945 21.1831H14.1186C13.6552 21.1831 13.278 20.8061 13.278 20.3425C13.278 19.879 13.6552 19.502 14.1186 19.502H17.5945C18.058 19.502 18.4351 19.879 18.4351 20.3425C18.4351 20.8061 18.0581 21.1831 17.5945 21.1831Z" fill="black"/>
<path d="M23.0135 21.1482H30.6389C31.0839 21.1482 31.4446 20.7875 31.4446 20.3425C31.4446 19.8976 31.0839 19.5369 30.6389 19.5369H23.0135C22.5685 19.5369 22.2079 19.8976 22.2079 20.3425C22.2079 20.7875 22.5686 21.1482 23.0135 21.1482Z" fill="black"/>
<path d="M15.3908 24.5645H13.3749C12.3053 24.5645 11.4351 25.4347 11.4351 26.5043V28.5202C11.4351 29.5898 12.3053 30.46 13.3749 30.46H15.3908C16.4604 30.46 17.3306 29.5898 17.3306 28.5202V26.5043C17.3306 25.4346 16.4604 24.5645 15.3908 24.5645ZM15.7193 28.5202C15.7193 28.7013 15.5719 28.8487 15.3908 28.8487H13.3749C13.1938 28.8487 13.0464 28.7013 13.0464 28.5202V26.5043C13.0464 26.3232 13.1938 26.1758 13.3749 26.1758H15.3908C15.5719 26.1758 15.7193 26.3232 15.7193 26.5043V28.5202Z" fill="black"/>
<path d="M22.5636 24.5645H20.5477C19.4781 24.5645 18.6078 25.4347 18.6078 26.5043V28.5202C18.6078 29.5898 19.4781 30.46 20.5477 30.46H22.5636C23.6332 30.46 24.5034 29.5898 24.5034 28.5202V26.5043C24.5034 25.4346 23.6332 24.5645 22.5636 24.5645ZM22.892 28.5202C22.892 28.7013 22.7447 28.8487 22.5636 28.8487H20.5477C20.3666 28.8487 20.2192 28.7013 20.2192 28.5202V26.5043C20.2192 26.3232 20.3666 26.1758 20.5477 26.1758H22.5636C22.7447 26.1758 22.892 26.3232 22.892 26.5043V28.5202Z" fill="black"/>
<path d="M29.7362 24.5645H27.7203C26.6507 24.5645 25.7805 25.4347 25.7805 26.5043V28.5202C25.7805 29.5898 26.6507 30.46 27.7203 30.46H29.7362C30.8058 30.46 31.676 29.5898 31.676 28.5202V26.5043C31.676 25.4346 30.8058 24.5645 29.7362 24.5645ZM30.0647 28.5202C30.0647 28.7013 29.9173 28.8487 29.7362 28.8487H27.7203C27.5392 28.8487 27.3918 28.7013 27.3918 28.5202V26.5043C27.3918 26.3232 27.5392 26.1758 27.7203 26.1758H29.7362C29.9173 26.1758 30.0647 26.3232 30.0647 26.5043V28.5202Z" fill="black"/>
<path d="M15.3908 31.6497H13.3749C12.3053 31.6497 11.4351 32.5199 11.4351 33.5895V35.6054C11.4351 36.675 12.3053 37.5452 13.3749 37.5452H15.3908C16.4604 37.5452 17.3306 36.675 17.3306 35.6054V33.5895C17.3306 32.5198 16.4604 31.6497 15.3908 31.6497ZM15.7193 35.6054C15.7193 35.7865 15.5719 35.9339 15.3908 35.9339H13.3749C13.1938 35.9339 13.0464 35.7865 13.0464 35.6054V33.5895C13.0464 33.4084 13.1938 33.261 13.3749 33.261H15.3908C15.5719 33.261 15.7193 33.4084 15.7193 33.5895V35.6054Z" fill="black"/>
<path d="M22.5636 31.6497H20.5477C19.4781 31.6497 18.6078 32.5199 18.6078 33.5895V35.6054C18.6078 36.675 19.4781 37.5452 20.5477 37.5452H22.5636C23.6332 37.5452 24.5034 36.675 24.5034 35.6054V33.5895C24.5034 32.5198 23.6332 31.6497 22.5636 31.6497ZM22.892 35.6054C22.892 35.7865 22.7447 35.9339 22.5636 35.9339H20.5477C20.3666 35.9339 20.2192 35.7865 20.2192 35.6054V33.5895C20.2192 33.4084 20.3666 33.261 20.5477 33.261H22.5636C22.7447 33.261 22.892 33.4084 22.892 33.5895V35.6054Z" fill="black"/>
<path d="M29.7362 31.6497H27.7203C26.6507 31.6497 25.7805 32.5199 25.7805 33.5895V35.6054C25.7805 36.675 26.6507 37.5452 27.7203 37.5452H29.7362C30.8058 37.5452 31.676 36.675 31.676 35.6054V33.5895C31.676 32.5198 30.8058 31.6497 29.7362 31.6497ZM30.0647 35.6054C30.0647 35.7865 29.9173 35.9339 29.7362 35.9339H27.7203C27.5392 35.9339 27.3918 35.7865 27.3918 35.6054V33.5895C27.3918 33.4084 27.5392 33.261 27.7203 33.261H29.7362C29.9173 33.261 30.0647 33.4084 30.0647 33.5895V35.6054Z" fill="black"/>
<path d="M46.489 19.2851C46.1742 18.9704 45.6642 18.9704 45.3496 19.2851C45.0349 19.5997 45.0349 20.1098 45.3496 20.4244C47.1711 22.2458 48.1742 24.6718 48.1742 27.2553C48.1742 29.8388 47.1711 32.2648 45.3496 34.0863C45.0349 34.4009 45.0349 34.9111 45.3496 35.2256C45.5069 35.3829 45.7132 35.4616 45.9193 35.4616C46.1255 35.4616 46.3317 35.383 46.4891 35.2256C48.6149 33.0997 49.7857 30.2692 49.7857 27.2552C49.7854 24.2415 48.6148 21.4108 46.489 19.2851Z" fill="black"/>
<path d="M44.2278 21.5463C43.913 21.2316 43.403 21.2316 43.0883 21.5463C42.7737 21.8609 42.7737 22.3711 43.0883 22.6856C44.3069 23.9041 44.9779 25.527 44.9779 27.2554C44.9779 28.9839 44.3069 30.6068 43.0884 31.8253C42.7737 32.1399 42.7737 32.6499 43.0883 32.9646C43.2457 33.122 43.4518 33.2006 43.6581 33.2006C43.8642 33.2006 44.0705 33.122 44.2278 32.9646C45.7507 31.4419 46.5892 29.4143 46.5892 27.2554C46.5891 25.0966 45.7506 23.069 44.2278 21.5463Z" fill="black"/>
<path d="M41.9664 23.8076C41.6519 23.4928 41.1417 23.4929 40.8271 23.8076C40.5125 24.1222 40.5125 24.6323 40.8272 24.947C41.4438 25.5636 41.7834 26.3835 41.7834 27.2556C41.7834 28.1276 41.4438 28.9475 40.8272 29.5642C40.5125 29.8788 40.5125 30.3889 40.8271 30.7035C40.9845 30.8609 41.1906 30.9395 41.3969 30.9395C41.603 30.9395 41.8093 30.8609 41.9665 30.7035C42.8876 29.7825 43.3948 28.558 43.3948 27.2555C43.3948 25.953 42.8874 24.7286 41.9664 23.8076Z" fill="black"/>
<path d="M38.9185 28.0613C39.3634 28.0613 39.7241 27.7006 39.7241 27.2556C39.7241 26.8107 39.3634 26.45 38.9185 26.45C38.4735 26.45 38.1128 26.8107 38.1128 27.2556C38.1128 27.7006 38.4735 28.0613 38.9185 28.0613Z" fill="black"/>
</svg>
