<svg width="55" height="55" viewBox="0 0 55 55" fill="none" xmlns="http://www.w3.org/2000/svg">
<path d="M22.2667 43.7585C22.7315 43.7585 23.1083 43.3817 23.1083 42.9169C23.1083 42.452 22.7315 42.0752 22.2667 42.0752C21.8018 42.0752 21.425 42.452 21.425 42.9169C21.425 43.3817 21.8018 43.7585 22.2667 43.7585Z" fill="black"/>
<path d="M51.6333 23.9417H43.475V22.5667C44.2833 22.3584 45.0667 22.0584 45.8083 21.6417L47.5583 22.7001C47.7667 22.8251 48 22.8917 48.2333 22.8917C48.5667 22.8917 48.9 22.7584 49.15 22.5084L50.3333 21.3251C50.7583 20.9001 50.8333 20.2501 50.525 19.7334L49.4667 17.9834C49.8417 17.3084 50.1417 16.6001 50.35 15.8584L52.3333 15.3667C52.9167 15.2251 53.3167 14.7001 53.3167 14.1084V12.4334C53.3167 11.8334 52.9083 11.3167 52.3333 11.1751L50.35 10.6834C50.1417 9.94175 49.85 9.23342 49.4667 8.55842L50.525 6.80841C50.8333 6.29175 50.7583 5.64175 50.3333 5.21675L49.15 4.02508C48.725 3.60008 48.075 3.52508 47.5583 3.83341L45.8083 4.89175C45.1333 4.51675 44.425 4.21675 43.6833 4.00841L43.1917 2.02508C43.05 1.44175 42.5333 1.04175 41.9333 1.04175H40.25C39.65 1.04175 39.1333 1.45008 38.9917 2.02508L38.5 4.00841C37.7583 4.21675 37.05 4.50841 36.375 4.89175L34.625 3.83341C34.1167 3.52508 33.4583 3.60008 33.0333 4.02508L31.85 5.20842C31.425 5.63341 31.3417 6.28341 31.6583 6.80008L32.7167 8.55008C32.3333 9.22508 32.0417 9.93342 31.8333 10.6751L29.85 11.1667C29.2667 11.3084 28.8667 11.8251 28.8667 12.4251V14.1001C28.8667 14.1417 28.8833 14.1751 28.8833 14.2084H3.36667C2.1 14.2084 1.06667 15.2417 1.06667 16.5084V44.8334C1.06667 46.1001 2.1 47.1334 3.36667 47.1334H15.5167V49.3584H12.7083C11.4417 49.3584 10.4083 50.3918 10.4083 51.6584V53.3334C10.4083 53.6751 10.6917 53.9584 11.0333 53.9584H51.6333C52.9 53.9584 53.9333 52.9251 53.9333 51.6584V26.2417C53.9333 24.9751 52.9 23.9417 51.6333 23.9417ZM41.175 14.2167H36.9833C36.9083 13.9001 36.8583 13.5834 36.8583 13.2667C36.8583 10.9334 38.7583 9.03342 41.0917 9.03342C43.425 9.03342 45.325 10.9334 45.325 13.2667C45.325 14.6917 44.6167 15.9751 43.475 16.7501V16.5167C43.475 15.2501 42.4417 14.2167 41.175 14.2167ZM30.15 12.3834L32.4917 11.8084C32.7167 11.7501 32.9 11.5751 32.95 11.3417C33.1583 10.4751 33.5 9.64175 33.975 8.88341C34.1 8.68341 34.1 8.43341 33.975 8.23342L32.7333 6.10842L33.9833 4.91675L36.05 6.16675C36.25 6.29175 36.5 6.29175 36.7 6.16675C37.4667 5.69175 38.2917 5.35008 39.1583 5.14175C39.3833 5.09175 39.5667 4.90841 39.625 4.68341L40.25 2.30008L41.975 2.33341L42.55 4.67508C42.6083 4.90008 42.7833 5.08341 43.0167 5.13341C43.8833 5.34175 44.7167 5.68341 45.475 6.15841C45.675 6.28341 45.925 6.28341 46.125 6.15841L48.25 4.91675L49.4417 6.16675L48.1917 8.23342C48.0667 8.43341 48.075 8.68341 48.1917 8.88341C48.6667 9.65008 49.0083 10.4751 49.2167 11.3417C49.2667 11.5667 49.45 11.7501 49.675 11.8084L52.0583 12.4334L52.025 14.1584L49.6833 14.7334C49.4583 14.7917 49.275 14.9667 49.225 15.2001C49.0167 16.0667 48.675 16.9001 48.2 17.6584C48.075 17.8584 48.075 18.1084 48.2 18.3084L49.4417 20.4334L48.1917 21.6251L46.125 20.3751C45.925 20.2501 45.675 20.2584 45.475 20.3751C44.8417 20.7668 44.175 21.0584 43.4667 21.2668V18.1751C45.3583 17.2584 46.5667 15.3834 46.5667 13.2584C46.5667 10.2334 44.1083 7.77508 41.0833 7.77508C38.0583 7.77508 35.6 10.2334 35.6 13.2584C35.6 13.5751 35.6333 13.8917 35.6917 14.2084H30.3333C30.2667 14.1584 30.1917 14.1167 30.1083 14.1001L30.15 12.3834ZM3.36667 45.8834C2.79167 45.8834 2.31667 45.4084 2.31667 44.8334V39.9501H24.85V45.8834H3.36667ZM24.85 47.1334V49.3584H16.7667V47.1334H24.85ZM11.6583 52.7084V51.6584C11.6583 51.0834 12.1333 50.6084 12.7083 50.6084H24.8583V51.6584C24.8583 52.0418 24.9583 52.3918 25.125 52.7084H11.6583ZM24.85 26.2417V38.6917H2.31667V16.5167C2.31667 15.9334 2.79167 15.4667 3.36667 15.4667H41.175C41.75 15.4667 42.225 15.9417 42.225 16.5167V23.9417H27.15C25.8833 23.9417 24.85 24.9751 24.85 26.2417ZM52.6833 51.6584C52.6833 52.2334 52.2083 52.7084 51.6333 52.7084H27.15C26.575 52.7084 26.1 52.2334 26.1 51.6584V30.7251H52.6833V51.6584ZM52.6833 29.4751H26.1V26.2501C26.1 25.6667 26.575 25.2001 27.15 25.2001H51.6333C52.2167 25.2001 52.6833 25.6751 52.6833 26.2501V29.4751Z" fill="black"/>
<path d="M9.15833 21.9918C8.91666 21.7501 8.51666 21.7501 8.275 21.9918L5.44166 24.8251C5.2 25.0668 5.2 25.4668 5.44166 25.7085L8.275 28.5418C8.4 28.6668 8.55833 28.7251 8.71666 28.7251C8.875 28.7251 9.03333 28.6668 9.15833 28.5418C9.4 28.3001 9.4 27.9001 9.15833 27.6585L6.76666 25.2668L9.15833 22.8751C9.40833 22.6335 9.40833 22.2335 9.15833 21.9918Z" fill="black"/>
<path d="M17.7333 21.9918C17.4917 21.7501 17.0917 21.7501 16.85 21.9918C16.6083 22.2335 16.6083 22.6335 16.85 22.8751L19.2417 25.2668L16.85 27.6585C16.6083 27.9001 16.6083 28.3001 16.85 28.5418C16.975 28.6668 17.1333 28.7251 17.2917 28.7251C17.45 28.7251 17.6083 28.6668 17.7333 28.5418L20.5667 25.7085C20.6833 25.5918 20.75 25.4335 20.75 25.2668C20.75 25.1001 20.6833 24.9418 20.5667 24.8251L17.7333 21.9918Z" fill="black"/>
<path d="M15.7833 19.3085C15.4667 19.1669 15.1 19.3002 14.95 19.6085L9.91666 30.4002C9.76666 30.7169 9.90833 31.0835 10.2167 31.2335C10.3 31.2752 10.3917 31.2919 10.4833 31.2919C10.7167 31.2919 10.9417 31.1585 11.05 30.9335L16.0833 20.1419C16.2333 19.8252 16.0917 19.4502 15.7833 19.3085Z" fill="black"/>
<path d="M28.825 47.0417H36.8583C37.2 47.0417 37.4833 46.7584 37.4833 46.4167C37.4833 46.0751 37.2 45.7917 36.8583 45.7917H28.825C28.4833 45.7917 28.2 46.0751 28.2 46.4167C28.2 46.7584 28.4833 47.0417 28.825 47.0417Z" fill="black"/>
<path d="M28.825 50.6084H32.6667C33.0083 50.6084 33.2917 50.3251 33.2917 49.9834C33.2917 49.6417 33.0083 49.3584 32.6667 49.3584H28.825C28.4833 49.3584 28.2 49.6417 28.2 49.9834C28.2 50.3251 28.4833 50.6084 28.825 50.6084Z" fill="black"/>
<path d="M49.9583 45.7917H41.925C41.5833 45.7917 41.3 46.0751 41.3 46.4167C41.3 46.7584 41.5833 47.0417 41.925 47.0417H49.9583C50.3 47.0417 50.5833 46.7584 50.5833 46.4167C50.5833 46.0751 50.3 45.7917 49.9583 45.7917Z" fill="black"/>
<path d="M45.7667 49.3584H41.925C41.5833 49.3584 41.3 49.6417 41.3 49.9834C41.3 50.3251 41.5833 50.6084 41.925 50.6084H45.7667C46.1083 50.6084 46.3917 50.3251 46.3917 49.9834C46.3917 49.6417 46.1083 49.3584 45.7667 49.3584Z" fill="black"/>
<path d="M28.225 42.9668C28.2333 43.0085 28.2333 43.0585 28.25 43.0918V43.1002C28.2833 43.1668 28.325 43.2252 28.3667 43.2752C28.3833 43.2918 28.3917 43.3002 28.4083 43.3085C28.45 43.3418 28.4917 43.3752 28.5417 43.4002C28.5583 43.4085 28.5833 43.4168 28.6 43.4252C28.6667 43.4502 28.7417 43.4668 28.8167 43.4668H49.95C50.025 43.4668 50.1 43.4502 50.1667 43.4252C50.1833 43.4168 50.2083 43.4085 50.225 43.4002C50.275 43.3752 50.3167 43.3418 50.3583 43.3085C50.375 43.2918 50.3917 43.2835 50.4 43.2752C50.45 43.2252 50.4917 43.1668 50.5167 43.1002C50.5167 43.1002 50.5167 43.1002 50.5167 43.0918C50.5333 43.0585 50.5333 43.0168 50.5417 42.9835C50.55 42.9418 50.5667 42.9002 50.5667 42.8502C50.5667 42.8502 50.5667 42.8502 50.5667 42.8418V33.4502C50.5667 33.4502 50.5667 33.4502 50.5667 33.4418C50.5667 33.4002 50.55 33.3585 50.5417 33.3085C50.5333 33.2752 50.5333 33.2335 50.5167 33.2002C50.5167 33.2002 50.5167 33.2002 50.5167 33.1918C50.5083 33.1668 50.4833 33.1502 50.4667 33.1252C50.4417 33.0835 50.4167 33.0335 50.375 33.0002C50.35 32.9752 50.3167 32.9585 50.2833 32.9418C50.25 32.9168 50.2083 32.8918 50.1667 32.8752C50.125 32.8585 50.075 32.8585 50.0333 32.8502C50 32.8418 49.975 32.8335 49.9333 32.8335H28.825C28.7917 32.8335 28.7667 32.8502 28.7333 32.8502C28.6833 32.8585 28.6333 32.8585 28.5917 32.8752C28.55 32.8918 28.525 32.9168 28.4917 32.9418C28.4583 32.9668 28.425 32.9835 28.3917 33.0085C28.35 33.0418 28.325 33.0918 28.3 33.1418C28.2833 33.1668 28.2667 33.1835 28.2583 33.2085V33.2168C28.2417 33.2585 28.2417 33.3002 28.2333 33.3418C28.225 33.3835 28.2083 33.4168 28.2083 33.4585V33.4668V42.8668V42.8752C28.2 42.8918 28.2167 42.9335 28.225 42.9668ZM31.7667 42.2252L39.3917 38.8335L47.0167 42.2252H31.7667ZM49.3333 41.8835L40.9333 38.1418L49.3333 34.4002V41.8835ZM47.0167 34.0752L39.3917 37.4668L31.7667 34.0752H47.0167ZM29.45 34.4085L37.85 38.1502L29.45 41.8918V34.4085Z" fill="black"/>
<path d="M29.05 26.4917C28.5833 26.4917 28.2083 26.8667 28.2083 27.325C28.2083 27.7917 28.5833 28.1667 29.05 28.1667C29.5167 28.1667 29.8917 27.7917 29.8917 27.325C29.8917 26.8667 29.5167 26.4917 29.05 26.4917Z" fill="black"/>
<path d="M32.0667 26.4917C31.6 26.4917 31.225 26.8667 31.225 27.325C31.225 27.7917 31.6 28.1667 32.0667 28.1667C32.5333 28.1667 32.9083 27.7917 32.9083 27.325C32.9083 26.8667 32.5333 26.4917 32.0667 26.4917Z" fill="black"/>
<path d="M35.0833 26.4917C34.6167 26.4917 34.2417 26.8667 34.2417 27.325C34.2417 27.7917 34.6167 28.1667 35.0833 28.1667C35.55 28.1667 35.925 27.7917 35.925 27.325C35.925 26.8667 35.55 26.4917 35.0833 26.4917Z" fill="black"/>
</svg>
