<svg width="65" height="65" viewBox="0 0 65 65" fill="none" xmlns="http://www.w3.org/2000/svg">
<path d="M62.7783 48.5655H62.4524L62.4686 14.6199C62.4694 13.8573 62.173 13.14 61.6337 12.6C61.0942 12.0598 60.3766 11.7623 59.614 11.7623L55.4639 11.7596C55.4637 11.7596 55.4635 11.7596 55.4633 11.7596C54.9377 11.7596 54.5114 12.1854 54.5111 12.7111C54.5109 13.2371 54.9368 13.6635 55.4626 13.6639L59.6134 13.6666C59.8675 13.6666 60.1066 13.7657 60.2864 13.9457C60.4659 14.1254 60.5645 14.364 60.5643 14.6182L60.5481 48.5654H58.0595V29.4811C58.0595 27.5464 56.4859 25.9721 54.5518 25.9721H47.5639V13.6606L51.0193 13.6628H51.0198C51.5454 13.6628 51.9717 13.2368 51.9719 12.7112C51.9722 12.1853 51.5463 11.7588 51.0203 11.7585L47.5638 11.7563V6.11247C47.5638 4.52975 46.2761 3.24219 44.6935 3.24219H2.87054C1.28781 3.24219 0 4.53 0 6.11273V38.5722C0 40.0412 1.10932 41.2553 2.53411 41.4225L2.53068 48.566H2.22168C1.62843 48.566 1.07047 48.7972 0.652793 49.215C0.231816 49.6336 0 50.192 0 50.7877C0 53.4128 2.13561 55.5484 4.76074 55.5484H8.22529C8.75113 55.5484 9.17744 55.1222 9.17744 54.5963C9.17744 54.0703 8.75113 53.6441 8.22529 53.6441H4.76074C3.18563 53.6441 1.9043 52.3627 1.9043 50.7877C1.9043 50.6732 1.96143 50.5993 1.99748 50.5634C2.03214 50.5286 2.10755 50.4703 2.22168 50.4703H35.1571V53.6441H12.6687C12.1428 53.6441 11.7165 54.0703 11.7165 54.5963C11.7165 55.1222 12.1428 55.5484 12.6687 55.5484H35.1571V58.2488C35.1571 60.1836 36.7312 61.7578 38.6661 61.7578H54.5518C56.4859 61.7578 58.0595 60.1837 58.0595 58.2488V55.548H60.2393C62.8644 55.548 65 53.4124 65 50.7873C65 49.5621 64.0033 48.5655 62.7783 48.5655ZM1.9043 38.5722V6.11273C1.9043 5.5799 2.33784 5.14649 2.87054 5.14649H44.6936C45.2263 5.14649 45.6596 5.57978 45.6596 6.11247V25.9721H43.8826V7.87623C43.8826 7.35027 43.4563 6.92408 42.9305 6.92408H14.2035C13.6777 6.92408 13.2514 7.35027 13.2514 7.87623C13.2514 8.4022 13.6777 8.82838 14.2035 8.82838H41.9783V25.9721H38.6661C36.7312 25.9721 35.1571 27.5462 35.1571 29.4811V35.8568H5.58594V8.82851H9.76016C10.286 8.82851 10.7123 8.40233 10.7123 7.87636C10.7123 7.35039 10.286 6.92421 9.76016 6.92421H4.63379C4.10795 6.92421 3.68164 7.35039 3.68164 7.87636V36.809C3.68164 37.335 4.10795 37.7611 4.63379 37.7611H35.1571V39.5386H2.87054C2.33784 39.5385 1.9043 39.1051 1.9043 38.5722ZM56.1552 58.2487C56.1552 59.1336 55.4359 59.8534 54.5518 59.8534H38.6661C37.7812 59.8534 37.0614 59.1336 37.0614 58.2487V47.6976C37.0614 47.1717 36.6351 46.7455 36.1093 46.7455C35.5834 46.7455 35.1571 47.1717 35.1571 47.6976V48.566H4.43511L4.43841 41.4429H35.1571V43.2544C35.1571 43.7804 35.5834 44.2066 36.1093 44.2066C36.6351 44.2066 37.0614 43.7804 37.0614 43.2544V29.4813C37.0614 28.5964 37.7812 27.8766 38.6661 27.8766H54.5518C55.4359 27.8766 56.1552 28.5964 56.1552 29.4813V58.2487ZM60.2393 53.6436H58.0595V50.4698H62.7783C62.9533 50.4698 63.0957 50.6121 63.0957 50.7872C63.0957 52.3622 61.8144 53.6436 60.2393 53.6436Z" fill="black"/>
<path d="M23.7822 31.5521C29.0003 31.5521 33.2455 27.3069 33.2455 22.0887C33.2455 16.8704 29.0003 12.6252 23.7822 12.6252C18.564 12.6252 14.3188 16.8704 14.3188 22.0887C14.3187 27.3069 18.564 31.5521 23.7822 31.5521ZM23.7822 14.5295C27.9503 14.5295 31.3412 17.9206 31.3412 22.0887C31.3412 26.2568 27.9503 29.6478 23.7822 29.6478C19.6141 29.6478 16.2231 26.2568 16.2231 22.0887C16.2231 17.9206 19.6141 14.5295 23.7822 14.5295Z" fill="black"/>
<path d="M22.4769 25.7161C22.658 25.9198 22.9172 26.036 23.1888 26.036C23.1989 26.036 23.2092 26.0359 23.2194 26.0355C23.5021 26.0265 23.766 25.8922 23.9398 25.669L28.3085 20.0623C28.6318 19.6476 28.5575 19.0494 28.1427 18.7262C27.7279 18.4028 27.1295 18.4769 26.8064 18.8921L23.1409 23.5962L21.2266 21.4407C20.8775 21.0475 20.2756 21.0118 19.8824 21.3611C19.4892 21.7102 19.4536 22.3119 19.8027 22.7053L22.4769 25.7161Z" fill="black"/>
<path d="M44.9043 31.1909H48.3132C48.8391 31.1909 49.2654 30.7647 49.2654 30.2388C49.2654 29.7128 48.8391 29.2866 48.3132 29.2866H44.9043C44.3785 29.2866 43.9521 29.7128 43.9521 30.2388C43.9521 30.7647 44.3785 31.1909 44.9043 31.1909Z" fill="black"/>
<path d="M46.6085 36.2793C42.4258 36.2793 39.0229 39.6821 39.0229 43.8649C39.0229 48.0476 42.4258 51.4505 46.6085 51.4505C50.7912 51.4505 54.1941 48.0476 54.1941 43.8649C54.1941 39.6821 50.7912 36.2793 46.6085 36.2793ZM46.6085 49.546C43.4758 49.546 40.9272 46.9974 40.9272 43.8647C40.9272 40.7321 43.4758 38.1835 46.6085 38.1835C49.7412 38.1835 52.2898 40.7321 52.2898 43.8647C52.2898 46.9974 49.7412 49.546 46.6085 49.546Z" fill="black"/>
<path d="M49.9378 41.2367C49.5229 40.9132 48.9248 40.9876 48.6015 41.4025L46.1462 44.5535L44.9727 43.232C44.6236 42.8387 44.0217 42.8032 43.6285 43.1524C43.2353 43.5015 43.1997 44.1033 43.5488 44.4966L45.482 46.6734C45.663 46.8772 45.9223 46.9934 46.1938 46.9934C46.204 46.9934 46.2143 46.9932 46.2244 46.9929C46.5072 46.9838 46.7711 46.8495 46.9449 46.6265L50.1035 42.573C50.427 42.1582 50.3527 41.5599 49.9378 41.2367Z" fill="black"/>
</svg>
