<svg width="65" height="65" viewBox="0 0 65 65" fill="none" xmlns="http://www.w3.org/2000/svg">
<path d="M61.0016 2.53345H3.99839C1.86367 2.53345 0.126953 4.27004 0.126953 6.40488V45.7767C0.126953 47.9114 1.86367 49.6482 3.99839 49.6482H24.0929L20.8107 56.3235H16.4723C14.7786 56.3235 13.4008 57.7014 13.4008 59.395C13.4008 61.0885 14.7787 62.4665 16.4723 62.4665H48.5277C50.2214 62.4665 51.5992 61.0885 51.5992 59.395C51.5992 57.7014 50.2213 56.3235 48.5277 56.3235H44.1893L40.9071 49.6482H61.0016C63.1363 49.6482 64.873 47.9114 64.873 45.7767V6.40488C64.873 4.27004 63.1363 2.53345 61.0016 2.53345ZM49.6949 59.395C49.6949 60.0385 49.1712 60.5622 48.5277 60.5622H16.4723C15.8288 60.5622 15.3051 60.0385 15.3051 59.395C15.3051 58.7515 15.8288 58.2278 16.4723 58.2278H48.5277C49.1712 58.2278 49.6949 58.7515 49.6949 59.395ZM42.0673 56.3235H22.9327L26.2149 49.6482H38.7851L42.0673 56.3235ZM62.9688 45.7767C62.9688 46.8614 62.0863 47.7439 61.0016 47.7439H3.99839C2.9137 47.7439 2.03125 46.8614 2.03125 45.7767V6.40488C2.03125 5.3202 2.9137 4.43774 3.99839 4.43774H61.0016C62.0863 4.43774 62.9688 5.3202 62.9688 6.40488V45.7767ZM28.5483 38.3962C28.5483 38.9221 28.1221 39.3483 27.5962 39.3483H13.3176V39.828C13.3176 40.3539 12.8915 40.7801 12.3655 40.7801C11.8395 40.7801 11.4133 40.3539 11.4133 39.828V39.3483H9.83049C9.30452 39.3483 8.87834 38.9221 8.87834 38.3962C8.87834 37.8702 9.30452 37.444 9.83049 37.444H11.4135V36.9644C11.4135 36.4384 11.8396 36.0123 12.3656 36.0123C12.8916 36.0123 13.3178 36.4384 13.3178 36.9644V37.444H27.5963C28.1221 37.444 28.5483 37.8702 28.5483 38.3962ZM12.3472 31.2628C12.5253 31.4119 12.742 31.4846 12.9576 31.4846C13.2299 31.4846 13.5001 31.3684 13.6885 31.1434L17.858 26.1584L19.9845 27.4083L19.1652 30.4949C19.0304 31.0031 19.3329 31.5245 19.8412 31.6594C19.9231 31.6811 20.0053 31.6915 20.0861 31.6915C20.5074 31.6915 20.8927 31.4097 21.0058 30.9834L22.0105 27.198C22.1201 26.785 21.9411 26.3495 21.5728 26.1329L18.8359 24.5243L19.6336 22.5515L22.7377 24.3437C22.8837 24.428 23.048 24.4713 23.2138 24.4713C23.2963 24.4713 23.3792 24.4607 23.4602 24.4388C23.7041 24.3734 23.9121 24.214 24.0383 23.9953L25.2934 21.8214C25.5563 21.3661 25.4003 20.7837 24.9449 20.5208C24.4891 20.258 23.9071 20.4137 23.6443 20.8693L22.8653 22.2185L20.3545 20.7689L20.8576 19.5245C21.0403 19.5548 21.2277 19.5714 21.4188 19.5714C23.3017 19.5714 24.8336 18.0396 24.8336 16.1567C24.8336 14.2737 23.3017 12.7417 21.4188 12.7417C19.5358 12.7417 18.0039 14.2737 18.0039 16.1567C18.0039 17.1639 18.4426 18.0705 19.1386 18.696L18.6891 19.8073L15.5851 18.0153C15.1299 17.7523 14.5473 17.9082 14.2845 18.3637L13.0295 20.5374C12.7665 20.9928 12.9226 21.5751 13.3779 21.8381C13.8331 22.1007 14.4158 21.945 14.6786 21.4896L15.4576 20.1405L17.9682 21.59L16.8186 24.4329L12.2277 29.9216C11.8903 30.325 11.9438 30.9255 12.3472 31.2628ZM21.4186 14.6459C22.2516 14.6459 22.9291 15.3236 22.9291 16.1565C22.9291 16.9895 22.2515 17.667 21.4186 17.667C20.5856 17.667 19.908 16.9893 19.908 16.1565C19.9079 15.3236 20.5856 14.6459 21.4186 14.6459ZM31.5479 6.38076H4.92654C4.40058 6.38076 3.97439 6.80694 3.97439 7.33291V44.8486C3.97439 45.3745 4.40058 45.8007 4.92654 45.8007H31.5479H60.0735H61.0256V44.8486V7.33291V6.38076H60.0735H31.5479ZM5.87869 43.8964V8.28506H31.5479V43.8964H5.87869ZM59.1213 43.8964H33.4521V8.28506H59.1213V43.8964ZM36.4518 38.3962C36.4518 37.8702 36.878 37.444 37.4039 37.444H51.6824V36.9644C51.6824 36.4384 52.1085 36.0123 52.6345 36.0123C53.1605 36.0123 53.5867 36.4384 53.5867 36.9644V37.444H55.1696C55.6956 37.444 56.1218 37.8702 56.1218 38.3962C56.1218 38.9221 55.6956 39.3483 55.1696 39.3483H53.5867V39.828C53.5867 40.3539 53.1605 40.7801 52.6345 40.7801C52.1085 40.7801 51.6824 40.3539 51.6824 39.828V39.3483H37.4039C36.878 39.3483 36.4518 38.922 36.4518 38.3962ZM39.5029 27.889L42.955 30.1093C43.1104 30.2092 43.2894 30.2606 43.47 30.2606C43.567 30.2606 43.6644 30.2459 43.7588 30.2157C44.0292 30.1296 44.2472 29.9274 44.3532 29.664L45.6501 26.4428L48.0815 31.1742C48.2503 31.5028 48.5836 31.6914 48.9291 31.6914C49.0756 31.6914 49.2243 31.6574 49.3636 31.5859C49.8314 31.3455 50.0157 30.7715 49.7753 30.3038L46.5907 24.1066L47.2765 22.403L50.0544 23.1475L49.6512 24.6522C49.5151 25.1602 49.8165 25.6823 50.3245 25.8184C50.407 25.8406 50.49 25.8512 50.5715 25.8512C50.992 25.8512 51.3767 25.5706 51.4905 25.1452L52.1402 22.7206C52.2763 22.2127 51.9749 21.6905 51.4669 21.5545L47.9927 20.6235L48.435 19.5251C48.6163 19.5549 48.8022 19.5712 48.9918 19.5712C50.8748 19.5712 52.4068 18.0394 52.4068 16.1564C52.4068 14.2734 50.8748 12.7415 48.9918 12.7415C47.1089 12.7415 45.5769 14.2734 45.5769 16.1564C45.5769 17.1653 46.0171 18.073 46.7151 18.6988L46.14 20.1271L43.347 19.3787L43.7502 17.874C43.8863 17.366 43.5849 16.844 43.077 16.7078C42.5688 16.5713 42.0469 16.8731 41.9108 17.381L41.261 19.8054C41.1955 20.0493 41.2298 20.3093 41.3561 20.5279C41.4823 20.7467 41.6904 20.9061 41.9343 20.9715L45.4234 21.9065L43.0165 27.8847L40.5327 26.2873C40.0907 26.0029 39.5013 26.1307 39.217 26.573C38.9326 27.0155 39.0606 27.6047 39.5029 27.889ZM48.992 14.6459C49.825 14.6459 50.5026 15.3236 50.5026 16.1565C50.5026 16.9895 49.8249 17.667 48.992 17.667C48.159 17.667 47.4814 16.9893 47.4814 16.1565C47.4814 15.3236 48.159 14.6459 48.992 14.6459Z" fill="black"/>
</svg>
