<svg width="65" height="65" viewBox="0 0 65 65" fill="none" xmlns="http://www.w3.org/2000/svg">
<path d="M46.0992 62.0546C55.4328 62.0546 62.9992 54.4883 62.9992 45.1546C62.9992 35.821 55.4328 28.2546 46.0992 28.2546C36.7656 28.2546 29.1992 35.821 29.1992 45.1546C29.1992 54.4883 36.7656 62.0546 46.0992 62.0546Z" stroke="#231F20" stroke-width="2" stroke-miterlimit="10" stroke-linecap="round" stroke-linejoin="round"/>
<path d="M19.3277 36.7961C28.6613 36.7961 36.2277 29.2297 36.2277 19.8961C36.2277 10.5625 28.6613 2.99609 19.3277 2.99609C9.99412 2.99609 2.42773 10.5625 2.42773 19.8961C2.42773 29.2297 9.99412 36.7961 19.3277 36.7961Z" stroke="#231F20" stroke-width="2" stroke-miterlimit="10" stroke-linecap="round" stroke-linejoin="round"/>
<path d="M41.3867 11.954C41.3867 11.954 55.7984 9.54697 59.2211 25.3298" stroke="#231F20" stroke-width="2" stroke-miterlimit="10" stroke-linecap="round" stroke-linejoin="round"/>
<path d="M55.4941 23.7352L59.2215 25.3297L61.3238 21.0032" stroke="#231F20" stroke-width="2" stroke-miterlimit="10" stroke-linecap="round" stroke-linejoin="round"/>
<path d="M29.7068 60.5109C29.7068 60.5109 15.9553 61.3945 14.249 46.2617" stroke="#231F20" stroke-width="2" stroke-miterlimit="10" stroke-linecap="round" stroke-linejoin="round"/>
<path d="M17.5908 48.1102L14.2494 46.2617L11.8525 50.1211" stroke="#231F20" stroke-width="2" stroke-miterlimit="10" stroke-linecap="round" stroke-linejoin="round"/>
<path d="M50.7922 39.0609C50.7922 39.0609 49.6751 36.5117 45.4196 36.5117C41.1641 36.5117 38.2899 42.5648 44.1704 44.1492C50.8735 45.9469 51.7774 47.1859 51.2188 49.8063C50.4876 53.2188 41.2962 53.7977 40.9001 48.9938" stroke="#231F20" stroke-width="2" stroke-miterlimit="10" stroke-linecap="round" stroke-linejoin="round"/>
<path d="M45.9785 33.9624V56.3366" stroke="#231F20" stroke-width="2" stroke-miterlimit="10" stroke-linecap="round" stroke-linejoin="round"/>
<path d="M18.3529 24.9944L15.7123 13.3858C15.5904 12.8577 15.1232 12.4819 14.5748 12.4819H12.7771C12.2287 12.4819 11.7615 12.8577 11.6396 13.3858L8.99902 24.9944" stroke="#231F20" stroke-width="2" stroke-miterlimit="10" stroke-linecap="round" stroke-linejoin="round"/>
<path d="M10.3496 19.053H17.002" stroke="#231F20" stroke-width="2" stroke-miterlimit="10" stroke-linecap="round" stroke-linejoin="round"/>
<path d="M22.2832 24.9944V12.4819H25.3301C27.7168 12.4819 29.6465 14.4116 29.6465 16.7983V20.6679C29.6465 23.0546 27.7168 24.9843 25.3301 24.9843H22.2832V24.9944Z" stroke="#231F20" stroke-width="2" stroke-miterlimit="10" stroke-linecap="round" stroke-linejoin="round"/>
</svg>
