<svg width="65" height="65" viewBox="0 0 65 65" fill="none" xmlns="http://www.w3.org/2000/svg">
<path d="M46.4648 50.2734C45.7641 50.2734 45.1953 50.8422 45.1953 51.543C45.1953 52.2437 45.7641 52.8125 46.4648 52.8125C47.1656 52.8125 47.7344 52.2437 47.7344 51.543C47.7344 50.8422 47.1656 50.2734 46.4648 50.2734Z" fill="black"/>
<path d="M49.5907 46.1682L43.5566 44.1572L41.3904 39.8247C43.3419 37.8384 44.6969 35.2102 45.1538 32.4689L45.424 30.8496H47.7344C49.8344 30.8496 51.543 29.1411 51.543 27.041V19.043C51.543 8.54268 43.0003 0 32.5 0C21.9728 0 13.457 8.51817 13.457 19.043V27.041C13.457 28.696 14.5185 30.1072 15.9961 30.6313V32.1191C15.9961 34.2192 17.7046 35.9277 19.8047 35.9277H20.9196C21.4699 37.1233 22.1823 38.2305 23.0491 39.2252C23.2289 39.4319 23.4164 39.6322 23.6085 39.8271L21.4434 44.1572L15.4092 46.1683C8.39313 48.5078 3.30078 55.8938 3.30078 63.7305C3.30078 64.4316 3.86915 65 4.57031 65H60.4297C61.1307 65 61.6992 64.4316 61.6992 63.7305C61.6992 55.8938 56.607 48.5078 49.5907 46.1682ZM49.0039 27.041C49.0039 27.741 48.4344 28.3105 47.7344 28.3105H45.7968C46.1195 25.8108 46.3346 23.1508 46.421 20.5309C46.4236 20.457 46.4256 20.3851 46.4279 20.3125H49.0039V27.041ZM17.2656 28.3105C16.5656 28.3105 15.9961 27.741 15.9961 27.041V20.3125H18.573C18.5772 20.4449 18.5816 20.578 18.5866 20.7119C18.5867 20.7165 18.587 20.7209 18.5871 20.7255C18.5871 20.7259 18.5871 20.7262 18.5871 20.7266C18.6759 23.2748 18.8882 25.8658 19.2036 28.3104H17.2656V28.3105ZM19.8047 33.3887C19.1047 33.3887 18.5352 32.8192 18.5352 32.1191V30.8496H19.5759L19.8461 32.4694C19.8976 32.7773 19.961 33.084 20.0342 33.3887H19.8047ZM18.5373 17.7734H16.0443C16.6874 9.26491 23.7881 2.53906 32.5 2.53906C41.1732 2.53906 48.3052 9.26402 48.9555 17.7734H46.4628C46.3714 10.7622 40.6619 5.07812 33.6364 5.07812H31.3639C24.3384 5.07812 18.6286 10.7622 18.5373 17.7734ZM31.3638 7.61719H33.6362C39.3249 7.61719 43.9291 12.2701 43.9258 17.9524C43.9258 18.352 43.9226 18.6998 43.9159 19.0163C43.9159 19.0204 43.9158 19.0246 43.9158 19.0287L42.3278 18.8019C38.014 18.1859 33.9408 16.1493 30.8586 13.0672C30.6205 12.8291 30.2976 12.6953 29.9609 12.6953C26.5515 12.6953 23.2878 14.2487 21.1303 16.8731C21.662 11.7037 26.0321 7.61719 31.3638 7.61719ZM22.6662 33.3887C22.0307 31.2745 21.3035 25.0538 21.1428 21.0675L22.8514 18.7892C24.4207 16.6975 26.8621 15.3979 29.4592 15.2487C32.8764 18.5008 37.2972 20.6483 41.9688 21.3153L43.8378 21.5824C43.7129 24.2338 43.4576 26.8945 43.0918 29.3415C43.0917 29.3423 43.0916 29.3432 43.0914 29.3441C42.9752 30.1308 42.8835 30.6371 42.6494 32.0512C41.9771 36.0839 38.968 39.7306 34.9958 40.7238C33.361 41.1319 31.6387 41.1318 30.0049 40.7238C27.5246 40.1037 25.2503 38.3876 23.7826 35.9277H26.3707C26.8948 37.4053 28.3058 38.4668 29.9609 38.4668H32.5C34.6042 38.4668 36.3086 36.7626 36.3086 34.6582C36.3086 32.5581 34.6001 30.8496 32.5 30.8496H29.9609C28.269 30.8496 26.8788 31.9424 26.3685 33.3887H22.6662ZM29.8542 43.293C30.7249 43.4765 31.6127 43.5703 32.5 43.5703C33.1946 43.5703 33.8892 43.5122 34.5761 43.3994L32.3328 45.7718L29.8542 43.293ZM30.5875 47.6175L26.5608 51.8757C25.4522 49.7538 24.4997 47.5455 23.7184 45.2847L25.2305 42.2604L30.5875 47.6175ZM39.5543 41.8303L41.2813 45.2846C40.4988 47.5492 39.546 49.7583 38.4386 51.8776L34.1288 47.5678L39.5543 41.8303ZM28.6914 34.6582C28.6914 33.9573 29.2599 33.3887 29.9609 33.3887H32.5C33.2 33.3887 33.7695 33.9582 33.7695 34.6582C33.7695 35.3592 33.2009 35.9277 32.5 35.9277H29.9609C29.2609 35.9277 28.6914 35.3582 28.6914 34.6582ZM5.89063 62.4609C6.39374 56.1718 10.5793 50.4554 16.2122 48.577L21.5561 46.7961C22.5352 49.5033 23.7481 52.1347 25.1696 54.6342C25.172 54.6385 25.1743 54.6428 25.1767 54.647L25.1768 54.6472C26.2154 56.474 27.3844 58.259 28.6518 59.9537L30.2136 62.4609H5.89063ZM32.5 61.3293L30.7783 58.5651C30.759 58.5341 30.7384 58.5041 30.7166 58.4749C29.6885 57.1035 28.7295 55.6693 27.8561 54.2014L32.3836 49.4135L37.1542 54.1841C36.275 55.6627 35.3126 57.1029 34.2837 58.4746C34.2215 58.5575 34.3097 58.4269 32.5 61.3293ZM34.7864 62.4609L36.3481 59.9539C37.621 58.2527 38.7984 56.4533 39.8474 54.6051C39.8538 54.5939 39.8597 54.5825 39.8661 54.5713C39.8668 54.5699 39.8676 54.5686 39.8684 54.5672C41.2718 52.0917 42.472 49.4832 43.4439 46.7961L48.7877 48.577C54.4207 50.4554 58.6063 56.1718 59.1094 62.4609H34.7864Z" fill="black"/>
<path d="M55.2938 57.3233C54.4454 55.625 53.2027 54.1163 51.6999 52.9603C51.1441 52.5326 50.3471 52.6365 49.9197 53.1923C49.4921 53.7481 49.596 54.5452 50.1517 54.9727C51.3519 55.8961 52.3445 57.1012 53.0223 58.458C53.3362 59.0863 54.0992 59.3392 54.7253 59.0263C55.3525 58.713 55.607 57.9505 55.2938 57.3233Z" fill="black"/>
</svg>
