<svg width="65" height="65" viewBox="0 0 65 65" fill="none" xmlns="http://www.w3.org/2000/svg">
<path d="M6.09375 45.7031H20.0281L18.5047 51.7969H18.2812C16.9349 51.7985 15.6442 52.334 14.6923 53.286C13.7403 54.238 13.2047 55.5287 13.2031 56.875C13.2031 57.1444 13.3101 57.4027 13.5006 57.5932C13.6911 57.7836 13.9494 57.8906 14.2188 57.8906H21.516C21.8671 59.4853 22.7121 60.9286 23.9309 62.0153C25.1496 63.102 26.68 63.7767 28.3043 63.9434C29.9286 64.1101 31.5642 63.7604 32.9782 62.9439C34.3923 62.1275 35.5129 60.8859 36.1806 59.3958L36.4102 58.8829C36.9516 57.6796 37.8292 56.6583 38.9372 55.9419C40.0453 55.2254 41.3367 54.8443 42.6562 54.8443C43.9758 54.8443 45.2672 55.2254 46.3753 55.9419C47.4833 56.6583 48.3609 57.6796 48.9023 58.8829L49.1319 59.3968C49.896 61.1117 51.256 62.4915 52.9597 63.2802C54.6635 64.069 56.5955 64.2132 58.3975 63.6862C60.1995 63.1593 61.7493 61.9968 62.7596 60.4144C63.7699 58.8319 64.1722 56.9368 63.892 55.0804V55.052L61.9379 44.4671C61.7254 43.0606 61.1454 41.735 60.2564 40.6245C59.3674 39.514 58.201 38.658 56.875 38.1428V36.5625C56.8737 36.1364 56.7825 35.7154 56.6075 35.3269C56.4325 34.9384 56.1776 34.5912 55.8594 34.3078V6.09375C55.8578 4.74744 55.3222 3.45674 54.3702 2.50475C53.4183 1.55277 52.1276 1.01724 50.7812 1.01562H6.09375C4.74744 1.01724 3.45674 1.55277 2.50475 2.50475C1.55277 3.45674 1.01724 4.74744 1.01562 6.09375V40.625C1.01724 41.9713 1.55277 43.262 2.50475 44.214C3.45674 45.166 4.74744 45.7015 6.09375 45.7031ZM22.1203 45.7031H23.1461L22.0289 51.7969H20.5969L22.1203 45.7031ZM18.2812 53.8281H21.6511L21.4205 55.0794C21.3814 55.3379 21.3553 55.5982 21.3423 55.8594H15.408C15.6189 55.2657 16.0082 54.7518 16.5226 54.3882C17.037 54.0245 17.6513 53.8289 18.2812 53.8281ZM59.9361 44.8063L61.8871 55.4034C62.0101 56.2109 61.9572 57.0354 61.7319 57.8205C61.5067 58.6057 61.1144 59.3329 60.582 59.9523C59.9521 60.6859 59.1471 61.2487 58.2418 61.5884C57.3365 61.9281 56.3601 62.0339 55.4031 61.8958C54.446 61.7578 53.5393 61.3804 52.7669 60.7987C51.9945 60.217 51.3814 59.4498 50.9844 58.568L50.7559 58.0541C50.0543 56.4925 48.9164 55.1669 47.479 54.2369C46.0417 53.3069 44.3662 52.8121 42.6542 52.8121C40.9422 52.8121 39.2668 53.3069 37.8294 54.2369C36.3921 55.1669 35.2541 56.4925 34.5526 58.0541L34.3241 58.567C33.9269 59.448 33.314 60.2146 32.542 60.7958C31.77 61.377 30.8638 61.7541 29.9074 61.8922C28.951 62.0304 27.9752 61.925 27.0703 61.5859C26.1654 61.2468 25.3606 60.685 24.7305 59.9523C24.1991 59.3353 23.8071 58.6108 23.5813 57.8283C23.3556 57.0459 23.3013 56.2239 23.4223 55.4186L25.3815 44.7769C25.6014 43.3315 26.3346 42.0137 27.4467 41.0647C28.5589 40.1157 29.9757 39.5991 31.4377 39.6094H53.8748C55.3414 39.6012 56.7618 40.1223 57.8751 41.0769C58.9885 42.0315 59.7203 43.3557 59.9361 44.8063ZM34.5312 37.5781H31.4377C31.1137 37.5801 30.7902 37.6011 30.4688 37.6411V36.5625C30.4688 36.2931 30.5758 36.0348 30.7662 35.8443C30.9567 35.6539 31.215 35.5469 31.4844 35.5469H33.5156C33.785 35.5469 34.0433 35.6539 34.2338 35.8443C34.4242 36.0348 34.5312 36.2931 34.5312 36.5625V37.5781ZM53.8748 37.5781H50.7812V36.5625C50.7812 36.2931 50.8883 36.0348 51.0787 35.8443C51.2692 35.6539 51.5275 35.5469 51.7969 35.5469H53.8281C54.0975 35.5469 54.3558 35.6539 54.5463 35.8443C54.7367 36.0348 54.8438 36.2931 54.8438 36.5625V37.6411C54.5223 37.6011 54.1988 37.5801 53.8748 37.5781ZM3.04688 6.09375C3.04688 5.28567 3.36788 4.51068 3.93928 3.93928C4.51068 3.36788 5.28567 3.04688 6.09375 3.04688H50.7812C51.5893 3.04688 52.3643 3.36788 52.9357 3.93928C53.5071 4.51068 53.8281 5.28567 53.8281 6.09375V33.5156H51.7969V6.09375C51.7969 5.82439 51.6899 5.56606 51.4994 5.37559C51.3089 5.18513 51.0506 5.07812 50.7812 5.07812H6.09375C5.82439 5.07812 5.56606 5.18513 5.37559 5.37559C5.18513 5.56606 5.07812 5.82439 5.07812 6.09375V36.5625C5.07812 36.8319 5.18513 37.0902 5.37559 37.2807C5.56606 37.4711 5.82439 37.5781 6.09375 37.5781H26.4062V35.5469H7.10938V7.10938H49.7656V34.3078C49.4474 34.5912 49.1925 34.9384 49.0175 35.3269C48.8425 35.7154 48.7513 36.1364 48.75 36.5625V37.5781H43.6719C43.6719 36.77 43.3509 35.9951 42.7795 35.4237C42.2081 34.8523 41.4331 34.5312 40.625 34.5312H40.1172C39.9825 34.5312 39.8533 34.4777 39.7581 34.3825C39.6629 34.2873 39.6094 34.1581 39.6094 34.0234C39.6094 33.8888 39.6629 33.7596 39.7581 33.6644C39.8533 33.5691 39.9825 33.5156 40.1172 33.5156H42.6562C43.7337 33.5156 44.767 33.0876 45.5289 32.3257C46.2907 31.5639 46.7188 30.5306 46.7188 29.4531V28.4375H44.6875V29.4531C44.6875 29.9918 44.4735 30.5085 44.0926 30.8894C43.7116 31.2704 43.195 31.4844 42.6562 31.4844H40.1172C39.4438 31.4844 38.798 31.7519 38.3218 32.228C37.8456 32.7042 37.5781 33.35 37.5781 34.0234C37.5781 34.6968 37.8456 35.3427 38.3218 35.8188C38.798 36.295 39.4438 36.5625 40.1172 36.5625H40.625C40.8944 36.5625 41.1527 36.6695 41.3432 36.86C41.5336 37.0504 41.6406 37.3088 41.6406 37.5781H36.5625V36.5625C36.5625 35.7544 36.2415 34.9794 35.6701 34.408C35.0987 33.8366 34.3237 33.5156 33.5156 33.5156H31.4844C30.6763 33.5156 29.9013 33.8366 29.3299 34.408C28.7585 34.9794 28.4375 35.7544 28.4375 36.5625V38.1418C27.2386 38.6056 26.1682 39.3496 25.3157 40.3117C24.4632 41.2738 23.8533 42.4259 23.5371 43.6719H6.09375C5.28567 43.6719 4.51068 43.3509 3.93928 42.7795C3.36788 42.2081 3.04688 41.4331 3.04688 40.625V6.09375Z" fill="black"/>
<path d="M38.5938 44.6875H36.5625V42.6562C36.5625 42.3869 36.4555 42.1286 36.265 41.9381C36.0746 41.7476 35.8162 41.6406 35.5469 41.6406H31.4844C31.215 41.6406 30.9567 41.7476 30.7662 41.9381C30.5758 42.1286 30.4688 42.3869 30.4688 42.6562V44.6875H28.4375C28.1681 44.6875 27.9098 44.7945 27.7193 44.985C27.5289 45.1754 27.4219 45.4338 27.4219 45.7031V49.7656C27.4219 50.035 27.5289 50.2933 27.7193 50.4838C27.9098 50.6742 28.1681 50.7812 28.4375 50.7812H30.4688V52.8125C30.4688 53.0819 30.5758 53.3402 30.7662 53.5307C30.9567 53.7211 31.215 53.8281 31.4844 53.8281H35.5469C35.8162 53.8281 36.0746 53.7211 36.265 53.5307C36.4555 53.3402 36.5625 53.0819 36.5625 52.8125V50.7812H38.5938C38.8631 50.7812 39.1214 50.6742 39.3119 50.4838C39.5024 50.2933 39.6094 50.035 39.6094 49.7656V45.7031C39.6094 45.4338 39.5024 45.1754 39.3119 44.985C39.1214 44.7945 38.8631 44.6875 38.5938 44.6875ZM37.5781 48.75H35.5469C35.2775 48.75 35.0192 48.857 34.8287 49.0475C34.6383 49.2379 34.5312 49.4963 34.5312 49.7656V51.7969H32.5V49.7656C32.5 49.4963 32.393 49.2379 32.2025 49.0475C32.0121 48.857 31.7537 48.75 31.4844 48.75H29.4531V46.7188H31.4844C31.7537 46.7188 32.0121 46.6117 32.2025 46.4213C32.393 46.2308 32.5 45.9725 32.5 45.7031V43.6719H34.5312V45.7031C34.5312 45.9725 34.6383 46.2308 34.8287 46.4213C35.0192 46.6117 35.2775 46.7188 35.5469 46.7188H37.5781V48.75Z" fill="black"/>
<path d="M48.75 43.6719C48.7528 44.1375 48.8637 44.596 49.074 45.0115C48.6585 44.8012 48.2 44.6903 47.7344 44.6875C46.9263 44.6875 46.1513 45.0085 45.5799 45.5799C45.0085 46.1513 44.6875 46.9263 44.6875 47.7344C44.6875 48.5425 45.0085 49.3174 45.5799 49.8888C46.1513 50.4602 46.9263 50.7812 47.7344 50.7812C48.2 50.7784 48.6585 50.6675 49.074 50.4573C48.8637 50.8727 48.7528 51.3313 48.75 51.7969C48.75 52.605 49.071 53.3799 49.6424 53.9513C50.2138 54.5227 50.9888 54.8438 51.7969 54.8438C52.605 54.8438 53.3799 54.5227 53.9513 53.9513C54.5227 53.3799 54.8438 52.605 54.8438 51.7969C54.8409 51.3313 54.73 50.8727 54.5198 50.4573C54.9352 50.6675 55.3938 50.7784 55.8594 50.7812C56.6675 50.7812 57.4424 50.4602 58.0138 49.8888C58.5852 49.3174 58.9062 48.5425 58.9062 47.7344C58.9062 46.9263 58.5852 46.1513 58.0138 45.5799C57.4424 45.0085 56.6675 44.6875 55.8594 44.6875C55.3938 44.6903 54.9352 44.8012 54.5198 45.0115C54.73 44.596 54.8409 44.1375 54.8438 43.6719C54.8437 42.8638 54.5227 42.0888 53.9513 41.5174C53.3799 40.946 52.605 40.625 51.7969 40.625C50.9888 40.625 50.2138 40.946 49.6424 41.5174C49.071 42.0888 48.75 42.8638 48.75 43.6719ZM50.4573 46.3948C50.8717 46.6077 51.3309 46.7188 51.7969 46.7188C52.2628 46.7188 52.7221 46.6077 53.1365 46.3948C52.9235 46.8092 52.8124 47.2684 52.8124 47.7344C52.8124 48.2003 52.9235 48.6596 53.1365 49.074C52.7221 48.861 52.2628 48.7499 51.7969 48.7499C51.3309 48.7499 50.8717 48.861 50.4573 49.074C50.6702 48.6596 50.7813 48.2003 50.7813 47.7344C50.7813 47.2684 50.6702 46.8092 50.4573 46.3948ZM47.7344 48.75C47.5335 48.75 47.3371 48.6904 47.1701 48.5788C47.0031 48.4672 46.8729 48.3086 46.7961 48.123C46.7192 47.9375 46.6991 47.7332 46.7383 47.5362C46.7775 47.3392 46.8742 47.1583 47.0162 47.0162C47.1583 46.8742 47.3392 46.7775 47.5362 46.7383C47.7332 46.6991 47.9375 46.7192 48.123 46.7961C48.3086 46.8729 48.4672 47.0031 48.5788 47.1701C48.6904 47.3371 48.75 47.5335 48.75 47.7344C48.75 48.0037 48.643 48.2621 48.4525 48.4525C48.2621 48.643 48.0037 48.75 47.7344 48.75ZM51.7969 52.8125C51.596 52.8125 51.3996 52.7529 51.2326 52.6413C51.0656 52.5297 50.9354 52.3711 50.8586 52.1855C50.7817 52 50.7616 51.7957 50.8008 51.5987C50.84 51.4017 50.9367 51.2208 51.0787 51.0787C51.2208 50.9367 51.4017 50.84 51.5987 50.8008C51.7957 50.7616 52 50.7817 52.1855 50.8586C52.3711 50.9354 52.5297 51.0656 52.6413 51.2326C52.7529 51.3996 52.8125 51.596 52.8125 51.7969C52.8125 52.0662 52.7055 52.3246 52.515 52.515C52.3246 52.7055 52.0662 52.8125 51.7969 52.8125ZM55.8594 46.7188C56.0602 46.7188 56.2566 46.7783 56.4236 46.8899C56.5906 47.0015 56.7208 47.1601 56.7977 47.3457C56.8746 47.5313 56.8947 47.7355 56.8555 47.9325C56.8163 48.1295 56.7196 48.3105 56.5775 48.4525C56.4355 48.5946 56.2545 48.6913 56.0575 48.7305C55.8605 48.7697 55.6563 48.7496 55.4707 48.6727C55.2851 48.5958 55.1265 48.4656 55.0149 48.2986C54.9033 48.1316 54.8438 47.9352 54.8438 47.7344C54.8438 47.465 54.9508 47.2067 55.1412 47.0162C55.3317 46.8258 55.59 46.7188 55.8594 46.7188ZM52.8125 43.6719C52.8125 43.8727 52.7529 44.0691 52.6413 44.2361C52.5297 44.4031 52.3711 44.5333 52.1855 44.6102C52 44.6871 51.7957 44.7072 51.5987 44.668C51.4017 44.6288 51.2208 44.5321 51.0787 44.39C50.9367 44.248 50.84 44.067 50.8008 43.87C50.7616 43.673 50.7817 43.4688 50.8586 43.2832C50.9354 43.0976 51.0656 42.939 51.2326 42.8274C51.3996 42.7158 51.596 42.6562 51.7969 42.6562C52.0662 42.6562 52.3246 42.7633 52.515 42.9537C52.7055 43.1442 52.8125 43.4025 52.8125 43.6719Z" fill="black"/>
<path d="M43.6719 28.4375V12.1875C43.6719 11.9181 43.5649 11.6598 43.3744 11.4693C43.1839 11.2789 42.9256 11.1719 42.6562 11.1719H14.2188C13.9494 11.1719 13.6911 11.2789 13.5006 11.4693C13.3101 11.6598 13.2031 11.9181 13.2031 12.1875V28.4375C13.2031 28.7069 13.3101 28.9652 13.5006 29.1557C13.6911 29.3461 13.9494 29.4531 14.2188 29.4531H42.6562C42.9256 29.4531 43.1839 29.3461 43.3744 29.1557C43.5649 28.9652 43.6719 28.7069 43.6719 28.4375ZM41.6406 27.4219H15.2344V13.2031H41.6406V27.4219Z" fill="black"/>
<path d="M23.6567 24.0775L25.0928 22.6414L22.764 20.3125L25.0928 17.9837L23.6567 16.5476L20.6099 19.5945C20.4195 19.7849 20.3125 20.0432 20.3125 20.3125C20.3125 20.5818 20.4195 20.8401 20.6099 21.0306L23.6567 24.0775Z" fill="black"/>
<path d="M33.2183 24.0775L36.2652 21.0306C36.4556 20.8401 36.5626 20.5818 36.5626 20.3125C36.5626 20.0432 36.4556 19.7849 36.2652 19.5945L33.2183 16.5476L31.7822 17.9837L34.1111 20.3125L31.7822 22.6414L33.2183 24.0775Z" fill="black"/>
<path d="M29.5078 14.9134L26.458 24.0532L28.3839 24.6958L31.4337 15.556L29.5078 14.9134Z" fill="black"/>
</svg>
