<svg width="65" height="65" viewBox="0 0 65 65" fill="none" xmlns="http://www.w3.org/2000/svg">
<path d="M46.0862 32.6008C46.0862 25.1366 39.7402 19.0647 31.939 19.0647C24.1381 19.0647 17.792 25.1366 17.792 32.6008C17.792 40.0644 24.1381 46.1367 31.939 46.1367C39.7402 46.1365 46.0862 40.0644 46.0862 32.6008ZM19.8673 33.7608H23.9379C24.0055 35.1623 24.1936 36.4967 24.4871 37.7354C23.4825 38.042 22.5716 38.4182 21.7584 38.8477C20.7373 37.3524 20.0645 35.6236 19.8673 33.7608ZM21.7158 26.4197C22.534 26.8581 23.4532 27.241 24.4684 27.553C24.1655 28.8577 23.9814 30.2669 23.9292 31.7475H19.8509C20.0025 29.7966 20.6651 27.9818 21.7158 26.4197ZM44.0273 31.7476H39.9496C39.8968 30.269 39.7135 28.8621 39.4109 27.5592C40.4277 27.2478 41.3482 26.8656 42.1679 26.428C43.2156 27.9882 43.8761 29.8 44.0273 31.7476ZM42.116 38.8543C41.3041 38.4239 40.3942 38.0474 39.3902 37.74C39.6845 36.4998 39.8726 35.1642 39.9405 33.7608H44.011C43.8136 35.6262 43.1397 37.3575 42.116 38.8543ZM33.0245 43.9176V38.7471C34.3658 38.7991 35.6478 38.9477 36.8417 39.1809C35.9431 41.595 34.5797 43.3493 33.0245 43.9176ZM33.0245 36.7351V33.7609H37.929C37.8614 34.987 37.6846 36.1584 37.4243 37.2494C36.0461 36.9669 34.566 36.7916 33.0245 36.7351ZM37.9374 31.7476H33.0245V28.5663C34.5743 28.5104 36.0638 28.3347 37.4494 28.05C37.7175 29.2035 37.8848 30.4497 37.9374 31.7476ZM33.0245 26.5539V21.2837C34.6005 21.8596 35.9816 23.6515 36.8789 26.116C35.6744 26.3528 34.3791 26.5024 33.0245 26.5539ZM31.0112 21.2362V26.5572C29.6002 26.5107 28.2509 26.359 27.0008 26.1123C27.9281 23.5689 29.3712 21.7471 31.0112 21.2362ZM31.0112 28.5696V31.7475H25.941C25.9936 30.4479 26.1615 29.2007 26.4304 28.046C27.8617 28.3412 29.405 28.5191 31.0112 28.5696ZM25.9495 33.7608H31.0112V36.7304C29.4141 36.7795 27.8791 36.9552 26.4532 37.2464C26.1935 36.1561 26.0168 34.9854 25.9495 33.7608ZM31.0112 38.7429V43.965C29.3909 43.4604 27.964 41.6742 27.036 39.1782C28.2768 38.9368 29.6138 38.7884 31.0112 38.7429ZM37.1339 42.9982C37.7996 42.0581 38.3653 40.9312 38.8165 39.668C39.5359 39.8897 40.2065 40.1447 40.8097 40.4368C39.7706 41.4972 38.5261 42.3684 37.1339 42.9982ZM40.878 24.836C40.2655 25.1363 39.5844 25.4 38.85 25.6271C38.3935 24.3255 37.8162 23.1666 37.1337 22.2032C38.5568 22.8469 39.8252 23.7437 40.878 24.836ZM26.7447 22.2032C26.0631 23.1649 25.4867 24.3224 25.0303 25.6211C24.2972 25.3939 23.6179 25.1298 23.0064 24.8293C24.0584 23.7399 25.3245 22.8455 26.7447 22.2032ZM23.0636 40.4318C23.668 40.1399 24.3396 39.8848 25.0602 39.6637C25.5119 40.9284 26.0779 42.0569 26.7447 42.9981C25.3501 42.3672 24.1041 41.4944 23.0636 40.4318Z" fill="black"/>
<path d="M57.3433 43.1539C57.468 43.205 57.5978 43.2292 57.7248 43.2292C58.1215 43.2292 58.497 42.9939 58.6571 42.6046C59.9654 39.4182 60.6289 36.052 60.6289 32.6007C60.6289 29.9513 60.2337 27.3308 59.4538 24.8135C59.2893 24.2833 58.727 23.9838 58.1949 24.1498C57.6634 24.314 57.3667 24.8777 57.5309 25.4088C58.2506 27.7334 58.6157 30.153 58.6157 32.6007C58.6157 35.7886 58.0029 38.8972 56.7946 41.8404C56.5832 42.3543 56.829 42.9428 57.3433 43.1539Z" fill="black"/>
<path d="M24.1509 8.31143C26.6653 7.58213 29.2857 7.21215 31.9392 7.21215C36.2373 7.21215 40.3407 8.15543 44.1359 10.0153C44.2788 10.0855 44.4297 10.1182 44.5783 10.1182C44.9505 10.1182 45.3085 9.91108 45.4829 9.55449C45.7279 9.05529 45.5216 8.45235 45.0221 8.20782C40.9489 6.21154 36.5474 5.19897 31.9392 5.19897C29.0962 5.19897 26.2865 5.5956 23.5896 6.37807C23.0555 6.53264 22.7484 7.09099 22.9035 7.62503C23.059 8.15933 23.6167 8.46795 24.1509 8.31143Z" fill="black"/>
<path d="M5.91786 42.6353C6.0372 42.6353 6.15901 42.6146 6.27705 42.5694C6.7964 42.3708 7.05692 41.7895 6.85841 41.2695C5.80008 38.497 5.26331 35.5808 5.26331 32.6007C5.26331 29.8075 5.73664 27.063 6.66965 24.4427C6.85659 23.9191 6.58333 23.3434 6.05904 23.1568C5.53657 22.9692 4.95976 23.2431 4.77282 23.7676C3.76259 26.6046 3.25 29.5768 3.25 32.6007C3.25 35.8272 3.83136 38.9858 4.97744 41.988C5.13084 42.3889 5.51304 42.6353 5.91786 42.6353Z" fill="black"/>
<path d="M41.5441 56.2936C38.4835 57.419 35.2517 57.9892 31.9388 57.9892C29.4353 57.9892 26.9581 57.6594 24.5744 57.0098C24.0388 56.8624 23.4845 57.1802 23.3385 57.7163C23.1921 58.2531 23.5086 58.8063 24.045 58.9522C26.6007 59.6489 29.257 60.0024 31.9388 60.0024C35.4891 60.0024 38.9549 59.3901 42.2389 58.1837C42.7606 57.9917 43.0276 57.4129 42.8364 56.891C42.644 56.3697 42.0667 56.1021 41.5441 56.2936Z" fill="black"/>
<path d="M5.96015 20.8757C6.72845 21.6718 7.65496 22.2796 8.73968 22.6995C9.61796 23.0384 10.5876 23.2334 11.6395 23.2981C12.1756 23.36 12.7152 23.4027 13.2612 23.4027C15.6572 23.4027 17.9754 22.8685 19.9631 21.8574C20.4585 21.6057 20.6566 20.9996 20.4043 20.5038C20.1526 20.0084 19.5471 19.8091 19.0508 20.0628C17.344 20.9306 15.3419 21.3894 13.2612 21.3894C11.9335 21.3894 10.6351 21.1743 9.40424 20.7495C9.30336 20.7152 9.20105 20.702 9.09991 20.6998C8.44354 20.3876 7.86452 19.9796 7.37182 19.4639C6.7681 18.8334 6.30465 18.0526 5.9816 17.1242C5.65855 16.1953 5.49657 15.1351 5.49657 13.944C5.49657 12.7527 5.65855 11.6929 5.9816 10.7635C6.30465 9.83508 6.7681 9.05509 7.37182 8.42381C7.97476 7.79331 8.70003 7.31425 9.54763 6.98782C10.3952 6.66217 11.3433 6.49889 12.3923 6.49889C13.3835 6.49889 14.292 6.66087 15.1184 6.98613C15.944 7.31035 16.6481 7.77966 17.23 8.39313C17.8113 9.0066 18.2641 9.75773 18.5872 10.6471C18.9102 11.5357 19.0725 12.5507 19.0725 13.6931C19.0725 14.3281 19.0108 14.8605 18.8886 15.2911C18.7671 15.7217 18.6123 16.0701 18.4261 16.3383C18.2385 16.6063 18.0304 16.7968 17.8008 16.9099C17.5707 17.0233 17.3488 17.0796 17.1331 17.0796C16.7595 17.0796 16.4501 16.9577 16.2064 16.7131C15.962 16.4687 15.8401 16.16 15.8401 15.7866V12.3384C15.8401 11.8068 15.7503 11.3147 15.5708 10.8626C15.391 10.4097 15.1394 10.0222 14.8164 9.69859C14.4933 9.37528 14.1053 9.12437 13.6529 8.94484C13.2002 8.76531 12.7079 8.67548 12.1769 8.67548C11.8749 8.67548 11.5878 8.7115 11.3146 8.78313C11.0418 8.85502 10.8046 8.92638 10.6035 8.99854C10.3591 9.09876 10.1299 9.20706 9.91423 9.32185C9.78488 9.39373 9.67724 9.47238 9.59118 9.55909C9.50512 9.63098 9.42985 9.72016 9.36498 9.82845C9.29998 9.93583 9.26774 10.0547 9.26774 10.1834C9.26774 10.4566 9.35757 10.6868 9.5371 10.8731C9.71663 11.0598 9.9141 11.1535 10.1298 11.1535C10.273 11.1535 10.4022 11.139 10.5176 11.1104C10.5744 11.0958 10.6249 11.0749 10.6684 11.0453C10.826 10.9595 10.9843 10.8873 11.1419 10.8305C11.2857 10.7725 11.4442 10.7222 11.6164 10.679C11.789 10.6364 11.975 10.6148 12.1767 10.6148C12.6652 10.6148 13.074 10.7799 13.4052 11.1104C13.7354 11.4406 13.9004 11.8502 13.9004 12.3384V12.6614C13.7715 12.6188 13.627 12.5682 13.4693 12.5109C13.3256 12.4677 13.164 12.4282 12.985 12.3921C12.8045 12.3568 12.6073 12.3384 12.392 12.3384C11.8459 12.3384 11.3505 12.4282 10.9055 12.6077C10.4597 12.7876 10.0756 13.0319 9.75251 13.3405C9.42946 13.6499 9.17778 14.0122 8.99812 14.4288C8.81859 14.8453 8.72876 15.2982 8.72876 15.7866C8.72876 16.2748 8.80403 16.7165 8.95496 17.1117C9.10589 17.5069 9.31727 17.8444 9.59079 18.1243C9.86327 18.4047 10.1832 18.6235 10.5494 18.7814C10.9159 18.9394 11.3142 19.0187 11.7455 19.0187C12.1765 19.0187 12.5641 18.9468 12.9088 18.803C13.2543 18.6595 13.5484 18.5015 13.7929 18.3285C14.0654 18.1282 14.3165 17.8909 14.5466 17.6177C14.7188 17.8911 14.9344 18.1282 15.1933 18.3285C15.4084 18.5015 15.6776 18.6595 16.0013 18.803C16.3247 18.9468 16.7014 19.0187 17.1327 19.0187C17.6634 19.0187 18.1669 18.9125 18.6406 18.6997C19.1151 18.4868 19.5282 18.1609 19.8803 17.7217C20.2321 17.2821 20.5084 16.7295 20.7099 16.063C20.9105 15.397 21.0114 14.61 21.0114 13.7028C21.0114 12.2709 20.8029 10.9883 20.3869 9.85381C19.9699 8.72021 19.3845 7.75976 18.6302 6.97287C17.8761 6.18637 16.9709 5.58746 15.9152 5.1764C14.8594 4.7656 13.6851 4.55981 12.392 4.55981C11.0416 4.55981 9.82388 4.7695 8.73942 5.18914C7.65496 5.60813 6.72845 6.21588 5.96015 7.012C5.19133 7.80864 4.59892 8.78975 4.18214 9.95546C3.76536 11.1216 3.55762 12.4512 3.55762 13.944C3.55762 15.437 3.76536 16.7662 4.18214 17.9323C4.59892 19.098 5.19133 20.0791 5.96015 20.8757ZM13.9008 16.1953C13.7718 16.3678 13.6209 16.5193 13.4483 16.6483C13.2899 16.7636 13.1073 16.8639 12.899 16.9497C12.6902 17.0364 12.4499 17.0796 12.1771 17.0796C11.7462 17.0796 11.387 16.9463 11.0997 16.6804C10.8119 16.415 10.6687 16.1167 10.6687 15.7865C10.6687 15.3551 10.8193 14.9966 11.1214 14.709C11.4231 14.4221 11.8464 14.2777 12.3925 14.2777C12.608 14.2777 12.805 14.2959 12.9855 14.3314C13.1645 14.3675 13.3262 14.4067 13.4699 14.4502C13.6275 14.5075 13.7718 14.5581 13.9009 14.6008L13.9008 16.1953Z" fill="black"/>
<path d="M16.9355 50.6512C17.4788 49.6224 17.7904 48.4572 17.7904 47.3392C17.7904 44.1849 15.3862 41.6182 12.4316 41.6182C9.4764 41.6182 7.07283 44.1849 7.07283 47.3392C7.07283 48.4481 7.37989 49.6037 7.91549 50.6265C5.29157 52.1713 3.85845 53.7964 3.36978 58.0179C3.36523 58.0591 3.36328 58.0997 3.36328 58.1413C3.38291 60.8388 9.56259 61.1638 12.5327 61.1638C12.6316 61.1638 12.7278 61.1633 12.8196 61.1624C16.0626 61.1396 21.5006 60.7183 21.4831 58.1518C21.4825 58.0987 21.478 58.0461 21.4694 57.9936C20.8198 54.0874 19.5839 52.0823 16.9355 50.6512ZM12.4317 43.6317C14.2763 43.6317 15.777 45.295 15.777 47.3392C15.777 49.5764 14.1203 51.7729 12.4317 51.7729C10.7438 51.7729 9.08614 49.5764 9.08614 47.3392C9.08614 45.295 10.5869 43.6317 12.4317 43.6317ZM12.6704 59.1504C8.36646 59.1544 5.90348 58.4611 5.39687 58.029C5.86201 54.3874 7.11443 53.406 9.09927 52.2653C10.0008 53.1839 11.1464 53.7862 12.4317 53.7862C13.7102 53.7862 14.8501 53.1897 15.7497 52.2795C15.7923 52.3118 15.8364 52.3439 15.8858 52.3698C17.6979 53.3239 18.8114 54.5286 19.4418 58.0801C18.921 58.529 16.5563 59.1374 12.6704 59.1504Z" fill="black"/>
<path d="M61.736 19.7403C61.0859 15.8342 59.85 13.8292 57.2018 12.398C57.745 11.3695 58.0566 10.204 58.0566 9.08577C58.0566 5.93145 55.6527 3.36499 52.6982 3.36499C49.7433 3.36499 47.339 5.93145 47.339 9.08577C47.339 10.1949 47.6465 11.3505 48.1821 12.3731C45.5579 13.9181 44.1251 15.543 43.6364 19.7645C43.6316 19.8057 43.6299 19.8466 43.6299 19.8879C43.6493 22.5854 49.8288 22.9104 52.799 22.9104C52.8978 22.9104 52.9946 22.9101 53.0859 22.9092C56.3289 22.8862 61.7672 22.4648 61.7497 19.8984C61.749 19.8452 61.7442 19.793 61.736 19.7403ZM52.698 5.3783C54.5426 5.3783 56.0433 7.04178 56.0433 9.08577C56.0433 11.3232 54.3866 13.5194 52.698 13.5194C51.0097 13.5194 49.3525 11.3232 49.3525 9.08577C49.3526 7.04191 50.8531 5.3783 52.698 5.3783ZM52.9367 20.8973C48.6544 20.9069 46.1692 20.2069 45.6632 19.7759C46.1284 16.1344 47.3804 15.153 49.3654 14.0122C50.2669 14.9306 51.4127 15.5329 52.698 15.5329C53.9766 15.5329 55.1164 14.9366 56.0158 14.0264C56.0587 14.0588 56.1027 14.0906 56.1519 14.1168C57.9639 15.0706 59.0778 16.2756 59.7082 19.8268C59.1871 20.2759 56.8224 20.8839 52.9367 20.8973Z" fill="black"/>
<path d="M56.0897 51.6969L51.1923 48.4997C50.882 48.2979 50.4863 48.2818 50.1624 48.4573C49.8374 48.6335 49.6348 48.973 49.6348 49.3426V55.7371C49.6348 56.107 49.8373 56.4462 50.1624 56.6226C50.3118 56.7039 50.4772 56.7439 50.6417 56.7439C50.8339 56.7439 51.025 56.6888 51.1924 56.58L56.0898 53.3822C56.3745 53.197 56.5461 52.8797 56.5461 52.5396C56.5461 52.1995 56.3744 51.8824 56.0897 51.6969ZM51.6483 53.8781V51.2019L53.6977 52.5396L51.6483 53.8781Z" fill="black"/>
<path d="M52.193 43.8635C47.2937 43.8635 43.3076 47.8497 43.3076 52.7492C43.3076 57.6489 47.2935 61.6348 52.193 61.6348C57.0929 61.6348 61.0789 57.6489 61.0789 52.7492C61.0789 47.8497 57.0929 43.8635 52.193 43.8635ZM52.193 59.6215C48.404 59.6215 45.3209 56.5388 45.3209 52.7492C45.3209 48.9598 48.404 45.8768 52.193 45.8768C55.9826 45.8768 59.0653 48.9598 59.0653 52.7492C59.0653 56.5388 55.9826 59.6215 52.193 59.6215Z" fill="black"/>
</svg>
