<svg width="65" height="65" viewBox="0 0 65 65" fill="none" xmlns="http://www.w3.org/2000/svg">
<path d="M57.8906 5.07812H7.10938C4.30625 5.07812 2.03125 7.35313 2.03125 10.1562V44.6875C2.03125 47.4906 4.30625 49.7656 7.10938 49.7656H23.5727L20.6375 55.5039C20.1602 56.4484 20.2008 57.5453 20.7492 58.4492C21.318 59.3734 22.3031 59.9219 23.4 59.9219H41.5898C42.6867 59.9219 43.6719 59.3734 44.2406 58.4492C44.7891 57.5453 44.8398 56.4484 44.3523 55.5039L41.4172 49.7656H57.8805C60.6836 49.7656 62.9586 47.4906 62.9586 44.6875V10.1562C62.9586 7.35313 60.6836 5.07812 57.8805 5.07812H57.8906ZM60.9375 10.1562V41.6406H37.5781V7.10938H57.8906C59.5664 7.10938 60.9375 8.48047 60.9375 10.1562ZM7.10938 7.10938H35.5469V41.6406H4.0625V10.1562C4.0625 8.48047 5.43359 7.10938 7.10938 7.10938ZM42.5445 56.4281C42.768 56.875 42.5953 57.2508 42.5039 57.393C42.4125 57.5453 42.1383 57.8906 41.5898 57.8906H23.4C22.8516 57.8906 22.5773 57.5352 22.4859 57.393C22.4047 57.2508 22.2219 56.875 22.4453 56.4281L25.8477 49.7656H39.132L42.5344 56.4281H42.5445ZM60.9375 44.6875C60.9375 46.3633 59.5664 47.7344 57.8906 47.7344H7.10938C5.43359 47.7344 4.0625 46.3633 4.0625 44.6875V43.6719H60.9375V44.6875Z" fill="black"/>
<path d="M9.14062 24.375H31.4844C32.6016 24.375 33.5156 23.4609 33.5156 22.3438V12.1875C33.5156 11.0703 32.6016 10.1562 31.4844 10.1562H9.14062C8.02344 10.1562 7.10938 11.0703 7.10938 12.1875V22.3438C7.10938 23.4609 8.02344 24.375 9.14062 24.375ZM9.14062 12.1875H31.4844V22.3438H9.14062V12.1875Z" fill="black"/>
<path d="M9.14062 38.5938H17.2656C18.3828 38.5938 19.2969 37.6797 19.2969 36.5625V28.4375C19.2969 27.3203 18.3828 26.4062 17.2656 26.4062H9.14062C8.02344 26.4062 7.10938 27.3203 7.10938 28.4375V36.5625C7.10938 37.6797 8.02344 38.5938 9.14062 38.5938ZM9.14062 28.4375H17.2656V36.5625H9.14062V28.4375Z" fill="black"/>
<path d="M31.4844 26.4062H23.3594C22.2422 26.4062 21.3281 27.3203 21.3281 28.4375V36.5625C21.3281 37.6797 22.2422 38.5938 23.3594 38.5938H31.4844C32.6016 38.5938 33.5156 37.6797 33.5156 36.5625V28.4375C33.5156 27.3203 32.6016 26.4062 31.4844 26.4062ZM23.3594 36.5625V28.4375H31.4844V36.5625H23.3594Z" fill="black"/>
<path d="M56.875 36.5625H41.6406C41.082 36.5625 40.625 37.0195 40.625 37.5781C40.625 38.1367 41.082 38.5938 41.6406 38.5938H56.875C57.4336 38.5938 57.8906 38.1367 57.8906 37.5781C57.8906 37.0195 57.4336 36.5625 56.875 36.5625Z" fill="black"/>
<path d="M56.875 31.4844H41.6406C41.082 31.4844 40.625 31.9414 40.625 32.5C40.625 33.0586 41.082 33.5156 41.6406 33.5156H56.875C57.4336 33.5156 57.8906 33.0586 57.8906 32.5C57.8906 31.9414 57.4336 31.4844 56.875 31.4844Z" fill="black"/>
<path d="M56.875 26.4062H41.6406C41.082 26.4062 40.625 26.8633 40.625 27.4219C40.625 27.9805 41.082 28.4375 41.6406 28.4375H56.875C57.4336 28.4375 57.8906 27.9805 57.8906 27.4219C57.8906 26.8633 57.4336 26.4062 56.875 26.4062Z" fill="black"/>
<path d="M53.2186 21.1249C53.4015 21.2569 53.6147 21.328 53.828 21.328C54.1327 21.328 54.4374 21.1858 54.6405 20.9218L57.6874 16.8593C57.9616 16.4936 57.9616 16.0061 57.6874 15.6405L54.6405 11.578C54.3054 11.1311 53.6655 11.0397 53.2186 11.3749C52.7718 11.71 52.6804 12.3499 53.0155 12.7968L55.6054 16.2499L53.0155 19.703C52.6804 20.1499 52.7718 20.7897 53.2186 21.1249Z" fill="black"/>
<path d="M39.8126 16.8593L42.8595 20.9218C43.0626 21.1858 43.3673 21.328 43.672 21.328C43.8853 21.328 44.0985 21.2569 44.2813 21.1249C44.7282 20.7897 44.8196 20.1499 44.4845 19.703L41.8946 16.2499L44.4845 12.7968C44.8196 12.3499 44.7282 11.71 44.2813 11.3749C43.8345 11.0397 43.1946 11.1311 42.8595 11.578L39.8126 15.6405C39.5384 16.0061 39.5384 16.4936 39.8126 16.8593Z" fill="black"/>
<path d="M47.4905 21.2977C47.5717 21.318 47.653 21.3282 47.7342 21.3282C48.1913 21.3282 48.6077 21.0235 48.7194 20.5563L50.7506 12.4313C50.8827 11.8828 50.5577 11.3344 50.0092 11.2024C49.4608 11.0602 48.9124 11.3953 48.7803 11.9438L46.7491 20.0688C46.617 20.6172 46.942 21.1657 47.4905 21.2977Z" fill="black"/>
</svg>
