<svg width="65" height="65" viewBox="0 0 65 65" fill="none" xmlns="http://www.w3.org/2000/svg">
<g clip-path="url(#clip0_332_21)">
<path d="M30.2148 47.1619C29.6889 47.1619 29.2627 47.5882 29.2627 48.114C29.2627 48.6399 29.6889 49.0662 30.2148 49.0662H34.7852C35.3111 49.0662 35.7373 48.6399 35.7373 48.114C35.7373 47.5882 35.3111 47.1619 34.7852 47.1619H30.2148Z" fill="black"/>
<path d="M11.4258 32.3774H17.7196C18.104 33.378 19.0725 34.0913 20.2067 34.0913C21.3409 34.0913 22.3095 33.378 22.6939 32.3774H23.9519C24.4778 32.3774 24.904 31.9511 24.904 31.4253C24.904 30.8995 24.4778 30.4731 23.9519 30.4731H22.6939C22.3095 29.4726 21.3409 28.7593 20.2067 28.7593C19.0725 28.7593 18.104 29.4726 17.7196 30.4731H11.4258C10.8998 30.4731 10.4736 30.8995 10.4736 31.4253C10.4736 31.9511 10.8998 32.3774 11.4258 32.3774ZM20.2067 30.6636C20.6268 30.6636 20.9685 31.0052 20.9685 31.4253C20.9685 31.8454 20.6268 32.187 20.2067 32.187C19.7867 32.187 19.445 31.8454 19.445 31.4253C19.445 31.0052 19.7867 30.6636 20.2067 30.6636Z" fill="black"/>
<path d="M11.4258 26.9185H12.6415C13.0259 27.919 13.9944 28.6323 15.1286 28.6323C16.2628 28.6323 17.2313 27.919 17.6158 26.9185H23.9519C24.4778 26.9185 24.904 26.4921 24.904 25.9663C24.904 25.4405 24.4778 25.0142 23.9519 25.0142H17.6158C17.2313 24.0136 16.2628 23.3003 15.1286 23.3003C13.9944 23.3003 13.0259 24.0136 12.6415 25.0142H11.4258C10.8998 25.0142 10.4736 25.4405 10.4736 25.9663C10.4736 26.4921 10.8998 26.9185 11.4258 26.9185ZM15.1286 25.2046C15.5487 25.2046 15.8903 25.5462 15.8903 25.9663C15.8903 26.3864 15.5487 26.728 15.1286 26.728C14.7085 26.728 14.3669 26.3864 14.3669 25.9663C14.3669 25.5462 14.7085 25.2046 15.1286 25.2046Z" fill="black"/>
<path d="M24.1421 18.1587C24.6679 18.1587 25.0942 17.7324 25.0942 17.2065C25.0942 16.6807 24.6679 16.2544 24.1421 16.2544C23.6162 16.2544 23.1899 16.6807 23.1899 17.2065C23.1899 17.7324 23.6162 18.1587 24.1421 18.1587Z" fill="black"/>
<path d="M21.5186 18.1587C22.0444 18.1587 22.4707 17.7324 22.4707 17.2065C22.4707 16.6807 22.0444 16.2544 21.5186 16.2544C20.9927 16.2544 20.5664 16.6807 20.5664 17.2065C20.5664 17.7324 20.9927 18.1587 21.5186 18.1587Z" fill="black"/>
<path d="M18.895 18.1587C19.4209 18.1587 19.8472 17.7324 19.8472 17.2065C19.8472 16.6807 19.4209 16.2544 18.895 16.2544C18.3692 16.2544 17.9429 16.6807 17.9429 17.2065C17.9429 17.7324 18.3692 18.1587 18.895 18.1587Z" fill="black"/>
<path d="M62.1436 6.40902H61.7869L62.0529 6.14305C62.8495 5.34642 62.8495 4.0501 62.0529 3.25347L59.9686 1.16916C59.172 0.372651 57.8758 0.372651 57.079 1.16916L51.8395 6.40889H2.85645C1.28146 6.40889 0 7.69023 0 9.26534V48.8067C0 50.7318 1.56609 52.2979 3.49121 52.2979H26.0438V59.0334H21.4551C20.2301 59.0334 19.2334 60.0301 19.2334 61.2551V62.2064C19.2334 63.4314 20.2301 64.4281 21.4551 64.4281H43.5449C44.7699 64.4281 45.7666 63.4314 45.7666 62.2064V61.2551C45.7666 60.0301 44.7699 59.0334 43.5449 59.0334H38.9562V52.2979H49.1309C49.6568 52.2979 50.083 51.8716 50.083 51.3457C50.083 50.8199 49.6568 50.3936 49.1309 50.3936H3.49121C2.61612 50.3936 1.9043 49.6818 1.9043 48.8067V45.9883H63.0957V48.8067C63.0957 49.6818 62.3839 50.3936 61.5088 50.3936H53.5742C53.0483 50.3936 52.6221 50.8199 52.6221 51.3457C52.6221 51.8716 53.0483 52.2979 53.5742 52.2979H61.5088C63.4339 52.2979 65 50.7318 65 48.8067V9.26546C65 7.69048 63.7185 6.40902 62.1436 6.40902ZM43.5449 60.9378C43.72 60.9378 43.8623 61.0802 43.8623 61.2552V62.2066C43.8623 62.3815 43.72 62.5239 43.5449 62.5239H21.4551C21.28 62.5239 21.1377 62.3815 21.1377 62.2066V61.2552C21.1377 61.0802 21.28 60.9378 21.4551 60.9378H43.5449ZM27.9481 52.2981H37.052V59.0336H27.9481V52.2981ZM58.4256 2.51587C58.4799 2.46166 58.568 2.46179 58.6221 2.51587L60.7063 4.60006C60.7605 4.65427 60.7605 4.74251 60.7063 4.79659L58.7176 6.78531L56.4369 4.50459L58.4256 2.51587ZM55.0903 5.85119L57.3709 8.1319L56.7068 8.79599L54.4262 6.51528L55.0903 5.85119ZM53.0796 7.86187L55.3603 10.1426L44.0931 21.4098L41.8124 19.1291L53.0796 7.86187ZM51.6699 16.5669C52.965 16.5669 54.0186 17.6205 54.0186 18.9156C54.0186 20.2106 52.965 21.2642 51.6699 21.2642C50.3749 21.2642 49.3213 20.2106 49.3213 18.9156C49.3213 18.9004 49.3233 18.8858 49.3236 18.8707L51.6255 16.5692C51.6403 16.569 51.6549 16.5669 51.6699 16.5669ZM42.4397 22.4495L39.6217 23.6005L40.7726 20.7825L42.4397 22.4495ZM63.0957 44.0843H1.9043V9.26546C1.9043 8.74051 2.33137 8.31332 2.85645 8.31332H49.9354L48.4835 9.76515H16.123C15.5971 9.76515 15.1709 10.1915 15.1709 10.7173C15.1709 11.2431 15.5971 11.6694 16.123 11.6694H46.5794L39.8634 18.3858C39.6736 18.5772 39.5252 18.8007 39.423 19.0508L37.2962 24.2579C37.101 24.7361 37.211 25.2811 37.5762 25.6462C37.8214 25.8914 38.1474 26.0214 38.4799 26.0214C38.6429 26.0214 38.8073 25.9901 38.9646 25.926L44.1716 23.7993C44.4146 23.7 44.6319 23.5563 44.8198 23.3741L47.7163 20.478C48.3403 22.0521 49.8765 23.1686 51.6701 23.1686C54.0151 23.1686 55.923 21.2608 55.923 18.9157C55.923 17.1223 54.8067 15.5863 53.2328 14.9622L56.5259 11.6696H59.7396V40.7283H59.2349L55.7843 34.7517C55.5216 34.2962 54.9388 34.1401 54.4837 34.4032C54.0283 34.6661 53.8723 35.2485 54.1352 35.7038L57.0361 40.7283H43.7352L42.3087 38.2574L48.9591 26.7385L51.9134 31.8558C52.1765 32.3111 52.7588 32.4673 53.2141 32.2042C53.6694 31.9413 53.8255 31.359 53.5625 30.9036L50.4107 25.4445C50.1076 24.9197 49.565 24.6064 48.959 24.6064C48.3529 24.6064 47.8102 24.9197 47.5071 25.4445L41.209 36.3532L33.1279 22.3565C32.8249 21.8317 32.2823 21.5183 31.6761 21.5183C31.0701 21.5183 30.5274 21.8317 30.2244 22.3565L28.0775 26.0751V15.8689C28.0775 14.644 27.0808 13.6473 25.8558 13.6473H9.52148C8.29651 13.6473 7.2998 14.644 7.2998 15.8689V36.6892C7.2998 37.5643 8.01163 38.2762 8.88672 38.2762H21.0335L19.6177 40.7284H5.26056V11.6694H11.6797C12.2057 11.6694 12.6318 11.2431 12.6318 10.7173C12.6318 10.1915 12.2057 9.76515 11.6797 9.76515H4.94317C4.06809 9.76515 3.35626 10.477 3.35626 11.3521V41.0455C3.35626 41.9206 4.06809 42.6324 4.94317 42.6324H60.057C60.932 42.6324 61.6439 41.9206 61.6439 41.0455V11.3521C61.6439 10.477 60.932 9.76515 60.057 9.76515H58.4304L59.8825 8.31332H62.1436C62.6686 8.31332 63.0957 8.74051 63.0957 9.26546V44.0843ZM26.1735 21.1421V36.3716H9.2041V21.1421H26.1735ZM9.2041 19.2378V15.8687C9.2041 15.6937 9.34642 15.5513 9.52148 15.5513H25.8562C26.0312 15.5513 26.1735 15.6937 26.1735 15.8687V19.2378H9.2041ZM23.2324 38.2759H26.4909C27.366 38.2759 28.0778 37.5641 28.0778 36.689V34.6721C28.316 34.7863 28.5812 34.8482 28.859 34.8482C29.509 34.8482 30.0909 34.512 30.4158 33.9492L32.0362 31.1427C32.0852 31.0579 32.1601 31.04 32.2141 31.04C32.2683 31.04 32.3432 31.0579 32.3921 31.1427L33.3911 32.8729C33.7161 33.4359 34.2982 33.772 34.9483 33.772C35.5983 33.772 36.1804 33.4359 36.5052 32.873L36.7533 32.4434L41.5364 40.728H21.8166L23.2324 38.2759ZM28.0778 31.4848V29.8834L31.6766 23.6504L35.6538 30.5391L34.9482 31.7612L34.0412 30.1904C33.6598 29.5299 32.9768 29.1355 32.214 29.1355C31.4512 29.1355 30.7682 29.5299 30.3869 30.1904L28.8586 32.8374L28.0778 31.4848Z" fill="black"/>
</g>
<defs>
<clipPath id="clip0_332_21">
<rect width="65" height="65" fill="white"/>
</clipPath>
</defs>
</svg>
