<svg width="80" height="80" viewBox="0 0 80 80" fill="none" xmlns="http://www.w3.org/2000/svg">
<g clip-path="url(#clip0_486_556)">
<path d="M79.9993 7.94399C80.0042 6.85754 79.5718 5.81479 78.7993 5.05069L74.9488 1.20005C74.1882 0.431214 73.1515 -0.000919923 72.0701 1.47043e-06H72.0568C70.9819 0.000659609 69.9525 0.433056 69.1994 1.20005L51.733 18.6665H17.3333V4.00003C17.3333 1.7908 15.5423 1.47043e-06 13.3332 1.47043e-06H10.6666C4.77835 0.00658285 0.00658138 4.77835 0 10.6666V69.6675C0.333676 75.5108 5.20074 80.0602 11.0533 79.9994H75.9994C78.2085 79.9994 79.9993 78.2086 79.9993 75.9994V22.6665C79.9993 20.4574 78.2085 18.6665 75.9994 18.6665H70.9328L78.7994 10.7999C79.5648 10.0465 79.997 9.01808 79.9993 7.94399ZM47.7063 33.3331C47.4241 33.3716 47.1405 33.2723 46.9437 33.0665C46.7452 32.8693 46.6471 32.5926 46.677 32.3145L47.1823 27.7812C47.2035 27.6864 47.2302 27.5928 47.2624 27.5012L52.5143 32.7532C52.4277 32.7719 52.349 32.8145 52.2583 32.8252L47.7063 33.3331ZM54.6915 31.1557L48.8569 25.3198L63.3902 10.7866L69.2221 16.6172L54.6915 31.1557ZM65.2702 8.89987L67.2475 6.92388L73.0768 12.7545L71.1008 14.7318L65.2702 8.89987ZM2.66664 10.6666C2.67112 6.25021 6.25021 2.67099 10.6666 2.66665H13.3332C14.0695 2.66665 14.6666 3.26358 14.6666 3.9999V57.3328C14.6666 58.0691 14.0697 58.6661 13.3332 58.6661H10.6666C7.60347 58.6651 4.68845 59.9836 2.66664 62.2846V10.6666ZM75.9994 21.3332C76.7358 21.3332 77.3328 21.9301 77.3328 22.6665V75.9994C77.3328 76.7358 76.7359 77.3328 75.9994 77.3328H11.0533C6.65167 77.4068 2.96425 74.0183 2.66664 69.6262V69.3328C2.67112 64.9164 6.25021 61.3373 10.6666 61.3328H13.3332C15.5423 61.3328 17.3331 59.542 17.3331 57.3329V21.3332H49.0662L46.0382 24.3611C45.1929 25.1941 44.6611 26.2933 44.5329 27.4731L44.0276 32.0157C43.986 32.4587 44.0281 32.9055 44.1516 33.333H21.3332C20.5968 33.333 19.9998 33.9299 19.9998 34.6664C19.9998 35.4027 20.5967 35.9996 21.3332 35.9996H25.3332V71.9994C25.3332 72.7357 25.9301 73.3328 26.6666 73.3328C27.403 73.3328 28 72.7359 28 71.9994V53.3329H42.6664V63.9995H33.3331C32.5968 63.9995 31.9999 64.5964 31.9999 65.3327C31.9999 66.0691 32.5968 66.6661 33.3331 66.6661H59.9996C61.4723 66.6661 62.6662 65.4723 62.6662 63.9995V43.9997C62.6662 43.2634 62.0693 42.6663 61.333 42.6663C60.5966 42.6663 59.9996 43.2632 59.9996 43.9997V50.6663H27.9998V35.9998H47.6104C47.7404 36 47.8705 35.9929 47.9997 35.9784L52.5556 35.4598C53.712 35.3286 54.7913 34.8147 55.6223 33.9998L68.2729 21.3333L75.9994 21.3332ZM59.9996 53.3329V63.9995H45.333V53.3329H59.9996ZM76.9194 8.90922L74.9621 10.8678L69.1328 5.03858L71.0914 3.07996C71.3477 2.81697 71.6989 2.66796 72.0661 2.66665C72.44 2.66757 72.7977 2.81841 73.0594 3.08535L76.9154 6.93336C77.1836 7.1974 77.334 7.55832 77.3328 7.93465C77.3316 8.30189 77.1826 8.6532 76.9194 8.90922Z" fill="black"/>
</g>
<defs>
<clipPath id="clip0_486_556">
<rect width="80" height="80" fill="white"/>
</clipPath>
</defs>
</svg>
