<svg width="70" height="70" viewBox="0 0 70 70" fill="none" xmlns="http://www.w3.org/2000/svg">
<path d="M53.5938 52.5C55.4028 52.5 56.875 51.0278 56.875 49.2188C56.875 47.4097 55.4028 45.9375 53.5938 45.9375C51.7847 45.9375 50.3125 47.4097 50.3125 49.2188C50.3125 51.0278 51.7847 52.5 53.5938 52.5ZM53.5938 48.125C54.1964 48.125 54.6875 48.615 54.6875 49.2188C54.6875 49.8225 54.1964 50.3125 53.5938 50.3125C52.9911 50.3125 52.5 49.8225 52.5 49.2188C52.5 48.615 52.9911 48.125 53.5938 48.125Z" fill="black"/>
<path d="M64.7062 44.6009C64.3748 43.8069 64.5509 42.9045 65.1536 42.3008L66.745 40.7083L62.1031 36.0664L60.5095 37.6589C59.9069 38.2627 59.0034 38.4377 58.1678 38.0877C57.3825 37.7639 56.875 37.0048 56.875 36.1539V33.9062H54.6317C54.5322 32.142 54.2052 30.4369 53.6627 28.8214L66.3195 16.1645C67.9875 14.4966 68.9062 12.2795 68.9062 9.92141C68.9062 5.05422 64.9458 1.09375 60.0786 1.09375C57.7205 1.09375 55.5034 2.0125 53.8366 3.67938L41.1928 16.3242C39.5577 15.7752 37.8241 15.4558 36.0336 15.3606C34.5242 12.7236 31.6881 10.9375 28.4375 10.9375C27.6052 10.9375 26.8023 11.0622 26.0378 11.2798C24.15 7.73062 20.4827 5.46875 16.4062 5.46875C10.3753 5.46875 5.46875 10.3753 5.46875 16.4062C5.46875 17.2441 5.57156 18.0687 5.75859 18.8759C3.0625 19.6919 1.09375 22.1977 1.09375 25.1562C1.09375 28.7755 4.03703 31.7188 7.65625 31.7188H15.5903C15.4087 32.8005 15.3125 33.8986 15.3125 35C15.3125 37.4073 15.7577 39.3662 16.4762 41.0397L6.71891 50.7981L1.28953 64.9141C1.15938 65.2509 1.09375 65.6053 1.09375 65.9673C1.09375 67.5883 2.41281 68.9062 4.03266 68.9062C4.39469 68.9062 4.74906 68.8395 5.08703 68.7105L19.203 63.2811L26.3375 56.1455C26.2839 56.3806 26.25 56.6234 26.25 56.875C26.25 57.7183 26.5792 58.4806 27.1031 59.0625C26.5781 59.6444 26.25 60.4067 26.25 61.25C26.25 62.7703 27.2945 64.0412 28.7 64.4109C29.6319 67.0797 32.1278 68.9062 35 68.9062C37.8722 68.9062 40.3681 67.0797 41.3 64.4109C42.7055 64.0412 43.75 62.7703 43.75 61.25C43.75 61.168 43.7314 61.0914 43.7259 61.0116L45.0844 62.37L46.678 60.7775C47.2806 60.1738 48.1808 59.9977 49.0186 60.3466C49.8039 60.6736 50.3125 61.4327 50.3125 62.2836V64.5312H56.875V62.2836C56.875 61.4327 57.3836 60.6725 58.2116 60.3302C59.0056 59.9998 59.908 60.1738 60.5106 60.7775L62.1031 62.37L66.745 57.7281L65.1536 56.1356C64.5509 55.5319 64.3748 54.6295 64.7237 53.7939C65.0486 53.0086 65.8077 52.5 66.6586 52.5H68.9062V45.9375H66.6586C65.8077 45.9375 65.0486 45.4289 64.7062 44.6009ZM48.3175 47.8253C49.5108 46.6605 50.7063 45.4705 51.7377 44.0945C52.3327 43.878 52.9517 43.75 53.5938 43.75C56.6092 43.75 59.0625 46.2033 59.0625 49.2188C59.0625 52.2342 56.6092 54.6875 53.5938 54.6875C50.5783 54.6875 48.125 52.2342 48.125 49.2188C48.125 48.7452 48.1983 48.2792 48.3175 47.8253ZM49.6311 21.9166L54.6875 16.8591L58.6097 20.7812L52.768 26.623C51.9487 24.9036 50.89 23.322 49.6311 21.9166ZM50.7653 9.84375L52.5 8.10906L61.8909 17.5L60.1562 19.2347L50.7653 9.84375ZM60.0786 3.28125C63.7394 3.28125 66.7188 6.26063 66.7188 9.92141C66.7188 11.6944 66.0286 13.3623 64.7741 14.6169L63.4375 15.9534L54.0466 6.5625L55.3831 5.22594C56.6377 3.9725 58.3045 3.28125 60.0786 3.28125ZM49.2188 11.3903L53.1409 15.3125L48.0867 20.3667C46.6823 19.1067 45.1019 18.0469 43.3825 17.2266L49.2188 11.3903ZM52.5 35C52.5 40.6908 49.6344 43.4864 46.6003 46.445C44.5112 48.4827 42.3653 50.5892 41.1162 53.6594C40.9073 53.6167 40.6908 53.5938 40.4688 53.5938H36.0938V48.125C36.0938 46.3159 34.6216 44.8438 32.8125 44.8438H30.625C30.0223 44.8438 29.5312 44.3537 29.5312 43.75C29.5312 43.1463 30.0223 42.6562 30.625 42.6562H41.5625C43.3716 42.6562 44.8438 41.1841 44.8438 39.375C44.8438 37.5659 43.3716 36.0938 41.5625 36.0938H32.8125C32.2098 36.0938 31.7188 35.6037 31.7188 35V31.7188H37.1875C40.203 31.7188 42.6562 29.2655 42.6562 26.25C42.6562 23.2345 40.203 20.7812 37.1875 20.7812C37.1569 20.7812 37.1284 20.79 37.0978 20.79C37.1448 20.4247 37.1875 20.0594 37.1875 19.6875C37.1875 18.9722 37.0913 18.2798 36.9294 17.6138C45.6488 18.585 52.5 26.0684 52.5 35ZM28.4375 56.875C28.4375 56.2713 28.9286 55.7812 29.5312 55.7812H40.4688C41.0714 55.7812 41.5625 56.2713 41.5625 56.875C41.5625 57.4787 41.0714 57.9688 40.4688 57.9688H29.5312C28.9286 57.9688 28.4375 57.4787 28.4375 56.875ZM14.6716 56.875L22.7117 48.8348C24.057 50.1692 25.3061 51.5189 26.227 53.1628L18.5938 60.7972L14.6716 56.875ZM3.28125 25.1562C3.28125 22.7434 5.24344 20.7812 7.65625 20.7812C10.0691 20.7812 12.0312 22.7434 12.0312 25.1562H14.2188C14.2188 21.6322 11.4242 18.7556 7.93625 18.608C7.75031 17.8927 7.65625 17.1544 7.65625 16.4062C7.65625 11.5817 11.5817 7.65625 16.4062 7.65625C19.6055 7.65625 22.493 9.39531 24.0286 12.1417C21.6967 13.51 20.0495 15.9195 19.7422 18.7316C17.8325 19.2019 16.4062 20.9158 16.4062 22.9688H18.5938C18.5938 21.7623 19.5748 20.7812 20.7812 20.7812C21.9877 20.7812 22.9688 21.7623 22.9688 22.9688H25.1562C25.1562 20.9617 23.7913 19.285 21.9461 18.7709C22.3945 15.5859 25.13 13.125 28.4375 13.125C32.0567 13.125 35 16.0683 35 19.6875C35 20.2628 34.9059 20.8261 34.7594 21.3752C32.9656 22.2731 31.7188 24.1106 31.7188 26.25H33.9062C33.9062 24.4409 35.3784 22.9688 37.1875 22.9688C38.9966 22.9688 40.4688 24.4409 40.4688 26.25C40.4688 28.0591 38.9966 29.5312 37.1875 29.5312H7.65625C5.24344 29.5312 3.28125 27.5691 3.28125 25.1562ZM29.5312 31.7188V35C29.5312 36.8091 31.0034 38.2812 32.8125 38.2812H41.5625C42.1652 38.2812 42.6562 38.7713 42.6562 39.375C42.6562 39.9787 42.1652 40.4688 41.5625 40.4688H30.625C28.8159 40.4688 27.3438 41.9409 27.3438 43.75C27.3438 45.5591 28.8159 47.0312 30.625 47.0312H32.8125C33.4152 47.0312 33.9062 47.5213 33.9062 48.125V53.5938H29.5312C29.3092 53.5938 29.0927 53.6167 28.8838 53.6594C27.6347 50.5892 25.4887 48.4827 23.3997 46.445C20.3656 43.4864 17.5 40.6908 17.5 35C17.5 33.8942 17.6323 32.7983 17.8369 31.7188H29.5312ZM21.1498 47.3036L13.125 55.3284L9.20281 51.4062L17.5481 43.0609C18.5752 44.6731 19.8483 46.0184 21.1498 47.3036ZM8.07297 53.3695L16.6305 61.927L9.38547 64.7139L5.28609 60.6145L8.07297 53.3695ZM4.30281 66.6684C3.82922 66.8522 3.28125 66.4748 3.28125 65.9673C3.28125 65.8744 3.29875 65.7836 3.33047 65.6983L4.42641 62.848L7.15094 65.5725L4.30281 66.6684ZM35 66.7188C33.3845 66.7188 31.9441 65.8591 31.1456 64.5312H38.8544C38.0559 65.8591 36.6155 66.7188 35 66.7188ZM40.4688 62.3438H29.5312C28.9286 62.3438 28.4375 61.8537 28.4375 61.25C28.4375 60.6463 28.9286 60.1562 29.5312 60.1562H40.4688C41.0714 60.1562 41.5625 60.6463 41.5625 61.25C41.5625 61.8537 41.0714 62.3438 40.4688 62.3438ZM66.7188 50.3125H66.6586C64.9184 50.3125 63.3653 51.3516 62.6872 52.9944C62.0134 54.6098 62.3744 56.4495 63.6059 57.6822L63.6519 57.7281L62.1031 59.2769L62.0572 59.2309C60.8234 57.9972 58.9816 57.6352 57.3333 58.3264C55.7266 58.9914 54.6875 60.5434 54.6875 62.2836V62.3438H52.5V62.2836C52.5 60.5434 51.4609 58.9903 49.8181 58.3111C48.2005 57.6362 46.3608 57.9983 45.1292 59.2309L45.0833 59.2769L43.6012 57.7948C43.6887 57.5006 43.75 57.1966 43.75 56.875C43.75 56.0984 43.4678 55.3941 43.015 54.8308C43.6953 52.9944 44.7617 51.5255 46.0031 50.1692C46.4734 53.9427 49.6945 56.875 53.5938 56.875C57.8156 56.875 61.25 53.4395 61.25 49.2188C61.25 44.998 57.8156 41.5625 53.5938 41.5625C53.4866 41.5625 53.3827 41.5734 53.2766 41.5778C54.017 40.0411 54.5256 38.2594 54.6536 36.0938H54.6875V36.1539C54.6875 37.8941 55.7266 39.4483 57.3683 40.1253C58.9827 40.8013 60.8245 40.4403 62.0572 39.2066L62.1031 39.1606L63.6519 40.7094L63.6059 40.7553C62.3744 41.988 62.0134 43.8288 62.7014 45.4781C63.3653 47.0859 64.9184 48.125 66.6586 48.125H66.7188V50.3125Z" fill="black"/>
</svg>
