<svg width="70" height="70" viewBox="0 0 70 70" fill="none" xmlns="http://www.w3.org/2000/svg">
<path d="M65.2668 3.06885H4.7332C2.12324 3.06885 0 5.19223 0 7.80205V48.0932C0 50.703 2.12324 52.8264 4.7332 52.8264H12.8516C13.4179 52.8264 13.877 52.3673 13.877 51.801C13.877 51.2347 13.4179 50.7756 12.8516 50.7756H4.7332C3.25418 50.7756 2.05078 49.5722 2.05078 48.0932V44.9119C2.81381 45.4388 3.73789 45.7483 4.7332 45.7483H65.2668C66.2621 45.7483 67.1862 45.4388 67.9492 44.9119V48.0932C67.9492 49.5722 66.7458 50.7756 65.2668 50.7756H38.6924C38.6898 50.7756 38.687 50.7756 38.6844 50.7756H31.3161C31.313 50.7756 31.3098 50.7756 31.3067 50.7756H16.9531C16.3868 50.7756 15.9277 51.2347 15.9277 51.801C15.9277 52.3673 16.3868 52.8264 16.9531 52.8264H29.7467L26.7911 59.6864H24.9352C22.4953 59.6864 20.5103 61.6714 20.5103 64.1114V64.7767C20.5103 65.9647 21.4767 66.9313 22.6648 66.9313H47.3354C48.5234 66.9313 49.49 65.9648 49.49 64.7767V64.1114C49.49 61.6714 47.505 59.6864 45.0651 59.6864H43.2091L40.2536 52.8264H65.2668C67.8768 52.8264 70 50.703 70 48.0932V7.80205C70 5.19223 67.8768 3.06885 65.2668 3.06885ZM47.4391 64.1114V64.7767C47.4391 64.8339 47.3926 64.8805 47.3353 64.8805H22.6647C22.6075 64.8805 22.5609 64.834 22.5609 64.7767V64.1114C22.5609 62.8022 23.626 61.7372 24.935 61.7372H27.46C27.4617 61.7372 27.4635 61.7375 27.4653 61.7375C27.4665 61.7375 27.4678 61.7372 27.469 61.7372H42.531C42.5322 61.7372 42.5335 61.7375 42.5347 61.7375C42.5365 61.7375 42.5383 61.7372 42.54 61.7372H45.065C46.374 61.7372 47.4391 62.8024 47.4391 64.1114ZM40.976 59.6864H29.024L31.9796 52.8264H38.0204L40.976 59.6864ZM65.2668 43.6977H4.7332C3.25418 43.6977 2.05078 42.4943 2.05078 41.0153V7.80205C2.05078 6.32303 3.25418 5.11963 4.7332 5.11963H65.2668C66.7458 5.11963 67.9492 6.32303 67.9492 7.80205V41.0151C67.9492 42.4943 66.7458 43.6977 65.2668 43.6977Z" fill="black"/>
<path d="M32.4855 13.2108L33.9747 12.3639V15.9674C33.9747 16.5337 34.4339 16.9928 35.0001 16.9928C35.5664 16.9928 36.0255 16.5337 36.0255 15.9674V12.3641L37.5148 13.2109C37.6749 13.302 37.8489 13.3452 38.0208 13.3452C38.3775 13.3452 38.7242 13.1587 38.913 12.8264C39.193 12.3341 39.0209 11.7081 38.5286 11.4282C35.2173 9.54574 35.4772 9.68752 35.3745 9.6476C35.0819 9.53276 34.7591 9.56147 34.4992 9.70735C34.4973 9.70844 34.4952 9.70912 34.4933 9.71022L31.4718 11.4284C30.9795 11.7082 30.8074 12.3343 31.0874 12.8266C31.3671 13.3186 31.9931 13.4909 32.4855 13.2108Z" fill="black"/>
<path d="M24.207 32.8868L21.0856 34.6845V32.9827C21.0856 32.4164 20.6265 31.9573 20.0602 31.9573C19.4939 31.9573 19.0348 32.4164 19.0348 32.9827C19.0354 36.6311 18.8787 36.975 19.556 37.3514L22.5533 39.1016C22.7159 39.1965 22.8937 39.2416 23.0694 39.2416C23.422 39.2416 23.7652 39.0595 23.9558 38.7332C24.2414 38.2441 24.0763 37.6162 23.5873 37.3307L22.1042 36.4646L25.2305 34.664C25.7212 34.3814 25.8899 33.7544 25.6073 33.2638C25.3247 32.7728 24.6977 32.6044 24.207 32.8868Z" fill="black"/>
<path d="M49.9399 31.9573C49.3736 31.9573 48.9145 32.4164 48.9145 32.9827V34.6845L45.7931 32.8868C45.3024 32.6042 44.6754 32.7729 44.3928 33.2636C44.1102 33.7543 44.279 34.3813 44.7696 34.6639L47.896 36.4645L46.4129 37.3306C45.9238 37.6161 45.7588 38.2442 46.0444 38.7331C46.235 39.0595 46.5781 39.2415 46.9307 39.2415C47.1063 39.2415 47.2843 39.1964 47.4469 39.1015C50.2336 37.4273 50.7672 37.3631 50.9329 36.7111C51.0005 36.4464 50.9436 36.4622 50.9653 32.9827C50.9653 32.4164 50.5062 31.9573 49.9399 31.9573Z" fill="black"/>
<path d="M42.9755 22.6425L35.5127 18.3334C35.1954 18.1502 34.8045 18.1502 34.4872 18.3334L27.0244 22.6425C26.7072 22.8258 26.5117 23.1643 26.5117 23.5305C26.5117 23.5562 26.5149 23.5815 26.5168 23.607V32.1479C26.5168 32.5143 26.7123 32.8528 27.0295 33.0359L34.4135 37.2987C34.4361 37.3143 34.4578 37.3305 34.4817 37.3443C34.6403 37.4359 34.8174 37.4817 34.9944 37.4817C34.9962 37.4817 34.998 37.4815 34.9999 37.4815C35.0018 37.4815 35.0035 37.4817 35.0054 37.4817C35.1824 37.4817 35.3595 37.4359 35.5181 37.3443C35.542 37.3305 35.5639 37.3141 35.5863 37.2987L42.9703 33.0359C43.2877 32.8528 43.483 32.5143 43.483 32.1479V23.607C43.4849 23.5815 43.4881 23.5562 43.4881 23.5305C43.4882 23.1643 43.2929 22.8258 42.9755 22.6425ZM35 20.4056L40.4095 23.5289L35 26.6518L29.5906 23.529L35 20.4056ZM28.5677 25.3095L33.9692 28.4284V34.6742L28.5677 31.5559V25.3095ZM36.0309 34.6742V28.4284L41.4324 25.3095V31.5559L36.0309 34.6742Z" fill="black"/>
<path d="M11.3477 8.97949H6.5625C5.46943 8.97949 4.58008 9.86885 4.58008 10.9619V35.2395C4.58008 36.3325 5.46943 37.2219 6.5625 37.2219H11.3477C12.4407 37.2219 13.3301 36.3325 13.3301 35.2395V10.9619C13.3301 9.86885 12.4407 8.97949 11.3477 8.97949ZM11.2793 35.1711H6.63086V11.0303H11.2793V35.1711Z" fill="black"/>
<path d="M8.56738 16.0974H9.34217C9.90846 16.0974 10.3676 15.6383 10.3676 15.072C10.3676 14.5057 9.90846 14.0466 9.34217 14.0466H8.56738C8.00109 14.0466 7.54199 14.5057 7.54199 15.072C7.54199 15.6383 8.00096 16.0974 8.56738 16.0974Z" fill="black"/>
<path d="M8.56738 21.45H9.34217C9.90846 21.45 10.3676 20.9908 10.3676 20.4246C10.3676 19.8583 9.90846 19.3992 9.34217 19.3992H8.56738C8.00109 19.3992 7.54199 19.8583 7.54199 20.4246C7.54199 20.9908 8.00096 21.45 8.56738 21.45Z" fill="black"/>
<path d="M8.56738 26.8025H9.34217C9.90846 26.8025 10.3676 26.3434 10.3676 25.7771C10.3676 25.2108 9.90846 24.7517 9.34217 24.7517H8.56738C8.00109 24.7517 7.54199 25.2108 7.54199 25.7771C7.54199 26.3434 8.00096 26.8025 8.56738 26.8025Z" fill="black"/>
<path d="M8.56738 32.155H9.34217C9.90846 32.155 10.3676 31.6959 10.3676 31.1296C10.3676 30.5633 9.90846 30.1042 9.34217 30.1042H8.56738C8.00109 30.1042 7.54199 30.5633 7.54199 31.1296C7.54199 31.6959 8.00096 32.155 8.56738 32.155Z" fill="black"/>
<path d="M63.7857 7.66528H50.6348C49.6924 7.66528 48.9258 8.43187 48.9258 9.37427V20.5237C48.9258 21.4661 49.6924 22.2327 50.6348 22.2327H63.7857C64.7281 22.2327 65.4947 21.4661 65.4947 20.5237V9.37427C65.4947 8.432 64.728 7.66528 63.7857 7.66528ZM63.4439 20.1819H50.9766V9.71606H63.4439V20.1819Z" fill="black"/>
<path d="M53.9297 14.197H57.0742C57.6405 14.197 58.0996 13.7379 58.0996 13.1716C58.0996 12.6053 57.6405 12.1462 57.0742 12.1462H53.9297C53.3634 12.1462 52.9043 12.6053 52.9043 13.1716C52.9043 13.7379 53.3633 14.197 53.9297 14.197Z" fill="black"/>
<path d="M53.9297 17.7517H60.4922C61.0585 17.7517 61.5176 17.2926 61.5176 16.7263C61.5176 16.16 61.0585 15.7009 60.4922 15.7009H53.9297C53.3634 15.7009 52.9043 16.16 52.9043 16.7263C52.9043 17.2926 53.3633 17.7517 53.9297 17.7517Z" fill="black"/>
</svg>
