<svg width="86" height="86" viewBox="0 0 86 86" fill="none" xmlns="http://www.w3.org/2000/svg">
<path d="M58.1339 14.3333H34.747C31.7107 14.3333 29.2405 16.8657 29.2405 19.978V25.7999H26.1281C25.4949 25.7999 24.9814 26.3133 24.9814 26.9466C24.9814 27.5798 25.4949 28.0933 26.1281 28.0933H30.3871C31.0204 28.0933 31.5338 27.5798 31.5338 26.9466V19.978C31.5338 18.1299 32.9749 16.6266 34.747 16.6266H38.4829C38.8111 18.5742 40.4979 20.0666 42.5375 20.0666H50.3434C52.3831 20.0666 54.0698 18.5742 54.398 16.6266H58.1339C59.906 16.6266 61.3471 18.1299 61.3471 19.978V70.6082C61.3471 72.4564 59.906 73.9596 58.1339 73.9596H34.747C32.9749 73.9596 31.5338 72.4564 31.5338 70.6082V63.6399C31.5338 63.0067 31.0204 62.4933 30.3871 62.4933C30.3289 62.4933 26.1281 62.4933 26.1281 62.4933C25.4949 62.4933 24.9814 63.0067 24.9814 63.6399C24.9814 64.2732 25.4949 64.7866 26.1281 64.7866H29.2405V70.6085C29.2405 73.7208 31.7107 76.2533 34.747 76.2533H58.1339C61.1702 76.2533 63.6404 73.7208 63.6404 70.6085V19.978C63.6404 16.8657 61.1702 14.3333 58.1339 14.3333ZM50.3434 17.7733H42.5375C41.7744 17.7733 41.1414 17.2919 40.8674 16.6266H52.0135C51.7395 17.2919 51.1068 17.7733 50.3434 17.7733Z" fill="black"/>
<path d="M39.5605 71.6667C39.5605 72.2999 40.074 72.8134 40.7072 72.8134H52.1739C52.8071 72.8134 53.3205 72.2999 53.3205 71.6667C53.3205 71.0334 52.8071 70.52 52.1739 70.52H40.7072C40.074 70.52 39.5605 71.0334 39.5605 71.6667Z" fill="black"/>
<path d="M72.8137 36.12C73.4469 36.12 73.9603 35.6066 73.9603 34.9733C73.9603 34.34 73.4469 33.8267 72.8137 33.8267C72.1804 33.8267 71.667 34.34 71.667 34.9733C71.667 35.6066 72.1804 36.12 72.8137 36.12Z" fill="black"/>
<path d="M71.6666 17.7732C69.7697 17.7732 68.2266 19.3163 68.2266 21.2132C68.2266 23.1101 69.7697 24.6532 71.6666 24.6532C73.5634 24.6532 75.1066 23.1101 75.1066 21.2132C75.1066 19.3163 73.5634 17.7732 71.6666 17.7732ZM71.6666 22.3599C71.0345 22.3599 70.5199 21.8453 70.5199 21.2132C70.5199 20.5811 71.0345 20.0665 71.6666 20.0665C72.2987 20.0665 72.8132 20.5811 72.8132 21.2132C72.8132 21.8453 72.2987 22.3599 71.6666 22.3599Z" fill="black"/>
<path d="M67.0803 12.0399C67.7135 12.0399 68.2269 11.5265 68.2269 10.8932C68.2269 10.26 67.7135 9.74658 67.0803 9.74658C66.447 9.74658 65.9336 10.26 65.9336 10.8932C65.9336 11.5265 66.447 12.0399 67.0803 12.0399Z" fill="black"/>
<path d="M41.8537 64.7866H44.147C44.7803 64.7866 45.2937 64.2732 45.2937 63.64V61.3466C45.2937 60.7134 44.7803 60.2 44.147 60.2C43.5138 60.2 43.0004 60.7134 43.0004 61.3466V62.4933H41.8537C41.2205 62.4933 40.707 63.0067 40.707 63.64C40.707 64.2732 41.2205 64.7866 41.8537 64.7866Z" fill="black"/>
<path d="M22.1965 62.4932H18.2648C17.6316 62.4932 17.1182 63.0066 17.1182 63.6398C17.1182 64.2731 17.6316 64.7865 18.2648 64.7865H22.1965C22.8297 64.7865 23.3431 64.2731 23.3431 63.6398C23.3431 63.0066 22.8297 62.4932 22.1965 62.4932Z" fill="black"/>
<path d="M37.9221 62.4932H33.9904C33.3572 62.4932 32.8438 63.0066 32.8438 63.6398C32.8438 64.2731 33.3572 64.7865 33.9904 64.7865H37.9221C38.5553 64.7865 39.0687 64.2731 39.0687 63.6398C39.0687 63.0066 38.5553 62.4932 37.9221 62.4932Z" fill="black"/>
<path d="M14.3336 62.4933H13.1869V61.3466C13.1869 60.7134 12.6735 60.2 12.0402 60.2C11.407 60.2 10.8936 60.7134 10.8936 61.3466V63.64C10.8936 64.2732 11.407 64.7866 12.0402 64.7866H14.3336C14.9668 64.7866 15.4802 64.2732 15.4802 63.64C15.4802 63.0067 14.9668 62.4933 14.3336 62.4933Z" fill="black"/>
<path d="M12.0402 48.7333C12.6735 48.7333 13.1869 48.2199 13.1869 47.5866V42.9999C13.1869 42.3667 12.6735 41.8533 12.0402 41.8533C11.407 41.8533 10.8936 42.3667 10.8936 42.9999V47.5866C10.8936 48.2199 11.407 48.7333 12.0402 48.7333Z" fill="black"/>
<path d="M12.0402 57.9066C12.6735 57.9066 13.1869 57.3932 13.1869 56.7599V52.1733C13.1869 51.54 12.6735 51.0266 12.0402 51.0266C11.407 51.0266 10.8936 51.54 10.8936 52.1733V56.7599C10.8936 57.3932 11.407 57.9066 12.0402 57.9066Z" fill="black"/>
<path d="M12.0402 39.5599C12.6735 39.5599 13.1869 39.0465 13.1869 38.4133V33.8266C13.1869 33.1934 12.6735 32.6799 12.0402 32.6799C11.407 32.6799 10.8936 33.1934 10.8936 33.8266V38.4133C10.8936 39.0465 11.407 39.5599 12.0402 39.5599Z" fill="black"/>
<path d="M14.3336 25.7998H12.0402C11.407 25.7998 10.8936 26.3132 10.8936 26.9465V29.2398C10.8936 29.8731 11.407 30.3865 12.0402 30.3865C12.6735 30.3865 13.1869 29.8731 13.1869 29.2398V28.0931H14.3336C14.9668 28.0931 15.4802 27.5797 15.4802 26.9465C15.4802 26.3132 14.9668 25.7998 14.3336 25.7998Z" fill="black"/>
<path d="M18.2648 28.0931H22.1965C22.8297 28.0931 23.3431 27.5797 23.3431 26.9465C23.3431 26.3132 22.8297 25.7998 22.1965 25.7998H18.2648C17.6316 25.7998 17.1182 26.3132 17.1182 26.9465C17.1182 27.5797 17.6316 28.0931 18.2648 28.0931Z" fill="black"/>
<path d="M37.9221 25.7998H33.9904C33.3572 25.7998 32.8438 26.3132 32.8438 26.9465C32.8438 27.5797 33.3572 28.0931 33.9904 28.0931H37.9221C38.5553 28.0931 39.0687 27.5797 39.0687 26.9465C39.0687 26.3132 38.5553 25.7998 37.9221 25.7998Z" fill="black"/>
<path d="M45.2937 26.9465C45.2937 26.3132 44.7803 25.7998 44.147 25.7998H41.8537C41.2205 25.7998 40.707 26.3132 40.707 26.9465C40.707 27.5797 41.2205 28.0931 41.8537 28.0931H43.0004V29.2398C43.0004 29.8731 43.5138 30.3865 44.147 30.3865C44.7803 30.3865 45.2937 29.8731 45.2937 29.2398V26.9465Z" fill="black"/>
<path d="M45.2933 33.8266C45.2933 33.1934 44.7799 32.6799 44.1467 32.6799C43.5134 32.6799 43 33.1934 43 33.8266V38.4133C43 39.0465 43.5134 39.5599 44.1467 39.5599C44.7799 39.5599 45.2933 39.0465 45.2933 38.4133V33.8266Z" fill="black"/>
<path d="M44.1467 51.0266C43.5134 51.0266 43 51.54 43 52.1733V56.7599C43 57.3932 43.5134 57.9066 44.1467 57.9066C44.7799 57.9066 45.2933 57.3932 45.2933 56.7599V52.1733C45.2933 51.54 44.7799 51.0266 44.1467 51.0266Z" fill="black"/>
<path d="M45.2933 42.9999C45.2933 42.3667 44.7799 41.8533 44.1467 41.8533C43.5134 41.8533 43 42.3667 43 42.9999V47.5866C43 48.2199 43.5134 48.7333 44.1467 48.7333C44.7799 48.7333 45.2933 48.2199 45.2933 47.5866V42.9999Z" fill="black"/>
<path d="M27.1773 29.6975L20.2738 38.8708C20.0124 39.218 19.9697 39.6832 20.1635 40.0717C20.3578 40.4607 20.7551 40.7066 21.1897 40.7066H23.113L19.0796 46.9657C18.8517 47.3183 18.8353 47.7669 19.0366 48.1353C19.2378 48.5037 19.6231 48.7333 20.0431 48.7333H22.8538L17.9957 54.9038C17.7242 55.2486 17.6732 55.7191 17.8652 56.1138C18.0567 56.5091 18.4575 56.76 18.8967 56.76H26.9466V60.2C26.9466 60.8332 27.46 61.3466 28.0932 61.3466C28.7265 61.3466 29.2399 60.8332 29.2399 60.2V56.76H37.2901C37.729 56.76 38.13 56.5091 38.3215 56.1138C38.5136 55.7191 38.4625 55.2486 38.1911 54.9038L33.3326 48.7333H37.2901C37.729 48.7333 38.13 48.4825 38.3215 48.0871C38.5136 47.6924 38.4625 47.222 38.1911 46.8771L33.3326 40.7066H34.9967C35.4313 40.7066 35.8286 40.4609 36.023 40.0717C36.2168 39.6832 36.1741 39.2177 35.9126 38.8708L29.0091 29.6975C28.576 29.1207 27.6105 29.1207 27.1773 29.6975ZM30.0698 40.2695L34.9279 46.44H30.9705C30.5316 46.44 30.1306 46.6908 29.9391 47.0861C29.747 47.4808 29.798 47.9513 30.0695 48.2961L34.9279 54.4666H21.2585L26.1167 48.2961C26.3881 47.9513 26.4392 47.4808 26.2471 47.0861C26.0556 46.6908 25.6548 46.44 25.2157 46.44H22.146L26.1794 40.1809C26.4073 39.8283 26.4237 39.3796 26.2224 39.0113C26.0212 38.6429 25.6359 38.4133 25.216 38.4133H23.4876L28.0932 32.2935L32.6988 38.4133H30.9705C30.5316 38.4133 30.1306 38.6641 29.9391 39.0594C29.7473 39.4542 29.798 39.9243 30.0698 40.2695Z" fill="black"/>
</svg>
