<svg width="80" height="80" viewBox="0 0 80 80" fill="none" xmlns="http://www.w3.org/2000/svg">
<path d="M67.1513 30.4H50.667V25.0667C50.667 24.747 50.5238 24.4443 50.2763 24.2416C50.0294 24.0384 49.7054 23.9574 49.391 24.0208L38.7244 26.1542C38.226 26.2536 37.867 26.6918 37.867 27.2V30.4H33.6004V19.4814L56.2812 13.2958C56.8494 13.1406 57.1843 12.5542 57.0297 11.9859C56.8745 11.4176 56.287 11.0822 55.7198 11.2374L32.534 17.5608L9.34782 11.2374C8.77742 11.0854 8.19369 11.4182 8.03795 11.9859C7.88329 12.5542 8.21822 13.1406 8.78649 13.2958L31.4673 19.4814V30.4H28.2673V26.1334C28.2673 25.6251 27.9084 25.187 27.41 25.0875L11.41 21.8875C11.0948 21.8246 10.7713 21.9051 10.5246 22.1083C10.2772 22.311 10.134 22.6136 10.134 22.9334V37.8667C10.134 38.1739 10.2668 38.4667 10.498 38.6694C10.6937 38.8408 10.9438 38.9334 11.2006 38.9334C11.2476 38.9334 11.2945 38.9302 11.3417 38.924L20.8006 37.663V53.5902C20.8006 56.0955 22.9756 58.1334 25.6497 58.1334H31.4673V59.4864L8.74382 66.7166C8.18249 66.8952 7.87182 67.4952 8.05049 68.0566C8.22915 68.6176 8.82755 68.9264 9.39049 68.7499L32.5337 61.3859L55.6769 68.7499C55.7846 68.7838 55.8934 68.8003 56.0009 68.8003C56.4524 68.7998 56.8723 68.5102 57.0171 68.0566C57.1958 67.4952 56.8854 66.8952 56.3238 66.7166L50.667 64.9166V58.1334H67.1513C69.8251 58.1334 72.0004 56.0952 72.0004 53.5902V34.9432C72.0004 32.4379 69.8254 30.4 67.1513 30.4ZM40.0004 28.0744L48.5337 26.3678V30.4H40.0004V28.0744ZM12.267 36.6483V24.2344L26.1337 27.0078V30.4H25.6494C22.9756 30.4 20.8004 32.4382 20.8004 34.9432V35.5107L12.267 36.6483ZM22.9337 49.451V39.0824C23.5526 39.3374 24.0004 39.9262 24.0004 40.636V47.8974C24.0004 48.6072 23.5526 49.196 22.9337 49.451ZM37.867 58.1334V60.844L33.6004 59.4864V58.1334H37.867ZM48.5337 64.2379L40.0004 61.5227V58.1334H48.5337V64.2379ZM69.867 53.5902C69.867 54.9187 68.6489 56 67.1513 56H25.6494C24.1521 56 22.9337 54.9187 22.9337 53.5902V51.6691C24.7454 51.3638 26.1337 49.7947 26.1337 47.8974V40.636C26.1337 38.7387 24.7454 37.1696 22.9337 36.8643V34.9432C22.9337 33.6147 24.1518 32.5334 25.6494 32.5334H67.1515C68.6489 32.5334 69.8673 33.6147 69.8673 34.9432V53.5902H69.867Z" fill="black"/>
<path d="M38.5136 47.3803L45.9803 50.5803C46.1147 50.6381 46.2573 50.6667 46.4005 50.6667C46.5437 50.6667 46.6864 50.6381 46.8208 50.5803L54.2875 47.3803C54.6797 47.2125 54.9339 46.8267 54.9339 46.4V37.8667C54.9339 37.44 54.6797 37.0541 54.2875 36.8864L46.8208 33.6864C46.552 33.5707 46.2488 33.5707 45.9803 33.6864L38.5136 36.8864C38.1213 37.0541 37.8672 37.44 37.8672 37.8667V46.4C37.8672 46.8264 38.1213 47.2125 38.5136 47.3803ZM40.0005 39.484L45.3339 41.7696V47.9821L40.0005 45.6965V39.484ZM47.4672 47.9824V41.7699L52.8005 39.4843V45.6971L47.4672 47.9824ZM46.4005 35.8269L51.1597 37.8667L46.4005 39.9061L41.6413 37.8667L46.4005 35.8269Z" fill="black"/>
<path d="M68.8001 24C69.3892 24 69.8667 23.5225 69.8667 22.9334C69.8667 22.3443 69.3892 21.8667 68.8001 21.8667C68.211 21.8667 67.7334 22.3443 67.7334 22.9334C67.7334 23.5225 68.211 24 68.8001 24Z" fill="black"/>
<path d="M63.338 17.729C63.5463 17.9373 63.8193 18.0416 64.0921 18.0416C64.3649 18.0416 64.638 17.9373 64.8463 17.729L65.6004 16.9749L66.3545 17.729C66.5628 17.9373 66.8359 18.0416 67.1087 18.0416C67.3815 18.0416 67.6545 17.9373 67.8628 17.729C68.2796 17.3125 68.2796 16.6373 67.8628 16.2208L67.1087 15.4666L67.8628 14.7125C68.2796 14.296 68.2796 13.6208 67.8628 13.2042C67.4463 12.7877 66.7711 12.7877 66.3545 13.2042L65.6004 13.9584L64.8463 13.2042C64.4297 12.7877 63.7545 12.7877 63.338 13.2042C62.9215 13.6208 62.9215 14.296 63.338 14.7125L64.0921 15.4666L63.338 16.2208C62.9212 16.6373 62.9212 17.3125 63.338 17.729Z" fill="black"/>
<path d="M57.4999 46.2713C56.9583 46.0417 56.3316 46.2959 56.1025 46.8385C55.8729 47.3812 56.1271 48.0068 56.6697 48.2359C57.9791 48.7895 58.1303 49.2177 58.1337 49.2177C57.9937 49.9105 54.1737 51.7335 46.3999 51.7335C38.6255 51.7335 34.8055 49.9105 34.666 49.2303C34.6665 49.2265 34.7828 48.8625 35.8441 48.3641C36.3775 48.1137 36.6065 47.4783 36.3561 46.9449C36.1057 46.4116 35.4703 46.1839 34.9369 46.4329C33.3423 47.1825 32.5332 48.1215 32.5332 49.2241C32.5332 52.4142 39.7212 53.8668 46.3999 53.8668C53.0785 53.8668 60.2665 52.4142 60.2665 49.2241C60.2665 48.0407 59.3359 47.0471 57.4999 46.2713Z" fill="black"/>
</svg>
