<svg width="70" height="70" viewBox="0 0 70 70" fill="none" xmlns="http://www.w3.org/2000/svg">
<path d="M66.7188 37.1875C66.4287 37.1875 66.1505 37.3027 65.9454 37.5079C65.7402 37.713 65.625 37.9912 65.625 38.2812V49.2188C65.625 50.089 65.2793 50.9236 64.6639 51.5389C64.0486 52.1543 63.214 52.5 62.3438 52.5H8.75C7.58968 52.5 6.47688 52.0391 5.65641 51.2186C4.83594 50.3981 4.375 49.2853 4.375 48.125V14.2188C4.375 13.3485 4.7207 12.5139 5.33606 11.8986C5.95141 11.2832 6.78601 10.9375 7.65625 10.9375H26.25C26.5401 10.9375 26.8183 10.8223 27.0234 10.6171C27.2285 10.412 27.3438 10.1338 27.3438 9.84375C27.3438 9.55367 27.2285 9.27547 27.0234 9.07035C26.8183 8.86523 26.5401 8.75 26.25 8.75H7.65625C6.20638 8.75174 4.81639 9.32846 3.79118 10.3537C2.76596 11.3789 2.18924 12.7689 2.1875 14.2188V48.125C2.18924 49.8649 2.8812 51.5331 4.11153 52.7635C5.34186 53.9938 7.01005 54.6858 8.75 54.6875H22.4711C21.3295 57.1871 19.2675 59.15 16.7147 60.1672L14.0087 61.25H12.0312C11.161 61.25 10.3264 61.5957 9.71106 62.2111C9.0957 62.8264 8.75 63.661 8.75 64.5312V66.7188C8.75 67.0088 8.86523 67.287 9.07035 67.4921C9.27547 67.6973 9.55367 67.8125 9.84375 67.8125H27.3438C27.6338 67.8125 27.912 67.6973 28.1171 67.4921C28.3223 67.287 28.4375 67.0088 28.4375 66.7188C28.4375 66.4287 28.3223 66.1505 28.1171 65.9454C27.912 65.7402 27.6338 65.625 27.3438 65.625H10.9375V64.5312C10.9375 64.2412 11.0527 63.963 11.2579 63.7579C11.463 63.5527 11.7412 63.4375 12.0312 63.4375H57.9688C58.2588 63.4375 58.537 63.5527 58.7421 63.7579C58.9473 63.963 59.0625 64.2412 59.0625 64.5312V65.625H31.7188C31.4287 65.625 31.1505 65.7402 30.9454 65.9454C30.7402 66.1505 30.625 66.4287 30.625 66.7188C30.625 67.0088 30.7402 67.287 30.9454 67.4921C31.1505 67.6973 31.4287 67.8125 31.7188 67.8125H60.1562C60.4463 67.8125 60.7245 67.6973 60.9296 67.4921C61.1348 67.287 61.25 67.0088 61.25 66.7188V64.5312C61.25 63.661 60.9043 62.8264 60.2889 62.2111C59.6736 61.5957 58.839 61.25 57.9688 61.25H55.9913L53.2853 60.1672C50.7325 59.15 48.6705 57.1871 47.5289 54.6875H62.3438C63.7936 54.6858 65.1836 54.109 66.2088 53.0838C67.234 52.0586 67.8108 50.6686 67.8125 49.2188V38.2812C67.8125 37.9912 67.6973 37.713 67.4921 37.5079C67.287 37.3027 67.0088 37.1875 66.7188 37.1875ZM50.5662 61.25H19.4338C21.9324 59.7414 23.8427 57.4269 24.85 54.6875H45.15C46.1573 57.4269 48.0676 59.7414 50.5662 61.25Z" fill="black"/>
<path d="M62.3438 8.75H41.5625C41.2724 8.75 40.9942 8.86523 40.7891 9.07035C40.584 9.27547 40.4688 9.55367 40.4688 9.84375C40.4688 10.1338 40.584 10.412 40.7891 10.6171C40.9942 10.8223 41.2724 10.9375 41.5625 10.9375H62.3438C63.214 10.9375 64.0486 11.2832 64.6639 11.8986C65.2793 12.5139 65.625 13.3485 65.625 14.2188V33.9062C65.625 34.1963 65.7402 34.4745 65.9454 34.6796C66.1505 34.8848 66.4287 35 66.7188 35C67.0088 35 67.287 34.8848 67.4921 34.6796C67.6973 34.4745 67.8125 34.1963 67.8125 33.9062V14.2188C67.8108 12.7689 67.234 11.3789 66.2088 10.3537C65.1836 9.32846 63.7936 8.75174 62.3438 8.75Z" fill="black"/>
<path d="M21.9439 14.9286L19.3473 21.852C19.2073 22.2265 19.1442 22.6253 19.1617 23.0246C19.1792 23.424 19.2769 23.8157 19.4491 24.1765C19.6214 24.5372 19.8645 24.8596 20.164 25.1243C20.4635 25.3891 20.8133 25.5908 21.1925 25.7173C21.8344 25.9279 22.5286 25.915 23.1622 25.6806C23.7957 25.4463 24.3313 25.0043 24.6816 24.4267L26.8691 20.7812H28.4375C28.4375 21.0713 28.5527 21.3495 28.7579 21.5546C28.963 21.7598 29.2412 21.875 29.5312 21.875C29.8213 21.875 30.0995 21.7598 30.3046 21.5546C30.5098 21.3495 30.625 21.0713 30.625 20.7812V19.6875C30.625 19.3974 30.5098 19.1192 30.3046 18.9141C30.0995 18.709 29.8213 18.5938 29.5312 18.5938H26.25C26.0613 18.5938 25.8758 18.6427 25.7115 18.7356C25.5473 18.8286 25.4099 18.9624 25.3127 19.1242L22.8069 23.2969C22.7145 23.4497 22.573 23.5666 22.4054 23.6284C22.2379 23.6902 22.0543 23.6933 21.8848 23.637C21.7845 23.6037 21.6919 23.5505 21.6126 23.4806C21.5333 23.4107 21.4689 23.3255 21.4233 23.2302C21.3776 23.1348 21.3517 23.0312 21.347 22.9256C21.3423 22.82 21.3589 22.7145 21.3959 22.6155L23.7705 16.2837L29.622 15.3125H37.8973L43.0664 19.448C43.1832 19.5414 43.3179 19.6099 43.4622 19.6492C43.6065 19.6885 43.7573 19.6978 43.9053 19.6766L49.1083 18.9328C49.2579 18.9112 49.4105 18.9222 49.5554 18.9651C49.7004 19.0079 49.8344 19.0816 49.9483 19.1811C50.0635 19.2794 50.1558 19.4017 50.2187 19.5394C50.2816 19.6772 50.3136 19.827 50.3125 19.9784C50.3121 20.2355 50.2181 20.4836 50.048 20.6762C49.8778 20.8689 49.6433 20.993 49.3883 21.0252L42.8958 21.8367L38.8489 19.4064C38.6829 19.3056 38.493 19.2508 38.2988 19.2477C38.1045 19.2446 37.913 19.2933 37.7438 19.3887C37.5746 19.4842 37.4339 19.6229 37.3361 19.7908C37.2384 19.9586 37.1871 20.1495 37.1875 20.3438V24.0625H29.5312C29.2725 24.0626 29.0222 24.1544 28.8247 24.3216C28.6273 24.4888 28.4955 24.7206 28.4528 24.9758L27.4838 30.7891L22.6713 31.7188H18.5938C18.3037 31.7188 18.0255 31.834 17.8204 32.0391C17.6152 32.2442 17.5 32.5224 17.5 32.8125V40.4688C17.5 40.7588 17.6152 41.037 17.8204 41.2421C18.0255 41.4473 18.3037 41.5625 18.5938 41.5625C19.6881 41.5604 20.7567 41.23 21.6612 40.614C22.5658 39.998 23.2647 39.1248 23.6677 38.1073L32.9219 37.182C33.1056 37.1637 33.2817 37.0991 33.4338 36.9942C33.5858 36.8894 33.7089 36.7478 33.7914 36.5827L36.5827 30.9991L39.4844 32.4483L40.4862 38.4639C40.5293 38.7183 40.661 38.9493 40.858 39.116C41.0549 39.2828 41.3045 39.3745 41.5625 39.375H44.8438C45.5222 39.3758 46.1837 39.5865 46.7377 39.9781C47.2917 40.3698 47.7109 40.9232 47.938 41.5625H41.5625C41.2724 41.5625 40.9942 41.6777 40.7891 41.8829C40.584 42.088 40.4688 42.3662 40.4688 42.6562C40.4688 42.9463 40.584 43.2245 40.7891 43.4296C40.9942 43.6348 41.2724 43.75 41.5625 43.75H49.2188C49.5088 43.75 49.787 43.6348 49.9921 43.4296C50.1973 43.2245 50.3125 42.9463 50.3125 42.6562C50.31 41.5588 49.9773 40.4875 49.3578 39.5816C48.7383 38.6757 47.8606 37.9772 46.8388 37.5769L45.9309 29.4109C45.9134 29.2522 45.8613 29.0993 45.7784 28.9629C45.6954 28.8265 45.5836 28.7099 45.4508 28.6213L39.375 24.5711V22.2742L42.093 23.905C42.3026 24.0317 42.5489 24.0837 42.7919 24.0527L49.6595 23.1952C50.086 23.1439 50.4981 23.0084 50.8718 22.7966C51.2454 22.5847 51.5733 22.3008 51.8364 21.9612C52.0994 21.6216 52.2924 21.2331 52.404 20.8183C52.5157 20.4035 52.5438 19.9707 52.4868 19.5449C52.4298 19.1192 52.2887 18.709 52.0719 18.3382C51.855 17.9674 51.5667 17.6434 51.2236 17.3849C50.8804 17.1265 50.4894 16.9388 50.0731 16.8328C49.6569 16.7267 49.2237 16.7044 48.7988 16.7672L44.0639 17.4431L38.9648 13.3634C38.7707 13.2087 38.5296 13.1246 38.2812 13.125H37.6731C38.0668 12.4629 38.2767 11.7078 38.2812 10.9375V3.28125C38.2812 2.99117 38.166 2.71297 37.9609 2.50785C37.7558 2.30273 37.4776 2.1875 37.1875 2.1875H35C33.5501 2.18924 32.1601 2.76596 31.1349 3.79118C30.1097 4.81639 29.533 6.20638 29.5312 7.65625V10.9375C29.5358 11.7078 29.7457 12.4629 30.1394 13.125H29.5312C29.4711 13.1246 29.4111 13.1297 29.3519 13.1403L22.7894 14.2341C22.5999 14.2654 22.422 14.3461 22.2736 14.468C22.1251 14.5899 22.0114 14.7488 21.9439 14.9286ZM21.875 36.0938C21.8742 36.7722 21.6635 37.4337 21.2719 37.9877C20.8802 38.5417 20.3268 38.9609 19.6875 39.188V33.9062H21.875V36.0938ZM44.5944 37.1875H42.4889L41.5472 31.5383C41.5188 31.3681 41.4507 31.2071 41.3482 31.0683C41.2457 30.9296 41.1119 30.817 40.9577 30.7398L36.5827 28.5523C36.4541 28.4881 36.3142 28.4498 36.1708 28.4396C36.0275 28.4295 35.8835 28.4477 35.7472 28.4932C35.6109 28.5387 35.4849 28.6106 35.3764 28.7048C35.2679 28.7991 35.179 28.9137 35.1148 29.0423L32.1048 35.0656L24.0625 35.875V33.6875L28.6442 32.8016C28.8639 32.7599 29.0656 32.6519 29.222 32.4922C29.3785 32.3324 29.4822 32.1285 29.5192 31.908L30.4577 26.25H37.9531L43.8167 30.1591L44.5944 37.1875ZM35 4.375H36.0938V6.5625H31.9058C32.1328 5.92319 32.5521 5.36978 33.106 4.97814C33.66 4.58651 34.3216 4.37583 35 4.375ZM31.7188 10.9375V8.75H36.0938V10.9375C36.0938 11.5177 35.8633 12.0741 35.453 12.4843C35.0428 12.8945 34.4864 13.125 33.9062 13.125C33.3261 13.125 32.7697 12.8945 32.3595 12.4843C31.9492 12.0741 31.7188 11.5177 31.7188 10.9375Z" fill="black"/>
<path d="M24.0625 43.75C23.3863 43.7528 22.7274 43.9645 22.1761 44.356C21.6248 44.7476 21.2079 45.2999 20.9825 45.9375H14.2188C13.9287 45.9375 13.6505 46.0527 13.4454 46.2579C13.2402 46.463 13.125 46.7412 13.125 47.0312C13.125 47.3213 13.2402 47.5995 13.4454 47.8046C13.6505 48.0098 13.9287 48.125 14.2188 48.125H20.9825C21.2052 48.7643 21.6214 49.3185 22.1733 49.7107C22.7252 50.1028 23.3855 50.3135 24.0625 50.3135C24.7395 50.3135 25.3998 50.1028 25.9517 49.7107C26.5036 49.3185 26.9198 48.7643 27.1425 48.125H57.9688C58.2588 48.125 58.537 48.0098 58.7421 47.8046C58.9473 47.5995 59.0625 47.3213 59.0625 47.0312C59.0625 46.7412 58.9473 46.463 58.7421 46.2579C58.537 46.0527 58.2588 45.9375 57.9688 45.9375H27.1425C26.9171 45.2999 26.5002 44.7476 25.9489 44.356C25.3976 43.9645 24.7387 43.7528 24.0625 43.75ZM24.0625 48.125C23.8462 48.125 23.6347 48.0609 23.4548 47.9407C23.275 47.8205 23.1348 47.6497 23.052 47.4498C22.9692 47.25 22.9476 47.03 22.9898 46.8179C23.032 46.6057 23.1361 46.4108 23.2891 46.2579C23.4421 46.1049 23.637 46.0007 23.8491 45.9585C24.0613 45.9163 24.2812 45.938 24.4811 46.0208C24.6809 46.1035 24.8517 46.2437 24.9719 46.4236C25.0921 46.6035 25.1562 46.8149 25.1562 47.0312C25.1562 47.3213 25.041 47.5995 24.8359 47.8046C24.6308 48.0098 24.3526 48.125 24.0625 48.125Z" fill="black"/>
<path d="M62.3438 42.6562C62.6338 42.6562 62.912 42.541 63.1171 42.3359C63.3223 42.1308 63.4375 41.8526 63.4375 41.5625V24.0625C63.4375 23.7724 63.3223 23.4942 63.1171 23.2891C62.912 23.084 62.6338 22.9688 62.3438 22.9688H57.9688C57.6787 22.9688 57.4005 23.084 57.1954 23.2891C56.9902 23.4942 56.875 23.7724 56.875 24.0625V41.5625C56.875 41.8526 56.9902 42.1308 57.1954 42.3359C57.4005 42.541 57.6787 42.6562 57.9688 42.6562H62.3438ZM59.0625 33.9062H61.25V36.0938H59.0625V33.9062ZM61.25 31.7188H59.0625V29.5312H61.25V31.7188ZM61.25 40.4688H59.0625V38.2812H61.25V40.4688ZM59.0625 25.1562H61.25V27.3438H59.0625V25.1562Z" fill="black"/>
<path d="M7.65625 22.9688H12.0312C12.3213 22.9688 12.5995 22.8535 12.8046 22.6484C13.0098 22.4433 13.125 22.1651 13.125 21.875C13.125 21.5849 13.0098 21.3067 12.8046 21.1016C12.5995 20.8965 12.3213 20.7812 12.0312 20.7812H7.65625C7.36617 20.7812 7.08797 20.8965 6.88285 21.1016C6.67773 21.3067 6.5625 21.5849 6.5625 21.875C6.5625 22.1651 6.67773 22.4433 6.88285 22.6484C7.08797 22.8535 7.36617 22.9688 7.65625 22.9688Z" fill="black"/>
<path d="M7.65625 27.3438H12.0312C12.3213 27.3438 12.5995 27.2285 12.8046 27.0234C13.0098 26.8183 13.125 26.5401 13.125 26.25C13.125 25.9599 13.0098 25.6817 12.8046 25.4766C12.5995 25.2715 12.3213 25.1562 12.0312 25.1562H7.65625C7.36617 25.1562 7.08797 25.2715 6.88285 25.4766C6.67773 25.6817 6.5625 25.9599 6.5625 26.25C6.5625 26.5401 6.67773 26.8183 6.88285 27.0234C7.08797 27.2285 7.36617 27.3438 7.65625 27.3438Z" fill="black"/>
<path d="M13.125 30.625C13.125 30.3349 13.0098 30.0567 12.8046 29.8516C12.5995 29.6465 12.3213 29.5312 12.0312 29.5312H7.65625C7.36617 29.5312 7.08797 29.6465 6.88285 29.8516C6.67773 30.0567 6.5625 30.3349 6.5625 30.625C6.5625 30.9151 6.67773 31.1933 6.88285 31.3984C7.08797 31.6035 7.36617 31.7188 7.65625 31.7188H12.0312C12.3213 31.7188 12.5995 31.6035 12.8046 31.3984C13.0098 31.1933 13.125 30.9151 13.125 30.625Z" fill="black"/>
<path d="M12.0312 35C12.0312 34.7099 11.916 34.4317 11.7109 34.2266C11.5058 34.0215 11.2276 33.9062 10.9375 33.9062H7.65625C7.36617 33.9062 7.08797 34.0215 6.88285 34.2266C6.67773 34.4317 6.5625 34.7099 6.5625 35C6.5625 35.2901 6.67773 35.5683 6.88285 35.7734C7.08797 35.9785 7.36617 36.0938 7.65625 36.0938H10.9375C11.2276 36.0938 11.5058 35.9785 11.7109 35.7734C11.916 35.5683 12.0312 35.2901 12.0312 35Z" fill="black"/>
<path d="M7.65625 38.2812C7.36617 38.2812 7.08797 38.3965 6.88285 38.6016C6.67773 38.8067 6.5625 39.0849 6.5625 39.375C6.5625 39.6651 6.67773 39.9433 6.88285 40.1484C7.08797 40.3535 7.36617 40.4688 7.65625 40.4688H9.84375C10.1338 40.4688 10.412 40.3535 10.6171 40.1484C10.8223 39.9433 10.9375 39.6651 10.9375 39.375C10.9375 39.0849 10.8223 38.8067 10.6171 38.6016C10.412 38.3965 10.1338 38.2812 9.84375 38.2812H7.65625Z" fill="black"/>
</svg>
