<svg width="70" height="70" viewBox="0 0 70 70" fill="none" xmlns="http://www.w3.org/2000/svg">
<path d="M64.5312 16.4063H62.3438V15.3125H63.4375C64.3077 15.3125 65.1423 14.9668 65.7577 14.3515C66.373 13.7361 66.7188 12.9015 66.7188 12.0313C66.7188 11.161 66.373 10.3264 65.7577 9.71108C65.1423 9.09572 64.3077 8.75002 63.4375 8.75002H62.3438V3.28127C62.3453 3.11003 62.3054 2.94096 62.2273 2.78856C62.1492 2.63616 62.0353 2.50498 61.8953 2.40627C61.7598 2.30369 61.6021 2.23441 61.4349 2.20401C61.2677 2.17361 61.0957 2.18295 60.9328 2.23127L46.8672 6.56252H39.375C39.0849 6.56252 38.8067 6.67775 38.6016 6.88287C38.3965 7.08799 38.2812 7.36619 38.2812 7.65627V8.75002H36.0938C35.8037 8.75002 35.5255 8.86525 35.3204 9.07037C35.1152 9.27549 35 9.55369 35 9.84377V14.2188C35 14.5089 35.1152 14.7871 35.3204 14.9922C35.5255 15.1973 35.8037 15.3125 36.0938 15.3125H38.2812V16.4063H31.7188V6.56252C31.7188 6.27244 31.6035 5.99424 31.3984 5.78912C31.1933 5.584 30.9151 5.46877 30.625 5.46877H8.75C8.45992 5.46877 8.18172 5.584 7.9766 5.78912C7.77148 5.99424 7.65625 6.27244 7.65625 6.56252V16.4063H5.46875C4.59931 16.4089 3.76622 16.7554 3.15142 17.3702C2.53663 17.985 2.1901 18.8181 2.1875 19.6875V54.6875C2.1901 55.557 2.53663 56.3901 3.15142 57.0048C3.76622 57.6196 4.59931 57.9662 5.46875 57.9688H30.625V61.25H24.0625C23.7724 61.25 23.4942 61.3653 23.2891 61.5704C23.084 61.7755 22.9688 62.0537 22.9688 62.3438V66.7188C22.9688 67.0089 23.084 67.287 23.2891 67.4922C23.4942 67.6973 23.7724 67.8125 24.0625 67.8125H45.9375C46.2276 67.8125 46.5058 67.6973 46.7109 67.4922C46.916 67.287 47.0312 67.0089 47.0312 66.7188V62.3438C47.0312 62.0537 46.916 61.7755 46.7109 61.5704C46.5058 61.3653 46.2276 61.25 45.9375 61.25H39.375V57.9688H64.5312C65.4007 57.9662 66.2338 57.6196 66.8486 57.0048C67.4634 56.3901 67.8099 55.557 67.8125 54.6875V19.6875C67.8099 18.8181 67.4634 17.985 66.8486 17.3702C66.2338 16.7554 65.4007 16.4089 64.5312 16.4063ZM62.3438 10.9375H63.4375C63.7276 10.9375 64.0058 11.0528 64.2109 11.2579C64.416 11.463 64.5312 11.7412 64.5312 12.0313C64.5312 12.3214 64.416 12.5996 64.2109 12.8047C64.0058 13.0098 63.7276 13.125 63.4375 13.125H62.3438V10.9375ZM48.125 8.46564L60.1562 4.75783V19.3047L48.125 15.5969V8.46564ZM40.4688 8.75002H45.9375V15.3125H40.4688V8.75002ZM43.5859 17.5L42.7984 22.9688H41.5625V17.5H43.5859ZM37.1875 13.125V10.9375H38.2812V13.125H37.1875ZM9.84375 7.65627H29.5312V22.9688H9.84375V7.65627ZM44.8438 63.4375V65.625H25.1562V63.4375H44.8438ZM32.8125 61.25V57.9688H37.1875V61.25H32.8125ZM65.625 54.6875C65.625 54.9776 65.5098 55.2558 65.3046 55.4609C65.0995 55.666 64.8213 55.7813 64.5312 55.7813H5.46875C5.17867 55.7813 4.90047 55.666 4.69535 55.4609C4.49023 55.2558 4.375 54.9776 4.375 54.6875V53.5938H65.625V54.6875ZM65.625 51.4063H4.375V19.6875C4.375 19.3974 4.49023 19.1192 4.69535 18.9141C4.90047 18.709 5.17867 18.5938 5.46875 18.5938H7.65625V24.0625C7.65625 24.3526 7.77148 24.6308 7.9766 24.8359C8.18172 25.041 8.45992 25.1563 8.75 25.1563H30.625C30.9151 25.1563 31.1933 25.041 31.3984 24.8359C31.6035 24.6308 31.7188 24.3526 31.7188 24.0625V18.5938H39.375V24.0625C39.375 24.3526 39.4902 24.6308 39.6954 24.8359C39.9005 25.041 40.1787 25.1563 40.4688 25.1563H43.75C44.0135 25.1562 44.2682 25.061 44.4671 24.8882C44.6661 24.7154 44.7959 24.4766 44.8328 24.2156L45.7953 17.5H46.8672L60.9328 21.8313C61.0355 21.8626 61.1426 21.8774 61.25 21.875C61.5388 21.8708 61.8145 21.7542 62.0187 21.55C62.2229 21.3458 62.3395 21.07 62.3438 20.7813V18.5938H64.5312C64.8213 18.5938 65.0995 18.709 65.3046 18.9141C65.5098 19.1192 65.625 19.3974 65.625 19.6875V51.4063Z" fill="black"/>
<path d="M7.65625 49.2188H36.0938C36.3838 49.2188 36.662 49.1035 36.8671 48.8984C37.0723 48.6933 37.1875 48.4151 37.1875 48.125V30.625C37.1875 30.3349 37.0723 30.0567 36.8671 29.8516C36.662 29.6465 36.3838 29.5312 36.0938 29.5312H7.65625C7.36617 29.5312 7.08797 29.6465 6.88285 29.8516C6.67773 30.0567 6.5625 30.3349 6.5625 30.625V48.125C6.5625 48.4151 6.67773 48.6933 6.88285 48.8984C7.08797 49.1035 7.36617 49.2188 7.65625 49.2188ZM8.75 47.0312V32.5817L21.3019 40.3069C21.4742 40.4129 21.6726 40.4691 21.875 40.4691C22.0774 40.4691 22.2758 40.4129 22.4481 40.3069L35 32.5817V47.0312H8.75ZM11.5205 31.7188H32.2295L21.875 38.0909L11.5205 31.7188Z" fill="black"/>
<path d="M40.4688 42.6562H42.6562V45.9375C42.6562 46.2276 42.7715 46.5058 42.9766 46.7109C43.1817 46.916 43.4599 47.0312 43.75 47.0312H62.3438C62.6338 47.0312 62.912 46.916 63.1171 46.7109C63.3223 46.5058 63.4375 46.2276 63.4375 45.9375V32.8125C63.4375 32.5224 63.3223 32.2442 63.1171 32.0391C62.912 31.834 62.6338 31.7188 62.3438 31.7188H61.25V28.4375C61.25 28.1474 61.1348 27.8692 60.9296 27.6641C60.7245 27.459 60.4463 27.3438 60.1562 27.3438H40.4688C40.1787 27.3438 39.9005 27.459 39.6954 27.6641C39.4902 27.8692 39.375 28.1474 39.375 28.4375V41.5625C39.375 41.8526 39.4902 42.1308 39.6954 42.3359C39.9005 42.541 40.1787 42.6562 40.4688 42.6562ZM61.25 44.8438H44.8438V33.9062H61.25V44.8438ZM41.5625 29.5312H59.0625V31.7188H43.75C43.4599 31.7188 43.1817 31.834 42.9766 32.0391C42.7715 32.2442 42.6562 32.5224 42.6562 32.8125V40.4688H41.5625V29.5312Z" fill="black"/>
<path d="M47.0312 36.0938H49.2188V38.2812H47.0312V36.0938Z" fill="black"/>
<path d="M51.4062 36.0938H59.0625V38.2812H51.4062V36.0938Z" fill="black"/>
<path d="M47.0312 40.4688H51.4062V42.6562H47.0312V40.4688Z" fill="black"/>
<path d="M53.5938 40.4688H59.0625V42.6562H53.5938V40.4688Z" fill="black"/>
<path d="M16.9247 19.5246C17.0833 19.6226 17.2643 19.6785 17.4505 19.6869C17.6368 19.6954 17.8221 19.656 17.9889 19.5727L24.5514 16.2914C24.7334 16.2007 24.8865 16.0611 24.9936 15.8881C25.1006 15.7152 25.1573 15.5159 25.1573 15.3125C25.1573 15.1092 25.1006 14.9098 24.9936 14.7369C24.8865 14.564 24.7334 14.4243 24.5514 14.3336L17.9889 11.0524C17.8221 10.969 17.6368 10.9297 17.4505 10.9381C17.2642 10.9466 17.0832 11.0025 16.9247 11.1006C16.7661 11.1986 16.6352 11.3356 16.5445 11.4985C16.4537 11.6614 16.4062 11.8448 16.4063 12.0313V18.5938C16.4062 18.7802 16.4537 18.9636 16.5445 19.1266C16.6352 19.2895 16.7661 19.4265 16.9247 19.5246ZM18.5938 13.801L21.6169 15.3125L18.5938 16.8241V13.801Z" fill="black"/>
</svg>
